<?xml version="1.0" encoding="UTF-8"?>
<svg id="Layer_1" data-name="Layer 1" xmlns="http://www.w3.org/2000/svg" viewBox="0 0 100 100">
  <defs>
    <style>
      .cls-1 {
        fill: #ffc226;
      }
    </style>
  </defs>
  <circle class="cls-1" cx="50" cy="50" r="50"/>
  <g>
    <path d="M52.31,55.62c1.74-1.01,3.53-2.01,5.54-2.43.07-.32-.06-.22-.18-.3-5.17-3.57-7.81-8.84-4.98-15.05,4.57-10.03,19.77-8.24,21.83,2.52,1.1,5.75-1.36,9.45-5.84,12.53-.12.08-.25-.02-.18.3,7.93,1.98,14.11,9.58,14.58,17.76.04.68.16,2.36-.88,2.36h-29.5c.23,1.17,3.18,4.97,3.08,5.84-.21,1.89-3.76-.26-4.82-.16-.59,1.2-.48,5.8-2.64,3.76l-4.89-8.35-2.69.11-4.99,8.52c-1.97,1.16-1.94-2.87-2.37-4.05-.2-.2-3.3,1.03-3.87,1.04s-1-.42-1-.97l4.44-8-.04-.3c-1.65-1.21-.63-3.57-1.08-5.01-.17-.54-1.77-1.74-2.21-2.38-.71-1.03-.82-2.52-.14-3.6.44-.69,2.16-1.91,2.35-2.51.47-1.52-.55-3.48.93-5.01,1.72-1.78,4.06-.26,5.54-1.35,1.37-1.01,1.9-2.69,4.05-2.57,2.26.13,2.94,2.81,4.73,2.98,1.23.12,2.55-.29,3.68.37.48.28,1.52,1.45,1.52,1.99v1.96ZM62.01,33.11c-6.55.67-10.38,8.01-7.49,13.89,3.85,7.86,15.58,6.87,17.95-1.55,1.92-6.8-3.47-13.07-10.46-12.35ZM50.11,53.5c-.63-.63-3.16-.1-4.37-.56-1.27-.48-2.51-2.74-3.62-2.73-.8,0-2.31,2.2-3.41,2.67-1.6.69-4.61-.48-4.88,1.46-.3,2.11.58,2.85-1.02,4.78-.52.62-1.8,1.46-1.84,2.22-.06,1.29,2.05,2.25,2.58,3.51s-.11,3.74.61,4.52,3.09.2,4.28.58c1.46.47,2.49,2.65,3.68,2.68,1.35.04,2.25-2.09,3.48-2.6,1.36-.57,4.55.41,4.81-1.26.24-1.55-.41-2.97.68-4.45.71-.96,2.97-2.17,2.09-3.57-1.02-1.61-2.53-1.57-2.76-4.13-.08-.85.25-2.55-.32-3.12ZM81.21,71.41c-.7-14.02-16.76-21.96-28.35-13.9-.15.22,1.33,1.48,1.55,1.75.95,1.19,1.22,2.43.45,3.83-.69,1.25-2.41,1.96-2.55,3.39-.11,1.17.27,2.39-.29,3.49-.13.26-.75.91-.75.97,0,.09.25.48.3.48h29.64ZM35.44,79.78l3.9-6.57-1.56-1.5h-2.99s-3.12,5.44-3.12,5.44c-.03.22,0,.21.2.2.76-.04,1.9-.8,2.63-.47.57.26.83,2.27.95,2.9ZM52.85,77.49l-3.37-5.74c-.93-.02-2.56-.32-3.31.2-.13.09-1.04,1-1.09,1.08-.2.4,3.32,5.73,3.59,6.61.35.04.21,0,.27-.19.19-.64.27-2.27.94-2.57.73-.33,2.17.52,2.97.6Z"/>
    <path d="M36.79,26.99h8.98c.5,0,1.64.86,1.96,1.28,1.33,1.79.53,3.72-1.18,4.85.74,1.54.28,3.2-1.09,4.19,1.07,1.64.52,3.58-1.08,4.61.97,2.09-.06,4.4-2.38,4.78-3.9-.23-8.16.31-12.02,0-1.62-.13-3.04-.85-4.52-1.35.05.65-.02,1.23-.75,1.34-2.33-.16-5,.24-7.29.02-.49-.05-.63-.16-.93-.55l-.08-18.43c0-.64.25-.94.88-1.01,2.29-.27,5.08.2,7.42.01.59.09.78.5.75,1.07,3.02-.48,4.1-4.35,4.44-6.97.22-1.69-.35-4.04,1.97-4.24,2.55-.22,4.94,2.21,5.44,4.57.42,1.97-.2,3.9-.5,5.84ZM34.31,19.48c-.6-.6-1.51-1.08-2.38-.99-.05,4.45-1.35,10.39-6.46,11.36v13.12c.19.6,3.73,1.82,4.51,1.85l11.98-.03c.9-.31,1.22-1.52.49-2.19-.81-.75-3.84-.1-5.03-.37-.96-.22-.85-1.68.25-1.85,1.68-.27,3.87.23,5.6-.07.94-.37,1.14-1.76.25-2.29-.95-.56-3.56.03-4.75-.24-1.05-.23-.95-1.69.11-1.85,1.48-.23,3.98.31,5.3-.1.88-.27,1.07-1.52.43-2.14-.79-.77-3.93-.03-5.04-.36-.84-.25-.86-1.68.25-1.85,1.65-.26,4.03.28,5.63-.04,1.44-.29,1.27-2.33-.11-2.53-2.92-.41-6.8.39-9.72,0-.52-.07-.88-.49-.88-1.01.02-2.79,2.03-5.92-.45-8.4ZM23.56,28.61h-5.27v16.2h5.27v-16.2Z"/>
    <path d="M41.35,54.17c9.45-1.04,11.16,13.2,1.97,14.53-9.92,1.44-11.59-13.47-1.97-14.53ZM41.48,56.06c-6.51.74-6.19,10.79.66,10.85,7.47.06,7.02-11.72-.66-10.85Z"/>
  </g>
</svg>