<svg version="1.2" xmlns="http://www.w3.org/2000/svg" xmlns:xlink="http://www.w3.org/1999/xlink" overflow="visible" preserveAspectRatio="none" viewBox="0 0 24 24" width="33" height="33"><g><path xmlns:default="http://www.w3.org/2000/svg" id="angle-left" d="M15.01,7.67c0-0.09-0.04-0.18-0.1-0.24l-0.52-0.52c-0.13-0.13-0.33-0.14-0.47-0.01c0,0-0.01,0.01-0.01,0.01  l-4.83,4.85c-0.13,0.13-0.14,0.33-0.01,0.47c0,0,0.01,0.01,0.01,0.01l4.85,4.85c0.13,0.13,0.33,0.14,0.47,0.01  c0,0,0.01-0.01,0.01-0.01l0.52-0.52c0.13-0.13,0.14-0.33,0.01-0.47c0,0-0.01-0.01-0.01-0.01L10.84,12l4.09-4.09  C14.98,7.84,15.01,7.76,15.01,7.67L15.01,7.67z" style="fill: rgb(95, 132, 164);" vector-effect="non-scaling-stroke"/></g></svg>