<svg xmlns="http://www.w3.org/2000/svg" xmlns:xlink="http://www.w3.org/1999/xlink" width="27" height="27" viewBox="0 0 27 27"><defs><style>.a{fill:#fff;}.b{fill:#ff0b0b;}.c{filter:url(#a);}</style><filter id="a" x="0" y="0" width="27" height="27" filterUnits="userSpaceOnUse"><feOffset dy="1" input="SourceAlpha"/><feGaussianBlur stdDeviation="1.5" result="b"/><feFlood flood-opacity="0.161"/><feComposite operator="in" in2="b"/><feComposite in="SourceGraphic"/></filter></defs><g transform="translate(-1018.5 -586.5)"><g class="c" transform="matrix(1, 0, 0, 1, 1018.5, 586.5)"><circle class="a" cx="9" cy="9" r="9" transform="translate(4.5 3.5)"/></g><path class="b" d="M11.25,2.25a9,9,0,1,0,9,9A8.945,8.945,0,0,0,11.25,2.25Zm3.471,13.5L11.25,12.279,7.779,15.75,6.75,14.721l3.471-3.471L6.75,7.779,7.779,6.75l3.471,3.471L14.721,6.75,15.75,7.779,12.279,11.25l3.471,3.471Z" transform="translate(1020.75 587.75)"/></g></svg>