<svg xmlns="http://www.w3.org/2000/svg" width="20" height="20" viewBox="0 0 20 20"><g transform="translate(-3.375 -3.375)"><path d="M15.207,22.041a1.345,1.345,0,0,0-.841-.216H8.784a3,3,0,0,1-3.1-2.846V14.133H5.6A2.184,2.184,0,0,0,3.375,16.32v6.2a2.066,2.066,0,0,0,2.293,1.952h.784v2.308l2.553-2.163a1.019,1.019,0,0,1,.635-.144h4.317a2.426,2.426,0,0,0,2.5-1.538l-1.245-.89Z" fill="#FE077C"  transform="translate(0 -3.402)"/><path d="M22.125,3.375H11.678A2.667,2.667,0,0,0,9,6.25v8.086a2.951,2.951,0,0,0,3.015,2.885h4.861a1.319,1.319,0,0,1,.841.2L21.308,20.3V17.221h.817a2.96,2.96,0,0,0,3.029-2.88V6.25A2.956,2.956,0,0,0,22.125,3.375Z" fill="#FE077C"  transform="translate(-1.779)"/></g></svg>