<svg xmlns="http://www.w3.org/2000/svg" width="16" height="16" viewBox="0 0 16 16">
  <g id="Group_11662" data-name="Group 11662" transform="translate(-824 -560)">
    <circle id="Ellipse_2" data-name="Ellipse 2" cx="8" cy="8" r="8" transform="translate(824 560)" fill="#fff"/>
    <path id="times-circle" d="M11.969,10.354a.642.642,0,0,0-.2-.469L9.885,8l1.885-1.885a.641.641,0,0,0,.2-.469.653.653,0,0,0-.2-.479l-.937-.937a.653.653,0,0,0-.479-.2.642.642,0,0,0-.469.2L8,6.115,6.115,4.229a.641.641,0,0,0-.469-.2.653.653,0,0,0-.479.2l-.937.937a.653.653,0,0,0-.2.479.642.642,0,0,0,.2.469L6.115,8,4.229,9.885a.641.641,0,0,0-.2.469.653.653,0,0,0,.2.479l.937.937a.653.653,0,0,0,.479.2.642.642,0,0,0,.469-.2L8,9.885l1.885,1.885a.641.641,0,0,0,.469.2.653.653,0,0,0,.479-.2l.937-.937a.653.653,0,0,0,.2-.479ZM16,8a7.826,7.826,0,0,1-1.073,4.016,7.963,7.963,0,0,1-2.912,2.912A7.826,7.826,0,0,1,8,16a7.826,7.826,0,0,1-4.016-1.073,7.963,7.963,0,0,1-2.912-2.912A7.826,7.826,0,0,1,0,8,7.826,7.826,0,0,1,1.073,3.984,7.963,7.963,0,0,1,3.984,1.073,7.826,7.826,0,0,1,8,0a7.826,7.826,0,0,1,4.016,1.073,7.963,7.963,0,0,1,2.912,2.912A7.826,7.826,0,0,1,16,8Z" transform="translate(824 560)" fill="#ff1717"/>
  </g>
</svg>
