<svg xmlns="http://www.w3.org/2000/svg" width="21" height="16.546" viewBox="0 0 21 16.546"><defs><style>.a{fill:#FE077C;stroke:rgba(0,0,0,0);stroke-miterlimit:10;}</style></defs><path class="a" d="M-732.959-1844.454h-5.947c0-3.905,3.767-3.9,4.6-4.925l.1-.464a3.674,3.674,0,0,1-2-3.377,3.448,3.448,0,0,1,3.211-3.644,3.448,3.448,0,0,1,3.212,3.644,3.679,3.679,0,0,1-1.973,3.363l.109.53c.917.971,4.557,1.035,4.557,4.874Zm5.766-3.134a7.079,7.079,0,0,0-2.786-1.817c-.162-.07-.341-.146-.5-.222a4.654,4.654,0,0,0,1.641-3.594,4.466,4.466,0,0,0-3.089-4.352,3.264,3.264,0,0,1,3.023-2.427,3.448,3.448,0,0,1,3.211,3.644,3.68,3.68,0,0,1-1.973,3.364l.11.53c.917.971,4.558,1.034,4.558,4.874Zm-15.807,0c0-3.905,3.767-3.9,4.6-4.926l.1-.465a3.67,3.67,0,0,1-2-3.376,3.449,3.449,0,0,1,3.212-3.645,3.265,3.265,0,0,1,3.023,2.427,4.467,4.467,0,0,0-3.091,4.353,4.645,4.645,0,0,0,1.642,3.594c-.163.076-.346.154-.5.22a7.084,7.084,0,0,0-2.784,1.818Z" fill="#FE077C" transform="translate(743.501 1860.5)"/></svg>