<svg id="Icon_Alert_Solid" data-name="Icon / Alert Solid" xmlns="http://www.w3.org/2000/svg" width="38.99" height="36.342" viewBox="0 0 38.99 36.342">
  <path id="_Icon_style" data-name="🎨 Icon style" d="M35.319,36.343H3.672A3.667,3.667,0,0,1,.453,30.92L16.276,1.911a3.668,3.668,0,0,1,6.439,0L38.537,30.92a3.667,3.667,0,0,1-3.218,5.422ZM18.836,26.259a1,1,0,0,0-1,1v1.666a1,1,0,0,0,1,1H20.5a1,1,0,0,0,1-1V27.26a1,1,0,0,0-1-1ZM19.67,12.51a1.835,1.835,0,0,0-1.833,1.833v7.333a1.833,1.833,0,0,0,3.667,0V14.343A1.835,1.835,0,0,0,19.67,12.51Z" transform="translate(0 0)" fill="#f21810" opacity="0.8"/>
</svg>
