<svg xmlns="http://www.w3.org/2000/svg" width="20" height="17.937" viewBox="0 0 20 17.937">
  <g id="Group_11673" data-name="Group 11673" transform="translate(-522.384 -264.64)">
    <g id="Group_11417" data-name="Group 11417" transform="translate(537.339 282.577) rotate(180)">
      <path id="Path_3802" data-name="Path 3802" d="M.751,5.707H2.589v5.45a1,1,0,0,0,1,1H6.321a1,1,0,0,0,1-1V5.707H9.16a.752.752,0,0,0,.531-1.283L5.486.22a.753.753,0,0,0-1.063,0l-4.2,4.2A.752.752,0,0,0,.751,5.707Z" fill="#222"/>
    </g>
    <g id="Group_11418" data-name="Group 11418" transform="translate(542.384 273.174) rotate(180)">
      <path id="Path_3803" data-name="Path 3803" d="M19.005,0a.952.952,0,0,0-.994.9V4.678a2.165,2.165,0,0,1-2.259,2.051H4.248A2.165,2.165,0,0,1,1.989,4.678V.9A.952.952,0,0,0,1,0,.952.952,0,0,0,0,.9V4.678A4.07,4.07,0,0,0,4.248,8.533H15.753A4.07,4.07,0,0,0,20,4.678V.9A.952.952,0,0,0,19.005,0Z" fill="#222"/>
    </g>
  </g>
</svg>
