<svg xmlns="http://www.w3.org/2000/svg" width="28" height="28" viewBox="0 0 28 28">
  <g id="edit" transform="translate(-0.001 0)">
    <path id="Shape" d="M3.5,28A3.5,3.5,0,0,1,0,24.5V7A3.5,3.5,0,0,1,3.5,3.5H18.312L14.814,7H3.5V24.5H21V13.189l3.5-3.5V24.5A3.5,3.5,0,0,1,21,28ZM7,21V17.5L10.5,21Zm1.2-4.912L19.339,4.951l3.712,3.712L11.915,19.8ZM20.576,3.712l1.237-1.237,3.712,3.713L24.288,7.425Zm2.475-2.475L24.288,0,28,3.712,26.763,4.951Z" transform="translate(0.001 0)" fill="#fff"/>
  </g>
</svg>
