<svg xmlns="http://www.w3.org/2000/svg" width="22" height="22" viewBox="0 0 22 22">
  <g id="edit" transform="translate(-0.001 0)">
    <path id="Shape" d="M2.75,22A2.751,2.751,0,0,1,0,19.25V5.5A2.751,2.751,0,0,1,2.75,2.75H14.388L11.64,5.5H2.75V19.25H16.5V10.362L19.25,7.611V19.25A2.75,2.75,0,0,1,16.5,22ZM5.5,16.5V13.75L8.25,16.5Zm.944-3.859,8.75-8.752,2.917,2.917-8.75,8.752Zm9.722-9.725.972-.972,2.917,2.918-.972.972ZM18.111.972,19.083,0,22,2.917l-.972.973Z" transform="translate(0.001 0)" fill="#202020"/>
  </g>
</svg>
