<svg xmlns="http://www.w3.org/2000/svg" width="29" height="17.286" viewBox="0 0 29 17.286">
  <path id="Path_9" data-name="Path 9" d="M-236.575,151.782c-5.541,0-10.565,3.031-14.273,7.955a1.146,1.146,0,0,0,0,1.37c3.708,4.93,8.732,7.961,14.273,7.961s10.565-3.031,14.273-7.955a1.146,1.146,0,0,0,0-1.37C-226.01,154.813-231.034,151.782-236.575,151.782Zm.4,14.73a6.1,6.1,0,0,1-6.484-6.484,6.114,6.114,0,0,1,5.69-5.69,6.1,6.1,0,0,1,6.484,6.484A6.134,6.134,0,0,1-236.178,166.512Zm-.183-2.812a3.28,3.28,0,0,1-3.489-3.489,3.3,3.3,0,0,1,3.067-3.067,3.28,3.28,0,0,1,3.489,3.489A3.3,3.3,0,0,1-236.361,163.7Z" transform="translate(251.075 -151.782)"/>
</svg>
