<svg xmlns="http://www.w3.org/2000/svg" width="20" height="17.5" viewBox="0 0 20 17.5"><defs><style>.a{fill-rule:evenodd;}</style></defs><g transform="translate(-0.005 -2.25)"><path fill="#FE077C" class="a" d="M17.505,3.5H2.5a1.25,1.25,0,0,0-1.25,1.25v12.5A1.25,1.25,0,0,0,2.5,18.5h15a1.25,1.25,0,0,0,1.25-1.25V4.75A1.25,1.25,0,0,0,17.5,3.5ZM2.5,2.25A2.5,2.5,0,0,0,0,4.75v12.5a2.5,2.5,0,0,0,2.5,2.5h15a2.5,2.5,0,0,0,2.5-2.5V4.75a2.5,2.5,0,0,0-2.5-2.5H2.5Z"/><path fill="#FE077C" d="M14.312,17.057a.625.625,0,0,1,.721-.116l4.722,2.434V25H2.255V22.5l3.308-2.942a.625.625,0,0,1,.787-.078L9.675,21.7l4.638-4.638Z" transform="translate(-1 -6.5)"/><path class="a" d="M8.63,12.75a1.875,1.875,0,1,0-1.875-1.875A1.875,1.875,0,0,0,8.63,12.75Z" fill="#FE077C" transform="translate(-3 -3)"/></g></svg>