<svg xmlns="http://www.w3.org/2000/svg" width="29" height="23.727" viewBox="0 0 29 23.727">
  <g id="folder" transform="translate(-1.125 -4.5)">
    <path id="Path_3834" data-name="Path 3834" d="M30.124,9.938A3.423,3.423,0,0,0,26.74,6.477H13.456a1.421,1.421,0,0,1-.8-.247L10.973,5.082A3.316,3.316,0,0,0,9.094,4.5H4.509A3.423,3.423,0,0,0,1.125,7.961v2.966a.489.489,0,0,0,.484.495H29.641a.489.489,0,0,0,.484-.495Z" transform="translate(0 0)" fill="#202020"/>
    <path id="Path_3835" data-name="Path 3835" d="M1.125,25.994a3.423,3.423,0,0,0,3.384,3.461H26.741a3.423,3.423,0,0,0,3.384-3.461V15.12a.489.489,0,0,0-.484-.495H1.609a.489.489,0,0,0-.484.495Z" transform="translate(0 -1.228)" fill="#202020"/>
  </g>
</svg>
