<svg xmlns="http://www.w3.org/2000/svg" width="18.972" height="22" viewBox="0 0 18.972 22"><defs><style>.a{fill:#fff;}.b{fill:#fe077c;}</style></defs><g transform="translate(-0.028)"><path class="a" d="M17.88,18.556l-1.54-2.623a7.921,7.921,0,0,1-1.087-4.01v-2.3a6.408,6.408,0,0,0-4.486-6.146V1.833a1.795,1.795,0,1,0-3.589,0V3.479A6.408,6.408,0,0,0,2.691,9.625v2.3A7.926,7.926,0,0,1,1.6,15.932L.064,18.555a.466.466,0,0,0-.005.462.446.446,0,0,0,.389.233H17.495a.448.448,0,0,0,.39-.232A.469.469,0,0,0,17.88,18.556Z" transform="translate(0.028)"/><path class="a" d="M0,0A3.132,3.132,0,0,0,2.825,1.833,3.132,3.132,0,0,0,5.651,0H0Z" transform="translate(6.174 20.167)"/><circle class="b" cx="3.5" cy="3.5" r="3.5" transform="translate(12 3)"/></g></svg>