<svg xmlns="http://www.w3.org/2000/svg" width="20" height="20" viewBox="0 0 20 20"><g transform="translate(-4.5 -4.5)"><path d="M9,20.25h5v1.667H9Z" transform="translate(-1.167 -4.083)"/><path d="M9,24.75h8.333v1.667H9Z" transform="translate(-1.167 -5.25)"/><path d="M22.833,4.5H6.167A1.668,1.668,0,0,0,4.5,6.167V22.833A1.668,1.668,0,0,0,6.167,24.5H22.833A1.668,1.668,0,0,0,24.5,22.833V6.167A1.668,1.668,0,0,0,22.833,4.5ZM16.167,6.167V9.5H12.833V6.167Zm-10,16.667V6.167h5v5h6.667v-5h5V22.833Z"/></g></svg>