<svg xmlns="http://www.w3.org/2000/svg" width="20" height="20" viewBox="0 0 20 20"><g transform="translate(-2 -2.165)"><path d="M21.057,15.992,16.9,14.976a2.825,2.825,0,0,1-1.985-2.547,4.8,4.8,0,0,0,1.2-1.805,2.411,2.411,0,0,0,.98-1.128,1.328,1.328,0,0,0-.221-1.671,1.134,1.134,0,0,0-.473-.234A11.18,11.18,0,0,0,16.7,4.868a3.514,3.514,0,0,0-3.223-2.7H10.522C9.3,2.165,7.365,3.3,7.2,4.875a7.417,7.417,0,0,0,.348,2.5l.055.215a1.133,1.133,0,0,0-.612.382A1.389,1.389,0,0,0,6.912,9.5a2.411,2.411,0,0,0,.98,1.128,4.8,4.8,0,0,0,1.2,1.8,2.818,2.818,0,0,1-1.96,2.541L2.943,15.992,2,22.165H22ZM8.618,10.2l-.053-.15-.138-.077a1.61,1.61,0,0,1-.76-.816c-.128-.29-.143-.529-.04-.656a.308.308,0,0,1,.224-.109l.024,0a.457.457,0,0,1,.064.03l.8.434-.194-.89c-.058-.266-.127-.533-.2-.8-.109-.422-.213-.831-.276-1.231a6.065,6.065,0,0,0,2.487.5,8.274,8.274,0,0,0,2.122-.29,6.116,6.116,0,0,0,1.331-.565c.186-.1.722-.23,1.8.57-.122.887-.344,1.792-.347,1.806L15.2,9.021l.9-.619a.275.275,0,0,1,.255.074c.126.121.12.369-.017.68a1.61,1.61,0,0,1-.76.816l-.138.077-.053.15a3.522,3.522,0,0,1-6.764,0ZM13.5,17.8l-.665-1.438.979-1.7H10.183l.979,1.7L10.5,17.8,8.239,15.358A3.651,3.651,0,0,0,9.85,13a4.308,4.308,0,0,0,4.3,0,3.648,3.648,0,0,0,1.615,2.36Z"  fill="#FE077C" transform="translate(0 0)"/><rect width="3.31" height="0.833" transform="translate(10.345 10.498)"/></g></svg>