<svg xmlns="http://www.w3.org/2000/svg" width="20" height="19.998" viewBox="0 0 20 19.998"><g transform="translate(-2 -2.003)"><path d="M24.625,22.735a2.8,2.8,0,0,1-1.632.436,2.8,2.8,0,0,1-1.632-.436l-.516.654A3.593,3.593,0,0,0,22.993,24a3.593,3.593,0,0,0,2.148-.615Z" transform="translate(-10.993 -12.094)"/><path d="M15.382,14.135l-.082-.007a1.309,1.309,0,0,1-1.177-.98,3.656,3.656,0,0,0,1.622-1.716,2.323,2.323,0,0,0,1.1-1.689,1.439,1.439,0,0,0-.266-.88A6.261,6.261,0,0,0,17,4.689a1.788,1.788,0,0,0-1.13-1.134,5.906,5.906,0,0,1-1.88-.8,4.557,4.557,0,0,0-4.145-.479,5,5,0,0,0-2.8,2.649,4.56,4.56,0,0,0,.415,3.72,1.208,1.208,0,0,0-.368.647c-.127.61.206,1.323.991,2.12a4.048,4.048,0,0,0,1.789,1.754,1.31,1.31,0,0,1-1.171.964l-.082.008A7.5,7.5,0,0,0,2,21.584V22H22v-.417A7.5,7.5,0,0,0,15.382,14.135ZM8.813,11.006l-.032-.076-.058-.058c-.823-.818-.845-1.255-.817-1.405a.456.456,0,0,1,.254-.3L8.6,8.99l-.236-.418c-.034-.06-.061-.118-.092-.177l1.545.446-.133-.671A1.763,1.763,0,0,1,9.9,7.125a5.562,5.562,0,0,0,3.868,1.759l.462.051V8.47a2.108,2.108,0,0,1,.279-.976,2.12,2.12,0,0,0,1.122,1.372l-.082.144.258.228a.651.651,0,0,1,.2.486c-.016.332-.31.715-.85,1.105l-.106.079-.043.123A3,3,0,0,1,12,12.8,3.358,3.358,0,0,1,8.813,11.006ZM8.667,19.5H4.917v-.833h3.75ZM12,18.468,8.526,14.994c.064-.009.126-.023.19-.031l.045,0a2.141,2.141,0,0,0,1.885-1.5A5.057,5.057,0,0,0,12,13.637a4.9,4.9,0,0,0,1.351-.18,2.139,2.139,0,0,0,1.888,1.5l.045,0c.064.008.126.022.19.031Z" transform="translate(0 0)"/></g></svg>