<svg id="Group_11399" data-name="Group 11399" xmlns="http://www.w3.org/2000/svg" width="29.982" height="26.889" viewBox="0 0 29.982 26.889">
  <g id="Group_11397" data-name="Group 11397" transform="translate(6.808)">
    <path id="Path_44" data-name="Path 44" d="M226.825,232.2h3.036v9a1.653,1.653,0,0,0,1.653,1.653h4.51a1.653,1.653,0,0,0,1.653-1.653v-9h3.034a1.242,1.242,0,0,0,.877-2.119l-6.943-6.943a1.244,1.244,0,0,0-1.756,0l-6.941,6.943a1.243,1.243,0,0,0,.877,2.119Z" transform="translate(-225.585 -222.778)" fill="#b0b7c3"/>
  </g>
  <g id="Group_11398" data-name="Group 11398" transform="translate(0 12.798)">
    <path id="Path_45" data-name="Path 45" d="M250.442,229.607a1.49,1.49,0,0,0-1.49,1.492v6.233a3.391,3.391,0,0,1-3.386,3.386H228.319a3.391,3.391,0,0,1-3.386-3.386V231.1a1.491,1.491,0,1,0-2.981,0v6.233a6.374,6.374,0,0,0,6.367,6.367h17.247a6.374,6.374,0,0,0,6.367-6.367V231.1A1.491,1.491,0,0,0,250.442,229.607Z" transform="translate(-221.952 -229.607)" fill="#b0b7c3"/>
  </g>
</svg>
