<svg xmlns="http://www.w3.org/2000/svg" width="36" height="36" viewBox="0 0 36 36">
  <path id="uploadalt" d="M31.5,36H4.5a4.338,4.338,0,0,1-3.182-1.318A4.331,4.331,0,0,1,0,31.5V28.125a2.162,2.162,0,0,1,.668-1.582,2.162,2.162,0,0,1,1.582-.668,2.162,2.162,0,0,1,1.582.668A2.162,2.162,0,0,1,4.5,28.125V29.25A2.22,2.22,0,0,0,6.75,31.5h22.5a2.22,2.22,0,0,0,2.25-2.25V28.125a2.25,2.25,0,0,1,4.5,0V31.5A4.5,4.5,0,0,1,31.5,36Zm-.738-22.5H22.5V24.75A2.22,2.22,0,0,1,20.25,27h-4.5a2.22,2.22,0,0,1-2.25-2.25V13.5H5.2q-.527,0-.65-.211t.3-.668L16.84.492a1.613,1.613,0,0,1,2.32,0L31.148,12.621q.422.457.281.668t-.668.211Z" fill="#d1d4e2"/>
</svg>
