<?xml version="1.0" encoding="UTF-8"?>
<svg id="Layer_1" data-name="Layer 1" xmlns="http://www.w3.org/2000/svg" viewBox="0 0 100 100">
  <defs>
    <style>
      .cls-1 {
        fill: #ffc226;
      }
    </style>
  </defs>
  <circle class="cls-1" cx="50" cy="50" r="50"/>
  <g>
    <path d="M71.43,58.33h5.84c.12,0,.74.28.88.37.75.49.98,1.22,1.04,2.08.43,5.75-.33,12.04,0,17.85-.11,1.44-1.09,2.54-2.54,2.72h-24.27c-1.46-.06-2.65-1.23-2.89-2.65v-17.48c.32-4.2,4.84-2.56,7.62-2.89.13-.02.23-.01.31-.14v-1.96c0-.08.28-.78.34-.91.57-1.14,1.73-1.89,3-2,1.95-.15,5.37-.15,7.32,0,1.45.11,3.34,1.54,3.34,3.08v1.92ZM69.02,58.33v-1.74c0-.34-.65-.94-1.03-.93-2.24.18-4.95-.27-7.13,0-.57.07-1.11.63-1.11,1.21v1.34l.13.13h9.14ZM76.96,60.64h-24.76c-.08,0-.47.5-.4.67l.04,6.12c2.06.62,4.21,1.06,6.35,1.32.99.12,2.01.14,2.98.28v-1.29c0-.11.33-.71.44-.81.17-.14.5-.23.72-.27.83-.13,2.66-.11,3.53-.04.43.03.87.11,1.2.41.1.09.45.64.45.71v1.29c1.06-.15,2.17-.15,3.26-.27,2.05-.23,4.29-.66,6.2-1.38v-6.74ZM65.37,68.94h-2.05v2.41h2.05v-2.41ZM51.81,69.92v8.43c0,.15.4.61.6.65l24.29-.02c.05-.05.27-.24.27-.27v-8.79c-3.07.84-6.26,1.29-9.46,1.25v1.29c0,.38-.66.94-1.05,1.01-.66.12-3.48.11-4.16.01-1.12-.16-1.21-1.31-1.12-2.22-3.16-.13-6.33-.46-9.37-1.34Z"/>
    <g>
      <path d="M23.66,79.92c-1.5-.2-2.91-1.84-2.99-3.34.43-4.75.53-9.62,1.17-14.36.66-4.88,3.28-8.02,7.82-9.76,1.5-.57,5.44-1.41,6.36-2.39.8-.85.61-2.64.61-3.73-2.07-1.95-3.51-4.56-4.04-7.38-.24-1.3-.58-4.43-.03-5.57.47-.97,1.14-.76,1.97-.97,3.3-.82,7.09-2.31,9.34-4.93.53-.61,1.3-2.24,2.1-2.28,1.17-.05,1.27,1.68,1.58,2.53.39,1.06,1.08,2.15,1.85,2.97,1.21,1.29,2.6,1.65,2.77,3.66.36,4.3-1.13,8.98-4.26,11.97-.03,1.01-.08,2.12.27,3.08.54,1.48,1.99,1.43,3.26,1.83,1.81.56,3.84,1.09,5.37,2.21l-.98,1.83-4.81-1.78c-.02.1-.05.21-.11.29-2.22,3.24-4.84,6.66-8.79,7.8-3.65-1.62-6.43-4.7-8.56-8-.24-.08-3.38,1.11-3.84,1.31-4.36,1.96-5.34,5.16-5.83,9.61-.4,3.71-.54,7.45-.99,11.15-.02.65-.06,1.28.54,1.69.07.04.45.23.49.23h4.28c.13-.11.14-.41.14-.58-.1-3.42-.17-6.92-.1-10.36.02-.79.14-1.8,1.12-1.83.39-.01,1.21.39,1.21.77v12h17.22c-.03.78.06,1.57.27,2.32h-24.4ZM34.5,34.78c-.25,4.09,1.52,9.25,5.62,10.83,5.21,2.01,8.94-3.23,9.62-7.77.11-.74.34-2.78.14-3.41-.11-.32-1-.81-1.32-1.09-1.28-1.11-2.25-2.52-3.04-4.01l-2.55,2.09c-2.58,1.62-5.47,2.78-8.46,3.36ZM45.74,47.62c-2.22.95-4.62.96-6.87.09.11,2.14-.82,4.27-2.94,5,1.07,1.91,2.53,3.72,4.29,5.03.3.22,1.67,1.15,1.93,1.2.55.09,2.15-1.06,2.61-1.46,1.48-1.27,2.85-2.97,3.82-4.66v-.12c-2.07-.71-2.95-3.02-2.84-5.09Z"/>
      <path d="M29.36,45.71c1.17,1.27,3.78,1.51,5.36,1.99.24.17-.3.92-.45,1.07-1.29,1.33-3.81.36-5.18-.42-4.69-2.68-1.62-6.62-.86-10.44.87-4.38.2-8.28,2.39-12.51,2.75-5.32,9.61-8.19,15.3-6.02.88.34,1.57.6,2.48.91,6.74,2.3,6.9,10.27,7.6,16.13.32,2.66,1.77,5.31,1.96,7.67.26,3.2-3.49,5.62-6.38,5.31-.57-.06-1.99-.96-1.82-1.55.1-.33,2.41-.66,2.87-.8.87-.27,2.76-1.07,2.92-2.08.18-1.15-.73-3.36-1.04-4.57-1.33-5.18-.5-11.6-4.13-15.94-1.45-1.73-2.12-1.59-4.06-2.28-1.29-.46-1.97-1.06-3.47-1.16-4.99-.36-9.11,2.39-10.85,7-1.44,3.84-.87,7.58-1.81,11.4-.31,1.25-.8,2.49-1.07,3.74-.19.91-.46,1.78.24,2.54Z"/>
    </g>
  </g>
</svg>