<?xml version="1.0" encoding="UTF-8"?>
<svg id="Layer_1" data-name="Layer 1" xmlns="http://www.w3.org/2000/svg" viewBox="0 0 100 100">
  <defs>
    <style>
      .cls-1 {
        fill: #ffc226;
      }
    </style>
  </defs>
  <circle class="cls-1" cx="50" cy="50" r="50"/>
  <g>
    <g>
      <path d="M53.48,44.47c-.15-.15-.33-.54-.36-.76v-11.94c.17-1.17.97-1.48,1.99-.99,3.34,1.58,6.62,4.13,9.97,5.78,1.18.74.84,1.61-.17,2.29-3.11,2.1-6.83,3.77-10.02,5.8-.42.29-1.06.17-1.41-.18Z"/>
      <path d="M38.59,40.34c0,3.73-3.03,6.76-6.76,6.76s-6.76-3.03-6.76-6.76,3.03-6.76,6.76-6.76,6.76,3.03,6.76,6.76ZM36.55,40.34c0-2.61-2.11-4.72-4.72-4.72s-4.72,2.11-4.72,4.72,2.11,4.72,4.72,4.72,4.72-2.11,4.72-4.72Z"/>
    </g>
    <g>
      <path d="M38.87,34.81c-.33-.47-1.96-1.55-2.05-1.96.08-2.02-.17-4.2-.02-6.2.12-1.61,1.09-2.87,2.65-3.32,12.93-.2,25.94-.2,38.87,0,1.46.32,2.44,1.52,2.65,2.99v27.34c-.22,1.69-1.54,3.15-3.31,3.18-.17-.75-.71-1.34-1.17-1.94.84-.04,1.88-.04,2.31-.93.04-.08.18-.44.18-.48v-1.86h-12.14c-.23-.41-.55-1.26-.61-1.72-.01-.1.02-.27.11-.27h12.64v-23.16c0-.35-.62-1.02-.99-1.08l-37.75-.04c-.46-.07-1.36.6-1.36,1.04v8.41Z"/>
      <g>
        <path d="M61.82,61.9l-2.9-12.22c-.28-2.38,2.57-3.93,4.31-2.15,1.04,1.07,1.7,5.56,2.32,7.21.03.08.03.15.12.21.99-.76,2.45-.65,3.33.24,1.28-.77,2.56-.61,3.56.49,1.33-.59,2.68-.2,3.41,1.07.55.95,1.59,5.48,1.75,6.71.28,2.25-.27,4.48.28,6.68.14.56.71,1.84.62,2.32-.12.62-.69.72-1.18.89-3.59,1.26-7.38,2.16-10.98,3.44-.33.09-.73.05-1-.17-.34-.29-.73-1.98-.96-2.52-.87-2.08-2.39-2.73-3.77-4.27-1.85-2.07-3.43-4.75-5.16-6.94-1-2.2,1.11-4.38,3.27-3.19l2.96,2.22ZM67.6,56.46c-.31-.26-.98.02-1.18.31-.35.5.43,1.77-.75,1.91-.97.11-1.15-.48-1.41-1.24-.87-2.62-1.42-5.47-2.24-8.12-.41-1.03-1.38-.58-1.1.43.86,4.27,2.27,8.56,3.09,12.82.15.78.56,2.29-.39,2.67-.72.29-1.16-.21-1.68-.6-1.33-1.01-2.59-2.19-3.91-3.22-.9-.29-.9.29-.51.93,1.25,2.05,3.98,5.48,5.7,7.14.27.26.68.52.96.78,1.23,1.18,2.15,2.63,2.53,4.31l9.7-3.03c-1.15-2.53-.34-5.29-.68-7.94-.09-.69-.27-1.38-.43-2.06-.18-.78-.72-3.3-1.04-3.85-.17-.3-.41-.48-.76-.31-.52.24-.11,1.25-.89,1.43-1.56.36-1.14-1.36-1.6-1.93-.19-.24-.7-.3-.92-.08-.43.43.28,1.5-.64,1.93-1.61.76-1.35-1.84-1.87-2.28Z"/>
        <g>
          <path d="M54.11,56.85l-1.32,4.1c.24.12.83-.09.95.2-.09.59-.04,1.17.09,1.75-.17.13-.38.15-.58.16-1.32.11-3.92.12-5.23,0-.98-.09-1.31-1.33-.45-1.86.41-.26,1.71-.1,2.28-.12.3-.01.55-.15.87-.04l1.32-4.19h-5.18s-.16-.16-.19-.23c-.16-.45-.22-1.27-.27-1.76h11.64c.21.24.59,1.65.53,1.85-.01.04-.09.14-.11.14h-4.35Z"/>
          <path d="M57.35,51.63h-12.1c-.31-.68-.75-1.31-1.29-1.82l.08-.17h12.76c.24,0,.67,1.99.54,1.99Z"/>
        </g>
      </g>
    </g>
    <path d="M27.75,48.33c1.64.02,2.87.79,4.86.63,1.04-.09,2.2-.64,3.16-.65,3.58-.06,7,2.21,8.34,5.49,1.13,2.77.32,6.42.56,9.38-.13,1.01-.84,1.81-1.8,2.09-7.07.25-14.19.03-21.27.11-1.35-.07-2.34-1.01-2.44-2.36-.14-1.9-.14-5.06,0-6.96.32-4.29,4.35-7.77,8.6-7.73ZM39.53,63.39h2.61c.35,0,.52-.4.54-.7.14-1.55.16-5.8-.16-7.22-.64-2.83-3.36-5.01-6.26-5.09-1.31-.04-2.69.61-4.06.67-2.81.13-4.14-1.39-7.14-.1-4.97,2.13-3.81,7.26-3.92,11.66-.05.25.33.79.54.79h2.69v-3.36c0-.33.63-.78.95-.79s1.03.41,1.03.71v3.44h11.06l.12-.12v-3.4c0-.21.57-.57.81-.6.49-.07,1.18.35,1.18.85v3.27Z"/>
  </g>
</svg>