<?xml version="1.0" encoding="UTF-8"?>
<svg id="Layer_1" data-name="Layer 1" xmlns="http://www.w3.org/2000/svg" viewBox="0 0 100 100">
  <defs>
    <style>
      .cls-1 {
        fill: #ffc226;
      }
    </style>
  </defs>
  <circle class="cls-1" cx="50" cy="50" r="50"/>
  <g>
    <path d="M58.81,67.17l13.37-7.45c4.42-2.14,7.87,3.42,4.27,6.71-1.3,1.19-3.01,2.42-4.41,3.54-3.94,3.14-8.05,6.58-12.1,9.55-2.7,1.97-4.41,2.01-7.6,1.42-4.91-.9-9.78-2.06-14.7-2.93-1.65.19-2.89,1.37-4.23,2.21-.74.46-1.86,1.4-2.56.39-2.57-4-5.77-7.76-8.33-11.75-.35-.54-.74-1.05-.19-1.64,3.95-2.25,7.64-5.02,11.58-7.28,1.56-.89,2.84-1.4,4.68-1.13,1.47.22,3.39.65,4.84,1.01s2.74,1.18,4.1,1.31c2.59.24,5.54-.23,8.11,0,2.38.22,4.16,2.99,3.51,5.26-.08.28-.25.5-.32.77ZM56.25,63.88c-.26-.23-.89-.52-1.24-.55-2.86-.32-7.04.58-9.67-.37-1.15-.41-1.95-.84-3.21-1.16-2.37-.6-4.4-1.31-6.69-.14-3.26,1.66-6.39,4.24-9.62,6l-.8.6,7.03,10.15c1.78-1.05,3.29-2.56,5.51-2.6,5.44.76,10.93,2.41,16.35,3.21,2.54.37,3.68-.56,5.56-1.99,5.28-4,10.33-8.31,15.59-12.35.85-.74.95-2.27-.06-2.91-.88-.56-1.7-.08-2.53.32-4.21,2.05-8.3,4.86-12.51,6.96-.82.41-1.74.84-2.66.92-4.34.35-9.14-.27-13.53,0-1.41-.19-1.52-1.96-.06-2.24,3.61-.28,7.59.28,11.15-.02,1.88-.16,2.88-2.51,1.41-3.81Z"/>
    <path d="M28.17,59.66V21.3c0-.93,1.65-2.49,2.66-2.4,9.66-.03,19.33.05,28.99,0,2.92-.01,5.98-.3,8.9-.1,1.59.11,2.52.93,2.99,2.43.26,11.59.03,23.21.11,34.81l-.02.24c-.02.09-.09.13-.16.19-.16.13-1.76,1.09-1.91,1.14s-.26.07-.35-.1l.02-35.72c-.1-.42-.49-.43-.85-.45-.88-.07-1.77.08-2.62.1-11.67.14-23.34-.11-35.01,0-.26.04-.31.34-.31.56-.02,9.02.04,18.05,0,27.07,0,2.53.02,5.13-.1,7.67-.02.46.12,1.57-.13,1.88-.11.13-1.62,1.06-1.79,1.1-.18.04-.27-.02-.44-.05Z"/>
    <g>
      <path d="M38.36,35.15c.89-.14,1.23.27,1.98.51.62.2,1.27.31,1.93.26,1.79-.12,2.14-1.38,4.18-.43,2.76,1.29,3.44,4.2,3.2,7.02-.09,1-.57,1.69-1.61,1.79-3.97-.27-8.4.35-12.32,0-.79-.07-1.28-.49-1.42-1.29-.32-1.91-.06-4.39,1.16-5.95.59-.75,1.93-1.75,2.89-1.91ZM47.46,41.94c.04-1.34-.18-3.1-1.27-4.01s-1.79-.17-2.92.05-2.07.15-3.15-.09-1.47-.78-2.49.04c-.56.45-1.18,1.78-1.18,2.49v1.4s-.11.07-.09.13h11.09Z"/>
      <path d="M35.49,53.23l29.83-.03c1.31.1,1.49,1.86.29,2.3l-30.24.06c-1.67-.08-1.59-2.37.12-2.33Z"/>
      <path d="M66.12,49.6c-.21.23-.75.35-1.06.38h-29.69c-1.33,0-1.65-1.8-.44-2.28l30.3-.09c1.05-.03,1.56,1.24.89,1.99Z"/>
      <path d="M53.03,31.75l12.29-.02c1.41.07,1.48,2.19.09,2.36h-12.56c-1.38-.32-1.16-2.18.19-2.34Z"/>
      <path d="M52.21,27.86c-.62-.64-.23-1.87.71-1.89h12.4c1.38.08,1.48,2.11.09,2.27h-12.23c-.3,0-.77-.17-.97-.38Z"/>
      <path d="M52.94,37.51l12.46-.02c1.34.15,1.37,2.1-.09,2.27h-12.31c-1.4-.14-1.52-2.01-.07-2.25Z"/>
      <path d="M39.21,33c-1.38-1.17-2.05-3.19-1.26-4.89,1.46-3.16,5.18-3.91,7.46-1.08,3.23,4.02-2.14,9.41-6.2,5.98ZM44.06,29.7c0-1.15-.93-2.08-2.08-2.08s-2.08.93-2.08,2.08.93,2.08,2.08,2.08,2.08-.93,2.08-2.08Z"/>
    </g>
  </g>
</svg>