<svg width="36" height="36" viewBox="0 0 36 36" fill="none" xmlns="http://www.w3.org/2000/svg">
<g clip-path="url(#clip0_31_52494)">
<path fill-rule="evenodd" clip-rule="evenodd" d="M3 18C3 9.72 9.72 3 18 3C26.28 3 33 9.72 33 18C33 26.28 26.28 33 18 33C9.72 33 3 26.28 3 18ZM7.93398 24.5249C10.0762 27.8176 13.7889 30 18 30C24.615 30 30 24.615 30 18C30 11.385 24.615 6 18 6C11.385 6 6 11.385 6 18C6 19.14 6.165 20.25 6.465 21.3L12 15.75L16.95 19.92L21.87 15H19.5V12H27V19.5H24V17.13L17.115 24L12.18 19.815L7.755 24.24C7.81335 24.3359 7.87301 24.4308 7.93398 24.5249Z" fill="black"/>
</g>
<defs>
<clipPath id="clip0_31_52494">
<rect width="36" height="36" fill="white"/>
</clipPath>
</defs>
</svg>
