<svg id="Layer_1" enable-background="new 0 0 512 512" height="512" viewBox="0 0 512 512" width="512" xmlns="http://www.w3.org/2000/svg"><path d="m490.674 317.733c-1.654-1.553-3.134-2.926-4.464-4.16-5.215-4.837-7.833-7.266-9.123-9.501-1.291-2.235-2.084-5.715-3.667-12.65-.404-1.769-.853-3.738-1.371-5.947-2.935-12.527-13.538-21.424-26.384-22.139-2.265-.126-4.283-.227-6.095-.316-7.104-.354-10.669-.532-13.095-1.415-2.425-.882-5.271-3.039-10.94-7.334-1.446-1.095-3.056-2.315-4.872-3.674-10.299-7.71-24.141-7.71-34.441 0-1.815 1.359-3.425 2.578-4.871 3.673-5.67 4.296-8.516 6.452-10.942 7.335-1.015.37-2.235.615-3.826.802-26.238-23.554-57.651-39.794-91.43-47.615 36.536-17.542 61.822-54.909 61.822-98.073.001-59.948-48.77-108.719-108.718-108.719s-108.719 48.771-108.719 108.719c0 43.166 25.288 80.535 61.827 98.076-34.026 7.885-65.702 24.306-92.033 48.118-37.854 34.233-61.68 80.914-67.087 131.444-.242 2.257.487 4.51 2.004 6.198s3.68 2.653 5.95 2.653l198.044-.001c.004 0 .009.001.013.001s.009-.001.013-.001h80.584c2.833 6.553 8.085 11.964 15.067 14.955 2.085.893 3.947 1.678 5.618 2.382.851.358 1.644.693 2.389 1.009l-22.292 47.88c-1.554 3.339-1.127 7.228 1.113 10.148 2.239 2.92 5.881 4.339 9.509 3.705l22.497-3.93 11.474 19.745c1.773 3.052 5.003 4.9 8.507 4.9.15 0 .301-.003.452-.01 3.676-.167 6.926-2.343 8.482-5.682l21.937-47.119c4.886-1.491 7.661-2.242 9.837-2.242s4.951.751 9.838 2.242l21.936 47.118c1.553 3.338 4.802 5.515 8.479 5.683.152.007.304.01.455.01 3.504 0 6.733-1.848 8.507-4.9l11.474-19.745 22.497 3.931c3.631.633 7.274-.788 9.513-3.711 2.238-2.922 2.662-6.811 1.107-10.145l-22.291-47.878c.745-.316 1.538-.65 2.389-1.009 1.671-.704 3.533-1.489 5.618-2.382 11.827-5.065 18.748-17.052 17.221-29.828-.269-2.253-.521-4.257-.746-6.057-.885-7.058-1.33-10.6-.881-13.142s2.077-5.719 5.323-12.048c.827-1.614 1.749-3.411 2.772-5.435 5.805-11.483 3.402-25.113-5.98-33.919zm-200.442 33.919c1.023 2.024 1.945 3.821 2.772 5.436 3.246 6.33 4.875 9.506 5.323 12.048s.004 6.084-.881 13.142c-.187 1.492-.392 3.133-.61 4.93h-60.556l20.18-22.31c1.71-1.891 2.417-4.485 1.902-6.982l-10.282-49.848 2 2.371c1.528 1.812 3.77 2.842 6.114 2.842.251 0 .504-.012.757-.036 2.612-.248 4.937-1.761 6.221-4.049l36.742-65.478c12.062 5.704 23.55 12.689 34.273 20.884-9.56 2.963-16.972 10.726-19.35 20.876-.518 2.208-.967 4.178-1.37 5.946-1.582 6.935-2.376 10.416-3.667 12.651s-3.908 4.664-9.123 9.501c-1.33 1.233-2.811 2.607-4.465 4.16-9.381 8.802-11.784 22.433-5.98 33.916zm-108.586-60.355-30.247-53.902c5.607-2.082 11.338-3.904 17.175-5.462l38.191 29.58zm28.412-8.872 8.198-9.721 8.197 9.72 15.418 74.75-23.616 26.109-23.616-26.109zm19.691-20.912 38.149-29.547c5.816 1.56 11.548 3.394 17.179 5.494l-30.21 53.837zm-104.211-144.794c0-51.125 41.594-92.719 92.719-92.719s92.719 41.594 92.719 92.719c0 51.112-41.572 92.697-92.679 92.719-.014 0-.027 0-.041 0-.013 0-.026 0-.04 0-51.106-.023-92.678-41.607-92.678-92.719zm92.719 108.719h.04c9.794.002 19.494.759 29.036 2.218l-29.077 22.521-29.1-22.539c9.485-1.441 19.188-2.198 29.06-2.2.014-.001.028 0 .041 0zm-81.702 18.199 36.787 65.557c1.284 2.288 3.608 3.801 6.221 4.049.253.024.505.036.757.036 2.344 0 4.587-1.031 6.114-2.842l1.999-2.37-10.282 49.848c-.515 2.498.191 5.091 1.902 6.983l20.18 22.31-170.926.001c9.888-64.333 51.207-117.18 107.248-143.572zm215.585 237.232-8.352-14.374c-1.683-2.896-4.99-4.435-8.294-3.861l-16.375 2.861 16.07-34.517c1.079 1.571 2.345 3.531 3.945 6.008.984 1.523 2.08 3.22 3.321 5.119 5.014 7.666 13.055 12.253 21.714 12.927zm99.253-18.235c-3.3-.577-6.611.963-8.294 3.861l-8.352 14.373-12.023-25.825c8.657-.676 16.696-5.273 21.708-12.939 1.241-1.898 2.337-3.595 3.321-5.118 1.6-2.478 2.866-4.437 3.945-6.008l16.07 34.517zm30.982-118.2c-1.008 1.993-1.915 3.763-2.73 5.352-7.97 15.542-8.253 17.153-6.08 34.482.222 1.772.47 3.746.735 5.964.688 5.751-2.309 10.941-7.633 13.221-2.054.879-3.887 1.652-5.533 2.346-16.094 6.783-17.348 7.834-26.822 22.507-.969 1.5-2.047 3.171-3.27 5.041-3.17 4.847-8.803 6.897-14.345 5.221-2.138-.646-4.039-1.233-5.746-1.76-8.345-2.575-12.926-3.862-17.507-3.862s-9.163 1.288-17.507 3.862c-1.707.527-3.607 1.113-5.746 1.76-5.543 1.672-11.175-.374-14.345-5.221-1.223-1.87-2.301-3.541-3.27-5.041-9.475-14.672-10.728-15.724-26.822-22.507-1.646-.693-3.479-1.466-5.533-2.346-5.324-2.28-8.32-7.47-7.633-13.221.265-2.218.513-4.192.735-5.964 2.173-17.329 1.89-18.94-6.081-34.482-.815-1.589-1.722-3.359-2.73-5.352-2.613-5.169-1.572-11.071 2.65-15.034 1.629-1.529 3.087-2.882 4.397-4.097 12.804-11.877 13.622-13.294 17.507-30.323.397-1.741.84-3.68 1.349-5.855 1.321-5.64 5.912-9.492 11.695-9.813 2.231-.125 4.218-.223 6.002-.312 17.443-.869 18.98-1.429 32.903-11.977 1.423-1.078 3.008-2.279 4.796-3.618 4.638-3.471 10.629-3.47 15.266 0 1.789 1.338 3.374 2.54 4.798 3.619 13.921 10.546 15.458 11.106 32.901 11.975 1.784.089 3.771.188 6.002.312 5.783.321 10.374 4.173 11.695 9.813.51 2.175.952 4.115 1.35 5.856 3.885 17.027 4.703 18.444 17.507 30.322 1.31 1.215 2.768 2.567 4.396 4.096 4.222 3.965 5.263 9.867 2.649 15.036zm-88.932-54.357c-33.027 0-59.897 26.87-59.897 59.896s26.87 59.896 59.897 59.896 59.897-26.869 59.897-59.895-26.869-59.897-59.897-59.897zm0 103.793c-24.205 0-43.897-19.692-43.897-43.896s19.692-43.896 43.897-43.896 43.897 19.692 43.897 43.896-19.692 43.896-43.897 43.896z"/></svg>