<svg width="52" height="53" viewBox="0 0 52 53" fill="none" xmlns="http://www.w3.org/2000/svg">
<g id="Fact check" clip-path="url(#clip0_4_4199)">
<g id="Group">
<g id="Group_2">
<path id="Vector" fill-rule="evenodd" clip-rule="evenodd" d="M43.3333 7H8.66668C6.28334 7 4.33334 8.95 4.33334 11.3333V41.6667C4.33334 44.05 6.28334 46 8.66668 46H43.3333C45.7167 46 47.6667 44.05 47.6667 41.6667V11.3333C47.6667 8.95 45.7167 7 43.3333 7ZM43.3333 41.6667H8.66668V11.3333H43.3333V41.6667Z" fill="url(#paint0_linear_4_4199)"/>
<path id="Vector_2" fill-rule="evenodd" clip-rule="evenodd" d="M42.055 23.0767L38.9783 20L32.11 26.8683L29.055 23.7917L26 26.8467L32.11 33L42.055 23.0767Z" fill="url(#paint1_linear_4_4199)"/>
<path id="Vector_3" d="M21.6667 15.6666H10.8333V20H21.6667V15.6666Z" fill="url(#paint2_linear_4_4199)"/>
<path id="Vector_4" d="M21.6667 24.3334H10.8333V28.6667H21.6667V24.3334Z" fill="url(#paint3_linear_4_4199)"/>
<path id="Vector_5" d="M21.6667 33H10.8333V37.3333H21.6667V33Z" fill="url(#paint4_linear_4_4199)"/>
</g>
</g>
</g>
<defs>
<linearGradient id="paint0_linear_4_4199" x1="4.33334" y1="7" x2="47.8927" y2="7.25414" gradientUnits="userSpaceOnUse">
<stop stop-color="#05E84C"/>
<stop offset="1" stop-color="#4DE7FF"/>
</linearGradient>
<linearGradient id="paint1_linear_4_4199" x1="26" y1="20" x2="42.1386" y2="20.1047" gradientUnits="userSpaceOnUse">
<stop stop-color="#05E84C"/>
<stop offset="1" stop-color="#4DE7FF"/>
</linearGradient>
<linearGradient id="paint2_linear_4_4199" x1="10.8333" y1="15.6666" x2="21.7217" y2="15.8096" gradientUnits="userSpaceOnUse">
<stop stop-color="#05E84C"/>
<stop offset="1" stop-color="#4DE7FF"/>
</linearGradient>
<linearGradient id="paint3_linear_4_4199" x1="10.8333" y1="24.3334" x2="21.7217" y2="24.4763" gradientUnits="userSpaceOnUse">
<stop stop-color="#05E84C"/>
<stop offset="1" stop-color="#4DE7FF"/>
</linearGradient>
<linearGradient id="paint4_linear_4_4199" x1="10.8333" y1="33" x2="21.7217" y2="33.1429" gradientUnits="userSpaceOnUse">
<stop stop-color="#05E84C"/>
<stop offset="1" stop-color="#4DE7FF"/>
</linearGradient>
<clipPath id="clip0_4_4199">
<rect width="52" height="52" fill="white" transform="translate(0 0.5)"/>
</clipPath>
</defs>
</svg>
