<?xml version="1.0" encoding="UTF-8" standalone="no"?>
<!-- Created with Inkscape (http://www.inkscape.org/) -->

<svg
   version="1.1"
   id="svg1917"
   xml:space="preserve"
   width="682.66669"
   height="682.66669"
   viewBox="0 0 682.66669 682.66669"
   xmlns="http://www.w3.org/2000/svg"
   xmlns:svg="http://www.w3.org/2000/svg"><defs
     id="defs1921"><clipPath
       clipPathUnits="userSpaceOnUse"
       id="clipPath1931"><path
         d="M 0,512 H 512 V 0 H 0 Z"
         id="path1929" /></clipPath></defs><g
     id="g1923"
     transform="matrix(1.3333333,0,0,-1.3333333,0,682.66667)"><g
       id="g1925"><g
         id="g1927"
         clip-path="url(#clipPath1931)"><g
           id="g1933"
           transform="translate(444.5,230.436)"><path
             d="m 0,0 v -142.748 c 0,-16.569 -13.432,-30 -30,-30 h -377 c -16.568,0 -30,13.431 -30,30 V 96.876 c 0,16.569 13.432,30 30,30 h 234.345"
             style="fill:none;stroke:#000000;stroke-width:15;stroke-linecap:round;stroke-linejoin:round;stroke-miterlimit:10;stroke-dasharray:none;stroke-opacity:1"
             id="path1935" /></g><g
           id="g1937"
           transform="translate(172.1245,162.688)"><path
             d="m 0,0 h -89.625 c -16.568,0 -30,13.431 -30,30 v 89.624 c 0,16.569 13.432,30 30,30 H 0 c 16.568,0 30,-13.431 30,-30 V 30 C 30,13.431 16.568,0 0,0 Z"
             style="fill:none;stroke:#000000;stroke-width:15;stroke-linecap:round;stroke-linejoin:round;stroke-miterlimit:10;stroke-dasharray:none;stroke-opacity:1"
             id="path1939" /></g><g
           id="g1941"
           transform="translate(247.5,312.312)"><path
             d="M 0,0 H 62.839"
             style="fill:none;stroke:#000000;stroke-width:15;stroke-linecap:round;stroke-linejoin:round;stroke-miterlimit:10;stroke-dasharray:none;stroke-opacity:1"
             id="path1943" /></g><g
           id="g1945"
           transform="translate(247.5,162.688)"><path
             d="M 0,0 H 152"
             style="fill:none;stroke:#000000;stroke-width:15;stroke-linecap:round;stroke-linejoin:round;stroke-miterlimit:10;stroke-dasharray:none;stroke-opacity:1"
             id="path1947" /></g><g
           id="g1949"
           transform="translate(52.5,132.688)"><path
             d="M 0,0 H 347"
             style="fill:none;stroke:#000000;stroke-width:15;stroke-linecap:round;stroke-linejoin:round;stroke-miterlimit:10;stroke-dasharray:none;stroke-opacity:1"
             id="path1951" /></g><g
           id="g1953"
           transform="translate(52.5,102.688)"><path
             d="M 0,0 H 347"
             style="fill:none;stroke:#000000;stroke-width:15;stroke-linecap:round;stroke-linejoin:round;stroke-miterlimit:10;stroke-dasharray:none;stroke-opacity:1"
             id="path1955" /></g><g
           id="g1957"
           transform="translate(247.5,192.688)"><path
             d="M 0,0 H 152"
             style="fill:none;stroke:#000000;stroke-width:15;stroke-linecap:round;stroke-linejoin:round;stroke-miterlimit:10;stroke-dasharray:none;stroke-opacity:1"
             id="path1959" /></g><g
           id="g1961"
           transform="translate(247.5,282.312)"><path
             d="M 0,0 H 83.051"
             style="fill:none;stroke:#000000;stroke-width:15;stroke-linecap:round;stroke-linejoin:round;stroke-miterlimit:10;stroke-dasharray:none;stroke-opacity:1"
             id="path1963" /></g><g
           id="g1965"
           transform="translate(163.5386,246.0854)"><path
             d="m 0,0 c 0,-20.007 -16.219,-36.227 -36.227,-36.227 -20.007,0 -36.226,16.22 -36.226,36.227 0,20.008 16.219,36.227 36.226,36.227 C -16.219,36.227 0,20.008 0,0 Z"
             style="fill:none;stroke:#000000;stroke-width:15;stroke-linecap:round;stroke-linejoin:round;stroke-miterlimit:10;stroke-dasharray:none;stroke-opacity:1"
             id="path1967" /></g><g
           id="g1969"
           transform="translate(180.3496,163.8389)"><path
             d="M 0,0 C -3.674,26.01 -26.014,46.02 -53.038,46.02 -80.061,46.02 -102.4,26.01 -106.075,0"
             style="fill:none;stroke:#000000;stroke-width:15;stroke-linecap:round;stroke-linejoin:round;stroke-miterlimit:10;stroke-dasharray:none;stroke-opacity:1"
             id="path1971" /></g><g
           id="g1973"
           transform="translate(504.5,352.9849)"><path
             d="m 0,0 c 0,-55.88 -45.248,-101.328 -101.327,-101.328 -56.081,0 -101.328,45.458 -101.328,101.328 0,55.968 45.36,101.327 101.328,101.327 C -45.36,101.327 0,55.968 0,0 Z"
             style="fill:none;stroke:#000000;stroke-width:15;stroke-linecap:round;stroke-linejoin:round;stroke-miterlimit:10;stroke-dasharray:none;stroke-opacity:1"
             id="path1975" /></g><g
           id="g1977"
           transform="translate(360.4424,342.168)"><path
             d="m 0,0 20.187,-20.187 c 3.658,-3.658 9.586,-3.658 13.244,0 L 85.46,31.842"
             style="fill:none;stroke:#000000;stroke-width:15;stroke-linecap:round;stroke-linejoin:round;stroke-miterlimit:10;stroke-dasharray:none;stroke-opacity:1"
             id="path1979" /></g></g></g></g></svg>
