<svg width="550" height="550" viewBox="0 0 550 550" fill="none" xmlns="http://www.w3.org/2000/svg">
<g clip-path="url(#clip0_41_86)">
<path d="M549.462 161.701C548.174 132.478 543.448 112.387 536.678 94.9778C529.694 76.4985 518.95 59.954 504.873 46.2004C491.12 32.2329 474.466 21.3795 456.201 14.5048C438.691 7.73505 418.705 3.00924 389.481 1.72076C360.039 0.323168 350.693 0 276.02 0C201.347 0 192 0.323168 162.668 1.61164C133.444 2.90012 113.353 7.63012 95.9482 14.3957C77.4646 21.3795 60.9201 32.1237 47.1666 46.2004C33.199 59.954 22.3498 76.6076 15.4709 94.8729C8.7012 112.387 3.97539 132.369 2.68691 161.592C1.28932 191.034 0.966148 200.381 0.966148 275.054C0.966148 349.726 1.28932 359.073 2.57779 388.406C3.86627 417.63 8.59627 437.721 15.366 455.13C22.3498 473.609 33.199 490.153 47.1666 503.907C60.9201 517.875 77.5738 528.728 95.839 535.603C113.353 542.372 133.335 547.098 162.563 548.387C191.891 549.679 201.242 549.998 275.915 549.998C350.588 549.998 359.934 549.679 389.267 548.387C418.491 547.098 438.582 542.372 455.987 535.603C492.95 521.312 522.173 492.088 536.464 455.13C543.229 437.616 547.959 417.63 549.248 388.406C550.536 359.073 550.86 349.726 550.86 275.054C550.86 200.381 550.75 191.034 549.462 161.701ZM499.933 386.257C498.75 413.118 494.238 427.623 490.478 437.292C481.236 461.253 462.219 480.27 438.259 489.511C428.589 493.272 413.979 497.784 387.223 498.963C358.214 500.256 349.513 500.575 276.129 500.575C202.745 500.575 193.935 500.256 165.031 498.963C138.17 497.784 123.665 493.272 113.995 489.511C102.072 485.104 91.2182 478.121 82.4087 468.988C73.276 460.069 66.2923 449.325 61.8854 437.402C58.1249 427.732 53.6132 413.118 52.4338 386.366C51.1411 357.357 50.8222 348.652 50.8222 275.268C50.8222 201.883 51.1411 193.074 52.4338 164.174C53.6132 137.313 58.1249 122.808 61.8854 113.138C66.2923 101.21 73.276 90.3611 82.5178 81.5474C91.4322 72.4148 102.176 65.431 114.104 61.0284C123.774 57.2679 138.388 52.7561 165.14 51.5726C194.149 50.2841 202.854 49.9609 276.234 49.9609C349.727 49.9609 358.428 50.2841 387.332 51.5726C414.193 52.7561 428.698 57.2679 438.368 61.0284C450.291 65.431 461.145 72.4148 469.954 81.5474C479.087 90.466 486.071 101.21 490.478 113.138C494.238 122.808 498.75 137.418 499.933 164.174C501.222 193.183 501.545 201.883 501.545 275.268C501.545 348.652 501.222 357.247 499.933 386.257Z" fill="url(#paint0_linear_41_86)"/>
<path d="M276.02 133.767C198.019 133.767 134.732 197.049 134.732 275.054C134.732 353.059 198.019 416.341 276.02 416.341C354.025 416.341 417.307 353.059 417.307 275.054C417.307 197.049 354.025 133.767 276.02 133.767ZM276.02 366.704C225.417 366.704 184.37 325.661 184.37 275.054C184.37 224.447 225.417 183.404 276.02 183.404C326.627 183.404 367.67 224.447 367.67 275.054C367.67 325.661 326.627 366.704 276.02 366.704Z" fill="url(#paint1_linear_41_86)"/>
<path d="M455.882 128.18C455.882 146.395 441.113 161.165 422.893 161.165C404.679 161.165 389.909 146.395 389.909 128.18C389.909 109.961 404.679 95.1963 422.893 95.1963C441.113 95.1963 455.882 109.961 455.882 128.18Z" fill="url(#paint2_linear_41_86)"/>
</g>
<defs>
<linearGradient id="paint0_linear_41_86" x1="0.966148" y1="0" x2="624.403" y2="102.444" gradientUnits="userSpaceOnUse">
<stop stop-color="#FFA00D"/>
<stop offset="0.240385" stop-color="#FFD14C"/>
<stop offset="0.764423" stop-color="#FFD855"/>
<stop offset="1" stop-color="#FFA00D"/>
</linearGradient>
<linearGradient id="paint1_linear_41_86" x1="134.732" y1="133.767" x2="455.096" y2="186.419" gradientUnits="userSpaceOnUse">
<stop stop-color="#FFA00D"/>
<stop offset="0.240385" stop-color="#FFD14C"/>
<stop offset="0.764423" stop-color="#FFD855"/>
<stop offset="1" stop-color="#FFA00D"/>
</linearGradient>
<linearGradient id="paint2_linear_41_86" x1="389.909" y1="95.1963" x2="464.704" y2="107.49" gradientUnits="userSpaceOnUse">
<stop stop-color="#FFA00D"/>
<stop offset="0.240385" stop-color="#FFD14C"/>
<stop offset="0.764423" stop-color="#FFD855"/>
<stop offset="1" stop-color="#FFA00D"/>
</linearGradient>
<clipPath id="clip0_41_86">
<rect width="550" height="550" fill="white"/>
</clipPath>
</defs>
</svg>
