<svg width="80" height="80" viewBox="0 0 80 80" fill="none" xmlns="http://www.w3.org/2000/svg">
<path d="M15.7424 80.0001L11.9772 69.3451L0.676975 69.4512L15.7469 47.9291C16.1466 47.3583 16.7567 46.9696 17.4429 46.8486C18.1291 46.7276 18.8353 46.8842 19.4061 47.2838L30.1672 54.8188C30.738 55.2185 31.1266 55.8286 31.2476 56.5148C31.3686 57.201 31.2121 57.9072 30.8124 58.478L15.7424 80.0001Z" fill="url(#paint0_linear_74_96074)"/>
<path d="M64.2576 80.0001L68.0228 69.3451L79.323 69.4512L64.2531 47.9291C63.8534 47.3583 63.2433 46.9696 62.5571 46.8486C61.8709 46.7276 61.1647 46.8842 60.5939 47.2838L49.8328 54.8188C49.262 55.2185 48.8734 55.8286 48.7524 56.5148C48.6314 57.201 48.7879 57.9072 49.1876 58.478L64.2576 80.0001Z" fill="url(#paint1_linear_74_96074)"/>
<ellipse cx="38.573" cy="36.1262" rx="36.1263" ry="36.1262" fill="url(#paint2_linear_74_96074)"/>
<path d="M66.9744 36.1251C66.9744 51.8106 54.2588 64.5261 38.5734 64.5261C22.8879 64.5261 10.1724 51.8106 10.1724 36.1251C10.1724 20.4397 22.8879 7.72412 38.5734 7.72412C54.2588 7.72412 66.9744 20.4397 66.9744 36.1251Z" fill="url(#paint3_linear_74_96074)" stroke="#531065"/>
<path d="M39.0203 21.4517L38.5731 20.5573L38.1258 21.4517L33.4287 30.846L24.0605 32.017L23.1141 32.1353L23.7498 32.8464L30.2203 40.0847L28.4465 50.4923L28.2808 51.4646L29.163 51.0235L38.5731 46.3185L47.9831 51.0235L48.8637 51.4638L48.6997 50.493L46.9415 40.0846L53.3967 32.8459L54.0306 32.1352L53.0856 32.017L43.7174 30.846L39.0203 21.4517Z" fill="url(#paint4_linear_74_96074)" stroke="#5F217C"/>
<defs>
<linearGradient id="paint0_linear_74_96074" x1="14.2399" y1="50.0813" x2="29.3409" y2="60.7473" gradientUnits="userSpaceOnUse">
<stop stop-color="#FB0207"/>
<stop offset="0.491554" stop-color="#FF3B3F"/>
<stop offset="1" stop-color="#A60103"/>
</linearGradient>
<linearGradient id="paint1_linear_74_96074" x1="65.7601" y1="50.0813" x2="50.6591" y2="60.7473" gradientUnits="userSpaceOnUse">
<stop stop-color="#FB0207"/>
<stop offset="0.491554" stop-color="#FF3B3F"/>
<stop offset="1" stop-color="#A60103"/>
</linearGradient>
<linearGradient id="paint2_linear_74_96074" x1="2.44678" y1="0" x2="75.0767" y2="0.381379" gradientUnits="userSpaceOnUse">
<stop stop-color="#FFC01D"/>
<stop offset="0.491554" stop-color="#FFD955"/>
<stop offset="1" stop-color="#FF9A01"/>
</linearGradient>
<linearGradient id="paint3_linear_74_96074" x1="9.67236" y1="7.22412" x2="67.7763" y2="7.52922" gradientUnits="userSpaceOnUse">
<stop stop-color="#CD41E8"/>
<stop offset="0.491554" stop-color="#A317C1"/>
<stop offset="1" stop-color="#892086"/>
</linearGradient>
<linearGradient id="paint4_linear_74_96074" x1="28.6383" y1="48.77" x2="31.0296" y2="25.6311" gradientUnits="userSpaceOnUse">
<stop stop-color="#FAF180"/>
<stop offset="0.5" stop-color="#E7820D"/>
<stop offset="1" stop-color="#FAF180"/>
</linearGradient>
</defs>
</svg>
