<svg width="36" height="36" viewBox="0 0 36 36" fill="none" xmlns="http://www.w3.org/2000/svg">
<g clip-path="url(#clip0_31_52517)">
<path d="M22.5 1.5H13.5V4.5H22.5V1.5ZM16.5 21H19.5V12H16.5V21ZM28.545 11.085L30.675 8.955C30.03 8.19 29.325 7.47 28.56 6.84L26.43 8.97C24.105 7.11 21.18 6 18 6C10.545 6 4.5 12.045 4.5 19.5C4.5 26.955 10.53 33 18 33C25.47 33 31.5 26.955 31.5 19.5C31.5 16.32 30.39 13.395 28.545 11.085ZM18 30C12.195 30 7.5 25.305 7.5 19.5C7.5 13.695 12.195 9 18 9C23.805 9 28.5 13.695 28.5 19.5C28.5 25.305 23.805 30 18 30Z" fill="black"/>
</g>
<defs>
<clipPath id="clip0_31_52517">
<rect width="36" height="36" fill="white"/>
</clipPath>
</defs>
</svg>
