<svg width="88" height="88" viewBox="0 0 88 88" fill="none" xmlns="http://www.w3.org/2000/svg">
<path d="M39.8323 4.78602C42.035 2.25648 45.965 2.25648 48.1677 4.78602L48.3196 4.96051C49.9717 6.85768 52.6966 7.39969 54.9489 6.27916L55.1561 6.17609C58.1592 4.68206 61.7899 6.18597 62.857 9.36591L62.9306 9.58528C63.7309 11.9703 66.041 13.5138 68.5506 13.3405L68.7815 13.3245C72.1277 13.0934 74.9066 15.8723 74.6755 19.2185L74.6595 19.4494C74.4862 21.9591 76.0298 24.2691 78.4147 25.0694L78.6341 25.143C81.814 26.2101 83.3179 29.8408 81.8239 32.8439L81.7208 33.0511C80.6003 35.3034 81.1423 38.0283 83.0395 39.6804L83.214 39.8323C85.7435 42.035 85.7435 45.965 83.214 48.1677L83.0395 48.3196C81.1423 49.9717 80.6003 52.6966 81.7208 54.9489L81.8239 55.1561C83.3179 58.1592 81.814 61.7899 78.6341 62.857L78.4147 62.9306C76.0297 63.7309 74.4862 66.041 74.6595 68.5506L74.6755 68.7815C74.9066 72.1277 72.1277 74.9066 68.7815 74.6755L68.5506 74.6595C66.041 74.4862 63.7309 76.0298 62.9306 78.4147L62.857 78.6341C61.7899 81.814 58.1592 83.3179 55.1561 81.8239L54.9489 81.7208C52.6966 80.6003 49.9717 81.1423 48.3196 83.0395L48.1677 83.214C45.965 85.7435 42.035 85.7435 39.8323 83.214L39.6804 83.0395C38.0283 81.1423 35.3034 80.6003 33.0511 81.7208L32.8439 81.8239C29.8408 83.3179 26.2101 81.814 25.143 78.6341L25.0694 78.4147C24.2691 76.0297 21.959 74.4862 19.4494 74.6595L19.2185 74.6755C15.8723 74.9066 13.0934 72.1277 13.3245 68.7815L13.3405 68.5506C13.5138 66.0409 11.9702 63.7309 9.58527 62.9306L9.36591 62.857C6.18597 61.7899 4.68206 58.1592 6.17609 55.1561L6.27916 54.9489C7.39969 52.6966 6.85768 49.9717 4.96051 48.3196L4.78602 48.1677C2.25648 45.965 2.25648 42.035 4.78602 39.8323L4.96051 39.6804C6.85768 38.0283 7.39969 35.3034 6.27916 33.0511L6.17609 32.8439C4.68206 29.8408 6.18598 26.2101 9.36591 25.143L9.58527 25.0694C11.9702 24.2691 13.5138 21.9591 13.3405 19.4494L13.3245 19.2185C13.0934 15.8723 15.8723 13.0934 19.2185 13.3245L19.4494 13.3405C21.9591 13.5138 24.2691 11.9702 25.0694 9.58527L25.143 9.36591C26.2101 6.18597 29.8408 4.68206 32.8439 6.1761L33.0511 6.27916C35.3034 7.39969 38.0283 6.85768 39.6804 4.96051L39.8323 4.78602Z" fill="#2EC068"/>
<path d="M39.8323 4.78602C42.035 2.25648 45.965 2.25648 48.1677 4.78602L48.3196 4.96051C49.9717 6.85768 52.6966 7.39969 54.9489 6.27916L55.1561 6.17609C58.1592 4.68206 61.7899 6.18597 62.857 9.36591L62.9306 9.58528C63.7309 11.9703 66.041 13.5138 68.5506 13.3405L68.7815 13.3245C72.1277 13.0934 74.9066 15.8723 74.6755 19.2185L74.6595 19.4494C74.4862 21.9591 76.0298 24.2691 78.4147 25.0694L78.6341 25.143C81.814 26.2101 83.3179 29.8408 81.8239 32.8439L81.7208 33.0511C80.6003 35.3034 81.1423 38.0283 83.0395 39.6804L83.214 39.8323C85.7435 42.035 85.7435 45.965 83.214 48.1677L83.0395 48.3196C81.1423 49.9717 80.6003 52.6966 81.7208 54.9489L81.8239 55.1561C83.3179 58.1592 81.814 61.7899 78.6341 62.857L78.4147 62.9306C76.0297 63.7309 74.4862 66.041 74.6595 68.5506L74.6755 68.7815C74.9066 72.1277 72.1277 74.9066 68.7815 74.6755L68.5506 74.6595C66.041 74.4862 63.7309 76.0298 62.9306 78.4147L62.857 78.6341C61.7899 81.814 58.1592 83.3179 55.1561 81.8239L54.9489 81.7208C52.6966 80.6003 49.9717 81.1423 48.3196 83.0395L48.1677 83.214C45.965 85.7435 42.035 85.7435 39.8323 83.214L39.6804 83.0395C38.0283 81.1423 35.3034 80.6003 33.0511 81.7208L32.8439 81.8239C29.8408 83.3179 26.2101 81.814 25.143 78.6341L25.0694 78.4147C24.2691 76.0297 21.959 74.4862 19.4494 74.6595L19.2185 74.6755C15.8723 74.9066 13.0934 72.1277 13.3245 68.7815L13.3405 68.5506C13.5138 66.0409 11.9702 63.7309 9.58527 62.9306L9.36591 62.857C6.18597 61.7899 4.68206 58.1592 6.17609 55.1561L6.27916 54.9489C7.39969 52.6966 6.85768 49.9717 4.96051 48.3196L4.78602 48.1677C2.25648 45.965 2.25648 42.035 4.78602 39.8323L4.96051 39.6804C6.85768 38.0283 7.39969 35.3034 6.27916 33.0511L6.17609 32.8439C4.68206 29.8408 6.18598 26.2101 9.36591 25.143L9.58527 25.0694C11.9702 24.2691 13.5138 21.9591 13.3405 19.4494L13.3245 19.2185C13.0934 15.8723 15.8723 13.0934 19.2185 13.3245L19.4494 13.3405C21.9591 13.5138 24.2691 11.9702 25.0694 9.58527L25.143 9.36591C26.2101 6.18597 29.8408 4.68206 32.8439 6.1761L33.0511 6.27916C35.3034 7.39969 38.0283 6.85768 39.6804 4.96051L39.8323 4.78602Z" fill="white" fill-opacity="0.6"/>
<path d="M14.6395 35.4876C14.529 35.7793 14.3569 36.0188 14.1234 36.206C13.8874 36.3923 13.6214 36.5121 13.3255 36.5654C13.0306 36.6163 12.7372 36.5865 12.4455 36.4759C12.1514 36.3645 11.9119 36.1924 11.7271 35.9598C11.5409 35.7238 11.4223 35.4583 11.3714 35.1633C11.3181 34.8674 11.3467 34.5736 11.4572 34.2819C11.5686 33.9878 11.7419 33.7488 11.977 33.5649C12.2105 33.3777 12.4748 33.2587 12.7698 33.2078C13.0633 33.1536 13.3571 33.1822 13.6512 33.2936C13.9429 33.4041 14.1819 33.5774 14.3682 33.8134C14.5554 34.047 14.6757 34.3117 14.729 34.6076C14.7808 34.9002 14.751 35.1935 14.6395 35.4876Z" fill="#2EC068"/>
<path d="M14.6395 35.4876C14.529 35.7793 14.3569 36.0188 14.1234 36.206C13.8874 36.3923 13.6214 36.5121 13.3255 36.5654C13.0306 36.6163 12.7372 36.5865 12.4455 36.4759C12.1514 36.3645 11.9119 36.1924 11.7271 35.9598C11.5409 35.7238 11.4223 35.4583 11.3714 35.1633C11.3181 34.8674 11.3467 34.5736 11.4572 34.2819C11.5686 33.9878 11.7419 33.7488 11.977 33.5649C12.2105 33.3777 12.4748 33.2587 12.7698 33.2078C13.0633 33.1536 13.3571 33.1822 13.6512 33.2936C13.9429 33.4041 14.1819 33.5774 14.3682 33.8134C14.5554 34.047 14.6757 34.3117 14.729 34.6076C14.7808 34.9002 14.751 35.1935 14.6395 35.4876Z" fill="black" fill-opacity="0.6"/>
<path d="M21.6831 19.0367C21.5044 18.8498 21.3024 18.7549 21.0773 18.752C20.8542 18.7474 20.6077 18.855 20.3378 19.0748C20.1659 19.2148 20.042 19.3505 19.9663 19.482C19.8909 19.6099 19.8556 19.73 19.8606 19.8423C19.8656 19.9546 19.9037 20.0565 19.975 20.1481C20.0312 20.2254 20.0987 20.2817 20.1776 20.3173C20.2568 20.3492 20.3499 20.3615 20.4569 20.3542C20.5623 20.3448 20.6835 20.316 20.8204 20.2677C20.9573 20.2194 21.1109 20.1509 21.2812 20.062L21.873 19.7598C22.2714 19.5551 22.6396 19.4132 22.9776 19.3342C23.3155 19.2552 23.6266 19.233 23.9108 19.2676C24.1933 19.3002 24.4511 19.3862 24.6842 19.5255C24.9194 19.6632 25.1331 19.8482 25.3256 20.0805C25.6524 20.486 25.8298 20.91 25.8577 21.3527C25.8857 21.7954 25.7731 22.2411 25.5201 22.6898C25.269 23.1369 24.8836 23.572 24.3638 23.9952C23.83 24.4298 23.2999 24.7301 22.7734 24.8961C22.249 25.0604 21.7433 25.0682 21.2565 24.9194C20.77 24.7669 20.3166 24.4346 19.8962 23.9224L21.4797 22.6332C21.6427 22.813 21.8182 22.9327 22.0064 22.9923C22.1945 23.0519 22.3914 23.0528 22.5971 22.9951C22.8047 22.9357 23.0145 22.8198 23.2265 22.6472C23.4044 22.5024 23.5354 22.3591 23.6196 22.2175C23.7037 22.0758 23.745 21.9408 23.7435 21.8123C23.742 21.6839 23.7016 21.5689 23.6222 21.4673C23.5437 21.375 23.446 21.3182 23.329 21.2971C23.2124 21.2723 23.0644 21.2865 22.8849 21.3396C22.7037 21.3906 22.4788 21.484 22.2102 21.6195L21.491 21.9857C20.8512 22.3105 20.262 22.4627 19.7235 22.4423C19.1853 22.4184 18.7219 22.1657 18.3333 21.6842C18.0139 21.296 17.8403 20.8705 17.8126 20.4077C17.7852 19.9412 17.8918 19.4738 18.1321 19.0055C18.3745 18.5356 18.7386 18.1028 19.2245 17.7073C19.7203 17.3036 20.2167 17.0374 20.7136 16.9087C21.2106 16.7801 21.68 16.7869 22.1217 16.9293C22.5638 17.068 22.9494 17.3375 23.2786 17.7377L21.6831 19.0367Z" fill="#2EC068"/>
<path d="M21.6831 19.0367C21.5044 18.8498 21.3024 18.7549 21.0773 18.752C20.8542 18.7474 20.6077 18.855 20.3378 19.0748C20.1659 19.2148 20.042 19.3505 19.9663 19.482C19.8909 19.6099 19.8556 19.73 19.8606 19.8423C19.8656 19.9546 19.9037 20.0565 19.975 20.1481C20.0312 20.2254 20.0987 20.2817 20.1776 20.3173C20.2568 20.3492 20.3499 20.3615 20.4569 20.3542C20.5623 20.3448 20.6835 20.316 20.8204 20.2677C20.9573 20.2194 21.1109 20.1509 21.2812 20.062L21.873 19.7598C22.2714 19.5551 22.6396 19.4132 22.9776 19.3342C23.3155 19.2552 23.6266 19.233 23.9108 19.2676C24.1933 19.3002 24.4511 19.3862 24.6842 19.5255C24.9194 19.6632 25.1331 19.8482 25.3256 20.0805C25.6524 20.486 25.8298 20.91 25.8577 21.3527C25.8857 21.7954 25.7731 22.2411 25.5201 22.6898C25.269 23.1369 24.8836 23.572 24.3638 23.9952C23.83 24.4298 23.2999 24.7301 22.7734 24.8961C22.249 25.0604 21.7433 25.0682 21.2565 24.9194C20.77 24.7669 20.3166 24.4346 19.8962 23.9224L21.4797 22.6332C21.6427 22.813 21.8182 22.9327 22.0064 22.9923C22.1945 23.0519 22.3914 23.0528 22.5971 22.9951C22.8047 22.9357 23.0145 22.8198 23.2265 22.6472C23.4044 22.5024 23.5354 22.3591 23.6196 22.2175C23.7037 22.0758 23.745 21.9408 23.7435 21.8123C23.742 21.6839 23.7016 21.5689 23.6222 21.4673C23.5437 21.375 23.446 21.3182 23.329 21.2971C23.2124 21.2723 23.0644 21.2865 22.8849 21.3396C22.7037 21.3906 22.4788 21.484 22.2102 21.6195L21.491 21.9857C20.8512 22.3105 20.262 22.4627 19.7235 22.4423C19.1853 22.4184 18.7219 22.1657 18.3333 21.6842C18.0139 21.296 17.8403 20.8705 17.8126 20.4077C17.7852 19.9412 17.8918 19.4738 18.1321 19.0055C18.3745 18.5356 18.7386 18.1028 19.2245 17.7073C19.7203 17.3036 20.2167 17.0374 20.7136 16.9087C21.2106 16.7801 21.68 16.7869 22.1217 16.9293C22.5638 17.068 22.9494 17.3375 23.2786 17.7377L21.6831 19.0367Z" fill="black" fill-opacity="0.6"/>
<path d="M30.9071 19.5155L28.7417 20.349L28.3365 12.0186L31.0794 10.9629L36.364 17.4152L34.1985 18.2487L30.5203 13.5152L30.4625 13.5374L30.9071 19.5155ZM29.3805 16.755L33.4515 15.1881L34.0294 16.6895L29.9584 18.2564L29.3805 16.755Z" fill="#2EC068"/>
<path d="M30.9071 19.5155L28.7417 20.349L28.3365 12.0186L31.0794 10.9629L36.364 17.4152L34.1985 18.2487L30.5203 13.5152L30.4625 13.5374L30.9071 19.5155ZM29.3805 16.755L33.4515 15.1881L34.0294 16.6895L29.9584 18.2564L29.3805 16.755Z" fill="black" fill-opacity="0.6"/>
<path d="M40.0645 16.887L37.7478 17.0158L39.9183 8.96297L42.8528 8.7998L45.9026 16.5624L43.5859 16.6912L41.5375 11.0574L41.4757 11.0608L40.0645 16.887ZM39.4586 13.7912L43.814 13.549L43.9033 15.1553L39.5479 15.3974L39.4586 13.7912Z" fill="#2EC068"/>
<path d="M40.0645 16.887L37.7478 17.0158L39.9183 8.96297L42.8528 8.7998L45.9026 16.5624L43.5859 16.6912L41.5375 11.0574L41.4757 11.0608L40.0645 16.887ZM39.4586 13.7912L43.814 13.549L43.9033 15.1553L39.5479 15.3974L39.4586 13.7912Z" fill="black" fill-opacity="0.6"/>
<path d="M48.2749 10.5744L48.7024 8.89547L55.3731 10.5938L54.9456 12.2728L52.6371 11.685L51.1105 17.6812L49.0568 17.1583L50.5834 11.1621L48.2749 10.5744Z" fill="#2EC068"/>
<path d="M48.2749 10.5744L48.7024 8.89547L55.3731 10.5938L54.9456 12.2728L52.6371 11.685L51.1105 17.6812L49.0568 17.1583L50.5834 11.1621L48.2749 10.5744Z" fill="black" fill-opacity="0.6"/>
<path d="M55.8378 18.9882L60.1142 12.3221L61.924 13.4831L60.2535 16.087L62.6491 17.6239L64.3196 15.0199L66.1294 16.1809L61.8529 22.847L60.0432 21.6861L61.7137 19.0821L59.318 17.5453L57.6475 20.1492L55.8378 18.9882Z" fill="#2EC068"/>
<path d="M55.8378 18.9882L60.1142 12.3221L61.924 13.4831L60.2535 16.087L62.6491 17.6239L64.3196 15.0199L66.1294 16.1809L61.8529 22.847L60.0432 21.6861L61.7137 19.0821L59.318 17.5453L57.6475 20.1492L55.8378 18.9882Z" fill="black" fill-opacity="0.6"/>
<path d="M71.2726 20.9482L65.3402 26.1952L63.9157 24.5847L69.8481 19.3376L71.2726 20.9482Z" fill="#2EC068"/>
<path d="M71.2726 20.9482L65.3402 26.1952L63.9157 24.5847L69.8481 19.3376L71.2726 20.9482Z" fill="black" fill-opacity="0.6"/>
<path d="M73.7157 34.6204C73.6422 34.3173 73.6489 34.0225 73.7359 33.7361C73.8255 33.4491 73.9773 33.2 74.1913 32.9889C74.406 32.7803 74.6649 32.6392 74.9681 32.5656C75.2737 32.4915 75.5685 32.4982 75.8524 32.5858C76.1394 32.6754 76.3872 32.8275 76.5958 33.0421C76.807 33.2562 76.9493 33.5148 77.0229 33.818C77.097 34.1236 77.089 34.4187 76.9989 34.7032C76.9119 34.9896 76.761 35.2371 76.5463 35.4457C76.3348 35.6563 76.0762 35.7986 75.7705 35.8728C75.4674 35.9463 75.1723 35.9383 74.8853 35.8488C74.5988 35.7618 74.3501 35.6112 74.139 35.3972C73.931 35.185 73.7899 34.9261 73.7157 34.6204Z" fill="#2EC068"/>
<path d="M73.7157 34.6204C73.6422 34.3173 73.6489 34.0225 73.7359 33.7361C73.8255 33.4491 73.9773 33.2 74.1913 32.9889C74.406 32.7803 74.6649 32.6392 74.9681 32.5656C75.2737 32.4915 75.5685 32.4982 75.8524 32.5858C76.1394 32.6754 76.3872 32.8275 76.5958 33.0421C76.807 33.2562 76.9493 33.5148 77.0229 33.818C77.097 34.1236 77.089 34.4187 76.9989 34.7032C76.9119 34.9896 76.761 35.2371 76.5463 35.4457C76.3348 35.6563 76.0762 35.7986 75.7705 35.8728C75.4674 35.9463 75.1723 35.9383 74.8853 35.8488C74.5988 35.7618 74.3501 35.6112 74.139 35.3972C73.931 35.185 73.7899 34.9261 73.7157 34.6204Z" fill="black" fill-opacity="0.6"/>
<path d="M16.009 49.5695L11.5131 53.2583L11.5374 53.3152L17.3104 52.6132L18.2652 54.8462L9.95529 55.5563L8.7998 52.8539L15.0542 47.3365L16.009 49.5695Z" fill="#2EC068"/>
<path d="M16.009 49.5695L11.5131 53.2583L11.5374 53.3152L17.3104 52.6132L18.2652 54.8462L9.95529 55.5563L8.7998 52.8539L15.0542 47.3365L16.009 49.5695Z" fill="black" fill-opacity="0.6"/>
<path d="M14.0257 64.2858L19.5392 58.6002L23.6368 62.5738L22.4307 63.8176L19.8767 61.3408L18.929 62.318L21.2721 64.5902L20.066 65.8339L17.7229 63.5617L16.7753 64.5389L19.3183 67.0049L18.1122 68.2487L14.0257 64.2858Z" fill="#2EC068"/>
<path d="M14.0257 64.2858L19.5392 58.6002L23.6368 62.5738L22.4307 63.8176L19.8767 61.3408L18.929 62.318L21.2721 64.5902L20.066 65.8339L17.7229 63.5617L16.7753 64.5389L19.3183 67.0049L18.1122 68.2487L14.0257 64.2858Z" fill="black" fill-opacity="0.6"/>
<path d="M24.3588 74.0379L27.2746 66.6743L30.4531 67.9329C30.9996 68.1493 31.4384 68.4381 31.7695 68.7994C32.1006 69.1606 32.306 69.5733 32.3857 70.0374C32.4653 70.5015 32.4017 70.9948 32.1948 71.5174C31.986 72.0447 31.6924 72.4429 31.3142 72.7118C30.9384 72.9817 30.503 73.1254 30.008 73.1429C29.5154 73.1614 28.9887 73.0595 28.4278 72.8374L26.5294 72.0857L27.1444 70.5325L28.6402 71.1247C28.8751 71.2177 29.0866 71.2682 29.2748 71.2762C29.4663 71.2827 29.632 71.2388 29.772 71.1445C29.9143 71.0511 30.0268 70.9002 30.1094 70.6916C30.1929 70.4807 30.2152 70.2913 30.1763 70.1234C30.1408 69.954 30.0515 69.805 29.9084 69.6762C29.7686 69.546 29.5812 69.4344 29.3463 69.3413L28.6416 69.0623L26.3579 74.8295L24.3588 74.0379ZM30.0118 72.3666L30.5144 76.4753L28.3427 75.6154L27.8832 71.5238L30.0118 72.3666Z" fill="#2EC068"/>
<path d="M24.3588 74.0379L27.2746 66.6743L30.4531 67.9329C30.9996 68.1493 31.4384 68.4381 31.7695 68.7994C32.1006 69.1606 32.306 69.5733 32.3857 70.0374C32.4653 70.5015 32.4017 70.9948 32.1948 71.5174C31.986 72.0447 31.6924 72.4429 31.3142 72.7118C30.9384 72.9817 30.503 73.1254 30.008 73.1429C29.5154 73.1614 28.9887 73.0595 28.4278 72.8374L26.5294 72.0857L27.1444 70.5325L28.6402 71.1247C28.8751 71.2177 29.0866 71.2682 29.2748 71.2762C29.4663 71.2827 29.632 71.2388 29.772 71.1445C29.9143 71.0511 30.0268 70.9002 30.1094 70.6916C30.1929 70.4807 30.2152 70.2913 30.1763 70.1234C30.1408 69.954 30.0515 69.805 29.9084 69.6762C29.7686 69.546 29.5812 69.4344 29.3463 69.3413L28.6416 69.0623L26.3579 74.8295L24.3588 74.0379ZM30.0118 72.3666L30.5144 76.4753L28.3427 75.6154L27.8832 71.5238L30.0118 72.3666Z" fill="black" fill-opacity="0.6"/>
<path d="M40.3461 71.0501L40.1781 78.9683L38.0285 78.9227L38.1965 71.0045L40.3461 71.0501Z" fill="#2EC068"/>
<path d="M40.3461 71.0501L40.1781 78.9683L38.0285 78.9227L38.1965 71.0045L40.3461 71.0501Z" fill="black" fill-opacity="0.6"/>
<path d="M49.5057 79.1998L46.9487 71.704L52.2192 69.9061L52.7785 71.5458L49.543 72.6495L49.9825 73.9379L52.8959 72.944L53.4553 74.5837L50.5419 75.5776L51.5407 78.5056L49.5057 79.1998Z" fill="#2EC068"/>
<path d="M49.5057 79.1998L46.9487 71.704L52.2192 69.9061L52.7785 71.5458L49.543 72.6495L49.9825 73.9379L52.8959 72.944L53.4553 74.5837L50.5419 75.5776L51.5407 78.5056L49.5057 79.1998Z" fill="black" fill-opacity="0.6"/>
<path d="M59.355 66.7459L64.3229 72.914L62.6484 74.2627L57.6805 68.0947L59.355 66.7459Z" fill="#2EC068"/>
<path d="M59.355 66.7459L64.3229 72.914L62.6484 74.2627L57.6805 68.0947L59.355 66.7459Z" fill="black" fill-opacity="0.6"/>
<path d="M71.613 67.0905L64.8349 62.9939L67.7873 58.1089L69.27 59.005L67.4298 62.0499L68.5947 62.754L70.283 59.9606L71.7657 60.8568L70.0775 63.6501L71.2424 64.3542L73.0747 61.3226L74.5574 62.2187L71.613 67.0905Z" fill="#2EC068"/>
<path d="M71.613 67.0905L64.8349 62.9939L67.7873 58.1089L69.27 59.005L67.4298 62.0499L68.5947 62.754L70.283 59.9606L71.7657 60.8568L70.0775 63.6501L71.2424 64.3542L73.0747 61.3226L74.5574 62.2187L71.613 67.0905Z" fill="black" fill-opacity="0.6"/>
<path d="M79.2707 51.8273L78.8438 54.8445L71.002 53.735L71.4246 50.7484C71.5387 49.9417 71.7943 49.267 72.1914 48.7244C72.5862 48.1788 73.0998 47.788 73.732 47.5519C74.3621 47.313 75.0856 47.2513 75.9024 47.3669C76.7193 47.4825 77.3987 47.7414 77.9407 48.1435C78.4801 48.5453 78.8654 49.0607 79.0967 49.6897C79.3254 50.3183 79.3834 51.0309 79.2707 51.8273ZM77.3377 52.4599L77.4526 51.6481C77.5075 51.2601 77.4917 50.9207 77.4053 50.6299C77.3192 50.3365 77.1331 50.0967 76.847 49.9104C76.5613 49.7215 76.1453 49.5885 75.599 49.5112C75.0528 49.4339 74.616 49.4476 74.2887 49.5523C73.9618 49.6545 73.7158 49.8384 73.5506 50.104C73.3858 50.3671 73.2745 50.7029 73.2167 51.1113L73.1105 51.8618L77.3377 52.4599Z" fill="#2EC068"/>
<path d="M79.2707 51.8273L78.8438 54.8445L71.002 53.735L71.4246 50.7484C71.5387 49.9417 71.7943 49.267 72.1914 48.7244C72.5862 48.1788 73.0998 47.788 73.732 47.5519C74.3621 47.313 75.0856 47.2513 75.9024 47.3669C76.7193 47.4825 77.3987 47.7414 77.9407 48.1435C78.4801 48.5453 78.8654 49.0607 79.0967 49.6897C79.3254 50.3183 79.3834 51.0309 79.2707 51.8273ZM77.3377 52.4599L77.4526 51.6481C77.5075 51.2601 77.4917 50.9207 77.4053 50.6299C77.3192 50.3365 77.1331 50.0967 76.847 49.9104C76.5613 49.7215 76.1453 49.5885 75.599 49.5112C75.0528 49.4339 74.616 49.4476 74.2887 49.5523C73.9618 49.6545 73.7158 49.8384 73.5506 50.104C73.3858 50.3671 73.2745 50.7029 73.2167 51.1113L73.1105 51.8618L77.3377 52.4599Z" fill="black" fill-opacity="0.6"/>
<path d="M44.423 21.0708L49.1922 26.597L56.0856 24.1958L57.4528 31.3663L64.6232 32.7334L62.222 39.6268L67.7482 44.3961L62.222 49.1654L64.6232 56.0587L57.4528 57.4259L56.0856 64.5964L49.1922 62.1952L44.423 67.7214L39.6537 62.1952L32.7603 64.5964L31.3931 57.4259L24.2227 56.0587L26.6239 49.1654L21.0977 44.3961L26.6239 39.6268L24.2227 32.7334L31.3931 31.3663L32.7603 24.1958L39.6537 26.597L44.423 21.0708Z" fill="#2EC068"/>
<path d="M44.423 21.0708L49.1922 26.597L56.0856 24.1958L57.4528 31.3663L64.6232 32.7334L62.222 39.6268L67.7482 44.3961L62.222 49.1654L64.6232 56.0587L57.4528 57.4259L56.0856 64.5964L49.1922 62.1952L44.423 67.7214L39.6537 62.1952L32.7603 64.5964L31.3931 57.4259L24.2227 56.0587L26.6239 49.1654L21.0977 44.3961L26.6239 39.6268L24.2227 32.7334L31.3931 31.3663L32.7603 24.1958L39.6537 26.597L44.423 21.0708Z" fill="black" fill-opacity="0.6"/>
<path d="M41.3776 46.9537L37.3012 42.8597L34.7007 45.4778L41.3776 52.1723L54.2746 39.2401L51.6741 36.6221L41.3776 46.9537Z" fill="#2EC068"/>
<path d="M41.3776 46.9537L37.3012 42.8597L34.7007 45.4778L41.3776 52.1723L54.2746 39.2401L51.6741 36.6221L41.3776 46.9537Z" fill="white" fill-opacity="0.6"/>
</svg>
