<svg width="20" height="21" viewBox="0 0 20 21" fill="none" xmlns="http://www.w3.org/2000/svg">
    <path
        d="M14.7011 15.3074C13.8564 16.1525 12.7083 16.6614 11.5173 16.727C11.2297 16.9405 10.5172 17.362 9.37242 17.362C8.88672 17.362 8.53793 17.2082 8.33574 16.905C8.15148 16.6286 8.16004 16.3395 8.15879 16.1075C7.81824 16.0946 7.39383 16.4453 7.27633 16.5628C7.04754 16.7916 6.67652 16.7916 6.4477 16.5628C6.21887 16.3339 6.21887 15.963 6.4477 15.7341C6.52949 15.6523 7.27133 14.9349 8.11723 14.9349C8.60293 14.9349 8.95172 15.0887 9.15391 15.392C9.33816 15.6683 9.32961 15.9574 9.33082 16.1894C9.82063 16.2072 10.3476 16.0691 10.6767 15.881C10.7413 14.6806 11.2393 13.561 12.0961 12.704L14.9792 9.82023V6.02344C14.9792 5.69984 14.7169 5.4375 14.3933 5.4375H10.6277C10.3041 5.4375 10.0417 5.17516 10.0417 4.85156V1.08594C10.0417 0.762344 9.77938 0.5 9.45578 0.5H0.585938C0.262344 0.5 0 0.762344 0 1.08594V19.9141C0 20.2377 0.262344 20.5 0.585938 20.5H14.3932C14.7168 20.5 14.9792 20.2377 14.9792 19.9141V15.0292C14.8035 15.205 14.7011 15.3074 14.7011 15.3074ZM3.09637 6.77605H5.6068C6.3834 6.80488 6.38281 7.91938 5.6068 7.94793H3.09637C2.31977 7.9191 2.32035 6.80457 3.09637 6.77605ZM3.09637 9.28645H11.8828C12.6594 9.31527 12.6588 10.4298 11.8828 10.4583H3.09637C2.31977 10.4295 2.32035 9.315 3.09637 9.28645ZM2.51043 12.3828C2.51043 12.0592 2.77277 11.7969 3.09637 11.7969H9.37242C10.149 11.8257 10.1484 12.9402 9.37242 12.9688H3.09637C2.77273 12.9688 2.51043 12.7064 2.51043 12.3828Z"
        fill="#556080" />
    <path
        d="M11.213 4.26527H14.3927C14.4819 4.26527 14.5695 4.27207 14.6551 4.28492L11.1934 0.823242C11.2062 0.908867 11.213 0.996445 11.213 1.08559V4.26527H11.213Z"
        fill="#556080" />
    <path
        d="M19.7484 7.65461C19.5888 7.49492 19.3677 7.40332 19.1417 7.40332C19.0852 7.40332 19.0311 7.42578 18.9911 7.46574L12.9246 13.5323C12.38 14.0771 12.026 14.7619 11.8965 15.5053C12.6391 15.3731 13.3361 15.015 13.8721 14.4788C13.8721 14.4788 19.9376 8.4118 19.9376 8.41176C19.9775 8.37184 20 8.31758 20 8.26109C20 8.03562 19.9083 7.81457 19.7484 7.65461Z"
        fill="#556080" />
</svg>
    