<svg width="34" height="35" viewBox="0 0 34 35" fill="none" xmlns="http://www.w3.org/2000/svg">
<path d="M29.3329 16.296V28.7226C29.3329 30.328 28.0316 31.6293 26.4263 31.6293H5.57293C3.96762 31.6293 2.66626 30.328 2.66626 28.7226V7.86931C2.66626 6.26401 3.96762 4.96265 5.57293 4.96265H17.9996" stroke="#CBBBE6" stroke-width="2" stroke-linecap="round" stroke-linejoin="round"/>
<path d="M26.6671 0.663574L28.1152 5.61542L33.0671 7.06357L28.1152 8.51173L26.6671 13.4636L25.2189 8.51173L20.2671 7.06357L25.2189 5.61542L26.6671 0.663574Z" fill="#CBBBE6"/>
<path d="M16.1291 21.2316H11.83L11.0913 23.3295H9.33325L13.0119 13.0471H14.962L18.6406 23.3295H16.8677L16.1291 21.2316ZM15.6563 19.8577L13.9869 15.0859L12.3027 19.8577H15.6563Z" fill="#CBBBE6"/>
<path d="M21.3333 13.0619V23.3295H19.6491V13.0619H21.3333Z" fill="#CBBBE6"/>
</svg>
