<svg width="64" height="65" viewBox="0 0 64 65" fill="none" xmlns="http://www.w3.org/2000/svg">
<g filter="url(#filter0_b_2218_6368)">
<path d="M23.8336 5.03841C27.8143 2.67574 29.8047 1.49441 32 1.49441C34.1953 1.49441 36.1857 2.67574 40.1664 5.03841L45.76 8.35839L51.432 11.5426C55.4685 13.8087 57.4867 14.9417 58.5844 16.8429C59.6821 18.7441 59.6542 21.0585 59.5984 25.6872L59.52 32.1914L59.5984 38.6956C59.6542 43.3243 59.6821 45.6387 58.5844 47.5399C57.4867 49.4411 55.4685 50.5742 51.432 52.8402L45.76 56.0244L40.1664 59.3444C36.1857 61.7071 34.1953 62.8884 32 62.8884C29.8047 62.8884 27.8143 61.7071 23.8336 59.3444L18.24 56.0244L12.568 52.8402C8.53153 50.5742 6.51329 49.4411 5.41562 47.5399C4.31795 45.6387 4.34584 43.3243 4.40162 38.6956L4.48 32.1914L4.40162 25.6872C4.34584 21.0585 4.31795 18.7441 5.41562 16.8429C6.51329 14.9417 8.53153 13.8087 12.568 11.5426L18.24 8.35839L23.8336 5.03841Z" fill="url(#paint0_linear_2218_6368)" fill-opacity="0.4"/>
<path d="M45.5048 8.78836L45.5047 8.78848L45.5152 8.79438L51.1872 11.9786C53.2141 13.1165 54.702 13.9525 55.8231 14.7389C56.9349 15.5189 57.6517 16.2275 58.1514 17.0929C58.651 17.9583 58.9063 18.9334 59.0259 20.2863C59.1464 21.6503 59.1264 23.3569 59.0984 25.6812L59.02 32.1854L59.0199 32.1854L59.02 32.1974L59.0984 38.7016C59.1264 41.0259 59.1464 42.7325 59.0259 44.0965C58.9063 45.4494 58.651 46.4245 58.1514 47.2899C57.6517 48.1553 56.9349 48.8639 55.8231 49.6439C54.702 50.4303 53.2141 51.2663 51.1872 52.4042L45.5152 55.5884L45.5152 55.5883L45.5048 55.5945L39.9112 58.9144C37.9123 60.1008 36.4444 60.9714 35.2028 61.5491C33.9714 62.122 32.9993 62.3884 32 62.3884C31.0007 62.3884 30.0286 62.122 28.7972 61.5491C27.5556 60.9714 26.0877 60.1008 24.0888 58.9144L18.4952 55.5945L18.4953 55.5943L18.4848 55.5884L12.8128 52.4042C10.7859 51.2663 9.29795 50.4303 8.17691 49.6439C7.06507 48.8639 6.34829 48.1553 5.84863 47.2899C5.34898 46.4245 5.09369 45.4494 4.97414 44.0966C4.85359 42.7325 4.87357 41.0259 4.90158 38.7016L4.97997 32.1974L4.98011 32.1974L4.97997 32.1854L4.90158 25.6812C4.87357 23.3569 4.85359 21.6503 4.97414 20.2863C5.09369 18.9334 5.34898 17.9583 5.84863 17.0929C6.34829 16.2275 7.06507 15.5189 8.17691 14.7389C9.29795 13.9525 10.7859 13.1165 12.8128 11.9786L18.4848 8.79438L18.4848 8.79451L18.4952 8.78836L24.0888 5.46838C26.0877 4.28197 27.5556 3.41138 28.7972 2.83375C30.0286 2.26085 31.0007 1.99441 32 1.99441C32.9993 1.99441 33.9714 2.26085 35.2028 2.83375C36.4444 3.41138 37.9123 4.28197 39.9112 5.46838L45.5048 8.78836Z" stroke="url(#paint1_linear_2218_6368)" stroke-opacity="0.4"/>
</g>
<path d="M31.9997 41.5241V44.1908H23.9997C23.2663 44.1908 22.6386 43.9297 22.1163 43.4074C21.5941 42.8852 21.333 42.2574 21.333 41.5241V21.5241C21.333 20.7908 21.5941 20.163 22.1163 19.6408C22.6386 19.1185 23.2663 18.8574 23.9997 18.8574H39.9997C40.733 18.8574 41.3608 19.1185 41.883 19.6408C42.4052 20.163 42.6663 20.7908 42.6663 21.5241V26.8574H39.9997V21.5241H23.9997V41.5241H31.9997Z" fill="url(#paint2_linear_2218_6368)"/>
<path d="M32.0003 24.1914H26.667V26.8581H32.0003V24.1914Z" fill="url(#paint3_linear_2218_6368)"/>
<path d="M32.0003 28.1914H26.667V30.8581H32.0003V28.1914Z" fill="url(#paint4_linear_2218_6368)"/>
<g clip-path="url(#clip0_2218_6368)">
<path d="M38.6664 39.3914C37.1812 39.3914 35.7568 38.8014 34.7066 37.7512C33.6564 36.701 33.0664 35.2766 33.0664 33.7914C33.0664 32.3062 33.6564 30.8818 34.7066 29.8316C35.7568 28.7814 37.1812 28.1914 38.6664 28.1914C40.1516 28.1914 41.576 28.7814 42.6262 29.8316C43.6764 30.8818 44.2664 32.3062 44.2664 33.7914C44.2664 35.2766 43.6764 36.701 42.6262 37.7512C41.576 38.8014 40.1516 39.3914 38.6664 39.3914ZM38.6664 36.5914C39.409 36.5914 40.1212 36.2964 40.6463 35.7713C41.1714 35.2462 41.4664 34.534 41.4664 33.7914C41.4664 33.0488 41.1714 32.3366 40.6463 31.8115C40.1212 31.2864 39.409 30.9914 38.6664 30.9914C37.9238 30.9914 37.2116 31.2864 36.6865 31.8115C36.1614 32.3366 35.8664 33.0488 35.8664 33.7914C35.8664 34.534 36.1614 35.2462 36.6865 35.7713C37.2116 36.2964 37.9238 36.5914 38.6664 36.5914ZM42.3997 39.1581V46.8581L38.6664 43.1247L34.9331 46.8581V39.1581C36.0271 39.9247 37.3305 40.336 38.6664 40.336C40.0023 40.336 41.3057 39.9247 42.3997 39.1581Z" fill="url(#paint5_linear_2218_6368)"/>
</g>
<defs>
<filter id="filter0_b_2218_6368" x="-3.62012" y="-6.50586" width="71.2402" height="77.3945" filterUnits="userSpaceOnUse" color-interpolation-filters="sRGB">
<feFlood flood-opacity="0" result="BackgroundImageFix"/>
<feGaussianBlur in="BackgroundImageFix" stdDeviation="4"/>
<feComposite in2="SourceAlpha" operator="in" result="effect1_backgroundBlur_2218_6368"/>
<feBlend mode="normal" in="SourceGraphic" in2="effect1_backgroundBlur_2218_6368" result="shape"/>
</filter>
<linearGradient id="paint0_linear_2218_6368" x1="0" y1="0.191406" x2="75.8485" y2="44.0225" gradientUnits="userSpaceOnUse">
<stop stop-color="white"/>
<stop offset="0.333333" stop-color="white" stop-opacity="0.43"/>
<stop offset="0.333433" stop-color="white" stop-opacity="0"/>
<stop offset="1" stop-color="white"/>
</linearGradient>
<linearGradient id="paint1_linear_2218_6368" x1="32" y1="0.191406" x2="32" y2="64.1914" gradientUnits="userSpaceOnUse">
<stop stop-color="white"/>
<stop offset="1" stop-color="white" stop-opacity="0"/>
</linearGradient>
<linearGradient id="paint2_linear_2218_6368" x1="21.333" y1="18.8574" x2="42.778" y2="18.9522" gradientUnits="userSpaceOnUse">
<stop stop-color="#E1BBFF"/>
<stop offset="1" stop-color="#4DE7FF"/>
</linearGradient>
<linearGradient id="paint3_linear_2218_6368" x1="26.667" y1="24.1914" x2="32.0277" y2="24.2477" gradientUnits="userSpaceOnUse">
<stop stop-color="#E1BBFF"/>
<stop offset="1" stop-color="#4DE7FF"/>
</linearGradient>
<linearGradient id="paint4_linear_2218_6368" x1="26.667" y1="28.1914" x2="32.0277" y2="28.2477" gradientUnits="userSpaceOnUse">
<stop stop-color="#E1BBFF"/>
<stop offset="1" stop-color="#4DE7FF"/>
</linearGradient>
<linearGradient id="paint5_linear_2218_6368" x1="33.0664" y1="28.1914" x2="44.3251" y2="28.2269" gradientUnits="userSpaceOnUse">
<stop stop-color="#E1BBFF"/>
<stop offset="1" stop-color="#4DE7FF"/>
</linearGradient>
<clipPath id="clip0_2218_6368">
<rect width="18.6667" height="18.6667" fill="white" transform="translate(29.333 28.1914)"/>
</clipPath>
</defs>
</svg>
