<svg width="120" height="120" viewBox="0 0 120 120" fill="none" xmlns="http://www.w3.org/2000/svg">
<path fill-rule="evenodd" clip-rule="evenodd" d="M87.8755 38.8897C89.5525 40.56 89.5581 43.2736 87.8878 44.9506L51.7762 81.209C50.106 82.886 47.3925 82.8916 45.7154 81.2214L32.5457 68.1063C30.8686 66.4362 30.8629 63.7226 32.5331 62.0454C34.2033 60.3683 36.9169 60.3626 38.594 62.0328L48.7272 72.1239L81.8146 38.902C83.4849 37.225 86.1984 37.2195 87.8755 38.8897Z" fill="#3B2B8C"/>
<path fill-rule="evenodd" clip-rule="evenodd" d="M59.7505 12.2316C37.033 12.2316 17.9747 28.0946 13.0825 49.3451L13.0825 49.3452C12.2861 52.8042 11.8644 56.4096 11.8644 60.1177C11.8644 86.5444 33.3238 108.004 59.7505 108.004C86.1772 108.004 107.637 86.5444 107.637 60.1177C107.637 33.691 86.1772 12.2316 59.7505 12.2316ZM4.72953 47.4221C10.497 22.3697 32.949 3.66016 59.7505 3.66016C90.9111 3.66016 116.208 28.9571 116.208 60.1177C116.208 91.2782 90.9111 116.575 59.7505 116.575C28.5899 116.575 3.29297 91.2782 3.29297 60.1177C3.29297 55.7576 3.78904 51.5072 4.72953 47.4221Z" fill="#C2CDE0"/>
</svg>
