<svg width="64" height="65" viewBox="0 0 64 65" fill="none" xmlns="http://www.w3.org/2000/svg">
<g filter="url(#filter0_b_2218_6359)">
<path d="M23.8336 5.03841C27.8143 2.67574 29.8047 1.49441 32 1.49441C34.1953 1.49441 36.1857 2.67574 40.1664 5.03841L45.76 8.35839L51.432 11.5426C55.4685 13.8087 57.4867 14.9417 58.5844 16.8429C59.6821 18.7441 59.6542 21.0585 59.5984 25.6872L59.52 32.1914L59.5984 38.6956C59.6542 43.3243 59.6821 45.6387 58.5844 47.5399C57.4867 49.4411 55.4685 50.5742 51.432 52.8402L45.76 56.0244L40.1664 59.3444C36.1857 61.7071 34.1953 62.8884 32 62.8884C29.8047 62.8884 27.8143 61.7071 23.8336 59.3444L18.24 56.0244L12.568 52.8402C8.53153 50.5742 6.51329 49.4411 5.41562 47.5399C4.31795 45.6387 4.34584 43.3243 4.40162 38.6956L4.48 32.1914L4.40162 25.6872C4.34584 21.0585 4.31795 18.7441 5.41562 16.8429C6.51329 14.9417 8.53153 13.8087 12.568 11.5426L18.24 8.35839L23.8336 5.03841Z" fill="url(#paint0_linear_2218_6359)" fill-opacity="0.4"/>
<path d="M45.5048 8.78836L45.5047 8.78848L45.5152 8.79438L51.1872 11.9786C53.2141 13.1165 54.702 13.9525 55.8231 14.7389C56.9349 15.5189 57.6517 16.2275 58.1514 17.0929C58.651 17.9583 58.9063 18.9334 59.0259 20.2863C59.1464 21.6503 59.1264 23.3569 59.0984 25.6812L59.02 32.1854L59.0199 32.1854L59.02 32.1974L59.0984 38.7016C59.1264 41.0259 59.1464 42.7325 59.0259 44.0965C58.9063 45.4494 58.651 46.4245 58.1514 47.2899C57.6517 48.1553 56.9349 48.8639 55.8231 49.6439C54.702 50.4303 53.2141 51.2663 51.1872 52.4042L45.5152 55.5884L45.5152 55.5883L45.5048 55.5945L39.9112 58.9144C37.9123 60.1008 36.4444 60.9714 35.2028 61.5491C33.9714 62.122 32.9993 62.3884 32 62.3884C31.0007 62.3884 30.0286 62.122 28.7972 61.5491C27.5556 60.9714 26.0877 60.1008 24.0888 58.9144L18.4952 55.5945L18.4953 55.5943L18.4848 55.5884L12.8128 52.4042C10.7859 51.2663 9.29795 50.4303 8.17691 49.6439C7.06507 48.8639 6.34829 48.1553 5.84863 47.2899C5.34898 46.4245 5.09369 45.4494 4.97414 44.0966C4.85359 42.7325 4.87357 41.0259 4.90158 38.7016L4.97997 32.1974L4.98011 32.1974L4.97997 32.1854L4.90158 25.6812C4.87357 23.3569 4.85359 21.6503 4.97414 20.2863C5.09369 18.9334 5.34898 17.9583 5.84863 17.0929C6.34829 16.2275 7.06507 15.5189 8.17691 14.7389C9.29795 13.9525 10.7859 13.1165 12.8128 11.9786L18.4848 8.79438L18.4848 8.79451L18.4952 8.78836L24.0888 5.46838C26.0877 4.28197 27.5556 3.41138 28.7972 2.83375C30.0286 2.26085 31.0007 1.99441 32 1.99441C32.9993 1.99441 33.9714 2.26085 35.2028 2.83375C36.4444 3.41138 37.9123 4.28197 39.9112 5.46838L45.5048 8.78836Z" stroke="url(#paint1_linear_2218_6359)" stroke-opacity="0.4"/>
</g>
<g clip-path="url(#clip0_2218_6359)">
<path d="M27.9997 21.5254C22.1063 21.5254 17.333 26.2987 17.333 32.1921C17.333 38.0854 22.1063 42.8587 27.9997 42.8587C33.893 42.8587 38.6663 38.0854 38.6663 32.1921C38.6663 26.2987 33.893 21.5254 27.9997 21.5254ZM27.9997 40.1921C23.5863 40.1921 19.9997 36.6054 19.9997 32.1921C19.9997 27.7787 23.5863 24.1921 27.9997 24.1921C32.413 24.1921 35.9997 27.7787 35.9997 32.1921C35.9997 36.6054 32.413 40.1921 27.9997 40.1921ZM38.6663 21.8721V24.6587C41.773 25.7521 43.9997 28.7121 43.9997 32.1921C43.9997 35.6721 41.773 38.6321 38.6663 39.7254V42.5121C43.2663 41.3254 46.6663 37.1654 46.6663 32.1921C46.6663 27.2187 43.2663 23.0587 38.6663 21.8721Z" fill="url(#paint2_linear_2218_6359)"/>
<path d="M22.9336 26.3242H26.529C26.6716 26.3242 26.8481 26.331 27.0586 26.3446C27.2691 26.3514 27.466 26.3717 27.6493 26.4057C28.4709 26.5347 29.1533 26.8165 29.6966 27.2511C30.2466 27.6788 30.6574 28.2187 30.929 28.8705C31.2006 29.5156 31.3364 30.2319 31.3364 31.0196C31.3364 32.1671 31.0614 33.1449 30.5114 33.9529C29.9614 34.7542 29.1364 35.2906 28.0364 35.5622C27.7716 35.6301 27.5271 35.6742 27.303 35.6946C27.079 35.715 26.8141 35.7251 26.5086 35.7251H22.9336V33.7085H26.4475C26.5765 33.7085 26.7225 33.7017 26.8854 33.6881C27.0552 33.6745 27.2148 33.6508 27.3642 33.6168C27.8055 33.5082 28.1552 33.318 28.4132 33.0464C28.678 32.7748 28.8682 32.4591 28.9836 32.0992C29.1058 31.7393 29.1669 31.3795 29.1669 31.0196C29.1669 30.6597 29.1058 30.2998 28.9836 29.94C28.8682 29.5801 28.678 29.2643 28.4132 28.9927C28.1552 28.7211 27.8055 28.5344 27.3642 28.4326C27.2148 28.3918 27.0552 28.3647 26.8854 28.3511C26.7225 28.3375 26.5765 28.3307 26.4475 28.3307H22.9336V26.3242ZM22.9336 35.7251L25.2151 35.114L31.8456 40.9909H28.8308L22.9336 35.7251ZM22.9845 31.8548V30.1946H32.966V31.8548H22.9845ZM26.2845 27.9844V26.3242H32.9049V27.9844H26.2845Z" fill="url(#paint3_linear_2218_6359)"/>
</g>
<defs>
<filter id="filter0_b_2218_6359" x="-3.62012" y="-6.50586" width="71.2402" height="77.3945" filterUnits="userSpaceOnUse" color-interpolation-filters="sRGB">
<feFlood flood-opacity="0" result="BackgroundImageFix"/>
<feGaussianBlur in="BackgroundImageFix" stdDeviation="4"/>
<feComposite in2="SourceAlpha" operator="in" result="effect1_backgroundBlur_2218_6359"/>
<feBlend mode="normal" in="SourceGraphic" in2="effect1_backgroundBlur_2218_6359" result="shape"/>
</filter>
<linearGradient id="paint0_linear_2218_6359" x1="0" y1="0.191406" x2="75.8485" y2="44.0225" gradientUnits="userSpaceOnUse">
<stop stop-color="white"/>
<stop offset="0.333333" stop-color="white" stop-opacity="0.43"/>
<stop offset="0.333433" stop-color="white" stop-opacity="0"/>
<stop offset="1" stop-color="white"/>
</linearGradient>
<linearGradient id="paint1_linear_2218_6359" x1="32" y1="0.191406" x2="32" y2="64.1914" gradientUnits="userSpaceOnUse">
<stop stop-color="white"/>
<stop offset="1" stop-color="white" stop-opacity="0"/>
</linearGradient>
<linearGradient id="paint2_linear_2218_6359" x1="17.333" y1="21.5254" x2="46.8188" y2="21.7383" gradientUnits="userSpaceOnUse">
<stop stop-color="#D499FF"/>
<stop offset="1" stop-color="#4DE7FF"/>
</linearGradient>
<linearGradient id="paint3_linear_2218_6359" x1="22.9336" y1="26.3242" x2="33.0186" y2="26.3604" gradientUnits="userSpaceOnUse">
<stop stop-color="#D499FF"/>
<stop offset="1" stop-color="#4DE7FF"/>
</linearGradient>
<clipPath id="clip0_2218_6359">
<rect width="32" height="32" fill="white" transform="translate(16 16.1914)"/>
</clipPath>
</defs>
</svg>
