<svg width="24" height="24" viewBox="0 0 24 24" fill="none" xmlns="http://www.w3.org/2000/svg">
<path d="M20.25 11.2502H5.28787L11.0171 5.79318C11.3171 5.50743 11.3287 5.03268 11.043 4.73268C10.7576 4.43306 10.2829 4.42106 9.9825 4.70681L3.4395 10.9393C3.15637 11.2228 3 11.5993 3 12.0002C3 12.4007 3.15637 12.7776 3.45262 13.0734L9.98287 19.2932C10.128 19.4316 10.314 19.5002 10.5 19.5002C10.698 19.5002 10.896 19.4222 11.0434 19.2673C11.3291 18.9673 11.3175 18.4929 11.0175 18.2072L5.26425 12.7502H20.25C20.664 12.7502 21 12.4142 21 12.0002C21 11.5862 20.664 11.2502 20.25 11.2502Z" fill="black"/>
</svg>
