<svg width="72" height="73" viewBox="0 0 72 73" fill="none" xmlns="http://www.w3.org/2000/svg">
<g filter="url(#filter0_b_2218_5772)">
<path d="M27.8336 5.05794C31.8143 2.69527 33.8047 1.51394 36 1.51394C38.1953 1.51394 40.1857 2.69527 44.1664 5.05794L51.48 9.39879L58.8961 13.5621C62.9326 15.8282 64.9508 16.9612 66.0485 18.8624C67.1461 20.7637 67.1183 23.078 67.0625 27.7067L66.96 36.2109L67.0625 44.7151C67.1183 49.3439 67.1461 51.6582 66.0485 53.5594C64.9508 55.4607 62.9326 56.5937 58.8961 58.8597L51.48 63.0231L44.1664 67.3639C40.1857 69.7266 38.1953 70.9079 36 70.9079C33.8047 70.9079 31.8143 69.7266 27.8336 67.3639L20.52 63.0231L13.1039 58.8597C9.06743 56.5937 7.04919 55.4607 5.95152 53.5594C4.85385 51.6582 4.88174 49.3439 4.93752 44.7151L5.04 36.2109L4.93752 27.7067C4.88174 23.078 4.85385 20.7637 5.95152 18.8624C7.04919 16.9612 9.06743 15.8282 13.1039 13.5621L20.52 9.39879L27.8336 5.05794Z" fill="url(#paint0_linear_2218_5772)" fill-opacity="0.4"/>
<path d="M51.2248 9.82876L51.2247 9.82889L51.2352 9.83479L58.6513 13.9981C60.6782 15.136 62.1662 15.972 63.2872 16.7584C64.399 17.5384 65.1158 18.247 65.6155 19.1124C66.1151 19.9779 66.3704 20.9529 66.49 22.3058C66.6105 23.6698 66.5905 25.3764 66.5625 27.7007L66.46 36.2049L66.4599 36.2049L66.46 36.217L66.5625 44.7212C66.5905 47.0455 66.6105 48.752 66.49 50.1161C66.3704 51.469 66.1151 52.444 65.6155 53.3094C65.1158 54.1749 64.399 54.8835 63.2872 55.6634C62.1661 56.4499 60.6782 57.2859 58.6513 58.4237L51.2352 62.5871L51.2352 62.587L51.2248 62.5931L43.9112 66.934C41.9123 68.1204 40.4444 68.991 39.2028 69.5686C37.9714 70.1415 36.9993 70.4079 36 70.4079C35.0007 70.4079 34.0286 70.1415 32.7972 69.5686C31.5556 68.991 30.0877 68.1204 28.0888 66.934L20.7752 62.5931L20.7753 62.593L20.7648 62.5871L13.3487 58.4237C11.3218 57.2859 9.83385 56.4499 8.71281 55.6634C7.60097 54.8835 6.88418 54.1749 6.38453 53.3094C5.88488 52.444 5.62959 51.469 5.51003 50.1161C5.38949 48.752 5.40947 47.0455 5.43748 44.7212L5.53996 36.217L5.54011 36.217L5.53996 36.2049L5.43748 27.7007C5.40947 25.3764 5.38949 23.6699 5.51003 22.3058C5.62959 20.9529 5.88488 19.9779 6.38453 19.1124C6.88418 18.247 7.60097 17.5384 8.71281 16.7584C9.83385 15.972 11.3218 15.136 13.3487 13.9981L20.7648 9.83479L20.7648 9.83491L20.7752 9.82876L28.0888 5.48791C30.0877 4.3015 31.5556 3.43092 32.7972 2.85328C34.0286 2.28038 35.0007 2.01394 36 2.01394C36.9993 2.01394 37.9714 2.28038 39.2028 2.85328C40.4444 3.43091 41.9123 4.3015 43.9112 5.48791L51.2248 9.82876Z" stroke="url(#paint1_linear_2218_5772)" stroke-opacity="0.4"/>
</g>
<g clip-path="url(#clip0_2218_5772)">
<path d="M31.5 24.2109C24.87 24.2109 19.5 29.5809 19.5 36.2109C19.5 42.8409 24.87 48.2109 31.5 48.2109C38.13 48.2109 43.5 42.8409 43.5 36.2109C43.5 29.5809 38.13 24.2109 31.5 24.2109ZM31.5 45.2109C26.535 45.2109 22.5 41.1759 22.5 36.2109C22.5 31.2459 26.535 27.2109 31.5 27.2109C36.465 27.2109 40.5 31.2459 40.5 36.2109C40.5 41.1759 36.465 45.2109 31.5 45.2109ZM43.5 24.6009V27.7359C46.995 28.9659 49.5 32.2959 49.5 36.2109C49.5 40.1259 46.995 43.4559 43.5 44.6859V47.8209C48.675 46.4859 52.5 41.8059 52.5 36.2109C52.5 30.6159 48.675 25.9359 43.5 24.6009Z" fill="url(#paint2_linear_2218_5772)"/>
<path d="M25.7998 29.6113H29.8446C30.005 29.6113 30.2036 29.619 30.4404 29.6342C30.6772 29.6419 30.8988 29.6648 31.105 29.703C32.0293 29.8481 32.797 30.1651 33.4081 30.654C34.0269 31.1353 34.489 31.7426 34.7946 32.4759C35.1002 33.2016 35.2529 34.0075 35.2529 34.8936C35.2529 36.1846 34.9436 37.2846 34.3248 38.1936C33.7061 39.095 32.7779 39.6985 31.5404 40.004C31.2425 40.0804 30.9675 40.1301 30.7154 40.153C30.4633 40.1759 30.1654 40.1874 29.8217 40.1874H25.7998V37.9186H29.7529C29.8981 37.9186 30.0623 37.911 30.2456 37.8957C30.4366 37.8804 30.6161 37.8537 30.7842 37.8155C31.2807 37.6933 31.6741 37.4794 31.9644 37.1738C32.2623 36.8683 32.4762 36.5131 32.6061 36.1082C32.7436 35.7033 32.8123 35.2985 32.8123 34.8936C32.8123 34.4888 32.7436 34.0839 32.6061 33.679C32.4762 33.2742 32.2623 32.919 31.9644 32.6134C31.6741 32.3079 31.2807 32.0978 30.7842 31.9832C30.6161 31.9374 30.4366 31.9068 30.2456 31.8915C30.0623 31.8763 29.8981 31.8686 29.7529 31.8686H25.7998V29.6113ZM25.7998 40.1874L28.3665 39.4999L35.8258 46.1113H32.4342L25.7998 40.1874ZM25.8571 35.8332V33.9655H37.0863V35.8332H25.8571ZM29.5696 31.479V29.6113H37.0175V31.479H29.5696Z" fill="url(#paint3_linear_2218_5772)"/>
</g>
<defs>
<filter id="filter0_b_2218_5772" x="-3.08398" y="-6.48633" width="78.168" height="85.3945" filterUnits="userSpaceOnUse" color-interpolation-filters="sRGB">
<feFlood flood-opacity="0" result="BackgroundImageFix"/>
<feGaussianBlur in="BackgroundImageFix" stdDeviation="4"/>
<feComposite in2="SourceAlpha" operator="in" result="effect1_backgroundBlur_2218_5772"/>
<feBlend mode="normal" in="SourceGraphic" in2="effect1_backgroundBlur_2218_5772" result="shape"/>
</filter>
<linearGradient id="paint0_linear_2218_5772" x1="0" y1="0.210937" x2="85.3296" y2="49.5209" gradientUnits="userSpaceOnUse">
<stop stop-color="white"/>
<stop offset="0.333333" stop-color="white" stop-opacity="0.43"/>
<stop offset="0.333433" stop-color="white" stop-opacity="0"/>
<stop offset="1" stop-color="white"/>
</linearGradient>
<linearGradient id="paint1_linear_2218_5772" x1="36" y1="0.210937" x2="36" y2="72.2109" gradientUnits="userSpaceOnUse">
<stop stop-color="white"/>
<stop offset="1" stop-color="white" stop-opacity="0"/>
</linearGradient>
<linearGradient id="paint2_linear_2218_5772" x1="19.5" y1="24.2109" x2="52.6716" y2="24.4504" gradientUnits="userSpaceOnUse">
<stop stop-color="#00CF2E"/>
<stop offset="1" stop-color="#00FFF0"/>
</linearGradient>
<linearGradient id="paint3_linear_2218_5772" x1="25.7998" y1="29.6113" x2="37.1454" y2="29.6521" gradientUnits="userSpaceOnUse">
<stop stop-color="#00CF2E"/>
<stop offset="1" stop-color="#00FFF0"/>
</linearGradient>
<clipPath id="clip0_2218_5772">
<rect width="36" height="36" fill="white" transform="translate(18 18.2109)"/>
</clipPath>
</defs>
</svg>
