<svg width="17" height="16" viewBox="0 0 17 16" fill="none" xmlns="http://www.w3.org/2000/svg" >
  <path d="M2.95215 11.5C3.22828 11.5 3.45215 11.7239 3.45215 12C3.45215 12.2761 3.22828 12.5 2.95215 12.5H2.94629C2.67015 12.5 2.44629 12.2761 2.44629 12C2.44629 11.7239 2.67015 11.5 2.94629 11.5H2.95215ZM14.9463 11.5C15.2223 11.5002 15.4463 11.724 15.4463 12C15.4463 12.276 15.2223 12.4998 14.9463 12.5H6.2793C6.0033 12.4998 5.7793 12.276 5.7793 12C5.7793 11.724 6.0033 11.5002 6.2793 11.5H14.9463ZM2.95215 7.5C3.22828 7.50001 3.45215 7.72387 3.45215 8C3.45215 8.27613 3.22828 8.49999 2.95215 8.5H2.94629C2.67015 8.5 2.44629 8.27614 2.44629 8C2.44629 7.72386 2.67015 7.5 2.94629 7.5H2.95215ZM14.9463 7.5C15.2223 7.50018 15.4463 7.72397 15.4463 8C15.4463 8.27603 15.2223 8.49982 14.9463 8.5H6.2793C6.0033 8.49982 5.7793 8.27603 5.7793 8C5.7793 7.72397 6.0033 7.50018 6.2793 7.5H14.9463ZM2.95215 3.5C3.22828 3.50001 3.45215 3.72387 3.45215 4C3.45215 4.27613 3.22828 4.49999 2.95215 4.5H2.94629C2.67015 4.5 2.44629 4.27614 2.44629 4C2.44629 3.72386 2.67015 3.5 2.94629 3.5H2.95215ZM14.9463 3.5C15.2223 3.50018 15.4463 3.72397 15.4463 4C15.4463 4.27603 15.2223 4.49982 14.9463 4.5H6.2793C6.0033 4.49982 5.7793 4.27603 5.7793 4C5.7793 3.72397 6.0033 3.50018 6.2793 3.5H14.9463Z" fill="url(#paint0_linear_2015_3697)"/>
  <defs>
    <linearGradient id="paint0_linear_2015_3697" x1="2.44629" y1="8" x2="15.4463" y2="8" gradientUnits="userSpaceOnUse">
      <stop stop-color="#01D033"/>
      <stop offset="1" stop-color="#00FDE9"/>
    </linearGradient>
  </defs>
</svg>





