<svg width="17" height="16" viewBox="0 0 17 16" fill="none" xmlns="http://www.w3.org/2000/svg">
<path d="M13.6128 1.49951C14.625 1.49973 15.4464 2.32037 15.4468 3.33252V12.6665C15.4468 13.6789 14.6252 14.5003 13.6128 14.5005H4.27881C3.26643 14.5003 2.4458 13.6789 2.4458 12.6665V3.33252C2.44614 2.32037 3.26664 1.49974 4.27881 1.49951H13.6128ZM4.27881 2.49951C3.81892 2.49974 3.44614 2.87266 3.4458 3.33252V12.6665C3.4458 13.1267 3.81871 13.5003 4.27881 13.5005H13.6128C14.0729 13.5003 14.4468 13.1267 14.4468 12.6665V3.33252C14.4464 2.87265 14.0727 2.49973 13.6128 2.49951H4.27881ZM10.5776 10.6001H9.1333L8.79834 9.61084H6.7085L6.37354 10.6001H4.94482L6.97119 5.00049H8.55127L10.5776 10.6001ZM12.5581 10.6001H11.1938V5.00049H12.5581V10.6001ZM7.06689 8.55811H8.44678L7.75342 6.50732L7.06689 8.55811Z" fill="url(#paint0_linear_978_2192)"/>
<defs>
<linearGradient id="paint0_linear_978_2192" x1="2.4458" y1="8" x2="15.4468" y2="8" gradientUnits="userSpaceOnUse">
<stop stop-color="#01D033"/>
<stop offset="1" stop-color="#00FDE9"/>
</linearGradient>
</defs>
</svg>
