<svg width="92" height="92" viewBox="0 0 92 92" fill="none" xmlns="http://www.w3.org/2000/svg">
<rect width="92" height="92" rx="46" fill="url(#paint0_linear_2121_9645)"/>
<path d="M34.3867 52.25C35.215 52.2502 35.8867 52.9217 35.8867 53.75C35.8867 54.5783 35.215 55.2498 34.3867 55.25H34.375C33.5466 55.25 32.875 54.5784 32.875 53.75C32.875 52.9216 33.5466 52.25 34.375 52.25H34.3867ZM57.625 52.25C58.4533 52.2502 59.125 52.9217 59.125 53.75C59.125 54.5783 58.4533 55.2498 57.625 55.25H40.833C40.0047 55.2498 39.333 54.5783 39.333 53.75C39.333 52.9217 40.0047 52.2502 40.833 52.25H57.625ZM34.3867 44.5C35.215 44.5002 35.8867 45.1717 35.8867 46C35.8867 46.8283 35.215 47.4998 34.3867 47.5H34.375C33.5466 47.5 32.875 46.8284 32.875 46C32.875 45.1716 33.5466 44.5 34.375 44.5H34.3867ZM57.625 44.5C58.4533 44.5002 59.125 45.1717 59.125 46C59.125 46.8283 58.4533 47.4998 57.625 47.5H40.833C40.0047 47.4998 39.333 46.8283 39.333 46C39.333 45.1717 40.0047 44.5002 40.833 44.5H57.625ZM34.3867 36.75C35.215 36.7502 35.8867 37.4217 35.8867 38.25C35.8867 39.0783 35.215 39.7498 34.3867 39.75H34.375C33.5466 39.75 32.875 39.0784 32.875 38.25C32.875 37.4216 33.5466 36.75 34.375 36.75H34.3867ZM57.625 36.75C58.4533 36.7502 59.125 37.4217 59.125 38.25C59.125 39.0783 58.4533 39.7498 57.625 39.75H40.833C40.0047 39.7498 39.333 39.0783 39.333 38.25C39.333 37.4217 40.0047 36.7502 40.833 36.75H57.625Z" fill="url(#paint1_linear_2121_9645)"/>
<defs>
<linearGradient id="paint0_linear_2121_9645" x1="0" y1="0" x2="92.4805" y2="0.485615" gradientUnits="userSpaceOnUse">
<stop stop-color="#E3BDFF"/>
<stop offset="1" stop-color="#9FDFFF"/>
</linearGradient>
<linearGradient id="paint1_linear_2121_9645" x1="33.875" y1="46" x2="58.125" y2="46" gradientUnits="userSpaceOnUse">
<stop stop-color="#6200FF"/>
<stop offset="1" stop-color="#6200FF"/>
</linearGradient>
</defs>
</svg>
