<svg width="20" height="20" viewBox="0 0 20 20" fill="none" xmlns="http://www.w3.org/2000/svg">
<path fill-rule="evenodd" clip-rule="evenodd" d="M0.652222 19.3478C1.08778 19.7826 1.61111 20 2.22222 20H10.2778C10.037 19.6667 9.83333 19.3148 9.66667 18.9444C9.5 18.5741 9.35185 18.1852 9.22222 17.7778H4.44444V17.5C5.09259 16.963 5.78704 16.537 6.52778 16.2222C7.26852 15.9074 8.05556 15.7037 8.88889 15.6111C8.88889 15.2407 8.91667 14.8611 8.97222 14.4722C9.02778 14.0833 9.10185 13.713 9.19444 13.3611C7.82407 13.4537 6.55111 13.7778 5.37556 14.3333C4.19926 14.8889 3.14815 15.6111 2.22222 16.5V2.22222H17.7778V7.86111C18.1667 7.91667 18.5463 8 18.9167 8.11111C19.287 8.22222 19.6481 8.36111 20 8.52778V2.22222C20 1.61111 19.7826 1.08778 19.3478 0.652222C18.9122 0.217407 18.3889 0 17.7778 0H2.22222C1.61111 0 1.08778 0.217407 0.652222 0.652222C0.217407 1.08778 0 1.61111 0 2.22222V17.7778C0 18.3889 0.217407 18.9122 0.652222 19.3478ZM10.2778 11.1111H10C8.92593 11.1111 8.00926 10.7315 7.25 9.97222C6.49074 9.21296 6.11111 8.2963 6.11111 7.22222C6.11111 6.14815 6.49074 5.23148 7.25 4.47222C8.00926 3.71296 8.92593 3.33333 10 3.33333C11.0741 3.33333 11.9907 3.71296 12.75 4.47222C13.5093 5.23148 13.8889 6.14815 13.8889 7.22222C13.8889 7.42593 13.8752 7.62037 13.8478 7.80555C13.8196 7.99074 13.7778 8.17593 13.7222 8.36111C13.0185 8.63889 12.3752 9.0137 11.7922 9.48556C11.2085 9.95815 10.7037 10.5 10.2778 11.1111ZM8.82 8.40222C9.1437 8.72667 9.53704 8.88889 10 8.88889C10.463 8.88889 10.8563 8.72667 11.18 8.40222C11.5044 8.07852 11.6667 7.68518 11.6667 7.22222C11.6667 6.75926 11.5044 6.36593 11.18 6.04222C10.8563 5.71778 10.463 5.55556 10 5.55556C9.53704 5.55556 9.1437 5.71778 8.82 6.04222C8.49555 6.36593 8.33333 6.75926 8.33333 7.22222C8.33333 7.68518 8.49555 8.07852 8.82 8.40222ZM16.328 14.9426V19.7916H14.019V14.9426L12.1718 16.7899L10.5555 15.1735L15.1735 10.5555L19.7916 15.1735L18.1753 16.7899L16.328 14.9426Z" fill="#3B2B8C"/>
</svg>
