<svg width="17" height="20" viewBox="0 0 17 20" fill="none" xmlns="http://www.w3.org/2000/svg">
<g clip-path="url(#clip0_1181_50058)">
<path d="M11.9204 11.6289L8.53092 13.156L5.1427 11.6289L2.19531 18.1703L5.14143 17.0548L6.25686 20.001L8.53092 14.9523L10.805 20.001L11.9204 17.0548L14.8665 18.1703L11.9204 11.6289Z" fill="url(#paint0_linear_1181_50058)"/>
<path d="M16.6697 8.13953C16.6697 3.64419 13.0255 0 8.53016 0C4.03482 0 0.390625 3.64419 0.390625 8.13953C0.390625 12.6349 4.03482 16.2791 8.53016 16.2791C13.0255 16.2791 16.6697 12.6349 16.6697 8.13953Z" fill="#593939"/>
<path fill-rule="evenodd" clip-rule="evenodd" d="M3.31403 11.8969L3.14555 11.6246C3.16689 11.6087 3.18415 11.5909 3.19732 11.5712C3.21069 11.5518 3.21949 11.5308 3.22373 11.5082C3.22848 11.4856 3.22813 11.462 3.22267 11.4374C3.21753 11.4125 3.20698 11.3872 3.19105 11.3614C3.16318 11.3164 3.12863 11.285 3.08744 11.2673C3.04643 11.25 3.00051 11.2459 2.94966 11.255C2.89903 11.2646 2.84506 11.2871 2.78776 11.3226C2.72725 11.36 2.68152 11.3994 2.6506 11.4407C2.6202 11.4823 2.60425 11.5248 2.60277 11.5685C2.60161 11.6119 2.61447 11.6554 2.64136 11.6989C2.65669 11.7236 2.67349 11.7439 2.69175 11.7598C2.71034 11.7755 2.73006 11.7869 2.75094 11.7939C2.77181 11.8011 2.7934 11.804 2.81572 11.8026C2.83855 11.8014 2.86159 11.7958 2.88482 11.786L3.05137 12.0594C3.00753 12.0821 2.95761 12.0968 2.90161 12.1033C2.84593 12.1098 2.78819 12.1056 2.72839 12.091C2.66912 12.0764 2.61145 12.0487 2.55538 12.0077C2.49932 11.9668 2.44889 11.91 2.40408 11.8376C2.34791 11.7468 2.31701 11.6534 2.31136 11.5571C2.3059 11.4613 2.32804 11.369 2.3778 11.2804C2.42776 11.192 2.50745 11.1141 2.6169 11.0463C2.72698 10.9782 2.83284 10.9421 2.93445 10.938C3.03638 10.9337 3.12896 10.9557 3.21219 11.0039C3.29575 11.0518 3.36501 11.1203 3.41997 11.2091C3.45861 11.2716 3.48562 11.3343 3.50102 11.3973C3.51643 11.4603 3.51995 11.5218 3.51161 11.5817C3.5036 11.6414 3.48324 11.6982 3.45053 11.7517C3.41782 11.8054 3.37232 11.8537 3.31403 11.8969ZM3.36177 13.0562L4.14753 12.1991L4.76526 12.7654L4.59338 12.9528L4.20834 12.5999L4.0733 12.7472L4.42652 13.0711L4.25463 13.2585L3.9014 12.9347L3.76636 13.0821L4.14972 13.4334L3.97783 13.621L3.36177 13.0562ZM5.36257 13.1906L4.82586 14.2221L5.10589 14.3678L5.28305 14.0274L5.37997 14.0778L5.38391 14.5125L5.68813 14.6707L5.67876 14.1772C5.74563 14.1793 5.80659 14.1647 5.86161 14.1332C5.9209 14.0996 5.96976 14.0458 6.0082 13.972C6.04629 13.8987 6.06301 13.8277 6.05837 13.7587C6.05372 13.6897 6.02994 13.6264 5.98703 13.5686C5.9441 13.5108 5.88437 13.4621 5.80781 13.4222L5.36257 13.1906ZM5.39626 13.8098L5.49498 13.8612C5.52789 13.8782 5.55802 13.8887 5.58538 13.8927C5.61326 13.8967 5.63812 13.8927 5.65998 13.8811C5.68218 13.8696 5.70087 13.8492 5.71608 13.82C5.73145 13.7904 5.73755 13.7631 5.73441 13.7381C5.73177 13.7127 5.72096 13.6897 5.70201 13.6686C5.68355 13.6476 5.65788 13.6284 5.62497 13.6113L5.52625 13.5599L5.39626 13.8098ZM6.75572 14.0974L6.8088 13.8486L7.79716 14.0594L7.74411 14.3083L7.40204 14.2353L7.21248 15.1237L6.90819 15.0589L7.09776 14.1704L6.75572 14.0974ZM8.82231 15.2467L8.80581 14.0839L8.49018 14.0884L8.50668 15.2511L8.82231 15.2467ZM9.85015 15.1453L9.58466 14.0132L10.3807 13.8264L10.4387 14.0741L9.95007 14.1888L9.99571 14.3833L10.4358 14.2801L10.4938 14.5278L10.0538 14.631L10.1575 15.0732L9.85015 15.1453ZM11.8491 14.4682L11.3461 13.4198L11.0615 13.5563L11.5645 14.6047L11.8491 14.4682ZM12.8039 13.8997L12.0707 12.997L12.7213 12.4687L12.8817 12.6662L12.4762 12.9955L12.6021 13.1507L12.9741 12.8485L13.1345 13.0461L12.7625 13.3481L12.8885 13.5032L13.2923 13.1754L13.4526 13.3728L12.8039 13.8997ZM14.1852 12.6093L14.4438 12.2443C14.512 12.1479 14.5524 12.051 14.5648 11.9536C14.5769 11.856 14.5612 11.7627 14.5178 11.674C14.4742 11.5851 14.403 11.5056 14.3041 11.4356C14.2053 11.3656 14.1067 11.325 14.0083 11.3138C13.91 11.3021 13.8167 11.3186 13.7285 11.3633C13.6402 11.4074 13.5614 11.4782 13.4923 11.5758L13.2363 11.9372L14.1852 12.6093ZM14.2185 12.0986L14.149 12.1968L13.6374 11.8346L13.7018 11.7438C13.7368 11.6943 13.7739 11.6579 13.8131 11.6347C13.8525 11.6111 13.897 11.6037 13.9466 11.6123C13.9963 11.6207 14.0542 11.6483 14.1204 11.695C14.1864 11.7419 14.2318 11.7872 14.2563 11.8311C14.2812 11.8747 14.2893 11.9185 14.2809 11.9625C14.2725 12.0063 14.2518 12.0517 14.2185 12.0986Z" fill="url(#paint1_linear_1181_50058)"/>
<path fill-rule="evenodd" clip-rule="evenodd" d="M7.61323 2.30825L7.24307 2.34123L7.54756 1.04058L8.01643 0.998807L8.54608 2.22516L8.17587 2.25812L8.08133 2.02279L7.66469 2.0599L7.61323 2.30825ZM7.81795 1.3672L7.98097 1.77304L7.71934 1.79636L7.80807 1.36809L7.81795 1.3672ZM5.65421 2.83277L6.00628 2.7138L5.99799 2.46032L6.39426 2.3264L6.54143 2.53296L6.8935 2.41398L6.09072 1.3463L5.64477 1.49699L5.65421 2.83277ZM6.23807 2.1072L5.98428 1.75101L5.97489 1.75418L5.98919 2.19131L6.23807 2.1072ZM4.3398 2.46844C4.37558 2.47294 4.40602 2.49167 4.43113 2.52461L4.70833 2.34647C4.66311 2.27688 4.60657 2.22708 4.53869 2.19706C4.47093 2.16648 4.39636 2.15698 4.31495 2.16855C4.23355 2.18013 4.14977 2.2136 4.06363 2.26896C3.97921 2.3232 3.91351 2.38555 3.8665 2.45601C3.81985 2.52624 3.79452 2.59872 3.79051 2.67345C3.78663 2.7476 3.80663 2.81844 3.85051 2.88595C3.90373 2.96955 3.97297 3.01808 4.05819 3.03153C4.14352 3.04442 4.24002 3.03075 4.34769 2.99053L4.46872 2.94516C4.5139 2.92839 4.55136 2.91756 4.58111 2.91268C4.61064 2.90745 4.63445 2.90784 4.65256 2.91388C4.6708 2.91934 4.68534 2.93012 4.69618 2.94623C4.70699 2.96382 4.71136 2.98284 4.7093 3.00332C4.70723 3.02379 4.69825 3.04454 4.68232 3.06558C4.66638 3.08661 4.64295 3.10706 4.61204 3.12694C4.57522 3.1506 4.53976 3.16529 4.50563 3.17102C4.47186 3.17652 4.44055 3.17284 4.41168 3.15998C4.38279 3.14713 4.35699 3.12494 4.33427 3.09339L4.05915 3.27019C4.11686 3.35925 4.18307 3.42027 4.25778 3.45325C4.33259 3.48567 4.41321 3.49349 4.49963 3.47674C4.5864 3.45975 4.67615 3.42146 4.7689 3.36186C4.85922 3.30382 4.92836 3.24147 4.97633 3.17481C5.02465 3.10794 5.05055 3.03901 5.05404 2.96806C5.05752 2.8971 5.03689 2.82642 4.99214 2.75603C4.96568 2.71561 4.93497 2.68234 4.90001 2.6562C4.86541 2.62985 4.82592 2.61155 4.78152 2.6013C4.73692 2.59069 4.68702 2.58865 4.63182 2.59517C4.57662 2.60168 4.51547 2.61767 4.44837 2.64311L4.34878 2.6806C4.32007 2.69169 4.29439 2.69984 4.27173 2.70508C4.24908 2.71031 4.22929 2.71273 4.21234 2.71232C4.19518 2.71159 4.18057 2.70796 4.16854 2.70145C4.15663 2.69438 4.1469 2.68419 4.13933 2.67089C4.12964 2.65504 4.1254 2.63813 4.12662 2.62017C4.12784 2.6022 4.13558 2.58373 4.14988 2.56473C4.1643 2.54516 4.18644 2.52576 4.21633 2.50656C4.26322 2.47644 4.30439 2.46372 4.3398 2.46844ZM9.15843 0.992188L9.11883 1.26683L9.49644 1.32127L9.35503 2.30215L9.69099 2.35058L9.83242 1.3697L10.21 1.42415L10.2496 1.1495L9.15843 0.992188ZM10.6852 2.57281L11.1756 1.40295L11.4932 1.53608L11.3017 1.99306L11.7221 2.1693L11.9137 1.71231L12.2313 1.84545L11.7409 3.01532L11.4233 2.88219L11.6148 2.4252L11.1944 2.24897L11.0028 2.70595L10.6852 2.57281ZM12.6142 3.5808L13.3347 2.5368L13.0512 2.34118L12.3307 3.38518L12.6142 3.5808Z" fill="url(#paint2_linear_1181_50058)"/>
<path fill-rule="evenodd" clip-rule="evenodd" d="M1.77148 8.11221C1.77148 6.56709 2.28996 5.14308 3.16244 4.00465C3.21214 3.9398 3.30582 3.93074 3.3683 3.98337C3.42865 4.03418 3.43733 4.12375 3.3894 4.18641C2.55682 5.27503 2.06218 6.63585 2.06218 8.11221C2.06218 8.74383 2.15272 9.3543 2.32152 9.93133C2.34065 9.99674 2.3135 10.0671 2.25465 10.1015C2.17407 10.1484 2.0706 10.1089 2.04432 10.0194C1.86674 9.41454 1.77148 8.77449 1.77148 8.11221ZM14.8058 10.1015C14.8864 10.1484 14.9899 10.1089 15.0161 10.0194C15.1937 9.41454 15.2889 8.77449 15.2889 8.11221C15.2889 6.56709 14.7704 5.14308 13.898 4.00465C13.8483 3.9398 13.7546 3.93074 13.6922 3.98337C13.6317 4.03418 13.6231 4.12375 13.671 4.18641C14.5036 5.27503 14.9982 6.63585 14.9982 8.11221C14.9982 8.74383 14.9076 9.3543 14.7389 9.93133C14.7197 9.99674 14.747 10.0671 14.8058 10.1015Z" fill="url(#paint3_linear_1181_50058)"/>
<path d="M13.8385 8.14042C13.8385 5.20868 11.4618 2.83203 8.53007 2.83203C5.59833 2.83203 3.22168 5.20868 3.22168 8.14042C3.22168 11.0722 5.59833 13.4488 8.53007 13.4488C11.4618 13.4488 13.8385 11.0722 13.8385 8.14042Z" fill="#513131"/>
<path d="M13.8385 8.14042C13.8385 5.20868 11.4618 2.83203 8.53007 2.83203C5.59833 2.83203 3.22168 5.20868 3.22168 8.14042C3.22168 11.0722 5.59833 13.4488 8.53007 13.4488C11.4618 13.4488 13.8385 11.0722 13.8385 8.14042Z" fill="black" fill-opacity="0.4"/>
<path d="M8.12671 3.64049L7.19727 4.46055H8.53021V3.48828C8.38636 3.48782 8.24235 3.53855 8.12671 3.64049Z" fill="#FFE7E7"/>
<path d="M8.92947 3.63954C8.81508 3.53918 8.67324 3.48876 8.53125 3.48828V4.46054H9.86418L8.92947 3.63954Z" fill="#F4D4D4"/>
<path d="M5.28842 4.98478L5.09668 6.21841L6.11773 5.35028L5.50095 4.60547C5.39042 4.69876 5.3123 4.83149 5.28842 4.98478Z" fill="#FFE7E7"/>
<path d="M5.90101 4.46493C5.74972 4.46242 5.60898 4.51629 5.5 4.6085L6.11679 5.35331L7.13784 4.4852L5.90101 4.46493Z" fill="#F4D4D4"/>
<path d="M3.96647 7.86662L4.60202 8.93657L4.83345 7.60651L3.88866 7.4375C3.86308 7.58106 3.88741 7.73357 3.96647 7.86662Z" fill="#FFE7E7"/>
<path d="M4.10475 7.0635C3.98742 7.16025 3.91379 7.29312 3.88867 7.43465L4.83361 7.6035L5.06504 6.27344L4.10475 7.0635Z" fill="#F4D4D4"/>
<path d="M4.77996 10.9321L5.94564 11.3377L5.27925 10.168L4.44824 10.6541C4.5197 10.7807 4.63503 10.8817 4.77996 10.9321Z" fill="#FFE7E7"/>
<path d="M4.37833 10.2267C4.34965 10.3772 4.37755 10.527 4.44808 10.6519L5.27909 10.1658L4.6127 8.99609L4.37833 10.2267Z" fill="#F4D4D4"/>
<path d="M7.3494 12.7502L8.49958 12.3018L7.2471 11.8398L6.91895 12.7536C7.05396 12.8038 7.20648 12.806 7.3494 12.7502Z" fill="#FFE7E7"/>
<path d="M6.59429 12.4743C6.66777 12.6083 6.78418 12.7049 6.91749 12.7546L7.24564 11.8408L5.99316 11.3789L6.59429 12.4743Z" fill="#F4D4D4"/>
<path d="M10.4703 12.4716L11.0669 11.3789L9.81445 11.8408L10.1426 12.7545C10.2778 12.7051 10.396 12.6075 10.4703 12.4716Z" fill="#FFE7E7"/>
<path d="M9.71779 12.7494C9.85916 12.8043 10.0095 12.8024 10.1431 12.7536L9.81498 11.8398L8.5625 12.3018L9.71779 12.7494Z" fill="#F4D4D4"/>
<path d="M12.6828 10.2217L12.4466 8.99609L11.7803 10.1658L12.6113 10.6519C12.6835 10.5258 12.7122 10.3741 12.6828 10.2217Z" fill="#FFE7E7"/>
<path d="M12.2842 10.928C12.4271 10.8779 12.5411 10.7785 12.6127 10.6541L11.7816 10.168L11.1152 11.3377L12.2842 10.928Z" fill="#F4D4D4"/>
<path d="M12.9546 7.05846L11.9961 6.27344L12.2275 7.6035L13.1725 7.43465C13.1482 7.29109 13.0738 7.15616 12.9546 7.05846Z" fill="#FFE7E7"/>
<path d="M13.0947 7.86127C13.1725 7.7298 13.1968 7.57934 13.1725 7.4375L12.2275 7.60635L12.4591 8.93641L13.0947 7.86127Z" fill="#F4D4D4"/>
<path d="M11.155 4.46104L9.92285 4.48382L10.9439 5.35195L11.5607 4.60712C11.4508 4.51319 11.3083 4.45822 11.155 4.46104Z" fill="#E7C7C7"/>
<path d="M11.7693 4.98071C11.7454 4.82929 11.6686 4.69829 11.5601 4.60547L10.9434 5.35029L11.9644 6.21841L11.7693 4.98071Z" fill="#C4A4A4"/>
<path d="M8.52919 11.5969C10.3591 11.5969 11.8426 10.1202 11.8426 8.29845C11.8426 6.47677 10.3591 5 8.52919 5C6.69926 5 5.21582 6.47677 5.21582 8.29845C5.21582 10.1202 6.69926 11.5969 8.52919 11.5969Z" fill="url(#paint4_radial_1181_50058)"/>
<g filter="url(#filter0_i_1181_50058)">
<g style="mix-blend-mode:color-burn">
<path d="M8.51593 8.4015C8.35605 8.4015 8.214 8.37408 8.08979 8.31924C7.96624 8.26375 7.86913 8.18744 7.79844 8.09032C7.72774 7.99321 7.69207 7.88155 7.69141 7.75536H8.24637C8.24703 7.79434 8.25893 7.82936 8.28206 7.86041C8.30584 7.8908 8.33821 7.91458 8.37917 7.93177C8.42014 7.94894 8.46705 7.95753 8.51989 7.95753C8.57077 7.95753 8.6157 7.9486 8.65467 7.93077C8.69365 7.91227 8.72405 7.88684 8.74585 7.85446C8.76765 7.82209 8.77822 7.78509 8.77756 7.74346C8.77822 7.70251 8.76566 7.66617 8.73991 7.63445C8.71479 7.60274 8.67945 7.57796 8.63386 7.56013C8.58828 7.54229 8.53575 7.53337 8.47629 7.53337H8.27016V7.15282H8.47629C8.53113 7.15282 8.57936 7.14391 8.62098 7.12607C8.66327 7.10823 8.69596 7.08345 8.71909 7.05174C8.74287 7.02003 8.75444 6.9837 8.75378 6.94273C8.75444 6.90309 8.74486 6.86807 8.72503 6.83769C8.70522 6.80729 8.67746 6.78351 8.64179 6.76632C8.60678 6.74915 8.56614 6.74056 8.51989 6.74056C8.46968 6.74056 8.42476 6.74948 8.38512 6.76732C8.34614 6.78516 8.31542 6.80993 8.29295 6.84165C8.27049 6.87336 8.25893 6.9097 8.25827 6.95066H7.73105C7.73171 6.82645 7.76573 6.71678 7.83313 6.62164C7.90117 6.5265 7.99432 6.45185 8.11259 6.39767C8.23085 6.3435 8.36662 6.31641 8.51989 6.31641C8.66987 6.31641 8.80234 6.34185 8.91729 6.39272C9.03291 6.44359 9.12309 6.51362 9.18784 6.60281C9.25324 6.69134 9.28562 6.79275 9.28496 6.90706C9.28628 7.02069 9.2473 7.11385 9.16802 7.18652C9.08939 7.2592 8.98964 7.30214 8.86873 7.31535V7.33121C9.03258 7.34905 9.1558 7.39925 9.23838 7.48184C9.32096 7.56377 9.36159 7.66684 9.36028 7.79103C9.36094 7.90996 9.32525 8.01534 9.25324 8.10717C9.18189 8.19901 9.08246 8.27102 8.95495 8.32321C8.8281 8.37541 8.68177 8.4015 8.51593 8.4015Z" fill="black" fill-opacity="0.24"/>
</g>
<g style="mix-blend-mode:darken">
<path d="M8.51593 8.4015C8.35605 8.4015 8.214 8.37408 8.08979 8.31924C7.96624 8.26375 7.86913 8.18744 7.79844 8.09032C7.72774 7.99321 7.69207 7.88155 7.69141 7.75536H8.24637C8.24703 7.79434 8.25893 7.82936 8.28206 7.86041C8.30584 7.8908 8.33821 7.91458 8.37917 7.93177C8.42014 7.94894 8.46705 7.95753 8.51989 7.95753C8.57077 7.95753 8.6157 7.9486 8.65467 7.93077C8.69365 7.91227 8.72405 7.88684 8.74585 7.85446C8.76765 7.82209 8.77822 7.78509 8.77756 7.74346C8.77822 7.70251 8.76566 7.66617 8.73991 7.63445C8.71479 7.60274 8.67945 7.57796 8.63386 7.56013C8.58828 7.54229 8.53575 7.53337 8.47629 7.53337H8.27016V7.15282H8.47629C8.53113 7.15282 8.57936 7.14391 8.62098 7.12607C8.66327 7.10823 8.69596 7.08345 8.71909 7.05174C8.74287 7.02003 8.75444 6.9837 8.75378 6.94273C8.75444 6.90309 8.74486 6.86807 8.72503 6.83769C8.70522 6.80729 8.67746 6.78351 8.64179 6.76632C8.60678 6.74915 8.56614 6.74056 8.51989 6.74056C8.46968 6.74056 8.42476 6.74948 8.38512 6.76732C8.34614 6.78516 8.31542 6.80993 8.29295 6.84165C8.27049 6.87336 8.25893 6.9097 8.25827 6.95066H7.73105C7.73171 6.82645 7.76573 6.71678 7.83313 6.62164C7.90117 6.5265 7.99432 6.45185 8.11259 6.39767C8.23085 6.3435 8.36662 6.31641 8.51989 6.31641C8.66987 6.31641 8.80234 6.34185 8.91729 6.39272C9.03291 6.44359 9.12309 6.51362 9.18784 6.60281C9.25324 6.69134 9.28562 6.79275 9.28496 6.90706C9.28628 7.02069 9.2473 7.11385 9.16802 7.18652C9.08939 7.2592 8.98964 7.30214 8.86873 7.31535V7.33121C9.03258 7.34905 9.1558 7.39925 9.23838 7.48184C9.32096 7.56377 9.36159 7.66684 9.36028 7.79103C9.36094 7.90996 9.32525 8.01534 9.25324 8.10717C9.18189 8.19901 9.08246 8.27102 8.95495 8.32321C8.8281 8.37541 8.68177 8.4015 8.51593 8.4015Z" fill="#755555"/>
</g>
</g>
<g filter="url(#filter1_i_1181_50058)">
<g style="mix-blend-mode:darken">
<path d="M5.76953 10.0765V9.10315H6.19159C6.26573 9.10315 6.32799 9.11313 6.37837 9.1331C6.42907 9.15306 6.46725 9.18126 6.49292 9.21769C6.5189 9.25413 6.53189 9.29707 6.53189 9.34649C6.53189 9.38231 6.52397 9.41494 6.50813 9.44441C6.4926 9.47388 6.47073 9.49859 6.44254 9.51856C6.41434 9.5382 6.38138 9.55183 6.34367 9.55942V9.56894C6.3855 9.57052 6.42352 9.58113 6.45775 9.60078C6.49197 9.62011 6.51922 9.64688 6.53949 9.68109C6.55977 9.715 6.56991 9.75493 6.56991 9.80087C6.56991 9.85411 6.55597 9.90147 6.52808 9.94299C6.50052 9.98449 6.46123 10.0171 6.41021 10.0409C6.3592 10.0647 6.29837 10.0765 6.22771 10.0765H5.76953ZM6.03379 9.86552H6.15737C6.20172 9.86552 6.23499 9.85727 6.25718 9.8408C6.27935 9.824 6.29045 9.79929 6.29045 9.76665C6.29045 9.74383 6.28522 9.7245 6.27476 9.70867C6.26431 9.69283 6.24942 9.68078 6.23009 9.67254C6.21107 9.66431 6.18811 9.66018 6.16117 9.66018H6.03379V9.86552ZM6.03379 9.49669H6.14215C6.16529 9.49669 6.18572 9.49305 6.20346 9.48576C6.22121 9.47847 6.23499 9.46801 6.24482 9.45439C6.25496 9.44045 6.26002 9.4235 6.26002 9.40353C6.26002 9.37343 6.24925 9.35046 6.22771 9.33462C6.20616 9.31845 6.17892 9.31038 6.14596 9.31038H6.03379V9.49669ZM6.66354 10.0765V9.10315H7.0837C7.15594 9.10315 7.21916 9.1163 7.27334 9.1426C7.32752 9.1689 7.36966 9.20676 7.39976 9.2562C7.42987 9.30563 7.44491 9.36488 7.44491 9.43395C7.44491 9.50366 7.42939 9.56243 7.39834 9.61028C7.3676 9.65813 7.32435 9.69424 7.26859 9.71865C7.21313 9.74304 7.14833 9.75524 7.0742 9.75524H6.82325V9.54992H7.02096C7.05201 9.54992 7.07847 9.54612 7.10033 9.53851C7.12251 9.53059 7.13947 9.51808 7.15119 9.50097C7.16322 9.48386 7.16924 9.46152 7.16924 9.43395C7.16924 9.40606 7.16322 9.38341 7.15119 9.36599C7.13947 9.34825 7.12251 9.33525 7.10033 9.32701C7.07847 9.31845 7.05201 9.31418 7.02096 9.31418H6.92781V10.0765H6.66354ZM7.23389 9.62977L7.47723 10.0765H7.19016L6.95251 9.62977H7.23389ZM8.50052 9.58985C8.50052 9.69822 8.47945 9.78963 8.4373 9.86409C8.39517 9.93822 8.3383 9.99447 8.26668 10.0328C8.19508 10.0708 8.11523 10.0898 8.02714 10.0898C7.93841 10.0898 7.85826 10.0707 7.78664 10.0323C7.71535 9.99368 7.65863 9.93728 7.6165 9.86313C7.57467 9.78867 7.55376 9.69758 7.55376 9.58985C7.55376 9.48148 7.57467 9.39023 7.6165 9.31608C7.65863 9.24162 7.71535 9.18537 7.78664 9.14735C7.85826 9.10902 7.93841 9.08984 8.02714 9.08984C8.11523 9.08984 8.19508 9.10902 8.26668 9.14735C8.3383 9.18537 8.39517 9.24162 8.4373 9.31608C8.47945 9.39023 8.50052 9.48148 8.50052 9.58985ZM8.22866 9.58985C8.22866 9.53154 8.2209 9.48243 8.20537 9.4425C8.19016 9.40226 8.1675 9.37185 8.1374 9.35126C8.10762 9.33034 8.07086 9.31988 8.02714 9.31988C7.98341 9.31988 7.9465 9.33034 7.9164 9.35126C7.88661 9.37185 7.86395 9.40226 7.84843 9.4425C7.83323 9.48243 7.82562 9.53154 7.82562 9.58985C7.82562 9.64815 7.83323 9.69742 7.84843 9.73765C7.86395 9.77758 7.88661 9.808 7.9164 9.82891C7.9465 9.84951 7.98341 9.85981 8.02714 9.85981C8.07086 9.85981 8.10762 9.84951 8.1374 9.82891C8.1675 9.808 8.19016 9.77758 8.20537 9.73765C8.2209 9.69742 8.22866 9.64815 8.22866 9.58985ZM9.465 9.10315V10.0765H9.24446L8.89275 9.56513H8.88705V10.0765H8.62279V9.10315H8.84712L9.19313 9.61266H9.20074V9.10315H9.465ZM9.5938 10.0765V9.93015L10.0539 9.31608H9.5957V9.10315H10.3904V9.24954L9.93031 9.86361H10.3885V10.0765H9.5938ZM10.5193 10.0765V9.10315H11.2208V9.31608H10.7836V9.48338H11.1847V9.69631H10.7836V9.86361H11.2189V10.0765H10.5193Z" fill="#755555"/>
</g>
</g>
<path d="M8.53138 4.67188C6.57297 4.67188 4.98535 6.28042 4.98535 8.26483C4.98535 10.2492 6.57297 11.8579 8.53138 11.8579C10.4898 11.8579 12.0774 10.2492 12.0774 8.26483C12.0774 6.28042 10.4898 4.67188 8.53138 4.67188ZM8.53138 11.563C6.73371 11.563 5.27647 10.0864 5.27647 8.26483C5.27647 6.44329 6.73371 4.96669 8.53138 4.96669C10.329 4.96669 11.7863 6.44329 11.7863 8.26483C11.7863 10.0864 10.329 11.563 8.53138 11.563Z" fill="url(#paint5_linear_1181_50058)"/>
<path d="M8.53056 4.21484C6.32228 4.21484 4.53223 6.02869 4.53223 8.2663C4.53223 10.5039 6.32228 12.3177 8.53056 12.3177C10.7388 12.3177 12.5289 10.5039 12.5289 8.2663C12.5289 6.02869 10.7388 4.21484 8.53056 4.21484ZM8.53056 11.8577C6.5731 11.8577 4.98625 10.2498 4.98625 8.2663C4.98625 6.28282 6.5731 4.67506 8.53056 4.67506C10.488 4.67506 12.0749 6.28298 12.0749 8.26646C12.0749 10.2499 10.488 11.8577 8.53056 11.8577Z" fill="url(#paint6_linear_1181_50058)"/>
</g>
<defs>
<filter id="filter0_i_1181_50058" x="7.69141" y="6.31641" width="1.66895" height="2.21094" filterUnits="userSpaceOnUse" color-interpolation-filters="sRGB">
<feFlood flood-opacity="0" result="BackgroundImageFix"/>
<feBlend mode="normal" in="SourceGraphic" in2="BackgroundImageFix" result="shape"/>
<feColorMatrix in="SourceAlpha" type="matrix" values="0 0 0 0 0 0 0 0 0 0 0 0 0 0 0 0 0 0 127 0" result="hardAlpha"/>
<feOffset dy="0.125"/>
<feGaussianBlur stdDeviation="0.125"/>
<feComposite in2="hardAlpha" operator="arithmetic" k2="-1" k3="1"/>
<feColorMatrix type="matrix" values="0 0 0 0 0 0 0 0 0 0 0 0 0 0 0 0 0 0 0.24 0"/>
<feBlend mode="darken" in2="shape" result="effect1_innerShadow_1181_50058"/>
</filter>
<filter id="filter1_i_1181_50058" x="5.76953" y="9.08984" width="5.45117" height="1.125" filterUnits="userSpaceOnUse" color-interpolation-filters="sRGB">
<feFlood flood-opacity="0" result="BackgroundImageFix"/>
<feBlend mode="normal" in="SourceGraphic" in2="BackgroundImageFix" result="shape"/>
<feColorMatrix in="SourceAlpha" type="matrix" values="0 0 0 0 0 0 0 0 0 0 0 0 0 0 0 0 0 0 127 0" result="hardAlpha"/>
<feOffset dy="0.125"/>
<feGaussianBlur stdDeviation="0.125"/>
<feComposite in2="hardAlpha" operator="arithmetic" k2="-1" k3="1"/>
<feColorMatrix type="matrix" values="0 0 0 0 0 0 0 0 0 0 0 0 0 0 0 0 0 0 0.24 0"/>
<feBlend mode="darken" in2="shape" result="effect1_innerShadow_1181_50058"/>
</filter>
<linearGradient id="paint0_linear_1181_50058" x1="2.19531" y1="11.6289" x2="14.9323" y2="11.7302" gradientUnits="userSpaceOnUse">
<stop stop-color="#D6AF9A"/>
<stop offset="0.491554" stop-color="#FFF7EC"/>
<stop offset="1" stop-color="#E6B19B"/>
</linearGradient>
<linearGradient id="paint1_linear_1181_50058" x1="2.31054" y1="10.9375" x2="14.6304" y2="11.1213" gradientUnits="userSpaceOnUse">
<stop stop-color="#D6AF9A"/>
<stop offset="0.491554" stop-color="#F6D5A5"/>
<stop offset="1" stop-color="#E6B19B"/>
</linearGradient>
<linearGradient id="paint2_linear_1181_50058" x1="3.79005" y1="0.992188" x2="13.3812" y2="1.17789" gradientUnits="userSpaceOnUse">
<stop stop-color="#D6AF9A"/>
<stop offset="0.491554" stop-color="#F6D5A5"/>
<stop offset="1" stop-color="#E6B19B"/>
</linearGradient>
<linearGradient id="paint3_linear_1181_50058" x1="1.77148" y1="3.94921" x2="15.3581" y2="4.10547" gradientUnits="userSpaceOnUse">
<stop stop-color="#D6AF9A"/>
<stop offset="0.491554" stop-color="#F6D5A5"/>
<stop offset="1" stop-color="#E6B19B"/>
</linearGradient>
<radialGradient id="paint4_radial_1181_50058" cx="0" cy="0" r="1" gradientUnits="userSpaceOnUse" gradientTransform="translate(8.52922 8.2984) scale(3.31337 3.29845)">
<stop offset="0.8428" stop-color="#CBABAB"/>
<stop offset="1" stop-color="#B79797"/>
</radialGradient>
<linearGradient id="paint5_linear_1181_50058" x1="8.53139" y1="4.66135" x2="8.53139" y2="11.8475" gradientUnits="userSpaceOnUse">
<stop stop-color="#AF8F8F"/>
<stop offset="0.8201" stop-color="#C7ACAC"/>
<stop offset="1" stop-color="#DBBDBD"/>
</linearGradient>
<linearGradient id="paint6_linear_1181_50058" x1="8.53059" y1="4.20297" x2="8.53059" y2="12.306" gradientUnits="userSpaceOnUse">
<stop stop-color="#F2D2D2"/>
<stop offset="0.1799" stop-color="#FFE4E4"/>
<stop offset="1" stop-color="#AF8F8F"/>
</linearGradient>
<clipPath id="clip0_1181_50058">
<rect width="16.3953" height="20" fill="white" transform="translate(0.333008)"/>
</clipPath>
</defs>
</svg>
