<svg width="49" height="57" viewBox="0 0 49 57" fill="none" xmlns="http://www.w3.org/2000/svg">
<g filter="url(#filter0_d_1204_51736)">
<path d="M32.0011 27.9238L24.1452 31.4361L16.2922 27.9238L9.46094 42.969L16.2892 40.4035L18.8745 47.1796L24.1452 35.5676L29.4158 47.1796L32.0011 40.4035L38.8293 42.969L32.0011 27.9238Z" fill="url(#paint0_linear_1204_51736)"/>
<path d="M43.0103 19.9006C43.0103 9.56133 34.564 1.17969 24.145 1.17969C13.726 1.17969 5.27979 9.56133 5.27979 19.9006C5.27979 30.2399 13.726 38.6215 24.145 38.6215C34.564 38.6215 43.0103 30.2399 43.0103 19.9006Z" fill="#593939"/>
<path fill-rule="evenodd" clip-rule="evenodd" d="M12.0543 28.5464L11.6638 27.9201C11.7133 27.8837 11.7533 27.8428 11.7838 27.7975C11.8148 27.7528 11.8352 27.7044 11.845 27.6524C11.856 27.6006 11.8552 27.5462 11.8426 27.4896C11.8307 27.4324 11.8062 27.3741 11.7693 27.3149C11.7047 27.2113 11.6246 27.1391 11.5291 27.0984C11.4341 27.0585 11.3277 27.0491 11.2098 27.0702C11.0925 27.0921 10.9674 27.1439 10.8346 27.2255C10.6943 27.3116 10.5883 27.4022 10.5167 27.4973C10.4462 27.5929 10.4092 27.6907 10.4058 27.7911C10.4031 27.8911 10.4329 27.991 10.4952 28.091C10.5308 28.148 10.5697 28.1945 10.612 28.2311C10.6551 28.2672 10.7008 28.2934 10.7492 28.3095C10.7976 28.3261 10.8476 28.3328 10.8994 28.3295C10.9523 28.3269 11.0057 28.314 11.0595 28.2913L11.4455 28.9203C11.3439 28.9725 11.2282 29.0062 11.0984 29.0211C10.9694 29.0361 10.8356 29.0265 10.697 28.9928C10.5596 28.9594 10.4259 28.8957 10.296 28.8013C10.166 28.7072 10.0492 28.5767 9.94529 28.41C9.81512 28.2012 9.74349 27.9864 9.73039 27.765C9.71775 27.5446 9.76906 27.3323 9.88438 27.1285C10.0002 26.9253 10.1849 26.7459 10.4386 26.5901C10.6937 26.4335 10.9391 26.3504 11.1746 26.3411C11.4108 26.3311 11.6254 26.3817 11.8183 26.4925C12.012 26.6028 12.1725 26.7603 12.2999 26.9645C12.3894 27.1083 12.452 27.2526 12.4877 27.3975C12.5234 27.5424 12.5316 27.6838 12.5123 27.8215C12.4937 27.9589 12.4465 28.0894 12.3707 28.2124C12.2949 28.336 12.1894 28.4472 12.0543 28.5464ZM12.165 31.2128L13.9861 29.2415L15.4179 30.544L15.0195 30.9751L14.1271 30.1634L13.8141 30.5022L14.6328 31.2471L14.2344 31.6782L13.4157 30.9334L13.1027 31.2725L13.9912 32.0804L13.5928 32.5118L12.165 31.2128ZM16.8023 31.522L15.5583 33.8945L16.2074 34.2296L16.618 33.4465L16.8426 33.5626L16.8518 34.5623L17.5569 34.9263L17.5351 33.7912C17.6901 33.7961 17.8314 33.7624 17.9589 33.6899C18.0963 33.6126 18.2096 33.489 18.2987 33.3192C18.387 33.1507 18.4257 32.9873 18.415 32.8287C18.4042 32.6699 18.3491 32.5244 18.2496 32.3915C18.1501 32.2585 18.0117 32.1465 17.8342 32.0547L16.8023 31.522ZM16.8804 32.9461L17.1092 33.0643C17.1855 33.1034 17.2553 33.1277 17.3187 33.1368C17.3833 33.1459 17.4409 33.1368 17.4916 33.1101C17.5431 33.0836 17.5864 33.0368 17.6216 32.9697C17.6572 32.9015 17.6714 32.8386 17.6641 32.7811C17.658 32.7228 17.6329 32.6699 17.589 32.6215C17.5462 32.573 17.4867 32.5289 17.4105 32.4896L17.1817 32.3714L16.8804 32.9461ZM20.0312 33.6075L20.1542 33.0355L22.445 33.5203L22.3221 34.0926L21.5292 33.9247L21.0899 35.9682L20.3846 35.819L20.824 33.7755L20.0312 33.6075ZM24.821 36.2509L24.7828 33.5765L24.0512 33.5869L24.0895 36.2611L24.821 36.2509ZM27.2033 36.0177L26.5879 33.4139L28.4329 32.9844L28.5674 33.554L27.4349 33.8177L27.5406 34.2651L28.5606 34.0279L28.6951 34.5976L27.6752 34.8348L27.9156 35.8519L27.2033 36.0177ZM31.8362 34.4604L30.6706 32.0491L30.0108 32.3631L31.1766 34.7744L31.8362 34.4604ZM34.0492 33.1529L32.35 31.0767L33.8579 29.8617L34.2295 30.3158L33.2898 31.0732L33.5816 31.4303L34.4438 30.7352L34.8154 31.1896L33.9533 31.8841L34.2454 32.2409L35.1811 31.487L35.5528 31.9411L34.0492 33.1529ZM37.2507 30.1851L37.85 29.3456C38.0082 29.1238 38.1018 28.9008 38.1306 28.677C38.1586 28.4523 38.1222 28.2378 38.0217 28.0338C37.9207 27.8294 37.7554 27.6465 37.5264 27.4856C37.2973 27.3244 37.0688 27.2312 36.8407 27.2054C36.613 27.1785 36.3966 27.2163 36.1923 27.3191C35.9875 27.4205 35.805 27.5835 35.6447 27.808L35.0515 28.6392L37.2507 30.1851ZM37.328 29.0105L37.1668 29.2362L35.981 28.4031L36.1303 28.1942C36.2115 28.0806 36.2974 27.9968 36.3883 27.9434C36.4796 27.8892 36.5828 27.872 36.6976 27.8919C36.813 27.9111 36.9472 27.9746 37.1006 28.0822C37.2536 28.1899 37.3587 28.2942 37.4156 28.3951C37.4733 28.4954 37.4921 28.5962 37.4725 28.6973C37.4531 28.7981 37.4051 28.9024 37.328 29.0105Z" fill="url(#paint1_linear_1204_51736)"/>
<path fill-rule="evenodd" clip-rule="evenodd" d="M22.0193 6.48788L21.1614 6.56373L21.8671 3.57224L22.9538 3.47616L24.1814 6.29677L23.3234 6.37259L23.1043 5.83131L22.1386 5.91668L22.0193 6.48788ZM22.4938 4.32347L22.8716 5.2569L22.2653 5.31052L22.4709 4.32551L22.4938 4.32347ZM17.4789 7.69429L18.2949 7.42064L18.2756 6.83764L19.1941 6.52963L19.5352 7.00471L20.3512 6.73107L18.4906 4.27539L17.457 4.62199L17.4789 7.69429ZM18.8321 6.02548L18.2439 5.20622L18.2221 5.21352L18.2552 6.21892L18.8321 6.02548ZM14.4324 6.85631C14.5153 6.86666 14.5859 6.90974 14.6441 6.98551L15.2865 6.57579C15.1817 6.41573 15.0507 6.30118 14.8934 6.23215C14.7363 6.16182 14.5635 6.13997 14.3748 6.16658C14.1861 6.19321 13.992 6.27018 13.7923 6.39751C13.5967 6.52227 13.4444 6.66568 13.3354 6.82772C13.2273 6.98926 13.1686 7.15595 13.1593 7.32784C13.1503 7.49838 13.1967 7.66131 13.2984 7.81659C13.4217 8.00888 13.5822 8.12048 13.7797 8.15142C13.9775 8.18108 14.2011 8.14963 14.4507 8.05712L14.7312 7.95277C14.8359 7.9142 14.9227 7.8893 14.9917 7.87807C15.0601 7.86604 15.1153 7.86695 15.1573 7.88083C15.1996 7.8934 15.2333 7.91819 15.2584 7.95523C15.2834 7.99569 15.2936 8.03945 15.2888 8.08654C15.284 8.13361 15.2632 8.18135 15.2263 8.22973C15.1893 8.27811 15.135 8.32515 15.0634 8.37086C14.978 8.42528 14.8958 8.45906 14.8167 8.47225C14.7385 8.4849 14.6659 8.47645 14.599 8.44687C14.532 8.41731 14.4722 8.36626 14.4196 8.2937L13.7819 8.70035C13.9157 8.90518 14.0691 9.04554 14.2423 9.12138C14.4157 9.19594 14.6025 9.21394 14.8028 9.17541C15.0039 9.13633 15.212 9.04826 15.4269 8.91117C15.6363 8.77769 15.7965 8.63429 15.9077 8.48097C16.0197 8.32716 16.0797 8.16862 16.0878 8.00545C16.0959 7.84223 16.0481 7.67968 15.9444 7.51777C15.883 7.42481 15.8118 7.3483 15.7308 7.28817C15.6506 7.22757 15.5591 7.18548 15.4562 7.16189C15.3528 7.1375 15.2372 7.13279 15.1092 7.14779C14.9813 7.16277 14.8395 7.19955 14.684 7.25806L14.4532 7.34428C14.3867 7.3698 14.3271 7.38855 14.2746 7.40058C14.2221 7.41262 14.1763 7.41818 14.137 7.41724C14.0972 7.41556 14.0634 7.40721 14.0355 7.39224C14.0079 7.37598 13.9853 7.35255 13.9678 7.32195C13.9453 7.2855 13.9355 7.24661 13.9383 7.2053C13.9411 7.16398 13.9591 7.12148 13.9922 7.07778C14.0256 7.03277 14.077 6.98816 14.1462 6.944C14.2549 6.87471 14.3503 6.84545 14.4324 6.85631ZM25.6007 3.46094L25.5089 4.09262L26.3841 4.21784L26.0563 6.47384L26.835 6.58523L27.1628 4.32923L28.038 4.45444L28.1298 3.82277L25.6007 3.46094ZM29.1393 7.09637L30.2759 4.40569L31.012 4.71188L30.5682 5.76295L31.5426 6.16829L31.9866 5.11722L32.7228 5.42344L31.586 8.11414L30.8499 7.80795L31.294 6.75688L30.3195 6.35154L29.8755 7.40259L29.1393 7.09637ZM33.6103 9.41474L35.2801 7.01354L34.6231 6.56362L32.9532 8.96482L33.6103 9.41474Z" fill="url(#paint2_linear_1204_51736)"/>
<path fill-rule="evenodd" clip-rule="evenodd" d="M8.47998 19.8405C8.47998 16.2867 9.68167 13.0115 11.7038 10.3931C11.819 10.244 12.0362 10.2231 12.181 10.3442C12.3208 10.461 12.341 10.667 12.2299 10.8112C10.3002 13.315 9.15374 16.4449 9.15374 19.8405C9.15374 21.2932 9.36358 22.6973 9.75481 24.0245C9.79915 24.1749 9.73622 24.3367 9.59982 24.4158C9.41306 24.5237 9.17325 24.433 9.11234 24.2271C8.70076 22.8359 8.47998 21.3638 8.47998 19.8405ZM38.69 24.4158C38.8767 24.5237 39.1166 24.433 39.1775 24.2271C39.589 22.8359 39.8098 21.3638 39.8098 19.8405C39.8098 16.2867 38.6081 13.0115 36.586 10.3931C36.4709 10.244 36.2537 10.2231 36.1089 10.3442C35.9688 10.461 35.9489 10.667 36.0599 10.8112C37.9895 13.315 39.136 16.4449 39.136 19.8405C39.136 21.2932 38.9261 22.6973 38.535 24.0245C38.4905 24.1749 38.5536 24.3367 38.69 24.4158Z" fill="url(#paint3_linear_1204_51736)"/>
<path d="M36.4486 19.9007C36.4486 13.1577 30.9402 7.69141 24.1452 7.69141C17.3502 7.69141 11.8418 13.1577 11.8418 19.9007C11.8418 26.6437 17.3502 32.11 24.1452 32.11C30.9402 32.11 36.4486 26.6437 36.4486 19.9007Z" fill="#513131"/>
<path d="M36.4486 19.9007C36.4486 13.1577 30.9402 7.69141 24.1452 7.69141C17.3502 7.69141 11.8418 13.1577 11.8418 19.9007C11.8418 26.6437 17.3502 32.11 24.1452 32.11C30.9402 32.11 36.4486 26.6437 36.4486 19.9007Z" fill="black" fill-opacity="0.4"/>
<path d="M23.2103 9.55321L21.0562 11.4393H24.1456V9.20313C23.8121 9.20206 23.4784 9.31875 23.2103 9.55321Z" fill="#FFE7E7"/>
<path d="M25.0704 9.55101C24.8053 9.32018 24.4766 9.20422 24.1475 9.20312V11.4393H27.2368L25.0704 9.55101Z" fill="#F4D4D4"/>
<path d="M16.6319 12.6459L16.1875 15.4832L18.554 13.4865L17.1245 11.7734C16.8683 11.988 16.6872 12.2933 16.6319 12.6459Z" fill="#FFE7E7"/>
<path d="M18.053 11.4436C17.7023 11.4378 17.3761 11.5617 17.1235 11.7738L18.5531 13.4868L20.9196 11.4902L18.053 11.4436Z" fill="#F4D4D4"/>
<path d="M13.5682 19.2682L15.0412 21.7291L15.5776 18.67L13.3878 18.2812C13.3285 18.6114 13.385 18.9622 13.5682 19.2682Z" fill="#FFE7E7"/>
<path d="M13.89 17.4265C13.618 17.649 13.4474 17.9547 13.3892 18.2802L15.5793 18.6685L16.1157 15.6094L13.89 17.4265Z" fill="#F4D4D4"/>
<path d="M15.4549 26.32L18.1566 27.2528L16.6121 24.5625L14.686 25.6806C14.8516 25.9718 15.119 26.2041 15.4549 26.32Z" fill="#FFE7E7"/>
<path d="M14.5239 24.7035C14.4574 25.0496 14.5221 25.3942 14.6855 25.6814L16.6116 24.5634L15.0671 21.873L14.5239 24.7035Z" fill="#F4D4D4"/>
<path d="M21.4088 30.504L24.0746 29.4727L21.1717 28.4102L20.4111 30.5117C20.7241 30.6272 21.0776 30.6323 21.4088 30.504Z" fill="#FFE7E7"/>
<path d="M19.6603 29.8652C19.8306 30.1733 20.1004 30.3955 20.4094 30.5097L21.17 28.4082L18.2671 27.3457L19.6603 29.8652Z" fill="#F4D4D4"/>
<path d="M28.6426 29.8609L30.0255 27.3477L27.1226 28.41L27.8831 30.5115C28.1964 30.3979 28.4705 30.1735 28.6426 29.8609Z" fill="#FFE7E7"/>
<path d="M26.8974 30.5021C27.225 30.6283 27.5735 30.624 27.8832 30.5117L27.1226 28.4102L24.2197 29.4727L26.8974 30.5021Z" fill="#F4D4D4"/>
<path d="M33.7714 24.6919L33.2241 21.873L31.6797 24.5634L33.6057 25.6814C33.7731 25.3914 33.8396 25.0424 33.7714 24.6919Z" fill="#FFE7E7"/>
<path d="M32.846 26.3106C33.1772 26.1954 33.4416 25.9667 33.6073 25.6806L31.6812 24.5625L30.1367 27.2528L32.846 26.3106Z" fill="#F4D4D4"/>
<path d="M34.3997 17.4149L32.1782 15.6094L32.7145 18.6685L34.9048 18.2802C34.8485 17.95 34.676 17.6396 34.3997 17.4149Z" fill="#FFE7E7"/>
<path d="M34.7243 19.2559C34.9046 18.9535 34.9609 18.6075 34.9046 18.2812L32.7144 18.6696L33.2509 21.7287L34.7243 19.2559Z" fill="#F4D4D4"/>
<path d="M30.2289 11.4377L27.373 11.4901L29.7396 13.4868L31.1691 11.7737C30.9144 11.5577 30.5842 11.4312 30.2289 11.4377Z" fill="#E7C7C7"/>
<path d="M31.653 12.6365C31.5976 12.2882 31.4198 11.9869 31.1683 11.7734L29.7388 13.4865L32.1052 15.4832L31.653 12.6365Z" fill="#C4A4A4"/>
<path d="M24.1439 27.8526C28.3851 27.8526 31.8234 24.456 31.8234 20.2661C31.8234 16.0763 28.3851 12.6797 24.1439 12.6797C19.9026 12.6797 16.4644 16.0763 16.4644 20.2661C16.4644 24.456 19.9026 27.8526 24.1439 27.8526Z" fill="url(#paint4_radial_1204_51736)"/>
<g filter="url(#filter1_i_1204_51736)">
<g style="mix-blend-mode:color-burn">
<path d="M24.1127 20.4988C23.7421 20.4988 23.4129 20.4358 23.125 20.3096C22.8387 20.182 22.6136 20.0065 22.4497 19.7831C22.2859 19.5598 22.2032 19.3029 22.2017 19.0127H23.4879C23.4895 19.1024 23.517 19.1829 23.5706 19.2543C23.6257 19.3242 23.7008 19.3789 23.7957 19.4185C23.8907 19.458 23.9994 19.4777 24.1219 19.4777C24.2398 19.4777 24.3439 19.4572 24.4343 19.4162C24.5246 19.3736 24.595 19.3151 24.6456 19.2407C24.6961 19.1662 24.7206 19.0811 24.7191 18.9854C24.7206 18.8912 24.6915 18.8076 24.6318 18.7346C24.5736 18.6617 24.4917 18.6047 24.386 18.5637C24.2804 18.5227 24.1586 18.5021 24.0208 18.5021H23.5431V17.6269H24.0208C24.1479 17.6269 24.2597 17.6064 24.3562 17.5653C24.4542 17.5243 24.53 17.4673 24.5836 17.3944C24.6387 17.3215 24.6655 17.2379 24.664 17.1437C24.6655 17.0525 24.6433 16.9719 24.5973 16.9021C24.5514 16.8322 24.4871 16.7775 24.4044 16.7379C24.3232 16.6984 24.2291 16.6787 24.1219 16.6787C24.0055 16.6787 23.9014 16.6992 23.8095 16.7402C23.7192 16.7813 23.648 16.8382 23.5959 16.9112C23.5438 16.9841 23.517 17.0677 23.5155 17.1619H22.2935C22.2951 16.8762 22.3739 16.624 22.5301 16.4052C22.6878 16.1863 22.9037 16.0146 23.1779 15.89C23.4519 15.7654 23.7666 15.7031 24.1219 15.7031C24.4695 15.7031 24.7765 15.7616 25.0429 15.8786C25.3109 15.9957 25.5199 16.1567 25.67 16.3619C25.8216 16.5655 25.8966 16.7987 25.8951 17.0616C25.8981 17.323 25.8078 17.5372 25.6241 17.7044C25.4418 17.8715 25.2106 17.9703 24.9304 18.0007V18.0372C25.3101 18.0782 25.5957 18.1937 25.7871 18.3836C25.9785 18.5721 26.0727 18.8091 26.0697 19.0948C26.0712 19.3683 25.9885 19.6107 25.8216 19.8219C25.6562 20.0331 25.4258 20.1987 25.1302 20.3188C24.8362 20.4388 24.497 20.4988 24.1127 20.4988Z" fill="black" fill-opacity="0.24"/>
</g>
<g style="mix-blend-mode:darken">
<path d="M24.1127 20.4988C23.7421 20.4988 23.4129 20.4358 23.125 20.3096C22.8387 20.182 22.6136 20.0065 22.4497 19.7831C22.2859 19.5598 22.2032 19.3029 22.2017 19.0127H23.4879C23.4895 19.1024 23.517 19.1829 23.5706 19.2543C23.6257 19.3242 23.7008 19.3789 23.7957 19.4185C23.8907 19.458 23.9994 19.4777 24.1219 19.4777C24.2398 19.4777 24.3439 19.4572 24.4343 19.4162C24.5246 19.3736 24.595 19.3151 24.6456 19.2407C24.6961 19.1662 24.7206 19.0811 24.7191 18.9854C24.7206 18.8912 24.6915 18.8076 24.6318 18.7346C24.5736 18.6617 24.4917 18.6047 24.386 18.5637C24.2804 18.5227 24.1586 18.5021 24.0208 18.5021H23.5431V17.6269H24.0208C24.1479 17.6269 24.2597 17.6064 24.3562 17.5653C24.4542 17.5243 24.53 17.4673 24.5836 17.3944C24.6387 17.3215 24.6655 17.2379 24.664 17.1437C24.6655 17.0525 24.6433 16.9719 24.5973 16.9021C24.5514 16.8322 24.4871 16.7775 24.4044 16.7379C24.3232 16.6984 24.2291 16.6787 24.1219 16.6787C24.0055 16.6787 23.9014 16.6992 23.8095 16.7402C23.7192 16.7813 23.648 16.8382 23.5959 16.9112C23.5438 16.9841 23.517 17.0677 23.5155 17.1619H22.2935C22.2951 16.8762 22.3739 16.624 22.5301 16.4052C22.6878 16.1863 22.9037 16.0146 23.1779 15.89C23.4519 15.7654 23.7666 15.7031 24.1219 15.7031C24.4695 15.7031 24.7765 15.7616 25.0429 15.8786C25.3109 15.9957 25.5199 16.1567 25.67 16.3619C25.8216 16.5655 25.8966 16.7987 25.8951 17.0616C25.8981 17.323 25.8078 17.5372 25.6241 17.7044C25.4418 17.8715 25.2106 17.9703 24.9304 18.0007V18.0372C25.3101 18.0782 25.5957 18.1937 25.7871 18.3836C25.9785 18.5721 26.0727 18.8091 26.0697 19.0948C26.0712 19.3683 25.9885 19.6107 25.8216 19.8219C25.6562 20.0331 25.4258 20.1987 25.1302 20.3188C24.8362 20.4388 24.497 20.4988 24.1127 20.4988Z" fill="#755555"/>
</g>
</g>
<g filter="url(#filter2_i_1204_51736)">
<g style="mix-blend-mode:darken">
<path d="M17.748 24.3514V22.1126H18.7263C18.8981 22.1126 19.0424 22.1356 19.1592 22.1815C19.2767 22.2274 19.3652 22.2923 19.4247 22.3761C19.4849 22.4599 19.515 22.5587 19.515 22.6723C19.515 22.7547 19.4966 22.8298 19.4599 22.8975C19.4239 22.9653 19.3732 23.0222 19.3079 23.0681C19.2425 23.1132 19.1662 23.1446 19.0788 23.1621V23.1839C19.1757 23.1876 19.2638 23.212 19.3432 23.2572C19.4225 23.3016 19.4856 23.3632 19.5326 23.4419C19.5796 23.5199 19.6031 23.6117 19.6031 23.7174C19.6031 23.8398 19.5708 23.9488 19.5062 24.0443C19.4423 24.1397 19.3512 24.2148 19.233 24.2694C19.1147 24.3241 18.9737 24.3514 18.81 24.3514H17.748ZM18.3605 23.8661H18.6469C18.7498 23.8661 18.8269 23.8471 18.8783 23.8092C18.9297 23.7706 18.9554 23.7138 18.9554 23.6387C18.9554 23.5862 18.9433 23.5417 18.919 23.5053C18.8948 23.4689 18.8603 23.4412 18.8155 23.4222C18.7714 23.4033 18.7182 23.3938 18.6558 23.3938H18.3605V23.8661ZM18.3605 23.0178H18.6117C18.6653 23.0178 18.7127 23.0094 18.7538 22.9926C18.7949 22.9759 18.8269 22.9518 18.8496 22.9205C18.8731 22.8884 18.8849 22.8494 18.8849 22.8035C18.8849 22.7343 18.8599 22.6815 18.81 22.645C18.76 22.6078 18.6969 22.5893 18.6205 22.5893H18.3605V23.0178ZM19.8201 24.3514V22.1126H20.7939C20.9614 22.1126 21.1079 22.1429 21.2335 22.2034C21.3591 22.2639 21.4567 22.3509 21.5265 22.4646C21.5963 22.5783 21.6311 22.7146 21.6311 22.8735C21.6311 23.0338 21.5951 23.169 21.5232 23.279C21.4519 23.3891 21.3517 23.4722 21.2225 23.5283C21.0939 23.5844 20.9437 23.6124 20.7719 23.6124H20.1903V23.1402H20.6485C20.7205 23.1402 20.7818 23.1315 20.8325 23.114C20.8839 23.0958 20.9232 23.067 20.9504 23.0276C20.9782 22.9883 20.9922 22.9369 20.9922 22.8735C20.9922 22.8093 20.9782 22.7572 20.9504 22.7172C20.9232 22.6764 20.8839 22.6465 20.8325 22.6275C20.7818 22.6078 20.7205 22.598 20.6485 22.598H20.4326V24.3514H19.8201ZM21.142 23.3239L21.706 24.3514H21.0407L20.4899 23.3239H21.142ZM24.0777 23.232C24.0777 23.4813 24.0289 23.6915 23.9312 23.8628C23.8336 24.0333 23.7018 24.1627 23.5358 24.2509C23.3698 24.3383 23.1847 24.382 22.9806 24.382C22.7749 24.382 22.5891 24.3379 22.4232 24.2498C22.2579 24.1609 22.1265 24.0311 22.0288 23.8606C21.9319 23.6893 21.8834 23.4798 21.8834 23.232C21.8834 22.9828 21.9319 22.7729 22.0288 22.6024C22.1265 22.4311 22.2579 22.3017 22.4232 22.2143C22.5891 22.1261 22.7749 22.082 22.9806 22.082C23.1847 22.082 23.3698 22.1261 23.5358 22.2143C23.7018 22.3017 23.8336 22.4311 23.9312 22.6024C24.0289 22.7729 24.0777 22.9828 24.0777 23.232ZM23.4476 23.232C23.4476 23.0979 23.4296 22.985 23.3937 22.8931C23.3584 22.8006 23.3059 22.7306 23.2361 22.6833C23.1671 22.6352 23.0819 22.6111 22.9806 22.6111C22.8792 22.6111 22.7937 22.6352 22.7239 22.6833C22.6549 22.7306 22.6024 22.8006 22.5664 22.8931C22.5311 22.985 22.5135 23.0979 22.5135 23.232C22.5135 23.3661 22.5311 23.4795 22.5664 23.572C22.6024 23.6638 22.6549 23.7338 22.7239 23.7819C22.7937 23.8293 22.8792 23.8529 22.9806 23.8529C23.0819 23.8529 23.1671 23.8293 23.2361 23.7819C23.3059 23.7338 23.3584 23.6638 23.3937 23.572C23.4296 23.4795 23.4476 23.3661 23.4476 23.232ZM26.3131 22.1126V24.3514H25.802L24.9868 23.1752H24.9736V24.3514H24.3611V22.1126H24.8811L25.683 23.2845H25.7007V22.1126H26.3131ZM26.6117 24.3514V24.0147L27.678 22.6024H26.6161V22.1126H28.4579V22.4493L27.3916 23.8617H28.4535V24.3514H26.6117ZM28.7567 24.3514V22.1126H30.3827V22.6024H29.3692V22.9872H30.299V23.4769H29.3692V23.8617H30.3783V24.3514H28.7567Z" fill="#755555"/>
</g>
</g>
<path d="M24.1474 11.9238C19.6084 11.9238 15.9287 15.6235 15.9287 20.1876C15.9287 24.7518 19.6084 28.4518 24.1474 28.4518C28.6865 28.4518 32.3661 24.7518 32.3661 20.1876C32.3661 15.6235 28.6865 11.9238 24.1474 11.9238ZM24.1474 27.7734C19.9809 27.7734 16.6034 24.3772 16.6034 20.1876C16.6034 15.9981 19.9809 12.6019 24.1474 12.6019C28.3139 12.6019 31.6914 15.9981 31.6914 20.1876C31.6914 24.3772 28.3139 27.7734 24.1474 27.7734Z" fill="url(#paint5_linear_1204_51736)"/>
<path d="M24.146 10.8691C19.0278 10.8691 14.8789 15.041 14.8789 20.1875C14.8789 25.334 19.0278 29.5057 24.146 29.5057C29.2642 29.5057 33.413 25.334 33.413 20.1875C33.413 15.041 29.2642 10.8691 24.146 10.8691ZM24.146 28.4477C19.6091 28.4477 15.9312 24.7495 15.9312 20.1875C15.9312 15.6255 19.6091 11.9276 24.146 11.9276C28.6829 11.9276 32.3608 15.6259 32.3608 20.1879C32.3608 24.7498 28.6829 28.4477 24.146 28.4477Z" fill="url(#paint6_linear_1204_51736)"/>
</g>
<defs>
<filter id="filter0_d_1204_51736" x="0.279785" y="0.179688" width="47.7305" height="56" filterUnits="userSpaceOnUse" color-interpolation-filters="sRGB">
<feFlood flood-opacity="0" result="BackgroundImageFix"/>
<feColorMatrix in="SourceAlpha" type="matrix" values="0 0 0 0 0 0 0 0 0 0 0 0 0 0 0 0 0 0 127 0" result="hardAlpha"/>
<feOffset dy="4"/>
<feGaussianBlur stdDeviation="2.5"/>
<feComposite in2="hardAlpha" operator="out"/>
<feColorMatrix type="matrix" values="0 0 0 0 0 0 0 0 0 0 0 0 0 0 0 0 0 0 0.25 0"/>
<feBlend mode="normal" in2="BackgroundImageFix" result="effect1_dropShadow_1204_51736"/>
<feBlend mode="normal" in="SourceGraphic" in2="effect1_dropShadow_1204_51736" result="shape"/>
</filter>
<filter id="filter1_i_1204_51736" x="22.2017" y="15.7031" width="3.86816" height="4.96992" filterUnits="userSpaceOnUse" color-interpolation-filters="sRGB">
<feFlood flood-opacity="0" result="BackgroundImageFix"/>
<feBlend mode="normal" in="SourceGraphic" in2="BackgroundImageFix" result="shape"/>
<feColorMatrix in="SourceAlpha" type="matrix" values="0 0 0 0 0 0 0 0 0 0 0 0 0 0 0 0 0 0 127 0" result="hardAlpha"/>
<feOffset dy="0.175"/>
<feGaussianBlur stdDeviation="0.175"/>
<feComposite in2="hardAlpha" operator="arithmetic" k2="-1" k3="1"/>
<feColorMatrix type="matrix" values="0 0 0 0 0 0 0 0 0 0 0 0 0 0 0 0 0 0 0.24 0"/>
<feBlend mode="darken" in2="shape" result="effect1_innerShadow_1204_51736"/>
</filter>
<filter id="filter2_i_1204_51736" x="17.748" y="22.082" width="12.6348" height="2.47578" filterUnits="userSpaceOnUse" color-interpolation-filters="sRGB">
<feFlood flood-opacity="0" result="BackgroundImageFix"/>
<feBlend mode="normal" in="SourceGraphic" in2="BackgroundImageFix" result="shape"/>
<feColorMatrix in="SourceAlpha" type="matrix" values="0 0 0 0 0 0 0 0 0 0 0 0 0 0 0 0 0 0 127 0" result="hardAlpha"/>
<feOffset dy="0.175"/>
<feGaussianBlur stdDeviation="0.175"/>
<feComposite in2="hardAlpha" operator="arithmetic" k2="-1" k3="1"/>
<feColorMatrix type="matrix" values="0 0 0 0 0 0 0 0 0 0 0 0 0 0 0 0 0 0 0.24 0"/>
<feBlend mode="darken" in2="shape" result="effect1_innerShadow_1204_51736"/>
</filter>
<linearGradient id="paint0_linear_1204_51736" x1="9.46094" y1="27.9238" x2="38.9818" y2="28.1604" gradientUnits="userSpaceOnUse">
<stop stop-color="#D6AF9A"/>
<stop offset="0.491554" stop-color="#FFF7EC"/>
<stop offset="1" stop-color="#E6B19B"/>
</linearGradient>
<linearGradient id="paint1_linear_1204_51736" x1="9.7285" y1="26.3398" x2="38.2825" y2="26.7692" gradientUnits="userSpaceOnUse">
<stop stop-color="#D6AF9A"/>
<stop offset="0.491554" stop-color="#F6D5A5"/>
<stop offset="1" stop-color="#E6B19B"/>
</linearGradient>
<linearGradient id="paint2_linear_1204_51736" x1="13.1582" y1="3.46094" x2="35.3878" y2="3.89466" gradientUnits="userSpaceOnUse">
<stop stop-color="#D6AF9A"/>
<stop offset="0.491554" stop-color="#F6D5A5"/>
<stop offset="1" stop-color="#E6B19B"/>
</linearGradient>
<linearGradient id="paint3_linear_1204_51736" x1="8.47998" y1="10.2656" x2="39.9701" y2="10.6306" gradientUnits="userSpaceOnUse">
<stop stop-color="#D6AF9A"/>
<stop offset="0.491554" stop-color="#F6D5A5"/>
<stop offset="1" stop-color="#E6B19B"/>
</linearGradient>
<radialGradient id="paint4_radial_1204_51736" cx="0" cy="0" r="1" gradientUnits="userSpaceOnUse" gradientTransform="translate(24.1439 20.266) scale(7.6795 7.58644)">
<stop offset="0.8428" stop-color="#CBABAB"/>
<stop offset="1" stop-color="#B79797"/>
</radialGradient>
<linearGradient id="paint5_linear_1204_51736" x1="24.1475" y1="11.8996" x2="24.1475" y2="28.4278" gradientUnits="userSpaceOnUse">
<stop stop-color="#AF8F8F"/>
<stop offset="0.8201" stop-color="#C7ACAC"/>
<stop offset="1" stop-color="#DBBDBD"/>
</linearGradient>
<linearGradient id="paint6_linear_1204_51736" x1="24.146" y1="10.8418" x2="24.146" y2="29.4787" gradientUnits="userSpaceOnUse">
<stop stop-color="#F2D2D2"/>
<stop offset="0.1799" stop-color="#FFE4E4"/>
<stop offset="1" stop-color="#AF8F8F"/>
</linearGradient>
</defs>
</svg>
