<svg width="45" height="44" viewBox="0 0 45 44" fill="none" xmlns="http://www.w3.org/2000/svg">
<rect x="0.5" width="44" height="44" rx="22" fill="#141482" fill-opacity="0.12"/>
<g clip-path="url(#clip0_6048_40040)">
<path d="M17.04 15C17.1 15.89 17.25 16.76 17.49 17.59L16.29 18.79C15.88 17.59 15.62 16.32 15.53 15H17.04ZM26.9 27.02C27.75 27.26 28.62 27.41 29.5 27.47V28.96C28.18 28.87 26.91 28.61 25.7 28.21L26.9 27.02ZM18 13H14.5C13.95 13 13.5 13.45 13.5 14C13.5 23.39 21.11 31 30.5 31C31.05 31 31.5 30.55 31.5 30V26.51C31.5 25.96 31.05 25.51 30.5 25.51C29.26 25.51 28.05 25.31 26.93 24.94C26.83 24.9 26.72 24.89 26.62 24.89C26.36 24.89 26.11 24.99 25.91 25.18L23.71 27.38C20.88 25.93 18.56 23.62 17.12 20.79L19.32 18.59C19.6 18.31 19.68 17.92 19.57 17.57C19.2 16.45 19 15.25 19 14C19 13.45 18.55 13 18 13Z" fill="#141482"/>
</g>
<defs>
<clipPath id="clip0_6048_40040">
<rect width="24" height="24" fill="white" transform="translate(10.5 10)"/>
</clipPath>
</defs>
</svg>
