<svg xmlns="http://www.w3.org/2000/svg" width="16" height="16" viewBox="0 0 16 16" fill="none">
<path d="M8.89087 4C9.51504 4.00006 10.0894 4.14552 10.6145 4.43555C11.1398 4.72205 11.5759 5.10574 11.9211 5.58691L10.4446 6.37988C10.2536 6.1595 10.0233 5.98379 9.75513 5.85156C9.48715 5.71944 9.1992 5.65338 8.89087 5.65332C8.59709 5.65332 8.31958 5.7138 8.05884 5.83496C7.80172 5.95617 7.57359 6.12508 7.37524 6.3418C7.18073 6.55469 7.02837 6.80238 6.91821 7.08496C6.80802 7.36779 6.75317 7.67309 6.75317 8C6.75317 8.32323 6.80802 8.62635 6.91821 8.90918C7.02838 9.19189 7.18066 9.44156 7.37524 9.6582C7.57359 9.87124 7.80172 10.0402 8.05884 10.165C8.31957 10.2862 8.59709 10.3467 8.89087 10.3467C9.1992 10.3466 9.48715 10.2806 9.75513 10.1484C10.0233 10.0125 10.2536 9.83246 10.4446 9.6084L11.9211 10.4131C11.5759 10.8906 11.1398 11.2743 10.6145 11.5645C10.0894 11.8545 9.51504 11.9999 8.89087 12C8.36929 12 7.87833 11.8971 7.41919 11.6914C6.96013 11.482 6.55617 11.1934 6.20728 10.8262C5.86207 10.4589 5.59017 10.0348 5.39185 9.55371C5.19717 9.06886 5.09985 8.55096 5.09985 8C5.09985 7.44537 5.19717 6.92746 5.39185 6.44629C5.59017 5.9615 5.86207 5.53743 6.20728 5.17383C6.55614 4.8066 6.96018 4.52014 7.41919 4.31445C7.87833 4.10509 8.36929 4 8.89087 4Z" fill="url(#paint0_linear_2103_1268)"/>
<path fill-rule="evenodd" clip-rule="evenodd" d="M13.6897 0.115234C14.8718 0.115455 15.8311 1.07372 15.8313 2.25586V13.7432C15.8312 14.9254 14.8719 15.8845 13.6897 15.8848H2.20239C1.02019 15.8846 0.0618766 14.9254 0.0617676 13.7432V2.25586C0.0619832 1.07372 1.02025 0.11545 2.20239 0.115234H13.6897ZM2.20239 1.11523C1.57254 1.11545 1.06198 1.62601 1.06177 2.25586V13.7432C1.06188 14.3731 1.57247 14.8846 2.20239 14.8848H13.6897C14.3196 14.8845 14.8312 14.3731 14.8313 13.7432V2.25586C14.8311 1.62601 14.3195 1.11545 13.6897 1.11523H2.20239Z" fill="url(#paint1_linear_2103_1268)"/>
<defs>
<linearGradient id="paint0_linear_2103_1268" x1="0.0617676" y1="8" x2="15.8313" y2="8" gradientUnits="userSpaceOnUse">
<stop stop-color="#01D033"/>
<stop offset="1" stop-color="#00FDE9"/>
</linearGradient>
<linearGradient id="paint1_linear_2103_1268" x1="0.0617676" y1="8" x2="15.8313" y2="8" gradientUnits="userSpaceOnUse">
<stop stop-color="#01D033"/>
<stop offset="1" stop-color="#00FDE9"/>
</linearGradient>
</defs>
</svg>
 