<svg width="56" height="56" viewBox="0 0 56 56" fill="none" xmlns="http://www.w3.org/2000/svg">
<rect width="56" height="56" rx="28" fill="#363CD2"/>
<rect width="56" height="56" rx="28" fill="black" fill-opacity="0.6"/>
<rect x="0.5" y="0.5" width="55" height="55" rx="27.5" stroke="url(#paint0_linear_548_40120)" stroke-opacity="0.6"/>
<path d="M8.60956 21.5164L9.53291 24.0259L7.31119 22.5167L5.21209 24.1861L5.92939 21.6237L3.69995 20.1421L6.37461 20.0331L7.09191 17.4707L8.0192 19.9874L10.7016 19.8509L8.60956 21.5164Z" fill="url(#paint1_linear_548_40120)"/>
<path d="M13.405 11.0745C13.2657 10.9427 13.1125 10.88 12.9457 10.8863C12.7804 10.8912 12.6018 10.9801 12.4101 11.1529C12.2881 11.263 12.2014 11.3682 12.1502 11.4684C12.0991 11.5659 12.0776 11.6561 12.0854 11.7391C12.0933 11.8221 12.1253 11.8962 12.1815 11.9614C12.226 12.0164 12.2782 12.0557 12.3379 12.0791C12.3977 12.0997 12.4671 12.1054 12.5461 12.096C12.6238 12.0851 12.7125 12.0592 12.8121 12.0183C12.9116 11.9775 13.0228 11.9209 13.1457 11.8488L13.5726 11.6029C13.86 11.4364 14.1274 11.3176 14.3747 11.2465C14.622 11.1753 14.8515 11.1473 15.0633 11.1623C15.2738 11.1759 15.4679 11.2299 15.6458 11.3244C15.825 11.4176 15.9902 11.5467 16.1414 11.7115C16.3986 11.9996 16.5457 12.307 16.583 12.6338C16.6202 12.9606 16.5536 13.2948 16.3829 13.6365C16.2136 13.977 15.9444 14.3137 15.5753 14.6464C15.1962 14.9882 14.8148 15.2304 14.4312 15.3729C14.049 15.5143 13.6748 15.5388 13.3087 15.4469C12.9427 15.3521 12.5945 15.1229 12.2641 14.7593L13.3886 13.7455C13.516 13.8726 13.6505 13.9547 13.7921 13.9918C13.9336 14.0289 14.0795 14.0222 14.2296 13.9718C14.3812 13.92 14.5322 13.8264 14.6827 13.6907C14.8091 13.5768 14.9007 13.4657 14.9578 13.3577C15.0148 13.2497 15.0404 13.1482 15.0345 13.0531C15.0286 12.9581 14.9943 12.8744 14.9317 12.8021C14.8702 12.7367 14.7957 12.6983 14.7083 12.687C14.621 12.673 14.5119 12.689 14.3809 12.735C14.2487 12.7796 14.0857 12.8571 13.8918 12.9675L13.3728 13.2655C12.9111 13.5299 12.4805 13.6647 12.0809 13.6697C11.6815 13.6721 11.3289 13.5022 11.0231 13.1602C10.7721 12.8846 10.6277 12.576 10.5898 12.2343C10.5522 11.8899 10.6136 11.5398 10.7741 11.184C10.9361 10.8269 11.1896 10.4929 11.5346 10.1818C11.8867 9.86435 12.2444 9.6487 12.6076 9.53486C12.9708 9.421 13.3187 9.40854 13.6511 9.49745C13.9837 9.5837 14.2793 9.76887 14.538 10.053L13.405 11.0745Z" fill="url(#paint2_linear_548_40120)"/>
<path d="M19.6015 11.7056L18.0278 12.4011L17.4268 6.24619L19.42 5.36523L23.567 9.95299L21.9934 10.6485L19.0982 7.27565L19.0562 7.29422L19.6015 11.7056ZM18.3711 9.7163L21.3295 8.40874L21.8117 9.49984L18.8533 10.8074L18.3711 9.7163Z" fill="url(#paint3_linear_548_40120)"/>
<path d="M25.5376 9.79806L23.826 9.97324L25.1563 3.93383L27.3243 3.71191L29.8506 9.35659L28.1392 9.53175L26.4278 5.42937L26.3821 5.43406L25.5376 9.79806ZM24.9822 7.52588L28.1998 7.19653L28.3213 8.38317L25.1036 8.71257L24.9822 7.52588Z" fill="url(#paint4_linear_548_40120)"/>
<path d="M30.4442 4.95929L30.6991 3.7002L35.7018 4.7127L35.4469 5.97179L33.7157 5.62139L32.8055 10.1181L31.2654 9.80645L32.1756 5.30968L30.4442 4.95929Z" fill="url(#paint5_linear_548_40120)"/>
<path d="M35.4829 10.755L38.4366 5.6792L39.8145 6.48104L38.6608 8.46378L40.4849 9.52521L41.6386 7.54246L43.0166 8.34433L40.0631 13.4201L38.6851 12.6183L39.8388 10.6355L38.0147 9.57411L36.861 11.5568L35.4829 10.755Z" fill="url(#paint6_linear_548_40120)"/>
<path d="M46.2192 11.2679L42.0508 15.4045L40.9277 14.2729L45.0961 10.1362L46.2192 11.2679Z" fill="url(#paint7_linear_548_40120)"/>
<path d="M48.1325 21.4885L46.0272 19.8399L48.7106 19.9548L49.6175 17.4307L50.3556 19.9873L53.031 20.0746L50.8136 21.5742L51.5516 24.1308L49.4389 22.4783L47.2295 24.0054L48.1325 21.4885Z" fill="url(#paint8_linear_548_40120)"/>
<path d="M9.62304 33.7L9.21935 32.134C9.34602 32.0894 9.45594 32.0295 9.54905 31.9542C9.64267 31.8807 9.71665 31.7926 9.77105 31.6897C9.82783 31.5882 9.86149 31.4738 9.8722 31.3468C9.88471 31.2192 9.87183 31.0812 9.83368 30.9333C9.76687 30.6741 9.64735 30.4709 9.47521 30.3239C9.30352 30.1786 9.08818 30.0899 8.82924 30.0581C8.57079 30.028 8.27677 30.0554 7.94727 30.1403C7.59929 30.2301 7.31966 30.3514 7.10839 30.5047C6.89952 30.6591 6.75874 30.8405 6.68609 31.0488C6.61528 31.2566 6.61208 31.4854 6.67652 31.7353C6.71325 31.8779 6.76378 32.001 6.82805 32.105C6.89419 32.2082 6.97223 32.2927 7.06222 32.3585C7.15216 32.4241 7.25198 32.4704 7.3616 32.4974C7.47353 32.5258 7.59299 32.5334 7.71992 32.5205L8.11255 34.0895C7.86712 34.1329 7.60444 34.1286 7.32445 34.0764C7.04638 34.0237 6.77411 33.9173 6.50772 33.7569C6.24366 33.5979 6.00721 33.3776 5.79835 33.0959C5.5895 32.8141 5.43138 32.465 5.32402 32.0485C5.18944 31.5265 5.18069 31.0293 5.29777 30.5569C5.41535 30.0863 5.66061 29.6747 6.03358 29.3218C6.40703 28.9709 6.90845 28.7143 7.53783 28.552C8.17088 28.3888 8.73551 28.3736 9.23166 28.5063C9.72968 28.6384 10.1432 28.8833 10.4722 29.2407C10.8031 29.5975 11.0344 30.0315 11.1661 30.5423C11.2587 30.9014 11.2949 31.2445 11.2745 31.5716C11.2542 31.8985 11.179 32.2003 11.0489 32.4766C10.9206 32.7526 10.7374 32.9951 10.4992 33.2047C10.261 33.414 9.96899 33.5793 9.62304 33.7Z" fill="url(#paint9_linear_548_40120)"/>
<path d="M7.39404 39.2917L12.0255 35.6812L14.6277 39.019L13.6145 39.8089L11.9926 37.7283L11.1965 38.3489L12.6845 40.2575L11.6714 41.0474L10.1834 39.1388L9.3874 39.7592L11.0022 41.8308L9.98912 42.6206L7.39404 39.2917Z" fill="url(#paint10_linear_548_40120)"/>
<path d="M12.8467 46.4043L15.7708 41.3115L17.969 42.5736C18.347 42.7907 18.6382 43.0494 18.8427 43.3496C19.0471 43.65 19.1539 43.9748 19.163 44.3238C19.172 44.6729 19.0726 45.0281 18.8652 45.3895C18.6558 45.7542 18.3979 46.0151 18.0917 46.1721C17.7872 46.3301 17.4524 46.3891 17.0873 46.3493C16.7239 46.3104 16.3483 46.1796 15.9604 45.9569L14.6474 45.2029L15.2642 44.1287L16.2987 44.7227C16.4612 44.816 16.6109 44.8755 16.7482 44.9014C16.8881 44.9266 17.0143 44.9121 17.127 44.8577C17.2415 44.8044 17.3401 44.7056 17.423 44.5614C17.5067 44.4154 17.5432 44.2788 17.5326 44.1515C17.5246 44.0234 17.4749 43.9046 17.3835 43.7948C17.295 43.6844 17.1693 43.5825 17.0069 43.4892L16.5194 43.2094L14.2293 47.1981L12.8467 46.4043ZM17.1728 45.78L17.1039 48.8486L15.6019 47.9862L15.7008 44.9348L17.1728 45.78Z" fill="url(#paint11_linear_548_40120)"/>
<path d="M21.3765 46.5434L21.5309 45.2681L26.598 45.8816L26.4436 47.157L24.69 46.9446L24.1384 51.4993L22.5785 51.3104L23.13 46.7558L21.3765 46.5434Z" fill="url(#paint12_linear_548_40120)"/>
<path d="M30.9374 45.8652L32.082 51.6251L30.5183 51.9359L29.3737 46.176L30.9374 45.8652Z" fill="url(#paint13_linear_548_40120)"/>
<path d="M35.876 51.1478L33.0414 46.0047L36.6575 44.0117L37.2777 45.1367L35.0576 46.3603L35.5448 47.2443L37.5439 46.1424L38.164 47.2675L36.1649 48.3692L37.2723 50.3783L35.876 51.1478Z" fill="url(#paint14_linear_548_40120)"/>
<path d="M40.4255 41.3828L44.6734 45.4377L43.5725 46.591L39.3247 42.536L40.4255 41.3828Z" fill="url(#paint15_linear_548_40120)"/>
<path d="M47.5102 42.871L42.2356 40.2893L44.0963 36.4878L45.2501 37.0526L44.0904 39.422L44.9969 39.8658L46.061 37.6921L47.2147 38.2568L46.1507 40.4306L47.0573 40.8743L48.212 38.5152L49.3659 39.0801L47.5102 42.871Z" fill="url(#paint16_linear_548_40120)"/>
<path d="M51.7 32.6616L51.5926 34.9186L45.7266 34.639L45.8331 32.4051C45.8618 31.8016 46.0041 31.2859 46.2598 30.858C46.5137 30.428 46.8661 30.1041 47.3166 29.8864C47.7653 29.6666 48.2952 29.5713 48.9064 29.6003C49.5174 29.6295 50.0367 29.7738 50.4645 30.0334C50.8904 30.293 51.2104 30.647 51.4244 31.0954C51.6366 31.5438 51.7284 32.0658 51.7 32.6616ZM50.3164 33.2616L50.3455 32.6544C50.3592 32.3643 50.3243 32.1147 50.2404 31.906C50.1567 31.6952 50.0028 31.5311 49.7787 31.4131C49.5548 31.2935 49.2385 31.2238 48.8298 31.2042C48.4212 31.1848 48.0997 31.225 47.8654 31.3248C47.631 31.4228 47.462 31.5755 47.3583 31.783C47.2548 31.9886 47.1958 32.2441 47.1812 32.5496L47.1543 33.111L50.3164 33.2616Z" fill="url(#paint17_linear_548_40120)"/>
<path d="M27.7793 11.8003C19.0809 11.8003 12.0293 18.8048 12.0293 27.4453V27.6552C12.0293 36.2958 19.0808 43.3002 27.7792 43.3002C36.4777 43.3002 43.5292 36.2958 43.5292 27.6552V27.4453C43.5292 18.8048 36.4778 11.8003 27.7793 11.8003Z" fill="#6348E9"/>
<path d="M27.7793 11.8003C19.0809 11.8003 12.0293 18.8048 12.0293 27.4453V27.6552C12.0293 36.2958 19.0808 43.3002 27.7792 43.3002C36.4777 43.3002 43.5292 36.2958 43.5292 27.6552V27.4453C43.5292 18.8048 36.4778 11.8003 27.7793 11.8003Z" fill="black" fill-opacity="0.4"/>
<path d="M26.5304 14.4501L23.7786 16.8303H27.725V14.0083C27.2992 14.0069 26.8729 14.1542 26.5304 14.4501Z" fill="#FDF0BC"/>
<path d="M28.9022 14.4473C28.5635 14.1561 28.1435 14.0097 27.7231 14.0083V16.8303H31.6697L28.9022 14.4473Z" fill="url(#paint18_linear_548_40120)"/>
<path d="M18.1263 18.3524L17.5586 21.933L20.5816 19.4132L18.7555 17.2515C18.4283 17.5221 18.197 17.9074 18.1263 18.3524Z" fill="#FDF0BC"/>
<path d="M19.9403 16.8352C19.4923 16.8279 19.0756 16.9842 18.7529 17.2518L20.5791 19.4137L23.6021 16.8939L19.9403 16.8352Z" fill="url(#paint19_linear_548_40120)"/>
<path d="M14.2108 26.7094L16.0925 29.8149L16.7777 25.9545L13.9804 25.4639C13.9047 25.8806 13.9767 26.3233 14.2108 26.7094Z" fill="#FDF0BC"/>
<path d="M14.6256 24.3859C14.2782 24.6668 14.0602 25.0525 13.9858 25.4632L16.7836 25.9532L17.4688 22.0928L14.6256 24.3859Z" fill="url(#paint20_linear_548_40120)"/>
<path d="M16.6212 35.609L20.0724 36.7861L18.0995 33.3911L15.639 34.8021C15.8506 35.1696 16.192 35.4627 16.6212 35.609Z" fill="url(#paint21_linear_548_40120)"/>
<path d="M15.4347 33.5681C15.3498 34.0048 15.4324 34.4398 15.6413 34.8021L18.1017 33.3911L16.1286 29.9961L15.4347 33.5681Z" fill="url(#paint22_linear_548_40120)"/>
<path d="M24.2303 40.8889L27.6358 39.5874L23.9274 38.2466L22.9559 40.8985C23.3555 41.0445 23.8071 41.0508 24.2303 40.8889Z" fill="url(#paint23_linear_548_40120)"/>
<path d="M21.9935 40.0837C22.2111 40.4725 22.5557 40.7529 22.9505 40.8971L23.9221 38.2451L20.2137 36.9043L21.9935 40.0837Z" fill="url(#paint24_linear_548_40120)"/>
<path d="M33.4695 40.0759L35.236 36.9043L31.5278 38.2451L32.4993 40.8969C32.8996 40.7534 33.2498 40.4702 33.4695 40.0759Z" fill="url(#paint25_linear_548_40120)"/>
<path d="M31.2412 40.885C31.6598 41.0442 32.105 41.0388 32.5006 40.8971L31.529 38.2451L27.8207 39.5858L31.2412 40.885Z" fill="url(#paint26_linear_548_40120)"/>
<path d="M40.0245 33.5535L39.3254 29.9961L37.3524 33.3911L39.8128 34.8021C40.0266 34.436 40.1117 33.9956 40.0245 33.5535Z" fill="url(#paint27_linear_548_40120)"/>
<path d="M38.8357 35.5971C39.2588 35.4518 39.5967 35.1631 39.8083 34.8021L37.3478 33.3911L35.3749 36.7861L38.8357 35.5971Z" fill="url(#paint28_linear_548_40120)"/>
<path d="M40.8228 24.3714L37.9852 22.0928L38.6704 25.9532L41.4681 25.4632C41.396 25.0466 41.1758 24.6549 40.8228 24.3714Z" fill="url(#paint29_linear_548_40120)"/>
<path d="M41.2381 26.6939C41.4685 26.3122 41.5406 25.8755 41.4685 25.4639L38.6708 25.9541L39.3559 29.8145L41.2381 26.6939Z" fill="url(#paint30_linear_548_40120)"/>
<path d="M35.4925 16.8275L31.8442 16.8935L34.8674 19.4132L36.6936 17.2514C36.3682 16.9788 35.9465 16.8192 35.4925 16.8275Z" fill="url(#paint31_linear_548_40120)"/>
<path d="M37.3112 18.342C37.2406 17.9026 37.0134 17.5223 36.6921 17.2529L34.866 19.4147L37.889 21.9345L37.3112 18.342Z" fill="url(#paint32_linear_548_40120)"/>
<path d="M27.7212 37.4443C33.0441 37.4443 37.3591 33.1579 37.3591 27.8705C37.3591 22.5833 33.0441 18.2969 27.7212 18.2969C22.3983 18.2969 18.0833 22.5833 18.0833 27.8705C18.0833 33.1579 22.3983 37.4443 27.7212 37.4443Z" fill="url(#paint33_radial_548_40120)"/>
<path fill-rule="evenodd" clip-rule="evenodd" d="M33.1493 23.5151H32.238L33.0517 24.4333L32.238 25.4051H33.1493L33.9791 24.4333L33.1493 23.5151ZM34.7317 23.5151H33.8206L34.6344 24.4333L33.8206 25.4051H34.7317L35.5617 24.4333L34.7317 23.5151ZM30.6552 23.5151H31.4834L32.238 24.4334L31.4834 25.4051H30.6552L31.3948 24.4334L30.6552 23.5151Z" fill="#FFFAF6"/>
<path d="M30.3889 31.9917C30.7179 31.5061 30.888 30.9312 30.8757 30.3458C30.8757 29.4858 30.581 28.8138 29.9918 28.3293C29.4007 27.8559 28.5478 27.5233 27.4326 27.3315C26.7293 27.2196 26.2452 27.0829 25.9804 26.9215C25.8568 26.8534 25.7544 26.753 25.6843 26.6311C25.6141 26.5092 25.5791 26.3704 25.5828 26.23C25.5782 26.0901 25.6105 25.9515 25.6766 25.828C25.7426 25.7044 25.8402 25.6004 25.9593 25.5261C26.2146 25.3507 26.5636 25.2631 27.006 25.2631C27.4567 25.2631 27.8145 25.3563 28.0795 25.5426C28.213 25.644 28.3248 25.7706 28.4087 25.9153C28.4926 26.0599 28.5468 26.2196 28.5684 26.3853H30.699C30.6157 25.4412 30.2447 24.6883 29.5859 24.1266C28.9312 23.569 28.0857 23.2902 27.0497 23.2902C26.4064 23.279 25.7683 23.4039 25.1771 23.6566C24.6578 23.8744 24.2142 24.2394 23.9018 24.7063C23.5868 25.1793 23.4249 25.7371 23.4378 26.3045C23.4378 27.1602 23.7222 27.8158 24.2908 28.2713C24.8608 28.7213 25.6917 29.0414 26.7833 29.2319C27.477 29.3547 27.9686 29.5066 28.2585 29.6874C28.3871 29.7623 28.4943 29.8688 28.5694 29.9969C28.6444 30.125 28.6851 30.2703 28.6871 30.4185C28.6893 30.5669 28.6527 30.7132 28.5813 30.8432C28.5099 30.9735 28.4059 31.0831 28.2794 31.1614C28.0047 31.3423 27.6218 31.4328 27.131 31.4328C26.6149 31.4328 26.2112 31.323 25.9199 31.1035C25.7748 30.9888 25.6562 30.8439 25.5724 30.6792C25.4888 30.5144 25.442 30.3336 25.4351 30.1492H23.296C23.3599 31.1803 23.731 31.9849 24.4092 32.5631C25.0819 33.1303 25.989 33.4138 27.1306 33.4138C27.79 33.425 28.4445 33.3002 29.0531 33.0474C29.5905 32.8296 30.0541 32.4634 30.3889 31.9917Z" fill="#FFFAF6"/>
<path d="M27.7226 17.4429C21.9241 17.4429 17.2236 22.1117 17.2236 27.8713C17.2236 33.6311 21.9241 38.3004 27.7226 38.3004C33.5208 38.3004 38.2214 33.6311 38.2214 27.8713C38.2214 22.1117 33.5208 17.4429 27.7226 17.4429ZM27.7226 37.4442C22.4001 37.4442 18.0855 33.1584 18.0855 27.8713C18.0855 22.5843 22.4001 18.2986 27.7226 18.2986C33.045 18.2986 37.3596 22.5843 37.3596 27.8713C37.3596 33.1584 33.045 37.4442 27.7226 37.4442Z" fill="url(#paint34_linear_548_40120)"/>
<path d="M27.7277 16.1123C21.1895 16.1123 15.8895 21.377 15.8895 27.8716C15.8895 34.3663 21.1895 39.6309 27.7277 39.6309C34.2659 39.6309 39.5658 34.3663 39.5658 27.8716C39.5658 21.377 34.2659 16.1123 27.7277 16.1123ZM27.7277 38.2956C21.932 38.2956 17.2337 33.6287 17.2337 27.8716C17.2337 22.1147 21.932 17.4481 27.7277 17.4481C33.5232 17.4481 38.2215 22.1151 38.2215 27.8722C38.2215 33.6291 33.5232 38.2956 27.7277 38.2956Z" fill="url(#paint35_linear_548_40120)"/>
<defs>
<linearGradient id="paint0_linear_548_40120" x1="28" y1="0" x2="28" y2="56" gradientUnits="userSpaceOnUse">
<stop stop-color="white"/>
<stop offset="1" stop-color="white" stop-opacity="0"/>
</linearGradient>
<linearGradient id="paint1_linear_548_40120" x1="3.69995" y1="17.4707" x2="10.7381" y2="17.5092" gradientUnits="userSpaceOnUse">
<stop stop-color="#FFC01D"/>
<stop offset="0.491554" stop-color="#FFD955"/>
<stop offset="1" stop-color="#FF9A01"/>
</linearGradient>
<linearGradient id="paint2_linear_548_40120" x1="10.5791" y1="9.43897" x2="16.6244" y2="9.47045" gradientUnits="userSpaceOnUse">
<stop stop-color="#FFC01D"/>
<stop offset="0.491554" stop-color="#FFD955"/>
<stop offset="1" stop-color="#FF9A01"/>
</linearGradient>
<linearGradient id="paint3_linear_548_40120" x1="17.4268" y1="5.36523" x2="23.5991" y2="5.39352" gradientUnits="userSpaceOnUse">
<stop stop-color="#FFC01D"/>
<stop offset="0.491554" stop-color="#FFD955"/>
<stop offset="1" stop-color="#FF9A01"/>
</linearGradient>
<linearGradient id="paint4_linear_548_40120" x1="23.826" y1="3.71191" x2="29.8821" y2="3.74251" gradientUnits="userSpaceOnUse">
<stop stop-color="#FFC01D"/>
<stop offset="0.491554" stop-color="#FFD955"/>
<stop offset="1" stop-color="#FF9A01"/>
</linearGradient>
<linearGradient id="paint5_linear_548_40120" x1="30.4442" y1="3.7002" x2="35.7292" y2="3.72293" gradientUnits="userSpaceOnUse">
<stop stop-color="#FFC01D"/>
<stop offset="0.491554" stop-color="#FFD955"/>
<stop offset="1" stop-color="#FF9A01"/>
</linearGradient>
<linearGradient id="paint6_linear_548_40120" x1="35.4829" y1="5.6792" x2="43.056" y2="5.7179" gradientUnits="userSpaceOnUse">
<stop stop-color="#FFC01D"/>
<stop offset="0.491554" stop-color="#FFD955"/>
<stop offset="1" stop-color="#FF9A01"/>
</linearGradient>
<linearGradient id="paint7_linear_548_40120" x1="40.9277" y1="10.1362" x2="46.2467" y2="10.1643" gradientUnits="userSpaceOnUse">
<stop stop-color="#FFC01D"/>
<stop offset="0.491554" stop-color="#FFD955"/>
<stop offset="1" stop-color="#FF9A01"/>
</linearGradient>
<linearGradient id="paint8_linear_548_40120" x1="46.0272" y1="17.4307" x2="53.0676" y2="17.4693" gradientUnits="userSpaceOnUse">
<stop stop-color="#FFC01D"/>
<stop offset="0.491554" stop-color="#FFD955"/>
<stop offset="1" stop-color="#FF9A01"/>
</linearGradient>
<linearGradient id="paint9_linear_548_40120" x1="5.21606" y1="28.417" x2="11.3117" y2="28.451" gradientUnits="userSpaceOnUse">
<stop stop-color="#FFC01D"/>
<stop offset="0.491554" stop-color="#FFD955"/>
<stop offset="1" stop-color="#FF9A01"/>
</linearGradient>
<linearGradient id="paint10_linear_548_40120" x1="7.39404" y1="35.6812" x2="14.6654" y2="35.7208" gradientUnits="userSpaceOnUse">
<stop stop-color="#FFC01D"/>
<stop offset="0.491554" stop-color="#FFD955"/>
<stop offset="1" stop-color="#FF9A01"/>
</linearGradient>
<linearGradient id="paint11_linear_548_40120" x1="12.8467" y1="41.3115" x2="19.1966" y2="41.3395" gradientUnits="userSpaceOnUse">
<stop stop-color="#FFC01D"/>
<stop offset="0.491554" stop-color="#FFD955"/>
<stop offset="1" stop-color="#FF9A01"/>
</linearGradient>
<linearGradient id="paint12_linear_548_40120" x1="21.3765" y1="45.2681" x2="26.6253" y2="45.2912" gradientUnits="userSpaceOnUse">
<stop stop-color="#FFC01D"/>
<stop offset="0.491554" stop-color="#FFD955"/>
<stop offset="1" stop-color="#FF9A01"/>
</linearGradient>
<linearGradient id="paint13_linear_548_40120" x1="29.3737" y1="45.8652" x2="32.0962" y2="45.8716" gradientUnits="userSpaceOnUse">
<stop stop-color="#FFC01D"/>
<stop offset="0.491554" stop-color="#FFD955"/>
<stop offset="1" stop-color="#FF9A01"/>
</linearGradient>
<linearGradient id="paint14_linear_548_40120" x1="33.0414" y1="44.0117" x2="38.1908" y2="44.031" gradientUnits="userSpaceOnUse">
<stop stop-color="#FFC01D"/>
<stop offset="0.491554" stop-color="#FFD955"/>
<stop offset="1" stop-color="#FF9A01"/>
</linearGradient>
<linearGradient id="paint15_linear_548_40120" x1="39.3247" y1="41.3828" x2="44.7014" y2="41.4118" gradientUnits="userSpaceOnUse">
<stop stop-color="#FFC01D"/>
<stop offset="0.491554" stop-color="#FFD955"/>
<stop offset="1" stop-color="#FF9A01"/>
</linearGradient>
<linearGradient id="paint16_linear_548_40120" x1="42.2356" y1="36.4878" x2="49.403" y2="36.5299" gradientUnits="userSpaceOnUse">
<stop stop-color="#FFC01D"/>
<stop offset="0.491554" stop-color="#FFD955"/>
<stop offset="1" stop-color="#FF9A01"/>
</linearGradient>
<linearGradient id="paint17_linear_548_40120" x1="45.7266" y1="29.5952" x2="51.7362" y2="29.6307" gradientUnits="userSpaceOnUse">
<stop stop-color="#FFC01D"/>
<stop offset="0.491554" stop-color="#FFD955"/>
<stop offset="1" stop-color="#FF9A01"/>
</linearGradient>
<linearGradient id="paint18_linear_548_40120" x1="27.9162" y1="15.4194" x2="31.5401" y2="15.4194" gradientUnits="userSpaceOnUse">
<stop stop-color="#FEE998"/>
<stop offset="1" stop-color="#FCC15B"/>
</linearGradient>
<linearGradient id="paint19_linear_548_40120" x1="19.8564" y1="18.1731" x2="23.4532" y2="15.1345" gradientUnits="userSpaceOnUse">
<stop stop-color="#FEE998"/>
<stop offset="1" stop-color="#FCC15B"/>
</linearGradient>
<linearGradient id="paint20_linear_548_40120" x1="17.5335" y1="22.0848" x2="15.5124" y2="25.4274" gradientUnits="userSpaceOnUse">
<stop stop-color="#FCC15B"/>
<stop offset="1" stop-color="#FEE998"/>
</linearGradient>
<linearGradient id="paint21_linear_548_40120" x1="16.5696" y1="34.0176" x2="20.1025" y2="36.3563" gradientUnits="userSpaceOnUse">
<stop stop-color="#FFC05F"/>
<stop offset="1" stop-color="#ED892B"/>
</linearGradient>
<linearGradient id="paint22_linear_548_40120" x1="16.1691" y1="30.0701" x2="16.7926" y2="34.0295" gradientUnits="userSpaceOnUse">
<stop stop-color="#FCC15B"/>
<stop offset="1" stop-color="#FEE998"/>
</linearGradient>
<linearGradient id="paint23_linear_548_40120" x1="23.6192" y1="39.6198" x2="27.1158" y2="40.4021" gradientUnits="userSpaceOnUse">
<stop stop-color="#FEAC3E"/>
<stop offset="1" stop-color="#F08223"/>
</linearGradient>
<linearGradient id="paint24_linear_548_40120" x1="20.0388" y1="36.8741" x2="23.2287" y2="39.5016" gradientUnits="userSpaceOnUse">
<stop stop-color="#FFA135"/>
<stop offset="1" stop-color="#FEB431"/>
</linearGradient>
<linearGradient id="paint25_linear_548_40120" x1="35.2499" y1="36.8816" x2="32.069" y2="39.6379" gradientUnits="userSpaceOnUse">
<stop stop-color="#FFAA3D"/>
<stop offset="1" stop-color="#ED8B1C"/>
</linearGradient>
<linearGradient id="paint26_linear_548_40120" x1="27.8347" y1="39.8397" x2="31.9166" y2="39.6115" gradientUnits="userSpaceOnUse">
<stop stop-color="#FF962D"/>
<stop offset="1" stop-color="#E56005"/>
</linearGradient>
<linearGradient id="paint27_linear_548_40120" x1="39.4754" y1="30.0104" x2="38.6652" y2="33.9816" gradientUnits="userSpaceOnUse">
<stop stop-color="#FDBD41"/>
<stop offset="1" stop-color="#FEB334"/>
</linearGradient>
<linearGradient id="paint28_linear_548_40120" x1="40.5467" y1="30.7095" x2="36.6397" y2="37.5218" gradientUnits="userSpaceOnUse">
<stop stop-color="#F6942F"/>
<stop offset="1" stop-color="#EA6F11"/>
</linearGradient>
<linearGradient id="paint29_linear_548_40120" x1="37.787" y1="22.207" x2="40.141" y2="25.7185" gradientUnits="userSpaceOnUse">
<stop stop-color="#FDBD41"/>
<stop offset="1" stop-color="#FEB334"/>
</linearGradient>
<linearGradient id="paint30_linear_548_40120" x1="39.2081" y1="29.8045" x2="40.125" y2="25.7258" gradientUnits="userSpaceOnUse">
<stop stop-color="#FD9D24"/>
<stop offset="1" stop-color="#FF9515"/>
</linearGradient>
<linearGradient id="paint31_linear_548_40120" x1="35.7348" y1="18.2791" x2="32.0724" y2="16.5008" gradientUnits="userSpaceOnUse">
<stop stop-color="#FCC15B"/>
<stop offset="1" stop-color="#FEE998"/>
</linearGradient>
<linearGradient id="paint32_linear_548_40120" x1="35.751" y1="18.0563" x2="37.4811" y2="21.9266" gradientUnits="userSpaceOnUse">
<stop stop-color="#FF9515"/>
<stop offset="1" stop-color="#FFBE41"/>
</linearGradient>
<radialGradient id="paint33_radial_548_40120" cx="0" cy="0" r="1" gradientUnits="userSpaceOnUse" gradientTransform="translate(27.7212 27.8704) scale(9.63799 9.57375)">
<stop offset="0.8428" stop-color="#FAAA31"/>
<stop offset="1" stop-color="#F57E16"/>
</radialGradient>
<linearGradient id="paint34_linear_548_40120" x1="27.7226" y1="17.4427" x2="27.7226" y2="38.3006" gradientUnits="userSpaceOnUse">
<stop offset="0.0226" stop-color="#FD9A18"/>
<stop offset="0.3764" stop-color="#FEC752"/>
<stop offset="1" stop-color="#FFA422"/>
</linearGradient>
<linearGradient id="paint35_linear_548_40120" x1="27.7277" y1="16.0779" x2="27.7277" y2="39.5966" gradientUnits="userSpaceOnUse">
<stop stop-color="#FFDB69"/>
<stop offset="0.1799" stop-color="#FEE7B0"/>
<stop offset="0.24" stop-color="#FEE9BA"/>
<stop offset="0.2592" stop-color="#FDECD0"/>
<stop offset="0.2953" stop-color="#FEDA92"/>
<stop offset="0.3254" stop-color="#FFCD64"/>
<stop offset="0.3405" stop-color="#FFC853"/>
<stop offset="0.7613" stop-color="#FF9114"/>
<stop offset="1" stop-color="#F57E16"/>
</linearGradient>
</defs>
</svg>
