<svg width="14" height="14" viewBox="0 0 14 14" fill="none" xmlns="http://www.w3.org/2000/svg">
<g clip-path="url(#clip0_1260_13743)">
<path d="M8.50391 14H3.28125C2.07503 14 1.09375 13.0187 1.09375 11.8125V4.40234C1.09375 3.19612 2.07503 2.21484 3.28125 2.21484H8.50391C9.71013 2.21484 10.6914 3.19612 10.6914 4.40234V11.8125C10.6914 13.0187 9.71013 14 8.50391 14ZM3.28125 3.30859C2.67819 3.30859 2.1875 3.79929 2.1875 4.40234V11.8125C2.1875 12.4156 2.67819 12.9062 3.28125 12.9062H8.50391C9.10696 12.9062 9.59766 12.4156 9.59766 11.8125V4.40234C9.59766 3.79929 9.10696 3.30859 8.50391 3.30859H3.28125ZM12.8789 10.4453V2.1875C12.8789 0.981277 11.8976 0 10.6914 0H4.62109C4.31903 0 4.07422 0.244812 4.07422 0.546875C4.07422 0.848938 4.31903 1.09375 4.62109 1.09375H10.6914C11.2945 1.09375 11.7852 1.58444 11.7852 2.1875V10.4453C11.7852 10.7474 12.03 10.9922 12.332 10.9922C12.6341 10.9922 12.8789 10.7474 12.8789 10.4453Z" fill="#3B2B8C"/>
</g>
<defs>
<clipPath id="clip0_1260_13743">
<rect width="14" height="14" fill="white"/>
</clipPath>
</defs>
</svg>
