<svg width="32" height="33" viewBox="0 0 32 33" fill="none" xmlns="http://www.w3.org/2000/svg">
<g clip-path="url(#clip0_366_7042)">
<path d="M29.3334 16.2979C29.3334 23.6617 23.3639 29.6313 16.0001 29.6313C8.63628 29.6313 2.66675 23.6617 2.66675 16.2979C2.66675 8.93414 8.63628 2.9646 16.0001 2.9646" stroke="#CBBBE6" stroke-width="2" stroke-linecap="round" stroke-linejoin="round"/>
<path d="M19.8676 13.1671H22V14.6771H19.7574C19.6225 15.4995 19.3652 16.1563 18.9853 16.6473C18.6176 17.1261 18.0907 17.4759 17.4044 17.6969C16.7181 17.9056 15.8297 18.0099 14.739 18.0099V19.17C14.739 19.8451 14.8799 20.3791 15.1618 20.772C15.4559 21.1648 15.9461 21.3612 16.6324 21.3612C17.8824 21.3612 18.5074 20.6553 18.5074 19.2436H20.4375C20.4252 20.4835 20.0882 21.4226 19.4265 22.0609C18.777 22.687 17.8333 23 16.5956 23C15.3578 23 14.4081 22.6563 13.7463 21.9688C13.0968 21.2814 12.7721 20.3178 12.7721 19.0779V16.5552C14.1324 16.5552 15.1311 16.5184 15.7684 16.4448C16.4056 16.3588 16.8775 16.187 17.1838 15.9292C17.5025 15.6714 17.7108 15.254 17.8088 14.6771H12V13.1671H17.9007V11.5283H12V10H22V11.5283H19.8676V13.1671Z" fill="#CBBBE6"/>
<path d="M26 2.79785V9.79785" stroke="#CBBBE6" stroke-width="2" stroke-linecap="round" stroke-linejoin="round"/>
<path d="M29.5 6.29785L26 9.79785L22.5 6.29785" stroke="#CBBBE6" stroke-width="2" stroke-linecap="round" stroke-linejoin="round"/>
</g>
<defs>
<clipPath id="clip0_366_7042">
<rect width="32" height="32" fill="white" transform="translate(0 0.297852)"/>
</clipPath>
</defs>
</svg>
