<svg width="18" height="18" viewBox="0 0 18 18" fill="none" xmlns="http://www.w3.org/2000/svg">
<path d="M3.82324 15.0547C3.59824 15.0547 3.37324 14.9689 3.20168 14.7973C2.85855 14.4542 2.85855 13.8977 3.20168 13.5542L13.5555 3.2007C13.8987 2.85758 14.4552 2.85758 14.7987 3.2007C15.1418 3.54383 15.1418 4.10035 14.7987 4.44383L4.44445 14.7973C4.27289 14.9689 4.04824 15.0547 3.82324 15.0547Z" fill="#677995"/>
<path d="M14.1768 15.055C13.9518 15.055 13.7268 14.9693 13.5552 14.7977L3.20168 4.44383C2.85855 4.1007 2.85855 3.54418 3.20168 3.2007C3.5448 2.85758 4.10133 2.85758 4.4448 3.2007L14.7987 13.5546C15.1418 13.8977 15.1418 14.4542 14.7987 14.7977C14.6268 14.9693 14.4018 15.055 14.1768 15.055Z" fill="#677995"/>
</svg>
