<svg width="20" height="24" viewBox="0 0 20 24" fill="none" xmlns="http://www.w3.org/2000/svg">
    <path d="M13.4688 7.03125C12.5641 7.03125 11.8281 6.29527 11.8281 5.39062V0H3.4375C2.01592 0 0.859375 1.15655 0.859375 2.57812V21.4219C0.859375 22.8435 2.01592 24 3.4375 24H16.5625C17.9841 24 19.1406 22.8435 19.1406 21.4219V7.03125H13.4688ZM4.70312 16.875H8.11188C8.50019 16.875 8.815 17.1898 8.815 17.5781C8.815 17.9664 8.50019 18.2812 8.11188 18.2812H4.70312C4.31481 18.2812 4 17.9664 4 17.5781C4 17.1898 4.31481 16.875 4.70312 16.875ZM4 13.8281C4 13.4398 4.31481 13.125 4.70312 13.125H15.0156C15.4039 13.125 15.7188 13.4398 15.7188 13.8281C15.7188 14.2164 15.4039 14.5312 15.0156 14.5312H4.70312C4.31481 14.5312 4 14.2164 4 13.8281ZM15.0156 9.375C15.4039 9.375 15.7188 9.68981 15.7188 10.0781C15.7188 10.4664 15.4039 10.7812 15.0156 10.7812H4.70312C4.31481 10.7812 4 10.4664 4 10.0781C4 9.68981 4.31481 9.375 4.70312 9.375H15.0156Z" fill="white"/>
  </svg>
