<svg width="14" height="14" viewBox="0 0 14 14" fill="none" xmlns="http://www.w3.org/2000/svg">
<path d="M7.01034 10.6117C6.89161 10.6124 6.77391 10.5897 6.66399 10.5448C6.55407 10.4999 6.4541 10.4337 6.3698 10.3501L0.956729 4.93704C0.786846 4.76716 0.691406 4.53675 0.691406 4.29649C0.691406 4.05624 0.786846 3.82583 0.956729 3.65595C1.12661 3.48606 1.35702 3.39062 1.59728 3.39062C1.83753 3.39062 2.06794 3.48606 2.23782 3.65595L7.01034 8.43749L11.7829 3.66497C11.9555 3.51717 12.1775 3.43994 12.4045 3.44871C12.6316 3.45748 12.847 3.5516 13.0076 3.71228C13.1683 3.87295 13.2624 4.08834 13.2712 4.31539C13.28 4.54245 13.2027 4.76445 13.0549 4.93704L7.64187 10.3501C7.47383 10.5168 7.24702 10.6107 7.01034 10.6117Z" fill="#586276"/>
</svg>
