<svg width="24" height="24" viewBox="0 0 24 24" fill="none" xmlns="http://www.w3.org/2000/svg">
<g clip-path="url(#clip0_2218_6665)">
<path d="M22 19V20L14 22.5L7 20.56V22H1V11H8.97L15.13 13.3C16.25 13.72 17 14.8 17 16H19C20.66 16 22 17.34 22 19ZM5 20V13H3V20H5ZM19.9 18.57C19.74 18.24 19.39 18.01 19 18.01H13.65C13.11 18.01 12.58 17.92 12.07 17.75L9.69 16.96L10.32 15.06L12.7 15.85C13.01 15.95 15 16 15 16C15 15.63 14.77 15.3 14.43 15.17L8.61 13H7V18.48L13.97 20.41L19.9 18.57Z" fill="#666666"/>
<path fill-rule="evenodd" clip-rule="evenodd" d="M16.2854 12.0006C19.1258 12.0006 21.4283 9.69802 21.4283 6.8577C21.4283 4.01738 19.1258 1.71484 16.2854 1.71484C13.4451 1.71484 11.1426 4.01738 11.1426 6.8577C11.1426 9.69802 13.4451 12.0006 16.2854 12.0006ZM16.2854 10.2863C18.179 10.2863 19.714 8.75125 19.714 6.8577C19.714 4.96415 18.179 3.42913 16.2854 3.42913C14.3919 3.42913 12.8569 4.96415 12.8569 6.8577C12.8569 8.75125 14.3919 10.2863 16.2854 10.2863Z" fill="#666666"/>
</g>
<defs>
<clipPath id="clip0_2218_6665">
<rect width="24" height="24" fill="white"/>
</clipPath>
</defs>
</svg>
