<svg width="24" height="24" viewBox="0 0 24 24" fill="none" xmlns="http://www.w3.org/2000/svg">
<g clip-path="url(#clip0_2218_6677)">
<path d="M15 1H9V3H15V1ZM19.03 7.39L20.45 5.97C20.02 5.46 19.55 4.98 19.04 4.56L17.62 5.98C16.07 4.74 14.12 4 12 4C7.03 4 3 8.03 3 13C3 17.97 7.02 22 12 22C16.98 22 21 17.97 21 13C21 10.88 20.26 8.93 19.03 7.39ZM12 20C8.13 20 5 16.87 5 13C5 9.13 8.13 6 12 6C15.87 6 19 9.13 19 13C19 16.87 15.87 20 12 20Z" fill="#666666"/>
<path d="M8.14258 8.57227H11.0842C11.2009 8.57227 11.3454 8.57782 11.5176 8.58893C11.6898 8.59449 11.8509 8.61115 12.0009 8.63893C12.6731 8.74449 13.2315 8.97504 13.6759 9.3306C14.1259 9.6806 14.462 10.1223 14.6842 10.6556C14.9065 11.1834 15.0176 11.7695 15.0176 12.4139C15.0176 13.3528 14.7926 14.1528 14.3426 14.8139C13.8926 15.4695 13.2176 15.9084 12.3176 16.1306C12.1009 16.1862 11.9009 16.2223 11.7176 16.2389C11.5342 16.2556 11.3176 16.2639 11.0676 16.2639H8.14258V14.6139H11.0176C11.1231 14.6139 11.2426 14.6084 11.3759 14.5973C11.5148 14.5862 11.6454 14.5667 11.7676 14.5389C12.1287 14.45 12.4148 14.2945 12.6259 14.0723C12.8426 13.85 12.9981 13.5917 13.0926 13.2973C13.1926 13.0028 13.2426 12.7084 13.2426 12.4139C13.2426 12.1195 13.1926 11.825 13.0926 11.5306C12.9981 11.2362 12.8426 10.9778 12.6259 10.7556C12.4148 10.5334 12.1287 10.3806 11.7676 10.2973C11.6454 10.2639 11.5148 10.2417 11.3759 10.2306C11.2426 10.2195 11.1231 10.2139 11.0176 10.2139H8.14258V8.57227ZM8.14258 16.2639L10.0092 15.7639L15.4342 20.5723H12.9676L8.14258 16.2639ZM8.18424 13.0973V11.7389H16.3509V13.0973H8.18424ZM10.8842 9.9306V8.57227H16.3009V9.9306H10.8842Z" fill="#666666"/>
</g>
<defs>
<clipPath id="clip0_2218_6677">
<rect width="24" height="24" fill="white"/>
</clipPath>
</defs>
</svg>
