<svg width="21" height="20" viewBox="0 0 21 20" fill="none" xmlns="http://www.w3.org/2000/svg">
<g clip-path="url(#clip0_6469_8983)">
<path d="M18.0003 10.1833C18.0003 5.60833 14.4503 2.5 10.5003 2.5C6.59199 2.5 3.00033 5.54167 3.00033 10.2333C2.50033 10.5167 2.16699 11.05 2.16699 11.6667V13.3333C2.16699 14.25 2.91699 15 3.83366 15H4.66699V9.91667C4.66699 6.69167 7.27532 4.08333 10.5003 4.08333C13.7253 4.08333 16.3337 6.69167 16.3337 9.91667V15.8333H9.66699V17.5H16.3337C17.2503 17.5 18.0003 16.75 18.0003 15.8333V14.8167C18.492 14.5583 18.8337 14.05 18.8337 13.45V11.5333C18.8337 10.95 18.492 10.4417 18.0003 10.1833Z" fill="#666666"/>
<path d="M18.0003 10.1833C18.0003 5.60833 14.4503 2.5 10.5003 2.5C6.59199 2.5 3.00033 5.54167 3.00033 10.2333C2.50033 10.5167 2.16699 11.05 2.16699 11.6667V13.3333C2.16699 14.25 2.91699 15 3.83366 15H4.66699V9.91667C4.66699 6.69167 7.27532 4.08333 10.5003 4.08333C13.7253 4.08333 16.3337 6.69167 16.3337 9.91667V15.8333H9.66699V17.5H16.3337C17.2503 17.5 18.0003 16.75 18.0003 15.8333V14.8167C18.492 14.5583 18.8337 14.05 18.8337 13.45V11.5333C18.8337 10.95 18.492 10.4417 18.0003 10.1833Z" fill="#666666"/>
<path d="M8.00033 11.6667C8.46056 11.6667 8.83366 11.2936 8.83366 10.8333C8.83366 10.3731 8.46056 10 8.00033 10C7.54009 10 7.16699 10.3731 7.16699 10.8333C7.16699 11.2936 7.54009 11.6667 8.00033 11.6667Z" fill="#666666"/>
<path d="M8.00033 11.6667C8.46056 11.6667 8.83366 11.2936 8.83366 10.8333C8.83366 10.3731 8.46056 10 8.00033 10C7.54009 10 7.16699 10.3731 7.16699 10.8333C7.16699 11.2936 7.54009 11.6667 8.00033 11.6667Z" fill="#666666"/>
<path d="M13.0003 11.6667C13.4606 11.6667 13.8337 11.2936 13.8337 10.8333C13.8337 10.3731 13.4606 10 13.0003 10C12.5401 10 12.167 10.3731 12.167 10.8333C12.167 11.2936 12.5401 11.6667 13.0003 11.6667Z" fill="#666666"/>
<path d="M13.0003 11.6667C13.4606 11.6667 13.8337 11.2936 13.8337 10.8333C13.8337 10.3731 13.4606 10 13.0003 10C12.5401 10 12.167 10.3731 12.167 10.8333C12.167 11.2936 12.5401 11.6667 13.0003 11.6667Z" fill="#666666"/>
<path d="M15.5004 9.19167C15.1004 6.81667 13.0337 5 10.542 5C8.01705 5 5.30038 7.09167 5.51705 10.375C7.57538 9.53333 9.12538 7.7 9.56705 5.46667C10.6587 7.65833 12.9004 9.16667 15.5004 9.19167Z" fill="#666666"/>
<path d="M15.5004 9.19167C15.1004 6.81667 13.0337 5 10.542 5C8.01705 5 5.30038 7.09167 5.51705 10.375C7.57538 9.53333 9.12538 7.7 9.56705 5.46667C10.6587 7.65833 12.9004 9.16667 15.5004 9.19167Z" fill="#666666"/>
</g>
<defs>
<clipPath id="clip0_6469_8983">
<rect width="20" height="20" fill="white" transform="translate(0.5)"/>
</clipPath>
</defs>
</svg>
