<svg width="16" height="17" viewBox="0 0 16 17" fill="none" xmlns="http://www.w3.org/2000/svg">
<path d="M8 3.73047C4.94303 3.73047 2.17081 5.40297 0.125192 8.11954C-0.0417306 8.34211 -0.0417306 8.65304 0.125192 8.87561C2.17081 11.5955 4.94303 13.268 8 13.268C11.057 13.268 13.8292 11.5955 15.8748 8.87888C16.0417 8.65631 16.0417 8.34538 15.8748 8.12282C13.8292 5.40297 11.057 3.73047 8 3.73047ZM8.21929 11.8573C6.19004 11.9849 4.51427 10.3124 4.64191 8.27992C4.74665 6.60415 6.10494 5.24586 7.78071 5.14113C9.80996 5.01348 11.4857 6.68598 11.3581 8.7185C11.2501 10.391 9.89179 11.7493 8.21929 11.8573ZM8.11783 10.3059C7.02465 10.3746 6.1213 9.47456 6.19331 8.38138C6.24895 7.47804 6.9821 6.74816 7.88545 6.68925C8.97862 6.62052 9.88197 7.52059 9.80996 8.61377C9.75105 9.52038 9.0179 10.2503 8.11783 10.3059Z" fill="#586276"/>
</svg>
