<svg width="21" height="20" viewBox="0 0 21 20" fill="none" xmlns="http://www.w3.org/2000/svg">
<g clip-path="url(#clip0_6469_8973)">
<path d="M15.4997 6.66665H14.6663V4.99998C14.6663 2.69998 12.7997 0.833313 10.4997 0.833313C8.19967 0.833313 6.33301 2.69998 6.33301 4.99998V6.66665H5.49967C4.58301 6.66665 3.83301 7.41665 3.83301 8.33331V16.6666C3.83301 17.5833 4.58301 18.3333 5.49967 18.3333H15.4997C16.4163 18.3333 17.1663 17.5833 17.1663 16.6666V8.33331C17.1663 7.41665 16.4163 6.66665 15.4997 6.66665ZM7.99967 4.99998C7.99967 3.61665 9.11634 2.49998 10.4997 2.49998C11.883 2.49998 12.9997 3.61665 12.9997 4.99998V6.66665H7.99967V4.99998ZM15.4997 16.6666H5.49967V8.33331H15.4997V16.6666ZM10.4997 14.1666C11.4163 14.1666 12.1663 13.4166 12.1663 12.5C12.1663 11.5833 11.4163 10.8333 10.4997 10.8333C9.58301 10.8333 8.83301 11.5833 8.83301 12.5C8.83301 13.4166 9.58301 14.1666 10.4997 14.1666Z" fill="#666666"/>
<path d="M15.4997 6.66665H14.6663V4.99998C14.6663 2.69998 12.7997 0.833313 10.4997 0.833313C8.19967 0.833313 6.33301 2.69998 6.33301 4.99998V6.66665H5.49967C4.58301 6.66665 3.83301 7.41665 3.83301 8.33331V16.6666C3.83301 17.5833 4.58301 18.3333 5.49967 18.3333H15.4997C16.4163 18.3333 17.1663 17.5833 17.1663 16.6666V8.33331C17.1663 7.41665 16.4163 6.66665 15.4997 6.66665ZM7.99967 4.99998C7.99967 3.61665 9.11634 2.49998 10.4997 2.49998C11.883 2.49998 12.9997 3.61665 12.9997 4.99998V6.66665H7.99967V4.99998ZM15.4997 16.6666H5.49967V8.33331H15.4997V16.6666ZM10.4997 14.1666C11.4163 14.1666 12.1663 13.4166 12.1663 12.5C12.1663 11.5833 11.4163 10.8333 10.4997 10.8333C9.58301 10.8333 8.83301 11.5833 8.83301 12.5C8.83301 13.4166 9.58301 14.1666 10.4997 14.1666Z" fill="#666666"/>
</g>
<defs>
<clipPath id="clip0_6469_8973">
<rect width="20" height="20" fill="white" transform="translate(0.5)"/>
</clipPath>
</defs>
</svg>
