<svg width="20" height="20" viewBox="0 0 20 20" fill="none" xmlns="http://www.w3.org/2000/svg">
<g clip-path="url(#clip0_6363_1643)">
<path d="M19.1663 9.99167L17.133 7.66667L17.4163 4.59167L14.408 3.90833L12.833 1.25L9.99967 2.46667L7.16634 1.25L5.59134 3.90833L2.58301 4.58333L2.86634 7.66667L0.833008 9.99167L2.86634 12.3167L2.58301 15.4L5.59134 16.0833L7.16634 18.75L9.99967 17.525L12.833 18.7417L14.408 16.0833L17.4163 15.4L17.133 12.325L19.1663 9.99167ZM15.8747 11.225L15.408 11.7667L15.4747 12.475L15.6247 14.1L14.0413 14.4583L13.3413 14.6167L12.9747 15.2333L12.1497 16.6333L10.6663 15.9917L9.99967 15.7083L9.34134 15.9917L7.85801 16.6333L7.03301 15.2417L6.66634 14.625L5.96634 14.4667L4.38301 14.1083L4.53301 12.475L4.59967 11.7667L4.13301 11.225L3.05801 10L4.13301 8.76667L4.59967 8.225L4.52467 7.50833L4.37467 5.89167L5.95801 5.53333L6.65801 5.375L7.02467 4.75833L7.84967 3.35833L9.33301 4L9.99967 4.28333L10.658 4L12.1413 3.35833L12.9663 4.75833L13.333 5.375L14.033 5.53333L15.6163 5.89167L15.4663 7.51667L15.3997 8.225L15.8663 8.76667L16.9413 9.99167L15.8747 11.225Z" fill="#BAC8D3"/>
<path d="M19.1663 9.99167L17.133 7.66667L17.4163 4.59167L14.408 3.90833L12.833 1.25L9.99967 2.46667L7.16634 1.25L5.59134 3.90833L2.58301 4.58333L2.86634 7.66667L0.833008 9.99167L2.86634 12.3167L2.58301 15.4L5.59134 16.0833L7.16634 18.75L9.99967 17.525L12.833 18.7417L14.408 16.0833L17.4163 15.4L17.133 12.325L19.1663 9.99167ZM15.8747 11.225L15.408 11.7667L15.4747 12.475L15.6247 14.1L14.0413 14.4583L13.3413 14.6167L12.9747 15.2333L12.1497 16.6333L10.6663 15.9917L9.99967 15.7083L9.34134 15.9917L7.85801 16.6333L7.03301 15.2417L6.66634 14.625L5.96634 14.4667L4.38301 14.1083L4.53301 12.475L4.59967 11.7667L4.13301 11.225L3.05801 10L4.13301 8.76667L4.59967 8.225L4.52467 7.50833L4.37467 5.89167L5.95801 5.53333L6.65801 5.375L7.02467 4.75833L7.84967 3.35833L9.33301 4L9.99967 4.28333L10.658 4L12.1413 3.35833L12.9663 4.75833L13.333 5.375L14.033 5.53333L15.6163 5.89167L15.4663 7.51667L15.3997 8.225L15.8663 8.76667L16.9413 9.99167L15.8747 11.225Z" fill="black" fill-opacity="0.2"/>
<path d="M8.40788 11.4583L6.47454 9.51668L5.24121 10.7583L8.40788 13.9333L14.5245 7.80002L13.2912 6.55835L8.40788 11.4583Z" fill="#BAC8D3"/>
<path d="M8.40788 11.4583L6.47454 9.51668L5.24121 10.7583L8.40788 13.9333L14.5245 7.80002L13.2912 6.55835L8.40788 11.4583Z" fill="black" fill-opacity="0.2"/>
</g>
<defs>
<clipPath id="clip0_6363_1643">
<rect width="20" height="20" fill="white"/>
</clipPath>
</defs>
</svg>
