<svg width="20" height="20" viewBox="0 0 20 20" fill="none" xmlns="http://www.w3.org/2000/svg">
<g clip-path="url(#clip0_548_40220)">
<path d="M9.16669 5.83317H10.8334V7.49984H9.16669V5.83317ZM9.16669 9.1665H10.8334V14.1665H9.16669V9.1665ZM10 1.6665C5.40002 1.6665 1.66669 5.39984 1.66669 9.99984C1.66669 14.5998 5.40002 18.3332 10 18.3332C14.6 18.3332 18.3334 14.5998 18.3334 9.99984C18.3334 5.39984 14.6 1.6665 10 1.6665ZM10 16.6665C6.32502 16.6665 3.33335 13.6748 3.33335 9.99984C3.33335 6.32484 6.32502 3.33317 10 3.33317C13.675 3.33317 16.6667 6.32484 16.6667 9.99984C16.6667 13.6748 13.675 16.6665 10 16.6665Z" fill="#777777"/>
</g>
<defs>
<clipPath id="clip0_548_40220">
<rect width="20" height="20" fill="white"/>
</clipPath>
</defs>
</svg>
