<svg width="18" height="14" viewBox="0 0 18 14" fill="none" xmlns="http://www.w3.org/2000/svg">
<path d="M16.418 0.671875H1.58203C0.707941 0.671875 0 1.38421 0 2.25391V11.7461C0 12.621 0.713145 13.3281 1.58203 13.3281H16.418C17.2847 13.3281 18 12.6239 18 11.7461V2.25391C18 1.38576 17.2949 0.671875 16.418 0.671875ZM16.1964 1.72656C15.8732 2.04807 10.3107 7.58124 10.1187 7.77228C9.81984 8.07111 9.42258 8.23564 9 8.23564C8.57742 8.23564 8.18016 8.07107 7.88034 7.77129C7.75118 7.6428 2.25011 2.17073 1.80359 1.72656H16.1964ZM1.05469 11.5314V2.46924L5.61227 7.00281L1.05469 11.5314ZM1.80425 12.2734L6.36005 7.74661L7.13556 8.51805C7.63358 9.01607 8.29571 9.29032 9 9.29032C9.70429 9.29032 10.3664 9.01607 10.8635 8.51903L11.64 7.74661L16.1957 12.2734H1.80425ZM16.9453 11.5314L12.3877 7.00281L16.9453 2.46924V11.5314Z" fill="#3B2B8C"/>
</svg>
