<svg width="24" height="24" viewBox="0 0 24 24" fill="none" xmlns="http://www.w3.org/2000/svg">
<path d="M12.2633 7.64751H3.82376C3.26418 7.64751 2.72752 7.86981 2.33184 8.26549C1.93616 8.66117 1.71387 9.19783 1.71387 9.75741V13.9772C1.71387 14.5368 1.93616 15.0734 2.33184 15.4691C2.72752 15.8648 3.26418 16.0871 3.82376 16.0871H4.8787V20.3069C4.8787 20.5866 4.98985 20.855 5.18769 21.0528C5.38553 21.2507 5.65386 21.3618 5.93365 21.3618H8.04354C8.32333 21.3618 8.59166 21.2507 8.7895 21.0528C8.98734 20.855 9.09848 20.5866 9.09848 20.3069V16.0871H12.2633L17.538 20.3069V3.42773L12.2633 7.64751ZM15.4282 15.6651L13.3183 13.9772H3.82376V9.75741H13.3183L15.4282 8.06949V15.6651ZM22.2853 11.8673C22.2853 13.6713 21.2725 15.3064 19.6479 16.0871V7.64751C21.262 8.43872 22.2853 10.0739 22.2853 11.8673Z" fill="#666666"/>
</svg>
