<svg width="54" height="54" viewBox="0 0 54 54" fill="none" xmlns="http://www.w3.org/2000/svg">
<rect width="54" height="54" rx="27" fill="url(#paint0_linear_189_2748)"/>
<path d="M42 36.0586C42 37.9586 40.4625 39.4961 38.5625 39.4961H15.4375C13.5375 39.4961 12 37.9586 12 36.0586V26.5215L26.0371 31.1963C26.3371 31.3088 26.6625 31.3711 27 31.3711C27.3375 31.3711 27.6627 31.3092 27.8877 31.2217L42 26.5215V36.0586ZM29.5 14.5C30.8787 14.5 32 15.6212 32 17V18.25H38.5625C40.4625 18.25 42 19.7875 42 21.6875V24.5498L27.2998 29.4502C27.1999 29.4876 27.0999 29.5 27 29.5C26.9001 29.5 26.8001 29.4876 26.7002 29.4502L12 24.5498V21.6875C12 19.7875 13.5375 18.25 15.4375 18.25H22V17C22 15.6213 23.1213 14.5 24.5 14.5H29.5ZM24.5 18.25H29.5V17H24.5V18.25Z" fill="url(#paint1_linear_189_2748)"/>
<defs>
<linearGradient id="paint0_linear_189_2748" x1="0" y1="0" x2="54.2821" y2="0.285035" gradientUnits="userSpaceOnUse">
<stop stop-color="#24008C"/>
<stop offset="1" stop-color="#4C00AD"/>
</linearGradient>
<linearGradient id="paint1_linear_189_2748" x1="12" y1="26.998" x2="42" y2="26.998" gradientUnits="userSpaceOnUse">
<stop stop-color="#01D033"/>
<stop offset="1" stop-color="#00FDE9"/>
</linearGradient>
</defs>
</svg>
