<svg width="20" height="21" viewBox="0 0 20 21" fill="none" xmlns="http://www.w3.org/2000/svg">
<path d="M14.375 8V5.94375C14.3733 4.83201 13.931 3.76627 13.1449 2.98015C12.3587 2.19402 11.293 1.75165 10.1813 1.75H9.81875C8.70701 1.75165 7.64127 2.19402 6.85515 2.98015C6.06902 3.76627 5.62665 4.83201 5.625 5.94375V8C5.12772 8 4.65081 8.19754 4.29917 8.54917C3.94754 8.90081 3.75 9.37772 3.75 9.875V15.6875C3.75165 16.6318 4.12752 17.537 4.79526 18.2047C5.463 18.8725 6.36817 19.2483 7.3125 19.25H12.6875C13.6318 19.2483 14.537 18.8725 15.2047 18.2047C15.8725 17.537 16.2483 16.6318 16.25 15.6875V9.875C16.25 9.37772 16.0525 8.90081 15.7008 8.54917C15.3492 8.19754 14.8723 8 14.375 8ZM6.875 5.94375C6.875 5.16302 7.18514 4.41426 7.7372 3.8622C8.28926 3.31014 9.03802 3 9.81875 3H10.1813C10.962 3 11.7107 3.31014 12.2628 3.8622C12.8149 4.41426 13.125 5.16302 13.125 5.94375V8H6.875V5.94375ZM15 15.6875C15 16.3008 14.7564 16.889 14.3227 17.3227C13.889 17.7564 13.3008 18 12.6875 18H7.3125C6.69919 18 6.11099 17.7564 5.67732 17.3227C5.24364 16.889 5 16.3008 5 15.6875V9.875C5 9.70924 5.06585 9.55027 5.18306 9.43306C5.30027 9.31585 5.45924 9.25 5.625 9.25H14.375C14.5408 9.25 14.6997 9.31585 14.8169 9.43306C14.9342 9.55027 15 9.70924 15 9.875V15.6875Z" fill="#5C5C5C"/>
<path d="M10.625 13.4497V15.4997C10.625 15.6655 10.5592 15.8245 10.4419 15.9417C10.3247 16.0589 10.1658 16.1247 10 16.1247C9.83424 16.1247 9.67527 16.0589 9.55806 15.9417C9.44085 15.8245 9.375 15.6655 9.375 15.4997V13.4497C9.1367 13.3121 8.95045 13.0998 8.84515 12.8455C8.73985 12.5913 8.72137 12.3095 8.79259 12.0437C8.86381 11.7779 9.02074 11.543 9.23905 11.3755C9.45735 11.208 9.72483 11.1172 10 11.1172C10.2752 11.1172 10.5426 11.208 10.761 11.3755C10.9793 11.543 11.1362 11.7779 11.2074 12.0437C11.2786 12.3095 11.2602 12.5913 11.1549 12.8455C11.0495 13.0998 10.8633 13.3121 10.625 13.4497Z" fill="#5C5C5C"/>
</svg>
