<svg width="24" height="24" viewBox="0 0 24 24" fill="none" xmlns="http://www.w3.org/2000/svg">
  <mask id="mask0_1543_11570" style="mask-type:alpha" maskUnits="userSpaceOnUse" x="0" y="0" width="24" height="24">
    <rect width="24" height="24" fill="#D9D9D9"/>
  </mask>
  <g mask="url(#mask0_1543_11570)">
    <path d="M3 22V2L4.5 3.5L6 2L7.5 3.5L9 2L10.5 3.5L12 2L13.5 3.5L15 2L16.5 3.5L18 2L19.5 3.5L21 2V22L19.5 20.5L18 22L16.5 20.5L15 22L13.5 20.5L12 22L10.5 20.5L9 22L7.5 20.5L6 22L4.5 20.5L3 22ZM6 17H18V15H6V17ZM6 13H18V11H6V13ZM6 9H18V7H6V9ZM5 19.1H19V4.9H5V19.1Z" fill="#848484"/>
  </g>
</svg>