<svg width="18" height="18" viewBox="0 0 18 18" fill="none" xmlns="http://www.w3.org/2000/svg">
<g clip-path="url(#clip0_3953_7950)">
<path d="M14.2253 11.1502C13.8568 10.7665 13.4123 10.5614 12.9412 10.5614C12.4739 10.5614 12.0256 10.7627 11.6419 11.1464L10.4415 12.3431C10.3427 12.2899 10.2439 12.2405 10.1489 12.1911C10.0122 12.1228 9.88299 12.0582 9.77282 11.9898C8.64831 11.2756 7.62637 10.3448 6.64623 9.14053C6.17135 8.54029 5.85223 8.03502 5.62049 7.52215C5.93201 7.23722 6.22074 6.9409 6.50186 6.65597C6.60824 6.5496 6.71461 6.43943 6.82098 6.33305C7.61878 5.53526 7.61878 4.50193 6.82098 3.70413L5.78385 2.667C5.66608 2.54923 5.54451 2.42766 5.43054 2.30609C5.2026 2.07055 4.96326 1.82741 4.71632 1.59947C4.34782 1.23477 3.90713 1.04102 3.44365 1.04102C2.98017 1.04102 2.53188 1.23477 2.15198 1.59947C2.14818 1.60327 2.14818 1.60327 2.14438 1.60707L0.852716 2.91014C0.366441 3.39641 0.0891121 3.98906 0.0283277 4.67668C-0.0628488 5.786 0.263867 6.81933 0.514603 7.49556C1.13004 9.15573 2.04941 10.6943 3.42086 12.3431C5.08483 14.33 7.08691 15.899 9.37392 17.0045C10.2477 17.4186 11.414 17.9087 12.7171 17.9923C12.7968 17.9961 12.8804 17.9999 12.9564 17.9999C13.834 17.9999 14.571 17.6845 15.1484 17.0577C15.1522 17.0501 15.1598 17.0463 15.1636 17.0387C15.3612 16.7994 15.5891 16.5828 15.8285 16.3511C15.9918 16.1953 16.159 16.032 16.3223 15.861C16.6984 15.4697 16.896 15.0138 16.896 14.5465C16.896 14.0755 16.6946 13.6234 16.3109 13.2435L14.2253 11.1502ZM15.5853 15.1506C15.5815 15.1506 15.5815 15.1544 15.5853 15.1506C15.4372 15.3101 15.2852 15.4545 15.1218 15.6141C14.8749 15.8496 14.6242 16.0965 14.3886 16.3739C14.0049 16.7842 13.5529 16.9779 12.9602 16.9779C12.9032 16.9779 12.8424 16.9779 12.7854 16.9741C11.6571 16.9019 10.6086 16.4613 9.82221 16.0851C7.67196 15.0442 5.78385 13.5664 4.21485 11.6935C2.91938 10.1321 2.05321 8.68845 1.47955 7.13845C1.12625 6.19249 0.997079 5.45548 1.05406 4.76026C1.09205 4.31577 1.26301 3.94727 1.57833 3.63195L2.8738 2.33648C3.05995 2.16173 3.2575 2.06675 3.45125 2.06675C3.69059 2.06675 3.88434 2.21111 4.00591 2.33268C4.0097 2.33648 4.0135 2.34028 4.0173 2.34408C4.24904 2.56062 4.46939 2.78477 4.70113 3.02411C4.8189 3.14567 4.94046 3.26724 5.06203 3.39261L6.09917 4.42974C6.50186 4.83244 6.50186 5.20475 6.09917 5.60744C5.989 5.71761 5.88262 5.82778 5.77245 5.93416C5.45333 6.26087 5.14941 6.5648 4.8189 6.86112C4.8113 6.86872 4.8037 6.87252 4.7999 6.88011C4.47319 7.20683 4.53397 7.52595 4.60235 7.74249C4.60615 7.75389 4.60995 7.76529 4.61375 7.77668C4.88348 8.43012 5.26338 9.04556 5.84083 9.77877L5.84463 9.78257C6.89316 11.0742 7.99868 12.081 9.21816 12.8522C9.37393 12.951 9.53348 13.0307 9.68544 13.1067C9.82221 13.1751 9.95138 13.2397 10.0615 13.3081C10.0767 13.3157 10.0919 13.3271 10.1071 13.3347C10.2363 13.3992 10.3579 13.4296 10.4832 13.4296C10.7986 13.4296 10.9961 13.2321 11.0607 13.1675L12.36 11.8682C12.4891 11.7391 12.6943 11.5833 12.9336 11.5833C13.1691 11.5833 13.3629 11.7315 13.4807 11.8606C13.4845 11.8644 13.4845 11.8644 13.4883 11.8682L15.5815 13.9615C15.9728 14.349 15.9728 14.7479 15.5853 15.1506Z" fill="#3B2B8C"/>
<path d="M9.72684 4.28108C10.7222 4.44824 11.6264 4.91931 12.3482 5.64113C13.07 6.36294 13.5373 7.26711 13.7082 8.26245C13.75 8.51319 13.9666 8.68794 14.2135 8.68794C14.2439 8.68794 14.2705 8.68415 14.3009 8.68035C14.582 8.63476 14.7681 8.36883 14.7226 8.0877C14.5174 6.88341 13.9476 5.78549 13.0776 4.91552C12.2076 4.04554 11.1097 3.47569 9.9054 3.27054C9.62427 3.22495 9.36214 3.4111 9.31275 3.68843C9.26336 3.96576 9.44572 4.23549 9.72684 4.28108Z" fill="#3B2B8C"/>
<path d="M17.9783 7.94018C17.6402 5.95709 16.7056 4.15255 15.2696 2.71652C13.8335 1.28049 12.029 0.345932 10.0459 0.00781895C9.76858 -0.0415683 9.50644 0.148383 9.45706 0.425712C9.41147 0.706839 9.59762 0.968972 9.87875 1.01836C11.6491 1.31848 13.2637 2.15807 14.5477 3.43834C15.8318 4.72241 16.6676 6.33699 16.9677 8.10734C17.0095 8.35807 17.2261 8.53283 17.473 8.53283C17.5034 8.53283 17.53 8.52903 17.5604 8.52523C17.8377 8.48344 18.0277 8.21751 17.9783 7.94018Z" fill="#3B2B8C"/>
</g>
<defs>
<clipPath id="clip0_3953_7950">
<rect width="18" height="18" fill="white"/>
</clipPath>
</defs>
</svg>
