<svg width="12" height="12" viewBox="0 0 12 12" fill="none" xmlns="http://www.w3.org/2000/svg">
<g clip-path="url(#clip0_5748_30171)">
<path d="M6.0022 0.000488281C3.60583 0.000488281 1.65625 1.95007 1.65625 4.34641C1.65625 7.32035 5.54545 11.6863 5.71103 11.8707C5.86656 12.0439 6.13811 12.0436 6.29336 11.8707C6.45895 11.6863 10.3481 7.32035 10.3481 4.34641C10.3481 1.95007 8.39854 0.000488281 6.0022 0.000488281ZM6.0022 6.53296C4.79652 6.53296 3.81566 5.55208 3.81566 4.34641C3.81566 3.14074 4.79655 2.15988 6.0022 2.15988C7.20784 2.15988 8.1887 3.14076 8.1887 4.34643C8.1887 5.55211 7.20784 6.53296 6.0022 6.53296Z" fill="#606C85"/>
</g>
<defs>
<clipPath id="clip0_5748_30171">
<rect width="12" height="12" fill="white"/>
</clipPath>
</defs>
</svg>
