<svg width="32" height="32" viewBox="0 0 32 32" fill="none" xmlns="http://www.w3.org/2000/svg">
<g clip-path="url(#clip0_5748_31778)">
<path d="M11.2355 25.0853L6.4615 27.6894C6.18135 27.8422 5.92958 28.0299 5.69531 28.2346C8.47871 30.5815 12.0718 31.9973 15.9975 31.9973C19.8943 31.9973 23.4644 30.6026 26.2399 28.2877C25.9839 28.0716 25.7062 27.8772 25.3983 27.7238L20.2861 25.168C19.6256 24.8378 19.2084 24.1628 19.2084 23.4243V21.4186C19.3521 21.255 19.5163 21.0449 19.692 20.7967C20.3887 19.8126 20.9158 18.73 21.2811 17.5943C21.9368 17.392 22.4198 16.7865 22.4198 16.0668V13.9258C22.4198 13.4548 22.2103 13.034 21.8849 12.7394V9.64442C21.8849 9.64442 22.5207 4.82812 15.9981 4.82812C9.47554 4.82812 10.1113 9.64442 10.1113 9.64442V12.7394C9.78527 13.034 9.57637 13.4548 9.57637 13.9258V16.0668C9.57637 16.6307 9.87282 17.127 10.3166 17.4138C10.8515 19.7425 12.2523 21.4186 12.2523 21.4186V23.3748C12.2517 24.0873 11.8617 24.7436 11.2355 25.0853Z" fill="#E7ECED"/>
<path d="M16.2735 0.00238259C7.43846 -0.148561 0.153328 6.89144 0.00238417 15.7265C-0.0833517 20.736 2.1494 25.2383 5.70442 28.2324C5.93688 28.0296 6.18623 27.8436 6.46337 27.6926L11.2374 25.0886C11.8635 24.7468 12.2536 24.0905 12.2536 23.3769V21.4206C12.2536 21.4206 10.8522 19.7446 10.3179 17.4158C9.87469 17.129 9.57763 16.6333 9.57763 16.0688V13.9278C9.57763 13.4569 9.78714 13.036 10.1126 12.7414V9.64646C10.1126 9.64646 9.4768 4.83016 15.9994 4.83016C22.5219 4.83016 21.8862 9.64646 21.8862 9.64646V12.7414C22.2122 13.036 22.4211 13.4569 22.4211 13.9278V16.0688C22.4211 16.7885 21.9381 17.3941 21.2824 17.5963C20.9171 18.732 20.39 19.8146 19.6933 20.7988C19.5176 21.0469 19.3533 21.257 19.2096 21.4206V23.4264C19.2096 24.1648 19.6268 24.8404 20.2874 25.1701L25.3995 27.7259C25.7062 27.8792 25.9834 28.073 26.2388 28.2886C29.6863 25.4134 31.9136 21.1145 31.9964 16.2735C32.1485 7.43846 25.1091 0.153326 16.2735 0.00238259Z" fill="#556080"/>
</g>
<defs>
<clipPath id="clip0_5748_31778">
<rect width="32" height="32" fill="white"/>
</clipPath>
</defs>
</svg>