<svg width="16" height="16" viewBox="0 0 16 16" fill="none" xmlns="http://www.w3.org/2000/svg">
<g clip-path="url(#clip0_1181_49949)">
<path d="M7.99219 3.23047C4.93522 3.23047 2.163 4.90297 0.117379 7.61954C-0.0495431 7.84211 -0.0495431 8.15304 0.117379 8.37561C2.163 11.0955 4.93522 12.768 7.99219 12.768C11.0492 12.768 13.8214 11.0955 15.867 8.37888C16.0339 8.15631 16.0339 7.84538 15.867 7.62282C13.8214 4.90297 11.0492 3.23047 7.99219 3.23047ZM8.21148 11.3573C6.18223 11.4849 4.50646 9.81245 4.6341 7.77992C4.73884 6.10415 6.09713 4.74586 7.7729 4.64113C9.80215 4.51348 11.4779 6.18598 11.3503 8.2185C11.2423 9.891 9.88397 11.2493 8.21148 11.3573ZM8.11001 9.8059C7.01684 9.87463 6.11349 8.97456 6.1855 7.88138C6.24114 6.97804 6.97429 6.24816 7.87763 6.18925C8.97081 6.12052 9.87416 7.02059 9.80215 8.11377C9.74324 9.02038 9.01009 9.75026 8.11001 9.8059Z" fill="#3B2B8C"/>
</g>
<defs>
<clipPath id="clip0_1181_49949">
<rect width="16" height="16" fill="white" transform="translate(-0.0078125)"/>
</clipPath>
</defs>
</svg>
