<svg width="54" height="54" viewBox="0 0 54 54" fill="none" xmlns="http://www.w3.org/2000/svg">
<rect width="54" height="54" rx="27" fill="#FF4E42"/>
<rect width="54" height="54" rx="27" fill="black" fill-opacity="0.6"/>
<g clip-path="url(#clip0_316_1600)">
<path d="M33.2168 12L42 20.7832V33.2168L33.2168 42H20.7832L12 33.2168V20.7832L20.7832 12H33.2168ZM16 23V31H17.9053V27.7637H20.291V26.248H17.9053V24.5615H21.0928V23H16ZM24.4121 23L21.582 31H23.5771L24.0449 29.5869H26.9648L27.4326 31H29.4502L26.6191 23H24.4121ZM30.3115 23V31H32.2168V23H30.3115ZM33.5977 23V31H38V29.4961H35.5039V23H33.5977ZM26.4746 28.083H24.5459L25.5049 25.1543L26.4746 28.083Z" fill="#FF4E42"/>
<path d="M33.2168 12L42 20.7832V33.2168L33.2168 42H20.7832L12 33.2168V20.7832L20.7832 12H33.2168ZM16 23V31H17.9053V27.7637H20.291V26.248H17.9053V24.5615H21.0928V23H16ZM24.4121 23L21.582 31H23.5771L24.0449 29.5869H26.9648L27.4326 31H29.4502L26.6191 23H24.4121ZM30.3115 23V31H32.2168V23H30.3115ZM33.5977 23V31H38V29.4961H35.5039V23H33.5977ZM26.4746 28.083H24.5459L25.5049 25.1543L26.4746 28.083Z" fill="white" fill-opacity="0.8"/>
</g>
<defs>
<clipPath id="clip0_316_1600">
<rect width="40" height="40" fill="white" transform="translate(7 7)"/>
</clipPath>
</defs>
</svg>
