<svg width="10" height="10" viewBox="0 0 10 10" fill="none" xmlns="http://www.w3.org/2000/svg">
<path d="M2.37179 8.93429L6.30484 5.00122L2.37179 1.06816C2.25576 0.950705 2.19091 0.792111 2.19141 0.627009C2.19191 0.461907 2.25772 0.30371 2.37446 0.186965C2.49121 0.0702191 2.64941 0.00441031 2.81451 0.00390913C2.97961 0.00340796 3.1382 0.0682551 3.25566 0.18429L7.63066 4.55929C7.74786 4.6765 7.81371 4.83547 7.81371 5.00122C7.81371 5.16698 7.74786 5.32595 7.63066 5.44316L3.25566 9.81816C3.1382 9.93419 2.97961 9.99904 2.81451 9.99854C2.64941 9.99804 2.49121 9.93223 2.37446 9.81548C2.25772 9.69874 2.19191 9.54054 2.19141 9.37544C2.19091 9.21034 2.25576 9.05174 2.37179 8.93429Z" fill="black"/>
</svg>
