<svg width="56" height="56" viewBox="0 0 56 56" fill="none" xmlns="http://www.w3.org/2000/svg">
<rect width="56" height="56" rx="28" fill="#363CD2"/>
<rect width="56" height="56" rx="28" fill="black" fill-opacity="0.6"/>
<rect x="0.5" y="0.5" width="55" height="55" rx="27.5" stroke="url(#paint0_linear_548_40174)" stroke-opacity="0.6"/>
<path fill-rule="evenodd" clip-rule="evenodd" d="M28.5157 4L28.1024 8.82704L29.1309 8.91377L29.2775 7.20261L30.0283 7.26593L30.8032 9.05475L31.8508 9.14309L31.8324 9.16867L32.8938 9.47778L33.5549 8.51905L35.2464 9.0117L35.2797 10.1727L36.341 10.4818L36.1012 5.36311L34.8248 4.99136L31.903 9.07016L31.0671 7.1882C31.0825 7.18306 31.0977 7.17772 31.1128 7.17218C31.3877 7.07193 31.6047 6.91295 31.7637 6.69529C31.9229 6.47606 32.0162 6.20617 32.0436 5.88562C32.0709 5.56665 32.0258 5.2835 31.9082 5.03619C31.7923 4.78744 31.6093 4.58763 31.359 4.43675C31.1105 4.28444 30.8025 4.19279 30.4351 4.16182L28.5157 4ZM35.2223 8.17143L34.0334 7.82515L35.1305 6.23412L35.1671 6.24478L35.2223 8.17143ZM29.3477 6.3824L30.0461 6.44128C30.2424 6.45783 30.4079 6.44487 30.5423 6.4024C30.6767 6.35992 30.7802 6.28793 30.8527 6.18642C30.9268 6.08504 30.9706 5.955 30.9842 5.7963C30.9979 5.63603 30.977 5.49816 30.9215 5.3827C30.8676 5.26736 30.7773 5.17587 30.6507 5.10822C30.5258 5.03914 30.3644 4.99625 30.1665 4.97956L29.4729 4.92108L29.3477 6.3824ZM23.0121 4.34009L24.1161 9.05909L23.1106 9.29066L22.0066 4.57168L23.0121 4.34009ZM16.601 6.77286L18.5454 11.2166L19.4923 10.8087L18.6891 8.97306L20.6113 8.14501L21.4144 9.98065L22.3591 9.57372L20.4148 5.12999L19.4701 5.53694L20.2723 7.37039L18.3502 8.19844L17.5479 6.36496L16.601 6.77286ZM12.7486 10.3478L12.2526 9.66152L15.5114 7.34308L16.0073 8.02938L14.7925 8.89363L17.1416 12.1444L16.3124 12.7343L13.9634 9.48357L12.7486 10.3478ZM12.373 16.4601L13.1265 15.6566L12.5582 14.641L13.7591 13.3605L14.8203 13.8504L15.5739 13.0469L10.853 10.9694L9.94679 11.9357L12.0897 15.9318L7.53269 14.9538L6.84307 16.0825L10.1444 20.024L10.7179 19.0854L9.95358 18.2054L10.8674 16.7097L12.0069 16.9756L12.3491 16.4155L12.373 16.4601ZM12.9909 13.0059L11.2297 12.1928L11.2037 12.2205L12.1469 13.9059L12.9909 13.0059ZM40.2925 23.5216C40.8631 23.5749 41.3454 23.9747 41.521 24.5377C41.6979 25.1017 41.5334 25.7182 41.1024 26.1085L35.244 31.4271L36.9716 39.3063C37.098 39.8841 36.881 40.4833 36.4165 40.8317C35.9533 41.1794 35.3368 41.2074 34.8478 40.9026L28.1647 36.7656L21.4791 40.9026C21.2531 41.0428 21.0013 41.1134 20.7475 41.1134C20.4531 41.1134 20.1611 41.0185 19.9116 40.8317C19.4474 40.4843 19.2302 39.8855 19.3566 39.3063L21.0841 31.4271L15.2256 26.1074C14.7948 25.7182 14.6315 25.1007 14.8083 24.5377C14.9851 23.9747 15.4661 23.5761 16.0357 23.5216L23.7875 22.7929L26.8522 15.367C27.0782 14.8214 27.5929 14.4691 28.1647 14.4691C28.7365 14.4691 29.2512 14.8214 29.4771 15.3657L32.5419 22.7929L40.2925 23.5216ZM30.901 24.6383H31.8403L32.6959 25.717L31.8403 26.8587H30.901L31.7398 25.717L30.901 24.6383ZM33.7279 24.6383H32.6947L33.6174 25.717L32.6947 26.8587H33.7279L34.669 25.717L33.7279 24.6383ZM35.5239 24.6383H34.4908L35.4135 25.717L34.4908 26.8587H35.5239L36.4651 25.717L35.5239 24.6383ZM30.3642 32.2718C30.6428 31.846 30.7868 31.3417 30.7764 30.8281C30.7764 30.0738 30.5269 29.4842 30.0279 29.0593C29.5276 28.644 28.8054 28.3522 27.8612 28.184C27.2658 28.0859 26.8559 27.966 26.6316 27.8244C26.527 27.7647 26.4403 27.6766 26.381 27.5696C26.3216 27.4627 26.2919 27.341 26.2951 27.2178C26.2911 27.0951 26.3185 26.9735 26.3745 26.8652C26.4304 26.7568 26.513 26.6655 26.6139 26.6003C26.83 26.4466 27.1254 26.3697 27.5 26.3697C27.8816 26.3697 28.1846 26.4514 28.4089 26.6148C28.5219 26.7038 28.6166 26.8149 28.6876 26.9417C28.7587 27.0686 28.8047 27.2087 28.8229 27.354H30.6268C30.5563 26.5259 30.2421 25.8654 29.6844 25.3727C29.1301 24.8836 28.4142 24.639 27.537 24.639C26.9924 24.6293 26.4521 24.7388 25.9516 24.9605C25.5118 25.1515 25.1363 25.4717 24.8718 25.8812C24.6051 26.2962 24.468 26.7854 24.479 27.2832C24.479 28.0338 24.7198 28.6089 25.2012 29.0084C25.6838 29.4031 26.3872 29.684 27.3116 29.851C27.8987 29.9588 28.3151 30.092 28.5605 30.2506C28.6695 30.3162 28.7601 30.4098 28.8237 30.5221C28.8872 30.6345 28.9216 30.7619 28.9233 30.892C28.9252 31.0221 28.8942 31.1504 28.8338 31.2646C28.7733 31.3787 28.6852 31.4748 28.5782 31.5436C28.3456 31.7022 28.0214 31.7816 27.6058 31.7816C27.1689 31.7816 26.8271 31.6853 26.5805 31.4928C26.4576 31.3921 26.3572 31.2651 26.2863 31.1206C26.2155 30.9761 26.1758 30.8175 26.17 30.6556H24.3589C24.413 31.5601 24.7271 32.266 25.3014 32.7732C25.871 33.2706 26.639 33.5193 27.6055 33.5193C28.1638 33.5292 28.718 33.4197 29.2332 33.1979C29.6883 33.007 30.0808 32.6856 30.3642 32.2718ZM9.24132 36.1169C9.41513 36.0331 9.52697 35.9056 9.57682 35.7344C9.62666 35.5632 9.6087 35.3622 9.52287 35.1314C9.46457 34.9746 9.39297 34.8503 9.30808 34.7587C9.2247 34.6665 9.1335 34.6058 9.03452 34.5765C8.93607 34.5486 8.83765 34.5527 8.73923 34.5887C8.65612 34.6158 8.59087 34.659 8.54351 34.7184C8.49668 34.7792 8.46325 34.8511 8.44328 34.9341C8.42478 35.0165 8.41538 35.1073 8.41501 35.2066C8.41616 35.3054 8.42398 35.4084 8.43844 35.5157L8.49185 35.9601C8.52085 36.1747 8.52884 36.3785 8.51592 36.5715C8.50296 36.7645 8.46459 36.9416 8.40085 37.1026C8.33711 37.2638 8.24379 37.4047 8.12094 37.5252C7.99862 37.6475 7.8423 37.7441 7.65202 37.8157C7.37113 37.9166 7.10168 37.9346 6.84365 37.8693C6.58766 37.805 6.35405 37.6621 6.14282 37.44C5.93363 37.2192 5.76027 36.9238 5.62276 36.5539C5.48635 36.187 5.4242 35.8467 5.43631 35.5329C5.44897 35.2207 5.53806 34.9478 5.70358 34.7141C5.87114 34.4813 6.11831 34.3009 6.44509 34.1728L6.7908 35.1027C6.64107 35.1693 6.52906 35.2599 6.45478 35.3745C6.38254 35.49 6.34452 35.6224 6.34074 35.7717C6.339 35.9219 6.36893 36.0799 6.43054 36.2456C6.49105 36.4084 6.56743 36.5409 6.6597 36.6433C6.75252 36.7472 6.8538 36.8168 6.96355 36.8523C7.07329 36.8877 7.18334 36.8853 7.29368 36.8449C7.39658 36.8072 7.47177 36.7453 7.5193 36.659C7.5674 36.5741 7.59458 36.465 7.60086 36.3316C7.60771 36.1996 7.60049 36.0435 7.57914 35.863L7.5204 35.3223C7.47187 34.9047 7.50624 34.5484 7.62355 34.2533C7.74083 33.9583 7.96902 33.7495 8.30804 33.6271C8.58483 33.5241 8.85437 33.5087 9.11662 33.5808C9.37944 33.6543 9.61743 33.8 9.83054 34.0178C10.0437 34.2357 10.2118 34.5103 10.335 34.8417C10.4605 35.179 10.5117 35.4947 10.4889 35.7888C10.4667 36.0844 10.3781 36.3404 10.2231 36.5568C10.0681 36.7732 9.85495 36.9336 9.58373 37.0379L9.24132 36.1169ZM6.65956 39.057L7.24942 39.9855L8.38436 39.7005L9.32446 41.1802L8.57532 42.0728L9.16518 43.0014L12.398 39.005L11.6886 37.8886L6.65956 39.057ZM9.86661 40.5343L11.1096 39.0533L11.0893 39.021L9.20578 39.4941L9.86661 40.5343ZM10.1758 44.0456L9.40823 43.2553L14.0935 41.0981L15.0166 42.0486L12.6687 46.6125L11.9011 45.8221L12.452 44.7973L11.2288 43.5378L10.1758 44.0456ZM13.7649 42.355L12.8507 44.0557L11.991 43.1703L13.7384 42.3277L13.7649 42.355ZM15.4976 42.618L15.0139 43.3128L16.2437 44.1561L13.9521 47.447L14.7916 48.0225L17.0831 44.7316L18.3129 45.5745L18.6931 45.0286L16.8883 49.3586L17.8422 49.7503L18.613 47.9008L20.5494 48.6955L19.7786 50.5449L20.7303 50.9353L22.5962 46.4587L21.6445 46.068L20.8747 47.9151L18.9382 47.1204L19.7081 45.2733L18.7861 44.8951L18.7967 44.8798L15.4976 42.618ZM22.9762 51.5789L23.997 46.8415L22.9875 46.6273L21.9667 51.3647L22.9762 51.5789ZM28.3692 52.0003L27.871 47.1814L29.7872 46.9862C30.154 46.9489 30.4738 46.9822 30.7465 47.0861C31.0207 47.188 31.238 47.3505 31.3985 47.5737C31.5603 47.7948 31.6577 48.0649 31.6906 48.3834C31.7237 48.7034 31.6826 48.9858 31.5673 49.2303C31.4519 49.4738 31.2685 49.6699 31.0171 49.8192C31.0033 49.8274 30.9893 49.8354 30.9752 49.8433L32.1992 51.6107L31.0656 51.7259L29.9691 50.1112L29.2195 50.1874L29.3961 51.8958L28.3692 52.0003ZM29.832 49.2976L29.1348 49.3687L28.984 47.9097L29.6765 47.8391C29.8741 47.8192 30.0408 47.8315 30.1764 47.8764C30.3135 47.9194 30.4193 47.9927 30.4939 48.0963C30.57 48.1992 30.6164 48.3311 30.6329 48.4909C30.6493 48.6495 30.6306 48.7853 30.5768 48.8986C30.5246 49.0115 30.4364 49.1014 30.3123 49.168C30.1882 49.2346 30.0281 49.2776 29.832 49.2976ZM32.8697 51.4948L33.9254 51.1674L33.939 50.0056L35.6216 49.4838L36.2987 50.431L37.3545 50.1036L34.2914 45.9781L33.0217 46.3721L32.8697 51.4948ZM35.1315 48.7982L34.0076 47.226L33.9712 47.2373L33.9487 49.165L35.1315 48.7982ZM35.4191 46.5411L35.008 45.8017L38.5187 43.8797L38.9299 44.619L37.6212 45.3354L39.569 48.8378L38.6755 49.3268L36.7279 45.8247L35.4191 46.5411ZM43.1118 46.5857L40.0579 42.8055L39.2526 43.4463L42.3062 47.2262L43.1118 46.5857ZM43.2434 39.237L46.929 42.4141L46.3443 43.0818L42.6315 42.6732L42.608 42.7001L44.9278 44.6998L44.2511 45.4728L40.5651 42.2958L41.1593 41.6174L44.8593 42.0367L44.8875 42.0047L42.5694 40.0064L43.2434 39.237ZM45.8938 37.073C46.0005 37.0624 46.113 37.0697 46.2311 37.095L46.7289 36.1789C46.5003 36.0943 46.2701 36.0562 46.0381 36.0646C45.8045 36.0723 45.5793 36.1229 45.3624 36.2164C45.1463 36.3086 44.9465 36.4401 44.7636 36.6109C44.579 36.7809 44.4212 36.9867 44.29 37.2282C44.1369 37.51 44.0443 37.7981 44.0124 38.0928C43.9805 38.3876 44.01 38.6767 44.1017 38.9601C44.193 39.2439 44.3484 39.5097 44.5676 39.7578C44.7861 40.0036 45.0694 40.2197 45.4178 40.4062C45.871 40.6487 46.3083 40.7743 46.7296 40.7829C47.1505 40.7893 47.5325 40.6894 47.8762 40.4825C48.2183 40.275 48.4979 39.9713 48.715 39.5716C48.9097 39.2132 49.0097 38.8565 49.0151 38.5012C49.0191 38.1448 48.9289 37.8154 48.7449 37.5127C48.5596 37.2093 48.278 36.9566 47.9004 36.7546L47.359 36.4649L46.3892 38.2494L47.0733 38.6151L47.5711 37.6994C47.7408 37.7949 47.8694 37.9138 47.9568 38.0559C48.0497 38.2041 48.0937 38.3709 48.0887 38.5565C48.083 38.7396 48.0246 38.9331 47.9138 39.1373C47.7916 39.3621 47.6308 39.528 47.4321 39.6349C47.2317 39.7408 47.0021 39.7828 46.7433 39.7608C46.4846 39.7388 46.2053 39.6479 45.9059 39.4877C45.6068 39.3275 45.3782 39.1463 45.2211 38.9438C45.0623 38.7406 44.9731 38.5281 44.9529 38.3057C44.9334 38.0822 44.9831 37.8614 45.1016 37.6436C45.1647 37.527 45.2372 37.4287 45.3188 37.3485C45.4007 37.2672 45.4903 37.2039 45.587 37.159C45.683 37.1117 45.7854 37.083 45.8938 37.073ZM47.3589 33.3934C47.1689 33.3585 47.0028 33.3954 46.8601 33.5039C46.7178 33.6124 46.6121 33.7848 46.5433 34.0212C46.4966 34.1818 46.4798 34.3239 46.4936 34.4476C46.5057 34.5709 46.5426 34.6735 46.6047 34.7553C46.6675 34.8357 46.749 34.8903 46.8497 34.9192C46.933 34.9463 47.0112 34.9499 47.085 34.93C47.1592 34.9086 47.229 34.8704 47.2945 34.8154C47.3586 34.7599 47.4207 34.6923 47.4801 34.6125C47.5385 34.5324 47.5935 34.4448 47.6462 34.3498L47.8688 33.9606C47.9735 33.7708 48.089 33.602 48.2149 33.4542C48.3407 33.3064 48.4774 33.1864 48.625 33.0942C48.7727 33.0019 48.9318 32.9434 49.103 32.9186C49.2746 32.8923 49.4582 32.9064 49.6539 32.9609C49.9405 33.0448 50.1681 33.1889 50.3369 33.3933C50.5048 33.5957 50.6071 33.8483 50.6447 34.1513C50.681 34.4523 50.6441 34.7921 50.5336 35.1709C50.4242 35.5466 50.2708 35.8572 50.0738 36.1026C49.8767 36.3465 49.6418 36.5139 49.3689 36.6047C49.095 36.6935 48.7882 36.6933 48.4485 36.6041L48.7257 35.652C48.8862 35.6865 49.0305 35.6794 49.1587 35.6309C49.286 35.5804 49.3957 35.4961 49.488 35.3782C49.5793 35.2582 49.6495 35.1134 49.6992 34.9437C49.7475 34.7771 49.7653 34.6254 49.7522 34.4887C49.7394 34.3504 49.6998 34.2348 49.6327 34.1416C49.5652 34.0485 49.4753 33.9857 49.3622 33.9533C49.2571 33.9231 49.1594 33.9287 49.0695 33.9703C48.9802 34.0103 48.8929 34.0821 48.8083 34.1858C48.7237 34.288 48.6361 34.4181 48.5455 34.5759L48.2696 35.0458C48.0591 35.4106 47.8184 35.6773 47.5476 35.8458C47.277 36.0144 46.9685 36.0482 46.6221 35.9472C46.3378 35.8673 46.1116 35.7211 45.9434 35.5087C45.7759 35.2948 45.6715 35.0375 45.6299 34.7367C45.5886 34.4359 45.6175 34.1158 45.7162 33.7765C45.8169 33.4311 45.9642 33.1467 46.1582 32.9233C46.3529 32.6985 46.5775 32.5445 46.8316 32.4615C47.0857 32.3784 47.3532 32.3747 47.6338 32.4503L47.3589 33.3934ZM6.3254 26.9672L6.01264 26.127L5.69989 26.9672L5.00565 26.3947L5.15818 27.2775L4.26848 27.1262L4.84543 27.815L3.99866 28.1253L4.84543 28.4356L4.26848 29.1245L5.15818 28.9731L5.00565 29.8559L5.69989 29.2835L6.01264 30.1237L6.3254 29.2835L7.01963 29.8559L6.8671 28.9731L7.75682 29.1245L7.17986 28.4356L8.02663 28.1253L7.17986 27.815L7.75682 27.1262L6.8671 27.2775L7.01963 26.3947L6.3254 26.9672ZM49.9874 26.127L50.3002 26.9672L50.9944 26.3947L50.842 27.2775L51.7315 27.1262L51.1545 27.815L52.0014 28.1253L51.1545 28.4356L51.7315 29.1245L50.842 28.9731L50.9944 29.8559L50.3002 29.2835L49.9874 30.1237L49.6745 29.2835L48.9804 29.8559L49.1328 28.9731L48.2433 29.1245L48.8203 28.4356L47.9734 28.1253L48.8203 27.815L48.2433 27.1262L49.1328 27.2775L48.9804 26.3947L49.6745 26.9672L49.9874 26.127ZM5.98746 19.9906C6.13567 19.89 6.3037 19.8622 6.49154 19.9072L6.8177 18.9804C6.54154 18.8897 6.27429 18.879 6.01595 18.9482C5.75761 19.0173 5.52513 19.1589 5.31849 19.373C5.11238 19.5855 4.9496 19.8615 4.83014 20.201C4.71278 20.5345 4.66651 20.8525 4.69133 21.1551C4.71615 21.4577 4.80638 21.7203 4.96203 21.9429C5.1182 22.164 5.33609 22.3222 5.6157 22.4174C5.95578 22.5369 6.26565 22.5198 6.54531 22.3662C6.82496 22.2125 7.07991 21.9593 7.31014 21.6064L7.61143 21.1521C7.71065 20.9994 7.80517 20.8743 7.89503 20.7768C7.98539 20.6778 8.07632 20.6108 8.16782 20.5757C8.25983 20.5391 8.35757 20.5387 8.46113 20.5746C8.57216 20.613 8.65867 20.6806 8.7206 20.7772C8.78256 20.8739 8.81606 20.9915 8.82109 21.1302C8.82666 21.2675 8.80065 21.418 8.74302 21.5817C8.68434 21.7485 8.60617 21.8893 8.50852 22.0041C8.4099 22.1169 8.29568 22.1951 8.16588 22.2387C8.0351 22.2802 7.8906 22.2794 7.7324 22.2363L7.40308 23.172C7.7373 23.2795 8.04366 23.2963 8.3222 23.2224C8.59972 23.1465 8.84345 22.9921 9.05337 22.7591C9.2638 22.5247 9.43402 22.2229 9.56395 21.8536C9.69493 21.4814 9.75051 21.1441 9.73074 20.8416C9.70996 20.5371 9.62142 20.2792 9.4651 20.0681C9.30781 19.8549 9.08838 19.6987 8.80683 19.5994C8.61422 19.5344 8.43162 19.5104 8.25899 19.5274C8.08686 19.5429 7.92453 19.5928 7.77204 19.6769C7.61955 19.761 7.47646 19.8735 7.34273 20.0142C7.20903 20.155 7.08457 20.3173 6.96934 20.5012L6.7257 20.8778C6.66809 20.9697 6.60807 21.0542 6.54565 21.1311C6.48172 21.2075 6.41622 21.2717 6.34913 21.3236C6.28053 21.375 6.20867 21.4094 6.13352 21.4268C6.05891 21.4427 5.98086 21.4349 5.89938 21.4033C5.80035 21.369 5.72178 21.31 5.66366 21.2264C5.60607 21.1413 5.57464 21.0368 5.56938 20.9131C5.56261 20.7888 5.587 20.6478 5.64254 20.49C5.72427 20.2577 5.83925 20.0913 5.98746 19.9906ZM8.15185 16.0759L10.0428 16.5172L9.40042 17.5685L8.13208 16.1082L8.15185 16.0759ZM37.9134 6.02261L37.5154 6.76898L38.8365 7.46275L36.9508 10.9981L37.8527 11.4717L39.7384 7.93635L41.0596 8.63014L41.4577 7.88376L37.9134 6.02261ZM43.0956 9.15846L40.1092 12.9908L39.2925 12.3643L42.2789 8.53191L43.0956 9.15846ZM44.2024 17.0375L47.8316 13.797L47.1441 13.0391L44.8616 15.0771L44.8331 15.0454L45.7058 11.4531L45.0999 10.7849L41.4707 14.0254L42.1612 14.7868L44.4454 12.7472L44.4692 12.7736L43.6059 16.3798L44.2024 17.0375ZM48.8059 18.5038C48.8909 18.4186 48.957 18.3282 49.005 18.2327C49.0547 18.1364 49.0849 18.0354 49.096 17.9297C49.1094 17.8245 49.1033 17.7157 49.0778 17.6033C49.0533 17.4922 49.0083 17.3789 48.9429 17.2634C48.8207 17.0476 48.6593 16.888 48.4585 16.7846C48.2585 16.6827 48.0296 16.6439 47.7718 16.6682C47.5153 16.6919 47.2391 16.7863 46.9423 16.9516C46.6459 17.1169 46.419 17.3022 46.2619 17.5075C46.1045 17.7127 46.0176 17.9277 46.0008 18.1523C45.9854 18.3761 46.0407 18.5994 46.167 18.8222C46.2814 19.0242 46.415 19.1767 46.5681 19.2795C46.7231 19.3829 46.8886 19.4353 47.0645 19.4368C47.2323 19.4395 47.4025 19.3952 47.5745 19.3039L47.0608 18.3969L47.7385 18.0192L48.7391 19.7864L48.2031 20.0854C47.8288 20.294 47.4633 20.3948 47.1055 20.388C46.7493 20.3804 46.4207 20.2796 46.1196 20.0858C45.8195 19.8912 45.5695 19.6165 45.3684 19.2618C45.1442 18.8659 45.0351 18.469 45.0415 18.0712C45.0492 17.6726 45.1684 17.2987 45.399 16.9494C45.6316 16.6008 45.9726 16.3013 46.4214 16.051C46.7664 15.8586 47.1021 15.7366 47.4284 15.6849C47.7567 15.6339 48.0661 15.6459 48.3565 15.7209C48.6468 15.7959 48.909 15.9256 49.143 16.11C49.3769 16.2944 49.5726 16.5261 49.7307 16.8052C49.8663 17.0444 49.9569 17.2868 50.0033 17.5324C50.0506 17.7773 50.056 18.015 50.0187 18.2455C49.9824 18.4774 49.9049 18.6933 49.7868 18.8932C49.6696 19.0922 49.5142 19.2649 49.3198 19.4112L48.8059 18.5038ZM50.8489 22.2546C50.7898 22.4228 50.6709 22.5441 50.493 22.6184L50.7844 23.5565C51.061 23.467 51.2825 23.3184 51.449 23.1107C51.6158 22.903 51.7182 22.6521 51.7568 22.3582C51.7958 22.0658 51.7619 21.7478 51.6551 21.4042C51.5501 21.0666 51.3973 20.7833 51.1966 20.5543C50.9955 20.3253 50.7659 20.1669 50.5078 20.0792C50.2497 19.9931 49.9798 19.994 49.6979 20.0818C49.3525 20.1858 49.1131 20.3819 48.9799 20.6701C48.8466 20.9584 48.7926 21.3123 48.8181 21.7319L48.8473 22.275C48.8587 22.4564 48.8574 22.6127 48.8433 22.7441C48.8295 22.8769 48.7963 22.9845 48.7436 23.0666C48.6915 23.1502 48.613 23.208 48.5083 23.24C48.3958 23.2744 48.2857 23.2709 48.1783 23.2295C48.0706 23.1882 47.9732 23.1132 47.8863 23.0045C47.7997 22.8973 47.7309 22.7608 47.6792 22.595C47.6268 22.4262 47.6057 22.2669 47.6157 22.1169C47.6275 21.9681 47.6728 21.8379 47.7513 21.7264C47.8319 21.616 47.9487 21.5316 48.1018 21.4732L47.8077 20.5261C47.4744 20.6362 47.2176 20.803 47.0374 21.0264C46.8595 21.2508 46.7554 21.5185 46.7256 21.8297C46.6964 22.1422 46.7397 22.4854 46.8558 22.8592C46.9729 23.2359 47.1297 23.5403 47.3264 23.7722C47.5251 24.0051 47.7507 24.1606 48.0028 24.2387C48.2569 24.3177 48.5267 24.3144 48.8127 24.2286C49.0067 24.1677 49.1682 24.0795 49.2967 23.9642C49.4263 23.8504 49.527 23.7148 49.5995 23.5573C49.672 23.3998 49.72 23.2251 49.7435 23.0331C49.767 22.8411 49.7704 22.6371 49.7532 22.4213L49.7244 21.9747C49.7157 21.8668 49.7136 21.7634 49.718 21.6648C49.7237 21.5656 49.7381 21.4754 49.761 21.3941C49.7855 21.3124 49.8227 21.2424 49.8731 21.1842C49.9234 21.1275 49.9909 21.0879 50.0755 21.0654C50.1758 21.0347 50.2742 21.0359 50.3709 21.069C50.4682 21.1037 50.5558 21.1693 50.634 21.2658C50.7139 21.3619 50.7787 21.4898 50.828 21.6495C50.9012 21.8846 50.9083 22.0863 50.8489 22.2546Z" fill="url(#paint1_linear_548_40174)"/>
<defs>
<linearGradient id="paint0_linear_548_40174" x1="28" y1="0" x2="28" y2="56" gradientUnits="userSpaceOnUse">
<stop stop-color="white"/>
<stop offset="1" stop-color="white" stop-opacity="0"/>
</linearGradient>
<linearGradient id="paint1_linear_548_40174" x1="3.99866" y1="4" x2="52.2521" y2="4.25339" gradientUnits="userSpaceOnUse">
<stop stop-color="#FFC01D"/>
<stop offset="0.491554" stop-color="#FFD955"/>
<stop offset="1" stop-color="#FF9A01"/>
</linearGradient>
</defs>
</svg>
