<svg width="130" height="32" viewBox="0 0 130 32" fill="none" xmlns="http://www.w3.org/2000/svg">
<path fill-rule="evenodd" clip-rule="evenodd" d="M106.797 0.5H110.714L114.282 4.86379L110.714 9.48246H106.797L110.295 4.86379L106.797 0.5ZM118.592 0.5H114.283L118.131 4.86379L114.283 9.48246H118.592L122.517 4.86379L118.592 0.5ZM126.076 0.5H121.767L125.615 4.86379L121.767 9.48246H126.076L130.001 4.86379L126.076 0.5Z" fill="#FFC226"/>
<path d="M112.07 11.2852H106.756V31.0709H112.07V11.2852ZM96.5434 10.8953C95.367 10.884 94.2007 11.1158 93.1178 11.5762C92.0915 12.0206 91.171 12.6773 90.4169 13.5031V4.92239H85.1019V31.0709H90.4157V20.3106C90.4157 18.9126 90.8369 17.8164 91.6786 17.0221C92.5204 16.2206 93.6477 15.8198 95.0603 15.8198C96.308 15.8198 97.2687 16.1949 97.9426 16.9452C98.6049 17.6991 98.9362 18.7806 98.9365 20.1896V31.0707H104.283V19.5913C104.283 16.8571 103.643 14.7233 102.361 13.1901C101.047 11.6602 99.1087 10.8953 96.5434 10.8953ZM77.2733 11.2852V6.48144L71.9415 7.04103V11.2847H68.4393V15.8193H71.9415V24.4166C71.9415 26.7662 72.5619 28.518 73.8025 29.6715C75.0471 30.8243 76.8185 31.4008 79.1169 31.4008C80.1939 31.3954 81.2676 31.2849 82.3232 31.0709V26.5143C81.6925 26.6085 81.0556 26.6543 80.4181 26.6514C79.3457 26.6514 78.5552 26.4373 78.0464 26.009C77.5303 25.5845 77.2723 24.8599 77.2723 23.835V15.8198H82.0539V11.2852H77.2733ZM66.3478 11.2852H61.7187L61.5211 13.2506C59.7597 11.6693 57.4647 10.814 55.098 10.8569C53.3054 10.8311 51.5386 11.286 49.9815 12.1745C48.4702 13.0302 47.2298 14.2934 46.4017 15.8198C45.9044 16.7319 45.5507 17.7151 45.3531 18.7349C45.1921 19.5356 45.1132 20.3504 45.1169 21.167C45.1146 21.9836 45.1935 22.7984 45.3531 23.5992C45.558 24.5879 45.8997 25.5432 46.3688 26.4374C47.1781 27.9771 48.403 29.2588 49.9046 30.1372C51.4777 31.0594 53.2746 31.5303 55.098 31.4986C56.2814 31.5056 57.4558 31.2935 58.5619 30.8729C59.6526 30.4682 60.6565 29.8608 61.5211 29.0831L61.7187 31.0704H66.3466L66.3478 11.2852ZM52.0291 17.3571C52.9989 16.3579 54.256 15.8583 55.8006 15.8583C56.4958 15.8365 57.1881 15.9584 57.8343 16.2163C58.4804 16.4741 59.0662 16.8625 59.5555 17.3571C60.5089 18.3969 61.0379 19.7563 61.0379 21.167C61.0379 22.5778 60.5089 23.9372 59.5555 24.977C59.0662 25.4716 58.4804 25.86 57.8343 26.1179C57.1881 26.3757 56.4958 26.4976 55.8006 26.4758C54.256 26.4758 52.9989 25.9762 52.0291 24.977C51.0757 23.9372 50.5469 22.5778 50.5469 21.167C50.5469 19.7563 51.0757 18.3969 52.0291 17.3571ZM21.4113 18.7352C21.2503 19.5358 21.1711 20.3507 21.1751 21.1673C21.1725 21.9839 21.2517 22.7986 21.4113 23.5995C21.616 24.5881 21.9579 25.5434 22.4267 26.4376C23.2363 27.9773 24.4614 29.2591 25.9628 30.1372C27.5362 31.0594 29.333 31.5303 31.1564 31.4986C32.3396 31.5056 33.5142 31.2935 34.6203 30.8729C35.7107 30.4682 36.7149 29.8611 37.5795 29.0831L37.7771 31.0704H42.405V11.2852H37.7767L37.579 13.2506C35.8174 11.6693 33.5224 10.814 31.1557 10.8569C29.3631 10.8311 27.5966 11.286 26.0394 12.1745C24.5281 13.0303 23.288 14.2934 22.4599 15.8198C21.9626 16.7319 21.6089 17.7154 21.4113 18.7352ZM26.6046 21.167C26.5802 20.4646 26.6991 19.7647 26.9541 19.1097C27.2088 18.4547 27.5942 17.8584 28.087 17.3571C29.0566 16.3579 30.3139 15.8583 31.8583 15.8583C32.5537 15.8365 33.246 15.9584 33.8921 16.2163C34.5383 16.4741 35.1242 16.8625 35.6135 17.3571C36.5669 18.3969 37.0956 19.7563 37.0956 21.167C37.0956 22.5778 36.5669 23.9372 35.6135 24.977C35.1242 25.4716 34.5383 25.86 33.8921 26.1179C33.246 26.3757 32.5537 26.4976 31.8583 26.4758C30.3139 26.4758 29.0566 25.9762 28.087 24.977C27.5942 24.4757 27.2088 23.8794 26.9541 23.2244C26.6991 22.5694 26.5802 21.8695 26.6046 21.167ZM18.7152 27.6288C19.5835 26.3415 20.0324 24.8169 19.9999 23.2644C19.9999 20.9842 19.2223 19.2018 17.6673 17.9172C16.108 16.6618 13.8572 15.7798 10.9147 15.271C9.05912 14.9745 7.78165 14.6122 7.08275 14.1839C6.7568 14.0036 6.48655 13.7373 6.3016 13.4139C6.11665 13.0906 6.02406 12.7227 6.03393 12.3503C6.02171 11.9794 6.10702 11.6118 6.28139 11.2842C6.45576 10.9567 6.71309 10.6806 7.02753 10.4836C7.70104 10.0188 8.62155 9.78641 9.78904 9.78641C10.9784 9.78641 11.9226 10.0334 12.6218 10.5275C12.9738 10.7963 13.269 11.1322 13.4903 11.5157C13.7117 11.8992 13.8551 12.3228 13.9119 12.762H19.5337C19.3139 10.2586 18.3349 8.26206 16.5966 6.77239C14.8691 5.29383 12.6382 4.55455 9.90443 4.55455C8.20724 4.52503 6.52321 4.85626 4.96349 5.52633C3.59296 6.10382 2.42264 7.07179 1.59825 8.30964C0.767283 9.56431 0.340048 11.0433 0.374123 12.5479C0.374123 14.817 1.12449 16.5555 2.62498 17.7634C4.12876 18.9566 6.32111 19.8056 9.20177 20.3106C11.0317 20.6363 12.3292 21.039 13.0941 21.5185C13.4337 21.7169 13.7162 21.9997 13.9143 22.3394C14.1124 22.6791 14.2196 23.0642 14.225 23.4575C14.2306 23.8507 14.1342 24.2387 13.9458 24.5838C13.7573 24.9289 13.4828 25.2195 13.1491 25.4274C12.4244 25.9069 11.4141 26.1467 10.1188 26.1467C8.75714 26.1467 7.69211 25.8557 6.92342 25.2739C6.54036 24.9693 6.22758 24.5854 6.00667 24.1485C5.78601 23.7117 5.66239 23.2322 5.6443 22.743H0C0.168497 25.4773 1.14752 27.611 2.9373 29.1444C4.71228 30.6481 7.10578 31.4 10.1178 31.4C11.8578 31.4298 13.5848 31.0988 15.1906 30.4283C16.6088 29.8512 17.832 28.8797 18.7152 27.6288Z" fill="#141482"/>
</svg>
