<svg width="160" height="38" viewBox="0 0 160 38" fill="none" xmlns="http://www.w3.org/2000/svg">
<path fill-rule="evenodd" clip-rule="evenodd" d="M131.441 0H136.263L140.654 5.34916L136.263 11.0108H131.441L135.747 5.34916L131.441 0ZM145.959 0H140.655L145.392 5.34916L140.655 11.0108H145.959L150.789 5.34916L145.959 0ZM155.17 0H149.866L154.603 5.34916L149.866 11.0108H155.17L160 5.34916L155.17 0Z" fill="#FFC226"/>
<path d="M137.932 13.2215H131.392V37.4749H137.932V13.2215ZM118.823 12.7435C117.375 12.7296 115.939 13.0137 114.607 13.5781C113.343 14.1229 112.211 14.9279 111.282 15.9401V5.42188H104.741V37.4749H111.281V24.2849C111.281 22.5711 111.799 21.2274 112.835 20.2538C113.871 19.2713 115.259 18.78 116.997 18.78C118.533 18.78 119.715 19.2398 120.545 20.1595C121.36 21.0837 121.768 22.4094 121.768 24.1366V37.4746H128.349V23.4032C128.349 20.0515 127.56 17.4359 125.983 15.5565C124.366 13.6812 121.98 12.7435 118.823 12.7435ZM95.1055 13.2215V7.33297L88.5434 8.01892V13.2208H84.2329V18.7794H88.5434V29.3181C88.5434 32.1982 89.307 34.3455 90.8338 35.7595C92.3656 37.1726 94.5459 37.8792 97.3746 37.8792C98.7001 37.8726 100.022 37.7372 101.321 37.4749V31.8893C100.545 32.0049 99.7608 32.061 98.9761 32.0575C97.6563 32.0575 96.6833 31.795 96.0571 31.27C95.422 30.7497 95.1044 29.8613 95.1044 28.6051V18.78H100.989V13.2215H95.1055ZM81.6588 13.2215H75.9615L75.7182 15.6306C73.5504 13.6923 70.7258 12.6439 67.8129 12.6964C65.6066 12.6648 63.4321 13.2225 61.5157 14.3115C59.6556 15.3605 58.129 16.9089 57.1098 18.78C56.4977 19.898 56.0625 21.1033 55.8192 22.3534C55.6211 23.3348 55.5239 24.3337 55.5285 25.3347C55.5256 26.3356 55.6228 27.3344 55.8192 28.316C56.0714 29.528 56.492 30.6989 57.0693 31.7951C58.0654 33.6825 59.5729 35.2537 61.4211 36.3303C63.3572 37.4608 65.5687 38.038 67.8129 37.9991C69.2695 38.0078 70.7148 37.7478 72.0762 37.2322C73.4185 36.7361 74.6541 35.9916 75.7182 35.0383L75.9615 37.4743H81.6574L81.6588 13.2215ZM64.0358 20.6644C65.2294 19.4396 66.7766 18.8272 68.6777 18.8272C69.5332 18.8005 70.3853 18.9499 71.1807 19.266C71.9758 19.5821 72.6969 20.0582 73.2991 20.6644C74.4725 21.939 75.1236 23.6054 75.1236 25.3347C75.1236 27.064 74.4725 28.7304 73.2991 30.005C72.6969 30.6112 71.9758 31.0873 71.1807 31.4034C70.3853 31.7195 69.5332 31.8689 68.6777 31.8422C66.7766 31.8422 65.2294 31.2298 64.0358 30.005C62.8623 28.7304 62.2116 27.064 62.2116 25.3347C62.2116 23.6054 62.8623 21.939 64.0358 20.6644ZM26.3524 22.3537C26.1542 23.3351 26.0568 24.334 26.0617 25.335C26.0585 26.3359 26.156 27.3347 26.3524 28.3163C26.6043 29.5283 27.0251 30.6993 27.6021 31.7954C28.5986 33.6827 30.1063 35.2539 31.9543 36.3303C33.8907 37.4608 36.1022 38.038 38.3463 37.9991C39.8026 38.0078 41.2482 37.7478 42.6096 37.2322C43.9517 36.7361 45.1876 35.9919 46.2517 35.0383L46.4949 37.4743H52.1908V13.2215H46.4944L46.2511 15.6306C44.083 13.6923 41.2583 12.6439 38.3455 12.6964C36.1392 12.6648 33.965 13.2225 32.0485 14.3115C30.1885 15.3606 28.6622 16.9089 27.6429 18.78C27.0309 19.898 26.5956 21.1036 26.3524 22.3537ZM32.7441 25.3347C32.7141 24.4737 32.8604 23.6156 33.1742 22.8127C33.4878 22.0098 33.9621 21.2789 34.5686 20.6644C35.762 19.4396 37.3094 18.8272 39.2103 18.8272C40.0661 18.8005 40.9182 18.9499 41.7133 19.266C42.5087 19.5821 43.2298 20.0582 43.8319 20.6644C45.0054 21.939 45.6562 23.6054 45.6562 25.3347C45.6562 27.064 45.0054 28.7304 43.8319 30.005C43.2298 30.6112 42.5087 31.0873 41.7133 31.4034C40.9182 31.7195 40.0661 31.8689 39.2103 31.8422C37.3094 31.8422 35.762 31.2298 34.5686 30.005C33.9621 29.3905 33.4878 28.6595 33.1742 27.8567C32.8604 27.0537 32.7141 26.1957 32.7441 25.3347ZM23.034 33.2556C24.1028 31.6775 24.6552 29.8088 24.6153 27.9056C24.6153 25.1105 23.6582 22.9257 21.7443 21.351C19.8253 19.8122 17.055 18.7309 13.4335 18.1073C11.1497 17.7438 9.57742 17.2997 8.71723 16.7747C8.31606 16.5537 7.98344 16.2272 7.75582 15.8308C7.52819 15.4345 7.41423 14.9835 7.42638 14.5271C7.41134 14.0724 7.51633 13.6218 7.73094 13.2203C7.94555 12.8187 8.26227 12.4803 8.64926 12.2389C9.47821 11.6691 10.6111 11.3842 12.0481 11.3842C13.5119 11.3842 14.674 11.687 15.5345 12.2926C15.9678 12.6222 16.331 13.0339 16.6035 13.504C16.8759 13.9741 17.0524 14.4934 17.1224 15.0317H24.0414C23.771 11.963 22.5661 9.51567 20.4266 7.68962C18.3004 5.87719 15.5547 4.97097 12.1901 4.97097C10.1012 4.93478 8.02856 5.34081 6.10892 6.16218C4.4221 6.87008 2.98171 8.05662 1.96708 9.57399C0.944348 11.112 0.418521 12.9249 0.46046 14.7693C0.46046 17.5508 1.38399 19.6819 3.23075 21.1625C5.08156 22.625 7.77982 23.6659 11.3253 24.2849C13.5775 24.6841 15.1744 25.1777 16.1158 25.7655C16.5338 26.0087 16.8814 26.3554 17.1253 26.7718C17.3691 27.1882 17.501 27.6603 17.5076 28.1423C17.5146 28.6243 17.396 29.0999 17.164 29.5229C16.9321 29.946 16.5942 30.3022 16.1835 30.5571C15.2915 31.1449 14.0481 31.4388 12.4538 31.4388C10.778 31.4388 9.46721 31.0821 8.52113 30.3688C8.04968 29.9955 7.66471 29.5249 7.39283 28.9894C7.12124 28.4539 6.9691 27.8661 6.94683 27.2665H0C0.207381 30.6182 1.41233 33.2338 3.61514 35.1133C5.79972 36.9567 8.74557 37.8784 12.4527 37.8784C14.5942 37.9149 16.7198 37.5091 18.6961 36.6872C20.4416 35.9798 21.9471 34.7889 23.034 33.2556Z" fill="#141482"/>
</svg>
