<svg width="118" height="28" viewBox="0 0 118 28" fill="none" xmlns="http://www.w3.org/2000/svg">
<path fill-rule="evenodd" clip-rule="evenodd" d="M96.2959 0H99.8279L103.045 3.94149L99.8279 8.11319H96.2959L99.4503 3.94149L96.2959 0ZM106.931 0H103.046L106.516 3.94149L103.046 8.11319H106.931L110.471 3.94149L106.931 0ZM113.68 0H109.794L113.264 3.94149L109.794 8.11319H113.68L117.219 3.94149L113.68 0Z" fill="#FFC226"/>
<path d="M101.051 9.7411H96.2597V27.6121H101.051V9.7411ZM87.0516 9.38895C85.9908 9.37869 84.9392 9.58805 83.9627 10.0039C83.0374 10.4053 82.2074 10.9985 81.5274 11.7443V3.99404H76.7349V27.6121H81.5263V17.8931C81.5263 16.6303 81.9061 15.6402 82.6651 14.9228C83.4241 14.1989 84.4406 13.8369 85.7143 13.8369C86.8393 13.8369 87.7055 14.1757 88.3132 14.8533C88.9104 15.5343 89.2091 16.5112 89.2093 17.7838V27.6118H94.0307V17.2434C94.0307 14.7737 93.4528 12.8465 92.2973 11.4616C91.1124 10.0798 89.3647 9.38895 87.0516 9.38895ZM69.676 9.7411V5.40221L64.8684 5.90765V9.74063H61.7105V13.8364H64.8684V21.6018C64.8684 23.724 65.4278 25.3062 66.5465 26.3481C67.6687 27.3893 69.266 27.91 71.3383 27.91C72.3095 27.9051 73.2776 27.8053 74.2295 27.6121V23.4964C73.6607 23.5815 73.0865 23.6229 72.5116 23.6203C71.5447 23.6203 70.8319 23.4269 70.3731 23.04C69.9078 22.6566 69.6751 22.0021 69.6751 21.0764V13.8369H73.9866V9.7411H69.676ZM59.8247 9.7411H55.6507L55.4725 11.5163C53.8843 10.088 51.8149 9.31552 49.6809 9.35422C48.0645 9.33091 46.4715 9.74184 45.0675 10.5443C43.7047 11.3173 42.5863 12.4581 41.8396 13.8369C41.3912 14.6607 41.0723 15.5487 40.8941 16.4699C40.749 17.193 40.6778 17.9291 40.6812 18.6666C40.679 19.4042 40.7502 20.1401 40.8941 20.8634C41.0789 21.7564 41.387 22.6192 41.8099 23.4269C42.5397 24.8176 43.6441 25.9754 44.9982 26.7687C46.4166 27.6017 48.0368 28.0269 49.6809 27.9983C50.748 28.0047 51.8069 27.8131 52.8043 27.4332C53.7877 27.0677 54.6929 26.5191 55.4725 25.8166L55.6507 27.6116H59.8236L59.8247 9.7411ZM46.9137 15.2254C47.7882 14.3229 48.9217 13.8716 50.3145 13.8716C50.9413 13.852 51.5655 13.962 52.1482 14.195C52.7308 14.4279 53.259 14.7787 53.7002 15.2254C54.5599 16.1646 55.0368 17.3924 55.0368 18.6666C55.0368 19.9408 54.5599 21.1687 53.7002 22.1079C53.259 22.5546 52.7308 22.9054 52.1482 23.1383C51.5655 23.3713 50.9413 23.4813 50.3145 23.4616C48.9217 23.4616 47.7882 23.0104 46.9137 22.1079C46.0541 21.1687 45.5773 19.9408 45.5773 18.6666C45.5773 17.3924 46.0541 16.1646 46.9137 15.2254ZM19.3062 16.4701C19.1611 17.1932 19.0896 17.9293 19.0932 18.6669C19.0909 19.4044 19.1623 20.1403 19.3062 20.8636C19.4908 21.7567 19.7991 22.6195 20.2218 23.4271C20.9518 24.8178 22.0564 25.9756 23.4102 26.7687C24.8289 27.6017 26.4491 28.0269 28.0932 27.9983C29.1601 28.0047 30.2192 27.8131 31.2166 27.4332C32.1998 27.0677 33.1052 26.5193 33.8848 25.8166L34.063 27.6116H38.2359V9.7411H34.0626L33.8844 11.5163C32.296 10.088 30.2266 9.31552 28.0926 9.35422C26.4762 9.33091 24.8834 9.74184 23.4793 10.5443C22.1166 11.3173 20.9984 12.4582 20.2517 13.8369C19.8033 14.6607 19.4844 15.549 19.3062 16.4701ZM23.9889 18.6666C23.9669 18.0322 24.0741 17.4 24.304 16.8083C24.5337 16.2167 24.8812 15.6782 25.3256 15.2254C26.1999 14.3229 27.3335 13.8716 28.7261 13.8716C29.3531 13.852 29.9774 13.962 30.5599 14.195C31.1426 14.4279 31.6709 14.7787 32.112 15.2254C32.9717 16.1646 33.4485 17.3924 33.4485 18.6666C33.4485 19.9408 32.9717 21.1687 32.112 22.1079C31.6709 22.5546 31.1426 22.9054 30.5599 23.1383C29.9774 23.3713 29.3531 23.4813 28.7261 23.4616C27.3335 23.4616 26.1999 23.0104 25.3256 22.1079C24.8812 21.6551 24.5337 21.1165 24.304 20.5249C24.0741 19.9333 23.9669 19.3011 23.9889 18.6666ZM16.8751 24.5031C17.6581 23.3403 18.0628 21.9633 18.0336 20.561C18.0336 18.5015 17.3324 16.8916 15.9303 15.7313C14.5243 14.5974 12.4948 13.8007 9.84161 13.3412C8.16846 13.0734 7.01658 12.7461 6.3864 12.3593C6.09249 12.1964 5.84881 11.9559 5.68205 11.6638C5.51528 11.3718 5.4318 11.0394 5.4407 10.7031C5.42968 10.3681 5.5066 10.0361 5.66382 9.74023C5.82105 9.44436 6.05308 9.19502 6.3366 9.01711C6.9439 8.59727 7.7739 8.38735 8.82661 8.38735C9.89903 8.38735 10.7504 8.61048 11.3808 9.05671C11.6983 9.29955 11.9644 9.6029 12.164 9.94931C12.3636 10.2957 12.4929 10.6783 12.5442 11.075H17.6132C17.4151 8.81383 16.5323 7.01052 14.9649 5.665C13.4072 4.32953 11.3957 3.66179 8.93066 3.66179C7.40033 3.63513 5.88187 3.93431 4.4755 4.53953C3.23971 5.06114 2.18446 5.93543 1.44112 7.05349C0.691846 8.18674 0.306616 9.52261 0.337341 10.8816C0.337341 12.9311 1.01393 14.5014 2.3669 15.5924C3.72284 16.6701 5.69964 17.437 8.29708 17.8931C9.94713 18.1873 11.117 18.551 11.8068 18.9841C12.1129 19.1633 12.3676 19.4187 12.5463 19.7255C12.7249 20.0324 12.8215 20.3802 12.8264 20.7354C12.8315 21.0905 12.7446 21.441 12.5747 21.7527C12.4047 22.0645 12.1572 22.3269 11.8563 22.5147C11.2028 22.9478 10.2919 23.1644 9.12391 23.1644C7.89617 23.1644 6.93585 22.9016 6.24273 22.376C5.89733 22.1009 5.6153 21.7542 5.41612 21.3596C5.21714 20.965 5.10568 20.5319 5.08937 20.0901H0C0.151931 22.5598 1.0347 24.487 2.64851 25.8719C4.24898 27.2302 6.40716 27.9093 9.12306 27.9093C10.692 27.9363 12.2492 27.6373 13.6971 27.0317C14.9759 26.5104 16.0788 25.6329 16.8751 24.5031Z" fill="white"/>
</svg>
