<svg xmlns="http://www.w3.org/2000/svg" width="17" height="17" viewBox="0 0 17 17" fill="none">
  <g clip-path="url(#clip0_12_6411)">
    <path d="M6.9688 13.3479C8.3989 13.3479 9.7881 12.8708 10.9163 11.992L15.1729 16.2485C15.4908 16.5556 15.9975 16.5468 16.3046 16.2288C16.6042 15.9187 16.6042 15.4269 16.3046 15.1168L12.0481 10.8603C14.2287 8.05324 13.7209 4.00997 10.9139 1.82937C8.10685 -0.351237 4.06362 0.15655 1.88302 2.96358C-0.297588 5.7706 0.2102 9.81387 3.01723 11.9945C4.14731 12.8724 5.53776 13.3486 6.9688 13.3479ZM3.54873 3.49262C5.4376 1.60371 8.50006 1.60368 10.389 3.49255C12.2779 5.38142 12.2779 8.44388 10.389 10.3328C8.50017 12.2217 5.4377 12.2217 3.5488 10.3329C3.54876 10.3328 3.54876 10.3328 3.54873 10.3328C1.65986 8.45768 1.64873 5.40638 3.52384 3.51751C3.53212 3.50919 3.54041 3.5009 3.54873 3.49262Z" fill="#989898"/>
  </g>
  <defs>
    <clipPath id="clip0_12_6411">
      <rect width="16" height="16" fill="white" transform="translate(0.529297 0.474121)"/>
    </clipPath>
  </defs>
</svg>