<svg width="49" height="57" viewBox="0 0 49 57" fill="none" xmlns="http://www.w3.org/2000/svg">
<g filter="url(#filter0_d_1204_51810)">
<path d="M32.4316 27.9238L24.5196 31.4361L16.6105 27.9238L9.73047 42.969L16.6075 40.4035L19.2113 47.1796L24.5196 35.5676L29.8279 47.1796L32.4316 40.4035L39.3087 42.969L32.4316 27.9238Z" fill="url(#paint0_linear_1204_51810)"/>
<path d="M43.5195 19.9006C43.5195 9.56133 35.0129 1.17969 24.5195 1.17969C14.0261 1.17969 5.51953 9.56133 5.51953 19.9006C5.51953 30.2399 14.0261 38.6215 24.5195 38.6215C35.0129 38.6215 43.5195 30.2399 43.5195 19.9006Z" fill="#6348E9"/>
<path d="M43.5195 19.9006C43.5195 9.56133 35.0129 1.17969 24.5195 1.17969C14.0261 1.17969 5.51953 9.56133 5.51953 19.9006C5.51953 30.2399 14.0261 38.6215 24.5195 38.6215C35.0129 38.6215 43.5195 30.2399 43.5195 19.9006Z" fill="#01030F" fill-opacity="0.8"/>
<path fill-rule="evenodd" clip-rule="evenodd" d="M12.3424 28.5464L11.9491 27.9201C11.9989 27.8837 12.0392 27.8428 12.07 27.7975C12.1012 27.7528 12.1217 27.7044 12.1316 27.6524C12.1427 27.6006 12.1419 27.5462 12.1292 27.4896C12.1172 27.4324 12.0925 27.3741 12.0554 27.3149C11.9903 27.2113 11.9096 27.1391 11.8135 27.0984C11.7177 27.0585 11.6106 27.0491 11.4919 27.0702C11.3737 27.0921 11.2477 27.1439 11.114 27.2255C10.9727 27.3116 10.866 27.4022 10.7938 27.4973C10.7228 27.5929 10.6856 27.6907 10.6821 27.7911C10.6794 27.8911 10.7094 27.991 10.7722 28.091C10.808 28.148 10.8472 28.1945 10.8898 28.2311C10.9332 28.2672 10.9793 28.2934 11.028 28.3095C11.0767 28.3261 11.1271 28.3328 11.1792 28.3295C11.2325 28.3269 11.2863 28.314 11.3405 28.2913L11.7293 28.9203C11.627 28.9725 11.5104 29.0062 11.3797 29.0211C11.2497 29.0361 11.1149 29.0265 10.9754 28.9928C10.837 28.9594 10.7024 28.8957 10.5715 28.8013C10.4407 28.7072 10.3229 28.5767 10.2183 28.41C10.0872 28.2012 10.0151 27.9864 10.0019 27.765C9.98916 27.5446 10.0408 27.3323 10.157 27.1285C10.2736 26.9253 10.4596 26.7459 10.7151 26.5901C10.9721 26.4335 11.2192 26.3504 11.4564 26.3411C11.6943 26.3311 11.9104 26.3817 12.1047 26.4925C12.2997 26.6028 12.4614 26.7603 12.5897 26.9645C12.6799 27.1083 12.743 27.2526 12.7789 27.3975C12.8149 27.5424 12.8231 27.6838 12.8036 27.8215C12.7849 27.9589 12.7374 28.0894 12.661 28.2124C12.5847 28.336 12.4785 28.4472 12.3424 28.5464ZM12.4539 31.2128L14.288 29.2415L15.73 30.544L15.3288 30.9751L14.43 30.1634L14.1148 30.5022L14.9393 31.2471L14.5381 31.6782L13.7135 30.9334L13.3983 31.2725L14.2931 32.0804L13.8919 32.5118L12.4539 31.2128ZM17.1243 31.522L15.8714 33.8945L16.5251 34.2296L16.9387 33.4465L17.1649 33.5626L17.1741 34.5623L17.8842 34.9263L17.8624 33.7912C18.0185 33.7961 18.1608 33.7624 18.2892 33.6899C18.4276 33.6126 18.5417 33.489 18.6314 33.3192C18.7203 33.1507 18.7593 32.9873 18.7485 32.8287C18.7376 32.6699 18.6821 32.5244 18.5819 32.3915C18.4817 32.2585 18.3423 32.1465 18.1636 32.0547L17.1243 31.522ZM17.2029 32.9461L17.4334 33.0643C17.5102 33.1034 17.5805 33.1277 17.6444 33.1368C17.7095 33.1459 17.7675 33.1368 17.8185 33.1101C17.8704 33.0836 17.914 33.0368 17.9495 32.9697C17.9853 32.9015 17.9996 32.8386 17.9923 32.7811C17.9861 32.7228 17.9609 32.6699 17.9166 32.6215C17.8736 32.573 17.8136 32.5289 17.7368 32.4896L17.5064 32.3714L17.2029 32.9461ZM20.3763 33.6075L20.5002 33.0355L22.8073 33.5203L22.6835 34.0926L21.885 33.9247L21.4425 35.9682L20.7322 35.819L21.1747 33.7755L20.3763 33.6075ZM25.2003 36.2509L25.1618 33.5765L24.425 33.5869L24.4635 36.2611L25.2003 36.2509ZM27.5995 36.0177L26.9799 33.4139L28.8379 32.9844L28.9735 33.554L27.8328 33.8177L27.9394 34.2651L28.9665 34.0279L29.1021 34.5976L28.0749 34.8348L28.317 35.8519L27.5995 36.0177ZM32.2656 34.4604L31.0917 32.0491L30.4272 32.3631L31.6013 34.7744L32.2656 34.4604ZM34.4943 33.1529L32.7832 31.0767L34.3016 29.8617L34.6762 30.3158L33.7294 31.0732L34.0236 31.4303L34.8919 30.7352L35.2662 31.1896L34.3979 31.8841L34.6919 32.2409L35.6343 31.487L36.0089 31.9411L34.4943 33.1529ZM37.7189 30.1851L38.3223 29.3456C38.4819 29.1238 38.576 28.9008 38.6051 28.677C38.633 28.4523 38.5967 28.2378 38.4954 28.0338C38.3934 27.8294 38.227 27.6465 37.9963 27.4856C37.7656 27.3244 37.5357 27.2312 37.306 27.2054C37.0764 27.1785 36.8587 27.2163 36.6527 27.3191C36.4467 27.4205 36.2627 27.5835 36.1014 27.808L35.504 28.6392L37.7189 30.1851ZM37.7965 29.0105L37.6342 29.2362L36.4402 28.4031L36.5905 28.1942C36.672 28.0806 36.7588 27.9968 36.8503 27.9434C36.9423 27.8892 37.046 27.872 37.1616 27.8919C37.2778 27.9111 37.413 27.9746 37.5674 28.0822C37.7216 28.1899 37.8274 28.2942 37.8847 28.3951C37.9428 28.4954 37.9618 28.5962 37.942 28.6973C37.9227 28.7981 37.8744 28.9024 37.7965 29.0105Z" fill="url(#paint1_linear_1204_51810)"/>
<path fill-rule="evenodd" clip-rule="evenodd" d="M22.379 6.48788L21.5149 6.56373L22.2257 3.57224L23.3202 3.47616L24.5565 6.29677L23.6924 6.37259L23.4717 5.83131L22.4991 5.91668L22.379 6.48788ZM22.8569 4.32347L23.2374 5.2569L22.6267 5.31052L22.8338 4.32551L22.8569 4.32347ZM17.8061 7.69429L18.6279 7.42064L18.6086 6.83764L19.5336 6.52963L19.8771 7.00471L20.699 6.73107L18.825 4.27539L17.784 4.62199L17.8061 7.69429ZM19.169 6.02548L18.5766 5.20622L18.5546 5.21352L18.588 6.21892L19.169 6.02548ZM14.7379 6.85631C14.8214 6.86666 14.8924 6.90974 14.9511 6.98551L15.5981 6.57579C15.4926 6.41573 15.3606 6.30118 15.2021 6.23215C15.044 6.16182 14.8699 6.13997 14.6799 6.16658C14.4899 6.19321 14.2943 6.27018 14.0932 6.39751C13.8962 6.52227 13.7428 6.66568 13.6331 6.82772C13.5242 6.98926 13.465 7.15595 13.4557 7.32784C13.4466 7.49838 13.4933 7.66131 13.5957 7.81659C13.72 8.00888 13.8816 8.12048 14.0805 8.15142C14.2797 8.18108 14.505 8.14963 14.7563 8.05712L15.0388 7.95277C15.1443 7.9142 15.2317 7.8893 15.3012 7.87807C15.3701 7.86604 15.4257 7.86695 15.468 7.88083C15.5105 7.8934 15.5444 7.91819 15.5698 7.95523C15.595 7.99569 15.6052 8.03945 15.6004 8.08654C15.5956 8.13361 15.5746 8.18135 15.5374 8.22973C15.5002 8.27811 15.4455 8.32515 15.3734 8.37086C15.2874 8.42528 15.2046 8.45906 15.125 8.47225C15.0462 8.4849 14.973 8.47645 14.9056 8.44687C14.8382 8.41731 14.778 8.36626 14.725 8.2937L14.0828 8.70035C14.2175 8.90518 14.372 9.04554 14.5464 9.12138C14.721 9.19594 14.9093 9.21394 15.1109 9.17541C15.3135 9.13633 15.523 9.04826 15.7395 8.91117C15.9503 8.77769 16.1118 8.63429 16.2237 8.48097C16.3365 8.32716 16.397 8.16862 16.4051 8.00545C16.4132 7.84223 16.3651 7.67968 16.2606 7.51777C16.1988 7.42481 16.1272 7.3483 16.0456 7.28817C15.9648 7.22757 15.8726 7.18548 15.769 7.16189C15.6649 7.1375 15.5484 7.13279 15.4195 7.14779C15.2907 7.16277 15.1479 7.19955 14.9913 7.25806L14.7588 7.34428C14.6918 7.3698 14.6319 7.38855 14.579 7.40058C14.5261 7.41262 14.4799 7.41818 14.4404 7.41724C14.4003 7.41556 14.3662 7.40721 14.3381 7.39224C14.3103 7.37598 14.2876 7.35255 14.2699 7.32195C14.2473 7.2855 14.2374 7.24661 14.2402 7.2053C14.2431 7.16398 14.2612 7.12148 14.2945 7.07778C14.3282 7.03277 14.3799 6.98816 14.4496 6.944C14.5591 6.87471 14.6552 6.84545 14.7379 6.85631ZM25.986 3.46094L25.8935 4.09262L26.775 4.21784L26.4448 6.47384L27.2291 6.58523L27.5592 4.32923L28.4407 4.45444L28.5331 3.82277L25.986 3.46094ZM29.5498 7.09637L30.6946 4.40569L31.4359 4.71188L30.9889 5.76295L31.9703 6.16829L32.4175 5.11722L33.1588 5.42344L32.014 8.11414L31.2727 7.80795L31.7199 6.75688L30.7385 6.35154L30.2913 7.40259L29.5498 7.09637ZM34.0526 9.41474L35.7344 7.01354L35.0729 6.56362L33.3909 8.96482L34.0526 9.41474Z" fill="url(#paint2_linear_1204_51810)"/>
<path fill-rule="evenodd" clip-rule="evenodd" d="M8.74268 19.8405C8.74268 16.2867 9.95295 13.0115 11.9896 10.3931C12.1056 10.244 12.3243 10.2231 12.4701 10.3442C12.611 10.461 12.6312 10.667 12.5194 10.8112C10.5759 13.315 9.42125 16.4449 9.42125 19.8405C9.42125 21.2932 9.63258 22.6973 10.0266 24.0245C10.0713 24.1749 10.0079 24.3367 9.87052 24.4158C9.68242 24.5237 9.4409 24.433 9.37956 24.2271C8.96503 22.8359 8.74268 21.3638 8.74268 19.8405ZM39.1685 24.4158C39.3566 24.5237 39.5981 24.433 39.6595 24.2271C40.0739 22.8359 40.2962 21.3638 40.2962 19.8405C40.2962 16.2867 39.0859 13.0115 37.0494 10.3931C36.9335 10.244 36.7147 10.2231 36.569 10.3442C36.4278 10.461 36.4078 10.667 36.5196 10.8112C38.463 13.315 39.6177 16.4449 39.6177 19.8405C39.6177 21.2932 39.4062 22.6973 39.0124 24.0245C38.9676 24.1749 39.0311 24.3367 39.1685 24.4158Z" fill="url(#paint3_linear_1204_51810)"/>
<path d="M36.911 19.9007C36.911 13.1577 31.3632 7.69141 24.5197 7.69141C17.6762 7.69141 12.1284 13.1577 12.1284 19.9007C12.1284 26.6437 17.6762 32.11 24.5197 32.11C31.3632 32.11 36.911 26.6437 36.911 19.9007Z" fill="#1F0E74"/>
<path d="M36.911 19.9007C36.911 13.1577 31.3632 7.69141 24.5197 7.69141C17.6762 7.69141 12.1284 13.1577 12.1284 19.9007C12.1284 26.6437 17.6762 32.11 24.5197 32.11C31.3632 32.11 36.911 26.6437 36.911 19.9007Z" fill="#B1C6D0" fill-opacity="0.4"/>
<path d="M23.5778 9.55321L21.4082 11.4393H24.5196V9.20313C24.1839 9.20206 23.8477 9.31875 23.5778 9.55321Z" fill="#EEEBFF"/>
<path d="M25.451 9.55101C25.184 9.32018 24.8529 9.20422 24.5215 9.20312V11.4393H27.633L25.451 9.55101Z" fill="#CEC7F4"/>
<path d="M16.952 12.6459L16.5044 15.4832L18.8878 13.4865L17.4481 11.7734C17.1901 11.988 17.0077 12.2933 16.952 12.6459Z" fill="#EEEBFF"/>
<path d="M18.3833 11.4436C18.0302 11.4378 17.7016 11.5617 17.4473 11.7738L18.887 13.4868L21.2704 11.4902L18.3833 11.4436Z" fill="#CEC7F4"/>
<path d="M13.8665 19.2682L15.35 21.7291L15.8903 18.67L13.6849 18.2812C13.6252 18.6114 13.682 18.9622 13.8665 19.2682Z" fill="#EEEBFF"/>
<path d="M14.1909 17.4265C13.917 17.649 13.7451 17.9547 13.6865 18.2802L15.8923 18.6685L16.4325 15.6094L14.1909 17.4265Z" fill="#CEC7F4"/>
<path d="M15.7665 26.32L18.4875 27.2528L16.932 24.5625L14.9922 25.6806C15.159 25.9718 15.4282 26.2041 15.7665 26.32Z" fill="#EEEBFF"/>
<path d="M14.8292 24.7035C14.7623 25.0496 14.8274 25.3942 14.9921 25.6814L16.9319 24.5634L15.3763 21.873L14.8292 24.7035Z" fill="#CEC7F4"/>
<path d="M21.7631 30.504L24.448 29.4727L21.5243 28.4102L20.7583 30.5117C21.0735 30.6272 21.4295 30.6323 21.7631 30.504Z" fill="#EEEBFF"/>
<path d="M20.0023 29.8652C20.1738 30.1733 20.4456 30.3955 20.7568 30.5097L21.5228 28.4082L18.5991 27.3457L20.0023 29.8652Z" fill="#CEC7F4"/>
<path d="M29.0485 29.8609L30.4412 27.3477L27.5176 28.41L28.2836 30.5115C28.5991 30.3979 28.8752 30.1735 29.0485 29.8609Z" fill="#EEEBFF"/>
<path d="M27.2915 30.5021C27.6215 30.6283 27.9725 30.624 28.2844 30.5117L27.5184 28.4102L24.5947 29.4727L27.2915 30.5021Z" fill="#CEC7F4"/>
<path d="M34.2145 24.6919L33.6635 21.873L32.1079 24.5634L34.0478 25.6814C34.2164 25.3914 34.2834 25.0424 34.2145 24.6919Z" fill="#EEEBFF"/>
<path d="M33.2823 26.3106C33.6159 26.1954 33.8824 25.9667 34.0491 25.6806L32.1093 24.5625L30.5537 27.2528L33.2823 26.3106Z" fill="#CEC7F4"/>
<path d="M34.8471 17.4149L32.6099 15.6094L33.1501 18.6685L35.3557 18.2802C35.299 17.95 35.1253 17.6396 34.8471 17.4149Z" fill="#EEEBFF"/>
<path d="M35.1735 19.2559C35.355 18.9535 35.412 18.6075 35.355 18.2812L33.1494 18.6696L33.6896 21.7287L35.1735 19.2559Z" fill="#CEC7F4"/>
<path d="M30.6463 11.4377L27.77 11.4901L30.1534 13.4868L31.5932 11.7737C31.3366 11.5577 31.0041 11.4312 30.6463 11.4377Z" fill="#EEEBFF"/>
<path d="M32.0807 12.6365C32.025 12.2882 31.8459 11.9869 31.5926 11.7734L30.1528 13.4865L32.5363 15.4832L32.0807 12.6365Z" fill="#CEC7F4"/>
<path d="M24.518 27.8526C28.7896 27.8526 32.2524 24.456 32.2524 20.2661C32.2524 16.0763 28.7896 12.6797 24.518 12.6797C20.2465 12.6797 16.7837 16.0763 16.7837 20.2661C16.7837 24.456 20.2465 27.8526 24.518 27.8526Z" fill="url(#paint4_radial_1204_51810)"/>
<g filter="url(#filter1_i_1204_51810)">
<g style="mix-blend-mode:color-burn">
<path d="M22.7283 20.435V19.5233L24.4956 18.0827C24.6129 17.987 24.7131 17.8974 24.7964 17.8138C24.8812 17.7287 24.946 17.6413 24.9907 17.5517C25.037 17.462 25.0601 17.3625 25.0601 17.2531C25.0601 17.133 25.0339 17.0305 24.9814 16.9454C24.9305 16.8603 24.8596 16.7949 24.7686 16.7494C24.6776 16.7022 24.5727 16.6787 24.454 16.6787C24.3352 16.6787 24.2304 16.7022 24.1394 16.7494C24.0499 16.7965 23.9805 16.8656 23.9312 16.9568C23.8818 17.0479 23.8572 17.1589 23.8572 17.2895H22.6357C22.6357 16.9613 22.7105 16.6787 22.8601 16.4416C23.0097 16.2046 23.221 16.0222 23.494 15.8946C23.7669 15.767 24.087 15.7031 24.454 15.7031C24.8334 15.7031 25.1619 15.7631 25.4395 15.8832C25.7186 16.0017 25.9337 16.1689 26.0849 16.3846C26.2376 16.6004 26.3139 16.8534 26.3139 17.1437C26.3139 17.323 26.2761 17.5015 26.2006 17.6793C26.125 17.8556 25.9893 18.0508 25.7934 18.2651C25.5975 18.4794 25.3192 18.7346 24.9583 19.031L24.5141 19.3956V19.423H26.3648V20.435H22.7283Z" fill="black" fill-opacity="0.24"/>
</g>
<g style="mix-blend-mode:darken">
<path d="M22.7283 20.435V19.5233L24.4956 18.0827C24.6129 17.987 24.7131 17.8974 24.7964 17.8138C24.8812 17.7287 24.946 17.6413 24.9907 17.5517C25.037 17.462 25.0601 17.3625 25.0601 17.2531C25.0601 17.133 25.0339 17.0305 24.9814 16.9454C24.9305 16.8603 24.8596 16.7949 24.7686 16.7494C24.6776 16.7022 24.5727 16.6787 24.454 16.6787C24.3352 16.6787 24.2304 16.7022 24.1394 16.7494C24.0499 16.7965 23.9805 16.8656 23.9312 16.9568C23.8818 17.0479 23.8572 17.1589 23.8572 17.2895H22.6357C22.6357 16.9613 22.7105 16.6787 22.8601 16.4416C23.0097 16.2046 23.221 16.0222 23.494 15.8946C23.7669 15.767 24.087 15.7031 24.454 15.7031C24.8334 15.7031 25.1619 15.7631 25.4395 15.8832C25.7186 16.0017 25.9337 16.1689 26.0849 16.3846C26.2376 16.6004 26.3139 16.8534 26.3139 17.1437C26.3139 17.323 26.2761 17.5015 26.2006 17.6793C26.125 17.8556 25.9893 18.0508 25.7934 18.2651C25.5975 18.4794 25.3192 18.7346 24.9583 19.031L24.5141 19.3956V19.423H26.3648V20.435H22.7283Z" fill="#5F5493"/>
</g>
</g>
<g filter="url(#filter2_i_1204_51810)">
<g style="mix-blend-mode:color-burn">
<path d="M20.2014 22.8433C20.1952 22.7674 20.1663 22.7081 20.1146 22.6655C20.0637 22.623 19.9862 22.6017 19.8821 22.6017C19.8158 22.6017 19.7614 22.6097 19.719 22.6257C19.6774 22.6409 19.6465 22.6617 19.6265 22.6884C19.6065 22.7149 19.5961 22.7453 19.5953 22.7795C19.5937 22.8076 19.5987 22.8331 19.6103 22.8559C19.6227 22.8779 19.6419 22.898 19.6681 22.9163C19.6944 22.9338 19.7279 22.9497 19.7688 22.9641C19.8096 22.9786 19.8582 22.9915 19.9145 23.0029L20.1088 23.0439C20.2399 23.0713 20.3521 23.1074 20.4454 23.1522C20.5387 23.197 20.6151 23.2498 20.6744 23.3106C20.7338 23.3706 20.7774 23.4382 20.8051 23.5135C20.8337 23.5887 20.8483 23.6707 20.8491 23.7596C20.8483 23.9131 20.8094 24.043 20.7323 24.1494C20.6551 24.2557 20.5449 24.3367 20.4015 24.3921C20.2588 24.4476 20.0872 24.4753 19.8868 24.4753C19.6809 24.4753 19.5012 24.4453 19.3478 24.3853C19.1951 24.3253 19.0763 24.233 18.9915 24.1084C18.9074 23.983 18.865 23.8227 18.8643 23.6274H19.475C19.4788 23.6989 19.497 23.7589 19.5293 23.8075C19.5617 23.8561 19.6072 23.893 19.6658 23.918C19.7252 23.9431 19.7957 23.9557 19.8775 23.9557C19.9461 23.9557 20.0036 23.9473 20.0498 23.9306C20.0961 23.9138 20.1312 23.8907 20.1551 23.8611C20.179 23.8314 20.1913 23.7976 20.1921 23.7596C20.1913 23.7239 20.1794 23.6928 20.1563 23.6662C20.1339 23.6388 20.0969 23.6145 20.0452 23.5932C19.9935 23.5712 19.9238 23.5507 19.8359 23.5317L19.5999 23.4816C19.3902 23.4367 19.2248 23.3619 19.1037 23.257C18.9834 23.1514 18.9236 23.0074 18.9244 22.8251C18.9236 22.6769 18.9637 22.5474 19.0447 22.4365C19.1264 22.3248 19.2394 22.2378 19.3836 22.1755C19.5286 22.1132 19.6947 22.082 19.8821 22.082C20.0734 22.082 20.2387 22.1136 20.3783 22.1766C20.5179 22.2397 20.6255 22.3286 20.701 22.4433C20.7774 22.5573 20.8159 22.6906 20.8167 22.8433H20.2014ZM21.7368 22.1139V24.448H21.0937V22.1139H21.7368ZM22.0416 24.448V22.1139H22.6847V23.9374H23.6424V24.448H22.0416ZM24.2734 22.1139L24.7592 23.7596H24.7777L25.2635 22.1139H25.9899L25.208 24.448H24.3289L23.547 22.1139H24.2734ZM26.218 24.448V22.1139H27.9252V22.6245H26.8611V23.0257H27.8373V23.5362H26.8611V23.9374H27.9206V24.448H26.218ZM28.2442 24.448V22.1139H29.2667C29.4425 22.1139 29.5963 22.1455 29.7282 22.2085C29.86 22.2716 29.9626 22.3624 30.0358 22.4809C30.1091 22.5995 30.1457 22.7415 30.1457 22.9071C30.1457 23.0743 30.1079 23.2152 30.0323 23.33C29.9576 23.4447 29.8523 23.5313 29.7166 23.5898C29.5816 23.6483 29.4239 23.6776 29.2435 23.6776H28.6328V23.1852H29.114C29.1895 23.1852 29.2539 23.1761 29.3071 23.1579C29.3611 23.1389 29.4024 23.1089 29.4309 23.0678C29.4602 23.0268 29.4748 22.9733 29.4748 22.9071C29.4748 22.8403 29.4602 22.786 29.4309 22.7442C29.4024 22.7016 29.3611 22.6705 29.3071 22.6507C29.2539 22.6302 29.1895 22.62 29.114 22.62H28.8873V24.448H28.2442ZM29.6322 23.3767L30.2244 24.448H29.5257L28.9474 23.3767H29.6322Z" fill="black" fill-opacity="0.24"/>
</g>
<g style="mix-blend-mode:darken">
<path d="M20.2014 22.8433C20.1952 22.7674 20.1663 22.7081 20.1146 22.6655C20.0637 22.623 19.9862 22.6017 19.8821 22.6017C19.8158 22.6017 19.7614 22.6097 19.719 22.6257C19.6774 22.6409 19.6465 22.6617 19.6265 22.6884C19.6065 22.7149 19.5961 22.7453 19.5953 22.7795C19.5937 22.8076 19.5987 22.8331 19.6103 22.8559C19.6227 22.8779 19.6419 22.898 19.6681 22.9163C19.6944 22.9338 19.7279 22.9497 19.7688 22.9641C19.8096 22.9786 19.8582 22.9915 19.9145 23.0029L20.1088 23.0439C20.2399 23.0713 20.3521 23.1074 20.4454 23.1522C20.5387 23.197 20.6151 23.2498 20.6744 23.3106C20.7338 23.3706 20.7774 23.4382 20.8051 23.5135C20.8337 23.5887 20.8483 23.6707 20.8491 23.7596C20.8483 23.9131 20.8094 24.043 20.7323 24.1494C20.6551 24.2557 20.5449 24.3367 20.4015 24.3921C20.2588 24.4476 20.0872 24.4753 19.8868 24.4753C19.6809 24.4753 19.5012 24.4453 19.3478 24.3853C19.1951 24.3253 19.0763 24.233 18.9915 24.1084C18.9074 23.983 18.865 23.8227 18.8643 23.6274H19.475C19.4788 23.6989 19.497 23.7589 19.5293 23.8075C19.5617 23.8561 19.6072 23.893 19.6658 23.918C19.7252 23.9431 19.7957 23.9557 19.8775 23.9557C19.9461 23.9557 20.0036 23.9473 20.0498 23.9306C20.0961 23.9138 20.1312 23.8907 20.1551 23.8611C20.179 23.8314 20.1913 23.7976 20.1921 23.7596C20.1913 23.7239 20.1794 23.6928 20.1563 23.6662C20.1339 23.6388 20.0969 23.6145 20.0452 23.5932C19.9935 23.5712 19.9238 23.5507 19.8359 23.5317L19.5999 23.4816C19.3902 23.4367 19.2248 23.3619 19.1037 23.257C18.9834 23.1514 18.9236 23.0074 18.9244 22.8251C18.9236 22.6769 18.9637 22.5474 19.0447 22.4365C19.1264 22.3248 19.2394 22.2378 19.3836 22.1755C19.5286 22.1132 19.6947 22.082 19.8821 22.082C20.0734 22.082 20.2387 22.1136 20.3783 22.1766C20.5179 22.2397 20.6255 22.3286 20.701 22.4433C20.7774 22.5573 20.8159 22.6906 20.8167 22.8433H20.2014ZM21.7368 22.1139V24.448H21.0937V22.1139H21.7368ZM22.0416 24.448V22.1139H22.6847V23.9374H23.6424V24.448H22.0416ZM24.2734 22.1139L24.7592 23.7596H24.7777L25.2635 22.1139H25.9899L25.208 24.448H24.3289L23.547 22.1139H24.2734ZM26.218 24.448V22.1139H27.9252V22.6245H26.8611V23.0257H27.8373V23.5362H26.8611V23.9374H27.9206V24.448H26.218ZM28.2442 24.448V22.1139H29.2667C29.4425 22.1139 29.5963 22.1455 29.7282 22.2085C29.86 22.2716 29.9626 22.3624 30.0358 22.4809C30.1091 22.5995 30.1457 22.7415 30.1457 22.9071C30.1457 23.0743 30.1079 23.2152 30.0323 23.33C29.9576 23.4447 29.8523 23.5313 29.7166 23.5898C29.5816 23.6483 29.4239 23.6776 29.2435 23.6776H28.6328V23.1852H29.114C29.1895 23.1852 29.2539 23.1761 29.3071 23.1579C29.3611 23.1389 29.4024 23.1089 29.4309 23.0678C29.4602 23.0268 29.4748 22.9733 29.4748 22.9071C29.4748 22.8403 29.4602 22.786 29.4309 22.7442C29.4024 22.7016 29.3611 22.6705 29.3071 22.6507C29.2539 22.6302 29.1895 22.62 29.114 22.62H28.8873V24.448H28.2442ZM29.6322 23.3767L30.2244 24.448H29.5257L28.9474 23.3767H29.6322Z" fill="#5F5493"/>
</g>
</g>
<path d="M24.5216 11.9238C19.9501 11.9238 16.2441 15.6235 16.2441 20.1876C16.2441 24.7518 19.9501 28.4518 24.5216 28.4518C29.093 28.4518 32.7989 24.7518 32.7989 20.1876C32.7989 15.6235 29.093 11.9238 24.5216 11.9238ZM24.5216 27.7734C20.3253 27.7734 16.9237 24.3772 16.9237 20.1876C16.9237 15.9981 20.3253 12.6019 24.5216 12.6019C28.7178 12.6019 32.1195 15.9981 32.1195 20.1876C32.1195 24.3772 28.7178 27.7734 24.5216 27.7734Z" fill="url(#paint5_linear_1204_51810)"/>
<path d="M24.5203 10.8691C19.3655 10.8691 15.187 15.041 15.187 20.1875C15.187 25.334 19.3655 29.5057 24.5203 29.5057C29.675 29.5057 33.8536 25.334 33.8536 20.1875C33.8536 15.041 29.675 10.8691 24.5203 10.8691ZM24.5203 28.4477C19.951 28.4477 16.2468 24.7495 16.2468 20.1875C16.2468 15.6255 19.951 11.9276 24.5203 11.9276C29.0896 11.9276 32.7937 15.6259 32.7937 20.1879C32.7937 24.7498 29.0896 28.4477 24.5203 28.4477Z" fill="url(#paint6_linear_1204_51810)"/>
</g>
<defs>
<filter id="filter0_d_1204_51810" x="0.519531" y="0.179688" width="48" height="56" filterUnits="userSpaceOnUse" color-interpolation-filters="sRGB">
<feFlood flood-opacity="0" result="BackgroundImageFix"/>
<feColorMatrix in="SourceAlpha" type="matrix" values="0 0 0 0 0 0 0 0 0 0 0 0 0 0 0 0 0 0 127 0" result="hardAlpha"/>
<feOffset dy="4"/>
<feGaussianBlur stdDeviation="2.5"/>
<feComposite in2="hardAlpha" operator="out"/>
<feColorMatrix type="matrix" values="0 0 0 0 0 0 0 0 0 0 0 0 0 0 0 0 0 0 0.25 0"/>
<feBlend mode="normal" in2="BackgroundImageFix" result="effect1_dropShadow_1204_51810"/>
<feBlend mode="normal" in="SourceGraphic" in2="effect1_dropShadow_1204_51810" result="shape"/>
</filter>
<filter id="filter1_i_1204_51810" x="22.6357" y="15.7031" width="3.729" height="4.90742" filterUnits="userSpaceOnUse" color-interpolation-filters="sRGB">
<feFlood flood-opacity="0" result="BackgroundImageFix"/>
<feBlend mode="normal" in="SourceGraphic" in2="BackgroundImageFix" result="shape"/>
<feColorMatrix in="SourceAlpha" type="matrix" values="0 0 0 0 0 0 0 0 0 0 0 0 0 0 0 0 0 0 127 0" result="hardAlpha"/>
<feOffset dy="0.175"/>
<feGaussianBlur stdDeviation="0.175"/>
<feComposite in2="hardAlpha" operator="arithmetic" k2="-1" k3="1"/>
<feColorMatrix type="matrix" values="0 0 0 0 0 0 0 0 0 0 0 0 0 0 0 0 0 0 0.24 0"/>
<feBlend mode="darken" in2="shape" result="effect1_innerShadow_1204_51810"/>
</filter>
<filter id="filter2_i_1204_51810" x="18.8643" y="22.082" width="11.3599" height="2.56758" filterUnits="userSpaceOnUse" color-interpolation-filters="sRGB">
<feFlood flood-opacity="0" result="BackgroundImageFix"/>
<feBlend mode="normal" in="SourceGraphic" in2="BackgroundImageFix" result="shape"/>
<feColorMatrix in="SourceAlpha" type="matrix" values="0 0 0 0 0 0 0 0 0 0 0 0 0 0 0 0 0 0 127 0" result="hardAlpha"/>
<feOffset dy="0.175"/>
<feGaussianBlur stdDeviation="0.175"/>
<feComposite in2="hardAlpha" operator="arithmetic" k2="-1" k3="1"/>
<feColorMatrix type="matrix" values="0 0 0 0 0 0 0 0 0 0 0 0 0 0 0 0 0 0 0.24 0"/>
<feBlend mode="darken" in2="shape" result="effect1_innerShadow_1204_51810"/>
</filter>
<linearGradient id="paint0_linear_1204_51810" x1="9.73047" y1="27.9238" x2="39.462" y2="28.1638" gradientUnits="userSpaceOnUse">
<stop stop-color="#ACB6B8"/>
<stop offset="0.491554" stop-color="#E0E6E8"/>
<stop offset="1" stop-color="#7D999E"/>
</linearGradient>
<linearGradient id="paint1_linear_1204_51810" x1="9.99999" y1="26.3398" x2="38.7577" y2="26.7754" gradientUnits="userSpaceOnUse">
<stop stop-color="#ACB6B8"/>
<stop offset="0.491554" stop-color="#E0E6E8"/>
<stop offset="1" stop-color="#7D999E"/>
</linearGradient>
<linearGradient id="paint2_linear_1204_51810" x1="13.4546" y1="3.46094" x2="35.8427" y2="3.90088" gradientUnits="userSpaceOnUse">
<stop stop-color="#ACB6B8"/>
<stop offset="0.491554" stop-color="#E0E6E8"/>
<stop offset="1" stop-color="#7D999E"/>
</linearGradient>
<linearGradient id="paint3_linear_1204_51810" x1="8.74268" y1="10.2656" x2="40.4576" y2="10.6358" gradientUnits="userSpaceOnUse">
<stop stop-color="#ACB6B8"/>
<stop offset="0.491554" stop-color="#E0E6E8"/>
<stop offset="1" stop-color="#7D999E"/>
</linearGradient>
<radialGradient id="paint4_radial_1204_51810" cx="0" cy="0" r="1" gradientUnits="userSpaceOnUse" gradientTransform="translate(24.5181 20.266) scale(7.73436 7.58644)">
<stop offset="0.8428" stop-color="#B5AAEA"/>
<stop offset="1" stop-color="#A398D8"/>
</radialGradient>
<linearGradient id="paint5_linear_1204_51810" x1="24.5215" y1="11.8996" x2="24.5215" y2="28.4278" gradientUnits="userSpaceOnUse">
<stop stop-color="#988DCD"/>
<stop offset="0.8201" stop-color="#D1CCEA"/>
<stop offset="1" stop-color="#A99DE2"/>
</linearGradient>
<linearGradient id="paint6_linear_1204_51810" x1="24.5203" y1="10.8418" x2="24.5203" y2="29.4787" gradientUnits="userSpaceOnUse">
<stop stop-color="#DFD8FF"/>
<stop offset="0.1799" stop-color="#E6E1FF"/>
<stop offset="1" stop-color="#988DCD"/>
</linearGradient>
</defs>
</svg>
