<svg width="17" height="20" viewBox="0 0 17 20" fill="none" xmlns="http://www.w3.org/2000/svg">
<g clip-path="url(#clip0_1181_50014)">
<path d="M11.646 11.6289L8.2565 13.156L4.86828 11.6289L1.9209 18.1703L4.86701 17.0548L5.98245 20.001L8.2565 14.9523L10.5306 20.001L11.646 17.0548L14.5921 18.1703L11.646 11.6289Z" fill="url(#paint0_linear_1181_50014)"/>
<path d="M16.3963 8.13953C16.3963 3.64419 12.7521 0 8.25672 0C3.76138 0 0.117188 3.64419 0.117188 8.13953C0.117188 12.6349 3.76138 16.2791 8.25672 16.2791C12.7521 16.2791 16.3963 12.6349 16.3963 8.13953Z" fill="#6348E9"/>
<path d="M16.3963 8.13953C16.3963 3.64419 12.7521 0 8.25672 0C3.76138 0 0.117188 3.64419 0.117188 8.13953C0.117188 12.6349 3.76138 16.2791 8.25672 16.2791C12.7521 16.2791 16.3963 12.6349 16.3963 8.13953Z" fill="#01030F" fill-opacity="0.8"/>
<path fill-rule="evenodd" clip-rule="evenodd" d="M3.03962 11.8969L2.87114 11.6246C2.89248 11.6087 2.90973 11.5909 2.92291 11.5712C2.93627 11.5518 2.94508 11.5308 2.94931 11.5082C2.95407 11.4856 2.95371 11.462 2.94826 11.4374C2.94312 11.4125 2.93257 11.3872 2.91664 11.3614C2.88877 11.3164 2.85422 11.285 2.81301 11.2673C2.77201 11.25 2.72609 11.2459 2.67524 11.255C2.62462 11.2646 2.57065 11.2871 2.51335 11.3226C2.45284 11.36 2.4071 11.3994 2.37619 11.4407C2.34579 11.4823 2.32984 11.5248 2.32836 11.5685C2.3272 11.6119 2.34006 11.6554 2.36694 11.6989C2.38228 11.7236 2.39908 11.7439 2.41734 11.7598C2.43592 11.7755 2.45565 11.7869 2.47652 11.7939C2.49739 11.8011 2.51899 11.804 2.5413 11.8026C2.56414 11.8014 2.58717 11.7958 2.61041 11.786L2.77695 12.0594C2.73312 12.0821 2.68319 12.0968 2.6272 12.1033C2.57151 12.1098 2.51377 12.1056 2.45398 12.091C2.3947 12.0764 2.33703 12.0487 2.28096 12.0077C2.22491 11.9668 2.17446 11.91 2.12966 11.8376C2.0735 11.7468 2.04259 11.6534 2.03694 11.5571C2.03149 11.4613 2.05363 11.369 2.10338 11.2804C2.15335 11.192 2.23303 11.1141 2.34249 11.0463C2.45257 10.9782 2.55842 10.9421 2.66003 10.938C2.76196 10.9337 2.85455 10.9557 2.93778 11.0039C3.02134 11.0518 3.09059 11.1203 3.14556 11.2091C3.1842 11.2716 3.21121 11.3343 3.2266 11.3973C3.24201 11.4603 3.24553 11.5218 3.2372 11.5817C3.22917 11.6414 3.20882 11.6982 3.17612 11.7517C3.14341 11.8054 3.09791 11.8537 3.03962 11.8969ZM3.08736 13.0562L3.87312 12.1991L4.49085 12.7654L4.31896 12.9528L3.93393 12.5999L3.79888 12.7472L4.1521 13.0711L3.98022 13.2585L3.62699 12.9347L3.49194 13.0821L3.8753 13.4334L3.70342 13.621L3.08736 13.0562ZM5.08815 13.1906L4.55144 14.2221L4.83148 14.3678L5.00864 14.0274L5.10556 14.0778L5.1095 14.5125L5.41371 14.6707L5.40435 14.1772C5.47122 14.1793 5.53217 14.1647 5.5872 14.1332C5.64649 14.0996 5.69535 14.0458 5.73379 13.972C5.77187 13.8987 5.78859 13.8277 5.78394 13.7587C5.7793 13.6897 5.75552 13.6264 5.7126 13.5686C5.66969 13.5108 5.60995 13.4621 5.53339 13.4222L5.08815 13.1906ZM5.12185 13.8098L5.22057 13.8612C5.25348 13.8782 5.2836 13.8887 5.31096 13.8927C5.33885 13.8967 5.36371 13.8927 5.38557 13.8811C5.40777 13.8696 5.42645 13.8492 5.44166 13.82C5.45702 13.7904 5.46314 13.7631 5.45999 13.7381C5.45736 13.7127 5.44655 13.6897 5.42759 13.6686C5.40914 13.6476 5.38346 13.6284 5.35056 13.6113L5.25184 13.5599L5.12185 13.8098ZM6.4813 14.0974L6.53438 13.8486L7.52274 14.0594L7.4697 14.3083L7.12763 14.2353L6.93807 15.1237L6.63378 15.0589L6.82335 14.1704L6.4813 14.0974ZM8.54789 15.2467L8.53139 14.0839L8.21577 14.0884L8.23227 15.2511L8.54789 15.2467ZM9.57572 15.1453L9.31024 14.0132L10.1062 13.8264L10.1643 14.0741L9.67565 14.1888L9.72129 14.3833L10.1613 14.2801L10.2194 14.5278L9.77936 14.631L9.88307 15.0732L9.57572 15.1453ZM11.5746 14.4682L11.0717 13.4198L10.7871 13.5563L11.29 14.6047L11.5746 14.4682ZM12.5294 13.8997L11.7964 12.997L12.4468 12.4687L12.6073 12.6662L12.2017 12.9955L12.3278 13.1507L12.6998 12.8485L12.8601 13.0461L12.4881 13.3481L12.6141 13.5032L13.0178 13.1754L13.1782 13.3728L12.5294 13.8997ZM13.9108 12.6093L14.1693 12.2443C14.2377 12.1479 14.278 12.051 14.2905 11.9536C14.3024 11.856 14.2868 11.7627 14.2435 11.674C14.1998 11.5851 14.1285 11.5056 14.0296 11.4356C13.9308 11.3656 13.8323 11.325 13.7339 11.3138C13.6356 11.3021 13.5423 11.3186 13.4541 11.3633C13.3658 11.4074 13.287 11.4782 13.2179 11.5758L12.962 11.9372L13.9108 12.6093ZM13.9441 12.0986L13.8745 12.1968L13.363 11.8346L13.4274 11.7438C13.4623 11.6943 13.4995 11.6579 13.5387 11.6347C13.5781 11.6111 13.6225 11.6037 13.6721 11.6123C13.7218 11.6207 13.7798 11.6483 13.8459 11.695C13.912 11.7419 13.9573 11.7872 13.9818 11.8311C14.0067 11.8747 14.0149 11.9185 14.0064 11.9625C13.9981 12.0063 13.9774 12.0517 13.9441 12.0986Z" fill="url(#paint1_linear_1181_50014)"/>
<path fill-rule="evenodd" clip-rule="evenodd" d="M7.33978 2.30825L6.96962 2.34123L7.27412 1.04058L7.74298 0.998807L8.27263 2.22516L7.90244 2.25812L7.80789 2.02279L7.39124 2.0599L7.33978 2.30825ZM7.54452 1.3672L7.70752 1.77304L7.44589 1.79636L7.53463 1.36809L7.54452 1.3672ZM5.38076 2.83277L5.73283 2.7138L5.72454 2.46032L6.12082 2.3264L6.26798 2.53296L6.62006 2.41398L5.81728 1.3463L5.37132 1.49699L5.38076 2.83277ZM5.96463 2.1072L5.71083 1.75101L5.70145 1.75418L5.71575 2.19131L5.96463 2.1072ZM4.06635 2.46844C4.10213 2.47294 4.13258 2.49167 4.15768 2.52461L4.43489 2.34647C4.38967 2.27688 4.33312 2.22708 4.26525 2.19706C4.19749 2.16648 4.12291 2.15698 4.04152 2.16855C3.96011 2.18013 3.87633 2.2136 3.79018 2.26896C3.70577 2.3232 3.64006 2.38555 3.59306 2.45601C3.54641 2.52624 3.52108 2.59872 3.51708 2.67345C3.51319 2.7476 3.53318 2.81844 3.57706 2.88595C3.6303 2.96955 3.69952 3.01808 3.78474 3.03153C3.87008 3.04442 3.96659 3.03075 4.07425 2.99053L4.19527 2.94516C4.24046 2.92839 4.27792 2.91756 4.30767 2.91268C4.33719 2.90745 4.36101 2.90784 4.37912 2.91388C4.39735 2.91934 4.41189 2.93012 4.42274 2.94623C4.43355 2.96382 4.43792 2.98284 4.43585 3.00332C4.4338 3.02379 4.42481 3.04454 4.40887 3.06558C4.39294 3.08661 4.36952 3.10706 4.3386 3.12694C4.30177 3.1506 4.26631 3.16529 4.23219 3.17102C4.19842 3.17652 4.1671 3.17284 4.13823 3.15998C4.10934 3.14713 4.08355 3.12494 4.06083 3.09339L3.7857 3.27019C3.84342 3.35925 3.90963 3.42027 3.98433 3.45325C4.05915 3.48567 4.13977 3.49349 4.22618 3.47674C4.31295 3.45975 4.40272 3.42146 4.49546 3.36186C4.58577 3.30382 4.65492 3.24147 4.70289 3.17481C4.7512 3.10794 4.77711 3.03901 4.78059 2.96806C4.78408 2.8971 4.76345 2.82642 4.7187 2.75603C4.69223 2.71561 4.66153 2.68234 4.62658 2.6562C4.59196 2.62985 4.55247 2.61155 4.50809 2.6013C4.46348 2.59069 4.41358 2.58865 4.35838 2.59517C4.30317 2.60168 4.24202 2.61767 4.17492 2.64311L4.07533 2.6806C4.04663 2.69169 4.02095 2.69984 3.9983 2.70508C3.97565 2.71031 3.95584 2.71273 3.9389 2.71232C3.92173 2.71159 3.90713 2.70796 3.8951 2.70145C3.88319 2.69438 3.87345 2.68419 3.86589 2.67089C3.85619 2.65504 3.85195 2.63813 3.85317 2.62017C3.85439 2.6022 3.86215 2.58373 3.87644 2.56473C3.89085 2.54516 3.91301 2.52576 3.94288 2.50656C3.98977 2.47644 4.03094 2.46372 4.06635 2.46844ZM8.88499 0.992188L8.84539 1.26683L9.22301 1.32127L9.08158 2.30215L9.41755 2.35058L9.55897 1.3697L9.93659 1.42415L9.9762 1.1495L8.88499 0.992188ZM10.4117 2.57281L10.9021 1.40295L11.2197 1.53608L11.0282 1.99306L11.4487 2.1693L11.6402 1.71231L11.9578 1.84545L11.4674 3.01532L11.1498 2.88219L11.3414 2.4252L10.921 2.24897L10.7294 2.70595L10.4117 2.57281ZM12.3407 3.5808L13.0612 2.5368L12.7778 2.34118L12.0573 3.38518L12.3407 3.5808Z" fill="url(#paint2_linear_1181_50014)"/>
<path fill-rule="evenodd" clip-rule="evenodd" d="M1.49805 8.11221C1.49805 6.56709 2.01652 5.14308 2.889 4.00465C2.9387 3.9398 3.03238 3.93074 3.09486 3.98337C3.15521 4.03418 3.1639 4.12375 3.11597 4.18641C2.28338 5.27503 1.78874 6.63585 1.78874 8.11221C1.78874 8.74383 1.87928 9.3543 2.04808 9.93133C2.06721 9.99674 2.04006 10.0671 1.98121 10.1015C1.90063 10.1484 1.79716 10.1089 1.77088 10.0194C1.5933 9.41454 1.49805 8.77449 1.49805 8.11221ZM14.5324 10.1015C14.6129 10.1484 14.7164 10.1089 14.7427 10.0194C14.9203 9.41454 15.0155 8.77449 15.0155 8.11221C15.0155 6.56709 14.497 5.14308 13.6246 4.00465C13.5749 3.9398 13.4812 3.93074 13.4187 3.98337C13.3583 4.03418 13.3497 4.12375 13.3976 4.18641C14.2301 5.27503 14.7248 6.63585 14.7248 8.11221C14.7248 8.74383 14.6342 9.3543 14.4655 9.93133C14.4463 9.99674 14.4735 10.0671 14.5324 10.1015Z" fill="url(#paint3_linear_1181_50014)"/>
<path d="M13.565 8.14042C13.565 5.20868 11.1884 2.83203 8.25663 2.83203C5.32489 2.83203 2.94824 5.20868 2.94824 8.14042C2.94824 11.0722 5.32489 13.4488 8.25663 13.4488C11.1884 13.4488 13.565 11.0722 13.565 8.14042Z" fill="#1F0E74"/>
<path d="M13.565 8.14042C13.565 5.20868 11.1884 2.83203 8.25663 2.83203C5.32489 2.83203 2.94824 5.20868 2.94824 8.14042C2.94824 11.0722 5.32489 13.4488 8.25663 13.4488C11.1884 13.4488 13.565 11.0722 13.565 8.14042Z" fill="#B1C6D0" fill-opacity="0.4"/>
<path d="M7.85327 3.64049L6.92383 4.46055H8.25676V3.48828C8.11291 3.48782 7.96891 3.53855 7.85327 3.64049Z" fill="#EEEBFF"/>
<path d="M8.65603 3.63954C8.54164 3.53918 8.3998 3.48876 8.25781 3.48828V4.46054H9.59075L8.65603 3.63954Z" fill="#CEC7F4"/>
<path d="M5.01499 4.98478L4.82324 6.21841L5.84429 5.35028L5.22751 4.60547C5.11699 4.69876 5.03886 4.83149 5.01499 4.98478Z" fill="#EEEBFF"/>
<path d="M5.62757 4.46493C5.47628 4.46242 5.33554 4.51629 5.22656 4.6085L5.84335 5.35331L6.8644 4.4852L5.62757 4.46493Z" fill="#CEC7F4"/>
<path d="M3.69304 7.86662L4.32857 8.93657L4.56 7.60651L3.61522 7.4375C3.58964 7.58106 3.61398 7.73357 3.69304 7.86662Z" fill="#EEEBFF"/>
<path d="M3.83229 7.0635C3.71494 7.16025 3.64132 7.29312 3.61621 7.43465L4.56115 7.6035L4.79258 6.27344L3.83229 7.0635Z" fill="#CEC7F4"/>
<path d="M4.5075 10.9321L5.67318 11.3377L5.00679 10.168L4.17578 10.6541C4.24723 10.7807 4.36257 10.8817 4.5075 10.9321Z" fill="#EEEBFF"/>
<path d="M4.10489 10.2267C4.07621 10.3772 4.10412 10.527 4.17464 10.6519L5.00565 10.1658L4.33927 8.99609L4.10489 10.2267Z" fill="#CEC7F4"/>
<path d="M7.07596 12.7502L8.22615 12.3018L6.97366 11.8398L6.64551 12.7536C6.78052 12.8038 6.93304 12.806 7.07596 12.7502Z" fill="#EEEBFF"/>
<path d="M6.32183 12.4743C6.39531 12.6083 6.51173 12.7049 6.64503 12.7546L6.97319 11.8408L5.7207 11.3789L6.32183 12.4743Z" fill="#CEC7F4"/>
<path d="M10.1969 12.4716L10.7935 11.3789L9.54102 11.8408L9.86917 12.7545C10.0043 12.7051 10.1226 12.6075 10.1969 12.4716Z" fill="#EEEBFF"/>
<path d="M9.44435 12.7494C9.58573 12.8043 9.73609 12.8024 9.8697 12.7536L9.54154 11.8398L8.28906 12.3018L9.44435 12.7494Z" fill="#CEC7F4"/>
<path d="M12.4103 10.2217L12.1742 8.99609L11.5078 10.1658L12.3389 10.6519C12.4111 10.5258 12.4398 10.3741 12.4103 10.2217Z" fill="#EEEBFF"/>
<path d="M12.0107 10.928C12.1536 10.8779 12.2678 10.7785 12.3392 10.6541L11.5082 10.168L10.8418 11.3377L12.0107 10.928Z" fill="#CEC7F4"/>
<path d="M12.6811 7.05846L11.7227 6.27344L11.9541 7.6035L12.899 7.43465C12.8747 7.29109 12.8003 7.15616 12.6811 7.05846Z" fill="#EEEBFF"/>
<path d="M12.8212 7.86127C12.899 7.7298 12.9234 7.57934 12.899 7.4375L11.9541 7.60635L12.1855 8.93641L12.8212 7.86127Z" fill="#CEC7F4"/>
<path d="M10.8816 4.46104L9.64941 4.48382L10.6705 5.35195L11.2873 4.60712C11.1773 4.51319 11.0349 4.45822 10.8816 4.46104Z" fill="#EEEBFF"/>
<path d="M11.4958 4.98071C11.4719 4.82929 11.3952 4.69829 11.2867 4.60547L10.6699 5.35029L11.691 6.21841L11.4958 4.98071Z" fill="#CEC7F4"/>
<path d="M8.25576 11.5969C10.0857 11.5969 11.5691 10.1202 11.5691 8.29845C11.5691 6.47677 10.0857 5 8.25576 5C6.42582 5 4.94238 6.47677 4.94238 8.29845C4.94238 10.1202 6.42582 11.5969 8.25576 11.5969Z" fill="url(#paint4_radial_1181_50014)"/>
<g filter="url(#filter0_i_1181_50014)">
<g style="mix-blend-mode:color-burn">
<path d="M7.48983 8.37375V7.97735L8.24696 7.35102C8.29718 7.30941 8.34013 7.27043 8.3758 7.23409C8.41214 7.19709 8.43988 7.1591 8.45904 7.12013C8.47887 7.08114 8.48878 7.03787 8.48878 6.9903C8.48878 6.9381 8.47754 6.89351 8.45508 6.85651C8.43328 6.81951 8.40289 6.7911 8.3639 6.77129C8.32493 6.7508 8.28 6.74056 8.22913 6.74056C8.17825 6.74056 8.13333 6.7508 8.09435 6.77129C8.05603 6.79177 8.0263 6.82182 8.00516 6.86146C7.98402 6.9011 7.97345 6.94934 7.97345 7.00615H7.4502C7.4502 6.86345 7.48223 6.74056 7.54632 6.6375C7.6104 6.53443 7.70092 6.45515 7.81786 6.39965C7.9348 6.34416 8.07189 6.31641 8.22913 6.31641C8.39166 6.31641 8.53238 6.3425 8.6513 6.3947C8.77088 6.44623 8.86304 6.51891 8.9278 6.61272C8.99321 6.70653 9.02591 6.81655 9.02591 6.94273C9.02591 7.02069 9.00972 7.09831 8.97735 7.17562C8.94497 7.25225 8.88684 7.33715 8.80293 7.43031C8.71902 7.52346 8.59977 7.63445 8.44517 7.76329L8.25489 7.92185V7.93374H9.04771V8.37375H7.48983Z" fill="black" fill-opacity="0.24"/>
</g>
<g style="mix-blend-mode:darken">
<path d="M7.48983 8.37375V7.97735L8.24696 7.35102C8.29718 7.30941 8.34013 7.27043 8.3758 7.23409C8.41214 7.19709 8.43988 7.1591 8.45904 7.12013C8.47887 7.08114 8.48878 7.03787 8.48878 6.9903C8.48878 6.9381 8.47754 6.89351 8.45508 6.85651C8.43328 6.81951 8.40289 6.7911 8.3639 6.77129C8.32493 6.7508 8.28 6.74056 8.22913 6.74056C8.17825 6.74056 8.13333 6.7508 8.09435 6.77129C8.05603 6.79177 8.0263 6.82182 8.00516 6.86146C7.98402 6.9011 7.97345 6.94934 7.97345 7.00615H7.4502C7.4502 6.86345 7.48223 6.74056 7.54632 6.6375C7.6104 6.53443 7.70092 6.45515 7.81786 6.39965C7.9348 6.34416 8.07189 6.31641 8.22913 6.31641C8.39166 6.31641 8.53238 6.3425 8.6513 6.3947C8.77088 6.44623 8.86304 6.51891 8.9278 6.61272C8.99321 6.70653 9.02591 6.81655 9.02591 6.94273C9.02591 7.02069 9.00972 7.09831 8.97735 7.17562C8.94497 7.25225 8.88684 7.33715 8.80293 7.43031C8.71902 7.52346 8.59977 7.63445 8.44517 7.76329L8.25489 7.92185V7.93374H9.04771V8.37375H7.48983Z" fill="#5F5493"/>
</g>
</g>
<g filter="url(#filter1_i_1181_50014)">
<g style="mix-blend-mode:color-burn">
<path d="M6.4068 9.42084C6.40415 9.38781 6.39176 9.36204 6.36964 9.34354C6.34783 9.32504 6.31464 9.3158 6.27003 9.3158C6.24162 9.3158 6.21833 9.31926 6.20017 9.3262C6.18233 9.33281 6.16911 9.34189 6.16053 9.35346C6.15194 9.36502 6.14748 9.37823 6.14715 9.3931C6.14648 9.40532 6.14864 9.41638 6.15359 9.4263C6.15888 9.43588 6.16714 9.44462 6.17837 9.45255C6.1896 9.46016 6.20396 9.46709 6.22147 9.47337C6.23898 9.47965 6.2598 9.48526 6.2839 9.49022L6.36716 9.50805C6.42331 9.51995 6.47138 9.53563 6.51134 9.55512C6.55132 9.57461 6.58402 9.59758 6.60946 9.62401C6.63489 9.6501 6.65355 9.6795 6.66545 9.7122C6.67767 9.7449 6.68395 9.78058 6.68428 9.81923C6.68395 9.88596 6.66726 9.94245 6.63423 9.98869C6.60119 10.0349 6.55396 10.0701 6.49252 10.0942C6.4314 10.1184 6.3579 10.1304 6.27202 10.1304C6.18382 10.1304 6.10684 10.1174 6.04111 10.0913C5.97571 10.0652 5.92483 10.025 5.8885 9.97086C5.85248 9.91636 5.83432 9.84665 5.83398 9.76175H6.09561C6.09726 9.79281 6.10503 9.8189 6.1189 9.84004C6.13277 9.86118 6.15226 9.8772 6.17738 9.88811C6.20281 9.89901 6.23303 9.90446 6.26805 9.90446C6.29745 9.90446 6.32207 9.90082 6.34188 9.89355C6.36171 9.88629 6.37673 9.87622 6.38697 9.86333C6.39722 9.85045 6.4025 9.83575 6.40283 9.81923C6.4025 9.8037 6.39738 9.79016 6.38747 9.7786C6.37789 9.7667 6.36203 9.75613 6.3399 9.74689C6.31776 9.73731 6.28787 9.72839 6.25022 9.72013L6.14914 9.69833C6.05928 9.67883 5.98843 9.6463 5.93655 9.60072C5.88502 9.5548 5.85943 9.49219 5.85975 9.41291C5.85943 9.3485 5.8766 9.29218 5.91129 9.24395C5.9463 9.19539 5.99469 9.15757 6.05647 9.13047C6.11858 9.10339 6.18976 9.08984 6.27003 9.08984C6.35196 9.08984 6.42281 9.10355 6.48261 9.13097C6.5424 9.15839 6.58848 9.19704 6.62086 9.24693C6.65355 9.29647 6.67008 9.35445 6.6704 9.42084H6.4068ZM7.06458 9.10372V10.1185H6.78908V9.10372H7.06458ZM7.19515 10.1185V9.10372H7.47065V9.89653H7.88093V10.1185H7.19515ZM8.15123 9.10372L8.35935 9.81923H8.36726L8.57538 9.10372H8.88657L8.5516 10.1185H8.17501L7.84005 9.10372H8.15123ZM8.9843 10.1185V9.10372H9.71567V9.3257H9.2598V9.50012H9.67801V9.72211H9.2598V9.89653H9.71368V10.1185H8.9843ZM9.85231 10.1185V9.10372H10.2903C10.3656 9.10372 10.4316 9.11743 10.488 9.14484C10.5445 9.17226 10.5885 9.21174 10.6198 9.26327C10.6512 9.31481 10.6669 9.37658 10.6669 9.44859C10.6669 9.52126 10.6507 9.58254 10.6184 9.63243C10.5863 9.68231 10.5412 9.71996 10.4831 9.7454C10.4253 9.77083 10.3577 9.78355 10.2804 9.78355H10.0188V9.56949H10.2249C10.2573 9.56949 10.2849 9.56553 10.3077 9.5576C10.3308 9.54934 10.3485 9.5363 10.3607 9.51846C10.3733 9.50062 10.3795 9.47733 10.3795 9.44859C10.3795 9.41952 10.3733 9.3959 10.3607 9.37774C10.3485 9.35924 10.3308 9.34569 10.3077 9.3371C10.2849 9.32818 10.2573 9.32373 10.2249 9.32373H10.1278V10.1185H9.85231ZM10.4469 9.65274L10.7006 10.1185H10.4013L10.1536 9.65274H10.4469Z" fill="black" fill-opacity="0.24"/>
</g>
<g style="mix-blend-mode:darken">
<path d="M6.4068 9.42084C6.40415 9.38781 6.39176 9.36204 6.36964 9.34354C6.34783 9.32504 6.31464 9.3158 6.27003 9.3158C6.24162 9.3158 6.21833 9.31926 6.20017 9.3262C6.18233 9.33281 6.16911 9.34189 6.16053 9.35346C6.15194 9.36502 6.14748 9.37823 6.14715 9.3931C6.14648 9.40532 6.14864 9.41638 6.15359 9.4263C6.15888 9.43588 6.16714 9.44462 6.17837 9.45255C6.1896 9.46016 6.20396 9.46709 6.22147 9.47337C6.23898 9.47965 6.2598 9.48526 6.2839 9.49022L6.36716 9.50805C6.42331 9.51995 6.47138 9.53563 6.51134 9.55512C6.55132 9.57461 6.58402 9.59758 6.60946 9.62401C6.63489 9.6501 6.65355 9.6795 6.66545 9.7122C6.67767 9.7449 6.68395 9.78058 6.68428 9.81923C6.68395 9.88596 6.66726 9.94245 6.63423 9.98869C6.60119 10.0349 6.55396 10.0701 6.49252 10.0942C6.4314 10.1184 6.3579 10.1304 6.27202 10.1304C6.18382 10.1304 6.10684 10.1174 6.04111 10.0913C5.97571 10.0652 5.92483 10.025 5.8885 9.97086C5.85248 9.91636 5.83432 9.84665 5.83398 9.76175H6.09561C6.09726 9.79281 6.10503 9.8189 6.1189 9.84004C6.13277 9.86118 6.15226 9.8772 6.17738 9.88811C6.20281 9.89901 6.23303 9.90446 6.26805 9.90446C6.29745 9.90446 6.32207 9.90082 6.34188 9.89355C6.36171 9.88629 6.37673 9.87622 6.38697 9.86333C6.39722 9.85045 6.4025 9.83575 6.40283 9.81923C6.4025 9.8037 6.39738 9.79016 6.38747 9.7786C6.37789 9.7667 6.36203 9.75613 6.3399 9.74689C6.31776 9.73731 6.28787 9.72839 6.25022 9.72013L6.14914 9.69833C6.05928 9.67883 5.98843 9.6463 5.93655 9.60072C5.88502 9.5548 5.85943 9.49219 5.85975 9.41291C5.85943 9.3485 5.8766 9.29218 5.91129 9.24395C5.9463 9.19539 5.99469 9.15757 6.05647 9.13047C6.11858 9.10339 6.18976 9.08984 6.27003 9.08984C6.35196 9.08984 6.42281 9.10355 6.48261 9.13097C6.5424 9.15839 6.58848 9.19704 6.62086 9.24693C6.65355 9.29647 6.67008 9.35445 6.6704 9.42084H6.4068ZM7.06458 9.10372V10.1185H6.78908V9.10372H7.06458ZM7.19515 10.1185V9.10372H7.47065V9.89653H7.88093V10.1185H7.19515ZM8.15123 9.10372L8.35935 9.81923H8.36726L8.57538 9.10372H8.88657L8.5516 10.1185H8.17501L7.84005 9.10372H8.15123ZM8.9843 10.1185V9.10372H9.71567V9.3257H9.2598V9.50012H9.67801V9.72211H9.2598V9.89653H9.71368V10.1185H8.9843ZM9.85231 10.1185V9.10372H10.2903C10.3656 9.10372 10.4316 9.11743 10.488 9.14484C10.5445 9.17226 10.5885 9.21174 10.6198 9.26327C10.6512 9.31481 10.6669 9.37658 10.6669 9.44859C10.6669 9.52126 10.6507 9.58254 10.6184 9.63243C10.5863 9.68231 10.5412 9.71996 10.4831 9.7454C10.4253 9.77083 10.3577 9.78355 10.2804 9.78355H10.0188V9.56949H10.2249C10.2573 9.56949 10.2849 9.56553 10.3077 9.5576C10.3308 9.54934 10.3485 9.5363 10.3607 9.51846C10.3733 9.50062 10.3795 9.47733 10.3795 9.44859C10.3795 9.41952 10.3733 9.3959 10.3607 9.37774C10.3485 9.35924 10.3308 9.34569 10.3077 9.3371C10.2849 9.32818 10.2573 9.32373 10.2249 9.32373H10.1278V10.1185H9.85231ZM10.4469 9.65274L10.7006 10.1185H10.4013L10.1536 9.65274H10.4469Z" fill="#5F5493"/>
</g>
</g>
<path d="M8.25794 4.67188C6.29953 4.67188 4.71191 6.28042 4.71191 8.26483C4.71191 10.2492 6.29953 11.8579 8.25794 11.8579C10.2163 11.8579 11.8039 10.2492 11.8039 8.26483C11.8039 6.28042 10.2163 4.67188 8.25794 4.67188ZM8.25794 11.563C6.46027 11.563 5.00303 10.0864 5.00303 8.26483C5.00303 6.44329 6.46027 4.96669 8.25794 4.96669C10.0556 4.96669 11.5128 6.44329 11.5128 8.26483C11.5128 10.0864 10.0556 11.563 8.25794 11.563Z" fill="url(#paint5_linear_1181_50014)"/>
<path d="M8.25713 4.21484C6.04885 4.21484 4.25879 6.02869 4.25879 8.2663C4.25879 10.5039 6.04885 12.3177 8.25713 12.3177C10.4654 12.3177 12.2555 10.5039 12.2555 8.2663C12.2555 6.02869 10.4654 4.21484 8.25713 4.21484ZM8.25713 11.8577C6.29965 11.8577 4.71281 10.2498 4.71281 8.2663C4.71281 6.28282 6.29965 4.67506 8.25713 4.67506C10.2146 4.67506 11.8014 6.28298 11.8014 8.26646C11.8014 10.2499 10.2146 11.8577 8.25713 11.8577Z" fill="url(#paint6_linear_1181_50014)"/>
</g>
<defs>
<filter id="filter0_i_1181_50014" x="7.4502" y="6.31641" width="1.59766" height="2.18359" filterUnits="userSpaceOnUse" color-interpolation-filters="sRGB">
<feFlood flood-opacity="0" result="BackgroundImageFix"/>
<feBlend mode="normal" in="SourceGraphic" in2="BackgroundImageFix" result="shape"/>
<feColorMatrix in="SourceAlpha" type="matrix" values="0 0 0 0 0 0 0 0 0 0 0 0 0 0 0 0 0 0 127 0" result="hardAlpha"/>
<feOffset dy="0.125"/>
<feGaussianBlur stdDeviation="0.125"/>
<feComposite in2="hardAlpha" operator="arithmetic" k2="-1" k3="1"/>
<feColorMatrix type="matrix" values="0 0 0 0 0 0 0 0 0 0 0 0 0 0 0 0 0 0 0.24 0"/>
<feBlend mode="darken" in2="shape" result="effect1_innerShadow_1181_50014"/>
</filter>
<filter id="filter1_i_1181_50014" x="5.83398" y="9.08984" width="4.86621" height="1.16406" filterUnits="userSpaceOnUse" color-interpolation-filters="sRGB">
<feFlood flood-opacity="0" result="BackgroundImageFix"/>
<feBlend mode="normal" in="SourceGraphic" in2="BackgroundImageFix" result="shape"/>
<feColorMatrix in="SourceAlpha" type="matrix" values="0 0 0 0 0 0 0 0 0 0 0 0 0 0 0 0 0 0 127 0" result="hardAlpha"/>
<feOffset dy="0.125"/>
<feGaussianBlur stdDeviation="0.125"/>
<feComposite in2="hardAlpha" operator="arithmetic" k2="-1" k3="1"/>
<feColorMatrix type="matrix" values="0 0 0 0 0 0 0 0 0 0 0 0 0 0 0 0 0 0 0.24 0"/>
<feBlend mode="darken" in2="shape" result="effect1_innerShadow_1181_50014"/>
</filter>
<linearGradient id="paint0_linear_1181_50014" x1="1.9209" y1="11.6289" x2="14.6578" y2="11.7302" gradientUnits="userSpaceOnUse">
<stop stop-color="#ACB6B8"/>
<stop offset="0.491554" stop-color="#E0E6E8"/>
<stop offset="1" stop-color="#7D999E"/>
</linearGradient>
<linearGradient id="paint1_linear_1181_50014" x1="2.03613" y1="10.9375" x2="14.3559" y2="11.1213" gradientUnits="userSpaceOnUse">
<stop stop-color="#ACB6B8"/>
<stop offset="0.491554" stop-color="#E0E6E8"/>
<stop offset="1" stop-color="#7D999E"/>
</linearGradient>
<linearGradient id="paint2_linear_1181_50014" x1="3.5166" y1="0.992187" x2="13.1077" y2="1.17789" gradientUnits="userSpaceOnUse">
<stop stop-color="#ACB6B8"/>
<stop offset="0.491554" stop-color="#E0E6E8"/>
<stop offset="1" stop-color="#7D999E"/>
</linearGradient>
<linearGradient id="paint3_linear_1181_50014" x1="1.49805" y1="3.94921" x2="15.0847" y2="4.10547" gradientUnits="userSpaceOnUse">
<stop stop-color="#ACB6B8"/>
<stop offset="0.491554" stop-color="#E0E6E8"/>
<stop offset="1" stop-color="#7D999E"/>
</linearGradient>
<radialGradient id="paint4_radial_1181_50014" cx="0" cy="0" r="1" gradientUnits="userSpaceOnUse" gradientTransform="translate(8.25578 8.2984) scale(3.31337 3.29845)">
<stop offset="0.8428" stop-color="#B5AAEA"/>
<stop offset="1" stop-color="#A398D8"/>
</radialGradient>
<linearGradient id="paint5_linear_1181_50014" x1="8.25792" y1="4.66135" x2="8.25792" y2="11.8475" gradientUnits="userSpaceOnUse">
<stop stop-color="#988DCD"/>
<stop offset="0.8201" stop-color="#D1CCEA"/>
<stop offset="1" stop-color="#A99DE2"/>
</linearGradient>
<linearGradient id="paint6_linear_1181_50014" x1="8.25715" y1="4.20297" x2="8.25715" y2="12.306" gradientUnits="userSpaceOnUse">
<stop stop-color="#DFD8FF"/>
<stop offset="0.1799" stop-color="#E6E1FF"/>
<stop offset="1" stop-color="#988DCD"/>
</linearGradient>
<clipPath id="clip0_1181_50014">
<rect width="16.2791" height="20" fill="white" transform="translate(0.117188)"/>
</clipPath>
</defs>
</svg>
