<svg width="21" height="20" viewBox="0 0 21 20" fill="none" xmlns="http://www.w3.org/2000/svg">
<g clip-path="url(#clip0_3947_7912)">
<path d="M20.0837 11.667C20.0837 10.6605 19.4846 9.79326 18.6253 9.39727V9.16699C18.6253 4.68681 14.9805 1.04199 10.5003 1.04199C6.02014 1.04199 2.37533 4.68681 2.37533 9.16699V9.39727C1.51608 9.79326 0.916992 10.6605 0.916992 11.667C0.916992 13.0455 2.03841 14.167 3.41699 14.167H4.25033C4.48043 14.167 4.66699 13.9804 4.66699 13.7503V9.58366C4.66699 9.35356 4.48043 9.16699 4.25033 9.16699H3.41699C3.34667 9.16699 3.27753 9.17182 3.20866 9.17755V9.16699C3.20866 5.1464 6.47974 1.87533 10.5003 1.87533C14.5209 1.87533 17.792 5.1464 17.792 9.16699V9.17755C17.7231 9.17182 17.654 9.16699 17.5837 9.16699H16.7503C16.5202 9.16699 16.3337 9.35356 16.3337 9.58366V13.7503C16.3337 13.9804 16.5202 14.167 16.7503 14.167H17.5837C17.654 14.167 17.7231 14.1622 17.792 14.1564V14.792C17.792 16.1705 16.6706 17.292 15.292 17.292H12.167C12.167 16.8325 11.7933 16.4587 11.3337 16.4587H9.25033C8.79073 16.4587 8.41699 16.8325 8.41699 17.292V18.1253C8.41699 18.5848 8.79073 18.9587 9.25033 18.9587H11.3337C11.7933 18.9587 12.167 18.5848 12.167 18.1253H15.292C17.13 18.1253 18.6253 16.63 18.6253 14.792V13.9367C19.4846 13.5407 20.0837 12.6735 20.0837 11.667ZM3.83366 10.0003V13.3337H3.41699C2.49801 13.3337 1.75033 12.586 1.75033 11.667C1.75033 10.748 2.49801 10.0003 3.41699 10.0003H3.83366ZM9.25033 18.1253V17.292H11.3337L11.334 17.7057L11.3337 17.7087L11.334 17.7117L11.3343 18.1253H9.25033ZM17.5837 13.3337H17.167V10.0003H17.5837C18.5026 10.0003 19.2503 10.748 19.2503 11.667C19.2503 12.586 18.5026 13.3337 17.5837 13.3337Z" fill="#3B2B8C"/>
</g>
<defs>
<clipPath id="clip0_3947_7912">
<rect width="20" height="20" fill="white" transform="translate(0.5)"/>
</clipPath>
</defs>
</svg>
