<svg width="40" height="40" viewBox="0 0 40 40" fill="none" xmlns="http://www.w3.org/2000/svg">
<path d="M18 20C18 21.1046 18.8954 22 20 22C21.1046 22 22 21.1046 22 20C22 18.8954 21.1046 18 20 18C18.8954 18 18 18.8954 18 20Z" fill="#586276"/>
<path d="M18 14C18 15.1046 18.8954 16 20 16C21.1046 16 22 15.1046 22 14C22 12.8954 21.1046 12 20 12C18.8954 12 18 12.8954 18 14Z" fill="#586276"/>
<path d="M18 26C18 27.1046 18.8954 28 20 28C21.1046 28 22 27.1046 22 26C22 24.8954 21.1046 24 20 24C18.8954 24 18 24.8954 18 26Z" fill="#586276"/>
</svg>
