<svg width="14" height="13" viewBox="0 0 14 13" fill="none" xmlns="http://www.w3.org/2000/svg">
    <path d="M12.0625 0.125977H1.53819C0.689856 0.125977 0 0.815605 0 1.66494V11.3375C0 12.1858 0.689856 12.8747 1.53819 12.8747H12.0625C12.9108 12.8747 13.6 12.1858 13.6 11.3375V1.66494C13.6 0.815605 12.9109 0.125977 12.0625 0.125977ZM8.79445 2.41471C9.61483 2.41471 10.2801 3.08007 10.2801 3.90041C10.2801 4.72074 9.61479 5.3861 8.79445 5.3861C7.97384 5.3861 7.30875 4.72074 7.30875 3.90041C7.30875 3.08007 7.97384 2.41471 8.79445 2.41471ZM11.5801 11.4528H6.79986H2.23255C1.82223 11.4528 1.63948 11.1559 1.82446 10.7897L4.37419 5.73948C4.55893 5.37326 4.91103 5.34058 5.16038 5.66641L7.72422 9.01694C7.97357 9.34282 8.40939 9.37054 8.69785 9.07859L9.32506 8.44345C9.61328 8.15149 10.038 8.18764 10.2732 8.52367L11.8973 10.8436C12.1321 11.1802 11.9905 11.4528 11.5801 11.4528Z" fill="white"/>
    </svg>