<svg width="14" height="15" viewBox="0 0 14 15" fill="none" xmlns="http://www.w3.org/2000/svg">
<g clip-path="url(#clip0_5667_14460)">
<path d="M12.4173 0.930664H1.58343C0.710146 0.930664 0 1.64058 0 2.51489V12.4719C0 13.3452 0.710146 14.0543 1.58343 14.0543H12.4173C13.2906 14.0543 14 13.3452 14 12.4719V2.51489C14 1.64058 13.2906 0.930664 12.4173 0.930664ZM9.05311 3.28671C9.89762 3.28671 10.5825 3.97164 10.5825 4.81611C10.5825 5.66057 9.89757 6.3455 9.05311 6.3455C8.20837 6.3455 7.52372 5.66057 7.52372 4.81611C7.52372 3.97164 8.20837 3.28671 9.05311 3.28671ZM11.9207 12.5906H6.99986H2.29822C1.87582 12.5906 1.6877 12.285 1.87812 11.908L4.50284 6.70927C4.69302 6.33228 5.05547 6.29864 5.31215 6.63405L7.95141 10.0831C8.20809 10.4186 8.65673 10.4471 8.95366 10.1466L9.59932 9.49277C9.89603 9.19222 10.3332 9.22943 10.5753 9.57535L12.2472 11.9635C12.4889 12.31 12.3431 12.5906 11.9207 12.5906Z" fill="#141482"/>
</g>
<defs>
<clipPath id="clip0_5667_14460">
<rect width="14" height="14" fill="white" transform="translate(0 0.5)"/>
</clipPath>
</defs>
</svg>
