<svg width="16" height="17" viewBox="0 0 16 17" fill="none" xmlns="http://www.w3.org/2000/svg">
<g id="upload (4) 1">
<path id="Vector" d="M14.6665 9.16602C14.4897 9.16602 14.3201 9.23625 14.1951 9.36128C14.0701 9.4863 13.9998 9.65587 13.9998 9.83268V12.6413C13.9993 13.134 13.8034 13.6062 13.4551 13.9546C13.1067 14.3029 12.6344 14.4988 12.1418 14.4993H3.85784C3.36523 14.4988 2.89295 14.3029 2.54462 13.9546C2.19629 13.6062 2.00037 13.134 1.99984 12.6413V9.83268C1.99984 9.65587 1.9296 9.4863 1.80458 9.36128C1.67955 9.23625 1.50998 9.16602 1.33317 9.16602C1.15636 9.16602 0.98679 9.23625 0.861766 9.36128C0.736742 9.4863 0.666504 9.65587 0.666504 9.83268V12.6413C0.667386 13.4875 1.0039 14.2987 1.6022 14.897C2.2005 15.4953 3.01171 15.8318 3.85784 15.8327H12.1418C12.988 15.8318 13.7992 15.4953 14.3975 14.897C14.9958 14.2987 15.3323 13.4875 15.3332 12.6413V9.83268C15.3332 9.65587 15.2629 9.4863 15.1379 9.36128C15.0129 9.23625 14.8433 9.16602 14.6665 9.16602Z" fill="#141482"/>
<path id="Vector_2" d="M4.4716 6.30387L7.3336 3.44187V11.8325C7.3336 12.0094 7.40384 12.1789 7.52887 12.3039C7.65389 12.429 7.82346 12.4992 8.00027 12.4992C8.17708 12.4992 8.34665 12.429 8.47167 12.3039C8.5967 12.1789 8.66694 12.0094 8.66694 11.8325V3.44187L11.5289 6.30387C11.6547 6.42531 11.8231 6.49251 11.9979 6.49099C12.1727 6.48947 12.3399 6.41936 12.4635 6.29575C12.5871 6.17215 12.6572 6.00494 12.6587 5.83014C12.6602 5.65534 12.593 5.48694 12.4716 5.36121L8.4716 1.36121C8.34658 1.23623 8.17705 1.16602 8.00027 1.16602C7.82349 1.16602 7.65396 1.23623 7.52894 1.36121L3.52894 5.36121C3.4075 5.48694 3.3403 5.65534 3.34182 5.83014C3.34334 6.00494 3.41345 6.17215 3.53706 6.29575C3.66066 6.41936 3.82787 6.48947 4.00267 6.49099C4.17747 6.49251 4.34587 6.42531 4.4716 6.30387Z" fill="#141482"/>
</g>
</svg>
