<svg width="16" height="15" viewBox="0 0 16 15" fill="none" xmlns="http://www.w3.org/2000/svg">
<path d="M14.667 8.16602C14.4902 8.16602 14.3206 8.23625 14.1956 8.36128C14.0706 8.4863 14.0003 8.65587 14.0003 8.83268V11.6413C13.9998 12.134 13.8039 12.6062 13.4555 12.9546C13.1072 13.3029 12.6349 13.4988 12.1423 13.4993H3.85833C3.36572 13.4988 2.89343 13.3029 2.54511 12.9546C2.19678 12.6062 2.00086 12.134 2.00033 11.6413V8.83268C2.00033 8.65587 1.93009 8.4863 1.80506 8.36128C1.68004 8.23625 1.51047 8.16602 1.33366 8.16602C1.15685 8.16602 0.987279 8.23625 0.862254 8.36128C0.73723 8.4863 0.666992 8.65587 0.666992 8.83268V11.6413C0.667875 12.4875 1.00439 13.2987 1.60269 13.897C2.20099 14.4953 3.0122 14.8318 3.85833 14.8327H12.1423C12.9885 14.8318 13.7997 14.4953 14.398 13.897C14.9963 13.2987 15.3328 12.4875 15.3337 11.6413V8.83268C15.3337 8.65587 15.2634 8.4863 15.1384 8.36128C15.0134 8.23625 14.8438 8.16602 14.667 8.16602Z" fill="#ABABAB"/>
<path d="M4.4716 5.30387L7.3336 2.44187V10.8325C7.3336 11.0094 7.40384 11.1789 7.52887 11.3039C7.65389 11.429 7.82346 11.4992 8.00027 11.4992C8.17708 11.4992 8.34665 11.429 8.47167 11.3039C8.5967 11.1789 8.66694 11.0094 8.66694 10.8325V2.44187L11.5289 5.30387C11.6547 5.42531 11.8231 5.49251 11.9979 5.49099C12.1727 5.48947 12.3399 5.41936 12.4635 5.29575C12.5871 5.17215 12.6572 5.00494 12.6587 4.83014C12.6602 4.65534 12.593 4.48694 12.4716 4.36121L8.4716 0.36121C8.34658 0.23623 8.17705 0.16602 8.00027 0.16602C7.82349 0.16602 7.65396 0.23623 7.52894 0.36121L3.52894 4.36121C3.4075 4.48694 3.3403 4.65534 3.34182 4.83014C3.34334 5.00494 3.41345 5.17215 3.53706 5.29575C3.66066 5.41936 3.82787 5.48947 4.00267 5.49099C4.17747 5.49251 4.34587 5.42531 4.4716 5.30387Z" fill="#ABABAB"/>
</svg>
