<svg width="15" height="15" viewBox="0 0 15 15" fill="none" xmlns="http://www.w3.org/2000/svg">
<g id="download (1) 1">
<g id="Group">
<path id="Vector" fill-rule="evenodd" clip-rule="evenodd" d="M12.0966 4.95898C11.7845 4.95898 11.5315 4.70601 11.5315 4.39392L11.5315 3.26379C11.5315 3.11394 11.472 2.97024 11.366 2.86424C11.26 2.75829 11.1163 2.69873 10.9664 2.69873L4.18568 2.69873C4.03583 2.69873 3.89213 2.75823 3.78613 2.86424C3.68012 2.97024 3.62062 3.11394 3.62062 3.26379L3.62062 4.39392C3.62062 4.706 3.36764 4.95898 3.05556 4.95898C2.74347 4.95898 2.49049 4.706 2.49049 4.39392L2.49049 3.26379C2.49049 2.81423 2.66905 2.38303 2.98702 2.06513C3.30492 1.74722 3.73612 1.5686 4.18568 1.5686L10.9664 1.56861C11.416 1.56861 11.8472 1.74717 12.1651 2.06513C12.483 2.38303 12.6616 2.81423 12.6616 3.26379L12.6616 4.39392C12.6616 4.70601 12.4086 4.95898 12.0966 4.95898Z" fill="#141482"/>
<path id="Vector_2" fill-rule="evenodd" clip-rule="evenodd" d="M10.8008 8.1841C10.5801 8.40478 10.2224 8.40478 10.0017 8.1841L7.57594 5.75834L5.15018 8.1841C4.92952 8.40478 4.57172 8.40478 4.35107 8.1841C4.13035 7.96345 4.13035 7.60565 4.35107 7.38499L7.17638 4.55967C7.39704 4.33902 7.75484 4.33902 7.9755 4.55967L10.8008 7.38499C11.0215 7.60565 11.0215 7.96345 10.8008 8.1841Z" fill="#141482"/>
<path id="Vector_3" fill-rule="evenodd" clip-rule="evenodd" d="M7.57312 12.3027C7.26104 12.3027 7.00806 12.0497 7.00806 11.7377L7.00806 4.95691C7.00806 4.64483 7.26104 4.39185 7.57312 4.39185C7.88521 4.39185 8.13818 4.64483 8.13818 4.95691L8.13818 11.7377C8.13818 12.0497 7.8852 12.3027 7.57312 12.3027Z" fill="#141482"/>
</g>
</g>
</svg>
