<svg width="32" height="32" viewBox="0 0 32 32" fill="none" xmlns="http://www.w3.org/2000/svg">
<g clip-path="url(#clip0_548_40078)">
<path d="M22.2266 17.5068C24.0533 18.7468 25.3333 20.4268 25.3333 22.6668V26.6668H30.6666V22.6668C30.6666 19.7602 25.9066 18.0402 22.2266 17.5068Z" fill="white"/>
<path d="M20 16.0002C22.9466 16.0002 25.3333 13.6135 25.3333 10.6668C25.3333 7.72016 22.9466 5.3335 20 5.3335C19.3733 5.3335 18.7866 5.46683 18.2266 5.6535C19.3333 7.02683 20 8.7735 20 10.6668C20 12.5602 19.3333 14.3068 18.2266 15.6802C18.7866 15.8668 19.3733 16.0002 20 16.0002Z" fill="white"/>
<path d="M12 16.0002C14.9466 16.0002 17.3333 13.6135 17.3333 10.6668C17.3333 7.72016 14.9466 5.3335 12 5.3335C9.05329 5.3335 6.66663 7.72016 6.66663 10.6668C6.66663 13.6135 9.05329 16.0002 12 16.0002ZM12 8.00016C13.4666 8.00016 14.6666 9.20016 14.6666 10.6668C14.6666 12.1335 13.4666 13.3335 12 13.3335C10.5333 13.3335 9.33329 12.1335 9.33329 10.6668C9.33329 9.20016 10.5333 8.00016 12 8.00016Z" fill="white"/>
<path d="M12 17.3335C8.43998 17.3335 1.33331 19.1202 1.33331 22.6668V26.6668H22.6666V22.6668C22.6666 19.1202 15.56 17.3335 12 17.3335ZM20 24.0002H3.99998V22.6802C4.26665 21.7202 8.39998 20.0002 12 20.0002C15.6 20.0002 19.7333 21.7202 20 22.6668V24.0002Z" fill="white"/>
</g>
<defs>
<clipPath id="clip0_548_40078">
<rect width="32" height="32" fill="white"/>
</clipPath>
</defs>
</svg>
