<svg width="16" height="16" viewBox="0 0 16 16" fill="none" xmlns="http://www.w3.org/2000/svg">
<g clip-path="url(#clip0_1883_2689)">
<path d="M5.61875 12.5427L3.23173 13.8447C3.09165 13.9211 2.96576 14.015 2.84863 14.1173C4.24033 15.2907 6.03686 15.9987 7.99973 15.9987C9.94811 15.9987 11.7332 15.3013 13.1209 14.1439C12.9929 14.0358 12.8541 13.9386 12.7001 13.8619L10.144 12.584C9.81377 12.4189 9.60516 12.0814 9.60516 11.7122V10.7093C9.67701 10.6275 9.75912 10.5224 9.84697 10.3984C10.1954 9.90629 10.4589 9.36501 10.6415 8.79716C10.9694 8.69602 11.2109 8.39323 11.2109 8.03338V6.96289C11.2109 6.72742 11.1061 6.51701 10.9434 6.36968V4.82221C10.9434 4.82221 11.2613 2.41406 8.00003 2.41406C4.73875 2.41406 5.05663 4.82221 5.05663 4.82221V6.36968C4.89361 6.51701 4.78916 6.72742 4.78916 6.96289V8.03338C4.78916 8.31534 4.93739 8.5635 5.15927 8.70689C5.42675 9.87127 6.12712 10.7093 6.12712 10.7093V11.6874C6.12682 12.0436 5.9318 12.3718 5.61875 12.5427Z" fill="#E7ECED"/>
<path d="M8.13674 0.00119129C3.71923 -0.0742804 0.0766638 3.44572 0.00119208 7.86323C-0.0416758 10.368 1.0747 12.6192 2.85221 14.1162C2.96844 14.0148 3.09312 13.9218 3.23168 13.8463L5.6187 12.5443C5.93176 12.3734 6.12678 12.0453 6.12678 11.6884V10.7103C6.12678 10.7103 5.4261 9.87228 5.15893 8.70791C4.93734 8.56451 4.78882 8.31666 4.78882 8.0344V6.96391C4.78882 6.72844 4.89357 6.51802 5.05629 6.3707V4.82323C5.05629 4.82323 4.7384 2.41508 7.99968 2.41508C11.261 2.41508 10.9431 4.82323 10.9431 4.82323V6.3707C11.1061 6.51802 11.2106 6.72844 11.2106 6.96391V8.0344C11.2106 8.39425 10.969 8.69704 10.6412 8.79817C10.4586 9.36602 10.195 9.9073 9.84663 10.3994C9.75878 10.5235 9.67666 10.6285 9.60482 10.7103V11.7132C9.60482 12.0824 9.81342 12.4202 10.1437 12.585L12.6998 13.8629C12.8531 13.9396 12.9917 14.0365 13.1194 14.1443C14.8432 12.7067 15.9568 10.5573 15.9982 8.13674C16.0743 3.71923 12.5546 0.076663 8.13674 0.00119129Z" fill="#556080"/>
</g>
<defs>
<clipPath id="clip0_1883_2689">
<rect width="16" height="16" fill="white"/>
</clipPath>
</defs>
</svg>
