<svg width="32" height="32" viewBox="0 0 32 32" fill="none" xmlns="http://www.w3.org/2000/svg">
<g clip-path="url(#clip0_738_21922)">
<path d="M11.238 25.088L6.46394 27.6921C6.18379 27.8448 5.93202 28.0326 5.69775 28.2373C8.48115 30.5842 12.0742 32 15.9999 32C19.8967 32 23.4668 30.6053 26.2424 28.2904C25.9864 28.0743 25.7086 27.8799 25.4007 27.7265L20.2885 25.1707C19.628 24.8405 19.2108 24.1654 19.2108 23.427V21.4213C19.3545 21.2577 19.5187 21.0476 19.6944 20.7994C20.3912 19.8153 20.9183 18.7327 21.2836 17.597C21.9393 17.3947 22.4223 16.7891 22.4223 16.0694V13.9285C22.4223 13.4575 22.2128 13.0367 21.8873 12.7421V9.64711C21.8873 9.64711 22.5231 4.83081 16.0005 4.83081C9.47798 4.83081 10.1138 9.64711 10.1138 9.64711V12.7421C9.78772 13.0367 9.57881 13.4575 9.57881 13.9285V16.0694C9.57881 16.6334 9.87526 17.1297 10.319 17.4165C10.854 19.7452 12.2547 21.4213 12.2547 21.4213V23.3775C12.2541 24.09 11.8641 24.7463 11.238 25.088Z" fill="#E7ECED"/>
<path d="M16.2735 0.00238259C7.43846 -0.148561 0.153328 6.89144 0.00238417 15.7265C-0.0833517 20.736 2.1494 25.2383 5.70442 28.2324C5.93688 28.0296 6.18623 27.8436 6.46337 27.6926L11.2374 25.0886C11.8635 24.7468 12.2536 24.0905 12.2536 23.3769V21.4206C12.2536 21.4206 10.8522 19.7446 10.3179 17.4158C9.87469 17.129 9.57763 16.6333 9.57763 16.0688V13.9278C9.57763 13.4569 9.78714 13.036 10.1126 12.7414V9.64646C10.1126 9.64646 9.4768 4.83016 15.9994 4.83016C22.5219 4.83016 21.8862 9.64646 21.8862 9.64646V12.7414C22.2122 13.036 22.4211 13.4569 22.4211 13.9278V16.0688C22.4211 16.7885 21.9381 17.3941 21.2824 17.5963C20.9171 18.732 20.39 19.8146 19.6933 20.7988C19.5176 21.0469 19.3533 21.257 19.2096 21.4206V23.4264C19.2096 24.1648 19.6268 24.8404 20.2874 25.1701L25.3995 27.7259C25.7062 27.8792 25.9834 28.073 26.2388 28.2886C29.6863 25.4134 31.9136 21.1145 31.9964 16.2735C32.1485 7.43846 25.1091 0.153326 16.2735 0.00238259Z" fill="#556080"/>
</g>
<defs>
<clipPath id="clip0_738_21922">
<rect width="32" height="32" fill="white"/>
</clipPath>
</defs>
</svg>
