<svg width="54" height="54" viewBox="0 0 54 54" fill="none" xmlns="http://www.w3.org/2000/svg">
<rect width="54" height="54" rx="27" fill="#2EC068"/>
<rect width="54" height="54" rx="27" fill="black" fill-opacity="0.4"/>
<g clip-path="url(#clip0_189_5784)">
<path d="M27.0007 10.333C17.8007 10.333 10.334 17.7997 10.334 26.9997C10.334 36.1997 17.8007 43.6663 27.0007 43.6663C36.2007 43.6663 43.6673 36.1997 43.6673 26.9997C43.6673 17.7997 36.2007 10.333 27.0007 10.333ZM23.6673 35.333L15.334 26.9997L17.684 24.6497L23.6673 30.6163L36.3173 17.9663L38.6673 20.333L23.6673 35.333Z" fill="#2EC068"/>
<path d="M27.0007 10.333C17.8007 10.333 10.334 17.7997 10.334 26.9997C10.334 36.1997 17.8007 43.6663 27.0007 43.6663C36.2007 43.6663 43.6673 36.1997 43.6673 26.9997C43.6673 17.7997 36.2007 10.333 27.0007 10.333ZM23.6673 35.333L15.334 26.9997L17.684 24.6497L23.6673 30.6163L36.3173 17.9663L38.6673 20.333L23.6673 35.333Z" fill="white" fill-opacity="0.8"/>
</g>
<defs>
<clipPath id="clip0_189_5784">
<rect width="40" height="40" fill="white" transform="translate(7 7)"/>
</clipPath>
</defs>
</svg>
