<svg width="56" height="56" viewBox="0 0 56 56" fill="none" xmlns="http://www.w3.org/2000/svg">
<rect width="56" height="56" rx="28" fill="#2EC068"/>
<rect x="0.5" y="0.5" width="55" height="55" rx="27.5" stroke="url(#paint0_linear_548_40106)" stroke-opacity="0.6"/>
<path d="M28 14L30.8988 17.1816L35 15.8756L35.9196 20.0804L40.1244 21L38.8184 25.1012L42 28L38.8184 30.8988L40.1244 35L35.9196 35.9196L35 40.1244L30.8988 38.8184L28 42L25.1012 38.8184L21 40.1244L20.0804 35.9196L15.8756 35L17.1816 30.8988L14 28L17.1816 25.1012L15.8756 21L20.0804 20.0804L21 15.8756L25.1012 17.1816L28 14Z" fill="white"/>
<path d="M26.172 29.5351L23.7253 27.0779L22.1644 28.6492L26.172 32.6673L33.9128 24.9054L32.352 23.334L26.172 29.5351Z" fill="#2EC068"/>
<defs>
<linearGradient id="paint0_linear_548_40106" x1="28" y1="0" x2="28" y2="56" gradientUnits="userSpaceOnUse">
<stop stop-color="white"/>
<stop offset="1" stop-color="white" stop-opacity="0"/>
</linearGradient>
</defs>
</svg>
