<svg width="20" height="21" viewBox="0 0 20 21" fill="none" xmlns="http://www.w3.org/2000/svg">
<path d="M4.4731 3.12115L7.56596 6.21401H2.20882C2.31813 5.55734 2.57993 4.93546 2.97317 4.39832C3.36641 3.86118 3.88014 3.42374 4.4731 3.12115ZM8.63025 2.64258H6.43025C6.29453 2.64258 6.15882 2.64972 6.0231 2.65686L9.58025 6.21401H12.2017L8.63025 2.64258ZM13.5731 2.64258H10.6588L14.2302 6.21401H17.7945C17.6272 5.21549 17.1112 4.30866 16.3383 3.65474C15.5653 3.00082 14.5855 2.64218 13.5731 2.64258ZM8.91732 14.5183L12.4887 12.554C12.6009 12.4925 12.6944 12.4019 12.7596 12.2919C12.8248 12.1818 12.8591 12.0562 12.8591 11.9283C12.8591 11.8004 12.8248 11.6748 12.7596 11.5647C12.6944 11.4547 12.6009 11.3641 12.4887 11.3026L8.91732 9.33829C8.80857 9.27848 8.68611 9.24804 8.56201 9.24997C8.43792 9.2519 8.31646 9.28612 8.20962 9.34928C8.10278 9.41244 8.01424 9.50234 7.95273 9.61014C7.89121 9.71793 7.85885 9.8399 7.85882 9.96401V13.8926C7.85885 14.0167 7.89121 14.1387 7.95273 14.2464C8.01424 14.3542 8.10278 14.4441 8.20962 14.5073C8.31646 14.5705 8.43792 14.6047 8.56201 14.6066C8.68611 14.6085 8.80857 14.5781 8.91732 14.5183ZM17.8588 7.64258V14.0712C17.8579 15.2075 17.4061 16.2971 16.6026 17.1006C15.799 17.9041 14.7095 18.356 13.5731 18.3569H6.43025C5.29388 18.356 4.20432 17.9041 3.40079 17.1006C2.59726 16.2971 2.14544 15.2075 2.14453 14.0712V7.64258H17.8588Z" fill="white"/>
</svg>
