<svg width="30" height="30" viewBox="0 0 30 30" fill="none" xmlns="http://www.w3.org/2000/svg">
<path d="M15 30C23.2843 30 30 23.2843 30 15C30 6.71573 23.2843 0 15 0C6.71573 0 0 6.71573 0 15C0 23.2843 6.71573 30 15 30Z" fill="#29A71A"/>
<path d="M21.6128 8.38606C20.0521 6.80986 17.9796 5.84323 15.7691 5.66053C13.5585 5.47782 11.3554 6.09107 9.55721 7.38965C7.75898 8.68824 6.48399 10.5867 5.96221 12.7425C5.44043 14.8984 5.70622 17.1697 6.71162 19.1469L5.72469 23.9383C5.71445 23.986 5.71416 24.0353 5.72384 24.0831C5.73352 24.1309 5.75296 24.1762 5.78094 24.2162C5.82193 24.2768 5.88045 24.3235 5.94868 24.35C6.0169 24.3765 6.09159 24.3815 6.16276 24.3645L10.8588 23.2514C12.8304 24.2314 15.0857 24.48 17.2234 23.9532C19.3611 23.4264 21.2427 22.1583 22.5331 20.3744C23.8236 18.5906 24.4394 16.4067 24.2708 14.2115C24.1023 12.0163 23.1604 9.95202 21.6128 8.38606ZM20.1486 20.0724C19.0688 21.1492 17.6783 21.86 16.1732 22.1046C14.668 22.3492 13.124 22.1154 11.7588 21.4361L11.1042 21.1122L8.22526 21.794L8.23378 21.7582L8.83037 18.8605L8.50992 18.2281C7.81235 16.8581 7.56627 15.3025 7.80694 13.7841C8.04761 12.2657 8.76267 10.8624 9.84969 9.77526C11.2156 8.40983 13.0678 7.64277 14.9991 7.64277C16.9304 7.64277 18.7827 8.40983 20.1486 9.77526C20.1602 9.7886 20.1727 9.80113 20.1861 9.81276C21.535 11.1817 22.288 13.0284 22.281 14.9503C22.274 16.8722 21.5075 18.7134 20.1486 20.0724Z" fill="white"/>
<path d="M19.8935 17.9466C19.5406 18.5023 18.9832 19.1824 18.2827 19.3512C17.0554 19.6478 15.1719 19.3614 12.8281 17.1762L12.7991 17.1506C10.7383 15.2398 10.2031 13.6495 10.3327 12.3881C10.4042 11.6722 11.0008 11.0245 11.5037 10.6018C11.5832 10.5339 11.6775 10.4856 11.779 10.4607C11.8805 10.4358 11.9864 10.435 12.0883 10.4583C12.1901 10.4817 12.2851 10.5286 12.3656 10.5952C12.4462 10.6618 12.51 10.7464 12.552 10.8421L13.3105 12.5466C13.3598 12.6572 13.3781 12.779 13.3633 12.8991C13.3486 13.0193 13.3015 13.1331 13.227 13.2285L12.8435 13.7262C12.7612 13.829 12.7115 13.954 12.7009 14.0852C12.6902 14.2165 12.7191 14.3479 12.7838 14.4626C12.9986 14.8393 13.5133 15.3932 14.0844 15.9063C14.7253 16.4858 15.4361 17.016 15.8861 17.1966C16.0065 17.2458 16.1389 17.2578 16.2662 17.2311C16.3935 17.2044 16.5098 17.1401 16.6003 17.0466L17.0452 16.5983C17.131 16.5137 17.2378 16.4533 17.3545 16.4234C17.4713 16.3934 17.5939 16.395 17.7099 16.4279L19.5116 16.9393C19.611 16.9697 19.7021 17.0226 19.778 17.0936C19.8538 17.1647 19.9124 17.2522 19.9492 17.3494C19.9861 17.4467 20.0002 17.551 19.9905 17.6545C19.9809 17.758 19.9477 17.8579 19.8935 17.9466Z" fill="white"/>
</svg>
