<svg width="28" height="28" viewBox="0 0 28 28" fill="none" xmlns="http://www.w3.org/2000/svg">
<g clip-path="url(#clip0_1915_30169)">
<path d="M18.3517 3.5H9.64833L3.5 9.64833V18.3517L9.64833 24.5H18.3517L24.5 18.3517V9.64833L18.3517 3.5ZM22.1667 17.3833L17.3833 22.1667H10.6167L5.83333 17.3833V10.6167L10.6167 5.83333H17.3833L22.1667 10.6167V17.3833Z" fill="white"/>
<path d="M13.9997 19.8333C14.644 19.8333 15.1663 19.311 15.1663 18.6667C15.1663 18.0223 14.644 17.5 13.9997 17.5C13.3553 17.5 12.833 18.0223 12.833 18.6667C12.833 19.311 13.3553 19.8333 13.9997 19.8333Z" fill="white"/>
<path d="M12.833 8.16699H15.1663V16.3337H12.833V8.16699Z" fill="white"/>
</g>
<defs>
<clipPath id="clip0_1915_30169">
<rect width="28" height="28" fill="white"/>
</clipPath>
</defs>
</svg>
