<svg width="21" height="20" viewBox="0 0 21 20" fill="none" xmlns="http://www.w3.org/2000/svg">
<g clip-path="url(#clip0_561_45682)">
<path d="M14.225 10.9419C15.3666 11.7169 16.1666 12.7669 16.1666 14.1669V16.6669H19.5V14.1669C19.5 12.3502 16.525 11.2752 14.225 10.9419Z" fill="#8750D9"/>
<path d="M12.8333 10.0002C14.675 10.0002 16.1666 8.5085 16.1666 6.66683C16.1666 4.82516 14.675 3.3335 12.8333 3.3335C12.4416 3.3335 12.075 3.41683 11.725 3.5335C12.4166 4.39183 12.8333 5.4835 12.8333 6.66683C12.8333 7.85016 12.4166 8.94183 11.725 9.80016C12.075 9.91683 12.4416 10.0002 12.8333 10.0002Z" fill="#8750D9"/>
<path d="M7.83327 10.0002C9.67494 10.0002 11.1666 8.5085 11.1666 6.66683C11.1666 4.82516 9.67494 3.3335 7.83327 3.3335C5.99161 3.3335 4.49994 4.82516 4.49994 6.66683C4.49994 8.5085 5.99161 10.0002 7.83327 10.0002ZM7.83327 5.00016C8.74994 5.00016 9.49994 5.75016 9.49994 6.66683C9.49994 7.5835 8.74994 8.3335 7.83327 8.3335C6.91661 8.3335 6.16661 7.5835 6.16661 6.66683C6.16661 5.75016 6.91661 5.00016 7.83327 5.00016Z" fill="#8750D9"/>
<path d="M7.83329 10.8335C5.60829 10.8335 1.16663 11.9502 1.16663 14.1668V16.6668H14.5V14.1668C14.5 11.9502 10.0583 10.8335 7.83329 10.8335ZM12.8333 15.0002H2.83329V14.1752C2.99996 13.5752 5.58329 12.5002 7.83329 12.5002C10.0833 12.5002 12.6666 13.5752 12.8333 14.1668V15.0002Z" fill="#8750D9"/>
</g>
<defs>
<clipPath id="clip0_561_45682">
<rect width="20" height="20" fill="white" transform="translate(0.333313)"/>
</clipPath>
</defs>
</svg>
