<svg width="47" height="60" viewBox="0 0 47 60" fill="none" xmlns="http://www.w3.org/2000/svg">
<g clip-path="url(#clip0_2218_5902)">
<path d="M32.0357 34.6445L23.3897 38.5398L14.7468 34.6445L7.22852 51.3306L14.7436 48.4852L17.5889 56.0005L23.3897 43.1221L29.1904 56.0005L32.0357 48.4852L39.5508 51.3306L32.0357 34.6445Z" fill="url(#paint0_linear_2218_5902)"/>
<path d="M46.7797 23.3898C46.7797 10.472 36.3077 0 23.3898 0C10.472 0 0 10.472 0 23.3898C0 36.3077 10.472 46.7797 23.3898 46.7797C36.3077 46.7797 46.7797 36.3077 46.7797 23.3898Z" fill="#6348E9"/>
<path d="M46.7797 23.3898C46.7797 10.472 36.3077 0 23.3898 0C10.472 0 0 10.472 0 23.3898C0 36.3077 10.472 46.7797 23.3898 46.7797C36.3077 46.7797 46.7797 36.3077 46.7797 23.3898Z" fill="black" fill-opacity="0.6"/>
<path fill-rule="evenodd" clip-rule="evenodd" d="M8.39922 34.1906L7.9151 33.408C7.97642 33.3625 8.026 33.3114 8.06388 33.2548C8.10227 33.199 8.12759 33.1384 8.13974 33.0735C8.15342 33.0088 8.1524 32.9409 8.13669 32.8701C8.12195 32.7987 8.09164 32.7258 8.04588 32.6518C7.96574 32.5224 7.86649 32.4322 7.74806 32.3814C7.63025 32.3315 7.4983 32.3198 7.35217 32.3461C7.20669 32.3735 7.05161 32.4382 6.88696 32.5401C6.71306 32.6477 6.58167 32.7608 6.49279 32.8797C6.40544 32.9992 6.35962 33.1213 6.35535 33.2468C6.35205 33.3717 6.38901 33.4966 6.46625 33.6215C6.51028 33.6927 6.55859 33.7509 6.61106 33.7967C6.66445 33.8416 6.72115 33.8744 6.78115 33.8946C6.8411 33.9151 6.90318 33.9235 6.9673 33.9197C7.03289 33.9161 7.0991 33.9001 7.16586 33.8717L7.64444 34.6575C7.51849 34.7227 7.375 34.7649 7.21411 34.7837C7.0541 34.8023 6.88818 34.7904 6.71632 34.7484C6.54603 34.7066 6.38032 34.6268 6.21918 34.509C6.0581 34.3913 5.91313 34.2283 5.78439 34.0201C5.623 33.7593 5.53422 33.4908 5.51795 33.2142C5.50228 32.9388 5.56589 32.6736 5.70888 32.419C5.85242 32.1651 6.08144 31.941 6.39598 31.7463C6.7123 31.5507 7.01647 31.4468 7.30844 31.4351C7.60137 31.4226 7.8674 31.4859 8.10659 31.6243C8.34674 31.7622 8.54576 31.9589 8.70369 32.2141C8.81469 32.3937 8.89233 32.5739 8.93657 32.755C8.98081 32.9361 8.99098 33.1128 8.96703 33.2848C8.944 33.4565 8.88547 33.6194 8.7915 33.7733C8.69749 33.9274 8.56676 34.0665 8.39922 34.1906ZM8.5364 37.5219L10.7944 35.0589L12.5695 36.6862L12.0756 37.225L10.9691 36.2106L10.5811 36.6342L11.5961 37.5646L11.1022 38.1033L10.0871 37.1728L9.69903 37.5963L10.8007 38.606L10.3068 39.1448L8.5364 37.5219ZM14.2859 37.9081L12.7436 40.8723L13.5483 41.2911L14.0574 40.3127L14.3359 40.4576L14.3472 41.7066L15.2215 42.1615L15.1946 40.7433C15.3867 40.7493 15.5619 40.7073 15.72 40.6167C15.8904 40.5202 16.0308 40.3659 16.1412 40.1535C16.2507 39.9432 16.2987 39.7389 16.2854 39.5408C16.272 39.3424 16.2037 39.1605 16.0804 38.9945C15.957 38.8284 15.7854 38.6883 15.5654 38.5739L14.2859 37.9081ZM14.3827 39.6874L14.6664 39.835C14.761 39.8841 14.8476 39.9144 14.9262 39.9259C15.0063 39.9369 15.0778 39.9256 15.1406 39.8922C15.2044 39.8592 15.2581 39.8008 15.3018 39.7168C15.3459 39.6319 15.3635 39.5533 15.3544 39.4812C15.3469 39.4086 15.3158 39.3422 15.2613 39.2818C15.2083 39.2213 15.1345 39.1663 15.0399 39.117L14.7563 38.9694L14.3827 39.6874ZM18.2893 40.514L18.4418 39.7991L21.282 40.4049L21.1295 41.1198L20.1466 40.9101L19.6019 43.4632L18.7275 43.2766L19.2722 40.7237L18.2893 40.514ZM24.2279 43.8163L24.1805 40.4751L23.2735 40.4881L23.3209 43.8291L24.2279 43.8163ZM27.1815 43.525L26.4186 40.2719L28.706 39.7354L28.8728 40.4471L27.4686 40.7765L27.5998 41.3355L28.8643 41.039L29.0311 41.7507L27.7666 42.0473L28.0646 43.318L27.1815 43.525ZM32.9255 41.5795L31.4804 38.5668L30.6624 38.9589L32.1078 41.9717L32.9255 41.5795ZM35.6693 39.9457L33.5627 37.352L35.432 35.8339L35.8929 36.4013L34.7276 37.3476L35.0897 37.7934L36.1586 36.9253L36.6195 37.4927L35.5504 38.3606L35.9126 38.8065L37.0727 37.8644L37.5335 38.4319L35.6693 39.9457ZM39.6386 36.2378L40.3817 35.1888C40.578 34.9119 40.6939 34.6333 40.7296 34.3534C40.7643 34.0728 40.7194 33.805 40.5947 33.55C40.4692 33.2946 40.2643 33.0662 39.9803 32.8651C39.6963 32.6638 39.4131 32.5472 39.1306 32.515C38.848 32.4814 38.5798 32.5286 38.3263 32.6571C38.0726 32.7838 37.8462 32.9875 37.6476 33.2679L36.912 34.3064L39.6386 36.2378ZM39.7345 34.7703L39.5346 35.0524L38.0646 34.0114L38.2497 33.7503C38.3501 33.6083 38.4568 33.5039 38.5694 33.4371C38.6828 33.3694 38.8106 33.3479 38.9528 33.3727C39.0959 33.3968 39.2623 33.4761 39.4524 33.6106C39.6422 33.7451 39.7725 33.8754 39.8431 34.0014C39.9145 34.1267 39.9379 34.2526 39.9135 34.3792C39.8897 34.5049 39.8302 34.6354 39.7345 34.7703Z" fill="url(#paint1_linear_2218_5902)"/>
<path fill-rule="evenodd" clip-rule="evenodd" d="M20.7539 6.63342L19.6902 6.7282L20.5652 2.99063L21.9125 2.87059L23.4346 6.39464L22.3707 6.48937L22.099 5.8131L20.9018 5.91978L20.7539 6.63342ZM21.3422 3.92923L21.8106 5.09544L21.0588 5.16246L21.3138 3.93176L21.3422 3.92923ZM15.1245 8.14069L16.1362 7.7988L16.1123 7.07041L17.251 6.68559L17.674 7.27914L18.6857 6.93724L16.3788 3.86913L15.0973 4.30219L15.1245 8.14069ZM16.8023 6.05569L16.073 5.0321L16.046 5.04123L16.087 6.29737L16.8023 6.05569ZM11.3474 7.09375C11.4502 7.10666 11.5377 7.16046 11.6098 7.25514L12.4064 6.74325C12.2764 6.54327 12.1139 6.40014 11.9189 6.3139C11.7242 6.22603 11.5099 6.19873 11.276 6.23198C11.0421 6.26524 10.8013 6.36144 10.5537 6.52049C10.3112 6.67639 10.1224 6.85553 9.98729 7.058C9.85325 7.25981 9.78044 7.46808 9.76895 7.68281C9.75776 7.89591 9.81522 8.09951 9.94132 8.29349C10.0943 8.53375 10.2932 8.67317 10.5381 8.71186C10.7834 8.74888 11.0607 8.70963 11.37 8.594L11.7178 8.46363C11.8476 8.41542 11.9553 8.38436 12.0408 8.37032C12.1256 8.35527 12.1941 8.35644 12.2461 8.37378C12.2985 8.38944 12.3403 8.42046 12.3714 8.46673C12.4025 8.51727 12.4151 8.57193 12.4091 8.63076C12.4033 8.68959 12.3774 8.74924 12.3316 8.80964C12.2858 8.8701 12.2185 8.92888 12.1297 8.98598C12.0239 9.05397 11.9219 9.09622 11.8239 9.11264C11.7269 9.12846 11.6369 9.11793 11.5539 9.08097C11.4709 9.044 11.3968 8.98024 11.3315 8.88963L10.5409 9.39764C10.7067 9.65356 10.897 9.82893 11.1117 9.92371C11.3267 10.0169 11.5583 10.0393 11.8067 9.99119C12.056 9.94237 12.3139 9.83234 12.5805 9.66108C12.84 9.4943 13.0386 9.31512 13.1765 9.12358C13.3154 8.93137 13.3898 8.73332 13.3998 8.52942C13.4098 8.32553 13.3505 8.12244 13.2219 7.92017C13.1459 7.80398 13.0577 7.70839 12.9572 7.63329C12.8577 7.55758 12.7443 7.50495 12.6167 7.47551C12.4885 7.44505 12.3451 7.43915 12.1865 7.45792C12.0278 7.47663 11.8522 7.52254 11.6594 7.59566L11.3732 7.70341C11.2907 7.73529 11.2169 7.75873 11.1518 7.77373C11.0867 7.78878 11.0298 7.79569 10.9811 7.79458C10.9318 7.79244 10.8898 7.78202 10.8552 7.7633C10.821 7.74302 10.793 7.71373 10.7713 7.67549C10.7434 7.62998 10.7312 7.58137 10.7347 7.52976C10.7383 7.47815 10.7605 7.42502 10.8016 7.37041C10.843 7.31417 10.9067 7.25844 10.9925 7.20327C11.1273 7.11668 11.2456 7.08017 11.3474 7.09375ZM25.1942 2.85156L25.0804 3.64078L26.1655 3.79722L25.7591 6.61588L26.7246 6.75505L27.131 3.93641L28.2161 4.09286L28.3299 3.30364L25.1942 2.85156ZM29.5815 7.39364L30.9907 4.03191L31.9034 4.41449L31.3531 5.72768L32.5612 6.23412L33.1117 4.92092L34.0243 5.30351L32.6151 8.66524L31.7025 8.28266L32.2529 6.96947L31.0448 6.46303L30.4943 7.77627L29.5815 7.39364ZM35.1247 10.2902L37.1951 7.29017L36.3806 6.72805L34.3102 9.7281L35.1247 10.2902Z" fill="url(#paint2_linear_2218_5902)"/>
<path fill-rule="evenodd" clip-rule="evenodd" d="M3.96777 23.3163C3.96777 18.8762 5.45767 14.7842 7.96481 11.5128C8.10764 11.3264 8.37682 11.3004 8.55642 11.4516C8.72981 11.5977 8.75477 11.8551 8.61703 12.0351C6.2245 15.1633 4.80313 19.0739 4.80313 23.3163C4.80313 25.1313 5.06328 26.8856 5.54833 28.5438C5.6033 28.7317 5.5253 28.9339 5.35618 29.0327C5.12462 29.1675 4.82733 29.0542 4.75182 28.7969C4.24152 27.0587 3.96777 25.2194 3.96777 23.3163ZM41.4232 29.0327C41.6547 29.1675 41.952 29.0542 42.0276 28.7969C42.5378 27.0587 42.8116 25.2194 42.8116 23.3163C42.8116 18.8762 41.3218 14.7842 38.8145 11.5128C38.6718 11.3264 38.4026 11.3004 38.223 11.4516C38.0495 11.5977 38.0246 11.8551 38.1622 12.0351C40.5549 15.1633 41.9763 19.0739 41.9763 23.3163C41.9763 25.1313 41.716 26.8856 41.2311 28.5438C41.176 28.7317 41.2541 28.9339 41.4232 29.0327Z" fill="url(#paint3_linear_2218_5902)"/>
<path d="M38.6442 23.389C38.6442 14.9643 31.8147 8.13477 23.39 8.13477C14.9653 8.13477 8.13574 14.9643 8.13574 23.389C8.13574 31.8137 14.9653 38.6432 23.39 38.6432C31.8147 38.6432 38.6442 31.8137 38.6442 23.389Z" fill="#6348E9"/>
<path d="M38.6442 23.389C38.6442 14.9643 31.8147 8.13477 23.39 8.13477C14.9653 8.13477 8.13574 14.9643 8.13574 23.389C8.13574 31.8137 14.9653 38.6432 23.39 38.6432C31.8147 38.6432 38.6442 31.8137 38.6442 23.389Z" fill="black" fill-opacity="0.4"/>
<path d="M22.3312 11.5849L19.8926 13.7365H23.3899V11.1856C23.0125 11.1843 22.6346 11.3174 22.3312 11.5849Z" fill="#FDF0BC"/>
<path d="M24.4374 11.5824C24.1373 11.3191 23.7651 11.1868 23.3926 11.1855V13.7365H26.8899L24.4374 11.5824Z" fill="url(#paint4_linear_2218_5902)"/>
<path d="M14.884 15.1124L14.3809 18.3492L17.0599 16.0714L15.4416 14.1172C15.1516 14.362 14.9466 14.7102 14.884 15.1124Z" fill="#FDF0BC"/>
<path d="M16.4936 13.7424C16.0966 13.7358 15.7273 13.8772 15.4414 14.1191L17.0597 16.0733L19.7387 13.7955L16.4936 13.7424Z" fill="url(#paint5_linear_2218_5902)"/>
<path d="M11.4163 22.6669L13.0838 25.4742L13.691 21.9845L11.2121 21.541C11.145 21.9177 11.2089 22.3179 11.4163 22.6669Z" fill="#FDF0BC"/>
<path d="M11.7808 20.5671C11.4729 20.821 11.2798 21.1696 11.2139 21.5409L13.6932 21.9839L14.3004 18.4941L11.7808 20.5671Z" fill="url(#paint6_linear_2218_5902)"/>
<path d="M13.552 30.7119L16.6104 31.776L14.862 28.707L12.6816 29.9825C12.8691 30.3147 13.1717 30.5797 13.552 30.7119Z" fill="url(#paint7_linear_2218_5902)"/>
<path d="M12.498 28.8676C12.4228 29.2624 12.4959 29.6555 12.681 29.9831L14.8614 28.7077L13.1129 25.6387L12.498 28.8676Z" fill="url(#paint8_linear_2218_5902)"/>
<path d="M20.2916 35.4843L23.3093 34.3077L20.0231 33.0957L19.1621 35.493C19.5164 35.6248 19.9166 35.6306 20.2916 35.4843Z" fill="url(#paint9_linear_2218_5902)"/>
<path d="M18.3125 34.7569C18.5054 35.1084 18.8108 35.3618 19.1606 35.4921L20.0216 33.0948L16.7354 31.8828L18.3125 34.7569Z" fill="url(#paint10_linear_2218_5902)"/>
<path d="M28.4805 34.7519L30.046 31.8848L26.7598 33.0968L27.6208 35.4941C27.9754 35.3642 28.2857 35.1083 28.4805 34.7519Z" fill="url(#paint11_linear_2218_5902)"/>
<path d="M26.5058 35.4822C26.8767 35.6261 27.2712 35.6211 27.6218 35.493L26.7608 33.0957L23.4746 34.3077L26.5058 35.4822Z" fill="url(#paint12_linear_2218_5902)"/>
<path d="M34.2868 28.8544L33.6674 25.6387L31.9189 28.7077L34.0993 29.9831C34.2888 29.6522 34.3641 29.2541 34.2868 28.8544Z" fill="url(#paint13_linear_2218_5902)"/>
<path d="M33.2398 30.7013C33.6148 30.5698 33.9142 30.3089 34.1016 29.9825L31.9213 28.707L30.1729 31.776L33.2398 30.7013Z" fill="url(#paint14_linear_2218_5902)"/>
<path d="M34.9981 20.5539L32.4834 18.4941L33.0906 21.9839L35.5699 21.5409C35.5061 21.1642 35.3108 20.8102 34.9981 20.5539Z" fill="url(#paint15_linear_2218_5902)"/>
<path d="M35.365 22.6529C35.5692 22.3079 35.633 21.9132 35.5692 21.541L33.0898 21.984L33.6971 25.4738L35.365 22.6529Z" fill="url(#paint16_linear_2218_5902)"/>
<path d="M30.2769 13.7346L27.0439 13.7944L29.7229 16.0722L31.3412 14.1179C31.0529 13.8715 30.6791 13.7272 30.2769 13.7346Z" fill="url(#paint17_linear_2218_5902)"/>
<path d="M31.8886 15.1037C31.826 14.7064 31.6246 14.3627 31.34 14.1191L29.7217 16.0734L32.4007 18.3511L31.8886 15.1037Z" fill="url(#paint18_linear_2218_5902)"/>
<path d="M23.3915 32.3712C28.1085 32.3712 31.9324 28.4965 31.9324 23.7168C31.9324 18.9372 28.1085 15.0625 23.3915 15.0625C18.6745 15.0625 14.8506 18.9372 14.8506 23.7168C14.8506 28.4965 18.6745 32.3712 23.3915 32.3712Z" fill="url(#paint19_radial_2218_5902)"/>
<g filter="url(#filter0_d_2218_5902)">
<path fill-rule="evenodd" clip-rule="evenodd" d="M28.1953 19.7793H27.3879L28.109 20.6093L27.3879 21.4878H28.1953L28.9308 20.6093L28.1953 19.7793ZM29.5974 19.7793H28.79L29.5111 20.6093L28.79 21.4878H29.5974L30.333 20.6093L29.5974 19.7793ZM25.9844 19.7793H26.7184L27.3871 20.6093L26.7184 21.4878H25.9844L26.64 20.6093L25.9844 19.7793Z" fill="#FFFAF6"/>
<path d="M25.7513 27.4426C26.0429 27.0038 26.1937 26.4841 26.1828 25.9548C26.1828 25.1775 25.9216 24.5699 25.3994 24.132C24.8757 23.7041 24.1197 23.4034 23.1315 23.2299C22.5083 23.1289 22.0793 23.0053 21.8446 22.8593C21.7351 22.7979 21.6443 22.7071 21.5822 22.5969C21.5201 22.4866 21.489 22.3612 21.4923 22.2343C21.4882 22.1079 21.5169 21.9825 21.5754 21.8709C21.634 21.7592 21.7204 21.6651 21.826 21.598C22.0522 21.4395 22.3614 21.3603 22.7535 21.3603C23.1529 21.3603 23.4701 21.4445 23.7048 21.6129C23.8231 21.7046 23.9222 21.8191 23.9965 21.9498C24.0709 22.0805 24.119 22.2249 24.1381 22.3746H26.0262C25.9524 21.5212 25.6236 20.8407 25.0398 20.3328C24.4596 19.8288 23.7104 19.5768 22.7922 19.5768C22.2222 19.5667 21.6566 19.6796 21.1328 19.9081C20.6725 20.1049 20.2795 20.4349 20.0026 20.8569C19.7235 21.2846 19.58 21.7888 19.5915 22.3017C19.5915 23.0752 19.8435 23.6678 20.3474 24.0796C20.8525 24.4863 21.5888 24.7758 22.5562 24.9479C23.1708 25.059 23.6066 25.1962 23.8635 25.3597C23.9775 25.4273 24.0724 25.5237 24.1389 25.6395C24.2055 25.7553 24.2415 25.8866 24.2432 26.0206C24.2452 26.1547 24.2128 26.2869 24.1495 26.4046C24.0862 26.5222 23.994 26.6213 23.8819 26.6922C23.6385 26.8557 23.2993 26.9374 22.8642 26.9374C22.4069 26.9374 22.0492 26.8382 21.791 26.6399C21.6624 26.536 21.5573 26.4051 21.4831 26.2562C21.4091 26.1073 21.3675 25.9439 21.3615 25.7771H19.4658C19.5224 26.7092 19.8512 27.4366 20.4523 27.9592C21.0484 28.4719 21.8523 28.7282 22.8639 28.7282C23.4482 28.7384 24.0283 28.6256 24.5675 28.3969C25.0439 28.2002 25.4547 27.869 25.7513 27.4426Z" fill="#FFFAF6"/>
</g>
<path d="M23.3918 14.291C18.2534 14.291 14.0879 18.5115 14.0879 23.718C14.0879 28.9247 18.2534 33.1455 23.3918 33.1455C28.5301 33.1455 32.6957 28.9247 32.6957 23.718C32.6957 18.5115 28.5301 14.291 23.3918 14.291ZM23.3918 32.3716C18.6751 32.3716 14.8517 28.4973 14.8517 23.718C14.8517 18.9388 18.6751 15.0645 23.3918 15.0645C28.1084 15.0645 31.9318 18.9388 31.9318 23.718C31.9318 28.4973 28.1084 32.3716 23.3918 32.3716Z" fill="url(#paint20_linear_2218_5902)"/>
<path d="M23.391 13.0879C17.5971 13.0879 12.9004 17.847 12.9004 23.7179C12.9004 29.5889 17.5971 34.3479 23.391 34.3479C29.185 34.3479 33.8817 29.5889 33.8817 23.7179C33.8817 17.847 29.185 13.0879 23.391 13.0879ZM23.391 33.1408C18.2551 33.1408 14.0916 28.922 14.0916 23.7179C14.0916 18.5137 18.2551 14.2954 23.391 14.2954C28.527 14.2954 32.6905 18.5141 32.6905 23.7183C32.6905 28.9225 28.527 33.1408 23.391 33.1408Z" fill="url(#paint21_linear_2218_5902)"/>
</g>
<defs>
<filter id="filter0_d_2218_5902" x="19.4658" y="19.5762" width="10.8672" height="10.1523" filterUnits="userSpaceOnUse" color-interpolation-filters="sRGB">
<feFlood flood-opacity="0" result="BackgroundImageFix"/>
<feColorMatrix in="SourceAlpha" type="matrix" values="0 0 0 0 0 0 0 0 0 0 0 0 0 0 0 0 0 0 127 0" result="hardAlpha"/>
<feOffset dy="1"/>
<feComposite in2="hardAlpha" operator="out"/>
<feColorMatrix type="matrix" values="0 0 0 0 0.87451 0 0 0 0 0.466667 0 0 0 0 0.117647 0 0 0 1 0"/>
<feBlend mode="normal" in2="BackgroundImageFix" result="effect1_dropShadow_2218_5902"/>
<feBlend mode="normal" in="SourceGraphic" in2="effect1_dropShadow_2218_5902" result="shape"/>
</filter>
<linearGradient id="paint0_linear_2218_5902" x1="7.22852" y1="34.6445" x2="39.7185" y2="34.9027" gradientUnits="userSpaceOnUse">
<stop stop-color="#FFC01D"/>
<stop offset="0.491554" stop-color="#FFD955"/>
<stop offset="1" stop-color="#FF9A01"/>
</linearGradient>
<linearGradient id="paint1_linear_2218_5902" x1="5.51561" y1="31.4336" x2="40.918" y2="31.9619" gradientUnits="userSpaceOnUse">
<stop stop-color="#FFC01D"/>
<stop offset="0.491554" stop-color="#FFD955"/>
<stop offset="1" stop-color="#FF9A01"/>
</linearGradient>
<linearGradient id="paint2_linear_2218_5902" x1="9.76757" y1="2.85156" x2="37.3288" y2="3.38519" gradientUnits="userSpaceOnUse">
<stop stop-color="#FFC01D"/>
<stop offset="0.491554" stop-color="#FFD955"/>
<stop offset="1" stop-color="#FF9A01"/>
</linearGradient>
<linearGradient id="paint3_linear_2218_5902" x1="3.96777" y1="11.3535" x2="43.0104" y2="11.8025" gradientUnits="userSpaceOnUse">
<stop stop-color="#FFC01D"/>
<stop offset="0.491554" stop-color="#FFD955"/>
<stop offset="1" stop-color="#FF9A01"/>
</linearGradient>
<linearGradient id="paint4_linear_2218_5902" x1="23.5636" y1="12.461" x2="26.7751" y2="12.461" gradientUnits="userSpaceOnUse">
<stop stop-color="#FEE998"/>
<stop offset="1" stop-color="#FCC15B"/>
</linearGradient>
<linearGradient id="paint5_linear_2218_5902" x1="16.4193" y1="14.9519" x2="19.6593" y2="12.2686" gradientUnits="userSpaceOnUse">
<stop stop-color="#FEE998"/>
<stop offset="1" stop-color="#FCC15B"/>
</linearGradient>
<linearGradient id="paint6_linear_2218_5902" x1="14.3578" y1="18.4869" x2="12.514" y2="21.4761" gradientUnits="userSpaceOnUse">
<stop stop-color="#FCC15B"/>
<stop offset="1" stop-color="#FEE998"/>
</linearGradient>
<linearGradient id="paint7_linear_2218_5902" x1="13.5062" y1="29.2734" x2="16.6747" y2="31.3295" gradientUnits="userSpaceOnUse">
<stop stop-color="#FFC05F"/>
<stop offset="1" stop-color="#ED892B"/>
</linearGradient>
<linearGradient id="paint8_linear_2218_5902" x1="13.1488" y1="25.7055" x2="13.7232" y2="29.2812" gradientUnits="userSpaceOnUse">
<stop stop-color="#FCC15B"/>
<stop offset="1" stop-color="#FEE998"/>
</linearGradient>
<linearGradient id="paint9_linear_2218_5902" x1="19.75" y1="34.337" x2="22.8544" y2="35.0178" gradientUnits="userSpaceOnUse">
<stop stop-color="#FEAC3E"/>
<stop offset="1" stop-color="#F08223"/>
</linearGradient>
<linearGradient id="paint10_linear_2218_5902" x1="16.5803" y1="31.8555" x2="19.4524" y2="34.1746" gradientUnits="userSpaceOnUse">
<stop stop-color="#FFA135"/>
<stop offset="1" stop-color="#FEB431"/>
</linearGradient>
<linearGradient id="paint11_linear_2218_5902" x1="30.0583" y1="31.8643" x2="27.1915" y2="34.2995" gradientUnits="userSpaceOnUse">
<stop stop-color="#FFAA3D"/>
<stop offset="1" stop-color="#ED8B1C"/>
</linearGradient>
<linearGradient id="paint12_linear_2218_5902" x1="23.4871" y1="34.5372" x2="27.1047" y2="34.3389" gradientUnits="userSpaceOnUse">
<stop stop-color="#FF962D"/>
<stop offset="1" stop-color="#E56005"/>
</linearGradient>
<linearGradient id="paint13_linear_2218_5902" x1="33.8003" y1="25.6516" x2="33.0544" y2="29.2355" gradientUnits="userSpaceOnUse">
<stop stop-color="#FDBD41"/>
<stop offset="1" stop-color="#FEB334"/>
</linearGradient>
<linearGradient id="paint14_linear_2218_5902" x1="34.756" y1="26.283" x2="31.1891" y2="32.3799" gradientUnits="userSpaceOnUse">
<stop stop-color="#F6942F"/>
<stop offset="1" stop-color="#EA6F11"/>
</linearGradient>
<linearGradient id="paint15_linear_2218_5902" x1="32.3078" y1="18.5974" x2="34.4516" y2="21.7323" gradientUnits="userSpaceOnUse">
<stop stop-color="#FDBD41"/>
<stop offset="1" stop-color="#FEB334"/>
</linearGradient>
<linearGradient id="paint16_linear_2218_5902" x1="33.566" y1="25.4649" x2="34.4099" y2="21.7849" gradientUnits="userSpaceOnUse">
<stop stop-color="#FD9D24"/>
<stop offset="1" stop-color="#FF9515"/>
</linearGradient>
<linearGradient id="paint17_linear_2218_5902" x1="30.4915" y1="15.047" x2="27.2218" y2="13.4905" gradientUnits="userSpaceOnUse">
<stop stop-color="#FCC15B"/>
<stop offset="1" stop-color="#FEE998"/>
</linearGradient>
<linearGradient id="paint18_linear_2218_5902" x1="30.5059" y1="14.8454" x2="32.0905" y2="18.3206" gradientUnits="userSpaceOnUse">
<stop stop-color="#FF9515"/>
<stop offset="1" stop-color="#FFBE41"/>
</linearGradient>
<radialGradient id="paint19_radial_2218_5902" cx="0" cy="0" r="1" gradientUnits="userSpaceOnUse" gradientTransform="translate(23.3916 23.7166) scale(8.5409 8.65434)">
<stop offset="0.8428" stop-color="#FAAA31"/>
<stop offset="1" stop-color="#F57E16"/>
</radialGradient>
<linearGradient id="paint20_linear_2218_5902" x1="23.3918" y1="14.2908" x2="23.3918" y2="33.1458" gradientUnits="userSpaceOnUse">
<stop offset="0.0226" stop-color="#FD9A18"/>
<stop offset="0.3764" stop-color="#FEC752"/>
<stop offset="1" stop-color="#FFA422"/>
</linearGradient>
<linearGradient id="paint21_linear_2218_5902" x1="23.3911" y1="13.0567" x2="23.3911" y2="34.3169" gradientUnits="userSpaceOnUse">
<stop stop-color="#FFDB69"/>
<stop offset="0.1799" stop-color="#FEE7B0"/>
<stop offset="0.24" stop-color="#FEE9BA"/>
<stop offset="0.2592" stop-color="#FDECD0"/>
<stop offset="0.2953" stop-color="#FEDA92"/>
<stop offset="0.3254" stop-color="#FFCD64"/>
<stop offset="0.3405" stop-color="#FFC853"/>
<stop offset="0.7613" stop-color="#FF9114"/>
<stop offset="1" stop-color="#F57E16"/>
</linearGradient>
<clipPath id="clip0_2218_5902">
<rect width="46.7797" height="60" fill="white"/>
</clipPath>
</defs>
</svg>
