<svg width="48" height="48" viewBox="0 0 48 48" fill="none" xmlns="http://www.w3.org/2000/svg">
<rect width="48" height="48" rx="24" fill="#E8E3FF"/>
<g clip-path="url(#clip0_2218_5870)">
<path d="M23.9997 14.6673C29.1447 14.6673 33.333 18.8557 33.333 24.0007C33.333 29.1457 29.1447 33.334 23.9997 33.334C18.8547 33.334 14.6663 29.1457 14.6663 24.0007C14.6663 18.8557 18.8547 14.6673 23.9997 14.6673ZM23.9997 12.334C17.5597 12.334 12.333 17.5607 12.333 24.0007C12.333 30.4407 17.5597 35.6673 23.9997 35.6673C30.4397 35.6673 35.6663 30.4407 35.6663 24.0007C35.6663 17.5607 30.4397 12.334 23.9997 12.334ZM25.1663 24.0007V19.334H22.833V24.0007H19.333L23.9997 28.6673L28.6663 24.0007H25.1663Z" fill="#092DAF"/>
</g>
<defs>
<clipPath id="clip0_2218_5870">
<rect width="28" height="28" fill="white" transform="translate(10 10)"/>
</clipPath>
</defs>
</svg>
