<svg width="32" height="32" viewBox="0 0 32 32" fill="none" xmlns="http://www.w3.org/2000/svg">
<path d="M28.0007 5.33301H4.00065C2.52789 5.33301 1.33398 6.52692 1.33398 7.99967V23.9997C1.33398 25.4724 2.52789 26.6663 4.00065 26.6663H28.0007C29.4734 26.6663 30.6673 25.4724 30.6673 23.9997V7.99967C30.6673 6.52692 29.4734 5.33301 28.0007 5.33301Z" stroke="#999999" stroke-linecap="round" stroke-linejoin="round"/>
<path d="M4.33398 9.33301H9.66732" stroke="#999999" stroke-linecap="round" stroke-linejoin="round"/>
<path d="M7.02 16.05C7.76 16.05 8.40667 16.1933 8.96 16.48C9.52 16.76 9.95 17.1667 10.25 17.7C10.5567 18.2267 10.71 18.8433 10.71 19.55C10.71 20.2567 10.5567 20.87 10.25 21.39C9.95 21.91 9.52 22.31 8.96 22.59C8.40667 22.8633 7.76 23 7.02 23H4.75V16.05H7.02ZM7.02 22.07C7.83333 22.07 8.45667 21.85 8.89 21.41C9.32333 20.97 9.54 20.35 9.54 19.55C9.54 18.7433 9.32333 18.1133 8.89 17.66C8.45667 17.2067 7.83333 16.98 7.02 16.98H5.89V22.07H7.02ZM12.9798 22.08H15.3298V23H11.8398V16.05H12.9798V22.08Z" fill="#999999"/>
<path d="M12.334 9.33301H26.6673" stroke="#999999" stroke-linecap="round" stroke-linejoin="round"/>
</svg>
