<svg width="48" height="48" viewBox="0 0 48 48" fill="none" xmlns="http://www.w3.org/2000/svg">
<rect width="48" height="48" rx="24" fill="#E0F9E6"/>
<path d="M18 33.041C15.9778 32.516 14.3056 31.4271 12.9833 29.7744C11.6611 28.1216 11 26.1966 11 23.9993C11 21.8021 11.6611 19.8771 12.9833 18.2243C14.3056 16.5716 15.9778 15.4827 18 14.9577V17.4077C16.6194 17.8743 15.4965 18.7105 14.6312 19.916C13.766 21.1216 13.3333 22.4827 13.3333 23.9993C13.3333 25.516 13.766 26.8771 14.6312 28.0827C15.4965 29.2882 16.6194 30.1243 18 30.591V33.041ZM27.3333 33.3327C24.7472 33.3327 22.5451 32.4237 20.7271 30.6056C18.909 28.7875 18 26.5855 18 23.9993C18 21.4132 18.909 19.2112 20.7271 17.3931C22.5451 15.575 24.7472 14.666 27.3333 14.666C28.6167 14.666 29.8222 14.9091 30.95 15.3952C32.0778 15.8813 33.0694 16.5521 33.925 17.4077L32.2917 19.041C31.65 18.3993 30.9062 17.8987 30.0604 17.5389C29.2146 17.1792 28.3056 16.9993 27.3333 16.9993C25.3889 16.9993 23.7361 17.6799 22.375 19.041C21.0139 20.4021 20.3333 22.0549 20.3333 23.9993C20.3333 25.9438 21.0139 27.5966 22.375 28.9577C23.7361 30.3188 25.3889 30.9993 27.3333 30.9993C28.3056 30.9993 29.2146 30.8195 30.0604 30.4598C30.9062 30.1 31.65 29.5993 32.2917 28.9577L33.925 30.591C33.0694 31.4466 32.0778 32.1174 30.95 32.6035C29.8222 33.0896 28.6167 33.3327 27.3333 33.3327ZM28.8333 28.666L30.4667 27.0327L28.6 25.166H37V22.8327H28.6L30.4667 20.966L28.8333 19.3327L24.1667 23.9993L28.8333 28.666Z" fill="#007219"/>
</svg>
