<svg width="32" height="32" viewBox="0 0 32 32" fill="none" xmlns="http://www.w3.org/2000/svg">
<path d="M10.0007 5.33301H4.00065C2.52789 5.33301 1.33398 6.52692 1.33398 7.99967V11.9997M22.0007 5.33301H28.0007C29.4734 5.33301 30.6673 6.52692 30.6673 7.99967V11.9997M1.33398 19.9997V23.9997C1.33398 25.4724 2.52789 26.6663 4.00065 26.6663H10.0007M30.6673 19.9997V23.9997C30.6673 25.4724 29.4734 26.6663 28.0007 26.6663H22.0007" stroke="#999999" stroke-linecap="round" stroke-linejoin="round"/>
<path d="M21.3327 22V20.6667C21.3327 19.9594 21.0517 19.2811 20.5516 18.781C20.0515 18.281 19.3733 18 18.666 18H13.3327C12.6254 18 11.9472 18.281 11.4471 18.781C10.947 19.2811 10.666 19.9594 10.666 20.6667V22" stroke="#999999" stroke-linecap="round" stroke-linejoin="round"/>
<path d="M16.0007 15.3333C17.4734 15.3333 18.6673 14.1394 18.6673 12.6667C18.6673 11.1939 17.4734 10 16.0007 10C14.5279 10 13.334 11.1939 13.334 12.6667C13.334 14.1394 14.5279 15.3333 16.0007 15.3333Z" stroke="#999999" stroke-linecap="round" stroke-linejoin="round"/>
</svg>
