<svg width="120" height="18" viewBox="0 0 120 18" fill="none" xmlns="http://www.w3.org/2000/svg">
<path fill-rule="evenodd" clip-rule="evenodd" d="M55.5354 1H57.5537L59.3922 3.25228L57.5537 5.63611H55.5354L57.3379 3.25228L55.5354 1ZM61.6129 1H59.3927L61.3755 3.25228L59.3927 5.63611H61.6129L63.6352 3.25228L61.6129 1ZM65.4689 1H63.2488L65.2315 3.25228L63.2488 5.63611H65.4689L67.4912 3.25228L65.4689 1Z" fill="#998FC7"/>
<path d="M58.2526 6.56662H55.5146V16.7786H58.2526V6.56662ZM50.2528 6.36539C49.6466 6.35953 49.0457 6.47916 48.4877 6.71679C47.959 6.94616 47.4847 7.28511 47.0961 7.71132V3.28259H44.3575V16.7786H47.0955V11.2249C47.0955 10.5033 47.3125 9.93754 47.7462 9.52759C48.1799 9.11391 48.7608 8.90708 49.4886 8.90708C50.1315 8.90708 50.6265 9.10068 50.9737 9.48788C51.3149 9.87704 51.4857 10.4352 51.4858 11.1625V16.7785H54.2408V10.8537C54.2408 9.44242 53.9106 8.34113 53.2504 7.54978C52.5733 6.76019 51.5746 6.36539 50.2528 6.36539ZM40.3239 6.56662V4.08726L37.5767 4.37608V6.56636H35.7722V8.90681H37.5767V13.3441C37.5767 14.5568 37.8964 15.4609 38.5356 16.0563C39.1768 16.6513 40.0896 16.9488 41.2738 16.9488C41.8287 16.9461 42.382 16.889 42.9259 16.7786V14.4268C42.6009 14.4754 42.2727 14.4991 41.9442 14.4976C41.3917 14.4976 40.9844 14.3871 40.7223 14.166C40.4563 13.9469 40.3234 13.5729 40.3234 13.0439V8.90708H42.7871V6.56662H40.3239ZM34.6946 6.56662H32.3094L32.2076 7.581C31.3001 6.76487 30.1176 6.32344 28.8981 6.34555C27.9745 6.33223 27.0642 6.56705 26.2619 7.02559C25.4832 7.46729 24.8441 8.11922 24.4174 8.90708C24.1612 9.37779 23.9789 9.88527 23.8771 10.4116C23.7942 10.8249 23.7535 11.2455 23.7554 11.6669C23.7542 12.0884 23.7949 12.5089 23.8771 12.9222C23.9827 13.4325 24.1587 13.9256 24.4004 14.3871C24.8174 15.1818 25.4485 15.8433 26.2223 16.2967C27.0328 16.7727 27.9586 17.0157 28.8981 16.9993C29.5079 17.003 30.113 16.8935 30.6829 16.6764C31.2449 16.4675 31.7621 16.154 32.2076 15.7526L32.3094 16.7783H34.694L34.6946 6.56662ZM27.3169 9.70051C27.8166 9.18478 28.4643 8.92692 29.2602 8.92692C29.6183 8.91569 29.975 8.97858 30.308 9.11169C30.6409 9.24478 30.9428 9.44524 31.1949 9.70051C31.6861 10.2372 31.9587 10.9388 31.9587 11.6669C31.9587 12.395 31.6861 13.0967 31.1949 13.6334C30.9428 13.8886 30.6409 14.0891 30.308 14.2222C29.975 14.3553 29.6183 14.4182 29.2602 14.4069C28.4643 14.4069 27.8166 14.1491 27.3169 13.6334C26.8256 13.0967 26.5532 12.395 26.5532 11.6669C26.5532 10.9388 26.8256 10.2372 27.3169 9.70051ZM11.5411 10.4118C11.4582 10.825 11.4174 11.2456 11.4195 11.6671C11.4181 12.0885 11.4589 12.509 11.5411 12.9224C11.6466 13.4326 11.8228 13.9257 12.0644 14.3872C12.4815 15.1819 13.1127 15.8435 13.8863 16.2967C14.697 16.7727 15.6228 17.0157 16.5623 16.9993C17.1719 17.003 17.7771 16.8935 18.3471 16.6764C18.9089 16.4675 19.4263 16.1542 19.8718 15.7526L19.9736 16.7783H22.3581V6.56662H19.9734L19.8715 7.581C18.9639 6.76487 17.7814 6.32344 16.5619 6.34555C15.6383 6.33223 14.7281 6.56705 13.9258 7.02559C13.1471 7.4673 12.5081 8.11923 12.0814 8.90708C11.8252 9.37779 11.643 9.88541 11.5411 10.4118ZM14.217 11.6669C14.2044 11.3044 14.2657 10.9431 14.397 10.605C14.5283 10.267 14.7269 9.95923 14.9808 9.70051C15.4804 9.18478 16.1282 8.92692 16.924 8.92692C17.2823 8.91569 17.639 8.97858 17.9718 9.11169C18.3048 9.24478 18.6067 9.44524 18.8588 9.70051C19.35 10.2372 19.6225 10.9388 19.6225 11.6669C19.6225 12.395 19.35 13.0967 18.8588 13.6334C18.6067 13.8886 18.3048 14.0891 17.9718 14.2222C17.639 14.3553 17.2823 14.4182 16.924 14.4069C16.1282 14.4069 15.4804 14.1491 14.9808 13.6334C14.7269 13.3746 14.5283 13.0669 14.397 12.7288C14.2657 12.3907 14.2044 12.0295 14.217 11.6669ZM10.152 15.002C10.5994 14.3376 10.8307 13.5507 10.8139 12.7494C10.8139 11.5725 10.4133 10.6526 9.61205 9.98959C8.80866 9.34165 7.64891 8.8864 6.13281 8.62381C5.17672 8.47079 4.51851 8.28376 4.1584 8.06272C3.99046 7.96967 3.85121 7.8322 3.75592 7.66531C3.66062 7.49843 3.61292 7.30853 3.618 7.11635C3.61171 6.92492 3.65566 6.7352 3.7455 6.56613C3.83535 6.39705 3.96794 6.25457 4.12995 6.15291C4.47698 5.91301 4.95126 5.79305 5.55281 5.79305C6.16562 5.79305 6.65214 5.92055 7.01237 6.17554C7.19375 6.31431 7.34583 6.48765 7.4599 6.6856C7.57396 6.88354 7.64782 7.10215 7.67712 7.32882H10.5737C10.4605 6.03676 9.95606 5.00629 9.06039 4.23742C8.1703 3.4743 7.02084 3.09273 5.61227 3.09273C4.73779 3.0775 3.8701 3.24845 3.06646 3.5943C2.3603 3.89236 1.75729 4.39195 1.33253 5.03085C0.904374 5.67842 0.684242 6.44177 0.701799 7.21836C0.701799 8.3895 1.08842 9.28679 1.86155 9.9102C2.63637 10.526 3.76597 10.9643 5.25022 11.2249C6.19311 11.393 6.86162 11.6008 7.25575 11.8483C7.43072 11.9507 7.57626 12.0967 7.67833 12.272C7.78041 12.4473 7.83562 12.6461 7.83841 12.8491C7.84131 13.052 7.79167 13.2523 7.69456 13.4304C7.59745 13.6085 7.45602 13.7585 7.28408 13.8658C6.91066 14.1133 6.39011 14.2371 5.72269 14.2371C5.02113 14.2371 4.47237 14.0869 4.07631 13.7866C3.87894 13.6294 3.71778 13.4312 3.60396 13.2057C3.49026 12.9803 3.42657 12.7328 3.41724 12.4803H0.509033C0.595851 13.8916 1.10029 14.9929 2.02247 15.7842C2.93702 16.5604 4.17027 16.9485 5.72221 16.9485C6.61872 16.9639 7.50857 16.793 8.33594 16.4469C9.06669 16.1491 9.69693 15.6477 10.152 15.002Z" fill="#998FC7"/>
<path d="M71.9884 5.59304V3.81818H80.3506V5.59304H77.2334V14H75.1056V5.59304H71.9884ZM80.615 14V6.36364H82.6682V7.69602H82.7478C82.887 7.22206 83.1207 6.86411 83.4488 6.62216C83.7769 6.37689 84.1547 6.25426 84.5823 6.25426C84.6884 6.25426 84.8027 6.26089 84.9253 6.27415C85.048 6.28741 85.1557 6.30563 85.2485 6.32883V8.2081C85.1491 8.17827 85.0115 8.15175 84.8359 8.12855C84.6602 8.10535 84.4994 8.09375 84.3536 8.09375C84.0421 8.09375 83.7636 8.1617 83.5184 8.29759C83.2764 8.43016 83.0842 8.61577 82.9417 8.8544C82.8025 9.09304 82.7329 9.36813 82.7329 9.67969V14H80.615ZM90.9605 10.7486V6.36364H93.0784V14H91.045V12.6129H90.9655C90.7931 13.0604 90.5064 13.42 90.1054 13.6918C89.7077 13.9635 89.2221 14.0994 88.6487 14.0994C88.1383 14.0994 87.6892 13.9834 87.3014 13.7514C86.9136 13.5194 86.6104 13.1896 86.3916 12.7621C86.1762 12.3345 86.0668 11.8224 86.0635 11.2259V6.36364H88.1814V10.848C88.1847 11.2988 88.3057 11.6551 88.5443 11.9169C88.783 12.1787 89.1028 12.3097 89.5038 12.3097C89.759 12.3097 89.9977 12.2517 90.2197 12.1357C90.4418 12.0163 90.6208 11.8407 90.7567 11.6087C90.8959 11.3767 90.9638 11.09 90.9605 10.7486ZM97.9726 14.1491C97.1871 14.1491 96.5109 13.9901 95.9442 13.6719C95.3807 13.3504 94.9465 12.8963 94.6416 12.3097C94.3367 11.7197 94.1842 11.022 94.1842 10.2166C94.1842 9.43111 94.3367 8.74171 94.6416 8.14844C94.9465 7.55516 95.3758 7.0928 95.9293 6.76136C96.4861 6.42992 97.139 6.2642 97.8881 6.2642C98.3919 6.2642 98.8608 6.34541 99.295 6.50781C99.7325 6.6669 100.114 6.9072 100.438 7.22869C100.767 7.55019 101.022 7.95455 101.204 8.44176C101.386 8.92566 101.478 9.49242 101.478 10.142V10.7237H95.0294V9.41122H99.484C99.484 9.1063 99.4177 8.83617 99.2851 8.60085C99.1525 8.36553 98.9686 8.18158 98.7332 8.04901C98.5012 7.91312 98.2311 7.84517 97.9229 7.84517C97.6014 7.84517 97.3163 7.91974 97.0678 8.06889C96.8225 8.21473 96.6303 8.41193 96.4911 8.66051C96.3519 8.90578 96.2806 9.17921 96.2773 9.48082V10.7287C96.2773 11.1065 96.3469 11.433 96.4861 11.7081C96.6286 11.9832 96.8291 12.1953 97.0876 12.3445C97.3462 12.4936 97.6527 12.5682 98.0074 12.5682C98.2427 12.5682 98.4581 12.535 98.6537 12.4688C98.8492 12.4025 99.0166 12.303 99.1558 12.1705C99.295 12.0379 99.4011 11.8755 99.474 11.6832L101.433 11.8125C101.333 12.2831 101.13 12.6941 100.821 13.0455C100.516 13.3935 100.122 13.6652 99.6381 13.8608C99.1575 14.053 98.6023 14.1491 97.9726 14.1491ZM107.732 3.81818V14H105.58V3.81818H107.732ZM112.833 14H109.223V3.81818H112.863C113.887 3.81818 114.768 4.02202 115.508 4.42969C116.247 4.83404 116.815 5.41572 117.213 6.17472C117.614 6.93371 117.814 7.84186 117.814 8.89915C117.814 9.95975 117.614 10.8712 117.213 11.6335C116.815 12.3958 116.243 12.9808 115.498 13.3885C114.755 13.7962 113.867 14 112.833 14ZM111.376 12.1555H112.743C113.38 12.1555 113.915 12.0429 114.349 11.8175C114.787 11.5888 115.115 11.2358 115.334 10.7585C115.556 10.2779 115.667 9.65814 115.667 8.89915C115.667 8.14678 115.556 7.53196 115.334 7.05469C115.115 6.57741 114.788 6.22609 114.354 6.00071C113.92 5.77533 113.385 5.66264 112.748 5.66264H111.376V12.1555Z" fill="#998FC7"/>
</svg>
