<svg width="72" height="72" viewBox="0 0 72 72" fill="none" xmlns="http://www.w3.org/2000/svg">
<rect width="72" height="72" rx="36" fill="#D9D4F0"/>
<path d="M14.4512 29.045L15.4772 31.8334L13.0086 30.1565L10.6763 32.0114L11.4733 29.1643L8.99609 27.518L11.9679 27.397L12.7649 24.5498L13.7953 27.3461L16.7757 27.1944L14.4512 29.045Z" fill="#998FC7"/>
<path d="M19.7786 17.4442C19.6237 17.2978 19.4536 17.2281 19.2683 17.2351C19.0845 17.2406 18.8861 17.3394 18.6732 17.5314C18.5375 17.6537 18.4412 17.7705 18.3843 17.8819C18.3276 17.9902 18.3036 18.0905 18.3124 18.1827C18.3211 18.2749 18.3567 18.3572 18.4191 18.4296C18.4686 18.4908 18.5265 18.5344 18.5929 18.5604C18.6594 18.5834 18.7365 18.5897 18.8242 18.5792C18.9106 18.5671 19.0091 18.5384 19.1197 18.4929C19.2304 18.4475 19.3539 18.3847 19.4904 18.3046L19.9648 18.0313C20.2841 17.8463 20.5812 17.7143 20.856 17.6353C21.1308 17.5563 21.3858 17.5251 21.6211 17.5418C21.8549 17.5569 22.0707 17.6169 22.2683 17.7219C22.4675 17.8255 22.651 17.9689 22.819 18.152C23.1047 18.4721 23.2683 18.8137 23.3096 19.1768C23.351 19.5399 23.2769 19.9112 23.0873 20.2909C22.8993 20.6692 22.6002 21.0433 22.19 21.413C21.7688 21.7928 21.3451 22.0619 20.9188 22.2203C20.4941 22.3773 20.0783 22.4047 19.6715 22.3024C19.2649 22.1971 18.878 21.9425 18.5109 21.5385L19.7603 20.412C19.9019 20.5532 20.0514 20.6444 20.2087 20.6856C20.3659 20.7268 20.528 20.7194 20.6948 20.6634C20.8632 20.6059 21.031 20.5019 21.1983 20.3511C21.3387 20.2245 21.4405 20.1012 21.5039 19.9812C21.5672 19.8611 21.5957 19.7483 21.5891 19.6426C21.5825 19.537 21.5445 19.4441 21.4749 19.3638C21.4065 19.291 21.3238 19.2484 21.2266 19.2359C21.1297 19.2203 21.0084 19.2381 20.8629 19.2893C20.716 19.3388 20.5348 19.4249 20.3194 19.5476L19.7428 19.8787C19.2298 20.1725 18.7513 20.3222 18.3074 20.3278C17.8636 20.3304 17.4718 20.1417 17.132 19.7616C16.8531 19.4555 16.6927 19.1125 16.6506 18.7329C16.6088 18.3502 16.677 17.9612 16.8554 17.5659C17.0353 17.1691 17.317 16.798 17.7003 16.4523C18.0915 16.0996 18.4889 15.86 18.8926 15.7335C19.2961 15.607 19.6826 15.5931 20.052 15.6919C20.4215 15.7878 20.75 15.9935 21.0374 16.3092L19.7786 17.4442Z" fill="#998FC7"/>
<path d="M26.6643 18.1455L24.9158 18.9182L24.248 12.0794L26.4628 11.1006L31.0704 16.1981L29.322 16.9709L26.1051 13.2233L26.0585 13.2439L26.6643 18.1455ZM25.2972 15.9351L28.5844 14.4823L29.1202 15.6946L25.833 17.1474L25.2972 15.9351Z" fill="#998FC7"/>
<path d="M33.2591 16.0251L31.3574 16.2197L32.8356 9.50927L35.2444 9.2627L38.0514 15.5346L36.1497 15.7292L34.2483 11.171L34.1976 11.1762L33.2591 16.0251ZM32.642 13.5004L36.2172 13.1345L36.3522 14.453L32.777 14.819L32.642 13.5004Z" fill="#998FC7"/>
<path d="M38.7109 10.65L38.9941 9.25098L44.5526 10.376L44.2695 11.775L42.3458 11.3856L41.3346 16.382L39.6233 16.0357L40.6346 11.0393L38.7109 10.65Z" fill="#998FC7"/>
<path d="M44.3086 17.088L47.5903 11.4482L49.1214 12.3392L47.8395 14.5422L49.8663 15.7216L51.1482 13.5185L52.6793 14.4095L49.3976 20.0492L47.8665 19.1583L49.1484 16.9553L47.1216 15.7759L45.8397 17.9789L44.3086 17.088Z" fill="#998FC7"/>
<path d="M56.2406 17.6588L51.6092 22.2551L50.3613 20.9977L54.9928 16.4014L56.2406 17.6588Z" fill="#998FC7"/>
<path d="M58.3647 29.0155L56.0254 27.1837L59.0069 27.3114L60.0147 24.5068L60.8346 27.3476L63.8074 27.4446L61.3436 29.1107L62.1635 31.9515L59.8163 30.1153L57.3613 31.8121L58.3647 29.0155Z" fill="#998FC7"/>
<path d="M15.5783 42.5829L15.1297 40.8428C15.2705 40.7934 15.3926 40.7268 15.4961 40.6431C15.6001 40.5614 15.6823 40.4635 15.7427 40.3492C15.8058 40.2364 15.8432 40.1094 15.8551 39.9682C15.869 39.8264 15.8547 39.6732 15.8123 39.5087C15.7381 39.2208 15.6053 38.995 15.414 38.8316C15.2233 38.6702 14.984 38.5717 14.6963 38.5362C14.4091 38.5028 14.0824 38.5333 13.7163 38.6276C13.3297 38.7273 13.019 38.8623 12.7842 39.0325C12.5521 39.2042 12.3957 39.4057 12.315 39.6371C12.2363 39.868 12.2328 40.1222 12.3044 40.3999C12.3452 40.5582 12.4013 40.6951 12.4727 40.8105C12.5462 40.9254 12.6329 41.0193 12.7329 41.0922C12.8329 41.1651 12.9438 41.2166 13.0656 41.2467C13.1899 41.2782 13.3227 41.2868 13.4637 41.2723L13.9 43.0156C13.6273 43.0639 13.3354 43.0591 13.0243 43.0011C12.7153 42.9426 12.4128 42.8243 12.1168 42.6461C11.8234 42.4695 11.5607 42.2247 11.3286 41.9116C11.0966 41.5985 10.9209 41.2106 10.8016 40.7478C10.6521 40.1678 10.6423 39.6153 10.7724 39.0905C10.9031 38.5676 11.1756 38.1102 11.59 37.7182C12.0049 37.3283 12.5621 37.0432 13.2614 36.8629C13.9648 36.6816 14.5921 36.6646 15.1434 36.8121C15.6968 36.9589 16.1562 37.2309 16.5218 37.628C16.8895 38.0246 17.1465 38.5067 17.2928 39.0743C17.3957 39.4734 17.4359 39.8546 17.4133 40.2179C17.3907 40.5813 17.3071 40.9165 17.1626 41.2236C17.02 41.5301 16.8165 41.7997 16.5518 42.0325C16.2872 42.2652 15.9627 42.4487 15.5783 42.5829Z" fill="#998FC7"/>
<path d="M13.0996 48.797L18.2456 44.7852L21.137 48.494L20.0113 49.3716L18.2091 47.0598L17.3246 47.7494L18.9779 49.8701L17.8522 50.7477L16.1989 48.627L15.3145 49.3164L17.1087 51.6181L15.983 52.4957L13.0996 48.797Z" fill="#998FC7"/>
<path d="M19.1582 56.6987L22.4072 51.04L24.8497 52.4424C25.2697 52.6836 25.5933 52.971 25.8205 53.3047C26.0477 53.6385 26.1663 53.9993 26.1763 54.3871C26.1863 54.775 26.076 55.1696 25.8455 55.5712C25.6127 55.9764 25.3263 56.2663 24.9861 56.4408C24.6477 56.6163 24.2757 56.6819 23.8701 56.6376C23.4663 56.5944 23.0489 56.4491 22.6178 56.2016L21.159 55.3639L21.8444 54.1703L22.9937 54.8302C23.1743 54.9339 23.3408 55.0001 23.4932 55.0289C23.6486 55.0568 23.789 55.0407 23.9142 54.9804C24.0413 54.9211 24.1509 54.8113 24.2429 54.651C24.336 54.489 24.3766 54.3372 24.3647 54.1956C24.3558 54.0534 24.3007 53.9213 24.1992 53.7993C24.1007 53.6766 23.9611 53.5635 23.7806 53.4598L23.239 53.1488L20.6944 57.5807L19.1582 56.6987ZM23.965 56.0052L23.8884 59.4146L22.2196 58.4564L22.3293 55.066L23.965 56.0052Z" fill="#998FC7"/>
<path d="M28.6348 56.8535L28.8064 55.4365L34.4364 56.1183L34.2648 57.5353L32.3165 57.2994L31.7036 62.3601L29.9704 62.1502L30.5831 57.0894L28.6348 56.8535Z" fill="#998FC7"/>
<path d="M39.257 56.0996L40.5289 62.4995L38.7915 62.8448L37.5195 56.4449L39.257 56.0996Z" fill="#998FC7"/>
<path d="M44.7453 61.9692L41.5957 56.2546L45.6137 54.04L46.3027 55.2901L43.8361 56.6496L44.3774 57.6318L46.5985 56.4076L47.2875 57.6577L45.0664 58.8819L46.2967 61.1141L44.7453 61.9692Z" fill="#998FC7"/>
<path d="M49.8013 51.1201L54.5212 55.6256L53.298 56.9069L48.5781 52.4015L49.8013 51.1201Z" fill="#998FC7"/>
<path d="M57.6751 52.7732L51.8145 49.9044L53.8819 45.6807L55.164 46.3082L53.8753 48.9409L54.8826 49.434L56.0648 47.0188L57.3468 47.6463L56.1646 50.0615L57.1718 50.5546L58.4549 47.9334L59.737 48.5609L57.6751 52.7732Z" fill="#998FC7"/>
<path d="M62.3285 41.4285L62.2091 43.9363L55.6914 43.6258L55.8097 41.1435C55.8416 40.473 55.9997 39.9001 56.2839 39.4245C56.5661 38.9467 56.9575 38.5869 57.4581 38.3449C57.9567 38.1007 58.5454 37.9948 59.2244 38.0272C59.9033 38.0595 60.4804 38.2199 60.9558 38.5084C61.429 38.7967 61.7845 39.19 62.0223 39.6883C62.258 40.1865 62.3601 40.7666 62.3285 41.4285ZM60.7912 42.0953L60.8234 41.4206C60.8388 41.0982 60.7999 40.8209 60.7067 40.5889C60.6137 40.3548 60.4427 40.1724 60.1938 40.0414C59.9449 39.9084 59.5935 39.831 59.1394 39.8093C58.6854 39.7877 58.3282 39.8324 58.0677 39.9433C57.8074 40.0521 57.6196 40.2218 57.5044 40.4523C57.3894 40.6807 57.3237 40.9647 57.3075 41.3042L57.2778 41.9279L60.7912 42.0953Z" fill="#998FC7"/>
<path d="M35.75 18.25H35.75C26.085 18.25 18.25 26.0328 18.25 35.6333V35.8667C18.25 45.4672 26.085 53.25 35.75 53.25H35.75C45.415 53.25 53.25 45.4672 53.25 35.8667V35.6333C53.25 26.0328 45.415 18.25 35.75 18.25Z" fill="#998FC7"/>
<path d="M34.3623 21.194L31.3047 23.8386H35.6897V20.7031C35.2165 20.7016 34.7428 20.8652 34.3623 21.194Z" fill="white"/>
<path d="M36.9995 21.191C36.6232 20.8673 36.1566 20.7047 35.6895 20.7031V23.8387H40.0745L36.9995 21.191Z" fill="white"/>
<path d="M25.0234 25.5309L24.3926 29.5093L27.7515 26.7096L25.7225 24.3076C25.3589 24.6085 25.1019 25.0365 25.0234 25.5309Z" fill="white"/>
<path d="M27.04 23.845C26.5423 23.8369 26.0793 24.0106 25.7207 24.308L27.7498 26.71L31.1088 23.9103L27.04 23.845Z" fill="white"/>
<path d="M20.6729 34.8156L22.7636 38.2661L23.525 33.9767L20.4168 33.4316C20.3327 33.8946 20.4128 34.3865 20.6729 34.8156Z" fill="white"/>
<path d="M21.1347 32.2344C20.7487 32.5465 20.5064 32.975 20.4238 33.4314L23.5324 33.9759L24.2938 29.6865L21.1347 32.2344Z" fill="white"/>
<path d="M23.353 44.7037L27.1877 46.0115L24.9955 42.2393L22.2617 43.8071C22.4968 44.2153 22.8761 44.541 23.353 44.7037Z" fill="white"/>
<path d="M22.0328 42.4366C21.9384 42.9219 22.0302 43.4051 22.2622 43.8078L24.996 42.24L22.8037 38.4678L22.0328 42.4366Z" fill="white"/>
<path d="M31.8067 50.5707L35.5905 49.1245L31.4702 47.6348L30.3906 50.5813C30.8348 50.7434 31.3365 50.7505 31.8067 50.5707Z" fill="white"/>
<path d="M29.3213 49.6761C29.563 50.1082 29.9459 50.4198 30.3845 50.5799L31.464 47.6333L27.3438 46.1436L29.3213 49.6761Z" fill="white"/>
<path d="M42.0736 49.6685L44.0363 46.1445L39.916 47.6343L40.9955 50.5808C41.4402 50.4213 41.8293 50.1067 42.0736 49.6685Z" fill="white"/>
<path d="M39.5975 50.5671C40.0626 50.744 40.5573 50.7379 40.9968 50.5804L39.9173 47.6338L35.7969 49.1235L39.5975 50.5671Z" fill="white"/>
<path d="M49.3575 42.4204L48.5809 38.4678L46.3887 42.24L49.1225 43.8078C49.3601 43.401 49.4544 42.9117 49.3575 42.4204Z" fill="white"/>
<path d="M48.0349 44.6905C48.505 44.5289 48.8804 44.2083 49.1154 43.8071L46.3816 42.2393L44.1895 46.0115L48.0349 44.6905Z" fill="white"/>
<path d="M50.2428 32.2183L47.0898 29.6865L47.8512 33.9759L50.9598 33.4314C50.8797 32.9684 50.635 32.5334 50.2428 32.2183Z" fill="white"/>
<path d="M50.7042 34.7983C50.9602 34.3743 51.0402 33.8891 50.9602 33.4316L47.8516 33.9762L48.6129 38.2656L50.7042 34.7983Z" fill="white"/>
<path d="M44.3192 23.8363L40.2656 23.9097L43.6247 26.7094L45.6537 24.3074C45.2922 24.0044 44.8236 23.8272 44.3192 23.8363Z" fill="white"/>
<path d="M46.3419 25.5178C46.2634 25.0295 46.011 24.607 45.654 24.3076L43.625 26.7096L46.984 29.5094L46.3419 25.5178Z" fill="white"/>
<path d="M35.6853 46.7446C41.5997 46.7446 46.3942 41.9821 46.3942 36.1071C46.3942 30.2323 41.5997 25.4697 35.6853 25.4697C29.771 25.4697 24.9766 30.2323 24.9766 36.1071C24.9766 41.9821 29.771 46.7446 35.6853 46.7446Z" fill="white"/>
<path fill-rule="evenodd" clip-rule="evenodd" d="M22.5371 36.1069C22.5371 28.8907 28.4259 23.041 35.6906 23.041C42.9553 23.041 48.8441 28.8907 48.8441 36.1069C48.8441 43.3232 42.9553 49.1728 35.6906 49.1728C28.4259 49.1728 22.5371 43.3232 22.5371 36.1069ZM24.9772 36.1068C24.9772 41.9812 29.7712 46.7432 35.685 46.7432C41.5989 46.7432 46.3928 41.9812 46.3928 36.1068C46.3928 30.2324 41.5989 25.4704 35.685 25.4704C29.7712 25.4704 24.9772 30.2324 24.9772 36.1068Z" fill="white"/>
<path fill-rule="evenodd" clip-rule="evenodd" d="M39.1914 38.8569C39.2051 39.5075 39.0161 40.1462 38.6505 40.6856C38.2786 41.2098 37.7635 41.6168 37.1662 41.8586C36.4901 42.1396 35.7628 42.2783 35.0301 42.2658C33.7617 42.2658 32.7538 41.9508 32.0064 41.3206C31.2528 40.6782 30.8405 39.7841 30.7695 38.6385H33.1463C33.1539 38.8434 33.206 39.0443 33.2989 39.2274C33.3919 39.4104 33.5236 39.5713 33.685 39.6989C34.0086 39.9427 34.4571 40.0646 35.0305 40.0646C35.576 40.0646 36.0014 39.9641 36.3066 39.7632C36.4471 39.6761 36.5627 39.5544 36.6421 39.4097C36.7214 39.2651 36.762 39.1025 36.7596 38.9378C36.7574 38.773 36.7122 38.6117 36.6288 38.4693C36.5454 38.327 36.4264 38.2085 36.2834 38.1254C35.9613 37.9245 35.415 37.7557 34.6444 37.6193C33.4314 37.4076 32.5081 37.0519 31.8749 36.552C31.243 36.0459 30.9271 35.3174 30.9271 34.3666C30.9127 33.7362 31.0926 33.1165 31.4425 32.5908C31.7897 32.072 32.2825 31.6665 32.8596 31.4245C33.5164 31.1438 34.2256 31.005 34.9402 31.0174C36.0914 31.0174 37.0308 31.3271 37.7583 31.9466C38.4903 32.5708 38.9026 33.4074 38.9951 34.4563H36.6278C36.6038 34.2723 36.5435 34.0948 36.4503 33.9341C36.357 33.7735 36.2328 33.6327 36.0845 33.52C35.7901 33.313 35.3925 33.2095 34.8917 33.2095C34.4001 33.2095 34.0124 33.3069 33.7288 33.5017C33.5964 33.5842 33.488 33.6999 33.4146 33.8371C33.3412 33.9744 33.3053 34.1284 33.3104 34.2838C33.3063 34.4399 33.3452 34.594 33.4231 34.7295C33.501 34.865 33.6148 34.9765 33.7521 35.0521C34.0464 35.2315 34.5843 35.3834 35.3657 35.5076C36.6048 35.7208 37.5526 36.0904 38.2092 36.6164C38.864 37.1546 39.1914 37.9015 39.1914 38.8569ZM40.7061 31.2666H41.7185L42.6406 32.2868L41.7185 33.3666H40.7061L41.6102 32.2868L40.7061 31.2666ZM42.4645 31.2666H43.4769L44.3991 32.2868L43.4769 33.3666H42.4645L43.3686 32.2868L42.4645 31.2666ZM39.8676 31.2666H38.9473L39.7692 32.2869L38.9473 33.3666H39.8676L40.706 32.2869L39.8676 31.2666Z" fill="#998FC7"/>
<rect x="48.5" y="0.5" width="23" height="23" rx="11.5" fill="#D9D4F0"/>
<rect x="48.5" y="0.5" width="23" height="23" rx="11.5" stroke="white"/>
<path d="M56.2166 11.764C56.2166 10.1493 56.5059 8.88467 57.0846 7.97C57.6726 7.05533 58.6433 6.598 59.9966 6.598C61.3499 6.598 62.3159 7.05533 62.8946 7.97C63.4826 8.88467 63.7766 10.1493 63.7766 11.764C63.7766 13.388 63.4826 14.662 62.8946 15.586C62.3159 16.51 61.3499 16.972 59.9966 16.972C58.6433 16.972 57.6726 16.51 57.0846 15.586C56.5059 14.662 56.2166 13.388 56.2166 11.764ZM61.8446 11.764C61.8446 11.0733 61.7979 10.4947 61.7046 10.028C61.6206 9.552 61.4433 9.16467 61.1726 8.866C60.9113 8.56733 60.5193 8.418 59.9966 8.418C59.4739 8.418 59.0773 8.56733 58.8066 8.866C58.5453 9.16467 58.3679 9.552 58.2746 10.028C58.1906 10.4947 58.1486 11.0733 58.1486 11.764C58.1486 12.4733 58.1906 13.0707 58.2746 13.556C58.3586 14.032 58.5359 14.4193 58.8066 14.718C59.0773 15.0073 59.4739 15.152 59.9966 15.152C60.5193 15.152 60.9159 15.0073 61.1866 14.718C61.4573 14.4193 61.6346 14.032 61.7186 13.556C61.8026 13.0707 61.8446 12.4733 61.8446 11.764Z" fill="#998FC7"/>
</svg>
