<svg width="72" height="72" viewBox="0 0 72 72" fill="none" xmlns="http://www.w3.org/2000/svg">
<rect width="72" height="72" rx="36" fill="#D9D4F0"/>
<path fill-rule="evenodd" clip-rule="evenodd" d="M36.5156 12L36.1023 16.827L37.1308 16.9138L37.2773 15.2026L38.0282 15.2659L38.8031 17.0547L39.8506 17.1431L39.8323 17.1687L40.8937 17.4778L41.5548 16.5191L43.2463 17.0117L43.2795 18.1727L44.3409 18.4818L44.1011 13.3631L42.8247 12.9914L39.9029 17.0702L39.067 15.1882C39.0823 15.1831 39.0976 15.1777 39.1127 15.1722C39.3876 15.0719 39.6046 14.913 39.7636 14.6953C39.9228 14.4761 40.016 14.2062 40.0435 13.8856C40.0708 13.5666 40.0257 13.2835 39.9081 13.0362C39.7922 12.7874 39.6091 12.5876 39.3589 12.4368C39.1103 12.2844 38.8024 12.1928 38.435 12.1618L36.5156 12ZM43.2222 16.1714L42.0333 15.8251L43.1303 14.2341L43.167 14.2448L43.2222 16.1714ZM37.3476 14.3824L38.046 14.4413C38.2423 14.4578 38.4077 14.4449 38.5422 14.4024C38.6766 14.3599 38.7801 14.2879 38.8526 14.1864C38.9266 14.085 38.9705 13.955 38.984 13.7963C38.9978 13.636 38.9769 13.4982 38.9214 13.3827C38.8675 13.2674 38.7772 13.1759 38.6506 13.1082C38.5257 13.0391 38.3643 12.9963 38.1664 12.9796L37.4727 12.9211L37.3476 14.3824ZM31.012 12.3401L32.116 17.0591L31.1104 17.2907L30.0065 12.5717L31.012 12.3401ZM24.6009 14.7729L26.5453 19.2166L27.4921 18.8087L26.689 16.9731L28.6111 16.145L29.4143 17.9807L30.359 17.5737L28.4147 13.13L27.47 13.5369L28.2722 15.3704L26.35 16.1984L25.5478 14.365L24.6009 14.7729ZM20.7485 18.3478L20.2525 17.6615L23.5113 15.3431L24.0072 16.0294L22.7924 16.8936L25.1415 20.1444L24.3123 20.7343L21.9632 17.4836L20.7485 18.3478ZM20.3729 24.4601L21.1264 23.6566L20.5581 22.641L21.7589 21.3605L22.8202 21.8504L23.5737 21.0469L18.8529 18.9694L17.9467 19.9357L20.0896 23.9318L15.5326 22.9538L14.8429 24.0825L18.1443 28.024L18.7177 27.0854L17.9535 26.2054L18.8673 24.7097L20.0067 24.9756L20.349 24.4155L20.3729 24.4601ZM20.9908 21.0059L19.2295 20.1928L19.2036 20.2205L20.1467 21.9059L20.9908 21.0059ZM48.2923 31.5216C48.863 31.5749 49.3453 31.9747 49.5209 32.5377C49.6978 33.1017 49.5333 33.7182 49.1023 34.1085L43.2439 39.4271L44.9714 47.3063C45.0979 47.8841 44.8809 48.4833 44.4164 48.8317C43.9532 49.1794 43.3367 49.2074 42.8477 48.9026L36.1646 44.7656L29.479 48.9026C29.253 49.0428 29.0012 49.1134 28.7474 49.1134C28.4529 49.1134 28.161 49.0185 27.9115 48.8317C27.4472 48.4843 27.2301 47.8855 27.3565 47.3063L29.084 39.4271L23.2255 34.1074C22.7947 33.7182 22.6314 33.1007 22.8082 32.5377C22.985 31.9747 23.466 31.5761 24.0356 31.5216L31.7874 30.7929L34.8521 23.367C35.0781 22.8214 35.5928 22.4691 36.1646 22.4691C36.7364 22.4691 37.251 22.8214 37.477 23.3657L40.5418 30.7929L48.2923 31.5216ZM38.9009 32.6383H39.8401L40.6958 33.717L39.8401 34.8587H38.9009L39.7397 33.717L38.9009 32.6383ZM41.7278 32.6383H40.6946L41.6173 33.717L40.6946 34.8587H41.7278L42.6689 33.717L41.7278 32.6383ZM43.5238 32.6383H42.4907L43.4134 33.717L42.4907 34.8587H43.5238L44.465 33.717L43.5238 32.6383ZM38.364 40.2718C38.6427 39.846 38.7867 39.3417 38.7763 38.8281C38.7763 38.0738 38.5268 37.4842 38.0278 37.0593C37.5275 36.644 36.8052 36.3522 35.8611 36.184C35.2657 36.0859 34.8557 35.966 34.6315 35.8244C34.5269 35.7647 34.4402 35.6766 34.3808 35.5696C34.3215 35.4627 34.2918 35.341 34.2949 35.2178C34.291 35.0951 34.3184 34.9735 34.3744 34.8652C34.4303 34.7568 34.5129 34.6655 34.6138 34.6003C34.8299 34.4466 35.1252 34.3697 35.4999 34.3697C35.8815 34.3697 36.1845 34.4514 36.4088 34.6148C36.5218 34.7038 36.6165 34.8149 36.6875 34.9417C36.7586 35.0686 36.8045 35.2087 36.8228 35.354H38.6267C38.5562 34.5259 38.242 33.8654 37.6842 33.3727C37.1299 32.8836 36.4141 32.639 35.5369 32.639C34.9923 32.6293 34.4519 32.7388 33.9515 32.9605C33.5117 33.1515 33.1362 33.4717 32.8717 33.8812C32.605 34.2962 32.4679 34.7854 32.4789 35.2832C32.4789 36.0338 32.7196 36.6089 33.2011 37.0084C33.6836 37.4031 34.3871 37.684 35.3114 37.851C35.8986 37.9588 36.3149 38.092 36.5604 38.2506C36.6693 38.3162 36.76 38.4098 36.8235 38.5221C36.8871 38.6345 36.9215 38.7619 36.9232 38.892C36.925 39.0221 36.8941 39.1504 36.8337 39.2646C36.7732 39.3787 36.6851 39.4748 36.578 39.5436C36.3455 39.7022 36.0213 39.7816 35.6056 39.7816C35.1687 39.7816 34.827 39.6853 34.5804 39.4928C34.4574 39.3921 34.3571 39.2651 34.2862 39.1206C34.2154 38.9761 34.1757 38.8175 34.1699 38.6556H32.3588C32.4129 39.5601 32.727 40.266 33.3013 40.7732C33.8709 41.2706 34.6389 41.5193 35.6053 41.5193C36.1637 41.5292 36.7178 41.4197 37.2331 41.1979C37.6882 41.007 38.0807 40.6856 38.364 40.2718ZM17.2412 44.1169C17.415 44.0331 17.5268 43.9056 17.5767 43.7344C17.6265 43.5632 17.6086 43.3622 17.5228 43.1314C17.4644 42.9746 17.3928 42.8503 17.308 42.7587C17.2246 42.6665 17.1334 42.6058 17.0344 42.5765C16.9359 42.5486 16.8375 42.5527 16.7391 42.5887C16.656 42.6158 16.5907 42.659 16.5434 42.7184C16.4966 42.7792 16.4631 42.8511 16.4432 42.9341C16.4247 43.0165 16.4153 43.1073 16.4149 43.2066C16.416 43.3054 16.4239 43.4084 16.4383 43.5157L16.4917 43.9601C16.5207 44.1747 16.5287 44.3785 16.5158 44.5715C16.5028 44.7645 16.4645 44.9416 16.4007 45.1026C16.337 45.2638 16.2437 45.4047 16.1208 45.5252C15.9985 45.6475 15.8422 45.7441 15.6519 45.8157C15.371 45.9166 15.1016 45.9346 14.8435 45.8693C14.5875 45.805 14.3539 45.6621 14.1427 45.44C13.9335 45.2192 13.7602 44.9238 13.6226 44.5539C13.4862 44.187 13.4241 43.8467 13.4362 43.5329C13.4489 43.2207 13.5379 42.9478 13.7035 42.7141C13.871 42.4813 14.1182 42.3009 14.445 42.1728L14.7907 43.1027C14.6409 43.1693 14.5289 43.2599 14.4547 43.3745C14.3824 43.49 14.3444 43.6224 14.3406 43.7717C14.3389 43.9219 14.3688 44.0799 14.4304 44.2456C14.4909 44.4084 14.5673 44.5409 14.6596 44.6433C14.7524 44.7472 14.8537 44.8168 14.9634 44.8523C15.0732 44.8877 15.1832 44.8853 15.2936 44.8449C15.3965 44.8072 15.4716 44.7453 15.5192 44.659C15.5673 44.5741 15.5945 44.465 15.6007 44.3316C15.6076 44.1996 15.6004 44.0435 15.579 43.863L15.5203 43.3223C15.4717 42.9047 15.5061 42.5484 15.6234 42.2533C15.7407 41.9583 15.9689 41.7495 16.3079 41.6271C16.5847 41.5241 16.8542 41.5087 17.1165 41.5808C17.3793 41.6543 17.6173 41.8 17.8304 42.0178C18.0435 42.2357 18.2117 42.5103 18.3349 42.8417C18.4603 43.179 18.5116 43.4947 18.4888 43.7888C18.4666 44.0844 18.378 44.3404 18.2229 44.5568C18.0679 44.7732 17.8548 44.9336 17.5836 45.0379L17.2412 44.1169ZM14.6594 47.057L15.2493 47.9855L16.3842 47.7005L17.3243 49.1802L16.5752 50.0728L17.1651 51.0014L20.3979 47.005L19.6885 45.8886L14.6594 47.057ZM17.8665 48.5343L19.1095 47.0533L19.0892 47.021L17.2057 47.4941L17.8665 48.5343ZM18.1757 52.0456L17.4081 51.2553L22.0934 49.0981L23.0165 50.0486L20.6685 54.6125L19.901 53.8221L20.4519 52.7973L19.2287 51.5378L18.1757 52.0456ZM21.7648 50.355L20.8505 52.0557L19.9908 51.1703L21.7383 50.3277L21.7648 50.355ZM23.4975 50.618L23.0138 51.3128L24.2435 52.1561L21.952 55.447L22.7915 56.0225L25.083 52.7316L26.3128 53.5745L26.6929 53.0286L24.8882 57.3586L25.8421 57.7503L26.6128 55.9008L28.5493 56.6955L27.7785 58.5449L28.7302 58.9353L30.5961 54.4587L29.6444 54.068L28.8745 55.9151L26.9381 55.1204L27.7079 53.2733L26.7859 52.8951L26.7966 52.8798L23.4975 50.618ZM30.9761 59.5789L31.9968 54.8415L30.9874 54.6273L29.9666 59.3647L30.9761 59.5789ZM36.3691 60.0003L35.8709 55.1814L37.7871 54.9862C38.1539 54.9489 38.4736 54.9822 38.7464 55.0861C39.0206 55.188 39.2379 55.3505 39.3983 55.5737C39.5602 55.7948 39.6576 56.0649 39.6905 56.3834C39.7236 56.7034 39.6825 56.9858 39.5672 57.2303C39.4518 57.4738 39.2684 57.6699 39.017 57.8192C39.0032 57.8274 38.9892 57.8354 38.9751 57.8433L40.1991 59.6107L39.0655 59.7259L37.9689 58.1112L37.2193 58.1874L37.396 59.8958L36.3691 60.0003ZM37.8319 57.2976L37.1347 57.3687L36.9839 55.9097L37.6763 55.8391C37.874 55.8192 38.0406 55.8315 38.1763 55.8764C38.3133 55.9194 38.4192 55.9927 38.4937 56.0963C38.5699 56.1992 38.6163 56.3311 38.6328 56.4909C38.6492 56.6495 38.6305 56.7853 38.5767 56.8986C38.5245 57.0115 38.4363 57.1014 38.3122 57.168C38.1881 57.2346 38.028 57.2776 37.8319 57.2976ZM40.8695 59.4948L41.9253 59.1674L41.9388 58.0056L43.6215 57.4838L44.2985 58.431L45.3543 58.1036L42.2912 53.9781L41.0216 54.3721L40.8695 59.4948ZM43.1314 56.7982L42.0075 55.226L41.9711 55.2373L41.9486 57.165L43.1314 56.7982ZM43.419 54.5411L43.0078 53.8017L46.5186 51.8797L46.9298 52.619L45.6211 53.3354L47.5689 56.8378L46.6754 57.3268L44.7277 53.8247L43.419 54.5411ZM51.1116 54.5857L48.0578 50.8055L47.2525 51.4463L50.3061 55.2262L51.1116 54.5857ZM51.2433 47.237L54.9289 50.4141L54.3441 51.0818L50.6314 50.6732L50.6079 50.7001L52.9276 52.6998L52.2509 53.4728L48.565 50.2958L49.1591 49.6174L52.8592 50.0367L52.8874 50.0047L50.5693 48.0064L51.2433 47.237ZM53.8937 45.073C54.0004 45.0624 54.1129 45.0697 54.231 45.095L54.7288 44.1789C54.5002 44.0943 54.2699 44.0562 54.038 44.0646C53.8044 44.0723 53.5791 44.1229 53.3623 44.2164C53.1461 44.3086 52.9464 44.4401 52.7635 44.6109C52.5789 44.7809 52.4211 44.9867 52.2899 45.2282C52.1368 45.51 52.0442 45.7981 52.0123 46.0928C51.9804 46.3876 52.0099 46.6767 52.1015 46.9601C52.1928 47.2439 52.3483 47.5097 52.5675 47.7578C52.786 48.0036 53.0693 48.2197 53.4177 48.4062C53.8708 48.6487 54.3082 48.7743 54.7295 48.7829C55.1504 48.7893 55.5324 48.6894 55.8761 48.4825C56.2181 48.275 56.4977 47.9713 56.7149 47.5716C56.9096 47.2132 57.0096 46.8565 57.015 46.5012C57.019 46.1448 56.9287 45.8154 56.7448 45.5127C56.5595 45.2093 56.2779 44.9566 55.9003 44.7546L55.3588 44.4649L54.3891 46.2494L55.0732 46.6151L55.571 45.6994C55.7407 45.7949 55.8693 45.9138 55.9566 46.0559C56.0496 46.2041 56.0936 46.3709 56.0886 46.5565C56.0829 46.7396 56.0245 46.9331 55.9137 47.1373C55.7915 47.3621 55.6307 47.528 55.432 47.6349C55.2316 47.7408 55.002 47.7828 54.7432 47.7608C54.4844 47.7388 54.2052 47.6479 53.9057 47.4877C53.6067 47.3275 53.3781 47.1463 53.221 46.9438C53.0622 46.7406 52.9729 46.5281 52.9528 46.3057C52.9333 46.0822 52.983 45.8614 53.1015 45.6436C53.1646 45.527 53.2371 45.4287 53.3187 45.3485C53.4006 45.2672 53.4902 45.2039 53.5869 45.159C53.6829 45.1117 53.7852 45.083 53.8937 45.073ZM55.3588 41.3934C55.1688 41.3585 55.0027 41.3954 54.86 41.5039C54.7177 41.6124 54.6119 41.7848 54.5431 42.0212C54.4965 42.1818 54.4797 42.3239 54.4935 42.4476C54.5055 42.5709 54.5425 42.6735 54.6046 42.7553C54.6673 42.8357 54.7489 42.8903 54.8496 42.9192C54.9328 42.9463 55.0111 42.9499 55.0849 42.93C55.1591 42.9086 55.2289 42.8704 55.2943 42.8154C55.3585 42.7599 55.4206 42.6923 55.48 42.6125C55.5384 42.5324 55.5934 42.4448 55.6461 42.3498L55.8687 41.9606C55.9734 41.7708 56.0889 41.602 56.2147 41.4542C56.3406 41.3064 56.4772 41.1864 56.6249 41.0942C56.7726 41.0019 56.9317 40.9434 57.1029 40.9186C57.2744 40.8923 57.458 40.9064 57.6537 40.9609C57.9404 41.0448 58.168 41.1889 58.3368 41.3933C58.5046 41.5957 58.607 41.8483 58.6446 42.1513C58.6809 42.4523 58.6439 42.7921 58.5335 43.1709C58.4241 43.5466 58.2707 43.8572 58.0737 44.1026C57.8766 44.3465 57.6417 44.5139 57.3688 44.6047C57.0949 44.6935 56.7881 44.6933 56.4484 44.6041L56.7256 43.652C56.8861 43.6865 57.0304 43.6794 57.1586 43.6309C57.2858 43.5804 57.3956 43.4961 57.4879 43.3782C57.5792 43.2582 57.6494 43.1134 57.699 42.9437C57.7474 42.7771 57.7652 42.6254 57.7521 42.4887C57.7393 42.3504 57.6997 42.2348 57.6326 42.1416C57.5651 42.0485 57.4752 41.9857 57.362 41.9533C57.257 41.9231 57.1593 41.9287 57.0693 41.9703C56.9801 42.0103 56.8928 42.0821 56.8082 42.1858C56.7236 42.288 56.636 42.4181 56.5454 42.5759L56.2695 43.0458C56.059 43.4106 55.8183 43.6773 55.5474 43.8458C55.2769 44.0144 54.9684 44.0482 54.622 43.9472C54.3377 43.8673 54.1115 43.7211 53.9433 43.5087C53.7758 43.2948 53.6714 43.0375 53.6298 42.7367C53.5885 42.4359 53.6174 42.1158 53.7161 41.7765C53.8168 41.4311 53.9641 41.1467 54.1581 40.9233C54.3528 40.6985 54.5774 40.5445 54.8315 40.4615C55.0856 40.3784 55.3531 40.3747 55.6337 40.4503L55.3588 41.3934ZM14.3253 34.9672L14.0125 34.127L13.6998 34.9672L13.0055 34.3947L13.1581 35.2775L12.2684 35.1262L12.8453 35.815L11.9985 36.1253L12.8453 36.4356L12.2684 37.1245L13.1581 36.9731L13.0055 37.8559L13.6998 37.2835L14.0125 38.1237L14.3253 37.2835L15.0195 37.8559L14.867 36.9731L15.7567 37.1245L15.1797 36.4356L16.0265 36.1253L15.1797 35.815L15.7567 35.1262L14.867 35.2775L15.0195 34.3947L14.3253 34.9672ZM57.9872 34.127L58.3001 34.9672L58.9942 34.3947L58.8419 35.2775L59.7314 35.1262L59.1544 35.815L60.0012 36.1253L59.1544 36.4356L59.7314 37.1245L58.8419 36.9731L58.9942 37.8559L58.3001 37.2835L57.9872 38.1237L57.6744 37.2835L56.9803 37.8559L57.1326 36.9731L56.2431 37.1245L56.8201 36.4356L55.9733 36.1253L56.8201 35.815L56.2431 35.1262L57.1326 35.2775L56.9803 34.3947L57.6744 34.9672L57.9872 34.127ZM13.9873 27.9906C14.1355 27.89 14.3036 27.8622 14.4914 27.9072L14.8176 26.9804C14.5414 26.8897 14.2742 26.879 14.0158 26.9482C13.7575 27.0173 13.525 27.1589 13.3184 27.373C13.1123 27.5855 12.9495 27.8615 12.83 28.201C12.7127 28.5345 12.6664 28.8525 12.6912 29.1551C12.716 29.4577 12.8063 29.7203 12.9619 29.9429C13.1181 30.164 13.336 30.3222 13.6156 30.4174C13.9557 30.5369 14.2655 30.5198 14.5452 30.3662C14.8248 30.2125 15.0798 29.9593 15.31 29.6064L15.6113 29.1521C15.7105 28.9994 15.8051 28.8743 15.8949 28.7768C15.9853 28.6778 16.0762 28.6108 16.1677 28.5757C16.2597 28.5391 16.3575 28.5387 16.461 28.5746C16.572 28.613 16.6585 28.6806 16.7205 28.7772C16.7824 28.8739 16.8159 28.9915 16.821 29.1302C16.8265 29.2675 16.8005 29.418 16.7429 29.5817C16.6842 29.7485 16.606 29.8893 16.5084 30.0041C16.4098 30.1169 16.2956 30.1951 16.1658 30.2387C16.035 30.2802 15.8905 30.2794 15.7323 30.2363L15.403 31.172C15.7372 31.2795 16.0435 31.2963 16.3221 31.2224C16.5996 31.1465 16.8433 30.9921 17.0533 30.7591C17.2637 30.5247 17.4339 30.2229 17.5638 29.8536C17.6948 29.4814 17.7504 29.1441 17.7306 28.8416C17.7098 28.5371 17.6213 28.2792 17.465 28.0681C17.3077 27.8549 17.0883 27.6987 16.8067 27.5994C16.6141 27.5344 16.4315 27.5104 16.2589 27.5274C16.0867 27.5429 15.9244 27.5928 15.7719 27.6769C15.6194 27.761 15.4763 27.8735 15.3426 28.0142C15.2089 28.155 15.0844 28.3173 14.9692 28.5012L14.7256 28.8778C14.668 28.9697 14.6079 29.0542 14.5455 29.1311C14.4816 29.2075 14.4161 29.2717 14.349 29.3236C14.2804 29.375 14.2085 29.4094 14.1334 29.4268C14.0588 29.4427 13.9807 29.4349 13.8993 29.4033C13.8002 29.369 13.7217 29.31 13.6635 29.2264C13.606 29.1413 13.5745 29.0368 13.5693 28.9131C13.5625 28.7888 13.5869 28.6478 13.6424 28.49C13.7242 28.2577 13.8391 28.0913 13.9873 27.9906ZM16.1517 24.0759L18.0426 24.5172L17.4003 25.5685L16.132 24.1082L16.1517 24.0759ZM45.9133 14.0226L45.5153 14.769L46.8364 15.4627L44.9507 18.9981L45.8526 19.4717L47.7383 15.9364L49.0595 16.6301L49.4576 15.8838L45.9133 14.0226ZM51.0955 17.1585L48.1091 20.9908L47.2924 20.3643L50.2788 16.5319L51.0955 17.1585ZM52.2022 25.0375L55.8314 21.797L55.144 21.0391L52.8615 23.0771L52.833 23.0454L53.7057 19.4531L53.0998 18.7849L49.4706 22.0254L50.1611 22.7868L52.4453 20.7472L52.4691 20.7736L51.6058 24.3798L52.2022 25.0375ZM56.8058 26.5038C56.8907 26.4186 56.9569 26.3282 57.0049 26.2327C57.0545 26.1364 57.0848 26.0354 57.0958 25.9297C57.1093 25.8245 57.1032 25.7157 57.0777 25.6033C57.0532 25.4922 57.0082 25.3789 56.9428 25.2634C56.8206 25.0476 56.6591 24.888 56.4584 24.7846C56.2584 24.6827 56.0294 24.6439 55.7716 24.6682C55.5152 24.6919 55.2389 24.7863 54.9422 24.9516C54.6458 25.1169 54.4189 25.3022 54.2618 25.5075C54.1044 25.7127 54.0175 25.9277 54.0007 26.1523C53.9852 26.3761 54.0406 26.5994 54.1668 26.8222C54.2813 27.0242 54.4149 27.1767 54.568 27.2795C54.723 27.3829 54.8885 27.4353 55.0644 27.4368C55.2322 27.4395 55.4023 27.3952 55.5744 27.3039L55.0607 26.3969L55.7384 26.0192L56.739 27.7864L56.203 28.0854C55.8287 28.294 55.4632 28.3948 55.1053 28.388C54.7492 28.3804 54.4206 28.2796 54.1195 28.0858C53.8194 27.8912 53.5693 27.6165 53.3683 27.2618C53.1441 26.8659 53.035 26.469 53.0413 26.0712C53.0491 25.6726 53.1682 25.2987 53.3988 24.9494C53.6314 24.6008 53.9725 24.3013 54.4213 24.051C54.7663 23.8586 55.102 23.7366 55.4283 23.6849C55.7565 23.6339 56.066 23.6459 56.3564 23.7209C56.6467 23.7959 56.9089 23.9256 57.1428 24.11C57.3768 24.2944 57.5725 24.5261 57.7306 24.8052C57.8662 25.0444 57.9568 25.2868 58.0031 25.5324C58.0505 25.7773 58.0558 26.015 58.0186 26.2455C57.9823 26.4774 57.9048 26.6933 57.7866 26.8932C57.6695 27.0922 57.5141 27.2649 57.3197 27.4112L56.8058 26.5038ZM58.8487 30.2546C58.7896 30.4228 58.6708 30.5441 58.4929 30.6184L58.7843 31.5565C59.0609 31.467 59.2824 31.3184 59.4489 31.1107C59.6157 30.903 59.7181 30.6521 59.7567 30.3582C59.7956 30.0658 59.7617 29.7478 59.655 29.4042C59.5499 29.0666 59.3972 28.7833 59.1965 28.5543C58.9954 28.3253 58.7658 28.1669 58.5077 28.0792C58.2496 27.9931 57.9797 27.994 57.6977 28.0818C57.3523 28.1858 57.113 28.3819 56.9798 28.6701C56.8465 28.9584 56.7925 29.3123 56.818 29.7319L56.8472 30.275C56.8586 30.4564 56.8572 30.6127 56.8431 30.7441C56.8294 30.8769 56.7961 30.9845 56.7434 31.0666C56.6914 31.1502 56.6129 31.208 56.5081 31.24C56.3957 31.2744 56.2856 31.2709 56.1782 31.2295C56.0704 31.1882 55.9731 31.1132 55.8862 31.0045C55.7996 30.8973 55.7307 30.7608 55.6791 30.595C55.6267 30.4262 55.6055 30.2669 55.6156 30.1169C55.6274 29.9681 55.6727 29.8379 55.7512 29.7264C55.8318 29.616 55.9486 29.5316 56.1017 29.4732L55.8076 28.5261C55.4743 28.6362 55.2175 28.803 55.0373 29.0264C54.8594 29.2508 54.7553 29.5185 54.7254 29.8297C54.6962 30.1422 54.7395 30.4854 54.8557 30.8592C54.9728 31.2359 55.1296 31.5403 55.3263 31.7722C55.525 32.0051 55.7506 32.1606 56.0026 32.2387C56.2567 32.3177 56.5266 32.3144 56.8126 32.2286C57.0066 32.1677 57.1681 32.0795 57.2966 31.9642C57.4262 31.8504 57.5269 31.7148 57.5994 31.5573C57.6719 31.3998 57.7199 31.2251 57.7434 31.0331C57.7669 30.8411 57.7702 30.6371 57.7531 30.4213L57.7243 29.9747C57.7155 29.8668 57.7135 29.7634 57.7179 29.6648C57.7236 29.5656 57.738 29.4754 57.7608 29.3941C57.7853 29.3124 57.8226 29.2424 57.873 29.1842C57.9233 29.1275 57.9908 29.0879 58.0754 29.0654C58.1757 29.0347 58.2741 29.0359 58.3707 29.069C58.4681 29.1037 58.5557 29.1693 58.6339 29.2658C58.7138 29.3619 58.7786 29.4898 58.8279 29.6495C58.9011 29.8846 58.9081 30.0863 58.8487 30.2546Z" fill="#998FC7"/>
<rect x="48.5" y="0.5" width="23" height="23" rx="11.5" fill="#D9D4F0"/>
<rect x="48.5" y="0.5" width="23" height="23" rx="11.5" stroke="white"/>
<path d="M56.2166 11.764C56.2166 10.1493 56.5059 8.88467 57.0846 7.97C57.6726 7.05533 58.6433 6.598 59.9966 6.598C61.3499 6.598 62.3159 7.05533 62.8946 7.97C63.4826 8.88467 63.7766 10.1493 63.7766 11.764C63.7766 13.388 63.4826 14.662 62.8946 15.586C62.3159 16.51 61.3499 16.972 59.9966 16.972C58.6433 16.972 57.6726 16.51 57.0846 15.586C56.5059 14.662 56.2166 13.388 56.2166 11.764ZM61.8446 11.764C61.8446 11.0733 61.7979 10.4947 61.7046 10.028C61.6206 9.552 61.4433 9.16467 61.1726 8.866C60.9113 8.56733 60.5193 8.418 59.9966 8.418C59.4739 8.418 59.0773 8.56733 58.8066 8.866C58.5453 9.16467 58.3679 9.552 58.2746 10.028C58.1906 10.4947 58.1486 11.0733 58.1486 11.764C58.1486 12.4733 58.1906 13.0707 58.2746 13.556C58.3586 14.032 58.5359 14.4193 58.8066 14.718C59.0773 15.0073 59.4739 15.152 59.9966 15.152C60.5193 15.152 60.9159 15.0073 61.1866 14.718C61.4573 14.4193 61.6346 14.032 61.7186 13.556C61.8026 13.0707 61.8446 12.4733 61.8446 11.764Z" fill="#998FC7"/>
</svg>
