<svg width="72" height="72" viewBox="0 0 72 72" fill="none" xmlns="http://www.w3.org/2000/svg">
<rect width="72" height="72" rx="36" fill="#D9D4F0"/>
<path d="M33.0965 9.33431C34.6311 7.57204 37.3689 7.57204 38.9035 9.33431C40.0545 10.656 41.9529 11.0336 43.522 10.253C45.6142 9.21212 48.1436 10.2599 48.887 12.4752C49.4446 14.1368 51.0539 15.2121 52.8024 15.0914C55.1336 14.9304 57.0696 16.8664 56.9086 19.1976C56.7879 20.9461 57.8632 22.5554 59.5248 23.113C61.7401 23.8564 62.7879 26.3858 61.747 28.478C60.9664 30.0471 61.344 31.9455 62.6657 33.0965C64.428 34.6311 64.428 37.3689 62.6657 38.9035C61.344 40.0545 60.9664 41.9529 61.747 43.522C62.7879 45.6142 61.7401 48.1436 59.5248 48.887C57.8632 49.4446 56.7879 51.0539 56.9086 52.8024C57.0696 55.1336 55.1336 57.0696 52.8024 56.9086C51.0539 56.7879 49.4446 57.8632 48.887 59.5248C48.1436 61.7401 45.6142 62.7879 43.522 61.747C41.9529 60.9664 40.0545 61.344 38.9035 62.6657C37.3689 64.428 34.6311 64.428 33.0965 62.6657C31.9455 61.344 30.0471 60.9664 28.478 61.747C26.3858 62.7879 23.8564 61.7401 23.113 59.5248C22.5554 57.8632 20.9461 56.7879 19.1976 56.9086C16.8664 57.0696 14.9304 55.1336 15.0914 52.8024C15.2121 51.0539 14.1368 49.4446 12.4752 48.887C10.2599 48.1436 9.21212 45.6142 10.253 43.522C11.0336 41.9529 10.656 40.0545 9.33431 38.9035C7.57204 37.3689 7.57204 34.6311 9.33431 33.0965C10.656 31.9455 11.0336 30.0471 10.253 28.478C9.21212 26.3858 10.2599 23.8564 12.4752 23.113C14.1368 22.5554 15.2121 20.9461 15.0914 19.1976C14.9304 16.8664 16.8664 14.9304 19.1976 15.0914C20.9461 15.2121 22.5554 14.1368 23.113 12.4752C23.8564 10.2599 26.3858 9.21212 28.478 10.253C30.0471 11.0336 31.9455 10.656 33.0965 9.33431Z" fill="#998FC7"/>
<path d="M15.9811 30.1958C15.9058 30.3947 15.7885 30.5579 15.6292 30.6855C15.4683 30.8126 15.287 30.8942 15.0852 30.9306C14.8841 30.9653 14.6841 30.945 14.4852 30.8696C14.2847 30.7936 14.1214 30.6763 13.9954 30.5177C13.8684 30.3568 13.7876 30.1758 13.7528 29.9746C13.7165 29.7729 13.736 29.5726 13.8114 29.3737C13.8873 29.1731 14.0055 29.0102 14.1658 28.8848C14.325 28.7572 14.5052 28.676 14.7063 28.6413C14.9064 28.6043 15.1068 28.6238 15.3073 28.6998C15.5062 28.7752 15.6691 28.8933 15.7961 29.0542C15.9238 29.2135 16.0058 29.394 16.0421 29.5957C16.0774 29.7952 16.0571 29.9952 15.9811 30.1958Z" fill="#D9D4F0"/>
<path d="M20.7836 18.9792C20.6617 18.8518 20.524 18.787 20.3706 18.7851C20.2184 18.782 20.0504 18.8554 19.8663 19.0052C19.7491 19.1006 19.6647 19.1932 19.613 19.2828C19.5616 19.37 19.5376 19.4519 19.541 19.5285C19.5444 19.605 19.5704 19.6746 19.619 19.737C19.6573 19.7897 19.7033 19.8281 19.7571 19.8524C19.8111 19.8741 19.8746 19.8825 19.9475 19.8775C20.0194 19.8711 20.102 19.8515 20.1953 19.8185C20.2887 19.7856 20.3934 19.7389 20.5096 19.6783L20.913 19.4722C21.1847 19.3326 21.4358 19.2359 21.6662 19.182C21.8966 19.1282 22.1087 19.1131 22.3024 19.1366C22.4951 19.1589 22.6709 19.2175 22.8298 19.3125C22.9901 19.4064 23.1359 19.5325 23.2671 19.6909C23.4899 19.9673 23.6108 20.2565 23.6299 20.5583C23.649 20.8601 23.5722 21.164 23.3997 21.4699C23.2285 21.7748 22.9658 22.0715 22.6113 22.36C22.2474 22.6563 21.8859 22.8611 21.527 22.9742C21.1694 23.0863 20.8246 23.0916 20.4927 22.9901C20.161 22.8862 19.8518 22.6596 19.5653 22.3104L20.6449 21.4314C20.756 21.554 20.8757 21.6356 21.004 21.6762C21.1323 21.7168 21.2665 21.7175 21.4067 21.6781C21.5483 21.6376 21.6914 21.5586 21.8359 21.4409C21.9572 21.3422 22.0465 21.2445 22.1039 21.1479C22.1613 21.0513 22.1894 20.9593 22.1884 20.8717C22.1874 20.7841 22.1598 20.7057 22.1057 20.6365C22.0522 20.5735 21.9855 20.5348 21.9058 20.5204C21.8263 20.5035 21.7254 20.5132 21.603 20.5493C21.4794 20.5842 21.3261 20.6478 21.143 20.7402L20.6526 20.9899C20.2164 21.2113 19.8146 21.3151 19.4475 21.3012C19.0806 21.2849 18.7646 21.1126 18.4996 20.7843C18.2818 20.5196 18.1635 20.2295 18.1446 19.914C18.1259 19.5959 18.1986 19.2773 18.3625 18.958C18.5277 18.6375 18.776 18.3425 19.1072 18.0728C19.4453 17.7976 19.7837 17.6161 20.1226 17.5283C20.4614 17.4406 20.7814 17.4453 21.0826 17.5423C21.384 17.6369 21.647 17.8207 21.8714 18.0936L20.7836 18.9792Z" fill="#D9D4F0"/>
<path d="M27.0727 19.3057L25.5962 19.874L25.32 14.1942L27.1901 13.4744L30.7933 17.8736L29.3168 18.4419L26.8089 15.2145L26.7695 15.2297L27.0727 19.3057ZM26.0318 17.4235L28.8075 16.3552L29.2015 17.3788L26.4258 18.4472L26.0318 17.4235Z" fill="#D9D4F0"/>
<path d="M33.3163 17.5135L31.7368 17.6013L33.2166 12.1108L35.2174 11.9995L37.2969 17.2922L35.7173 17.38L34.3207 13.5388L34.2785 13.5411L33.3163 17.5135ZM32.9032 15.4027L35.8728 15.2376L35.9337 16.3328L32.9641 16.4979L32.9032 15.4027Z" fill="#D9D4F0"/>
<path d="M38.9143 13.2095L39.2058 12.0647L43.754 13.2227L43.4625 14.3674L41.8886 13.9667L40.8477 18.055L39.4474 17.6985L40.4883 13.6102L38.9143 13.2095Z" fill="#D9D4F0"/>
<path d="M44.0709 18.9462L46.9866 14.4011L48.2205 15.1927L47.0816 16.9681L48.7149 18.0159L49.8539 16.2405L51.0878 17.0321L48.1721 21.5772L46.9382 20.7856L48.0771 19.0102L46.4437 17.9623L45.3048 19.7377L44.0709 18.9462Z" fill="#D9D4F0"/>
<path d="M54.5946 20.2825L50.5498 23.86L49.5785 22.7619L53.6233 19.1844L54.5946 20.2825Z" fill="#D9D4F0"/>
<path d="M56.2604 29.6045C56.2102 29.3978 56.2148 29.1968 56.2741 29.0015C56.3352 28.8058 56.4387 28.636 56.5846 28.4921C56.731 28.3498 56.9075 28.2536 57.1142 28.2035C57.3226 28.1529 57.5236 28.1575 57.7172 28.2173C57.9129 28.2783 58.0818 28.382 58.2241 28.5284C58.368 28.6743 58.4651 28.8507 58.5152 29.0574C58.5658 29.2658 58.5603 29.467 58.4989 29.6609C58.4395 29.8562 58.3367 30.025 58.1903 30.1672C58.0461 30.3107 57.8697 30.4078 57.6613 30.4583C57.4546 30.5085 57.2535 30.5031 57.0578 30.442C56.8625 30.3827 56.6929 30.28 56.5489 30.1341C56.4071 29.9894 56.3109 29.8129 56.2604 29.6045Z" fill="#D9D4F0"/>
<path d="M16.9149 39.797L13.8495 42.3122L13.866 42.3509L17.8022 41.8723L18.4532 43.3948L12.7873 43.8789L11.9995 42.0364L16.2639 38.2745L16.9149 39.797Z" fill="#D9D4F0"/>
<path d="M15.5626 49.8309L19.3218 45.9543L22.1157 48.6636L21.2933 49.5116L19.5519 47.8229L18.9058 48.4892L20.5034 50.0384L19.681 50.8864L18.0835 49.3372L17.4374 50.0035L19.1712 51.6848L18.3489 52.5328L15.5626 49.8309Z" fill="#D9D4F0"/>
<path d="M22.6079 56.48L24.596 51.4594L26.7631 52.3175C27.1357 52.4651 27.4349 52.662 27.6607 52.9083C27.8864 53.1546 28.0265 53.436 28.0808 53.7524C28.1351 54.0689 28.0917 54.4052 27.9506 54.7615C27.8082 55.1211 27.6081 55.3925 27.3502 55.5759C27.094 55.7599 26.7971 55.8579 26.4596 55.8698C26.1238 55.8824 25.7647 55.813 25.3822 55.6615L24.0879 55.149L24.5072 54.09L25.527 54.4938C25.6872 54.5572 25.8314 54.5916 25.9597 54.5971C26.0903 54.6015 26.2033 54.5716 26.2987 54.5073C26.3958 54.4436 26.4725 54.3407 26.5288 54.1985C26.5857 54.0547 26.6009 53.9255 26.5744 53.811C26.5502 53.6956 26.4893 53.5939 26.3917 53.5061C26.2964 53.4174 26.1687 53.3413 26.0085 53.2778L25.528 53.0876L23.971 57.0198L22.6079 56.48ZM26.4622 55.3405L26.8049 58.1419L25.3242 57.5556L25.0109 54.7658L26.4622 55.3405Z" fill="#D9D4F0"/>
<path d="M33.5084 54.4429L33.3938 59.8417L31.9281 59.8106L32.0427 54.4118L33.5084 54.4429Z" fill="#D9D4F0"/>
<path d="M39.7535 59.9995L38.0101 54.8888L41.6036 53.6629L41.985 54.7809L39.779 55.5334L40.0786 56.4118L42.065 55.7342L42.4464 56.8522L40.46 57.5298L41.141 59.5262L39.7535 59.9995Z" fill="#D9D4F0"/>
<path d="M46.4689 51.5083L49.8562 55.7137L48.7145 56.6333L45.3272 52.4278L46.4689 51.5083Z" fill="#D9D4F0"/>
<path d="M54.8267 51.7432L50.2052 48.95L52.2183 45.6193L53.2292 46.2303L51.9745 48.3064L52.7688 48.7864L53.9199 46.8819L54.9308 47.4929L53.7797 49.3974L54.574 49.8775L55.8233 47.8105L56.8342 48.4215L54.8267 51.7432Z" fill="#D9D4F0"/>
<path d="M60.0479 41.3364L59.7568 43.3937L54.4101 42.6371L54.6982 40.6008C54.776 40.0508 54.9503 39.5908 55.221 39.2208C55.4902 38.8488 55.8404 38.5823 56.2715 38.4214C56.7011 38.2585 57.1943 38.2165 57.7513 38.2953C58.3082 38.3741 58.7715 38.5506 59.141 38.8248C59.5088 39.0987 59.7715 39.4501 59.9292 39.879C60.0851 40.3076 60.1247 40.7934 60.0479 41.3364ZM58.7299 41.7678L58.8082 41.2143C58.8457 40.9497 58.8349 40.7183 58.776 40.52C58.7173 40.32 58.5904 40.1565 58.3953 40.0295C58.2005 39.9007 57.9169 39.81 57.5444 39.7573C57.172 39.7046 56.8742 39.7139 56.651 39.7853C56.4281 39.855 56.2604 39.9803 56.1478 40.1615C56.0354 40.3409 55.9595 40.5698 55.9201 40.8483L55.8477 41.36L58.7299 41.7678Z" fill="#D9D4F0"/>
<path d="M36.2933 20.3662L39.545 24.1341L44.2451 22.4969L45.1772 27.3858L50.0662 28.318L48.429 33.0181L52.1969 36.2698L48.429 39.5216L50.0662 44.2216L45.1772 45.1538L44.2451 50.0428L39.545 48.4056L36.2933 52.1734L33.0415 48.4056L28.3415 50.0428L27.4093 45.1538L22.5203 44.2216L24.1575 39.5216L20.3896 36.2698L24.1575 33.0181L22.5203 28.318L27.4093 27.3858L28.3415 22.4969L33.0415 24.1341L36.2933 20.3662Z" fill="#D9D4F0"/>
<path d="M34.2165 38.0131L31.4371 35.2217L29.6641 37.0067L34.2165 41.5712L43.0099 32.7538L41.2369 30.9688L34.2165 38.0131Z" fill="#998FC7"/>
<rect x="48.5" y="0.5" width="23" height="23" rx="11.5" fill="#D9D4F0"/>
<rect x="48.5" y="0.5" width="23" height="23" rx="11.5" stroke="white"/>
<path d="M56.2166 11.764C56.2166 10.1493 56.5059 8.88467 57.0846 7.97C57.6726 7.05533 58.6433 6.598 59.9966 6.598C61.3499 6.598 62.3159 7.05533 62.8946 7.97C63.4826 8.88467 63.7766 10.1493 63.7766 11.764C63.7766 13.388 63.4826 14.662 62.8946 15.586C62.3159 16.51 61.3499 16.972 59.9966 16.972C58.6433 16.972 57.6726 16.51 57.0846 15.586C56.5059 14.662 56.2166 13.388 56.2166 11.764ZM61.8446 11.764C61.8446 11.0733 61.7979 10.4947 61.7046 10.028C61.6206 9.552 61.4433 9.16467 61.1726 8.866C60.9113 8.56733 60.5193 8.418 59.9966 8.418C59.4739 8.418 59.0773 8.56733 58.8066 8.866C58.5453 9.16467 58.3679 9.552 58.2746 10.028C58.1906 10.4947 58.1486 11.0733 58.1486 11.764C58.1486 12.4733 58.1906 13.0707 58.2746 13.556C58.3586 14.032 58.5359 14.4193 58.8066 14.718C59.0773 15.0073 59.4739 15.152 59.9966 15.152C60.5193 15.152 60.9159 15.0073 61.1866 14.718C61.4573 14.4193 61.6346 14.032 61.7186 13.556C61.8026 13.0707 61.8446 12.4733 61.8446 11.764Z" fill="#998FC7"/>
</svg>
