<svg width="48" height="48" viewBox="0 0 48 48" fill="none" xmlns="http://www.w3.org/2000/svg">
<path d="M0 24C0 10.7452 10.7452 0 24 0C37.2548 0 48 10.7452 48 24C48 37.2548 37.2548 48 24 48C10.7452 48 0 37.2548 0 24Z" fill="white"/>
<g clip-path="url(#clip0_2218_5884)">
<path d="M23.988 12.334C17.548 12.334 12.333 17.5607 12.333 24.0007C12.333 30.4407 17.548 35.6673 23.988 35.6673C30.4397 35.6673 35.6663 30.4407 35.6663 24.0007C35.6663 17.5607 30.4397 12.334 23.988 12.334ZM23.9997 33.334C18.843 33.334 14.6663 29.1573 14.6663 24.0007C14.6663 18.844 18.843 14.6673 23.9997 14.6673C29.1563 14.6673 33.333 18.844 33.333 24.0007C33.333 29.1573 29.1563 33.334 23.9997 33.334ZM24.583 18.1673H22.833V25.1673L28.958 28.8423L29.833 27.4073L24.583 24.2923V18.1673Z" fill="#FF4E42"/>
</g>
<defs>
<clipPath id="clip0_2218_5884">
<rect width="28" height="28" fill="white" transform="translate(10 10)"/>
</clipPath>
</defs>
</svg>
