<svg width="123" height="24" viewBox="0 0 123 24" fill="none" xmlns="http://www.w3.org/2000/svg">
<rect width="123" height="24" rx="12" fill="url(#paint0_linear_749_50256)"/>
<path d="M16.732 10.144C16.732 10.568 16.632 10.968 16.432 11.344C16.232 11.72 15.912 12.028 15.472 12.268C15.032 12.5 14.468 12.616 13.78 12.616H12.268V16H10.9V7.66H13.78C14.42 7.66 14.96 7.772 15.4 7.996C15.848 8.212 16.18 8.508 16.396 8.884C16.62 9.26 16.732 9.68 16.732 10.144ZM13.78 11.5C14.3 11.5 14.688 11.384 14.944 11.152C15.2 10.912 15.328 10.576 15.328 10.144C15.328 9.232 14.812 8.776 13.78 8.776H12.268V11.5H13.78ZM20.9047 16.108C20.2807 16.108 19.7167 15.968 19.2127 15.688C18.7087 15.4 18.3127 15 18.0247 14.488C17.7367 13.968 17.5927 13.368 17.5927 12.688C17.5927 12.016 17.7407 11.42 18.0367 10.9C18.3327 10.38 18.7367 9.98 19.2487 9.7C19.7607 9.42 20.3327 9.28 20.9647 9.28C21.5967 9.28 22.1687 9.42 22.6807 9.7C23.1927 9.98 23.5967 10.38 23.8927 10.9C24.1887 11.42 24.3367 12.016 24.3367 12.688C24.3367 13.36 24.1847 13.956 23.8807 14.476C23.5767 14.996 23.1607 15.4 22.6327 15.688C22.1127 15.968 21.5367 16.108 20.9047 16.108ZM20.9047 14.92C21.2567 14.92 21.5847 14.836 21.8887 14.668C22.2007 14.5 22.4527 14.248 22.6447 13.912C22.8367 13.576 22.9327 13.168 22.9327 12.688C22.9327 12.208 22.8407 11.804 22.6567 11.476C22.4727 11.14 22.2287 10.888 21.9247 10.72C21.6207 10.552 21.2927 10.468 20.9407 10.468C20.5887 10.468 20.2607 10.552 19.9567 10.72C19.6607 10.888 19.4247 11.14 19.2487 11.476C19.0727 11.804 18.9847 12.208 18.9847 12.688C18.9847 13.4 19.1647 13.952 19.5247 14.344C19.8927 14.728 20.3527 14.92 20.9047 14.92ZM27.2851 10.504V14.164C27.2851 14.412 27.3411 14.592 27.4531 14.704C27.5731 14.808 27.7731 14.86 28.0531 14.86H28.8931V16H27.8131C27.1971 16 26.7251 15.856 26.3971 15.568C26.0691 15.28 25.9051 14.812 25.9051 14.164V10.504H25.1251V9.388H25.9051V7.744H27.2851V9.388H28.8931V10.504H27.2851ZM36.2139 12.532C36.2139 12.78 36.1979 13.004 36.1659 13.204H31.1139C31.1539 13.732 31.3499 14.156 31.7019 14.476C32.0539 14.796 32.4859 14.956 32.9979 14.956C33.7339 14.956 34.2539 14.648 34.5579 14.032H36.0339C35.8339 14.64 35.4699 15.14 34.9419 15.532C34.4219 15.916 33.7739 16.108 32.9979 16.108C32.3659 16.108 31.7979 15.968 31.2939 15.688C30.7979 15.4 30.4059 15 30.1179 14.488C29.8379 13.968 29.6979 13.368 29.6979 12.688C29.6979 12.008 29.8339 11.412 30.1059 10.9C30.3859 10.38 30.7739 9.98 31.2699 9.7C31.7739 9.42 32.3499 9.28 32.9979 9.28C33.6219 9.28 34.1779 9.416 34.6659 9.688C35.1539 9.96 35.5339 10.344 35.8059 10.84C36.0779 11.328 36.2139 11.892 36.2139 12.532ZM34.7859 12.1C34.7779 11.596 34.5979 11.192 34.2459 10.888C33.8939 10.584 33.4579 10.432 32.9379 10.432C32.4659 10.432 32.0619 10.584 31.7259 10.888C31.3899 11.184 31.1899 11.588 31.1259 12.1H34.7859ZM40.8962 9.28C41.4162 9.28 41.8802 9.388 42.2882 9.604C42.7042 9.82 43.0282 10.14 43.2602 10.564C43.4922 10.988 43.6082 11.5 43.6082 12.1V16H42.2522V12.304C42.2522 11.712 42.1042 11.26 41.8082 10.948C41.5122 10.628 41.1082 10.468 40.5962 10.468C40.0842 10.468 39.6762 10.628 39.3722 10.948C39.0762 11.26 38.9282 11.712 38.9282 12.304V16H37.5602V9.388H38.9282V10.144C39.1522 9.872 39.4362 9.66 39.7802 9.508C40.1322 9.356 40.5042 9.28 40.8962 9.28ZM46.9491 10.504V14.164C46.9491 14.412 47.0051 14.592 47.1171 14.704C47.2371 14.808 47.4371 14.86 47.7171 14.86H48.5571V16H47.4771C46.8611 16 46.3891 15.856 46.0611 15.568C45.7331 15.28 45.5691 14.812 45.5691 14.164V10.504H44.7891V9.388H45.5691V7.744H46.9491V9.388H48.5571V10.504H46.9491ZM50.514 8.512C50.266 8.512 50.058 8.428 49.89 8.26C49.722 8.092 49.638 7.884 49.638 7.636C49.638 7.388 49.722 7.18 49.89 7.012C50.058 6.844 50.266 6.76 50.514 6.76C50.754 6.76 50.958 6.844 51.126 7.012C51.294 7.18 51.378 7.388 51.378 7.636C51.378 7.884 51.294 8.092 51.126 8.26C50.958 8.428 50.754 8.512 50.514 8.512ZM51.186 9.388V16H49.818V9.388H51.186ZM52.526 12.664C52.526 12 52.662 11.412 52.934 10.9C53.214 10.388 53.59 9.992 54.062 9.712C54.542 9.424 55.07 9.28 55.646 9.28C56.166 9.28 56.618 9.384 57.002 9.592C57.394 9.792 57.706 10.044 57.938 10.348V9.388H59.318V16H57.938V15.016C57.706 15.328 57.39 15.588 56.99 15.796C56.59 16.004 56.134 16.108 55.622 16.108C55.054 16.108 54.534 15.964 54.062 15.676C53.59 15.38 53.214 14.972 52.934 14.452C52.662 13.924 52.526 13.328 52.526 12.664ZM57.938 12.688C57.938 12.232 57.842 11.836 57.65 11.5C57.466 11.164 57.222 10.908 56.918 10.732C56.614 10.556 56.286 10.468 55.934 10.468C55.582 10.468 55.254 10.556 54.95 10.732C54.646 10.9 54.398 11.152 54.206 11.488C54.022 11.816 53.93 12.208 53.93 12.664C53.93 13.12 54.022 13.52 54.206 13.864C54.398 14.208 54.646 14.472 54.95 14.656C55.262 14.832 55.59 14.92 55.934 14.92C56.286 14.92 56.614 14.832 56.918 14.656C57.222 14.48 57.466 14.224 57.65 13.888C57.842 13.544 57.938 13.144 57.938 12.688ZM62.4828 7.12V16H61.1148V7.12H62.4828ZM68.7641 8.764V11.212H71.6441V12.328H68.7641V14.884H72.0041V16H67.3961V7.648H72.0041V8.764H68.7641ZM73.2331 12.664C73.2331 12 73.3691 11.412 73.6411 10.9C73.9211 10.388 74.2971 9.992 74.7691 9.712C75.2491 9.424 75.7771 9.28 76.3531 9.28C76.8731 9.28 77.3251 9.384 77.7091 9.592C78.1011 9.792 78.4131 10.044 78.6451 10.348V9.388H80.0251V16H78.6451V15.016C78.4131 15.328 78.0971 15.588 77.6971 15.796C77.2971 16.004 76.8411 16.108 76.3291 16.108C75.7611 16.108 75.2411 15.964 74.7691 15.676C74.2971 15.38 73.9211 14.972 73.6411 14.452C73.3691 13.924 73.2331 13.328 73.2331 12.664ZM78.6451 12.688C78.6451 12.232 78.5491 11.836 78.3571 11.5C78.1731 11.164 77.9291 10.908 77.6251 10.732C77.3211 10.556 76.9931 10.468 76.6411 10.468C76.2891 10.468 75.9611 10.556 75.6571 10.732C75.3531 10.9 75.1051 11.152 74.9131 11.488C74.7291 11.816 74.6371 12.208 74.6371 12.664C74.6371 13.12 74.7291 13.52 74.9131 13.864C75.1051 14.208 75.3531 14.472 75.6571 14.656C75.9691 14.832 76.2971 14.92 76.6411 14.92C76.9931 14.92 77.3211 14.832 77.6251 14.656C77.9291 14.48 78.1731 14.224 78.3571 13.888C78.5491 13.544 78.6451 13.144 78.6451 12.688ZM83.1899 10.348C83.3899 10.012 83.6539 9.752 83.9819 9.568C84.3179 9.376 84.7139 9.28 85.1699 9.28V10.696H84.8219C84.2859 10.696 83.8779 10.832 83.5979 11.104C83.3259 11.376 83.1899 11.848 83.1899 12.52V16H81.8219V9.388H83.1899V10.348ZM89.7633 9.28C90.2833 9.28 90.7473 9.388 91.1553 9.604C91.5713 9.82 91.8953 10.14 92.1273 10.564C92.3593 10.988 92.4753 11.5 92.4753 12.1V16H91.1193V12.304C91.1193 11.712 90.9713 11.26 90.6753 10.948C90.3793 10.628 89.9753 10.468 89.4633 10.468C88.9513 10.468 88.5433 10.628 88.2393 10.948C87.9433 11.26 87.7953 11.712 87.7953 12.304V16H86.4273V9.388H87.7953V10.144C88.0193 9.872 88.3033 9.66 88.6473 9.508C88.9993 9.356 89.3713 9.28 89.7633 9.28ZM94.9163 8.512C94.6683 8.512 94.4603 8.428 94.2923 8.26C94.1243 8.092 94.0403 7.884 94.0403 7.636C94.0403 7.388 94.1243 7.18 94.2923 7.012C94.4603 6.844 94.6683 6.76 94.9163 6.76C95.1563 6.76 95.3603 6.844 95.5283 7.012C95.6963 7.18 95.7803 7.388 95.7803 7.636C95.7803 7.884 95.6963 8.092 95.5283 8.26C95.3603 8.428 95.1563 8.512 94.9163 8.512ZM95.5883 9.388V16H94.2203V9.388H95.5883ZM100.72 9.28C101.24 9.28 101.704 9.388 102.112 9.604C102.528 9.82 102.852 10.14 103.084 10.564C103.316 10.988 103.432 11.5 103.432 12.1V16H102.076V12.304C102.076 11.712 101.928 11.26 101.632 10.948C101.336 10.628 100.932 10.468 100.42 10.468C99.9084 10.468 99.5004 10.628 99.1964 10.948C98.9004 11.26 98.7524 11.712 98.7524 12.304V16H97.3844V9.388H98.7524V10.144C98.9764 9.872 99.2604 9.66 99.6044 9.508C99.9564 9.356 100.328 9.28 100.72 9.28ZM107.841 9.28C108.353 9.28 108.805 9.384 109.197 9.592C109.597 9.792 109.909 10.044 110.133 10.348V9.388H111.513V16.108C111.513 16.716 111.385 17.256 111.129 17.728C110.873 18.208 110.501 18.584 110.013 18.856C109.533 19.128 108.957 19.264 108.285 19.264C107.389 19.264 106.645 19.052 106.053 18.628C105.461 18.212 105.125 17.644 105.045 16.924H106.401C106.505 17.268 106.725 17.544 107.061 17.752C107.405 17.968 107.813 18.076 108.285 18.076C108.837 18.076 109.281 17.908 109.617 17.572C109.961 17.236 110.133 16.748 110.133 16.108V15.004C109.901 15.316 109.585 15.58 109.185 15.796C108.793 16.004 108.345 16.108 107.841 16.108C107.265 16.108 106.737 15.964 106.257 15.676C105.785 15.38 105.409 14.972 105.129 14.452C104.857 13.924 104.721 13.328 104.721 12.664C104.721 12 104.857 11.412 105.129 10.9C105.409 10.388 105.785 9.992 106.257 9.712C106.737 9.424 107.265 9.28 107.841 9.28ZM110.133 12.688C110.133 12.232 110.037 11.836 109.845 11.5C109.661 11.164 109.417 10.908 109.113 10.732C108.809 10.556 108.481 10.468 108.129 10.468C107.777 10.468 107.449 10.556 107.145 10.732C106.841 10.9 106.593 11.152 106.401 11.488C106.217 11.816 106.125 12.208 106.125 12.664C106.125 13.12 106.217 13.52 106.401 13.864C106.593 14.208 106.841 14.472 107.145 14.656C107.457 14.832 107.785 14.92 108.129 14.92C108.481 14.92 108.809 14.832 109.113 14.656C109.417 14.48 109.661 14.224 109.845 13.888C110.037 13.544 110.133 13.144 110.133 12.688Z" fill="black"/>
<defs>
<linearGradient id="paint0_linear_749_50256" x1="0" y1="0" x2="123.556" y2="3.32507" gradientUnits="userSpaceOnUse">
<stop stop-color="#D499FF"/>
<stop offset="1" stop-color="#4DE7FF"/>
</linearGradient>
</defs>
</svg>
