<svg width="131" height="130" viewBox="0 0 131 130" fill="none" xmlns="http://www.w3.org/2000/svg">
<rect x="0.5" width="130" height="130" rx="65" fill="#F5F3FF"/>
<g clip-path="url(#clip0_1172_1400)">
<path d="M76.7385 77.1048L67.9888 68.3405C67.4201 67.7703 66.4967 67.7692 65.9265 68.3379C65.6523 68.6115 65.4982 68.9828 65.498 69.3701V89.8005C65.4985 90.4279 65.9003 90.9847 66.4955 91.183C66.644 91.2331 66.7996 91.2588 66.9564 91.2588C67.4153 91.2588 67.8476 91.0427 68.1229 90.6755L76.8726 79.0093C77.3075 78.4293 77.2503 77.618 76.7385 77.1048Z" fill="#C0B3FF"/>
<path d="M70.3344 73.8359L61.5848 70.9194C60.821 70.664 59.9947 71.0762 59.7393 71.84C59.6392 72.1394 59.639 72.4632 59.7386 72.7627L65.5718 90.262C65.7704 90.8583 66.3286 91.2603 66.9571 91.2594H67.0474C67.7063 91.2184 68.2554 90.7399 68.3861 90.0929L71.3026 75.5101C71.4496 74.7874 71.034 74.0689 70.3344 73.8359Z" fill="#A694FF"/>
<path d="M99.8716 33.2047C99.4069 32.8797 98.7961 32.8536 98.3054 33.1375L42.8911 65.2196C42.1944 65.6236 41.957 66.5159 42.361 67.2126C42.5396 67.5206 42.8246 67.7526 43.1623 67.8649L69.3529 76.597L89.7104 85.3233C90.451 85.6399 91.3079 85.2963 91.6245 84.5558C91.6684 84.4529 91.7004 84.3455 91.7198 84.2354L100.469 34.6541C100.569 34.0959 100.336 33.5304 99.8716 33.2047Z" fill="#6348E9"/>
<path d="M100.225 35.2477C100.695 34.5941 100.547 33.6828 99.8932 33.2122C99.311 32.7932 98.5104 32.8598 98.0055 33.3694L59.9766 73.4778L70.9515 77.2692L100.225 35.2477Z" fill="#A694FF"/>
<path d="M34.0634 87.4542C33.6971 87.4546 33.3442 87.3171 33.0747 87.0692C32.3475 86.4004 31.6319 85.713 30.9281 85.0072C30.3579 84.4377 30.3572 83.514 30.9266 82.9437C31.496 82.3735 32.4198 82.3728 32.99 82.9422C33.6666 83.6188 34.355 84.2809 35.0521 84.9225C35.6449 85.4677 35.6834 86.3903 35.1382 86.9831C34.8616 87.2837 34.4717 87.4546 34.0634 87.4542Z" fill="#6348E9"/>
<path d="M53.9315 97.063C52.5264 97.0585 51.1252 96.9129 49.7492 96.6284C48.9543 96.4985 48.4153 95.7488 48.5453 94.954C48.6751 94.1591 49.4249 93.62 50.2197 93.7501C50.2576 93.7562 50.2953 93.764 50.3325 93.7732C51.5196 94.0182 52.7283 94.1432 53.9402 94.1465H53.949H54.6052C55.3652 94.0739 56.0403 94.6312 56.1129 95.3912C56.1179 95.4438 56.1199 95.4966 56.1189 95.5493C56.1484 96.3538 55.5205 97.0301 54.7161 97.0602H53.9549L53.9315 97.063ZM43.4816 94.2719C43.248 94.2719 43.0181 94.216 42.8107 94.1085C41.3771 93.3584 39.9929 92.5177 38.6662 91.5915C38.02 91.111 37.8857 90.1974 38.3663 89.5511C38.825 88.9343 39.6834 88.7794 40.3287 89.197C41.5505 90.0563 42.8267 90.8357 44.1494 91.5303C44.8645 91.9006 45.1441 92.7806 44.7738 93.4958C44.5232 93.9797 44.0236 94.2835 43.4785 94.2835L43.4816 94.2719Z" fill="#6348E9"/>
<path d="M61.4291 95.5004C60.6237 95.5069 59.9656 94.8594 59.959 94.0541C59.9542 93.4652 60.3041 92.9312 60.8459 92.7005C61.6854 92.3413 62.5008 91.9283 63.287 91.4639C63.9906 91.0719 64.8787 91.3246 65.2706 92.0281C65.6489 92.7072 65.4281 93.5635 64.7686 93.975C63.8742 94.5037 62.9469 94.9743 61.9921 95.3837C61.814 95.4595 61.6227 95.4993 61.4291 95.5004Z" fill="#6348E9"/>
</g>
<defs>
<clipPath id="clip0_1172_1400">
<rect width="70" height="70" fill="white" transform="translate(30.5 30)"/>
</clipPath>
</defs>
</svg>
