<svg width="48" height="48" viewBox="0 0 48 48" fill="none" xmlns="http://www.w3.org/2000/svg">
<rect width="48" height="48" rx="24" fill="#FF4E42"/>
<rect width="48" height="48" rx="24" fill="white" fill-opacity="0.8"/>
<g clip-path="url(#clip0_2218_5820)">
<path d="M17 33.041C14.9778 32.516 13.3056 31.4271 11.9833 29.7744C10.6611 28.1216 10 26.1966 10 23.9993C10 21.8021 10.6611 19.8771 11.9833 18.2243C13.3056 16.5716 14.9778 15.4827 17 14.9577V17.4077C15.6194 17.8743 14.4965 18.7105 13.6312 19.916C12.766 21.1216 12.3333 22.4827 12.3333 23.9993C12.3333 25.516 12.766 26.8771 13.6312 28.0827C14.4965 29.2882 15.6194 30.1243 17 30.591V33.041ZM26.3333 33.3327C23.7472 33.3327 21.5451 32.4237 19.7271 30.6056C17.909 28.7875 17 26.5855 17 23.9993C17 21.4132 17.909 19.2112 19.7271 17.3931C21.5451 15.575 23.7472 14.666 26.3333 14.666C27.6167 14.666 28.8222 14.9091 29.95 15.3952C31.0778 15.8813 32.0694 16.5521 32.925 17.4077L31.2917 19.041C30.65 18.3993 29.9062 17.8987 29.0604 17.5389C28.2146 17.1792 27.3056 16.9993 26.3333 16.9993C24.3889 16.9993 22.7361 17.6799 21.375 19.041C20.0139 20.4021 19.3333 22.0549 19.3333 23.9993C19.3333 25.9438 20.0139 27.5966 21.375 28.9577C22.7361 30.3188 24.3889 30.9993 26.3333 30.9993C27.3056 30.9993 28.2146 30.8195 29.0604 30.4598C29.9062 30.1 30.65 29.5993 31.2917 28.9577L32.925 30.591C32.0694 31.4466 31.0778 32.1174 29.95 32.6035C28.8222 33.0896 27.6167 33.3327 26.3333 33.3327ZM33.3333 28.666L31.7 27.0327L33.5667 25.166H25.1667V22.8327H33.5667L31.7 20.966L33.3333 19.3327L38 23.9993L33.3333 28.666Z" fill="#FF4E42"/>
</g>
<defs>
<clipPath id="clip0_2218_5820">
<rect width="28" height="28" fill="white" transform="translate(10 10)"/>
</clipPath>
</defs>
</svg>
