<svg width="48" height="48" viewBox="0 0 48 48" fill="none" xmlns="http://www.w3.org/2000/svg">
<rect width="48" height="48" rx="24" fill="#E8E3FF"/>
<g clip-path="url(#clip0_2218_5800)">
<path d="M20.5003 14.666C15.3437 14.666 11.167 18.8427 11.167 23.9993C11.167 29.156 15.3437 33.3327 20.5003 33.3327C25.657 33.3327 29.8337 29.156 29.8337 23.9993C29.8337 18.8427 25.657 14.666 20.5003 14.666ZM20.5003 30.9993C16.6387 30.9993 13.5003 27.861 13.5003 23.9993C13.5003 20.1377 16.6387 16.9993 20.5003 16.9993C24.362 16.9993 27.5003 20.1377 27.5003 23.9993C27.5003 27.861 24.362 30.9993 20.5003 30.9993ZM29.8337 14.9693V17.4077C32.552 18.3643 34.5003 20.9543 34.5003 23.9993C34.5003 27.0443 32.552 29.6343 29.8337 30.591V33.0293C33.8587 31.991 36.8337 28.351 36.8337 23.9993C36.8337 19.6477 33.8587 16.0077 29.8337 14.9693Z" fill="#3B2B8C"/>
<path d="M16.0664 18.8672H19.2124C19.3371 18.8672 19.4916 18.8731 19.6758 18.885C19.86 18.891 20.0323 18.9088 20.1927 18.9385C20.9116 19.0514 21.5087 19.2979 21.984 19.6782C22.4652 20.0525 22.8247 20.5248 23.0624 21.0952C23.3 21.6596 23.4188 22.2864 23.4188 22.9756C23.4188 23.9797 23.1782 24.8353 22.697 25.5423C22.2157 26.2434 21.4938 26.7128 20.5313 26.9504C20.2996 27.0098 20.0857 27.0484 19.8897 27.0663C19.6936 27.0841 19.4619 27.093 19.1945 27.093H16.0664V25.3284H19.1411C19.2539 25.3284 19.3817 25.3225 19.5243 25.3106C19.6728 25.2987 19.8124 25.2779 19.9431 25.2482C20.3293 25.1531 20.6353 24.9868 20.8611 24.7491C21.0928 24.5115 21.2592 24.2352 21.3602 23.9203C21.4671 23.6054 21.5206 23.2905 21.5206 22.9756C21.5206 22.6607 21.4671 22.3459 21.3602 22.031C21.2592 21.7161 21.0928 21.4398 20.8611 21.2021C20.6353 20.9645 20.3293 20.8011 19.9431 20.712C19.8124 20.6763 19.6728 20.6526 19.5243 20.6407C19.3817 20.6288 19.2539 20.6229 19.1411 20.6229H16.0664V18.8672ZM16.0664 27.093L18.0627 26.5583L23.8644 31.7005H21.2265L16.0664 27.093ZM16.111 23.7064V22.2538H24.8448V23.7064H16.111ZM18.9985 20.3198V18.8672H24.7913V20.3198H18.9985Z" fill="#3B2B8C"/>
</g>
<defs>
<clipPath id="clip0_2218_5800">
<rect width="28" height="28" fill="white" transform="translate(10 10)"/>
</clipPath>
</defs>
</svg>
