<svg width="53" height="14" viewBox="0 0 53 14" fill="none" xmlns="http://www.w3.org/2000/svg">
<path d="M6.96171 12.6551C7.03701 12.6551 7.09807 12.5941 7.09807 12.5188V3.72285H10.0623C10.1376 3.72285 10.1987 3.66179 10.1987 3.58648V1.27308C10.1987 1.19777 10.1376 1.13672 10.0623 1.13672H1.29066C1.21535 1.13672 1.1543 1.19777 1.1543 1.27308V3.58648C1.1543 3.66179 1.21535 3.72285 1.29066 3.72285H4.23882V12.5188C4.23882 12.5941 4.29989 12.6551 4.37519 12.6551H6.96171ZM12.8543 12.6551C12.9296 12.6551 12.9906 12.5941 12.9906 12.5188V9.53064C12.9906 8.68655 13.1647 8.07547 13.4811 7.67765C13.7931 7.28541 14.2596 7.08048 14.8946 7.08048C15.1921 7.08048 15.3307 7.09586 15.6185 7.12785C15.6571 7.13214 15.6956 7.11981 15.7245 7.09393C15.7534 7.06807 15.7699 7.03112 15.7699 6.99231V4.71105C15.7699 4.64849 15.7274 4.59395 15.6666 4.57875C15.4594 4.52694 15.2867 4.51044 14.991 4.51044C14.1966 4.51044 13.4236 4.90483 12.9906 5.67016V4.77531C12.9906 4.70001 12.9296 4.63895 12.8543 4.63895H10.3963C10.321 4.63895 10.2599 4.70001 10.2599 4.77531V12.5188C10.2599 12.5941 10.321 12.6551 10.3963 12.6551H12.8543ZM16.8739 4.63895C16.7985 4.63895 16.7375 4.70001 16.7375 4.77531V9.56276C16.7375 10.5876 16.9916 11.4158 17.5031 11.989C18.0167 12.5648 18.7725 12.864 19.7335 12.864C20.7518 12.864 21.5152 12.4994 22.0069 11.8715V12.5188C22.0069 12.5941 22.068 12.6551 22.1433 12.6551H24.5852C24.6605 12.6551 24.7215 12.5941 24.7215 12.5188V4.77531C24.7215 4.70001 24.6605 4.63895 24.5852 4.63895H22.1433C22.068 4.63895 22.0069 4.70001 22.0069 4.77531V8.93623C22.0069 9.44175 21.8976 9.83582 21.682 10.1013C21.4704 10.3619 21.1399 10.5188 20.6492 10.5188C20.2136 10.5188 19.9391 10.3855 19.7668 10.1524C19.588 9.91049 19.5003 9.53655 19.5003 9.01655V4.77531C19.5003 4.70001 19.4393 4.63895 19.364 4.63895H16.8739ZM34.169 9.45815C34.2386 9.45815 34.2969 9.40592 34.3046 9.33684C34.3534 8.89914 34.3698 8.65303 34.3698 8.24541C34.3698 7.11705 33.9457 6.15984 33.2047 5.48574C32.4645 4.81259 31.418 4.43009 30.185 4.43009C28.8961 4.43009 27.8153 4.82459 27.056 5.55673C26.296 6.28946 25.8716 7.34737 25.8716 8.64705C25.8716 9.96951 26.2872 11.0285 27.0548 11.7562C27.8214 12.483 28.9229 12.864 30.2652 12.864C32.3562 12.864 33.9999 11.8307 34.2558 10.2106C34.2618 10.1712 34.2506 10.131 34.2247 10.1007C34.1988 10.0704 34.1609 10.0529 34.121 10.0529H31.7112C31.6567 10.0529 31.6076 10.0852 31.586 10.1351C31.4099 10.5416 31.0008 10.7438 30.2652 10.7438C29.7405 10.7438 29.3336 10.6126 29.054 10.3763C28.8053 10.1662 28.6444 9.86186 28.5978 9.45815H34.169ZM39.5513 12.6551C39.6266 12.6551 39.6877 12.5941 39.6877 12.5188V1.27308C39.6877 1.19777 39.6266 1.13672 39.5513 1.13672H36.9487C36.8734 1.13672 36.8123 1.19777 36.8123 1.27308V12.5188C36.8123 12.5941 36.8734 12.6551 36.9487 12.6551H39.5513ZM41.5976 12.5188C41.5976 12.5941 41.6584 12.6551 41.7339 12.6551H45.9751C47.8245 12.6551 49.295 11.9954 50.3028 10.9402C51.3094 9.88605 51.8467 8.44545 51.8467 6.89593C51.8467 5.34613 51.3053 3.90556 50.2968 2.8516C49.2871 1.7965 47.8166 1.13672 45.9751 1.13672H41.7339C41.6584 1.13672 41.5976 1.19777 41.5976 1.27308V12.5188ZM31.6651 7.65921H28.5937C28.6275 7.28047 28.7748 6.97265 29.0107 6.75269C29.2755 6.50587 29.6655 6.35756 30.1689 6.35756C30.6683 6.35756 31.0354 6.48795 31.2795 6.72135C31.4993 6.9316 31.6354 7.24087 31.6651 7.65921ZM45.734 10.1975H44.4727V3.59432H45.734C46.8056 3.59432 47.5902 3.99264 48.1087 4.59703C48.6299 5.20436 48.8911 6.03035 48.8911 6.89593C48.8911 7.76151 48.6299 8.58752 48.1087 9.19483C47.5902 9.79922 46.8056 10.1975 45.734 10.1975Z" fill="url(#paint0_linear_2218_5849)" stroke="url(#paint1_linear_2218_5849)" stroke-width="0.5" stroke-linejoin="round"/>
<path d="M6.96109 12.5191H4.37457V3.58684H1.29004V1.27344H10.0617V3.58684H6.96109V12.5191Z" fill="url(#paint2_linear_2218_5849)"/>
<path d="M12.8535 12.5185H10.3955V4.77499H12.8535V6.39758C13.1266 5.24089 14.0423 4.64648 14.9902 4.64648C15.2793 4.64648 15.44 4.66255 15.6328 4.71074V6.99199C15.3436 6.95987 15.199 6.9438 14.8938 6.9438C13.5603 6.9438 12.8535 7.81135 12.8535 9.53032V12.5185Z" fill="url(#paint3_linear_2218_5849)"/>
<path d="M19.7326 12.7277C17.8691 12.7277 16.873 11.571 16.873 9.56285V4.77539H19.3632V9.01663C19.3632 10.0769 19.7166 10.6553 20.6484 10.6553C21.6926 10.6553 22.1424 9.98056 22.1424 8.93631V4.77539H24.5844V12.5189H22.1424V11.4104C21.7087 12.2297 20.9054 12.7277 19.7326 12.7277Z" fill="url(#paint4_linear_2218_5849)"/>
<path d="M34.2332 8.24536C34.2332 8.64701 34.2171 8.88799 34.1689 9.32173H28.4498C28.4981 10.3339 29.1728 10.8801 30.2651 10.8801C31.0202 10.8801 31.5021 10.6712 31.7111 10.1893H34.1209C33.8798 11.7155 32.3214 12.7276 30.2651 12.7276C27.6304 12.7276 26.0078 11.2335 26.0078 8.64701C26.0078 6.10868 27.6625 4.56641 30.1849 4.56641C32.5947 4.56641 34.2332 6.06049 34.2332 8.24536ZM28.4498 7.79553H31.8073C31.7912 6.76737 31.2131 6.22115 30.1688 6.22115C29.1084 6.22115 28.4659 6.84769 28.4498 7.79553Z" fill="url(#paint5_linear_2218_5849)"/>
<path d="M39.5509 12.5191H36.9482V1.27344H39.5509V12.5191Z" fill="url(#paint6_linear_2218_5849)"/>
<path d="M45.9746 12.5191H41.7334V1.27344H45.9746C49.5893 1.27344 51.7098 3.85996 51.7098 6.89628C51.7098 9.93264 49.6054 12.5191 45.9746 12.5191ZM44.3358 3.45832V10.3343H45.7335C47.9505 10.3343 49.0269 8.67954 49.0269 6.89628C49.0269 5.11303 47.9505 3.45832 45.7335 3.45832H44.3358Z" fill="url(#paint7_linear_2218_5849)"/>
<path d="M6.96109 12.5191H4.37457V3.58684H1.29004V1.27344H10.0617V3.58684H6.96109V12.5191Z" fill="url(#paint8_linear_2218_5849)"/>
<path d="M12.8535 12.5185H10.3955V4.77499H12.8535V6.39758C13.1266 5.24089 14.0423 4.64648 14.9902 4.64648C15.2793 4.64648 15.44 4.66255 15.6328 4.71074V6.99199C15.3436 6.95987 15.199 6.9438 14.8938 6.9438C13.5603 6.9438 12.8535 7.81135 12.8535 9.53032V12.5185Z" fill="url(#paint9_linear_2218_5849)"/>
<path d="M19.7326 12.7277C17.8691 12.7277 16.873 11.571 16.873 9.56285V4.77539H19.3632V9.01663C19.3632 10.0769 19.7166 10.6553 20.6484 10.6553C21.6926 10.6553 22.1424 9.98056 22.1424 8.93631V4.77539H24.5844V12.5189H22.1424V11.4104C21.7087 12.2297 20.9054 12.7277 19.7326 12.7277Z" fill="url(#paint10_linear_2218_5849)"/>
<path d="M34.2332 8.24536C34.2332 8.64701 34.2171 8.88799 34.1689 9.32173H28.4498C28.4981 10.3339 29.1728 10.8801 30.2651 10.8801C31.0202 10.8801 31.5021 10.6712 31.7111 10.1893H34.1209C33.8798 11.7155 32.3214 12.7276 30.2651 12.7276C27.6304 12.7276 26.0078 11.2335 26.0078 8.64701C26.0078 6.10868 27.6625 4.56641 30.1849 4.56641C32.5947 4.56641 34.2332 6.06049 34.2332 8.24536ZM28.4498 7.79553H31.8073C31.7912 6.76737 31.2131 6.22115 30.1688 6.22115C29.1084 6.22115 28.4659 6.84769 28.4498 7.79553Z" fill="url(#paint11_linear_2218_5849)"/>
<path d="M39.5509 12.5191H36.9482V1.27344H39.5509V12.5191Z" fill="url(#paint12_linear_2218_5849)"/>
<path d="M45.9746 12.5191H41.7334V1.27344H45.9746C49.5893 1.27344 51.7098 3.85996 51.7098 6.89628C51.7098 9.93264 49.6054 12.5191 45.9746 12.5191ZM44.3358 3.45832V10.3343H45.7335C47.9505 10.3343 49.0269 8.67954 49.0269 6.89628C49.0269 5.11303 47.9505 3.45832 45.7335 3.45832H44.3358Z" fill="url(#paint13_linear_2218_5849)"/>
<defs>
<linearGradient id="paint0_linear_2218_5849" x1="43.4058" y1="12.7276" x2="43.4058" y2="1.27308" gradientUnits="userSpaceOnUse">
<stop offset="0.0104167" stop-color="#FFF0DA"/>
<stop offset="0.0416667" stop-color="#94641E"/>
<stop offset="0.828125" stop-color="#FFF2DB"/>
<stop offset="0.9375" stop-color="#EAC885"/>
<stop offset="0.979167" stop-color="#FBF5D1"/>
<stop offset="0.9999" stop-color="#BD9A4B"/>
<stop offset="1" stop-color="#ECD8A3"/>
</linearGradient>
<linearGradient id="paint1_linear_2218_5849" x1="26.5005" y1="1.27308" x2="26.5005" y2="12.7276" gradientUnits="userSpaceOnUse">
<stop stop-color="#FCF6D1"/>
<stop offset="0.104167" stop-color="#BD9457"/>
<stop offset="0.25" stop-color="#E3CA89"/>
<stop offset="0.697917" stop-color="#FEE8C8"/>
<stop offset="0.854167" stop-color="#4D3A1A"/>
<stop offset="1" stop-color="#FCF0D1"/>
</linearGradient>
<linearGradient id="paint2_linear_2218_5849" x1="51.7097" y1="7.00071" x2="1.29004" y2="7.00071" gradientUnits="userSpaceOnUse">
<stop stop-color="#8E6218"/>
<stop offset="0.5" stop-color="#F9DDAB"/>
<stop offset="1" stop-color="#9C7228"/>
</linearGradient>
<linearGradient id="paint3_linear_2218_5849" x1="51.7095" y1="7.00004" x2="1.28987" y2="7.00004" gradientUnits="userSpaceOnUse">
<stop stop-color="#8E6218"/>
<stop offset="0.5" stop-color="#F9DDAB"/>
<stop offset="1" stop-color="#9C7228"/>
</linearGradient>
<linearGradient id="paint4_linear_2218_5849" x1="51.7095" y1="7.00044" x2="1.28983" y2="7.00044" gradientUnits="userSpaceOnUse">
<stop stop-color="#8E6218"/>
<stop offset="0.5" stop-color="#F9DDAB"/>
<stop offset="1" stop-color="#9C7228"/>
</linearGradient>
<linearGradient id="paint5_linear_2218_5849" x1="51.7101" y1="7.00031" x2="1.29051" y2="7.00031" gradientUnits="userSpaceOnUse">
<stop stop-color="#8E6218"/>
<stop offset="0.5" stop-color="#F9DDAB"/>
<stop offset="1" stop-color="#9C7228"/>
</linearGradient>
<linearGradient id="paint6_linear_2218_5849" x1="51.7099" y1="7.00071" x2="1.29023" y2="7.00071" gradientUnits="userSpaceOnUse">
<stop stop-color="#8E6218"/>
<stop offset="0.5" stop-color="#F9DDAB"/>
<stop offset="1" stop-color="#9C7228"/>
</linearGradient>
<linearGradient id="paint7_linear_2218_5849" x1="51.7098" y1="7.00071" x2="1.29011" y2="7.00071" gradientUnits="userSpaceOnUse">
<stop stop-color="#8E6218"/>
<stop offset="0.5" stop-color="#F9DDAB"/>
<stop offset="1" stop-color="#9C7228"/>
</linearGradient>
<linearGradient id="paint8_linear_2218_5849" x1="51.7097" y1="7.00071" x2="1.29004" y2="7.00071" gradientUnits="userSpaceOnUse">
<stop stop-color="#8E6218"/>
<stop offset="0.5" stop-color="#F9DDAB"/>
<stop offset="1" stop-color="#9C7228"/>
</linearGradient>
<linearGradient id="paint9_linear_2218_5849" x1="51.7095" y1="7.00004" x2="1.28987" y2="7.00004" gradientUnits="userSpaceOnUse">
<stop stop-color="#8E6218"/>
<stop offset="0.5" stop-color="#F9DDAB"/>
<stop offset="1" stop-color="#9C7228"/>
</linearGradient>
<linearGradient id="paint10_linear_2218_5849" x1="51.7095" y1="7.00044" x2="1.28983" y2="7.00044" gradientUnits="userSpaceOnUse">
<stop stop-color="#8E6218"/>
<stop offset="0.5" stop-color="#F9DDAB"/>
<stop offset="1" stop-color="#9C7228"/>
</linearGradient>
<linearGradient id="paint11_linear_2218_5849" x1="51.7101" y1="7.00031" x2="1.29051" y2="7.00031" gradientUnits="userSpaceOnUse">
<stop stop-color="#8E6218"/>
<stop offset="0.5" stop-color="#F9DDAB"/>
<stop offset="1" stop-color="#9C7228"/>
</linearGradient>
<linearGradient id="paint12_linear_2218_5849" x1="51.7099" y1="7.00071" x2="1.29023" y2="7.00071" gradientUnits="userSpaceOnUse">
<stop stop-color="#8E6218"/>
<stop offset="0.5" stop-color="#F9DDAB"/>
<stop offset="1" stop-color="#9C7228"/>
</linearGradient>
<linearGradient id="paint13_linear_2218_5849" x1="51.7098" y1="7.00071" x2="1.29011" y2="7.00071" gradientUnits="userSpaceOnUse">
<stop stop-color="#8E6218"/>
<stop offset="0.5" stop-color="#F9DDAB"/>
<stop offset="1" stop-color="#9C7228"/>
</linearGradient>
</defs>
</svg>
