<svg width="32" height="32" viewBox="0 0 32 32" fill="none" xmlns="http://www.w3.org/2000/svg">
<path d="M28.0007 5.33301H4.00065C2.52789 5.33301 1.33398 6.52692 1.33398 7.99967V23.9997C1.33398 25.4724 2.52789 26.6663 4.00065 26.6663H28.0007C29.4734 26.6663 30.6673 25.4724 30.6673 23.9997V7.99967C30.6673 6.52692 29.4734 5.33301 28.0007 5.33301Z" stroke="#999999" stroke-linecap="round" stroke-linejoin="round"/>
<path d="M4.33398 9.33301H9.66732" stroke="#999999" stroke-linecap="round" stroke-linejoin="round"/>
<path d="M5.88 16.05V20.48C5.88 21.0067 6.01667 21.4033 6.29 21.67C6.57 21.9367 6.95667 22.07 7.45 22.07C7.95 22.07 8.33667 21.9367 8.61 21.67C8.89 21.4033 9.03 21.0067 9.03 20.48V16.05H10.17V20.46C10.17 21.0267 10.0467 21.5067 9.8 21.9C9.55333 22.2933 9.22333 22.5867 8.81 22.78C8.39667 22.9733 7.94 23.07 7.44 23.07C6.94 23.07 6.48333 22.9733 6.07 22.78C5.66333 22.5867 5.34 22.2933 5.1 21.9C4.86 21.5067 4.74 21.0267 4.74 20.46V16.05H5.88ZM12.7943 16.05V23H11.6543V16.05H12.7943ZM16.561 16.05C17.301 16.05 17.9477 16.1933 18.501 16.48C19.061 16.76 19.491 17.1667 19.791 17.7C20.0977 18.2267 20.251 18.8433 20.251 19.55C20.251 20.2567 20.0977 20.87 19.791 21.39C19.491 21.91 19.061 22.31 18.501 22.59C17.9477 22.8633 17.301 23 16.561 23H14.291V16.05H16.561ZM16.561 22.07C17.3743 22.07 17.9977 21.85 18.431 21.41C18.8643 20.97 19.081 20.35 19.081 19.55C19.081 18.7433 18.8643 18.1133 18.431 17.66C17.9977 17.2067 17.3743 16.98 16.561 16.98H15.431V22.07H16.561Z" fill="#999999"/>
<path d="M12.334 9.33301H26.6673" stroke="#999999" stroke-linecap="round" stroke-linejoin="round"/>
</svg>
