<svg width="48" height="48" viewBox="0 0 48 48" fill="none" xmlns="http://www.w3.org/2000/svg">
<path d="M21.6772 2.66744C22.9048 1.25763 25.0952 1.25763 26.3228 2.66744C27.2436 3.72481 28.7623 4.0269 30.0176 3.40238C31.6913 2.56969 33.7149 3.40789 34.3096 5.1802C34.7557 6.50944 36.0432 7.36971 37.4419 7.27312C39.3069 7.14433 40.8557 8.69311 40.7269 10.5581C40.6303 11.9568 41.4906 13.2443 42.8198 13.6904C44.5921 14.2851 45.4303 16.3087 44.5976 17.9824C43.9731 19.2377 44.2752 20.7564 45.3326 21.6772C46.7424 22.9048 46.7424 25.0952 45.3326 26.3228C44.2752 27.2436 43.9731 28.7623 44.5976 30.0176C45.4303 31.6913 44.5921 33.7149 42.8198 34.3096C41.4906 34.7557 40.6303 36.0432 40.7269 37.4419C40.8557 39.3069 39.3069 40.8557 37.4419 40.7269C36.0432 40.6303 34.7557 41.4906 34.3096 42.8198C33.7149 44.5921 31.6913 45.4303 30.0176 44.5976C28.7623 43.9731 27.2436 44.2752 26.3228 45.3326C25.0952 46.7424 22.9048 46.7424 21.6772 45.3326C20.7564 44.2752 19.2377 43.9731 17.9824 44.5976C16.3087 45.4303 14.2851 44.5921 13.6904 42.8198C13.2443 41.4906 11.9568 40.6303 10.5581 40.7269C8.69311 40.8557 7.14433 39.3069 7.27312 37.4419C7.36971 36.0432 6.50944 34.7557 5.1802 34.3096C3.40789 33.7149 2.56969 31.6913 3.40238 30.0176C4.0269 28.7623 3.72481 27.2436 2.66744 26.3228C1.25763 25.0952 1.25763 22.9048 2.66744 21.6772C3.72481 20.7564 4.0269 19.2377 3.40238 17.9824C2.56969 16.3087 3.40789 14.2851 5.1802 13.6904C6.50944 13.2443 7.36971 11.9568 7.27312 10.5581C7.14433 8.69311 8.69311 7.14433 10.5581 7.27312C11.9568 7.36971 13.2443 6.50944 13.6904 5.1802C14.2851 3.40789 16.3087 2.56969 17.9824 3.40238C19.2377 4.0269 20.7564 3.72481 21.6772 2.66744Z" fill="#2EC068"/>
<path d="M21.6772 2.66744C22.9048 1.25763 25.0952 1.25763 26.3228 2.66744C27.2436 3.72481 28.7623 4.0269 30.0176 3.40238C31.6913 2.56969 33.7149 3.40789 34.3096 5.1802C34.7557 6.50944 36.0432 7.36971 37.4419 7.27312C39.3069 7.14433 40.8557 8.69311 40.7269 10.5581C40.6303 11.9568 41.4906 13.2443 42.8198 13.6904C44.5921 14.2851 45.4303 16.3087 44.5976 17.9824C43.9731 19.2377 44.2752 20.7564 45.3326 21.6772C46.7424 22.9048 46.7424 25.0952 45.3326 26.3228C44.2752 27.2436 43.9731 28.7623 44.5976 30.0176C45.4303 31.6913 44.5921 33.7149 42.8198 34.3096C41.4906 34.7557 40.6303 36.0432 40.7269 37.4419C40.8557 39.3069 39.3069 40.8557 37.4419 40.7269C36.0432 40.6303 34.7557 41.4906 34.3096 42.8198C33.7149 44.5921 31.6913 45.4303 30.0176 44.5976C28.7623 43.9731 27.2436 44.2752 26.3228 45.3326C25.0952 46.7424 22.9048 46.7424 21.6772 45.3326C20.7564 44.2752 19.2377 43.9731 17.9824 44.5976C16.3087 45.4303 14.2851 44.5921 13.6904 42.8198C13.2443 41.4906 11.9568 40.6303 10.5581 40.7269C8.69311 40.8557 7.14433 39.3069 7.27312 37.4419C7.36971 36.0432 6.50944 34.7557 5.1802 34.3096C3.40789 33.7149 2.56969 31.6913 3.40238 30.0176C4.0269 28.7623 3.72481 27.2436 2.66744 26.3228C1.25763 25.0952 1.25763 22.9048 2.66744 21.6772C3.72481 20.7564 4.0269 19.2377 3.40238 17.9824C2.56969 16.3087 3.40789 14.2851 5.1802 13.6904C6.50944 13.2443 7.36971 11.9568 7.27312 10.5581C7.14433 8.69311 8.69311 7.14433 10.5581 7.27312C11.9568 7.36971 13.2443 6.50944 13.6904 5.1802C14.2851 3.40789 16.3087 2.56969 17.9824 3.40238C19.2377 4.0269 20.7564 3.72481 21.6772 2.66744Z" fill="white" fill-opacity="0.6"/>
<path d="M8.14646 19.2061C8.08691 19.3636 7.9942 19.4929 7.86835 19.5939C7.7412 19.6944 7.5979 19.7591 7.43848 19.7879C7.27954 19.8154 7.12149 19.7993 6.96431 19.7396C6.80584 19.6795 6.67682 19.5866 6.57725 19.461C6.47689 19.3336 6.41299 19.1903 6.38557 19.0311C6.35684 18.8714 6.37226 18.7128 6.43181 18.5553C6.49185 18.3966 6.5852 18.2676 6.71186 18.1683C6.83772 18.0673 6.98011 18.003 7.13905 17.9755C7.29718 17.9463 7.45548 17.9617 7.61395 18.0219C7.77113 18.0815 7.8999 18.175 8.00027 18.3024C8.10113 18.4285 8.16592 18.5714 8.19465 18.7311C8.22256 18.889 8.2065 19.0474 8.14646 19.2061Z" fill="#2EC068"/>
<path d="M8.14646 19.2061C8.08691 19.3636 7.9942 19.4929 7.86835 19.5939C7.7412 19.6944 7.5979 19.7591 7.43848 19.7879C7.27954 19.8154 7.12149 19.7993 6.96431 19.7396C6.80584 19.6795 6.67682 19.5866 6.57725 19.461C6.47689 19.3336 6.41299 19.1903 6.38557 19.0311C6.35684 18.8714 6.37226 18.7128 6.43181 18.5553C6.49185 18.3966 6.5852 18.2676 6.71186 18.1683C6.83772 18.0673 6.98011 18.003 7.13905 17.9755C7.29718 17.9463 7.45548 17.9617 7.61395 18.0219C7.77113 18.0815 7.8999 18.175 8.00027 18.3024C8.10113 18.4285 8.16592 18.5714 8.19465 18.7311C8.22256 18.889 8.2065 19.0474 8.14646 19.2061Z" fill="black" fill-opacity="0.6"/>
<path d="M11.9416 10.3264C11.8453 10.2255 11.7365 10.1742 11.6152 10.1727C11.495 10.1702 11.3621 10.2283 11.2167 10.3469C11.1241 10.4225 11.0573 10.4958 11.0165 10.5668C10.9759 10.6358 10.9569 10.7006 10.9596 10.7612C10.9623 10.8218 10.9828 10.8769 11.0212 10.9263C11.0515 10.968 11.0879 10.9984 11.1304 11.0176C11.173 11.0349 11.2232 11.0415 11.2809 11.0375C11.3377 11.0325 11.403 11.0169 11.4767 10.9908C11.5505 10.9648 11.6332 10.9278 11.725 10.8798L12.0439 10.7167C12.2586 10.6062 12.4569 10.5296 12.639 10.487C12.8211 10.4443 12.9887 10.4323 13.1418 10.451C13.2941 10.4686 13.433 10.515 13.5586 10.5902C13.6853 10.6645 13.8004 10.7644 13.9041 10.8898C14.0802 11.1087 14.1758 11.3376 14.1909 11.5765C14.2059 11.8154 14.1453 12.056 14.0089 12.2982C13.8737 12.5395 13.666 12.7744 13.3859 13.0028C13.0983 13.2374 12.8127 13.3995 12.529 13.4891C12.2465 13.5778 11.974 13.582 11.7117 13.5017C11.4496 13.4194 11.2053 13.24 10.9788 12.9635L11.8319 12.2677C11.9198 12.3647 12.0144 12.4293 12.1157 12.4615C12.2171 12.4937 12.3232 12.4942 12.434 12.463C12.5459 12.431 12.6589 12.3684 12.7731 12.2752C12.869 12.1971 12.9396 12.1197 12.9849 12.0433C13.0303 11.9668 13.0525 11.8939 13.0517 11.8246C13.0509 11.7553 13.0291 11.6932 12.9864 11.6384C12.9441 11.5885 12.8914 11.5579 12.8284 11.5465C12.7656 11.5331 12.6858 11.5407 12.5891 11.5694C12.4915 11.597 12.3703 11.6473 12.2256 11.7205L11.8381 11.9182C11.4933 12.0935 11.1759 12.1756 10.8857 12.1647C10.5958 12.1517 10.3461 12.0153 10.1367 11.7554C9.96457 11.5459 9.87106 11.3162 9.85612 11.0664C9.84138 10.8146 9.89877 10.5623 10.0283 10.3095C10.1589 10.0559 10.3551 9.82229 10.6168 9.60879C10.884 9.3909 11.1514 9.24722 11.4192 9.17776C11.687 9.10831 11.9399 9.112 12.1779 9.18885C12.4161 9.26374 12.6238 9.4092 12.8012 9.62523L11.9416 10.3264Z" fill="#2EC068"/>
<path d="M11.9416 10.3264C11.8453 10.2255 11.7365 10.1742 11.6152 10.1727C11.495 10.1702 11.3621 10.2283 11.2167 10.3469C11.1241 10.4225 11.0573 10.4958 11.0165 10.5668C10.9759 10.6358 10.9569 10.7006 10.9596 10.7612C10.9623 10.8218 10.9828 10.8769 11.0212 10.9263C11.0515 10.968 11.0879 10.9984 11.1304 11.0176C11.173 11.0349 11.2232 11.0415 11.2809 11.0375C11.3377 11.0325 11.403 11.0169 11.4767 10.9908C11.5505 10.9648 11.6332 10.9278 11.725 10.8798L12.0439 10.7167C12.2586 10.6062 12.4569 10.5296 12.639 10.487C12.8211 10.4443 12.9887 10.4323 13.1418 10.451C13.2941 10.4686 13.433 10.515 13.5586 10.5902C13.6853 10.6645 13.8004 10.7644 13.9041 10.8898C14.0802 11.1087 14.1758 11.3376 14.1909 11.5765C14.2059 11.8154 14.1453 12.056 14.0089 12.2982C13.8737 12.5395 13.666 12.7744 13.3859 13.0028C13.0983 13.2374 12.8127 13.3995 12.529 13.4891C12.2465 13.5778 11.974 13.582 11.7117 13.5017C11.4496 13.4194 11.2053 13.24 10.9788 12.9635L11.8319 12.2677C11.9198 12.3647 12.0144 12.4293 12.1157 12.4615C12.2171 12.4937 12.3232 12.4942 12.434 12.463C12.5459 12.431 12.6589 12.3684 12.7731 12.2752C12.869 12.1971 12.9396 12.1197 12.9849 12.0433C13.0303 11.9668 13.0525 11.8939 13.0517 11.8246C13.0509 11.7553 13.0291 11.6932 12.9864 11.6384C12.9441 11.5885 12.8914 11.5579 12.8284 11.5465C12.7656 11.5331 12.6858 11.5407 12.5891 11.5694C12.4915 11.597 12.3703 11.6473 12.2256 11.7205L11.8381 11.9182C11.4933 12.0935 11.1759 12.1756 10.8857 12.1647C10.5958 12.1517 10.3461 12.0153 10.1367 11.7554C9.96457 11.5459 9.87106 11.3162 9.85612 11.0664C9.84138 10.8146 9.89877 10.5623 10.0283 10.3095C10.1589 10.0559 10.3551 9.82229 10.6168 9.60879C10.884 9.3909 11.1514 9.24722 11.4192 9.17776C11.687 9.10831 11.9399 9.112 12.1779 9.18885C12.4161 9.26374 12.6238 9.4092 12.8012 9.62523L11.9416 10.3264Z" fill="black" fill-opacity="0.6"/>
<path d="M16.9115 10.5848L15.7447 11.0347L15.5264 6.53822L17.0043 5.96837L19.8517 9.45114L18.6849 9.90102L16.703 7.34601L16.6719 7.358L16.9115 10.5848ZM16.0889 9.09478L18.2824 8.249L18.5938 9.0594L16.4003 9.90518L16.0889 9.09478Z" fill="#2EC068"/>
<path d="M16.9115 10.5848L15.7447 11.0347L15.5264 6.53822L17.0043 5.96837L19.8517 9.45114L18.6849 9.90102L16.703 7.34601L16.6719 7.358L16.9115 10.5848ZM16.0889 9.09478L18.2824 8.249L18.5938 9.0594L16.4003 9.90518L16.0889 9.09478Z" fill="black" fill-opacity="0.6"/>
<path d="M21.8455 9.16602L20.5973 9.23555L21.7667 4.88885L23.3478 4.80078L24.9911 8.9908L23.7428 9.06033L22.6392 6.01936L22.6059 6.02121L21.8455 9.16602ZM21.519 7.495L23.8657 7.36428L23.9139 8.23129L21.5672 8.36201L21.519 7.495Z" fill="#2EC068"/>
<path d="M21.8455 9.16602L20.5973 9.23555L21.7667 4.88885L23.3478 4.80078L24.9911 8.9908L23.7428 9.06033L22.6392 6.01936L22.6059 6.02121L21.8455 9.16602ZM21.519 7.495L23.8657 7.36428L23.9139 8.23129L21.5672 8.36201L21.519 7.495Z" fill="black" fill-opacity="0.6"/>
<path d="M26.2693 5.75865L26.4996 4.85242L30.0938 5.76915L29.8635 6.67539L28.6197 6.35814L27.7971 9.59469L26.6906 9.31246L27.5131 6.07591L26.2693 5.75865Z" fill="#2EC068"/>
<path d="M26.2693 5.75865L26.4996 4.85242L30.0938 5.76915L29.8635 6.67539L28.6197 6.35814L27.7971 9.59469L26.6906 9.31246L27.5131 6.07591L26.2693 5.75865Z" fill="black" fill-opacity="0.6"/>
<path d="M30.3442 10.3002L32.6484 6.70203L33.6235 7.32869L32.7234 8.73424L34.0142 9.56378L34.9142 8.15824L35.8893 8.78491L33.5852 12.3831L32.6101 11.7564L33.5101 10.3509L32.2194 9.52134L31.3193 10.9269L30.3442 10.3002Z" fill="#2EC068"/>
<path d="M30.3442 10.3002L32.6484 6.70203L33.6235 7.32869L32.7234 8.73424L34.0142 9.56378L34.9142 8.15824L35.8893 8.78491L33.5852 12.3831L32.6101 11.7564L33.5101 10.3509L32.2194 9.52134L31.3193 10.9269L30.3442 10.3002Z" fill="black" fill-opacity="0.6"/>
<path d="M38.6605 11.3581L35.4641 14.1904L34.6966 13.321L37.893 10.4888L38.6605 11.3581Z" fill="#2EC068"/>
<path d="M38.6605 11.3581L35.4641 14.1904L34.6966 13.321L37.893 10.4888L38.6605 11.3581Z" fill="black" fill-opacity="0.6"/>
<path d="M39.9769 18.738C39.9373 18.5744 39.9409 18.4153 39.9878 18.2607C40.036 18.1058 40.1178 17.9713 40.2331 17.8574C40.3488 17.7448 40.4883 17.6686 40.6517 17.6289C40.8163 17.5889 40.9752 17.5925 41.1281 17.6398C41.2828 17.6882 41.4163 17.7703 41.5287 17.8861C41.6424 18.0017 41.7191 18.1413 41.7588 18.3049C41.7987 18.4699 41.7944 18.6292 41.7459 18.7827C41.699 18.9373 41.6177 19.0709 41.502 19.1835C41.388 19.2972 41.2487 19.374 41.084 19.414C40.9207 19.4537 40.7617 19.4494 40.607 19.4011C40.4527 19.3541 40.3187 19.2729 40.2049 19.1573C40.0929 19.0428 40.0168 18.903 39.9769 18.738Z" fill="#2EC068"/>
<path d="M39.9769 18.738C39.9373 18.5744 39.9409 18.4153 39.9878 18.2607C40.036 18.1058 40.1178 17.9713 40.2331 17.8574C40.3488 17.7448 40.4883 17.6686 40.6517 17.6289C40.8163 17.5889 40.9752 17.5925 41.1281 17.6398C41.2828 17.6882 41.4163 17.7703 41.5287 17.8861C41.6424 18.0017 41.7191 18.1413 41.7588 18.3049C41.7987 18.4699 41.7944 18.6292 41.7459 18.7827C41.699 18.9373 41.6177 19.0709 41.502 19.1835C41.388 19.2972 41.2487 19.374 41.084 19.414C40.9207 19.4537 40.7617 19.4494 40.607 19.4011C40.4527 19.3541 40.3187 19.2729 40.2049 19.1573C40.0929 19.0428 40.0168 18.903 39.9769 18.738Z" fill="black" fill-opacity="0.6"/>
<path d="M8.88433 26.8072L6.4619 28.7983L6.47501 28.829L9.58555 28.4501L10.1 29.6554L5.62258 30.0386L5 28.58L8.36988 25.6018L8.88433 26.8072Z" fill="#2EC068"/>
<path d="M8.88433 26.8072L6.4619 28.7983L6.47501 28.829L9.58555 28.4501L10.1 29.6554L5.62258 30.0386L5 28.58L8.36988 25.6018L8.88433 26.8072Z" fill="black" fill-opacity="0.6"/>
<path d="M7.81571 34.7506L10.7864 31.6817L12.9942 33.8265L12.3444 34.4979L10.9682 33.161L10.4577 33.6884L11.7201 34.9149L11.0703 35.5862L9.80781 34.3598L9.29722 34.8873L10.6674 36.2183L10.0175 36.8897L7.81571 34.7506Z" fill="#2EC068"/>
<path d="M7.81571 34.7506L10.7864 31.6817L12.9942 33.8265L12.3444 34.4979L10.9682 33.161L10.4577 33.6884L11.7201 34.9149L11.0703 35.5862L9.80781 34.3598L9.29722 34.8873L10.6674 36.2183L10.0175 36.8897L7.81571 34.7506Z" fill="black" fill-opacity="0.6"/>
<path d="M13.3832 40.0145L14.9543 36.0399L16.6669 36.7192C16.9613 36.836 17.1978 36.9919 17.3762 37.1869C17.5546 37.3819 17.6652 37.6047 17.7081 37.8552C17.751 38.1057 17.7168 38.372 17.6053 38.654C17.4928 38.9387 17.3346 39.1536 17.1308 39.2987C16.9283 39.4444 16.6937 39.522 16.427 39.5314C16.1616 39.5414 15.8778 39.4864 15.5756 39.3666L14.5527 38.9608L14.8841 38.1224L15.69 38.4421C15.8166 38.4923 15.9306 38.5195 16.032 38.5238C16.1352 38.5274 16.2245 38.5037 16.2999 38.4527C16.3766 38.4023 16.4372 38.3209 16.4817 38.2083C16.5267 38.0944 16.5387 37.9922 16.5177 37.9016C16.4986 37.8102 16.4505 37.7297 16.3733 37.6602C16.298 37.5899 16.1971 37.5297 16.0705 37.4795L15.6908 37.3288L14.4604 40.4418L13.3832 40.0145ZM16.4291 39.1124L16.6999 41.3302L15.5298 40.866L15.2822 38.6575L16.4291 39.1124Z" fill="#2EC068"/>
<path d="M13.3832 40.0145L14.9543 36.0399L16.6669 36.7192C16.9613 36.836 17.1978 36.9919 17.3762 37.1869C17.5546 37.3819 17.6652 37.6047 17.7081 37.8552C17.751 38.1057 17.7168 38.372 17.6053 38.654C17.4928 38.9387 17.3346 39.1536 17.1308 39.2987C16.9283 39.4444 16.6937 39.522 16.427 39.5314C16.1616 39.5414 15.8778 39.4864 15.5756 39.3666L14.5527 38.9608L14.8841 38.1224L15.69 38.4421C15.8166 38.4923 15.9306 38.5195 16.032 38.5238C16.1352 38.5274 16.2245 38.5037 16.2999 38.4527C16.3766 38.4023 16.4372 38.3209 16.4817 38.2083C16.5267 38.0944 16.5387 37.9922 16.5177 37.9016C16.4986 37.8102 16.4505 37.7297 16.3733 37.6602C16.298 37.5899 16.1971 37.5297 16.0705 37.4795L15.6908 37.3288L14.4604 40.4418L13.3832 40.0145ZM16.4291 39.1124L16.6999 41.3302L15.5298 40.866L15.2822 38.6575L16.4291 39.1124Z" fill="black" fill-opacity="0.6"/>
<path d="M21.9972 38.4018L21.9067 42.6758L20.7485 42.6512L20.839 38.3772L21.9972 38.4018Z" fill="#2EC068"/>
<path d="M21.9972 38.4018L21.9067 42.6758L20.7485 42.6512L20.839 38.3772L21.9972 38.4018Z" fill="black" fill-opacity="0.6"/>
<path d="M26.9325 42.8008L25.5547 38.7548L28.3945 37.7843L28.6959 38.6694L26.9526 39.2651L27.1894 39.9605L28.7591 39.4241L29.0605 40.3092L27.4908 40.8456L28.0289 42.4261L26.9325 42.8008Z" fill="#2EC068"/>
<path d="M26.9325 42.8008L25.5547 38.7548L28.3945 37.7843L28.6959 38.6694L26.9526 39.2651L27.1894 39.9605L28.7591 39.4241L29.0605 40.3092L27.4908 40.8456L28.0289 42.4261L26.9325 42.8008Z" fill="black" fill-opacity="0.6"/>
<path d="M32.2393 36.0785L34.916 39.4079L34.0138 40.1359L31.337 36.8065L32.2393 36.0785Z" fill="#2EC068"/>
<path d="M32.2393 36.0785L34.916 39.4079L34.0138 40.1359L31.337 36.8065L32.2393 36.0785Z" fill="black" fill-opacity="0.6"/>
<path d="M38.8439 36.2645L35.1919 34.0533L36.7826 31.4165L37.5815 31.9002L36.59 33.5437L37.2177 33.9238L38.1273 32.416L38.9262 32.8997L38.0166 34.4075L38.6443 34.7875L39.6315 33.1511L40.4304 33.6349L38.8439 36.2645Z" fill="#2EC068"/>
<path d="M38.8439 36.2645L35.1919 34.0533L36.7826 31.4165L37.5815 31.9002L36.59 33.5437L37.2177 33.9238L38.1273 32.416L38.9262 32.8997L38.0166 34.4075L38.6443 34.7875L39.6315 33.1511L40.4304 33.6349L38.8439 36.2645Z" fill="black" fill-opacity="0.6"/>
<path d="M42.9699 28.0258L42.7399 29.6545L38.5147 29.0556L38.7424 27.4435C38.8039 27.0081 38.9416 26.6439 39.1556 26.351C39.3683 26.0565 39.645 25.8455 39.9857 25.7181C40.3252 25.5892 40.715 25.5559 41.1551 25.6183C41.5952 25.6806 41.9613 25.8204 42.2533 26.0375C42.5439 26.2543 42.7516 26.5325 42.8762 26.872C42.9994 27.2114 43.0307 27.596 42.9699 28.0258ZM41.9284 28.3673L41.9903 27.9292C42.0199 27.7197 42.0114 27.5365 41.9648 27.3795C41.9185 27.2212 41.8182 27.0917 41.6641 26.9911C41.5101 26.8892 41.286 26.8174 40.9916 26.7757C40.6973 26.7339 40.462 26.7413 40.2856 26.7979C40.1095 26.853 39.9769 26.9523 39.8879 27.0957C39.7991 27.2377 39.7392 27.4189 39.708 27.6394L39.6508 28.0445L41.9284 28.3673Z" fill="#2EC068"/>
<path d="M42.9699 28.0258L42.7399 29.6545L38.5147 29.0556L38.7424 27.4435C38.8039 27.0081 38.9416 26.6439 39.1556 26.351C39.3683 26.0565 39.645 25.8455 39.9857 25.7181C40.3252 25.5892 40.715 25.5559 41.1551 25.6183C41.5952 25.6806 41.9613 25.8204 42.2533 26.0375C42.5439 26.2543 42.7516 26.5325 42.8762 26.872C42.9994 27.2114 43.0307 27.596 42.9699 28.0258ZM41.9284 28.3673L41.9903 27.9292C42.0199 27.7197 42.0114 27.5365 41.9648 27.3795C41.9185 27.2212 41.8182 27.0917 41.6641 26.9911C41.5101 26.8892 41.286 26.8174 40.9916 26.7757C40.6973 26.7339 40.462 26.7413 40.2856 26.7979C40.1095 26.853 39.9769 26.9523 39.8879 27.0957C39.7991 27.2377 39.7392 27.4189 39.708 27.6394L39.6508 28.0445L41.9284 28.3673Z" fill="black" fill-opacity="0.6"/>
<path d="M24.2307 11.4922L26.8321 14.5065L30.5921 13.1967L31.3379 17.1079L35.249 17.8536L33.9393 21.6137L36.9536 24.2151L33.9393 26.8165L35.249 30.5765L31.3379 31.3223L30.5921 35.2334L26.8321 33.9237L24.2307 36.938L21.6293 33.9237L17.8693 35.2334L17.1235 31.3223L13.2124 30.5765L14.5221 26.8165L11.5078 24.2151L14.5221 21.6137L13.2124 17.8536L17.1235 17.1079L17.8693 13.1967L21.6293 14.5065L24.2307 11.4922Z" fill="#2EC068"/>
<path d="M24.2307 11.4922L26.8321 14.5065L30.5921 13.1967L31.3379 17.1079L35.249 17.8536L33.9393 21.6137L36.9536 24.2151L33.9393 26.8165L35.249 30.5765L31.3379 31.3223L30.5921 35.2334L26.8321 33.9237L24.2307 36.938L21.6293 33.9237L17.8693 35.2334L17.1235 31.3223L13.2124 30.5765L14.5221 26.8165L11.5078 24.2151L14.5221 21.6137L13.2124 17.8536L17.1235 17.1079L17.8693 13.1967L21.6293 14.5065L24.2307 11.4922Z" fill="black" fill-opacity="0.6"/>
<path d="M22.5697 25.6101L20.3462 23.377L18.9277 24.805L22.5697 28.4565L29.6044 21.4026L28.186 19.9746L22.5697 25.6101Z" fill="#2EC068"/>
<path d="M22.5697 25.6101L20.3462 23.377L18.9277 24.805L22.5697 28.4565L29.6044 21.4026L28.186 19.9746L22.5697 25.6101Z" fill="white" fill-opacity="0.6"/>
</svg>
