<svg width="32" height="32" viewBox="0 0 32 32" fill="none" xmlns="http://www.w3.org/2000/svg">
<path d="M16 0L19.2715 3.7907L24 2.14359L24.9378 7.06217L29.8564 8L28.2093 12.7285L32 16L28.2093 19.2715L29.8564 24L24.9378 24.9378L24 29.8564L19.2715 28.2093L16 32L12.7285 28.2093L8 29.8564L7.06217 24.9378L2.14359 24L3.7907 19.2715L0 16L3.7907 12.7285L2.14359 8L7.06217 7.06217L8 2.14359L12.7285 3.7907L16 0Z" fill="#2EC068"/>
<path d="M16 0L19.2715 3.7907L24 2.14359L24.9378 7.06217L29.8564 8L28.2093 12.7285L32 16L28.2093 19.2715L29.8564 24L24.9378 24.9378L24 29.8564L19.2715 28.2093L16 32L12.7285 28.2093L8 29.8564L7.06217 24.9378L2.14359 24L3.7907 19.2715L0 16L3.7907 12.7285L2.14359 8L7.06217 7.06217L8 2.14359L12.7285 3.7907L16 0Z" fill="black" fill-opacity="0.6"/>
<path d="M13.9134 17.7555L11.1171 14.9472L9.33331 16.743L13.9134 21.3351L22.7601 12.4643L20.9763 10.6685L13.9134 17.7555Z" fill="#2EC068"/>
<path d="M13.9134 17.7555L11.1171 14.9472L9.33331 16.743L13.9134 21.3351L22.7601 12.4643L20.9763 10.6685L13.9134 17.7555Z" fill="white" fill-opacity="0.6"/>
</svg>
