<svg width="80" height="80" viewBox="0 0 80 80" fill="none" xmlns="http://www.w3.org/2000/svg">
<rect width="80" height="80" rx="40" fill="#4A35A3"/>
<g clip-path="url(#clip0_749_41896)">
<path d="M33.5007 43.7913C28.4307 43.7913 18.334 46.3263 18.334 51.3747V55.1663H48.6673V51.3747C48.6673 46.3263 38.5707 43.7913 33.5007 43.7913ZM23.404 50.833C25.224 49.5763 29.6223 48.1247 33.5007 48.1247C37.379 48.1247 41.7773 49.5763 43.5973 50.833H23.404ZM33.5007 39.9997C37.6823 39.9997 41.084 36.598 41.084 32.4163C41.084 28.2347 37.6823 24.833 33.5007 24.833C29.319 24.833 25.9173 28.2347 25.9173 32.4163C25.9173 36.598 29.319 39.9997 33.5007 39.9997ZM33.5007 29.1663C35.299 29.1663 36.7507 30.618 36.7507 32.4163C36.7507 34.2147 35.299 35.6663 33.5007 35.6663C31.7023 35.6663 30.2507 34.2147 30.2507 32.4163C30.2507 30.618 31.7023 29.1663 33.5007 29.1663ZM48.754 43.9213C51.2673 45.7413 53.0006 48.168 53.0006 51.3747V55.1663H61.6673V51.3747C61.6673 46.998 54.084 44.5063 48.754 43.9213ZM46.5006 39.9997C50.6823 39.9997 54.084 36.598 54.084 32.4163C54.084 28.2347 50.6823 24.833 46.5006 24.833C45.3306 24.833 44.2473 25.1147 43.2506 25.5913C44.6156 27.5197 45.4173 29.8813 45.4173 32.4163C45.4173 34.9513 44.6156 37.313 43.2506 39.2413C44.2473 39.718 45.3306 39.9997 46.5006 39.9997Z" fill="#C3B8EF"/>
</g>
<rect x="49" y="1" width="30" height="30" rx="15" fill="#4A35A3"/>
<rect x="49" y="1" width="30" height="30" rx="15" stroke="#15006F" stroke-width="2"/>
<path d="M59.1356 15.268C59.1356 13.192 59.5076 11.566 60.2516 10.39C61.0076 9.214 62.2556 8.626 63.9956 8.626C65.7356 8.626 66.9776 9.214 67.7216 10.39C68.4776 11.566 68.8556 13.192 68.8556 15.268C68.8556 17.356 68.4776 18.994 67.7216 20.182C66.9776 21.37 65.7356 21.964 63.9956 21.964C62.2556 21.964 61.0076 21.37 60.2516 20.182C59.5076 18.994 59.1356 17.356 59.1356 15.268ZM66.3716 15.268C66.3716 14.38 66.3116 13.636 66.1916 13.036C66.0836 12.424 65.8556 11.926 65.5076 11.542C65.1716 11.158 64.6676 10.966 63.9956 10.966C63.3236 10.966 62.8136 11.158 62.4656 11.542C62.1296 11.926 61.9016 12.424 61.7816 13.036C61.6736 13.636 61.6196 14.38 61.6196 15.268C61.6196 16.18 61.6736 16.948 61.7816 17.572C61.8896 18.184 62.1176 18.682 62.4656 19.066C62.8136 19.438 63.3236 19.624 63.9956 19.624C64.6676 19.624 65.1776 19.438 65.5256 19.066C65.8736 18.682 66.1016 18.184 66.2096 17.572C66.3176 16.948 66.3716 16.18 66.3716 15.268Z" fill="#C3B8EF"/>
<defs>
<clipPath id="clip0_749_41896">
<rect width="52" height="52" fill="white" transform="translate(14 14)"/>
</clipPath>
</defs>
</svg>
