<svg width="92" height="92" viewBox="0 0 92 92" fill="none" xmlns="http://www.w3.org/2000/svg">
<rect width="92" height="92" rx="46" fill="url(#paint0_linear_6238_1852)"/>
<path d="M55.7338 34.248H41.4778V41.772C42.0938 41.0093 42.9738 40.3933 44.1178 39.924C45.2618 39.4253 46.4791 39.176 47.7698 39.176C50.1165 39.176 52.0378 39.6893 53.5338 40.716C55.0298 41.7427 56.1151 43.0627 56.7898 44.676C57.4645 46.26 57.8018 47.9613 57.8018 49.78C57.8018 53.1533 56.8338 55.8667 54.8978 57.92C52.9911 59.9733 50.2631 61 46.7138 61C43.3698 61 40.7005 60.164 38.7058 58.492C36.7111 56.82 35.5818 54.6347 35.3178 51.936H41.3018C41.5658 53.1093 42.1525 54.048 43.0618 54.752C44.0005 55.456 45.1885 55.808 46.6258 55.808C48.3565 55.808 49.6618 55.2653 50.5418 54.18C51.4218 53.0947 51.8618 51.6573 51.8618 49.868C51.8618 48.0493 51.4071 46.6707 50.4978 45.732C49.6178 44.764 48.3125 44.28 46.5818 44.28C45.3498 44.28 44.3231 44.588 43.5018 45.204C42.6805 45.82 42.0938 46.6413 41.7418 47.668H35.8458V28.836H55.7338V34.248Z" fill="url(#paint1_linear_6238_1852)"/>
<defs>
<linearGradient id="paint0_linear_6238_1852" x1="0" y1="0" x2="92.4805" y2="0.485615" gradientUnits="userSpaceOnUse">
<stop stop-color="#E3BDFF"/>
<stop offset="1" stop-color="#9FDFFF"/>
</linearGradient>
<linearGradient id="paint1_linear_6238_1852" x1="31.5" y1="32" x2="60.6514" y2="32.1585" gradientUnits="userSpaceOnUse">
<stop stop-color="#24008C"/>
<stop offset="1" stop-color="#4C00AD"/>
</linearGradient>
</defs>
</svg>
