<svg width="92" height="92" viewBox="0 0 92 92" fill="none" xmlns="http://www.w3.org/2000/svg">
<rect x="1" y="1" width="90" height="90" rx="45" fill="url(#paint0_linear_6238_1859)"/>
<rect x="1" y="1" width="90" height="90" rx="45" stroke="url(#paint1_linear_6238_1859)" stroke-width="2"/>
<path d="M12.7429 40.1V37.004H18.5269V54.5H15.0709V40.1H12.7429ZM19.8462 45.524C19.8462 42.756 20.3422 40.588 21.3342 39.02C22.3422 37.452 24.0062 36.668 26.3262 36.668C28.6462 36.668 30.3022 37.452 31.2942 39.02C32.3022 40.588 32.8062 42.756 32.8062 45.524C32.8062 48.308 32.3022 50.492 31.2942 52.076C30.3022 53.66 28.6462 54.452 26.3262 54.452C24.0062 54.452 22.3422 53.66 21.3342 52.076C20.3422 50.492 19.8462 48.308 19.8462 45.524ZM29.4942 45.524C29.4942 44.34 29.4142 43.348 29.2542 42.548C29.1102 41.732 28.8062 41.068 28.3422 40.556C27.8942 40.044 27.2222 39.788 26.3262 39.788C25.4302 39.788 24.7502 40.044 24.2862 40.556C23.8382 41.068 23.5342 41.732 23.3742 42.548C23.2302 43.348 23.1582 44.34 23.1582 45.524C23.1582 46.74 23.2302 47.764 23.3742 48.596C23.5182 49.412 23.8222 50.076 24.2862 50.588C24.7502 51.084 25.4302 51.332 26.3262 51.332C27.2222 51.332 27.9022 51.084 28.3662 50.588C28.8302 50.076 29.1342 49.412 29.2782 48.596C29.4222 47.764 29.4942 46.74 29.4942 45.524ZM33.3618 45.524C33.3618 42.756 33.8578 40.588 34.8498 39.02C35.8578 37.452 37.5218 36.668 39.8418 36.668C42.1618 36.668 43.8178 37.452 44.8098 39.02C45.8178 40.588 46.3218 42.756 46.3218 45.524C46.3218 48.308 45.8178 50.492 44.8098 52.076C43.8178 53.66 42.1618 54.452 39.8418 54.452C37.5218 54.452 35.8578 53.66 34.8498 52.076C33.8578 50.492 33.3618 48.308 33.3618 45.524ZM43.0098 45.524C43.0098 44.34 42.9298 43.348 42.7698 42.548C42.6258 41.732 42.3218 41.068 41.8578 40.556C41.4098 40.044 40.7378 39.788 39.8418 39.788C38.9458 39.788 38.2658 40.044 37.8018 40.556C37.3538 41.068 37.0498 41.732 36.8898 42.548C36.7458 43.348 36.6738 44.34 36.6738 45.524C36.6738 46.74 36.7458 47.764 36.8898 48.596C37.0338 49.412 37.3378 50.076 37.8018 50.588C38.2658 51.084 38.9458 51.332 39.8418 51.332C40.7378 51.332 41.4178 51.084 41.8818 50.588C42.3458 50.076 42.6498 49.412 42.7938 48.596C42.9378 47.764 43.0098 46.74 43.0098 45.524ZM46.8775 45.524C46.8775 42.756 47.3735 40.588 48.3655 39.02C49.3735 37.452 51.0375 36.668 53.3575 36.668C55.6775 36.668 57.3335 37.452 58.3255 39.02C59.3335 40.588 59.8375 42.756 59.8375 45.524C59.8375 48.308 59.3335 50.492 58.3255 52.076C57.3335 53.66 55.6775 54.452 53.3575 54.452C51.0375 54.452 49.3735 53.66 48.3655 52.076C47.3735 50.492 46.8775 48.308 46.8775 45.524ZM56.5255 45.524C56.5255 44.34 56.4455 43.348 56.2855 42.548C56.1415 41.732 55.8375 41.068 55.3735 40.556C54.9255 40.044 54.2535 39.788 53.3575 39.788C52.4615 39.788 51.7815 40.044 51.3175 40.556C50.8695 41.068 50.5655 41.732 50.4055 42.548C50.2615 43.348 50.1895 44.34 50.1895 45.524C50.1895 46.74 50.2615 47.764 50.4055 48.596C50.5495 49.412 50.8535 50.076 51.3175 50.588C51.7815 51.084 52.4615 51.332 53.3575 51.332C54.2535 51.332 54.9335 51.084 55.3975 50.588C55.8615 50.076 56.1655 49.412 56.3095 48.596C56.4535 47.764 56.5255 46.74 56.5255 45.524Z" fill="#111111"/>
<g filter="url(#filter0_d_6238_1859)">
<path d="M73.836 55C72.689 55 71.6107 54.7686 70.601 54.3058C69.5913 53.8347 68.7027 53.1859 67.9354 52.3595C67.1761 51.5331 66.5784 50.5785 66.1422 49.4959C65.7141 48.405 65.5 47.2397 65.5 46C65.5 44.7521 65.7141 43.5868 66.1422 42.5041C66.5784 41.4132 67.1761 40.4587 67.9354 39.6405C68.7027 38.814 69.5913 38.1694 70.601 37.7066C71.6107 37.2355 72.689 37 73.836 37C75.2092 37 76.4733 37.3264 77.6284 37.9793C78.7835 38.624 79.7407 39.4876 80.5 40.5702L77.2528 42.3554C76.8328 41.8595 76.3279 41.4628 75.7383 41.1653C75.1486 40.8678 74.5145 40.719 73.836 40.719C73.1898 40.719 72.58 40.8554 72.0065 41.1281C71.441 41.4008 70.9402 41.781 70.504 42.2686C70.0759 42.7479 69.7407 43.3058 69.4984 43.9421C69.2561 44.5785 69.1349 45.2645 69.1349 46C69.1349 46.7273 69.2561 47.4091 69.4984 48.0455C69.7407 48.6818 70.0759 49.2438 70.504 49.7314C70.9402 50.2107 71.441 50.5909 72.0065 50.8719C72.58 51.1446 73.1898 51.281 73.836 51.281C74.5145 51.281 75.1486 51.1322 75.7383 50.8347C76.3279 50.5289 76.8328 50.124 77.2528 49.6198L80.5 51.4298C79.7407 52.5041 78.7835 53.3678 77.6284 54.0207C76.4733 54.6736 75.2092 55 73.836 55Z" fill="#6348E9"/>
<path d="M73.836 55C72.689 55 71.6107 54.7686 70.601 54.3058C69.5913 53.8347 68.7027 53.1859 67.9354 52.3595C67.1761 51.5331 66.5784 50.5785 66.1422 49.4959C65.7141 48.405 65.5 47.2397 65.5 46C65.5 44.7521 65.7141 43.5868 66.1422 42.5041C66.5784 41.4132 67.1761 40.4587 67.9354 39.6405C68.7027 38.814 69.5913 38.1694 70.601 37.7066C71.6107 37.2355 72.689 37 73.836 37C75.2092 37 76.4733 37.3264 77.6284 37.9793C78.7835 38.624 79.7407 39.4876 80.5 40.5702L77.2528 42.3554C76.8328 41.8595 76.3279 41.4628 75.7383 41.1653C75.1486 40.8678 74.5145 40.719 73.836 40.719C73.1898 40.719 72.58 40.8554 72.0065 41.1281C71.441 41.4008 70.9402 41.781 70.504 42.2686C70.0759 42.7479 69.7407 43.3058 69.4984 43.9421C69.2561 44.5785 69.1349 45.2645 69.1349 46C69.1349 46.7273 69.2561 47.4091 69.4984 48.0455C69.7407 48.6818 70.0759 49.2438 70.504 49.7314C70.9402 50.2107 71.441 50.5909 72.0065 50.8719C72.58 51.1446 73.1898 51.281 73.836 51.281C74.5145 51.281 75.1486 51.1322 75.7383 50.8347C76.3279 50.5289 76.8328 50.124 77.2528 49.6198L80.5 51.4298C79.7407 52.5041 78.7835 53.3678 77.6284 54.0207C76.4733 54.6736 75.2092 55 73.836 55Z" fill="black" fill-opacity="0.8"/>
</g>
<defs>
<filter id="filter0_d_6238_1859" x="65.5" y="37" width="16" height="18" filterUnits="userSpaceOnUse" color-interpolation-filters="sRGB">
<feFlood flood-opacity="0" result="BackgroundImageFix"/>
<feColorMatrix in="SourceAlpha" type="matrix" values="0 0 0 0 0 0 0 0 0 0 0 0 0 0 0 0 0 0 127 0" result="hardAlpha"/>
<feOffset dx="1"/>
<feComposite in2="hardAlpha" operator="out"/>
<feColorMatrix type="matrix" values="0 0 0 0 1 0 0 0 0 0.917877 0 0 0 0 0.774161 0 0 0 1 0"/>
<feBlend mode="normal" in2="BackgroundImageFix" result="effect1_dropShadow_6238_1859"/>
<feBlend mode="normal" in="SourceGraphic" in2="effect1_dropShadow_6238_1859" result="shape"/>
</filter>
<linearGradient id="paint0_linear_6238_1859" x1="162.917" y1="82.4167" x2="12.4583" y2="-10.5417" gradientUnits="userSpaceOnUse">
<stop stop-color="#8E6218"/>
<stop offset="0.5" stop-color="#F9DDAB"/>
<stop offset="1" stop-color="#9C7228"/>
</linearGradient>
<linearGradient id="paint1_linear_6238_1859" x1="46" y1="92" x2="46" y2="0" gradientUnits="userSpaceOnUse">
<stop stop-color="#8E6218"/>
<stop offset="0.5" stop-color="#F9DDAB"/>
<stop offset="1" stop-color="#9C7228"/>
</linearGradient>
</defs>
</svg>
