<?xml version="1.0" encoding="UTF-8"?>
<svg id="Layer_1" data-name="Layer 1" xmlns="http://www.w3.org/2000/svg" viewBox="0 0 100 100">
  <defs>
    <style>
      .cls-1 {
        fill: #ffc226;
      }
    </style>
  </defs>
  <circle class="cls-1" cx="50" cy="50" r="50"/>
  <g>
    <path d="M51.77,22.1l1.35.54c.43-.55.97-1.38,1.72-.84.22.16,1.53,1.51,1.56,1.69.12.65-1.04,1.26-1,1.52l.5,1.22c.5.09,1.44-.21,1.74.33.14.25.15,2.01.08,2.34-.15.68-1.15.67-1.69.51l-.64,1.35c.29.46,1.19.86,1.01,1.47-.06.2-1.43,1.63-1.65,1.77-.88.56-1.33-.93-1.77-.82-.1.02-.2.16-.33.21-.17.06-.78.21-.84.3-.15.47.17,1.31-.31,1.62-.28.18-2.11.2-2.48.12-.74-.16-.44-1.18-.51-1.72l-1.35-.61c-.6.42-.92,1.42-1.71.82-.17-.13-1.42-1.36-1.49-1.49-.49-.85.9-1.41.87-1.74l-.52-1.29c-.53.11-1.43.25-1.68-.38-.11-.28-.11-1.86-.05-2.19.18-.89,1.16-.51,1.81-.6l.52-1.26c-.31-.44-1.15-.85-1.02-1.47.03-.17,1.5-1.71,1.65-1.77.82-.35,1.1.63,1.69.91l1.28-.53c.09-.49-.19-1.35.33-1.65.26-.14,1.9-.14,2.27-.1.93.11.59,1.08.66,1.75ZM53.55,27.86c0-1.91-1.55-3.45-3.45-3.45s-3.45,1.55-3.45,3.45,1.55,3.45,3.45,3.45,3.45-1.55,3.45-3.45Z"/>
    <g>
      <path d="M60.95,26.96c.48-.08.86.15,1.28.34,4.46,2.1,8.64,6.2,10.98,10.51.38.69,1.14,1.99.99,2.75s-1.19,1.01-1.73.46c-.29-.29-.95-1.84-1.25-2.35-2.34-4.06-5.41-6.93-9.49-9.2-.78-.43-1.99-.59-1.6-1.83.09-.28.53-.63.82-.68Z"/>
      <g>
        <path d="M72.88,59.42c1.05-.21,1.54.61,1.21,1.56-.54,1.56-2.04,3.86-3.04,5.21-.43.58-2.02,2.62-2.55,2.89-.82.41-1.74-.29-1.51-1.16.13-.5,1.47-1.8,1.89-2.33.9-1.13,1.78-2.48,2.47-3.76.27-.5.79-1.93,1.13-2.2.09-.07.3-.18.41-.2Z"/>
        <path d="M73.78,47.12l.18-.05c.97-2.21,3.43-3.87,5.83-4.07,1.49-.12,1.78.1,1.71,1.63-.16,3.77-3.01,6.76-6.76,7.06v4.95c-.23,1.12-1.78,1.12-2.01,0v-5.48c-3.69-.12-6.48-3.54-6.24-7.15.1-1.55.91-1.39,2.22-1.16,2.28.4,4.25,2.15,5.07,4.28ZM72.2,48.96c-.42-1.71-1.59-3.28-3.33-3.77.04,1.86,1.52,3.46,3.33,3.77ZM79.4,45.19c-2.12.34-3.91,2.15-4.12,4.3,2.07-.57,3.8-2.1,4.12-4.3Z"/>
      </g>
    </g>
    <g>
      <path d="M38.75,26.96c1.3-.27,2.03,1.27.79,2.02-.25.15-.58.22-.85.37-4.36,2.39-7.46,5.29-9.93,9.64-.28.49-.72,1.7-1.04,2.04-.49.53-1.58.31-1.74-.37-.18-.8.6-2.11.99-2.83,2.21-4.07,5.83-7.71,9.9-9.93.37-.2,1.55-.86,1.88-.93Z"/>
      <g>
        <path d="M22.26,43.54c1.5-.17,2.86.45,3.84,1.55,4.45-4.52,10.43,1.59,6.28,6.36-1.69,1.94-3.88,3.68-5.62,5.61-.36.33-.89.34-1.28.04-1.88-2.39-6.68-5.41-6.97-8.56-.22-2.4,1.25-4.74,3.75-5.02ZM22.43,45.65c-1.97.34-2.46,2.93-1.16,4.28l4.83,4.82,4.91-4.92c2.05-2.61-.99-5.86-3.55-3.2-.44.45-.68,1.16-1.43,1.09-.66-.06-1.34-1.33-1.96-1.74-.46-.3-1.09-.44-1.63-.34Z"/>
        <path d="M26.91,59.33c.21-.02.43.05.61.14.45.24,1.02,1.8,1.33,2.36.83,1.51,1.83,2.94,2.91,4.28.38.47,1.4,1.33,1.47,1.87.13.99-.89,1.57-1.74.94-.47-.35-1.26-1.35-1.66-1.85-1.06-1.31-2.16-2.94-2.94-4.43-.2-.38-.86-1.65-.91-1.98-.09-.61.3-1.27.94-1.34Z"/>
      </g>
    </g>
    <g>
      <path d="M44.19,58.63c.69-.11,1.67.72,2.36,1.02,2.43,1.07,4.93,1.03,7.33-.1.6-.28,1.41-1,2.03-.93.68.07,2.28.62,3.02.85,9.1,2.89,5.53,10.46,6.25,17.88-.17,1.19-1.1,2.2-2.32,2.33h-25.45c-1.31-.12-2.31-1.31-2.41-2.59.62-6.56-2.48-14.49,5.48-17.33.92-.33,2.81-.98,3.71-1.12ZM59.13,77.65h3.47s.37-.24.4-.3l.08-11.06c-.45-3.74-3.98-4.82-7.16-5.44-3,1.88-6.93,2.21-10.19.77-.51-.23-1.1-.74-1.65-.72-.84.04-3.44.96-4.23,1.39-1.48.81-2.6,2.39-2.75,4.1-.28,3.4.21,7.18,0,10.62-.05.22.32.66.48.66h3.47v-7.68c0-.33.68-.75,1.01-.75.29,0,1.01.49,1.01.75v7.68h14.04v-7.59c0-.37.64-.74,1.01-.75.34-.01,1.01.34,1.01.67v7.68Z"/>
      <path d="M49.46,40.39c7.27-.55,10.94,7.62,7.58,13.54-3.11,5.47-10.31,5.82-13.65.37s-.73-13.4,6.07-13.92ZM45.91,44.16c-3.49,3.35-1.94,10.78,3.02,11.79,5.93,1.2,9.15-6.5,6.09-10.92-2.04-2.95-6.53-3.35-9.11-.87Z"/>
    </g>
  </g>
</svg>