<svg width="52" height="53" viewBox="0 0 52 53" fill="none" xmlns="http://www.w3.org/2000/svg">
<g id="Photo camera front" clip-path="url(#clip0_4_4178)">
<g id="Group">
<g id="Group_2">
<path id="Union" fill-rule="evenodd" clip-rule="evenodd" d="M43.3333 11.3333H36.465L32.5 7H19.5L15.535 11.3333H8.66668C6.28334 11.3333 4.33334 13.2833 4.33334 15.6667V41.6667C4.33334 44.05 6.28334 46 8.66668 46H43.3333C45.7167 46 47.6667 44.05 47.6667 41.6667V15.6667C47.6667 13.2833 45.7167 11.3333 43.3333 11.3333ZM43.3333 41.6667H8.66668V15.6667H17.4417L21.4067 11.3333H30.5933L34.5583 15.6667H43.3333V41.6667ZM26 28.6667C28.3932 28.6667 30.3333 26.7266 30.3333 24.3333C30.3333 21.9401 28.3932 20 26 20C23.6068 20 21.6667 21.9401 21.6667 24.3333C21.6667 26.7266 23.6068 28.6667 26 28.6667ZM26 30.8333C28.145 30.8333 30.1817 31.2883 32.0233 32.09C33.6267 32.7833 34.6667 34.3433 34.6667 36.0983V37.3333H17.3333V36.0983C17.3333 34.3433 18.3733 32.7833 19.9767 32.09C21.8183 31.2883 23.855 30.8333 26 30.8333Z" fill="url(#paint0_linear_4_4178)"/>
</g>
</g>
</g>
<defs>
<linearGradient id="paint0_linear_4_4178" x1="4.33334" y1="7" x2="47.8927" y2="7.25414" gradientUnits="userSpaceOnUse">
<stop stop-color="#00E842"/>
<stop offset="1" stop-color="#4DE7FF"/>
</linearGradient>
<clipPath id="clip0_4_4178">
<rect width="52" height="52" fill="white" transform="translate(0 0.5)"/>
</clipPath>
</defs>
</svg>
