<svg width="80" height="80" viewBox="0 0 80 80" fill="none" xmlns="http://www.w3.org/2000/svg">
<g clip-path="url(#clip0_74_96008)">
<path d="M80.4849 39.7578C80.4849 17.6664 62.5763 -0.242188 40.4849 -0.242188C18.3935 -0.242188 0.484863 17.6664 0.484863 39.7578C0.484863 61.8492 18.3935 79.7579 40.4849 79.7579C62.5763 79.7579 80.4849 61.8492 80.4849 39.7578Z" fill="#6348E9"/>
<path d="M80.4849 39.7578C80.4849 17.6664 62.5763 -0.242188 40.4849 -0.242188C18.3935 -0.242188 0.484863 17.6664 0.484863 39.7578C0.484863 61.8492 18.3935 79.7579 40.4849 79.7579C62.5763 79.7579 80.4849 61.8492 80.4849 39.7578Z" fill="black" fill-opacity="0.6"/>
<path d="M13.0832 52.7746L12.6176 51.4064C12.7279 51.3583 12.8222 51.2975 12.9004 51.2243C12.9792 51.1526 13.0395 51.0691 13.0813 50.9739C13.1252 50.8796 13.1477 50.7755 13.1488 50.6616C13.1515 50.5471 13.1307 50.4252 13.0867 50.2958C13.0097 50.0694 12.8892 49.8964 12.7255 49.7767C12.5622 49.6588 12.3637 49.5941 12.1301 49.5829C11.8969 49.5733 11.6358 49.6173 11.3469 49.7149C11.0417 49.8179 10.7997 49.9448 10.6211 50.0953C10.4446 50.2469 10.3308 50.4179 10.2797 50.6082C10.2303 50.798 10.2427 51.0021 10.317 51.2204C10.3594 51.3449 10.4128 51.4514 10.4772 51.5396C10.5432 51.6273 10.6187 51.6974 10.7036 51.7499C10.7884 51.8024 10.8807 51.8369 10.9806 51.8538C11.0826 51.8716 11.1899 51.8705 11.3026 51.8505L11.7584 53.222C11.5419 53.2772 11.3067 53.2908 11.0528 53.2629C10.8007 53.2345 10.5501 53.1578 10.3012 53.0326C10.0544 52.9086 9.82816 52.728 9.62257 52.4909C9.41699 52.2538 9.25232 51.9533 9.12849 51.5894C8.97324 51.1333 8.93224 50.6909 9.00532 50.2623C9.07907 49.8353 9.27091 49.4522 9.58091 49.1131C9.89141 48.7756 10.3227 48.5136 10.8747 48.3272C11.4298 48.1397 11.9337 48.0885 12.3863 48.1737C12.8405 48.2584 13.2266 48.4489 13.5447 48.7454C13.8645 49.0414 14.1002 49.4124 14.2522 49.8589C14.359 50.1726 14.4142 50.4759 14.4178 50.7685C14.4216 51.0613 14.3744 51.335 14.2765 51.5899C14.1802 51.8442 14.0327 52.0726 13.8337 52.275C13.6347 52.4775 13.3845 52.644 13.0832 52.7746Z" fill="url(#paint0_linear_74_96008)"/>
<path d="M12.1118 57.9191L16.4532 54.9497L18.6014 58.0668L17.6517 58.7164L16.3127 56.7735L15.5666 57.2838L16.7949 59.0662L15.8452 59.7158L14.6169 57.9334L13.8707 58.4438L15.2038 60.3782L14.2542 61.0278L12.1118 57.9191Z" fill="url(#paint1_linear_74_96008)"/>
<path d="M17.3828 64.5321L20.8031 60.543L22.5316 62.0138C22.8287 62.2667 23.0426 62.5419 23.1731 62.8393C23.3035 63.1367 23.3438 63.4395 23.294 63.7474C23.2441 64.0553 23.0978 64.3509 22.8551 64.634C22.6101 64.9196 22.3397 65.1061 22.0439 65.1935C21.7493 65.282 21.4445 65.2786 21.1293 65.1834C20.8155 65.0892 20.5061 64.9124 20.2011 64.6529L19.1687 63.7744L19.8902 62.933L20.7036 63.6251C20.8313 63.7338 20.9535 63.8108 21.0701 63.8562C21.1892 63.9014 21.303 63.9094 21.4113 63.8803C21.521 63.8524 21.6242 63.7819 21.7211 63.6689C21.8191 63.5546 21.8739 63.4407 21.8856 63.3271C21.8997 63.2134 21.8756 63.1008 21.8133 62.9894C21.7535 62.8778 21.6596 62.7677 21.5319 62.659L21.1487 62.3329L18.4699 65.4571L17.3828 64.5321ZM21.2989 64.6977L20.7301 67.3805L19.5491 66.3756L20.1414 63.7127L21.2989 64.6977Z" fill="url(#paint2_linear_74_96008)"/>
<path d="M26.0256 65.9444L26.5135 64.9048L30.6597 66.8361L30.1718 67.8757L28.7369 67.2073L26.9943 70.9201L25.7178 70.3255L27.4604 66.6127L26.0256 65.9444Z" fill="url(#paint3_linear_74_96008)"/>
<path d="M35.0856 67.9685L33.9726 73.0962L32.5752 72.7952L33.6882 67.6675L35.0856 67.9685Z" fill="url(#paint4_linear_74_96008)"/>
<path d="M38.6113 73.6949L38.5947 68.4487L42.2975 68.437L42.3011 69.5847L40.028 69.5918L40.0309 70.4935L42.0776 70.4871L42.0813 71.6347L40.0345 71.6411L40.041 73.6904L38.6113 73.6949Z" fill="url(#paint5_linear_74_96008)"/>
<path d="M46.9723 67.6304L48.1222 72.75L46.7271 73.0611L45.5771 67.9414L46.9723 67.6304Z" fill="url(#paint6_linear_74_96008)"/>
<path d="M55.4089 66.3555L54.1062 66.9904C54.0442 66.8875 53.9718 66.8021 53.8888 66.7342C53.8073 66.6655 53.7166 66.6166 53.6164 66.5874C53.517 66.556 53.4105 66.5471 53.2969 66.5606C53.1826 66.5726 53.0638 66.6086 52.9406 66.6687C52.725 66.7737 52.5682 66.9148 52.47 67.0919C52.3734 67.2683 52.3344 67.4726 52.3531 67.7049C52.3733 67.9365 52.4505 68.1889 52.5845 68.4619C52.7262 68.7503 52.8833 68.9732 53.0559 69.1305C53.2294 69.2855 53.4142 69.3761 53.6102 69.4023C53.8054 69.4269 54.007 69.3885 54.2149 69.2872C54.3335 69.2294 54.4326 69.1631 54.5122 69.0882C54.5911 69.0117 54.6512 68.9282 54.6927 68.8377C54.7341 68.7472 54.7568 68.6515 54.7608 68.5507C54.7654 68.4476 54.7507 68.3418 54.7163 68.233L56.0236 67.6074C56.1062 67.8143 56.1497 68.0449 56.1544 68.2993C56.1583 68.5521 56.1139 68.8095 56.0212 69.0714C55.9292 69.3311 55.7783 69.5776 55.5685 69.8111C55.3587 70.0445 55.0806 70.2456 54.7341 70.4144C54.2998 70.6261 53.8647 70.7231 53.4286 70.7056C52.994 70.6873 52.5882 70.5467 52.211 70.2837C51.8353 70.02 51.5194 69.6273 51.2633 69.1058C51.0057 68.5811 50.8904 68.0898 50.9174 67.6318C50.9437 67.1722 51.0841 66.7664 51.3386 66.4142C51.5924 66.0604 51.9317 65.78 52.3568 65.5729C52.6555 65.4274 52.9503 65.334 53.2413 65.293C53.5323 65.252 53.8108 65.2636 54.077 65.3278C54.3425 65.3904 54.5887 65.5071 54.8157 65.6779C55.0427 65.8487 55.2404 66.0745 55.4089 66.3555Z" fill="url(#paint7_linear_74_96008)"/>
<path d="M61.1791 66.1961L60.0266 67.218L57.8237 62.1479L59.2835 60.8535L64.0832 63.6209L62.9308 64.6428L59.5331 62.5663L59.5025 62.5935L61.1791 66.1961ZM59.5826 64.8408L61.7491 62.9196L62.4603 63.7156L60.2938 65.6368L59.5826 64.8408Z" fill="url(#paint8_linear_74_96008)"/>
<path d="M62.9857 58.5885L62.0229 57.9584L64.5361 54.1475L65.4989 54.7776L64.6292 56.0965L68.0677 58.347L67.294 59.5202L63.8555 57.2696L62.9857 58.5885Z" fill="url(#paint9_linear_74_96008)"/>
<path d="M70.8323 52.9932L65.8262 51.3648L67.0043 47.7705L68.0993 48.1268L67.365 50.3671L68.2254 50.6469L68.8991 48.5917L69.9942 48.9479L69.3205 51.0032L70.1809 51.283L70.912 49.0524L72.0071 49.4087L70.8323 52.9932Z" fill="url(#paint10_linear_74_96008)"/>
<path d="M21.4263 13.3126C21.31 13.166 21.1707 13.084 21.0082 13.0665C20.8474 13.048 20.6621 13.1087 20.4521 13.2485C20.3183 13.3375 20.2196 13.4267 20.1558 13.5161C20.0927 13.603 20.059 13.687 20.0549 13.7682C20.0508 13.8493 20.0713 13.9253 20.1166 13.996C20.1519 14.0554 20.1967 14.1006 20.2512 14.1315C20.3062 14.1599 20.3727 14.1751 20.4505 14.1771C20.5272 14.1775 20.6167 14.165 20.7189 14.1396C20.8211 14.1142 20.9367 14.0754 21.0658 14.023L21.5139 13.8459C21.8157 13.7257 22.0913 13.6487 22.3408 13.6149C22.5902 13.581 22.8165 13.5862 23.0193 13.6305C23.2212 13.6732 23.4015 13.7526 23.5603 13.8687C23.7207 13.9838 23.8624 14.1315 23.9855 14.3117C24.1937 14.6257 24.2928 14.9429 24.2827 15.2633C24.2727 15.5837 24.1608 15.8967 23.9473 16.2023C23.7355 16.5069 23.4273 16.7938 23.0229 17.0629C22.6077 17.3392 22.2042 17.5192 21.8127 17.6027C21.4227 17.6853 21.0569 17.6565 20.7155 17.5162C20.3746 17.3734 20.0698 17.1034 19.8013 16.7063L21.0332 15.8865C21.1386 16.027 21.2572 16.125 21.389 16.1807C21.5207 16.2365 21.6629 16.2505 21.8154 16.223C21.9694 16.1944 22.1289 16.1253 22.2937 16.0155C22.4322 15.9235 22.5367 15.8293 22.6071 15.7331C22.6776 15.6369 22.7167 15.5425 22.7243 15.45C22.7321 15.3575 22.7107 15.272 22.6603 15.1935C22.61 15.1217 22.5432 15.0743 22.4602 15.0511C22.3777 15.0253 22.2698 15.0255 22.1366 15.0514C22.0022 15.0758 21.8334 15.1276 21.6302 15.2069L21.0857 15.4214C20.6013 15.6115 20.1654 15.6809 19.7779 15.6296C19.3908 15.5757 19.0735 15.3623 18.8257 14.9895C18.6217 14.6884 18.5254 14.3704 18.5371 14.0355C18.5492 13.698 18.6582 13.369 18.8638 13.0485C19.0711 12.7268 19.3637 12.4402 19.7416 12.1887C20.1273 11.932 20.504 11.7743 20.8717 11.7155C21.2395 11.6568 21.578 11.6937 21.8872 11.8262C22.1971 11.9561 22.4571 12.1763 22.6674 12.4867L21.4263 13.3126Z" fill="url(#paint11_linear_74_96008)"/>
<path d="M28.5747 14.0397L26.9898 14.6047L26.8403 8.57896L28.8479 7.86328L32.5687 12.6159L30.9838 13.1809L28.3982 9.69771L28.3559 9.71279L28.5747 14.0397ZM27.5154 12.019L30.4951 10.9567L30.8882 12.0515L27.9085 13.1136L27.5154 12.019Z" fill="url(#paint12_linear_74_96008)"/>
<path d="M35.8197 12.0811L34.146 12.2596L35.421 6.36718L37.5411 6.14111L40.0376 11.6314L38.3638 11.8099L36.6716 7.81911L36.6269 7.82387L35.8197 12.0811ZM35.2663 9.86903L38.413 9.53353L38.537 10.6895L35.3904 11.0251L35.2663 9.86903Z" fill="url(#paint13_linear_74_96008)"/>
<path d="M42.5552 7.2618L42.7126 6.01953L47.667 6.64172L47.5096 7.88399L45.7951 7.66866L45.2331 12.1053L43.7078 11.9138L44.2698 7.47711L42.5552 7.2618Z" fill="url(#paint14_linear_74_96008)"/>
<path d="M49.7534 13.0283L51.8808 7.71094L53.3298 8.28606L52.4988 10.3632L54.4168 11.1246L55.2478 9.04748L56.6968 9.62265L54.5694 14.94L53.1204 14.3648L53.9514 12.2877L52.0334 11.5264L51.2024 13.6035L49.7534 13.0283Z" fill="url(#paint15_linear_74_96008)"/>
<path d="M61.7488 12.6527L58.5693 17.4207L57.27 16.5609L60.4496 11.793L61.7488 12.6527Z" fill="url(#paint16_linear_74_96008)"/>
<path fill-rule="evenodd" clip-rule="evenodd" d="M8.73535 38.8524C8.73535 31.6336 11.1671 24.9807 15.2591 19.6623C15.4918 19.36 15.929 19.3176 16.2213 19.5629C16.505 19.8009 16.5459 20.2216 16.3204 20.5155C12.4173 25.6005 10.0985 31.9567 10.0985 38.8524C10.0985 40.2437 10.1929 41.613 10.3757 42.9544C10.4183 43.2672 10.2479 43.5716 9.95636 43.6927C9.54861 43.862 9.08919 43.6071 9.02919 43.1697C8.83544 41.7582 8.73535 40.317 8.73535 38.8524ZM70.9007 43.6926C71.3084 43.8619 71.7678 43.607 71.8278 43.1697C72.0215 41.7581 72.1216 40.317 72.1216 38.8524C72.1216 31.6337 69.6898 24.9809 65.598 19.6625C65.3653 19.3601 64.9281 19.3178 64.6359 19.563C64.3521 19.801 64.3113 20.2218 64.5368 20.5155C68.4398 25.6006 70.7585 31.9567 70.7585 38.8524C70.7585 40.2436 70.6641 41.613 70.4813 42.9543C70.4388 43.2671 70.6091 43.5715 70.9007 43.6926Z" fill="url(#paint17_linear_74_96008)"/>
<path d="M65.2666 40.1914C65.2666 26.3843 54.0737 15.1914 40.2666 15.1914C26.4595 15.1914 15.2666 26.3843 15.2666 40.1914C15.2666 53.9985 26.4595 65.1914 40.2666 65.1914C54.0737 65.1914 65.2666 53.9985 65.2666 40.1914Z" fill="#6348E9"/>
<path d="M65.2666 40.1914C65.2666 26.3843 54.0737 15.1914 40.2666 15.1914C26.4595 15.1914 15.2666 26.3843 15.2666 40.1914C15.2666 53.9985 26.4595 65.1914 40.2666 65.1914C54.0737 65.1914 65.2666 53.9985 65.2666 40.1914Z" fill="black" fill-opacity="0.4"/>
<path d="M38.5317 20.8458L34.5352 24.3722H40.2668V20.1914C39.6482 20.1893 39.029 20.4075 38.5317 20.8458Z" fill="#FDF0BC"/>
<path d="M41.9833 20.8418C41.4914 20.4102 40.8815 20.1934 40.271 20.1914V24.3722H46.0027L41.9833 20.8418Z" fill="url(#paint18_linear_74_96008)"/>
<path d="M26.3274 26.6273L25.5029 31.9318L29.8935 28.1989L27.2413 24.9961C26.766 25.3973 26.4301 25.968 26.3274 26.6273Z" fill="#FDF0BC"/>
<path d="M28.9636 24.3793C28.313 24.3685 27.7078 24.6002 27.2393 24.9966L29.8914 28.1993L34.282 24.4664L28.9636 24.3793Z" fill="url(#paint19_linear_74_96008)"/>
<path d="M20.6431 39.0078L23.376 43.6087L24.3712 37.8893L20.3085 37.1626C20.1985 37.7799 20.3032 38.4357 20.6431 39.0078Z" fill="#FDF0BC"/>
<path d="M21.2407 35.5668C20.7361 35.9828 20.4195 36.5542 20.3115 37.1627L24.3748 37.8888L25.3699 32.1694L21.2407 35.5668Z" fill="url(#paint20_linear_74_96008)"/>
<path d="M24.1437 52.1927L29.1562 53.9365L26.2907 48.9067L22.7173 50.9972C23.0245 51.5415 23.5205 51.9758 24.1437 52.1927Z" fill="url(#paint21_linear_74_96008)"/>
<path d="M22.4166 49.1692C22.2932 49.8163 22.4132 50.4606 22.7166 50.9975L26.2899 48.9072L23.4244 43.8774L22.4166 49.1692Z" fill="url(#paint22_linear_74_96008)"/>
<path d="M35.1899 60.0138L40.1357 58.0855L34.7499 56.0991L33.3389 60.028C33.9195 60.2441 34.5753 60.2535 35.1899 60.0138Z" fill="url(#paint23_linear_74_96008)"/>
<path d="M31.9457 58.8226C32.2617 59.3987 32.7623 59.8141 33.3354 60.0275L34.7465 56.0986L29.3608 54.1123L31.9457 58.8226Z" fill="url(#paint24_linear_74_96008)"/>
<path d="M48.6112 58.812L51.1768 54.1133L45.791 56.0996L47.2021 60.0284C47.7834 59.8157 48.2919 59.3963 48.6112 58.812Z" fill="url(#paint25_linear_74_96008)"/>
<path d="M45.3731 60.0104C45.9809 60.2461 46.6275 60.238 47.2021 60.028L45.791 56.0991L40.4053 58.0855L45.3731 60.0104Z" fill="url(#paint26_linear_74_96008)"/>
<path d="M58.1263 49.1476L57.1111 43.8774L54.2456 48.9072L57.819 50.9975C58.1296 50.4552 58.2529 49.8028 58.1263 49.1476Z" fill="url(#paint27_linear_74_96008)"/>
<path d="M56.4088 52.1751C57.0234 51.9596 57.514 51.5321 57.8212 50.9972L54.2479 48.9067L51.3823 53.9365L56.4088 52.1751Z" fill="url(#paint28_linear_74_96008)"/>
<path d="M59.2917 35.5451L55.1704 32.1694L56.1656 37.8888L60.2289 37.1627C60.1242 36.5454 59.8043 35.9652 59.2917 35.5451Z" fill="url(#paint29_linear_74_96008)"/>
<path d="M59.8933 38.9848C60.2279 38.4195 60.3326 37.7724 60.2279 37.1626L56.1646 37.8886L57.1597 43.6079L59.8933 38.9848Z" fill="url(#paint30_linear_74_96008)"/>
<path d="M51.5538 24.3681L46.2554 24.466L50.646 28.199L53.2981 24.9962C52.8255 24.5924 52.213 24.356 51.5538 24.3681Z" fill="url(#paint31_linear_74_96008)"/>
<path d="M54.196 26.6111C54.0933 25.96 53.7634 25.3967 53.2968 24.9976L50.6445 28.2003L55.0351 31.9333L54.196 26.6111Z" fill="url(#paint32_linear_74_96008)"/>
<path d="M40.2696 54.913C48.0002 54.913 54.2671 48.5627 54.2671 40.7294C54.2671 32.8961 48.0002 26.5459 40.2696 26.5459C32.5389 26.5459 26.272 32.8961 26.272 40.7294C26.272 48.5627 32.5389 54.913 40.2696 54.913Z" fill="url(#paint33_radial_74_96008)"/>
<g filter="url(#filter0_d_74_96008)">
<path fill-rule="evenodd" clip-rule="evenodd" d="M48.143 34.2759H46.8198L48.0015 35.6361L46.8198 37.0759H48.143L49.3485 35.6361L48.143 34.2759ZM50.4409 34.2759H49.1176L50.2994 35.6361L49.1176 37.0759H50.4409L51.6464 35.6361L50.4409 34.2759ZM44.5195 34.276H45.7225L46.8184 35.6362L45.7225 37.076H44.5195L45.5939 35.6362L44.5195 34.276Z" fill="#FFFAF6"/>
<path d="M44.1371 46.8342C44.6151 46.1149 44.8621 45.2632 44.8443 44.3958C44.8443 43.1219 44.4163 42.1261 43.5604 41.4084C42.7021 40.7071 41.4632 40.2142 39.8436 39.93C38.8223 39.7644 38.1191 39.5619 37.7344 39.3227C37.555 39.2219 37.4063 39.0732 37.3044 38.8925C37.2027 38.7118 37.1517 38.5063 37.1571 38.2982C37.1504 38.0911 37.1974 37.8857 37.2934 37.7027C37.3893 37.5197 37.5309 37.3654 37.704 37.2554C38.0748 36.9957 38.5814 36.8658 39.224 36.8658C39.8787 36.8658 40.3984 37.0038 40.7832 37.2799C40.9769 37.4301 41.1394 37.6177 41.2613 37.832C41.3831 38.0462 41.462 38.2829 41.4934 38.5282H44.5877C44.4667 37.1297 43.9279 36.0142 42.971 35.182C42.0202 34.3559 40.7923 33.9429 39.2875 33.9429C38.3534 33.9264 37.4264 34.1114 36.5679 34.4858C35.8135 34.8084 35.1694 35.3492 34.7156 36.0408C34.2583 36.7417 34.0231 37.5681 34.0419 38.4087C34.0419 39.6764 34.4549 40.6477 35.2808 41.3225C36.1085 41.9891 37.3152 42.4635 38.9008 42.7456C39.908 42.9276 40.6222 43.1525 41.0432 43.4204C41.2301 43.5312 41.3856 43.6892 41.4946 43.879C41.6037 44.0688 41.6627 44.284 41.6656 44.5037C41.6688 44.7233 41.6157 44.9401 41.5119 45.1329C41.4082 45.3257 41.2571 45.4881 41.0734 45.6042C40.6745 45.8722 40.1184 46.0061 39.4055 46.0061C38.656 46.0061 38.0699 45.8436 37.6467 45.5185C37.4359 45.3483 37.2637 45.1338 37.1421 44.8897C37.0207 44.6457 36.9526 44.3778 36.9427 44.1045H33.8359C33.9287 45.6322 34.4675 46.8242 35.4527 47.6808C36.4297 48.521 37.7471 48.9411 39.4049 48.9411C40.3627 48.9577 41.3133 48.7728 42.1971 48.3982C42.9778 48.0758 43.651 47.533 44.1371 46.8342Z" fill="#FFFAF6"/>
</g>
<path d="M40.2705 25.2783C31.8493 25.2783 25.0225 32.1952 25.0225 40.7282C25.0225 49.2613 31.8493 56.1788 40.2705 56.1788C48.6917 56.1788 55.5185 49.2613 55.5185 40.7282C55.5185 32.1952 48.6917 25.2783 40.2705 25.2783ZM40.2705 54.9104C32.5405 54.9104 26.2743 48.5609 26.2743 40.7282C26.2743 32.8956 32.5405 26.5461 40.2705 26.5461C48.0005 26.5461 54.2667 32.8956 54.2667 40.7282C54.2667 48.5609 48.0005 54.9104 40.2705 54.9104Z" fill="url(#paint34_linear_74_96008)"/>
<path d="M40.2692 23.3071C30.7735 23.3071 23.0762 31.1067 23.0762 40.7285C23.0762 50.3504 30.7735 58.15 40.2692 58.15C49.7648 58.15 57.4622 50.3504 57.4622 40.7285C57.4622 31.1067 49.7648 23.3071 40.2692 23.3071ZM40.2692 56.1717C31.852 56.1717 25.0285 49.2575 25.0285 40.7285C25.0285 32.1995 31.852 25.286 40.2692 25.286C48.6864 25.286 55.5098 32.2002 55.5098 40.7292C55.5098 49.2582 48.6864 56.1717 40.2692 56.1717Z" fill="url(#paint35_linear_74_96008)"/>
</g>
<defs>
<filter id="filter0_d_74_96008" x="33.8359" y="33.9419" width="17.8105" height="16" filterUnits="userSpaceOnUse" color-interpolation-filters="sRGB">
<feFlood flood-opacity="0" result="BackgroundImageFix"/>
<feColorMatrix in="SourceAlpha" type="matrix" values="0 0 0 0 0 0 0 0 0 0 0 0 0 0 0 0 0 0 127 0" result="hardAlpha"/>
<feOffset dy="1"/>
<feComposite in2="hardAlpha" operator="out"/>
<feColorMatrix type="matrix" values="0 0 0 0 0.87451 0 0 0 0 0.466667 0 0 0 0 0.117647 0 0 0 1 0"/>
<feBlend mode="normal" in2="BackgroundImageFix" result="effect1_dropShadow_74_96008"/>
<feBlend mode="normal" in="SourceGraphic" in2="effect1_dropShadow_74_96008" result="shape"/>
</filter>
<linearGradient id="paint0_linear_74_96008" x1="8.97099" y1="47.7554" x2="72.3278" y2="48.5808" gradientUnits="userSpaceOnUse">
<stop stop-color="#FFC01D"/>
<stop offset="0.491554" stop-color="#FFD955"/>
<stop offset="1" stop-color="#FF9A01"/>
</linearGradient>
<linearGradient id="paint1_linear_74_96008" x1="8.97123" y1="47.7552" x2="72.3281" y2="48.5806" gradientUnits="userSpaceOnUse">
<stop stop-color="#FFC01D"/>
<stop offset="0.491554" stop-color="#FFD955"/>
<stop offset="1" stop-color="#FF9A01"/>
</linearGradient>
<linearGradient id="paint2_linear_74_96008" x1="8.97106" y1="47.7554" x2="72.3279" y2="48.5808" gradientUnits="userSpaceOnUse">
<stop stop-color="#FFC01D"/>
<stop offset="0.491554" stop-color="#FFD955"/>
<stop offset="1" stop-color="#FF9A01"/>
</linearGradient>
<linearGradient id="paint3_linear_74_96008" x1="8.97094" y1="47.755" x2="72.3278" y2="48.5805" gradientUnits="userSpaceOnUse">
<stop stop-color="#FFC01D"/>
<stop offset="0.491554" stop-color="#FFD955"/>
<stop offset="1" stop-color="#FF9A01"/>
</linearGradient>
<linearGradient id="paint4_linear_74_96008" x1="8.97103" y1="47.7553" x2="72.3279" y2="48.5807" gradientUnits="userSpaceOnUse">
<stop stop-color="#FFC01D"/>
<stop offset="0.491554" stop-color="#FFD955"/>
<stop offset="1" stop-color="#FF9A01"/>
</linearGradient>
<linearGradient id="paint5_linear_74_96008" x1="8.97104" y1="47.7551" x2="72.3279" y2="48.5805" gradientUnits="userSpaceOnUse">
<stop stop-color="#FFC01D"/>
<stop offset="0.491554" stop-color="#FFD955"/>
<stop offset="1" stop-color="#FF9A01"/>
</linearGradient>
<linearGradient id="paint6_linear_74_96008" x1="8.971" y1="47.7555" x2="72.3278" y2="48.5809" gradientUnits="userSpaceOnUse">
<stop stop-color="#FFC01D"/>
<stop offset="0.491554" stop-color="#FFD955"/>
<stop offset="1" stop-color="#FF9A01"/>
</linearGradient>
<linearGradient id="paint7_linear_74_96008" x1="8.97121" y1="47.7552" x2="72.328" y2="48.5806" gradientUnits="userSpaceOnUse">
<stop stop-color="#FFC01D"/>
<stop offset="0.491554" stop-color="#FFD955"/>
<stop offset="1" stop-color="#FF9A01"/>
</linearGradient>
<linearGradient id="paint8_linear_74_96008" x1="8.97107" y1="47.7553" x2="72.3279" y2="48.5807" gradientUnits="userSpaceOnUse">
<stop stop-color="#FFC01D"/>
<stop offset="0.491554" stop-color="#FFD955"/>
<stop offset="1" stop-color="#FF9A01"/>
</linearGradient>
<linearGradient id="paint9_linear_74_96008" x1="8.97137" y1="47.7553" x2="72.3282" y2="48.5807" gradientUnits="userSpaceOnUse">
<stop stop-color="#FFC01D"/>
<stop offset="0.491554" stop-color="#FFD955"/>
<stop offset="1" stop-color="#FF9A01"/>
</linearGradient>
<linearGradient id="paint10_linear_74_96008" x1="8.97118" y1="47.7553" x2="72.328" y2="48.5807" gradientUnits="userSpaceOnUse">
<stop stop-color="#FFC01D"/>
<stop offset="0.491554" stop-color="#FFD955"/>
<stop offset="1" stop-color="#FF9A01"/>
</linearGradient>
<linearGradient id="paint11_linear_74_96008" x1="18.4005" y1="6.45037" x2="61.8508" y2="6.52493" gradientUnits="userSpaceOnUse">
<stop stop-color="#FFC01D"/>
<stop offset="0.491554" stop-color="#FFD955"/>
<stop offset="1" stop-color="#FF9A01"/>
</linearGradient>
<linearGradient id="paint12_linear_74_96008" x1="18.4006" y1="6.45029" x2="61.8509" y2="6.52485" gradientUnits="userSpaceOnUse">
<stop stop-color="#FFC01D"/>
<stop offset="0.491554" stop-color="#FFD955"/>
<stop offset="1" stop-color="#FF9A01"/>
</linearGradient>
<linearGradient id="paint13_linear_74_96008" x1="18.4004" y1="6.45036" x2="61.8508" y2="6.52492" gradientUnits="userSpaceOnUse">
<stop stop-color="#FFC01D"/>
<stop offset="0.491554" stop-color="#FFD955"/>
<stop offset="1" stop-color="#FF9A01"/>
</linearGradient>
<linearGradient id="paint14_linear_74_96008" x1="18.4007" y1="6.4503" x2="61.851" y2="6.52486" gradientUnits="userSpaceOnUse">
<stop stop-color="#FFC01D"/>
<stop offset="0.491554" stop-color="#FFD955"/>
<stop offset="1" stop-color="#FF9A01"/>
</linearGradient>
<linearGradient id="paint15_linear_74_96008" x1="18.4007" y1="6.4504" x2="61.8511" y2="6.52495" gradientUnits="userSpaceOnUse">
<stop stop-color="#FFC01D"/>
<stop offset="0.491554" stop-color="#FFD955"/>
<stop offset="1" stop-color="#FF9A01"/>
</linearGradient>
<linearGradient id="paint16_linear_74_96008" x1="18.4006" y1="6.44997" x2="61.8508" y2="6.52453" gradientUnits="userSpaceOnUse">
<stop stop-color="#FFC01D"/>
<stop offset="0.491554" stop-color="#FFD955"/>
<stop offset="1" stop-color="#FF9A01"/>
</linearGradient>
<linearGradient id="paint17_linear_74_96008" x1="8.73535" y1="19.4038" x2="72.4425" y2="20.275" gradientUnits="userSpaceOnUse">
<stop stop-color="#FFC01D"/>
<stop offset="0.491554" stop-color="#FFD955"/>
<stop offset="1" stop-color="#FF9A01"/>
</linearGradient>
<linearGradient id="paint18_linear_74_96008" x1="40.5512" y1="22.2817" x2="45.8145" y2="22.2817" gradientUnits="userSpaceOnUse">
<stop stop-color="#FEE998"/>
<stop offset="1" stop-color="#FCC15B"/>
</linearGradient>
<linearGradient id="paint19_linear_74_96008" x1="28.8418" y1="26.3614" x2="34.1518" y2="21.9638" gradientUnits="userSpaceOnUse">
<stop stop-color="#FEE998"/>
<stop offset="1" stop-color="#FCC15B"/>
</linearGradient>
<linearGradient id="paint20_linear_74_96008" x1="25.464" y1="32.1575" x2="22.4424" y2="37.0565" gradientUnits="userSpaceOnUse">
<stop stop-color="#FCC15B"/>
<stop offset="1" stop-color="#FEE998"/>
</linearGradient>
<linearGradient id="paint21_linear_74_96008" x1="24.0687" y1="49.8349" x2="29.2616" y2="53.2047" gradientUnits="userSpaceOnUse">
<stop stop-color="#FFC05F"/>
<stop offset="1" stop-color="#ED892B"/>
</linearGradient>
<linearGradient id="paint22_linear_74_96008" x1="23.4831" y1="43.9869" x2="24.4246" y2="49.8472" gradientUnits="userSpaceOnUse">
<stop stop-color="#FCC15B"/>
<stop offset="1" stop-color="#FEE998"/>
</linearGradient>
<linearGradient id="paint23_linear_74_96008" x1="34.3024" y1="58.1335" x2="39.39" y2="59.2493" gradientUnits="userSpaceOnUse">
<stop stop-color="#FEAC3E"/>
<stop offset="1" stop-color="#F08223"/>
</linearGradient>
<linearGradient id="paint24_linear_74_96008" x1="29.1067" y1="54.0675" x2="33.8138" y2="57.8683" gradientUnits="userSpaceOnUse">
<stop stop-color="#FFA135"/>
<stop offset="1" stop-color="#FEB431"/>
</linearGradient>
<linearGradient id="paint25_linear_74_96008" x1="51.1969" y1="54.0797" x2="46.4986" y2="58.0708" gradientUnits="userSpaceOnUse">
<stop stop-color="#FFAA3D"/>
<stop offset="1" stop-color="#ED8B1C"/>
</linearGradient>
<linearGradient id="paint26_linear_74_96008" x1="40.4257" y1="58.4616" x2="46.3545" y2="58.1365" gradientUnits="userSpaceOnUse">
<stop stop-color="#FF962D"/>
<stop offset="1" stop-color="#E56005"/>
</linearGradient>
<linearGradient id="paint27_linear_74_96008" x1="57.3289" y1="43.8985" x2="56.1064" y2="49.7722" gradientUnits="userSpaceOnUse">
<stop stop-color="#FDBD41"/>
<stop offset="1" stop-color="#FEB334"/>
</linearGradient>
<linearGradient id="paint28_linear_74_96008" x1="58.8937" y1="44.934" x2="53.0479" y2="54.9262" gradientUnits="userSpaceOnUse">
<stop stop-color="#F6942F"/>
<stop offset="1" stop-color="#EA6F11"/>
</linearGradient>
<linearGradient id="paint29_linear_74_96008" x1="54.8827" y1="32.3386" x2="58.396" y2="37.4763" gradientUnits="userSpaceOnUse">
<stop stop-color="#FDBD41"/>
<stop offset="1" stop-color="#FEB334"/>
</linearGradient>
<linearGradient id="paint30_linear_74_96008" x1="56.945" y1="43.5933" x2="58.328" y2="37.5623" gradientUnits="userSpaceOnUse">
<stop stop-color="#FD9D24"/>
<stop offset="1" stop-color="#FF9515"/>
</linearGradient>
<linearGradient id="paint31_linear_74_96008" x1="51.9055" y1="26.5189" x2="46.5468" y2="23.968" gradientUnits="userSpaceOnUse">
<stop stop-color="#FCC15B"/>
<stop offset="1" stop-color="#FEE998"/>
</linearGradient>
<linearGradient id="paint32_linear_74_96008" x1="51.9299" y1="26.1879" x2="54.5268" y2="31.8833" gradientUnits="userSpaceOnUse">
<stop stop-color="#FF9515"/>
<stop offset="1" stop-color="#FFBE41"/>
</linearGradient>
<radialGradient id="paint33_radial_74_96008" cx="0" cy="0" r="1" gradientUnits="userSpaceOnUse" gradientTransform="translate(40.2696 40.7292) scale(13.9976 14.1835)">
<stop offset="0.8428" stop-color="#FAAA31"/>
<stop offset="1" stop-color="#F57E16"/>
</radialGradient>
<linearGradient id="paint34_linear_74_96008" x1="40.2706" y1="25.2781" x2="40.2706" y2="56.1791" gradientUnits="userSpaceOnUse">
<stop offset="0.0226" stop-color="#FD9A18"/>
<stop offset="0.3764" stop-color="#FEC752"/>
<stop offset="1" stop-color="#FFA422"/>
</linearGradient>
<linearGradient id="paint35_linear_74_96008" x1="40.2693" y1="23.256" x2="40.2693" y2="58.099" gradientUnits="userSpaceOnUse">
<stop stop-color="#FFDB69"/>
<stop offset="0.1799" stop-color="#FEE7B0"/>
<stop offset="0.24" stop-color="#FEE9BA"/>
<stop offset="0.2592" stop-color="#FDECD0"/>
<stop offset="0.2953" stop-color="#FEDA92"/>
<stop offset="0.3254" stop-color="#FFCD64"/>
<stop offset="0.3405" stop-color="#FFC853"/>
<stop offset="0.7613" stop-color="#FF9114"/>
<stop offset="1" stop-color="#F57E16"/>
</linearGradient>
<clipPath id="clip0_74_96008">
<rect width="80" height="80" fill="white"/>
</clipPath>
</defs>
</svg>
