<svg width="24" height="24" viewBox="0 0 24 24" fill="none" xmlns="http://www.w3.org/2000/svg">
<g clip-path="url(#clip0_221_593)">
<path d="M3 5V9H5V5H9V3H5C3.9 3 3 3.9 3 5ZM5 15H3V19C3 20.1 3.9 21 5 21H9V19H5V15ZM19 19H15V21H19C20.1 21 21 20.1 21 19V15H19V19ZM19 3H15V5H19V9H21V5C21 3.9 20.1 3 19 3Z" fill="black"/>
<path d="M17.5 16.5C17.5 17.0523 17.0523 17.5 16.5 17.5H7.5C6.94771 17.5 6.5 17.0523 6.5 16.5V7.5C6.5 6.94771 6.94772 6.5 7.5 6.5H16.5C17.0523 6.5 17.5 6.94772 17.5 7.5V16.5ZM12 7.28571C10.7036 7.28571 9.64286 8.34643 9.64286 9.64286C9.64286 10.9393 10.7036 12 12 12C13.2964 12 14.3571 10.9393 14.3571 9.64286C14.3571 8.34643 13.2964 7.28571 12 7.28571ZM12 10.4286C11.5679 10.4286 11.2143 10.075 11.2143 9.64286C11.2143 9.21071 11.5679 8.85714 12 8.85714C12.4321 8.85714 12.7857 9.21071 12.7857 9.64286C12.7857 10.075 12.4321 10.4286 12 10.4286ZM7.28571 15.5121V16.7143H16.7143V15.5121C16.7143 13.5479 13.595 12.6993 12 12.6993C10.405 12.6993 7.28571 13.54 7.28571 15.5121ZM9.10071 15.1429C9.64286 14.7029 10.9707 14.2629 12 14.2629C13.0293 14.2629 14.365 14.7029 14.8993 15.1429H9.10071Z" fill="black"/>
</g>
<defs>
<clipPath id="clip0_221_593">
<rect width="24" height="24" fill="white"/>
</clipPath>
</defs>
</svg>
