<svg width="82" height="76" viewBox="0 0 82 76" fill="none" xmlns="http://www.w3.org/2000/svg">
<g clip-path="url(#clip0_74_96056)">
<path d="M81.5821 26.853C81.5895 25.8792 81.608 24.9055 81.6043 23.9317C81.5821 19.9664 80.1215 16.7057 76.8165 14.4077C73.8803 12.3716 70.5458 11.8699 67.0601 12.0285C66.8646 10.0662 66.6101 8.26985 68.897 7.00097C70.5348 6.09357 70.6528 3.98 69.8708 2.29062C69.6827 1.88857 69.4245 1.57503 69.1294 1.30577C68.1814 0.438944 66.9163 0 65.6326 0H16.209C15.0213 0 13.8409 0.431567 13.0331 1.30208C13.0294 1.30945 13.0258 1.31314 13.0221 1.31683C11.4323 3.06892 11.4765 6.15997 13.5016 7.20384C15.3938 8.17764 15.4713 9.49447 15.3311 11.1543C15.3053 11.4531 15.3016 11.7593 15.2906 12.0617C14.5602 12.0507 13.8262 11.9953 13.0995 12.0433C9.63593 12.2609 6.3752 13.006 3.91121 15.7208C3.08497 16.193 2.55012 16.9491 2.14806 17.7533C1.9747 18.1 1.80871 18.4504 1.6501 18.8045C0.735325 20.8148 0.263184 23.0021 0.263184 25.2116L0.550895 33.0942L0.576715 33.4003C0.964018 35.4512 1.52469 37.4135 2.39889 39.2099C3.27677 41.0062 4.47188 42.6366 6.12806 44.0235C9.1896 47.1035 13.0368 48.306 17.2344 48.376C19.1525 48.4092 20.8013 48.4572 21.8784 50.3826C22.2657 51.0835 23.103 51.5335 23.7375 52.0978C25.8953 54.2299 28.3667 55.768 31.0962 56.8156L31.1626 56.8377C40.4727 60.1353 48.7794 57.6455 50.7122 56.9705H50.7159C54.2422 55.6979 57.3775 53.7061 59.9227 50.7257C60.203 50.5044 60.594 50.3384 60.7415 50.047C61.4866 48.5974 62.6559 48.2949 64.1904 48.3945C66.1822 48.5273 68.1593 48.2469 70.0257 47.4576C75.4591 45.8125 78.871 42.2124 80.553 36.9303C80.6563 36.6094 80.7743 36.2922 80.9034 35.9786C82.0912 33.0278 81.6928 29.9256 81.5821 26.853ZM14.6377 40.9767C14.4016 40.9251 14.1582 40.9103 13.9147 40.8808C11.3032 40.2169 9.61748 38.7303 8.51459 36.7274C7.65146 35.1561 7.25309 33.3745 7.25678 31.5818C7.26046 29.9847 7.27153 28.3875 7.20882 26.794C7.10554 24.3005 7.71416 22.246 9.26707 20.7484C10.2777 19.7672 11.613 19.1955 13.011 19.0148C13.7745 18.9188 14.5344 18.8229 15.2979 18.7234C15.309 23.5886 15.3422 28.4539 15.3201 33.3192C15.3127 35.3995 15.4197 37.4652 16.0578 39.4459C16.5484 40.9546 15.9988 41.2829 14.6377 40.9767ZM74.7914 32.8433C74.5775 34.3077 74.1017 35.6356 73.6258 36.993C71.752 39.634 69.2032 41.0099 65.9535 41.0689C67.7314 33.6991 66.6433 26.1891 67.049 18.7492C70.5274 18.8193 73.3012 20.0254 74.6771 23.4817C74.8652 26.5985 75.2488 29.697 74.7914 32.8433Z" fill="url(#paint0_linear_74_96056)"/>
<path d="M41.0958 33.6772L36.1531 36.274C35.0871 36.8346 33.844 35.9309 34.0469 34.7432L34.9912 29.2398L30.9927 25.3409C30.1296 24.4999 30.6054 23.0393 31.7968 22.8659L37.3224 22.0618L39.7937 17.0563C40.3249 15.9793 41.863 15.9793 42.3942 17.0563L44.8656 22.0618L50.3911 22.8659C51.5825 23.0393 52.0583 24.4999 51.1952 25.3409L47.1967 29.2398L48.141 34.7432C48.3439 35.9272 47.1008 36.8346 46.0348 36.274L41.0958 33.6772Z" fill="#FFF5C5"/>
<path d="M47.6248 70.6625C47.3113 70.6515 46.7986 70.6736 46.4851 70.6847C45.5666 70.7105 45.2309 70.2347 45.2531 69.2055C45.3084 66.1551 45.36 63.1009 45.2346 60.0541C45.1867 58.9365 45.4227 58.3389 46.1678 57.959C43.3645 58.4459 39.5099 58.7262 35.2201 57.9258C35.6627 58.2209 35.8508 58.7151 35.825 59.4934C35.7291 62.1714 35.8139 64.8567 35.7918 67.5383C35.7586 71.1125 36.2492 70.6146 32.6934 70.6441C28.7134 70.6773 28.7429 70.6552 28.9273 74.7126C28.9716 75.6348 29.215 76.0294 30.1888 75.9963C32.4425 75.9262 34.6963 75.9372 36.9537 75.9151C41.4059 75.9372 45.8617 75.9409 50.3175 75.9963C51.2544 76.0073 51.6233 75.7122 51.5827 74.7421C51.413 70.4597 52.5528 70.7806 47.6248 70.6625Z" fill="url(#paint1_linear_74_96056)"/>
</g>
<defs>
<linearGradient id="paint0_linear_74_96056" x1="77.7312" y1="29.5789" x2="1.49518" y2="28.5682" gradientUnits="userSpaceOnUse">
<stop stop-color="#FFDF48"/>
<stop offset="0.1" stop-color="#FFD945"/>
<stop offset="0.22" stop-color="#FFCB3D"/>
<stop offset="0.31" stop-color="#FFBC36"/>
<stop offset="0.38" stop-color="#FFCE39"/>
<stop offset="0.46" stop-color="#FFDA3C"/>
<stop offset="0.54" stop-color="#FFDE3D"/>
<stop offset="0.61" stop-color="#FFDA3A"/>
<stop offset="0.67" stop-color="#FFCE31"/>
<stop offset="0.72" stop-color="#FFC127"/>
<stop offset="0.77" stop-color="#FFCB29"/>
<stop offset="0.86" stop-color="#FFD32B"/>
<stop offset="1" stop-color="#FFD62C"/>
</linearGradient>
<linearGradient id="paint1_linear_74_96056" x1="50.5684" y1="67.1436" x2="29.2999" y2="66.8633" gradientUnits="userSpaceOnUse">
<stop stop-color="#FFDF48"/>
<stop offset="0.19" stop-color="#FFC93C"/>
<stop offset="0.35" stop-color="#FFBC36"/>
<stop offset="0.39" stop-color="#FFC838"/>
<stop offset="0.44" stop-color="#FFDE3D"/>
<stop offset="0.52" stop-color="#FFD435"/>
<stop offset="0.62" stop-color="#FFC127"/>
<stop offset="0.69" stop-color="#FFCB29"/>
<stop offset="0.81" stop-color="#FFD32B"/>
<stop offset="1" stop-color="#FFD62C"/>
</linearGradient>
<clipPath id="clip0_74_96056">
<rect width="81.4739" height="76" fill="white" transform="translate(0.263184)"/>
</clipPath>
</defs>
</svg>
