<?xml version="1.0" encoding="UTF-8"?>
<svg xmlns="http://www.w3.org/2000/svg" xmlns:xlink="http://www.w3.org/1999/xlink" version="1.1" id="Capa_1" x="0px" y="0px" viewBox="0 0 512 512" style="enable-background:new 0 0 512 512;" xml:space="preserve" width="512" height="512">
<g>
	<g>
		<path style="fill:none;stroke:#000000;stroke-width:30;stroke-linecap:round;stroke-linejoin:round;stroke-miterlimit:10;" d="&#10;&#9;&#9;&#9;M380.609,228.417V25c0-5.523-4.477-10-10-10H25c-5.523,0-10,4.477-10,10v461.998c0,5.523,4.477,10,10,10L370.473,497"/>
		
			<line style="fill:none;stroke:#000000;stroke-width:30;stroke-linecap:round;stroke-linejoin:round;stroke-miterlimit:10;" x1="85.482" y1="228.855" x2="201.262" y2="228.855"/>
		
			<line style="fill:none;stroke:#000000;stroke-width:30;stroke-linecap:round;stroke-linejoin:round;stroke-miterlimit:10;" x1="85.482" y1="168.851" x2="201.262" y2="168.851"/>
		
			<line style="fill:none;stroke:#000000;stroke-width:30;stroke-linecap:round;stroke-linejoin:round;stroke-miterlimit:10;" x1="85.482" y1="108.847" x2="309.181" y2="108.847"/>
		
			<line style="fill:none;stroke:#000000;stroke-width:30;stroke-linecap:round;stroke-linejoin:round;stroke-miterlimit:10;" x1="85.482" y1="288.451" x2="201.262" y2="288.451"/>
		
			<line style="fill:none;stroke:#000000;stroke-width:30;stroke-linecap:round;stroke-linejoin:round;stroke-miterlimit:10;" x1="85.482" y1="338.454" x2="201.262" y2="338.454"/>
		
			<line style="fill:none;stroke:#000000;stroke-width:30;stroke-linecap:round;stroke-linejoin:round;stroke-miterlimit:10;" x1="85.482" y1="398.458" x2="201.262" y2="398.458"/>
		<g>
			<path style="fill:none;stroke:#000000;stroke-width:30;stroke-linecap:round;stroke-linejoin:round;stroke-miterlimit:10;" d="&#10;&#9;&#9;&#9;&#9;M496.995,333.544l-0.529-69.699c-25.165,0.186-46.961-14.341-57.012-35.427l-120.147,0.887&#10;&#9;&#9;&#9;&#9;c-9.73,21.232-31.304,36.08-56.468,36.265l0.529,69.699c0.445,58.63,32.271,112.661,83.685,142.072l34.363,19.657l34.061-20.162&#10;&#9;&#9;&#9;&#9;C466.438,446.669,497.44,392.174,496.995,333.544z"/>
		</g>
	</g>
	<g>
		
			<polyline style="fill:none;stroke:#000000;stroke-width:30;stroke-linecap:round;stroke-linejoin:round;stroke-miterlimit:10;" points="&#10;&#9;&#9;&#9;344.128,355.168 369.858,386.774 424.128,329.07 &#9;&#9;"/>
	</g>
</g>















</svg>
