<svg width="118" height="28" viewBox="0 0 118 28" fill="none" xmlns="http://www.w3.org/2000/svg">
<g id="Logo">
<path id="Union" fill-rule="evenodd" clip-rule="evenodd" d="M96.6867 0H100.219L103.436 3.94149L100.219 8.11319H96.6867L99.8411 3.94149L96.6867 0ZM107.322 0H103.437L106.907 3.94149L103.437 8.11319H107.322L110.861 3.94149L107.322 0ZM114.07 0H110.185L113.655 3.94149L110.185 8.11319H114.07L117.609 3.94149L114.07 0Z" fill="#FFC226"/>
<path id="Vector" d="M101.442 9.74159H96.6504V27.6125H101.442V9.74159ZM87.4422 9.38944C86.3815 9.37918 85.3298 9.58853 84.3534 10.0044C83.428 10.4058 82.598 10.9989 81.918 11.7448V3.99453H77.1255V27.6125H81.917V17.8936C81.917 16.6308 82.2967 15.6407 83.0557 14.9233C83.8147 14.1994 84.8312 13.8374 86.1049 13.8374C87.2299 13.8374 88.0961 14.1762 88.7039 14.8538C89.301 15.5348 89.5998 16.5116 89.6 17.7843V27.6123H94.4213V17.2439C94.4213 14.7742 93.8434 12.847 92.688 11.4621C91.503 10.0803 89.7553 9.38944 87.4422 9.38944ZM70.0666 9.74159V5.4027L65.2591 5.90814V9.74112H62.1012V13.8369H65.2591V21.6022C65.2591 23.7245 65.8185 25.3067 66.9371 26.3486C68.0593 27.3898 69.6566 27.9105 71.729 27.9105C72.7001 27.9056 73.6683 27.8058 74.6201 27.6125V23.4969C74.0514 23.582 73.4771 23.6234 72.9022 23.6207C71.9353 23.6207 71.2225 23.4273 70.7638 23.0405C70.2984 22.6571 70.0658 22.0026 70.0658 21.0769V13.8374H74.3773V9.74159H70.0666ZM60.2153 9.74159H56.0413L55.8631 11.5167C54.275 10.0885 52.2056 9.31601 50.0715 9.35471C48.4552 9.3314 46.8621 9.74233 45.4581 10.5448C44.0954 11.3177 42.977 12.4586 42.2302 13.8374C41.7819 14.6611 41.463 15.5492 41.2848 16.4704C41.1396 17.1935 41.0684 17.9295 41.0718 18.6671C41.0697 19.4046 41.1409 20.1406 41.2848 20.8639C41.4695 21.7569 41.7776 22.6197 42.2006 23.4274C42.9304 24.8181 44.0348 25.9758 45.3888 26.7692C46.8072 27.6022 48.4274 28.0274 50.0715 27.9988C51.1386 28.0052 52.1975 27.8136 53.1949 27.4337C54.1783 27.0682 55.0836 26.5196 55.8631 25.8171L56.0413 27.6121H60.2142L60.2153 9.74159ZM47.3044 15.2259C48.1789 14.3234 49.3123 13.8721 50.7051 13.8721C51.3319 13.8525 51.9562 13.9625 52.5389 14.1955C53.1214 14.4284 53.6496 14.7792 54.0908 15.2259C54.9505 16.1651 55.4275 17.3929 55.4275 18.6671C55.4275 19.9413 54.9505 21.1692 54.0908 22.1084C53.6496 22.5551 53.1214 22.9059 52.5389 23.1388C51.9562 23.3717 51.3319 23.4818 50.7051 23.4621C49.3123 23.4621 48.1789 23.0109 47.3044 22.1084C46.4447 21.1692 45.9679 19.9413 45.9679 18.6671C45.9679 17.3929 46.4447 16.1651 47.3044 15.2259ZM19.6968 16.4706C19.5517 17.1937 19.4803 17.9298 19.4839 18.6673C19.4815 19.4049 19.5529 20.1408 19.6968 20.8641C19.8814 21.7571 20.1897 22.62 20.6124 23.4276C21.3424 24.8183 22.4471 25.9761 23.8009 26.7692C25.2195 27.6022 26.8397 28.0274 28.4838 27.9988C29.5507 28.0052 30.6098 27.8136 31.6072 27.4337C32.5904 27.0682 33.4958 26.5198 34.2754 25.8171L34.4536 27.6121H38.6265V9.74159H34.4532L34.275 11.5167C32.6866 10.0885 30.6172 9.31601 28.4832 9.35471C26.8668 9.3314 25.274 9.74233 23.87 10.5448C22.5072 11.3178 21.389 12.4587 20.6423 13.8374C20.1939 14.6611 19.875 15.5495 19.6968 16.4706ZM24.3796 18.6671C24.3575 18.0327 24.4647 17.4005 24.6947 16.8088C24.9244 16.2172 25.2719 15.6787 25.7162 15.2259C26.5905 14.3234 27.7242 13.8721 29.1168 13.8721C29.7438 13.8525 30.368 13.9625 30.9505 14.1955C31.5332 14.4284 32.0615 14.7792 32.5027 15.2259C33.3624 16.1651 33.8391 17.3929 33.8391 18.6671C33.8391 19.9413 33.3624 21.1692 32.5027 22.1084C32.0615 22.5551 31.5332 22.9059 30.9505 23.1388C30.368 23.3717 29.7438 23.4818 29.1168 23.4621C27.7242 23.4621 26.5905 23.0109 25.7162 22.1084C25.2719 21.6556 24.9244 21.117 24.6947 20.5254C24.4647 19.9338 24.3575 19.3016 24.3796 18.6671ZM17.2658 24.5036C18.0487 23.3408 18.4535 21.9638 18.4242 20.5615C18.4242 18.502 17.723 16.8921 16.3209 15.7318C14.915 14.5979 12.8854 13.8012 10.2322 13.3417C8.55909 13.0739 7.40721 12.7466 6.77702 12.3598C6.48312 12.1969 6.23944 11.9563 6.07267 11.6643C5.90591 11.3722 5.82242 11.0399 5.83132 10.7036C5.8203 10.3686 5.89722 10.0366 6.05445 9.74072C6.21168 9.44485 6.44371 9.19551 6.72723 9.0176C7.33453 8.59776 8.16453 8.38784 9.21724 8.38784C10.2897 8.38784 11.1411 8.61096 11.7715 9.0572C12.0889 9.30003 12.355 9.60339 12.5546 9.9498C12.7542 10.2962 12.8835 10.6788 12.9348 11.0754H18.0038C17.8057 8.81432 16.9229 7.01101 15.3555 5.66549C13.7978 4.33002 11.7863 3.66228 9.32129 3.66228C7.79096 3.63562 6.27249 3.93479 4.86612 4.54002C3.63033 5.06163 2.57508 5.93592 1.83174 7.05398C1.08247 8.18723 0.697241 9.5231 0.727966 10.8821C0.727966 12.9316 1.40456 14.5019 2.75753 15.5929C4.11346 16.6705 6.09026 17.4375 8.68771 17.8936C10.3378 18.1878 11.5076 18.5514 12.1974 18.9846C12.5036 19.1638 12.7583 19.4192 12.9369 19.726C13.1155 20.0329 13.2122 20.3807 13.217 20.7359C13.2221 21.091 13.1352 21.4415 12.9653 21.7532C12.7954 22.0649 12.5479 22.3274 12.247 22.5152C11.5935 22.9483 10.6825 23.1649 9.51453 23.1649C8.2868 23.1649 7.32647 22.9021 6.63335 22.3765C6.28796 22.1014 6.00593 21.7547 5.80674 21.3601C5.60777 20.9655 5.49631 20.5324 5.47999 20.0906H0.390625C0.542556 22.5603 1.42532 24.4875 3.03914 25.8724C4.63961 27.2307 6.79779 27.9098 9.51369 27.9098C11.0826 27.9367 12.6398 27.6378 14.0877 27.0321C15.3665 26.5109 16.4695 25.6334 17.2658 24.5036Z" fill="black"/>
</g>
</svg>
