<svg width="36" height="36" viewBox="0 0 36 36" fill="none" xmlns="http://www.w3.org/2000/svg">
<path d="M16.5 21H19.5V10.5H16.5V21ZM21 18.75H24V12H21V18.75ZM12 18H15V12H12V18ZM9 33V26.55C7.575 25.25 6.46875 23.7313 5.68125 21.9938C4.89375 20.2563 4.5 18.425 4.5 16.5C4.5 12.75 5.8125 9.5625 8.4375 6.9375C11.0625 4.3125 14.25 3 18 3C21.125 3 23.8938 3.91875 26.3063 5.75625C28.7188 7.59375 30.2875 9.9875 31.0125 12.9375L32.9625 20.625C33.0875 21.1 33 21.5312 32.7 21.9188C32.4 22.3063 32 22.5 31.5 22.5H28.5V27C28.5 27.825 28.2063 28.5313 27.6188 29.1188C27.0312 29.7063 26.325 30 25.5 30H22.5V33H19.5V27H25.5V19.5H29.55L28.125 13.6875C27.55 11.4125 26.325 9.5625 24.45 8.1375C22.575 6.7125 20.425 6 18 6C15.1 6 12.625 7.0125 10.575 9.0375C8.525 11.0625 7.5 13.525 7.5 16.425C7.5 17.925 7.80625 19.35 8.41875 20.7C9.03125 22.05 9.9 23.25 11.025 24.3L12 25.2V33H9Z" fill="black"/>
</svg>
