<svg width="36" height="36" viewBox="0 0 36 36" fill="none" xmlns="http://www.w3.org/2000/svg">
<g clip-path="url(#clip0_31_52535)">
<path d="M17.985 3C9.705 3 3 9.72 3 18C3 26.28 9.705 33 17.985 33C26.28 33 33 26.28 33 18C33 9.72 26.28 3 17.985 3ZM29.205 13.74L21.69 13.095L18.69 6.03C23.505 6.315 27.555 9.435 29.205 13.74ZM21.6 23.13L18 20.97L14.415 23.13L15.36 19.05L12.195 16.305L16.365 15.945L18 12.09L19.635 15.93L23.805 16.29L20.64 19.035L21.6 23.13ZM17.31 6.03L14.31 13.11L6.78 13.755C8.43 9.435 12.48 6.3 17.31 6.03ZM6 18C6 17.04 6.12 16.11 6.345 15.21L12.03 20.13L10.365 27.255C7.695 25.05 6 21.72 6 18ZM11.76 28.23L18 24.465L24.24 28.215C22.41 29.34 20.28 30 17.985 30C15.705 30 13.575 29.34 11.76 28.23ZM25.635 27.255L23.97 20.13L29.655 15.21C29.865 16.095 30 17.04 30 18C30 21.72 28.29 25.05 25.635 27.255Z" fill="black"/>
</g>
<defs>
<clipPath id="clip0_31_52535">
<rect width="36" height="36" fill="white"/>
</clipPath>
</defs>
</svg>
