<svg width="20" height="20" viewBox="0 0 20 20" fill="none" xmlns="http://www.w3.org/2000/svg">
<path d="M5.76 5.74999C6.93 4.57999 8.46 3.98999 10 3.98999V9.98999L14.24 14.23C11.9 16.57 8.1 16.57 5.75 14.23C3.41 11.89 3.41 8.08999 5.76 5.74999ZM10 -0.0100098C15.52 -0.0100098 20 4.46999 20 9.98999C20 15.51 15.52 19.99 10 19.99C4.48 19.99 0 15.51 0 9.98999C0 4.46999 4.48 -0.0100098 10 -0.0100098ZM10 17.99C14.42 17.99 18 14.41 18 9.98999C18 5.56999 14.42 1.98999 10 1.98999C5.58 1.98999 2 5.56999 2 9.98999C2 14.41 5.58 17.99 10 17.99Z" fill="black"/>
</svg>
