<svg width="80" height="60" viewBox="0 0 80 60" fill="none" xmlns="http://www.w3.org/2000/svg">
<path d="M3.81551 35.2264C3.49348 35.2299 3.23348 35.3438 3.03551 35.5683C2.83755 35.7928 2.7204 36.1109 2.68406 36.5224C2.65937 36.8021 2.6781 37.0417 2.74025 37.2413C2.79976 37.4407 2.89357 37.5979 3.02168 37.7129C3.15003 37.8252 3.30126 37.8891 3.4754 37.9045C3.62004 37.9226 3.74936 37.9034 3.86336 37.847C3.97758 37.7879 4.07951 37.7025 4.16915 37.5908C4.25614 37.4788 4.33553 37.3476 4.40732 37.197C4.47646 37.0463 4.53863 36.8843 4.59381 36.711L4.83222 35.9982C4.94258 35.6516 5.07677 35.3364 5.23477 35.0526C5.39278 34.7687 5.57763 34.5271 5.78933 34.3278C6.00103 34.1284 6.24271 33.9809 6.51439 33.8852C6.78631 33.7869 7.09123 33.7514 7.42918 33.7785C7.92495 33.825 8.34383 33.9896 8.68579 34.2724C9.02536 34.5523 9.27467 34.9359 9.43372 35.4232C9.59037 35.9077 9.63959 36.4797 9.58136 37.1393C9.5236 37.7936 9.37303 38.3547 9.12966 38.8224C8.88652 39.2875 8.5564 39.6386 8.13929 39.8757C7.71978 40.1098 7.2179 40.2078 6.63366 40.1695L6.78005 38.5113C7.05343 38.5168 7.2872 38.459 7.48136 38.3379C7.67311 38.2139 7.8254 38.0399 7.93824 37.8159C8.04868 37.589 8.11694 37.3278 8.14302 37.0323C8.16864 36.7421 8.14867 36.4864 8.08311 36.2652C8.01778 36.0414 7.91517 35.8635 7.77526 35.7315C7.63535 35.5995 7.46778 35.5249 7.27254 35.5076C7.0905 35.4916 6.9327 35.5322 6.79915 35.6294C6.66583 35.724 6.54655 35.8703 6.44132 36.0684C6.33632 36.2639 6.23515 36.5062 6.13783 36.7954L5.8383 37.6584C5.61176 38.3271 5.30425 38.8437 4.91577 39.2082C4.5273 39.5728 4.03372 39.7273 3.43505 39.6718C2.94408 39.6311 2.52687 39.4626 2.18343 39.1664C1.84022 38.8676 1.58622 38.4769 1.42142 37.9944C1.25662 37.5118 1.20031 36.9751 1.25248 36.3841C1.30558 35.7826 1.45483 35.2666 1.70022 34.8362C1.94584 34.4033 2.26308 34.0776 2.65194 33.8594C3.04079 33.6411 3.47698 33.5493 3.9605 33.584L3.81551 35.2264Z" fill="url(#paint0_linear_74_96062)"/>
<path d="M10.4214 31.1614L9.80609 32.8991L3.07379 27.5354L3.81378 25.4456L12.4199 25.5176L11.8046 27.2553L5.20709 27.0812L5.18587 27.1411L10.4214 31.1614ZM7.36819 30.2024L8.82166 26.0978L10.0875 26.5461L8.63402 30.6507L7.36819 30.2024Z" fill="url(#paint1_linear_74_96062)"/>
<path d="M13.5476 23.7883L12.5279 25.324L7.30335 18.4831L8.52966 16.6363L16.8596 18.8005L15.8398 20.3362L9.48304 18.5618L9.44788 18.6147L13.5476 23.7883ZM10.8196 22.1151L13.2282 18.4877L14.3469 19.2305L11.9382 22.8579L10.8196 22.1151Z" fill="url(#paint2_linear_74_96062)"/>
<path d="M12.1059 14.1632L11.1444 13.1205L16.057 8.59049L17.0185 9.63318L15.1872 11.3219L19.7415 16.2608L18.4915 17.4135L13.9372 12.4746L12.1059 14.1632Z" fill="url(#paint3_linear_74_96062)"/>
<path d="M22.5999 13.6856L18.805 6.48823L20.3267 5.68589L21.8925 8.65552L24.9816 7.02675L23.4158 4.05712L24.934 3.25664L28.7289 10.454L27.2107 11.2545L25.6431 8.28137L22.554 9.91014L24.1216 12.8833L22.5999 13.6856Z" fill="url(#paint4_linear_74_96062)"/>
<path d="M29.8626 1.62953L32.0462 9.46763L30.389 9.92929L28.2054 2.09118L29.8626 1.62953Z" fill="url(#paint5_linear_74_96062)"/>
<path d="M39.7535 8.10855L40.4281 0L43.6272 0.266141C44.2395 0.317085 44.753 0.470103 45.1677 0.725195C45.5852 0.977866 45.8909 1.31293 46.0847 1.73038C46.2814 2.14541 46.3575 2.62083 46.3129 3.15665C46.2681 3.69511 46.1134 4.14868 45.8489 4.51736C45.5845 4.88341 45.2234 5.15103 44.7655 5.32024C44.3102 5.48967 43.7711 5.54848 43.1482 5.49665L41.0062 5.31846L41.1208 3.94064L42.9856 4.09578C43.3129 4.123 43.5885 4.10075 43.8125 4.02901C44.0364 3.95728 44.2086 3.83606 44.3291 3.66535C44.4522 3.49487 44.5249 3.27633 44.5471 3.00974C44.5695 2.74052 44.5342 2.50902 44.4414 2.31525C44.3512 2.1217 44.2005 1.9683 43.9893 1.85505C43.781 1.73939 43.5119 1.66783 43.1819 1.64038L42.0258 1.5442L41.4679 8.25118L39.7535 8.10855ZM44.4394 4.78283L46.1477 8.64051L44.2552 8.48306L42.5905 4.629L44.4394 4.78283Z" fill="url(#paint6_linear_74_96062)"/>
<path d="M48.765 9.31598L47.0179 8.72805L52.2751 1.91222L54.3762 2.61926L54.4396 11.2255L52.6924 10.6376L52.7627 4.03811L52.7025 4.01784L48.765 9.31598ZM49.6759 6.24804L53.8028 7.63677L53.3745 8.9095L49.2476 7.52077L49.6759 6.24804Z" fill="url(#paint7_linear_74_96062)"/>
<path d="M57.6898 5.43594L58.4506 4.2389L64.0905 7.8232L63.3297 9.02025L61.2273 7.68413L57.6238 13.3542L56.1887 12.4421L59.7922 6.77207L57.6898 5.43594Z" fill="url(#paint8_linear_74_96062)"/>
<path d="M67.7087 11.0132L62.0749 16.8839L60.8337 15.6928L66.4675 9.8221L67.7087 11.0132Z" fill="url(#paint9_linear_74_96062)"/>
<path d="M74.7997 19.8858L68.0534 24.4347L67.2227 23.2027L69.4898 17.4047L69.4565 17.3553L65.2104 20.2183L64.2487 18.7919L70.9949 14.2431L71.839 15.4949L69.5596 21.2676L69.5996 21.3269L73.8424 18.4661L74.7997 19.8858Z" fill="url(#paint10_linear_74_96062)"/>
<path d="M75.9017 29.4103C76.068 29.2971 76.2058 29.1695 76.3153 29.0275C76.4273 28.8847 76.5095 28.728 76.5622 28.5574C76.6181 28.3884 76.6435 28.2072 76.6385 28.0137C76.6342 27.8227 76.5973 27.6215 76.5278 27.4102C76.3979 27.0152 76.1856 26.7002 75.8909 26.4654C75.597 26.233 75.2353 26.0954 74.8058 26.0527C74.3788 26.0091 73.8961 26.0758 73.3576 26.2529C72.8192 26.43 72.3882 26.6624 72.0646 26.95C71.7409 27.2377 71.529 27.5639 71.4287 27.9287C71.3309 28.2926 71.349 28.6784 71.4831 29.086C71.6047 29.4559 71.774 29.7501 71.9909 29.9688C72.2111 30.1891 72.4648 30.3287 72.7518 30.3877C73.0397 30.4491 73.3484 30.4257 73.678 30.3173L73.7382 30.6655L73.0828 28.6728L74.3132 28.2682L75.3769 31.5026L74.4032 31.8228C73.7239 32.0462 73.093 32.0948 72.5105 31.9685C71.9306 31.8413 71.4258 31.5696 70.9961 31.1533C70.5689 30.7361 70.2486 30.203 70.0351 29.5539C69.7968 28.8292 69.7472 28.1401 69.8864 27.4865C70.028 26.8321 70.344 26.2542 70.8344 25.7528C71.328 25.2531 71.9825 24.8692 72.7977 24.6011C73.4241 24.395 74.0125 24.3019 74.5627 24.3217C75.1162 24.3432 75.6183 24.4625 76.0689 24.6795C76.5195 24.8966 76.9061 25.1946 77.2287 25.5737C77.5513 25.9527 77.7966 26.3976 77.9646 26.9084C78.1086 27.3462 78.1785 27.7749 78.1743 28.1945C78.1726 28.6133 78.104 29.0066 77.9685 29.3746C77.8339 29.7451 77.6374 30.076 77.3791 30.3673C77.1233 30.6578 76.8129 30.8923 76.4478 31.0709L75.9017 29.4103Z" fill="url(#paint11_linear_74_96062)"/>
<path d="M77.5537 38.2884C77.8718 38.2382 78.1125 38.0877 78.2758 37.8368C78.4391 37.586 78.5088 37.2543 78.485 36.8418C78.4688 36.5615 78.4155 36.3271 78.325 36.1387C78.2372 35.9501 78.1215 35.8082 77.9781 35.713C77.8348 35.6205 77.6759 35.5792 77.5014 35.5893C77.3556 35.5924 77.2305 35.6302 77.1259 35.7025C77.0214 35.7775 76.933 35.8768 76.8605 36.0004C76.7907 36.1238 76.7312 36.2652 76.682 36.4246C76.6355 36.5838 76.5975 36.7531 76.5681 36.9326L76.4357 37.6725C76.3768 38.0314 76.2899 38.3627 76.1747 38.6665C76.0596 38.9703 75.9118 39.2361 75.7313 39.4641C75.5508 39.6921 75.3331 39.8731 75.0782 40.0072C74.8234 40.144 74.5269 40.2234 74.1886 40.2456C73.6913 40.2717 73.253 40.1696 72.8736 39.9395C72.497 39.7119 72.1946 39.3685 71.9665 38.9094C71.7411 38.4529 71.6094 37.8941 71.5712 37.233C71.5334 36.5772 71.6009 36.0003 71.7737 35.5021C71.9468 35.0066 72.2224 34.6113 72.6007 34.3162C72.9817 34.0236 73.4641 33.8539 74.0477 33.8069L74.1436 35.4688C73.8723 35.503 73.6494 35.5942 73.4749 35.7422C73.3032 35.8927 73.1778 36.087 73.0987 36.325C73.0224 36.5655 72.9928 36.8339 73.0099 37.13C73.0266 37.4209 73.0835 37.671 73.1805 37.8803C73.2776 38.0922 73.405 38.2533 73.5626 38.3636C73.7202 38.4739 73.8968 38.5234 74.0925 38.5121C74.2749 38.5016 74.4252 38.4385 74.5432 38.3229C74.6614 38.21 74.7581 38.0479 74.8335 37.8366C74.909 37.6279 74.9739 37.3735 75.0282 37.0732L75.1992 36.1759C75.3263 35.4814 75.5555 34.9256 75.8869 34.5086C76.2184 34.0915 76.6843 33.8669 77.2847 33.8349C77.7763 33.8039 78.2136 33.91 78.5964 34.1532C78.9794 34.399 79.2874 34.7487 79.5205 35.2021C79.7536 35.6556 79.8873 36.1785 79.9215 36.7708C79.9563 37.3737 79.8835 37.9058 79.7032 38.3673C79.5231 38.8313 79.2565 39.1996 78.9035 39.472C78.5504 39.7444 78.1322 39.8986 77.6487 39.9344L77.5537 38.2884Z" fill="url(#paint12_linear_74_96062)"/>
<path d="M16.6992 35.8827V33.1732L23.493 22.4701H25.829V26.2205H24.4465L20.1636 32.9984V33.1255H29.8179V35.8827H16.6992ZM24.51 38.7432V35.0563L24.5736 33.8565V22.4701H27.7996V38.7432H24.51Z" fill="#FFC226"/>
<path d="M33.8146 38.9498C33.2902 38.9498 32.8399 38.7644 32.4638 38.3936C32.093 38.0175 31.9076 37.5672 31.9076 37.0428C31.9076 36.5237 32.093 36.0787 32.4638 35.7079C32.8399 35.3371 33.2902 35.1517 33.8146 35.1517C34.3232 35.1517 34.7681 35.3371 35.1495 35.7079C35.5309 36.0787 35.7216 36.5237 35.7216 37.0428C35.7216 37.3924 35.6316 37.7129 35.4515 38.0043C35.2767 38.2903 35.0462 38.5207 34.7602 38.6955C34.4741 38.8651 34.159 38.9498 33.8146 38.9498Z" fill="#FFC226"/>
<path d="M38.5007 38.7432L45.2468 25.3942V25.2829H37.3883V22.4701H48.8065V25.3227L42.0525 38.7432H38.5007Z" fill="#FFC226"/>
<path d="M56.8894 38.9657C55.7664 38.9657 54.7652 38.7591 53.8859 38.3459C53.0119 37.9327 52.3179 37.3633 51.8041 36.6376C51.2902 35.9118 51.0227 35.0802 51.0015 34.1426H54.3388C54.3759 34.7729 54.6408 35.2841 55.1334 35.6761C55.626 36.0681 56.2114 36.2641 56.8894 36.2641C57.4298 36.2641 57.9065 36.1449 58.3197 35.9066C58.7382 35.6629 59.0639 35.3265 59.297 34.8974C59.5354 34.4631 59.6546 33.9651 59.6546 33.4036C59.6546 32.8315 59.5328 32.3283 59.2891 31.8939C59.0507 31.4595 58.7196 31.1205 58.2958 30.8768C57.8721 30.6331 57.3874 30.5087 56.8418 30.5034C56.365 30.5034 55.9015 30.6014 55.4512 30.7974C55.0063 30.9934 54.6593 31.2609 54.4103 31.5999L51.3512 31.0516L52.1219 22.4701H62.0701V25.2829H54.9586L54.5375 29.3592H54.6328C54.9189 28.9566 55.3506 28.6228 55.928 28.358C56.5054 28.0931 57.1516 27.9607 57.8668 27.9607C58.8468 27.9607 59.7208 28.1911 60.4889 28.652C61.257 29.1128 61.8635 29.7459 62.3085 30.551C62.7535 31.3509 62.9733 32.2726 62.968 33.3162C62.9733 34.4127 62.719 35.3874 62.2052 36.2403C61.6967 37.0878 60.9842 37.7553 60.0678 38.2426C59.1567 38.7247 58.0972 38.9657 56.8894 38.9657Z" fill="#FFC226"/>
<path d="M7.12836 46.5747L9.30945 50.9933L14.1869 51.7062L10.6576 55.1437L11.4905 60L7.12836 57.706L2.76618 60L3.59909 55.1437L0.0698242 51.7062L4.94727 50.9933L7.12836 46.5747Z" fill="url(#paint13_linear_74_96062)"/>
<path d="M23.483 46.5747L25.6641 50.9933L30.5415 51.7062L27.0123 55.1437L27.8452 60L23.483 57.706L19.1208 60L19.9537 55.1437L16.4244 51.7062L21.3019 50.9933L23.483 46.5747Z" fill="url(#paint14_linear_74_96062)"/>
<path d="M39.8376 46.5747L42.0187 50.9933L46.8961 51.7062L43.3669 55.1437L44.1998 60L39.8376 57.706L35.4754 60L36.3083 55.1437L32.7791 51.7062L37.6565 50.9933L39.8376 46.5747Z" fill="url(#paint15_linear_74_96062)"/>
<path d="M56.1922 46.5747L58.3733 50.9933L63.2508 51.7062L59.7215 55.1437L60.5544 60L56.1922 57.706L51.8301 60L52.663 55.1437L49.1337 51.7062L54.0111 50.9933L56.1922 46.5747Z" fill="url(#paint16_linear_74_96062)"/>
<path d="M72.5469 46.5747L74.7279 50.9933L79.6054 51.7062L76.0761 55.1437L76.909 60L72.5469 57.706L68.1847 60L69.0176 55.1437L65.4883 51.7062L70.3658 50.9933L72.5469 46.5747Z" fill="url(#paint17_linear_74_96062)"/>
<defs>
<linearGradient id="paint0_linear_74_96062" x1="0.0698242" y1="0" x2="80.3454" y2="0.561053" gradientUnits="userSpaceOnUse">
<stop stop-color="#FFC01D"/>
<stop offset="0.491554" stop-color="#FFD955"/>
<stop offset="1" stop-color="#FF9A01"/>
</linearGradient>
<linearGradient id="paint1_linear_74_96062" x1="0.0698242" y1="0" x2="80.3454" y2="0.561053" gradientUnits="userSpaceOnUse">
<stop stop-color="#FFC01D"/>
<stop offset="0.491554" stop-color="#FFD955"/>
<stop offset="1" stop-color="#FF9A01"/>
</linearGradient>
<linearGradient id="paint2_linear_74_96062" x1="0.0698242" y1="0" x2="80.3454" y2="0.561053" gradientUnits="userSpaceOnUse">
<stop stop-color="#FFC01D"/>
<stop offset="0.491554" stop-color="#FFD955"/>
<stop offset="1" stop-color="#FF9A01"/>
</linearGradient>
<linearGradient id="paint3_linear_74_96062" x1="0.0698242" y1="0" x2="80.3454" y2="0.561053" gradientUnits="userSpaceOnUse">
<stop stop-color="#FFC01D"/>
<stop offset="0.491554" stop-color="#FFD955"/>
<stop offset="1" stop-color="#FF9A01"/>
</linearGradient>
<linearGradient id="paint4_linear_74_96062" x1="0.0698242" y1="0" x2="80.3454" y2="0.561053" gradientUnits="userSpaceOnUse">
<stop stop-color="#FFC01D"/>
<stop offset="0.491554" stop-color="#FFD955"/>
<stop offset="1" stop-color="#FF9A01"/>
</linearGradient>
<linearGradient id="paint5_linear_74_96062" x1="0.0698242" y1="0" x2="80.3454" y2="0.561053" gradientUnits="userSpaceOnUse">
<stop stop-color="#FFC01D"/>
<stop offset="0.491554" stop-color="#FFD955"/>
<stop offset="1" stop-color="#FF9A01"/>
</linearGradient>
<linearGradient id="paint6_linear_74_96062" x1="0.0698242" y1="0" x2="80.3454" y2="0.561053" gradientUnits="userSpaceOnUse">
<stop stop-color="#FFC01D"/>
<stop offset="0.491554" stop-color="#FFD955"/>
<stop offset="1" stop-color="#FF9A01"/>
</linearGradient>
<linearGradient id="paint7_linear_74_96062" x1="0.0698242" y1="0" x2="80.3454" y2="0.561053" gradientUnits="userSpaceOnUse">
<stop stop-color="#FFC01D"/>
<stop offset="0.491554" stop-color="#FFD955"/>
<stop offset="1" stop-color="#FF9A01"/>
</linearGradient>
<linearGradient id="paint8_linear_74_96062" x1="0.0698242" y1="0" x2="80.3454" y2="0.561053" gradientUnits="userSpaceOnUse">
<stop stop-color="#FFC01D"/>
<stop offset="0.491554" stop-color="#FFD955"/>
<stop offset="1" stop-color="#FF9A01"/>
</linearGradient>
<linearGradient id="paint9_linear_74_96062" x1="0.0698242" y1="0" x2="80.3454" y2="0.561053" gradientUnits="userSpaceOnUse">
<stop stop-color="#FFC01D"/>
<stop offset="0.491554" stop-color="#FFD955"/>
<stop offset="1" stop-color="#FF9A01"/>
</linearGradient>
<linearGradient id="paint10_linear_74_96062" x1="0.0698242" y1="0" x2="80.3454" y2="0.561053" gradientUnits="userSpaceOnUse">
<stop stop-color="#FFC01D"/>
<stop offset="0.491554" stop-color="#FFD955"/>
<stop offset="1" stop-color="#FF9A01"/>
</linearGradient>
<linearGradient id="paint11_linear_74_96062" x1="0.0698242" y1="0" x2="80.3454" y2="0.561053" gradientUnits="userSpaceOnUse">
<stop stop-color="#FFC01D"/>
<stop offset="0.491554" stop-color="#FFD955"/>
<stop offset="1" stop-color="#FF9A01"/>
</linearGradient>
<linearGradient id="paint12_linear_74_96062" x1="0.0698242" y1="0" x2="80.3454" y2="0.561053" gradientUnits="userSpaceOnUse">
<stop stop-color="#FFC01D"/>
<stop offset="0.491554" stop-color="#FFD955"/>
<stop offset="1" stop-color="#FF9A01"/>
</linearGradient>
<linearGradient id="paint13_linear_74_96062" x1="0.0698242" y1="0" x2="80.3454" y2="0.561053" gradientUnits="userSpaceOnUse">
<stop stop-color="#FFC01D"/>
<stop offset="0.491554" stop-color="#FFD955"/>
<stop offset="1" stop-color="#FF9A01"/>
</linearGradient>
<linearGradient id="paint14_linear_74_96062" x1="0.0698242" y1="0" x2="80.3454" y2="0.561053" gradientUnits="userSpaceOnUse">
<stop stop-color="#FFC01D"/>
<stop offset="0.491554" stop-color="#FFD955"/>
<stop offset="1" stop-color="#FF9A01"/>
</linearGradient>
<linearGradient id="paint15_linear_74_96062" x1="0.0698242" y1="0" x2="80.3454" y2="0.561053" gradientUnits="userSpaceOnUse">
<stop stop-color="#FFC01D"/>
<stop offset="0.491554" stop-color="#FFD955"/>
<stop offset="1" stop-color="#FF9A01"/>
</linearGradient>
<linearGradient id="paint16_linear_74_96062" x1="0.0698242" y1="0" x2="80.3454" y2="0.561053" gradientUnits="userSpaceOnUse">
<stop stop-color="#FFC01D"/>
<stop offset="0.491554" stop-color="#FFD955"/>
<stop offset="1" stop-color="#FF9A01"/>
</linearGradient>
<linearGradient id="paint17_linear_74_96062" x1="79.6054" y1="53.2873" x2="65.4883" y2="53.2873" gradientUnits="userSpaceOnUse">
<stop offset="0.447013" stop-color="#FFE4B7" stop-opacity="0.4"/>
<stop offset="0.447113" stop-color="#FFE4B7" stop-opacity="0.4"/>
<stop offset="0.447213" stop-color="#FFA10A"/>
<stop offset="1" stop-color="#FFC931"/>
</linearGradient>
</defs>
</svg>
