<svg width="22" height="22" viewBox="0 0 22 22" fill="none" xmlns="http://www.w3.org/2000/svg">
<path d="M22 10.99L19.56 8.2L19.9 4.51L16.29 3.69L14.4 0.5L11 1.96L7.6 0.5L5.71 3.69L2.1 4.5L2.44 8.2L0 10.99L2.44 13.78L2.1 17.48L5.71 18.3L7.6 21.5L11 20.03L14.4 21.49L16.29 18.3L19.9 17.48L19.56 13.79L22 10.99ZM18.05 12.47L17.49 13.12L17.57 13.97L17.75 15.92L15.85 16.35L15.01 16.54L14.57 17.28L13.58 18.96L11.8 18.19L11 17.85L10.21 18.19L8.43 18.96L7.44 17.29L7 16.55L6.16 16.36L4.26 15.93L4.44 13.97L4.52 13.12L3.96 12.47L2.67 11L3.96 9.52L4.52 8.87L4.43 8.01L4.25 6.07L6.15 5.64L6.99 5.45L7.43 4.71L8.42 3.03L10.2 3.8L11 4.14L11.79 3.8L13.57 3.03L14.56 4.71L15 5.45L15.84 5.64L17.74 6.07L17.56 8.02L17.48 8.87L18.04 9.52L19.33 10.99L18.05 12.47Z" fill="black"/>
<path d="M9.08998 12.75L6.76998 10.42L5.28998 11.91L9.08998 15.72L16.43 8.35999L14.95 6.87L9.08998 12.75Z" fill="black"/>
</svg>
