<svg width="545" height="545" viewBox="0 0 545 545" fill="none" xmlns="http://www.w3.org/2000/svg">
<path d="M431.81 79.6729H113.19C50.6766 79.6729 0 130.349 0 192.862V352.139C0 414.652 50.6766 465.329 113.19 465.329H431.81C494.323 465.329 545 414.652 545 352.139V192.862C545 130.349 494.323 79.6729 431.81 79.6729ZM355.261 280.25L206.232 351.328C202.261 353.222 197.674 350.327 197.674 345.928V199.329C197.674 194.867 202.381 191.976 206.361 193.993L355.39 269.513C359.821 271.758 359.744 278.113 355.261 280.25Z" fill="url(#paint0_linear_41_91)"/>
<defs>
<linearGradient id="paint0_linear_41_91" x1="0" y1="79.6729" x2="602.093" y2="219.515" gradientUnits="userSpaceOnUse">
<stop stop-color="#FFA00D"/>
<stop offset="0.240385" stop-color="#FFD14C"/>
<stop offset="0.764423" stop-color="#FFD855"/>
<stop offset="1" stop-color="#FFA00D"/>
</linearGradient>
</defs>
</svg>
