<svg width="33" height="32" viewBox="0 0 33 32" fill="none" xmlns="http://www.w3.org/2000/svg">
<path d="M21.7 10.8V7.16C21.7 5.70386 21.7 4.9758 21.4166 4.41962C21.1673 3.9304 20.7696 3.53265 20.2804 3.28338C19.7242 3 18.9961 3 17.54 3H7.66C6.20386 3 5.4758 3 4.91962 3.28338C4.4304 3.53265 4.03265 3.9304 3.78338 4.41962C3.5 4.9758 3.5 5.70386 3.5 7.16V17.04C3.5 18.4961 3.5 19.2242 3.78338 19.7804C4.03265 20.2696 4.4304 20.6673 4.91962 20.9166C5.4758 21.2 6.20386 21.2 7.66 21.2H11.3M16.5 19.9L19.1 22.5L24.95 16.65M15.46 29H25.34C26.7961 29 27.5242 29 28.0804 28.7166C28.5696 28.4673 28.9673 28.0696 29.2166 27.5804C29.5 27.0242 29.5 26.2961 29.5 24.84V14.96C29.5 13.5039 29.5 12.7758 29.2166 12.2196C28.9673 11.7304 28.5696 11.3327 28.0804 11.0834C27.5242 10.8 26.7961 10.8 25.34 10.8H15.46C14.0039 10.8 13.2758 10.8 12.7196 11.0834C12.2304 11.3327 11.8327 11.7304 11.5834 12.2196C11.3 12.7758 11.3 13.5039 11.3 14.96V24.84C11.3 26.2961 11.3 27.0242 11.5834 27.5804C11.8327 28.0696 12.2304 28.4673 12.7196 28.7166C13.2758 29 14.0039 29 15.46 29Z" stroke="#A4A4A5" stroke-width="2" stroke-linecap="round" stroke-linejoin="round"/>
</svg>
