<svg width="34" height="34" viewBox="0 0 34 34" fill="none" xmlns="http://www.w3.org/2000/svg">
<path d="M8.2 18.6L9.45513 21.1103C9.87992 21.9598 10.0923 22.3846 10.376 22.7527C10.6278 23.0793 10.9207 23.3722 11.2473 23.624C11.6154 23.9077 12.0402 24.1201 12.8897 24.5449L15.4 25.8L12.8897 27.0551C12.0402 27.4799 11.6154 27.6923 11.2473 27.976C10.9207 28.2278 10.6278 28.5207 10.376 28.8473C10.0923 29.2154 9.87992 29.6402 9.45513 30.4897L8.2 33L6.94487 30.4897C6.52008 29.6402 6.30769 29.2154 6.02395 28.8473C5.77217 28.5207 5.47935 28.2278 5.15272 27.976C4.78462 27.6923 4.35983 27.4799 3.51027 27.0551L1 25.8L3.51027 24.5449C4.35983 24.1201 4.78461 23.9077 5.15271 23.624C5.47935 23.3722 5.77217 23.0793 6.02395 22.7527C6.30769 22.3846 6.52008 21.9598 6.94487 21.1103L8.2 18.6Z" stroke="#2F2C87" stroke-width="2" stroke-linecap="round" stroke-linejoin="round"/>
<path d="M21.8 1L23.6858 5.90307C24.137 7.07624 24.3626 7.66282 24.7135 8.15623C25.0244 8.59353 25.4065 8.97559 25.8438 9.28654C26.3372 9.63738 26.9238 9.86299 28.0969 10.3142L33 12.2L28.0969 14.0858C26.9238 14.537 26.3372 14.7626 25.8438 15.1135C25.4065 15.4244 25.0244 15.8065 24.7135 16.2438C24.3626 16.7372 24.137 17.3238 23.6858 18.4969L21.8 23.4L19.9142 18.4969C19.463 17.3238 19.2374 16.7372 18.8865 16.2438C18.5756 15.8065 18.1935 15.4244 17.7562 15.1135C17.2628 14.7626 16.6762 14.537 15.5031 14.0858L10.6 12.2L15.5031 10.3142C16.6762 9.86299 17.2628 9.63738 17.7562 9.28654C18.1935 8.97559 18.5756 8.59353 18.8865 8.15623C19.2374 7.66282 19.463 7.07624 19.9142 5.90307L21.8 1Z" stroke="#2F2C87" stroke-width="2" stroke-linecap="round" stroke-linejoin="round"/>
</svg>
