<svg width="48" height="48" viewBox="0 0 48 48" fill="none" xmlns="http://www.w3.org/2000/svg">
<g clip-path="url(#clip0_1_1185)">
<path d="M24 4C12.96 4 4 12.96 4 24C4 35.04 12.96 44 24 44C35.04 44 44 35.04 44 24C44 12.96 35.04 4 24 4ZM14.7 37C17.32 35.12 20.52 34 24 34C27.48 34 30.68 35.12 33.3 37C30.68 38.88 27.48 40 24 40C20.52 40 17.32 38.88 14.7 37ZM36.28 34.24C32.9 31.6 28.64 30 24 30C19.36 30 15.1 31.6 11.72 34.24C9.4 31.46 8 27.9 8 24C8 15.16 15.16 8 24 8C32.84 8 40 15.16 40 24C40 27.9 38.6 31.46 36.28 34.24Z" fill="currentColor"/>
<path d="M24 12C20.14 12 17 15.14 17 19C17 22.86 20.14 26 24 26C27.86 26 31 22.86 31 19C31 15.14 27.86 12 24 12ZM24 22C22.34 22 21 20.66 21 19C21 17.34 22.34 16 24 16C25.66 16 27 17.34 27 19C27 20.66 25.66 22 24 22Z" fill="currentColor"/>
</g>
<defs>
<clipPath id="clip0_1_1185">
<rect width="48" height="48" fill="currentColor"/>
</clipPath>
</defs>
</svg>
