<svg width="13" height="14" viewBox="0 0 13 14" fill="none" xmlns="http://www.w3.org/2000/svg">
<path d="M6.11933 1.56873C6.48031 4.77211 9.00842 7.30022 12.2118 7.6612C9.00842 8.02218 6.48031 10.5503 6.11933 13.7537C5.75835 10.5503 3.23024 8.02218 0.0268555 7.6612C3.23024 7.30022 5.75835 4.77211 6.11933 1.56873Z" fill="#FFC226"/>
<path d="M6.11933 1.56873C6.48031 4.77211 9.00842 7.30022 12.2118 7.6612C9.00842 8.02218 6.48031 10.5503 6.11933 13.7537C5.75835 10.5503 3.23024 8.02218 0.0268555 7.6612C3.23024 7.30022 5.75835 4.77211 6.11933 1.56873Z" fill="black" fill-opacity="0.8"/>
<path d="M10.6885 0.246338C10.8239 1.44761 11.7719 2.39565 12.9732 2.53102C11.7719 2.66638 10.8239 3.61443 10.6885 4.81569C10.5531 3.61443 9.60508 2.66638 8.40381 2.53102C9.60508 2.39565 10.5531 1.44761 10.6885 0.246338Z" fill="#FFC226"/>
<path d="M10.6885 0.246338C10.8239 1.44761 11.7719 2.39565 12.9732 2.53102C11.7719 2.66638 10.8239 3.61443 10.6885 4.81569C10.5531 3.61443 9.60508 2.66638 8.40381 2.53102C9.60508 2.39565 10.5531 1.44761 10.6885 0.246338Z" fill="black" fill-opacity="0.8"/>
</svg>
