<svg width="16" height="16" viewBox="0 0 16 16" fill="none" xmlns="http://www.w3.org/2000/svg">
<path d="M13.7432 0.115234C14.9253 0.115439 15.8846 1.07371 15.8848 2.25586V13.7432C15.8846 14.9253 14.9253 15.8846 13.7432 15.8848H2.25586C1.07371 15.8846 0.115439 14.9253 0.115234 13.7432V2.25586C0.11545 1.07372 1.07372 0.11545 2.25586 0.115234H13.7432ZM2.25586 1.11523C1.62601 1.11545 1.11545 1.62601 1.11523 2.25586V13.7432C1.11544 14.373 1.626 14.8846 2.25586 14.8848H13.7432C14.373 14.8846 14.8846 14.373 14.8848 13.7432V2.25586C14.8846 1.626 14.373 1.11544 13.7432 1.11523H2.25586ZM10.0068 11.3994H8.23047L7.81738 10.1826H5.24609L4.83301 11.3994H3.07617L5.56934 4.50781H7.51367L10.0068 11.3994ZM12.4443 11.3994H10.7656V4.50781H12.4443V11.3994ZM5.6875 8.88672H7.38574L6.53223 6.36328L5.6875 8.88672Z" fill="url(#paint0_linear_6693_3118)"/>
<defs>
<linearGradient id="paint0_linear_6693_3118" x1="0.115234" y1="8" x2="15.8848" y2="8" gradientUnits="userSpaceOnUse">
<stop stop-color="#01D033"/>
<stop offset="1" stop-color="#00FDE9"/>
</linearGradient>
</defs>
</svg>
