<svg width="20" height="14" viewBox="0 0 20 14" fill="none" xmlns="http://www.w3.org/2000/svg">
<path d="M1.11035 12.5098C1.33818 12.5564 1.50977 12.7584 1.50977 13C1.50977 13.2416 1.33818 13.4436 1.11035 13.4902L1.00977 13.5H1C0.723858 13.5 0.5 13.2761 0.5 13C0.5 12.7239 0.723858 12.5 1 12.5H1.00977L1.11035 12.5098ZM19 12.5C19.2761 12.5 19.5 12.7239 19.5 13C19.5 13.2761 19.2761 13.5 19 13.5H6C5.72386 13.5 5.5 13.2761 5.5 13C5.5 12.7239 5.72386 12.5 6 12.5H19ZM1.11035 6.50977C1.33818 6.5564 1.50977 6.75838 1.50977 7C1.50977 7.24162 1.33818 7.4436 1.11035 7.49023L1.00977 7.5H1C0.723858 7.5 0.5 7.27614 0.5 7C0.5 6.72386 0.723858 6.5 1 6.5H1.00977L1.11035 6.50977ZM19 6.5C19.2761 6.5 19.5 6.72386 19.5 7C19.5 7.27614 19.2761 7.5 19 7.5H6C5.72386 7.5 5.5 7.27614 5.5 7C5.5 6.72386 5.72386 6.5 6 6.5H19ZM1.11035 0.509766C1.33818 0.556398 1.50977 0.758384 1.50977 1C1.50977 1.24162 1.33818 1.4436 1.11035 1.49023L1.00977 1.5H1C0.723858 1.5 0.5 1.27614 0.5 1C0.5 0.723858 0.723858 0.5 1 0.5H1.00977L1.11035 0.509766ZM19 0.5C19.2761 0.5 19.5 0.723858 19.5 1C19.5 1.27614 19.2761 1.5 19 1.5H6C5.72386 1.5 5.5 1.27614 5.5 1C5.5 0.723858 5.72386 0.5 6 0.5H19Z" fill="url(#paint0_linear_6693_3108)"/>
<defs>
<linearGradient id="paint0_linear_6693_3108" x1="0.5" y1="7" x2="19.5" y2="7" gradientUnits="userSpaceOnUse">
<stop stop-color="#01D033"/>
<stop offset="1" stop-color="#00FDE9"/>
</linearGradient>
</defs>
</svg>
