<svg width="16" height="16" viewBox="0 0 16 16" fill="none" xmlns="http://www.w3.org/2000/svg">
<rect width="16" height="16" fill="url(#paint0_linear_3632_20385)"/>
<path d="M10.6001 3.90234L11.3579 4.87402L10.6001 5.90234H9.76807L10.5112 4.87402L9.76807 3.90234H10.6001ZM13.1069 4.87402L12.2729 5.90234H11.3579L12.1753 4.87402L11.3579 3.90234H12.2729L13.1069 4.87402ZM14.6968 4.87402L13.8638 5.90234H12.9487L13.7661 4.87402L12.9487 3.90234H13.8638L14.6968 4.87402Z" fill="#FFC226"/>
<path d="M8.78919 11.9542C9.1365 11.4268 9.31603 10.8022 9.30305 10.1661C9.30305 9.23191 8.99203 8.50167 8.37007 7.97537C7.74642 7.46105 6.84615 7.09967 5.66925 6.89124C4.92708 6.76977 4.41613 6.62131 4.13659 6.44585C4.00622 6.37199 3.89813 6.26287 3.82415 6.13039C3.75018 5.99792 3.71315 5.84719 3.7171 5.69463C3.71221 5.54268 3.74633 5.39208 3.81607 5.25787C3.88581 5.12367 3.98874 5.01057 4.1145 4.92987C4.38389 4.73944 4.75206 4.64422 5.21902 4.64422C5.69472 4.64422 6.07239 4.74543 6.35202 4.94784C6.49283 5.05798 6.61088 5.19558 6.69942 5.35271C6.78797 5.50983 6.8453 5.68337 6.86805 5.8633H9.11657C9.02869 4.83767 8.63711 4.0197 7.94183 3.40938C7.25089 2.80362 6.3586 2.50074 5.26517 2.50074C4.58635 2.48865 3.91279 2.62435 3.28895 2.89888C2.74078 3.13547 2.27269 3.53205 1.94296 4.03919C1.6106 4.55322 1.43972 5.15916 1.45335 5.77561C1.45335 6.70525 1.75347 7.4175 2.35362 7.91236C2.95509 8.40119 3.83196 8.74906 4.98413 8.95595C5.71606 9.0894 6.235 9.25435 6.54095 9.45081C6.67677 9.5321 6.78975 9.64796 6.86899 9.78714C6.94823 9.92631 6.99109 10.0841 6.99325 10.2452C6.99551 10.4063 6.95697 10.5652 6.88158 10.7066C6.8062 10.848 6.69642 10.9671 6.56295 11.0523C6.27307 11.2487 5.86899 11.347 5.3509 11.347C4.8063 11.347 4.38032 11.2278 4.07286 10.9894C3.91965 10.8646 3.79455 10.7073 3.70619 10.5283C3.61793 10.3493 3.56849 10.1529 3.56125 9.95249H1.30371C1.3711 11.0727 1.76268 11.9469 2.47854 12.5751C3.18847 13.1912 4.1458 13.4992 5.35052 13.4992C6.04645 13.5115 6.73721 13.3758 7.37947 13.1011C7.94672 12.8647 8.43596 12.4667 8.78919 11.9542Z" fill="white"/>
<defs>
<linearGradient id="paint0_linear_3632_20385" x1="0" y1="0" x2="16.0836" y2="0.0844548" gradientUnits="userSpaceOnUse">
<stop stop-color="#24008C"/>
<stop offset="1" stop-color="#4C00AD"/>
</linearGradient>
</defs>
</svg>
