<svg width="163" height="72" viewBox="0 0 163 72" fill="none" xmlns="http://www.w3.org/2000/svg">
<rect x="0.714279" width="161.714" height="72" rx="8" fill="#FFE141"/>
<path d="M41.8561 28.7069C43.6506 28.7069 45.2527 29.1552 46.6626 30.0523C48.0854 30.9363 49.2005 32.1916 50.008 33.8188C50.7898 35.3819 51.1808 37.2203 51.1808 39.3341C51.1808 41.3841 50.7898 43.2162 50.008 44.8306C49.2261 46.4447 48.1238 47.7068 46.7011 48.6163C45.2656 49.5389 43.6506 50 41.8561 50C40.5488 50 39.3183 49.731 38.1647 49.193C37.0111 48.6549 36.0242 47.8989 35.2039 46.9253V49.5194H28.5132V22H35.2039V31.7624C36.0242 30.7888 37.0111 30.0392 38.1647 29.5139C39.3183 28.9759 40.5488 28.7069 41.8561 28.7069ZM39.8566 44.4461C40.8051 44.4461 41.651 44.2285 42.3945 43.7929C43.1379 43.3573 43.721 42.7487 44.144 41.9672C44.567 41.1984 44.7785 40.3209 44.7785 39.3341C44.7785 38.3733 44.567 37.5021 44.144 36.7206C43.721 35.939 43.1379 35.3305 42.3945 34.8949C41.651 34.4593 40.8051 34.2417 39.8566 34.2417C38.9594 34.2417 38.1583 34.4593 37.4533 34.8949C36.7484 35.3177 36.1972 35.9135 35.7999 36.6823C35.4025 37.4638 35.2039 38.3477 35.2039 39.3341C35.2039 40.3209 35.4025 41.2048 35.7999 41.9863C36.1972 42.7551 36.7484 43.3573 37.4533 43.7929C38.1583 44.2285 38.9594 44.4461 39.8566 44.4461Z" fill="black"/>
<path d="M52.0967 49.5194V22H58.7876V49.5194H52.0967Z" fill="black"/>
<path d="M60.6838 49.5194V29.168H67.3361V49.5194H60.6838Z" fill="black"/>
<path d="M81.7873 28.7069C83.2099 28.7069 84.4916 29.0401 85.6325 29.7064C86.773 30.3596 87.6705 31.2822 88.324 32.4734C88.9521 33.6778 89.2661 35.0423 89.2661 36.5671V49.5194H82.8832V38.066C82.8832 37.3227 82.7357 36.6631 82.4408 36.0865C82.1591 35.4971 81.7554 35.0423 81.2297 34.7219C80.7169 34.4019 80.1147 34.2417 79.4225 34.2417C78.7686 34.2417 78.1664 34.4019 77.6153 34.7219C77.0641 35.0296 76.6346 35.4524 76.3269 35.9904C76.0065 36.5029 75.8463 37.1051 75.8463 37.797L75.808 49.5194H69.1557V29.168H75.808V31.4934C76.4361 30.6222 77.2754 29.9431 78.3266 29.4565C79.3775 28.9568 80.5312 28.7069 81.7873 28.7069Z" fill="black"/>
<path d="M103.967 38.066L111.523 49.5194H103.967L99.5453 42.3131L97.5073 44.6768V49.5194H90.8167V22H97.5073V37.2012L103.929 29.168H111.485L103.967 38.066Z" fill="black"/>
<path d="M60.6802 22.0021H67.3541V27.2193H60.6802V22.0021Z" fill="black"/>
<path d="M112.585 49.4583V29.1069H119.237V49.4583H112.585Z" fill="#0C831F"/>
<path d="M133.303 43.7122L134.63 47.998C134.027 48.5743 133.265 49.0422 132.342 49.4008C131.432 49.7595 130.541 49.9389 129.669 49.9389C128.413 49.9389 127.292 49.6635 126.305 49.1123C125.318 48.5488 124.549 47.7673 123.997 46.7678C123.446 45.7942 123.171 44.6731 123.171 43.4049V34.4304H120.499V29.1069H123.171V22.002H129.554V29.1069H133.764V34.4304H129.554V42.1751C129.554 42.8283 129.727 43.3599 130.073 43.77C130.419 44.1801 130.861 44.3849 131.4 44.3849C131.784 44.3849 132.143 44.3272 132.476 44.212C132.81 44.0968 133.085 43.9302 133.303 43.7122Z" fill="#0C831F"/>
<path d="M112.532 22.002H119.206V27.2192H112.532V22.002Z" fill="#0C831F"/>
</svg>
