<svg width="163" height="72" viewBox="0 0 163 72" fill="none" xmlns="http://www.w3.org/2000/svg">
<rect x="0.428558" width="161.714" height="72" rx="8" fill="white"/>
<g clip-path="url(#clip0_108_283)">
<path d="M125.96 30.2703C125.143 27.9565 122.918 26.2949 120.305 26.2949H120.25C118.551 26.2949 117.02 26.9958 115.93 28.1209C114.839 26.9958 113.307 26.2949 111.61 26.2949H111.556C110.062 26.2949 108.697 26.8369 107.649 27.734V27.278C107.613 26.8238 107.236 26.4669 106.77 26.4669H102.761C102.271 26.4669 101.875 26.8593 101.875 27.3472V48.925C101.875 49.4128 102.271 49.8053 102.761 49.8053H106.77C107.217 49.8053 107.585 49.4745 107.643 49.0465L107.641 33.5561C107.641 33.5019 107.643 33.4514 107.649 33.4009C107.713 32.7094 108.224 32.1412 109.031 32.0702H109.18H109.6H109.77C110.108 32.1001 110.392 32.2178 110.617 32.3954C110.966 32.6701 111.16 33.0925 111.16 33.5561L111.175 48.9699C111.175 49.4577 111.573 49.8521 112.061 49.8521H116.07C116.543 49.8521 116.928 49.4782 116.95 49.0129L116.949 33.5355C116.947 33.0271 117.184 32.5673 117.601 32.2945C117.807 32.1636 118.054 32.0758 118.338 32.0496H118.487H118.908H119.077C119.945 32.1244 120.469 32.7767 120.467 33.5355L120.482 48.9288C120.482 49.4166 120.88 49.8091 121.368 49.8091H125.377C125.866 49.8091 126.264 49.4166 126.264 48.9288V32.373C126.264 31.2441 126.135 30.7637 125.96 30.2703Z" fill="#54C1F0"/>
<path d="M98.8211 26.5232H96.5282V22.8412C96.5282 22.8375 96.5282 22.8337 96.5282 22.83C96.5282 22.387 96.1661 22.0282 95.7193 22.0282C95.6665 22.0282 95.6155 22.0357 95.5665 22.045C93.0247 22.7365 93.5338 26.226 88.8933 26.5232H88.7896H88.4427C88.3748 26.5232 88.3107 26.5325 88.2484 26.5456C87.8525 26.6335 87.5545 26.983 87.5545 27.4016V31.3752C87.5545 31.8592 87.9524 32.2536 88.4427 32.2536H90.8619L90.8581 49.1028C90.8581 49.5832 91.2503 49.9719 91.7349 49.9719H95.6985C96.1812 49.9719 96.5734 49.5832 96.5734 49.1028L96.5753 32.2536H98.8211C99.3095 32.2536 99.7073 31.8592 99.7073 31.3752V27.4016C99.7073 26.9175 99.3095 26.5232 98.8211 26.5232Z" fill="#54C1F0"/>
<path d="M84.3978 26.523H80.389C79.9006 26.523 79.5046 26.9173 79.5046 27.4014V35.6176C79.4952 36.126 79.0803 36.5334 78.5656 36.5334H76.8874C76.3669 36.5334 75.9465 36.1185 75.9465 35.6027L75.9314 27.4014C75.9314 26.9173 75.5335 26.523 75.0451 26.523H71.0363C70.5461 26.523 70.1501 26.9173 70.1501 27.4014V36.4064C70.1501 39.8267 72.6108 42.2657 76.0634 42.2657C76.0634 42.2657 78.6542 42.2657 78.7334 42.2807C79.201 42.333 79.5649 42.7218 79.5649 43.2002C79.5649 43.6731 79.2086 44.06 78.7466 44.1179C78.724 44.1217 78.7032 44.1273 78.6787 44.131L72.8163 44.1516C72.3261 44.1516 71.9301 44.5459 71.9301 45.03V49.0017C71.9301 49.4876 72.3261 49.8801 72.8163 49.8801H79.3707C82.8252 49.8801 85.284 47.4429 85.284 44.0207V27.4014C85.284 26.9173 84.888 26.523 84.3978 26.523Z" fill="#233266"/>
<path d="M45.5952 33.8038V35.6579V36.256C45.5952 36.77 45.1747 37.1886 44.6562 37.1886L42.1125 37.1905V32.2768H44.6562C45.1747 32.2768 45.5952 32.6918 45.5952 33.2076V33.8038ZM45.9478 26.5221H37.1854C36.7045 26.5221 36.3161 26.909 36.3161 27.3837V31.2769C36.3161 31.2844 36.318 31.2919 36.318 31.2993C36.318 31.318 36.3161 31.3367 36.3161 31.3535V43.8405V48.9747C36.3161 49.4531 36.6781 49.8438 37.1269 49.855H37.2023H41.2112C41.6995 49.855 42.0974 49.4625 42.0974 48.9765L42.1125 42.9377H45.9478C49.1571 42.9377 51.3935 40.7304 51.3935 37.5363V31.9311C51.3935 28.7369 49.1571 26.5221 45.9478 26.5221Z" fill="#233266"/>
<path d="M62.2284 43.1325V43.753C62.2284 43.8035 62.2209 43.852 62.2133 43.8988C62.2039 43.9436 62.1907 43.9866 62.1756 44.0277C62.0512 44.3754 61.7004 44.6277 61.2837 44.6277H59.615C59.0945 44.6277 58.6703 44.2352 58.6703 43.753V43.0035C58.6703 42.9942 58.6684 42.9848 58.6684 42.9755L58.6703 40.9812V40.9775V40.7569V40.357L58.6721 40.3514C58.674 39.871 59.0945 39.4823 59.615 39.4823H61.2837C61.806 39.4823 62.2284 39.8729 62.2284 40.357V43.1325ZM61.5911 26.5449H56.0285C55.5364 26.5449 55.1385 26.915 55.1385 27.3691V28.9148C55.1385 28.9242 55.1404 28.9354 55.1404 28.9447C55.1404 28.9559 55.1385 28.9672 55.1385 28.9784V31.096C55.1385 31.5763 55.5609 31.9688 56.0813 31.9688H61.378C61.7966 32.0342 62.1285 32.337 62.1756 32.8099V33.322C62.1285 33.7724 61.8004 34.1014 61.4006 34.1387H58.7777C55.2893 34.1387 52.8041 36.4358 52.8041 39.6617V44.1642V44.2819C52.8041 47.4892 54.9405 49.7712 58.4044 49.7712H65.6734C66.9783 49.7712 68.0361 48.7919 68.0361 47.5864V32.509C68.0361 28.8531 66.1354 26.5449 61.5911 26.5449Z" fill="#233266"/>
</g>
<defs>
<clipPath id="clip0_108_283">
<rect width="90" height="28" fill="white" transform="translate(36.2857 22)"/>
</clipPath>
</defs>
</svg>
