<svg width="163" height="72" viewBox="0 0 163 72" fill="none" xmlns="http://www.w3.org/2000/svg">
<rect x="0.857117" width="161.714" height="72" rx="8" fill="white"/>
<g clip-path="url(#clip0_108_330)">
<path d="M50.0521 47.3415C49.9358 48.8615 49.6451 49.4461 48.2495 49.4461C47.261 49.4461 47.6099 49.4461 46.6213 49.4461C46.3887 49.4461 46.2724 49.3877 46.2724 49.0953C46.2724 46.4646 46.1561 43.7753 46.4469 41.1446C46.7958 38.163 48.8891 36.2923 52.0292 35.883C52.727 35.7661 53.3666 35.7661 54.0644 35.7661C54.3551 35.7661 54.4714 35.8246 54.4714 36.1169C54.4714 37.1107 54.4133 38.1046 54.4714 39.04C54.4714 39.3323 54.3551 39.4492 54.0644 39.4492C53.4829 39.4492 52.9014 39.3907 52.3199 39.5077C50.9825 39.7415 50.2266 40.5015 50.1684 41.8461C50.1684 42.08 50.1103 42.3723 50.1103 42.6061C50.1103 43.5415 50.1103 44.5353 50.1103 45.4707" fill="black"/>
<path d="M87.9071 47.5167C87.9071 48.8029 86.9768 49.7383 85.7556 49.7383C84.5345 49.7383 83.6041 48.8614 83.546 47.5752C83.546 44.7691 83.546 41.9629 83.6041 39.1567C83.6041 38.046 84.6508 37.1691 85.7556 37.1106C86.9186 37.1106 87.9071 37.9875 87.9071 39.1567C87.9653 40.5598 87.9071 41.9629 87.9071 43.366" fill="black"/>
<path d="M80.1152 23.1968C79.0685 22.3199 78.1962 21.5015 77.324 20.7415C77.0914 20.5661 76.917 20.683 76.6844 20.7415C75.6958 20.9753 74.7073 20.5661 74.2421 19.8061C73.7769 19.0461 73.9514 18.1107 74.6492 17.5261C75.4051 16.883 76.6844 16.8245 77.4985 17.4092C78.3125 17.9938 78.5451 18.9876 78.0218 19.8061C77.7892 20.0984 77.9055 20.2738 78.1381 20.4492C79.1266 21.2676 80.1152 22.1445 81.0456 22.963C81.22 23.0799 81.3944 23.1968 81.5689 23.2553C82.0341 23.4307 82.3248 23.8399 82.2085 24.3076C82.1504 24.8338 81.8015 25.1845 81.2781 25.1845C79.5918 25.243 77.9055 25.1845 76.2192 25.1845C75.5795 25.1845 75.1725 24.6584 75.2306 24.1322C75.2306 23.5476 75.6958 23.1384 76.3936 23.1384C77.3822 23.1384 78.3125 23.1384 79.3011 23.1384C79.4755 23.1968 79.7081 23.1968 80.1152 23.1968Z" fill="#FFCA20"/>
<path d="M91.3379 23.3137C92.6172 23.3137 93.8384 23.3137 95.0595 23.3137C95.8736 23.3137 96.3388 23.723 96.3388 24.366C96.3388 24.9506 95.8154 25.3599 95.0595 25.3599C93.4895 25.3599 91.9194 25.4183 90.3494 25.3014C89.7679 25.243 89.419 25.0091 89.3027 24.483C89.1864 23.9568 89.419 23.5476 89.9424 23.3137C90.1168 23.2553 90.2913 23.1383 90.4076 22.963C91.3379 22.086 92.2102 21.2091 93.1406 20.3322C93.3732 20.0983 93.4313 19.923 93.315 19.6306C92.9661 18.7537 93.2569 17.8768 94.071 17.3506C95.0013 16.9414 96.2225 16.9999 96.9784 17.7014C97.618 18.286 97.7925 19.163 97.3273 19.923C96.8621 20.683 95.7573 21.2091 94.885 20.8583C94.1291 20.566 93.7802 20.8583 93.3732 21.2676C92.7335 21.9106 92.0939 22.4953 91.4542 23.0799C91.3961 23.1383 91.3961 23.1383 91.3379 23.3137Z" fill="#FFCA20"/>
<path d="M88.5468 23.0799C88.5468 24.483 87.2094 25.6522 85.6393 25.6522C84.0693 25.6522 82.7319 24.483 82.7319 23.0799C82.7319 21.6769 84.1275 20.4492 85.6975 20.5076C87.3256 20.5076 88.6049 21.6769 88.5468 23.0799Z" fill="#FFCA20"/>
<path d="M72.2069 47.9844C73.3117 49.1537 73.7188 49.446 74.6492 49.6798C77.4403 50.3814 79.9989 49.2121 81.22 46.6398C81.7433 45.5291 81.9759 44.3014 82.0341 43.1321C82.0341 42.606 82.0341 42.1383 82.0341 41.6121C82.0922 40.0921 81.5689 38.6891 80.5804 37.4614C80.1733 36.9937 79.7663 36.526 79.0685 36.4675C77.2659 35.5906 75.4051 35.3567 73.428 35.8244C71.1021 36.3506 69.125 37.3444 68.6017 39.7998C68.4854 40.4429 68.4272 41.0275 68.4272 41.6706C68.4272 43.7167 68.4272 45.7629 68.3691 47.8675C68.3691 50.0306 68.3109 52.1937 68.3109 54.3567C68.3109 54.5906 68.3691 54.7075 68.6598 54.7075C69.1831 54.7075 69.7065 54.7075 70.288 54.7075C71.3347 54.649 72.0325 53.9475 72.0325 52.9537M77.7892 45.1783C77.324 46.2306 76.4518 46.8152 75.2307 46.7567C73.9514 46.7567 73.1373 46.1137 72.6139 45.0614C72.265 44.3598 72.2069 43.5414 72.2069 42.7814C72.265 41.9044 72.265 41.086 72.6139 40.326C73.0791 39.2152 73.8932 38.6306 75.1725 38.5721C76.3936 38.5137 77.324 39.0398 77.8474 40.0921C78.5451 41.846 78.5451 43.5414 77.7892 45.1783Z" fill="black"/>
<path d="M103.026 33.6031C103.026 32.7846 102.328 32.0831 101.456 31.9662C100.933 31.9077 100.409 31.9662 99.8277 31.9077C99.4207 31.9077 99.3044 31.9662 99.3044 32.3754C99.3625 33.3693 99.3044 34.3631 99.3044 35.2985C99.3044 36.0585 99.3044 36.7016 99.3044 37.4031C98.3158 36.2923 97.4436 35.7662 95.6991 35.5908C94.5361 35.4739 93.4313 35.7662 92.4428 36.2923C91.9194 36.5846 91.9776 36.6431 91.745 36.8185C91.0472 37.4031 90.582 38.1631 90.1168 38.9816C89.5935 40.0339 89.419 40.9693 89.3609 42.08C89.3027 43.1323 89.3609 44.1846 89.5935 45.1785C90.0587 47.2246 91.0472 48.92 93.3732 49.5631C94.885 49.9723 96.3969 50.0893 97.9088 49.68C101.223 48.8616 102.735 47.6339 102.851 44.3016C103.084 40.7939 103.026 37.1693 103.026 33.6031ZM98.8392 45.1785C98.374 46.2308 97.618 46.8739 96.3969 46.9323C95.1758 46.9908 94.1872 46.5231 93.7221 45.4123C92.9661 43.7754 92.908 42.08 93.6639 40.3846C94.1291 39.2739 95.0595 38.6893 96.3969 38.7477C97.618 38.8062 98.5484 39.4493 98.9555 40.6185C99.2462 41.2616 99.3044 41.9631 99.3044 42.7231C99.2462 43.5416 99.1881 44.4185 98.8392 45.1785Z" fill="black"/>
<path d="M67.3224 39.4493C67.3224 37.7539 66.5083 36.5847 64.822 36C62.9612 35.357 61.0423 35.2985 59.1234 35.7077C57.3789 36.0585 56.1578 37.1108 55.6344 38.8062C55.5181 39.2154 55.5763 39.3908 56.0415 39.3323C56.6811 39.2739 57.3789 39.3323 58.0185 39.3323C58.6 39.3323 59.2397 39.4493 59.6467 38.8062C59.7049 38.6893 59.9375 38.6308 60.1119 38.5724C61.1004 38.28 62.089 38.3385 63.0775 38.6893C63.4845 38.8062 63.659 39.0985 63.7171 39.5077C63.7753 39.917 63.5427 40.2093 63.2519 40.3847C62.7868 40.677 62.2634 40.7939 61.6819 40.9108C60.5771 41.0862 59.4141 41.1447 58.3674 41.4954C57.2626 41.8462 56.2159 42.2554 55.6344 43.2493C54.0062 45.997 55.6344 49.2708 58.9489 49.7385C60.1119 49.9139 61.2749 49.797 62.3797 49.68C64.9964 49.3877 66.8572 47.9847 67.1479 45.7631C67.3224 44.3016 67.2642 43.1908 67.3224 42.1385C67.3224 41.0277 67.3224 40.2677 67.3224 39.4493ZM63.7171 43.717C63.7171 45.88 62.3797 47.1077 60.2863 46.9908C59.356 46.9323 58.7745 46.4647 58.6582 45.7047C58.4837 44.8277 58.8908 44.1262 59.7049 43.7754C60.2863 43.5416 60.926 43.4247 61.5656 43.3077C61.9727 43.1908 62.3797 43.1323 62.7868 43.0154C63.7171 42.7231 63.7171 42.6647 63.7171 43.717Z" fill="black"/>
<path d="M92.5009 36.3506C90.582 37.6367 89.7679 39.5075 89.5353 41.6706C89.5353 41.846 89.4772 41.9629 89.4772 42.1383C89.4772 41.2029 89.4772 40.2091 89.4772 39.2737C89.4772 37.1106 88.2561 35.9998 85.9882 35.8829C84.709 35.8244 83.546 36.0583 82.7319 37.0521C82.2667 37.6367 82.0923 38.2798 82.0923 38.9814C82.0923 40.326 82.0922 41.7291 82.0341 43.0737C81.976 41.7875 81.976 40.5598 81.5108 39.3321C81.0456 38.1044 80.3478 37.0521 79.1266 36.4091C79.1266 34.246 79.1848 32.0244 79.1848 29.8614C79.1848 27.9906 80.6385 26.5875 82.6156 26.5291C84.7671 26.5291 86.9186 26.5291 89.1283 26.5291C91.1635 26.5291 92.5591 28.0491 92.5591 29.9198C92.4428 32.1414 92.5009 34.246 92.5009 36.3506Z" fill="#FFCA20"/>
<path d="M117.098 41.2614C116.633 37.8706 114.307 35.8245 110.76 35.766C107.678 35.7075 105.468 37.0521 104.538 39.5075C104.131 40.5598 103.956 41.7291 104.014 42.7814C104.014 43.0152 104.014 43.1906 104.014 43.366C104.131 44.9445 104.305 46.5229 105.352 47.8091C106.922 49.7383 109.19 50.2645 111.574 50.0306C114.365 49.7383 116.109 48.2183 116.865 45.646C117.272 44.1845 117.331 42.7229 117.098 41.2614ZM113.493 42.6645C113.493 43.5998 113.376 44.4183 113.086 45.1783C112.446 46.8737 110.702 47.5168 109.132 46.6398C108.608 46.3475 108.259 45.8798 108.085 45.3537C107.62 43.9506 107.503 42.4891 107.852 41.086C108.201 39.566 109.248 38.7475 110.76 38.806C112.039 38.8645 113.086 39.7998 113.376 41.2614C113.493 41.7875 113.551 42.2552 113.493 42.6645Z" fill="black"/>
<path d="M83.546 51.083H84.7671C85.2904 51.083 85.6975 51.1415 85.9882 51.3169C86.2208 51.4922 86.3371 51.7261 86.3371 52.0769C86.3371 52.3107 86.279 52.4861 86.1627 52.6615C86.0464 52.8369 85.9301 52.8953 85.7556 52.9538C85.9882 53.0122 86.1627 53.1292 86.279 53.2461C86.3953 53.4215 86.4534 53.5969 86.4534 53.8307C86.4534 54.1815 86.3371 54.4738 86.0464 54.6492C85.8138 54.8245 85.4649 54.9415 84.9997 54.9415H83.546V51.083ZM84.36 52.603H84.8252C85.0578 52.603 85.2323 52.5445 85.2904 52.4861C85.4067 52.4276 85.4649 52.3107 85.4649 52.1353C85.4649 51.9599 85.4067 51.9015 85.2904 51.7845C85.1741 51.7261 84.9997 51.6676 84.7671 51.6676H84.36V52.603ZM84.36 53.3045V54.2984H84.8834C85.116 54.2984 85.2904 54.2399 85.4067 54.1815C85.523 54.123 85.5812 53.9476 85.5812 53.7722C85.5812 53.4215 85.3486 53.3045 84.8834 53.3045H84.36Z" fill="black"/>
<path d="M88.3142 54.9999V51.083H89.1283V54.9999H88.3142Z" fill="black"/>
<path d="M94.3617 54.9999H93.4313L92.3846 53.363L92.0357 53.5969V54.9999H91.2216V51.083H92.0357V52.8953L92.3846 52.4276L93.4313 51.083H94.3617L93.0243 52.8369L94.3617 54.9999Z" fill="black"/>
<path d="M98.1414 54.9999H95.8736V51.083H98.1414V51.7845H96.7458V52.6615H98.0832V53.363H96.7458V54.3569H98.1414V54.9999Z" fill="black"/>
<path d="M104.073 54.9999H103.259V51.7845H102.212V51.083H105.177V51.7845H104.131L104.073 54.9999Z" fill="black"/>
<path d="M109.19 54.9999L108.899 54.0645H107.503L107.213 54.9999H106.34L107.736 51.083H108.725L110.12 54.9999H109.19ZM108.725 53.363C108.492 52.5445 108.317 52.0184 108.259 51.9015C108.201 51.7845 108.201 51.7261 108.201 51.6676C108.143 51.9015 107.969 52.4861 107.678 53.363H108.725Z" fill="black"/>
<path d="M114.83 54.9999H113.9L112.969 53.5384L112.039 54.9999H111.167L112.446 52.9538L111.225 51.083H112.155L112.969 52.4861L113.783 51.083H114.656L113.435 53.0122L114.83 54.9999Z" fill="black"/>
<path d="M116.4 54.9999V51.083H117.214V54.9999H116.4Z" fill="black"/>
</g>
<defs>
<clipPath id="clip0_108_330">
<rect width="71" height="38" fill="white" transform="translate(46.2143 17)"/>
</clipPath>
</defs>
</svg>
