<svg width="162" height="72" viewBox="0 0 162 72" fill="none" xmlns="http://www.w3.org/2000/svg">
<rect x="0.285645" width="161.714" height="72" rx="8" fill="white"/>
<g clip-path="url(#clip0_108_414)">
<path d="M42.6105 50.0001C42.5929 49.9824 42.5753 49.9647 42.5577 49.9471C42.2227 49.5231 40.1422 46.9086 38.0089 43.5698C37.3742 42.5099 36.951 41.6619 37.0392 41.4499C37.2508 40.8846 40.9532 40.5843 42.0816 41.0966C42.4342 41.2556 42.4166 41.4499 42.4166 41.5736C42.4166 42.0859 42.399 43.4638 42.399 43.4638C42.399 43.7465 42.6282 43.9761 42.9103 43.9761C43.1924 43.9761 43.4216 43.7465 43.4216 43.4638V40.0367C43.4216 39.7364 43.1042 39.6657 43.0337 39.648C42.4342 39.648 41.2353 39.648 39.9307 39.648C37.0745 39.648 36.4221 39.7717 35.9461 39.4537C34.8882 38.7647 33.178 34.1187 33.1251 31.5042C33.0723 27.8121 35.2585 24.6146 38.3262 23.0423C39.6133 22.3887 41.059 22.0354 42.5929 22.0354C47.4767 22.0001 51.4789 25.6745 52.0078 30.4089C52.0078 30.4089 52.0078 30.4089 52.0078 30.4266C52.1136 31.5748 45.8194 31.8222 44.5676 31.4865C44.3736 31.4335 44.3207 31.2392 44.3207 31.1509C44.3207 30.2853 44.3207 27.8297 44.3207 27.8297C44.3207 27.5471 44.0915 27.3174 43.8094 27.3174C43.5273 27.3174 43.2981 27.5471 43.2981 27.8297L43.3158 32.3345C43.3158 32.6171 43.5626 32.6878 43.6331 32.7054C44.3384 32.7054 45.9957 32.7054 47.5472 32.7054C49.6276 32.7054 50.5092 32.9528 51.091 33.3944C51.4789 33.6947 51.6199 34.26 51.4965 34.9843C50.2976 41.5559 42.8926 49.6644 42.6105 50.0001ZM62.6921 34.7193C64.561 35.5143 65.7246 36.4152 65.7246 38.3584C65.7246 40.3547 64.2083 41.6442 61.8811 41.6442C59.9946 41.6442 58.4783 40.7786 57.7202 39.2947L57.5968 39.0474L59.8183 37.7578L59.9593 38.0051C60.453 38.8177 61.0172 39.1711 61.8282 39.1711C62.5334 39.1711 62.9918 38.8531 62.9918 38.3938C62.9918 37.8815 62.6568 37.6871 61.599 37.2278L61.07 36.9982C59.6419 36.3799 58.3196 35.5496 58.3196 33.4827C58.3196 31.6455 59.7301 30.3559 61.7577 30.3559C63.2915 30.3559 64.3318 30.9565 65.0546 32.2285L65.1957 32.4581L63.0447 33.8537L62.9037 33.5887C62.551 32.9351 62.1984 32.8114 61.7753 32.8114C61.3169 32.8114 61.0348 33.0588 61.0348 33.4474C61.0348 33.889 61.2464 34.0834 62.1808 34.4897L62.6921 34.7193ZM78.4364 35.0903L80.0056 30.7092H82.7031L78.7009 41.8386H78.1015L75.686 36.6095C75.5802 36.3622 75.4568 36.0796 75.351 35.7969C75.2453 36.0619 75.1218 36.3622 75.0161 36.6095L72.5125 41.8209H71.913L67.8579 30.6916H70.7318L72.3185 35.0726C72.4243 35.3553 72.5301 35.6909 72.6183 36.0089C72.724 35.6909 72.8475 35.3376 72.9885 35.0373L75.0689 30.5856H75.6508L77.7665 35.0373C77.9075 35.32 78.0309 35.6733 78.1367 36.0089C78.2425 35.7086 78.3483 35.3729 78.4364 35.0903ZM85.859 41.5029V30.4796H88.5742V41.5029H85.859ZM97.4954 37.7931V35.32H102.538V40.2663L102.432 40.3547C101.85 40.8316 100.316 41.6266 98.2535 41.6266C94.745 41.6266 92.3119 39.2947 92.3119 35.9736C92.3119 32.7054 94.6745 30.3382 97.9185 30.3382C99.6992 30.3382 101.022 30.8506 101.921 31.8752L102.097 32.0695L100.246 33.9067L100.052 33.6947C99.5406 33.1647 98.994 32.8291 97.9185 32.8291C96.2612 32.8291 95.0976 34.1187 95.0976 35.9559C95.0976 37.8815 96.3318 39.1181 98.2535 39.1181C98.8882 39.1181 99.5582 39.0121 99.999 38.8354V37.7755H97.4954V37.7931ZM111.283 37.7931V35.32H116.325V40.2663L116.219 40.3547C115.638 40.8316 114.104 41.6266 112.041 41.6266C108.532 41.6266 106.099 39.2947 106.099 35.9736C106.099 32.7054 108.462 30.3382 111.706 30.3382C113.487 30.3382 114.809 30.8506 115.708 31.8752L115.884 32.0695L114.033 33.9067L113.839 33.6947C113.328 33.1647 112.781 32.8291 111.706 32.8291C110.049 32.8291 108.885 34.1187 108.885 35.9559C108.885 37.8815 110.119 39.1181 112.058 39.1181C112.693 39.1181 113.363 39.0121 113.804 38.8354V37.7755H111.283V37.7931ZM126.304 30.4796H129.143L125.229 37.8108V41.5029H122.496V37.9698L118.353 30.4796H121.385L123.307 33.995C123.519 34.3837 123.73 34.8783 123.889 35.3023C124.047 34.896 124.259 34.4013 124.453 34.0127L126.304 30.4796Z" fill="#FC8019"/>
</g>
<defs>
<clipPath id="clip0_108_414">
<rect width="96" height="28" fill="white" transform="translate(33.1428 22)"/>
</clipPath>
</defs>
</svg>
