<svg width="163" height="72" viewBox="0 0 163 72" fill="none" xmlns="http://www.w3.org/2000/svg">
<rect x="0.571411" width="161.714" height="72" rx="8" fill="url(#paint0_linear_108_376)"/>
<g clip-path="url(#clip0_108_376)">
<mask id="mask0_108_376" style="mask-type:luminance" maskUnits="userSpaceOnUse" x="36" y="21" width="91" height="30">
<path d="M36.4285 21H126.429V51H36.4285V21Z" fill="white"/>
</mask>
<g mask="url(#mask0_108_376)">
<path fill-rule="evenodd" clip-rule="evenodd" d="M93.3516 27.61C93.3492 27.375 93.3938 27.1419 93.4828 26.9244C93.5719 26.7068 93.7035 26.5093 93.87 26.3435C94.0365 26.1776 94.2346 26.0467 94.4524 25.9585C94.6703 25.8704 94.9036 25.8267 95.1386 25.83H96.3966V23.213C96.3569 22.9376 96.3771 22.6568 96.4557 22.3899C96.5343 22.123 96.6695 21.8761 96.852 21.6661C97.0346 21.4561 97.2603 21.2879 97.5137 21.173C97.7671 21.058 98.0423 20.999 98.3206 21C98.7395 21.0005 99.147 21.1361 99.4827 21.3867C99.8183 21.6373 100.064 21.9895 100.184 22.391C100.264 22.657 100.284 22.938 100.244 23.213V25.83H104.334C104.687 25.8261 105.034 25.9283 105.33 26.1235C105.625 26.3187 105.855 26.5979 105.99 26.925C106.101 27.1964 106.143 27.491 106.113 27.7827C106.083 28.0744 105.982 28.3543 105.819 28.5977C105.655 28.8411 105.434 29.0405 105.175 29.1783C104.917 29.3161 104.628 29.3881 104.335 29.388H100.245V35.691C100.245 38.764 101.959 40.335 104.335 40.335C104.811 40.3358 105.269 40.5254 105.606 40.8623C105.944 41.1993 106.134 41.6561 106.136 42.133C106.136 42.3696 106.089 42.6039 105.999 42.8225C105.908 43.041 105.776 43.2396 105.608 43.4067C105.441 43.5739 105.242 43.7063 105.023 43.7965C104.805 43.8866 104.57 43.9327 104.334 43.932C99.8216 43.932 96.3966 40.756 96.3966 35.691V29.389H95.1386C94.6664 29.3872 94.214 29.1993 93.8795 28.8661C93.545 28.5328 93.3553 28.0822 93.3516 27.61ZM77.6076 48.656V41.811C79.2084 43.2181 81.2703 43.9882 83.4016 43.975C88.4286 43.975 92.2346 39.89 92.2346 34.719C92.2346 29.549 88.4286 25.464 83.4016 25.464C81.2632 25.4446 79.1955 26.2287 77.6076 27.661V27.42C77.5582 27.0751 77.4169 26.7499 77.1985 26.4785C76.98 26.2071 76.6926 25.9996 76.3662 25.8776C76.0399 25.7557 75.6867 25.7239 75.3438 25.7855C75.001 25.8472 74.681 26 74.4176 26.228C74.0644 26.5341 73.8336 26.9574 73.7676 27.42V48.657C73.8168 49.0021 73.9581 49.3275 74.1766 49.599C74.3951 49.8706 74.6828 50.0783 75.0093 50.2002C75.3358 50.3222 75.6891 50.3539 76.0321 50.2921C76.3751 50.2303 76.6952 50.0773 76.9586 49.849C77.3118 49.5429 77.5426 49.1197 77.6086 48.657L77.6076 48.656ZM82.9846 29.024C85.9846 29.024 88.3616 31.469 88.3616 34.719C88.3616 37.969 85.9856 40.414 82.9846 40.414C79.9836 40.414 77.6076 37.969 77.6076 34.719V34.472C77.7146 31.367 79.9836 29.024 82.9846 29.024ZM53.7806 34.69C53.7944 32.9293 54.3069 31.2085 55.2586 29.727C56.2092 28.2471 57.5606 27.0676 59.1556 26.326C60.7493 25.5851 62.521 25.3132 64.2635 25.5422C66.0061 25.7712 67.6474 26.4915 68.9956 27.619C69.2047 27.8004 69.3742 28.0227 69.4938 28.2723C69.6133 28.5219 69.6803 28.7934 69.6906 29.07C69.6932 29.5912 69.4923 30.0928 69.1306 30.468L63.7856 36.848C63.6304 37.0496 63.4297 37.2115 63.2 37.3207C62.9702 37.4298 62.7179 37.4831 62.4636 37.476C62.1098 37.4952 61.7588 37.4039 61.4591 37.2149C61.1594 37.0259 60.9258 36.7485 60.7906 36.421C60.7008 36.2036 60.6565 35.9702 60.6606 35.735C60.6491 35.5252 60.6798 35.3152 60.7509 35.1175C60.822 34.9198 60.9321 34.7384 61.0746 34.584L65.2816 29.641C64.5929 29.2177 63.7979 28.9995 62.9896 29.012C60.0036 29.012 57.6396 31.522 57.6396 34.69C57.6396 37.858 59.9696 40.368 62.9896 40.368C63.6786 40.3752 64.3615 40.2391 64.9952 39.9685C65.6288 39.6979 66.1993 39.2987 66.6706 38.796L66.8836 38.62C67.3336 38.243 67.7076 37.93 68.3396 37.93C68.5858 37.9192 68.8316 37.9593 69.0616 38.0477C69.2917 38.1361 69.501 38.271 69.6766 38.444C69.8528 38.6169 69.9917 38.8242 70.0846 39.053C70.1775 39.2818 70.2224 39.5272 70.2166 39.774C70.1808 40.2437 69.9829 40.6863 69.6566 41.026C68.8231 41.9653 67.7947 42.7115 66.6433 43.2127C65.4919 43.7139 64.245 43.958 62.9896 43.928C61.7739 43.9471 60.5668 43.7211 59.4404 43.2634C58.314 42.8057 57.2914 42.1257 56.4336 41.264C55.5738 40.4016 54.896 39.3754 54.4403 38.2461C53.9846 37.1168 53.7602 35.9076 53.7806 34.69ZM46.3316 29.339H38.6156C38.1443 29.336 37.6932 29.147 37.3606 28.813C37.0268 28.4778 36.8386 28.0245 36.8369 27.5514C36.8352 27.0783 37.0201 26.6236 37.3516 26.286C37.5172 26.12 37.7143 25.9887 37.9314 25.8999C38.1485 25.8111 38.3811 25.7666 38.6156 25.769H50.1726C50.5263 25.7647 50.8731 25.8673 51.1675 26.0634C51.4619 26.2595 51.6903 26.5399 51.8226 26.868C51.9116 27.085 51.9556 27.318 51.9526 27.554C51.935 28.0298 51.7357 28.4808 51.3956 28.814L42.0006 40.056H50.1726C50.5264 40.0518 50.8733 40.1545 51.1677 40.3508C51.4622 40.5471 51.6904 40.8278 51.8226 41.156C51.9552 41.4831 51.9885 41.8419 51.9184 42.1878C51.8484 42.5337 51.678 42.8513 51.4286 43.101C51.0956 43.4349 50.6441 43.6236 50.1726 43.626H38.2086C37.9726 43.6235 37.7394 43.5745 37.5224 43.4818C37.3053 43.3892 37.1087 43.2547 36.9436 43.086C36.6096 42.745 36.4246 42.285 36.4286 41.807C36.4406 41.335 36.6286 40.885 36.9526 40.543L46.3326 29.338L46.3316 29.339ZM109.52 29.568C108.505 31.0865 107.964 32.8718 107.964 34.698C107.942 35.9164 108.166 37.1267 108.622 38.2566C109.078 39.3865 109.757 40.413 110.619 41.2746C111.481 42.1363 112.507 42.8155 113.637 43.2717C114.767 43.728 115.977 43.9518 117.196 43.93C118.791 43.9302 120.359 43.5172 121.747 42.7311C123.135 41.945 124.296 40.8126 125.116 39.4444C125.936 38.0763 126.388 36.5189 126.427 34.9242C126.466 33.3295 126.092 31.7518 125.34 30.3449C124.588 28.938 123.484 27.75 122.137 26.8965C120.789 26.0431 119.243 25.5534 117.65 25.4751C116.057 25.3969 114.47 25.7328 113.045 26.4501C111.62 27.1674 110.406 28.2416 109.52 29.568ZM117.196 29.016C120.259 29.016 122.563 31.562 122.563 34.697C122.563 37.799 120.264 40.378 117.196 40.378C114.128 40.378 111.83 37.833 111.83 34.698C111.83 31.562 114.133 29.016 117.196 29.016Z" fill="url(#paint1_linear_108_376)"/>
</g>
</g>
<defs>
<linearGradient id="paint0_linear_108_376" x1="0.571411" y1="0" x2="167.549" y2="56.4243" gradientUnits="userSpaceOnUse">
<stop stop-color="#710E6A"/>
<stop offset="0.5" stop-color="#3C006A"/>
<stop offset="1" stop-color="#630A6A"/>
</linearGradient>
<linearGradient id="paint1_linear_108_376" x1="81.4292" y1="21" x2="81.4292" y2="50.3229" gradientUnits="userSpaceOnUse">
<stop stop-color="#ED376A"/>
<stop offset="1" stop-color="#F36F53"/>
</linearGradient>
<clipPath id="clip0_108_376">
<rect width="90" height="30" fill="white" transform="translate(36.4285 21)"/>
</clipPath>
</defs>
</svg>
