<svg width="162" height="72" viewBox="0 0 162 72" fill="none" xmlns="http://www.w3.org/2000/svg">
<rect x="0.142822" width="161.714" height="72" rx="8" fill="#E23744"/>
<g clip-path="url(#clip0_108_312)">
<path d="M39.3115 29.5621L39.2036 33.0748L30.1547 43.0334C33.9346 43.0334 36.3314 42.996 37.7135 42.9183C37.3129 44.8083 36.9872 46.3533 36.659 48.6697C34.8413 48.5143 32.0075 48.4754 29.1722 48.4754C26.0117 48.4754 23.2493 48.5138 21.0325 48.6697L21.1064 45.1172L30.1547 35.1983C26.1935 35.1983 24.7394 35.2362 23.1049 35.2751C23.4672 33.4993 23.7219 31.5316 23.9762 29.5621C26.8469 29.6777 27.9733 29.7155 31.7168 29.7155C35.1694 29.716 37.1306 29.6777 39.3115 29.5621ZM49.5967 28.5187C43.7079 28.5187 39.2036 33.8456 39.2036 40.2168C39.2036 45.0025 41.9285 48.6697 47.2339 48.6697C53.1578 48.6697 57.6275 43.3419 57.6275 36.9333C57.628 32.1878 54.9741 28.5187 49.5967 28.5187ZM47.8154 43.5498C46.5067 43.5498 45.7444 42.3515 45.7444 39.9972C45.7444 36.4845 47.1615 33.6673 48.9068 33.6673C50.1776 33.6673 50.9409 34.8263 50.9409 37.2179C50.9404 40.6918 49.5607 43.5498 47.8154 43.5498ZM132.83 28.2545C126.866 28.2545 122.301 33.6518 122.301 40.1031C122.301 44.954 125.062 48.6697 130.437 48.6697C136.438 48.6697 140.967 43.2719 140.967 36.7803C140.967 31.9707 138.281 28.2545 132.83 28.2545ZM130.914 43.5294C129.604 43.5294 128.843 42.3311 128.843 39.9768C128.843 36.4641 130.26 33.6474 132.005 33.6474C133.275 33.6474 134.04 34.8054 134.04 37.1975C134.039 40.6728 132.658 43.5294 130.914 43.5294ZM88.1889 35.4679C88.6619 32.1878 88.4076 29.2148 84.8105 29.2148C82.1936 29.2148 79.3593 31.4539 77.3607 35.1983C77.7972 32.1092 77.542 29.2148 73.9809 29.2148C71.2919 29.2148 68.3847 31.569 66.3852 35.4679C66.8942 32.9203 66.7858 30.0245 66.6399 29.4071C64.5689 29.7549 62.7526 29.9472 60.208 30.0245C60.281 31.8007 60.1716 34.1152 59.8444 36.3174L59.0087 42.1067C58.6815 44.3852 58.3179 47.01 57.9542 48.6702H64.7138C64.7507 47.6652 65.0054 46.0833 65.1868 44.6936L65.7682 40.7185C66.2403 38.1306 68.2749 35.0827 69.8374 35.0827C70.746 35.0827 70.7105 35.9701 70.4558 37.6298L69.8014 42.1062C69.4733 44.3847 69.1111 47.0095 68.7469 48.6697H75.5789C75.6158 47.6648 75.8336 46.0828 76.015 44.6931L76.596 40.718C77.069 38.1301 79.105 35.0822 80.6665 35.0822C81.5761 35.0822 81.5402 35.9303 81.3934 37.0892L79.7613 48.6692H85.9965L88.1889 35.4679ZM120.836 42.6094L120.109 47.165C118.982 47.7823 116.874 48.6707 114.439 48.6707C110.296 48.6707 109.462 46.4315 110.114 41.6836L111.169 34.0404H109.13L109.706 29.0928L111.932 28.984L112.768 25.3941L119.054 23L118.255 28.9836H122.58C122.435 29.6009 121.925 32.999 121.782 34.0399H117.564L116.619 41.1042C116.364 42.9183 116.511 43.575 117.745 43.575C118.655 43.574 119.999 43.0334 120.836 42.6094ZM96.9907 45.0701C99.2785 44.783 100.853 42.5501 101.232 40.3222L101.295 39.7252C100.312 39.5028 98.8914 39.3332 97.5136 39.5037C96.2015 39.6655 95.1096 40.2177 94.5224 41.0172C94.0796 41.5913 93.857 42.2781 93.9558 43.0971C94.105 44.3235 95.4449 45.2609 96.9907 45.0701ZM95.0434 48.5983C91.8143 49 89.6876 47.7022 89.049 44.7505C88.6485 42.8931 89.2045 40.7773 90.1769 39.5149C91.4794 37.8639 93.6018 36.8041 96.1919 36.484C98.2764 36.2222 100.033 36.3514 101.675 36.6662L101.743 36.381C101.79 35.925 101.838 35.4698 101.772 34.9249C101.602 33.5255 100.512 32.692 97.8206 33.0272C96.0048 33.253 94.2773 33.917 92.9359 34.6728L91.631 30.6807C93.4492 29.6237 95.7409 28.8194 98.3637 28.4935C103.374 27.8713 106.894 29.4887 107.345 33.2074C107.464 34.1963 107.479 35.2445 107.355 36.1955C106.712 40.7933 106.3 44.2531 106.119 46.5719C106.09 46.9308 106.092 47.5477 106.124 48.422L99.907 48.4162C100.039 48.0538 100.158 47.5623 100.263 46.9459C100.333 46.5403 100.383 46.0289 100.415 45.4091C99.1006 47.2344 97.2943 48.3185 95.0434 48.5983Z" fill="white"/>
</g>
<defs>
<clipPath id="clip0_108_312">
<rect width="120" height="26" fill="white" transform="translate(21 23)"/>
</clipPath>
</defs>
</svg>
