<svg width="101" height="24" viewBox="0 0 101 24" fill="none" xmlns="http://www.w3.org/2000/svg">
<g id="Logo">
<path id="Union" fill-rule="evenodd" clip-rule="evenodd" d="M82.5395 0H85.567L88.3248 3.37846L85.567 6.95425H82.5395L85.2433 3.37846L82.5395 0ZM91.6558 0H88.3256L91.2998 3.37846L88.3256 6.95425H91.6558L94.6893 3.37846L91.6558 0ZM97.44 0H94.1097L97.0839 3.37846L94.1097 6.95425H97.44L100.473 3.37846L97.44 0Z" fill="#FFC226"/>
<path id="Vector" d="M86.6153 8.34993H82.5083V23.6679H86.6153V8.34993ZM74.6156 8.04809C73.7064 8.0393 72.805 8.21874 71.9681 8.57519C71.1749 8.91924 70.4635 9.42767 69.8806 10.067V3.42388H65.7728V23.6679H69.8797V15.3374C69.8797 14.255 70.2052 13.4063 70.8558 12.7914C71.5064 12.1709 72.3776 11.8606 73.4694 11.8606C74.4336 11.8606 75.1761 12.151 75.697 12.7318C76.2089 13.3156 76.465 14.1528 76.4651 15.2437V23.6677H80.5977V14.7805C80.5977 12.6636 80.1024 11.0117 79.112 9.82467C78.0963 8.64028 76.5983 8.04809 74.6156 8.04809ZM59.7223 8.34993V4.63089L55.6015 5.06412V8.34953H52.8947V11.8602H55.6015V18.5162C55.6015 20.3353 56.081 21.6914 57.0398 22.5845C58.0017 23.477 59.3708 23.9233 61.1471 23.9233C61.9795 23.9191 62.8094 23.8335 63.6253 23.6679V20.1402C63.1378 20.2131 62.6455 20.2486 62.1528 20.2463C61.324 20.2463 60.713 20.0806 60.3198 19.749C59.921 19.4204 59.7215 18.8593 59.7215 18.0659V11.8606H63.4171V8.34993H59.7223ZM51.2783 8.34993H47.7006L47.5479 9.87149C46.1866 8.64731 44.4128 7.98515 42.5836 8.01832C41.1982 7.99834 39.8327 8.35057 38.6292 9.03839C37.4612 9.70093 36.5026 10.6788 35.8625 11.8606C35.4782 12.5667 35.2049 13.3279 35.0521 14.1175C34.9277 14.7373 34.8667 15.3682 34.8696 16.0004C34.8678 16.6326 34.9288 17.2633 35.0521 17.8833C35.2105 18.6488 35.4746 19.3883 35.8371 20.0806C36.4626 21.2727 37.4093 22.265 38.5699 22.945C39.7857 23.659 41.1744 24.0235 42.5836 23.999C43.4983 24.0044 44.4059 23.8403 45.2608 23.5146C46.1037 23.2013 46.8796 22.7311 47.5479 22.129L47.7006 23.6675H51.2774L51.2783 8.34993ZM40.2118 13.0508C40.9613 12.2772 41.9329 11.8904 43.1267 11.8904C43.6639 11.8735 44.199 11.9679 44.6985 12.1675C45.1978 12.3672 45.6506 12.6679 46.0287 13.0508C46.7656 13.8558 47.1744 14.9082 47.1744 16.0004C47.1744 17.0926 46.7656 18.145 46.0287 18.95C45.6506 19.3329 45.1978 19.6336 44.6985 19.8333C44.199 20.0329 43.6639 20.1273 43.1267 20.1104C41.9329 20.1104 40.9613 19.7236 40.2118 18.95C39.4749 18.145 39.0662 17.0926 39.0662 16.0004C39.0662 14.9082 39.4749 13.8558 40.2118 13.0508ZM16.5482 14.1176C16.4238 14.7375 16.3625 15.3684 16.3656 16.0006C16.3636 16.6328 16.4248 17.2635 16.5482 17.8835C16.7064 18.649 16.9706 19.3885 17.333 20.0808C17.9587 21.2728 18.9055 22.2652 20.0659 22.945C21.2819 23.659 22.6706 24.0235 24.0799 23.999C24.9944 24.0044 25.9021 23.8403 26.7571 23.5146C27.5998 23.2013 28.3759 22.7312 29.0441 22.129L29.1969 23.6675H32.7736V8.34993H29.1965L29.0437 9.87149C27.6823 8.64731 25.9085 7.98515 24.0793 8.01832C22.6939 7.99834 21.3286 8.35057 20.1251 9.03839C18.9571 9.70095 17.9986 10.6788 17.3586 11.8606C16.9743 12.5667 16.7009 13.3281 16.5482 14.1176ZM20.5619 16.0004C20.5431 15.4566 20.635 14.9147 20.832 14.4076C21.0289 13.9005 21.3268 13.4388 21.7076 13.0508C22.457 12.2772 23.4287 11.8904 24.6224 11.8904C25.1598 11.8735 25.6949 11.9679 26.1942 12.1675C26.6937 12.3672 27.1465 12.6679 27.5246 13.0508C28.2615 13.8558 28.6701 14.9082 28.6701 16.0004C28.6701 17.0926 28.2615 18.145 27.5246 18.95C27.1465 19.3329 26.6937 19.6336 26.1942 19.8333C25.6949 20.0329 25.1598 20.1273 24.6224 20.1104C23.4287 20.1104 22.457 19.7236 21.7076 18.95C21.3268 18.5619 21.0289 18.1003 20.832 17.5932C20.635 17.0861 20.5431 16.5442 20.5619 16.0004ZM14.4644 21.0031C15.1355 20.0064 15.4824 18.8261 15.4574 17.6241C15.4574 15.8588 14.8564 14.4789 13.6545 13.4844C12.4494 12.5125 10.7098 11.8296 8.43566 11.4357C7.00154 11.2062 6.01421 10.9256 5.47405 10.5941C5.22214 10.4545 5.01327 10.2483 4.87033 9.99796C4.72739 9.74764 4.65582 9.4628 4.66345 9.17452C4.65401 8.88738 4.71994 8.60279 4.85471 8.34919C4.98947 8.09558 5.18835 7.88186 5.43137 7.72937C5.95191 7.36951 6.66335 7.18957 7.56567 7.18957C8.48488 7.18957 9.21466 7.38083 9.755 7.76331C10.0271 7.97146 10.2552 8.23148 10.4263 8.5284C10.5974 8.8253 10.7082 9.15323 10.7521 9.49324H15.097C14.9272 7.55513 14.1705 6.00943 12.827 4.85614C11.4919 3.71145 9.76772 3.1391 7.65485 3.1391C6.34314 3.11624 5.0416 3.37268 3.83614 3.89144C2.77689 4.33854 1.87239 5.08793 1.23524 6.04627C0.593011 7.01763 0.262813 8.16266 0.289149 9.32754C0.289149 11.0843 0.869084 12.4302 2.02877 13.3653C3.191 14.289 4.8854 14.9464 7.11178 15.3374C8.52611 15.5895 9.52888 15.9012 10.1201 16.2725C10.3825 16.4261 10.6008 16.645 10.7539 16.908C10.9071 17.171 10.9899 17.4692 10.9941 17.7736C10.9984 18.078 10.924 18.3784 10.7783 18.6456C10.6326 18.9128 10.4205 19.1378 10.1626 19.2987C9.60243 19.67 8.82162 19.8556 7.82049 19.8556C6.76814 19.8556 5.94501 19.6303 5.35091 19.1799C5.05486 18.9441 4.81311 18.6469 4.64238 18.3086C4.47184 17.9704 4.3763 17.5992 4.36232 17.2205H0C0.130227 19.3374 0.886883 20.9893 2.27015 22.1764C3.64198 23.3406 5.49185 23.9227 7.81977 23.9227C9.16453 23.9458 10.4993 23.6895 11.7404 23.1704C12.8365 22.7236 13.7819 21.9715 14.4644 21.0031Z" fill="white"/>
</g>
</svg>
