<svg width="118" height="53" viewBox="0 0 118 53" fill="none" xmlns="http://www.w3.org/2000/svg">
<path d="M109.811 7.10798H104.952V25.8817H109.811V7.10798ZM93.1593 6.74656C92.0818 6.73987 91.0176 6.96073 90.0337 7.38908C89.0967 7.81074 88.2534 8.43318 87.564 9.22295V1.07764H82.705V25.8951H87.564V15.6816C87.564 14.3564 87.9455 13.319 88.7152 12.556C89.4849 11.793 90.5089 11.4115 91.8074 11.4115C93.1058 11.4115 93.8219 11.7663 94.4377 12.4757C95.04 13.1919 95.3479 14.2159 95.3479 15.5612V25.8884H100.234V14.9923C100.234 12.3954 99.6515 10.3741 98.4802 8.91507C97.2755 7.4694 95.5086 6.74656 93.1593 6.74656ZM74.3187 7.10798V2.54339L69.4529 3.07213V7.10798H66.2537V11.4115H69.4529V19.5702C69.4529 21.799 70.0151 23.4655 71.1462 24.5632C72.2773 25.6541 73.9037 26.2096 75.9986 26.2096C76.9825 26.2096 77.9663 26.1025 78.9301 25.8951V21.5714C78.3545 21.6651 77.7723 21.7053 77.1967 21.6986C76.2128 21.6986 75.49 21.4911 75.0281 21.0828C74.5596 20.6746 74.3187 19.9919 74.3187 19.0214V11.4115H78.6959V7.10798H74.3187ZM63.1013 7.10798H58.8714L58.6907 8.97531C57.0777 7.47609 54.9828 6.66624 52.821 6.7064C51.1812 6.67963 49.5682 7.11467 48.1426 7.95798C46.7571 8.76783 45.626 9.96586 44.8697 11.4182C44.4146 12.2816 44.0934 13.2186 43.9193 14.1891C43.7721 14.9454 43.6985 15.7218 43.6985 16.4915C43.6985 17.2679 43.7654 18.0376 43.9193 18.7939C44.1067 19.7309 44.4213 20.6411 44.843 21.4911C45.5859 22.9502 46.7036 24.1683 48.0757 25.0049C49.5146 25.8817 51.1544 26.3301 52.821 26.2966C53.8985 26.2966 54.9694 26.1025 55.98 25.701C56.9773 25.3195 57.8875 24.7372 58.6773 24.001L58.858 25.8884H63.0946V7.10798M50.0166 12.8706C50.9001 11.9202 52.0513 11.4517 53.4568 11.4517C54.7418 11.4115 55.9867 11.9202 56.8903 12.8706C57.7938 13.821 58.2422 15.019 58.2422 16.4848C58.2422 17.9505 57.7938 19.1486 56.8903 20.099C55.9867 21.0494 54.7418 21.558 53.4568 21.5179C52.0446 21.5179 50.9001 21.0494 50.0166 20.099C49.1131 19.1486 48.6646 17.9505 48.6646 16.4848C48.6646 15.019 49.1131 13.8143 50.0166 12.8706ZM20.8019 14.1824C20.5208 15.7017 20.5208 17.2679 20.8019 18.7872C20.9893 19.7242 21.3039 20.6344 21.7255 21.4844C22.4685 22.9435 23.5862 24.1616 24.9582 24.9982C26.3972 25.875 28.037 26.3234 29.7035 26.2899C30.7878 26.2899 31.8587 26.0959 32.876 25.6943C33.8732 25.3128 34.7835 24.7305 35.5732 23.9943L35.754 25.8817H39.9772V7.10798H35.754L35.5732 8.97531C33.9602 7.47609 31.8653 6.66624 29.7035 6.7064C28.0638 6.67963 26.4508 7.11467 25.0252 7.95798C23.6397 8.76783 22.5086 9.96586 21.7523 11.4182C21.3039 12.2883 20.9826 13.2186 20.8019 14.1891M25.5606 16.4848C25.5606 15.019 26.009 13.8143 26.9126 12.8706C27.796 11.9202 28.9472 11.4517 30.3527 11.4517C31.6378 11.4115 32.8827 11.9202 33.7862 12.8706C35.5933 14.9186 35.5933 18.0576 33.7862 20.099C32.8827 21.0494 31.6378 21.558 30.3527 21.5179C28.9405 21.5179 27.796 21.0494 26.9126 20.099C26.009 19.1486 25.5606 17.9505 25.5606 16.4848ZM17.1074 22.6222C17.9039 21.3974 18.3121 19.9517 18.2787 18.4726C18.2787 16.3041 17.5692 14.6108 16.1503 13.3993C14.7247 12.2147 12.67 11.3714 9.97942 10.8895C8.28611 10.6084 7.12154 10.267 6.47901 9.85878C5.86996 9.51074 5.50184 8.84145 5.52862 8.11861C5.50184 7.40247 5.84988 6.72648 6.43216 6.34498C7.04122 5.90994 7.88453 5.68238 8.9621 5.68238C10.0397 5.68238 10.9097 5.90994 11.5523 6.39183C12.2015 6.90719 12.6298 7.67688 12.7369 8.52019H17.8637C17.6629 6.14419 16.7661 4.25009 15.1731 2.83119C13.6003 1.42567 11.5523 0.729603 9.0558 0.729603C7.50303 0.702832 5.96366 1.0174 4.53806 1.65323C3.28648 2.19536 2.21561 3.11229 1.466 4.29025C0.709697 5.48159 0.321505 6.88711 0.348277 8.31271C0.348277 10.4678 1.03096 12.121 2.40301 13.2655C3.77506 14.4033 5.78295 15.2064 8.41327 15.6816C10.0932 15.9962 11.2712 16.371 11.9739 16.8261C12.9712 17.4285 13.3058 18.7604 12.7235 19.7911C12.5495 20.0923 12.3153 20.3466 12.0275 20.534C11.3649 20.9958 10.4412 21.2234 9.25659 21.2234C8.07193 21.2234 7.04122 20.9423 6.33846 20.3868C5.6357 19.8246 5.25421 19.0214 5.17389 17.9907H0.000244141C0.154182 20.5876 1.05104 22.6088 2.69081 24.0679C4.31719 25.4935 6.50579 26.2096 9.24989 26.2163C10.8428 26.2431 12.4157 25.9285 13.8881 25.2927C15.1865 24.7439 16.3043 23.8203 17.1074 22.6356" fill="white"/>
<path d="M115.065 0.0135077H112.856L114.831 2.2021L112.856 4.51786H115.065L117.066 2.2021L115.065 0.0135077ZM110.875 2.2021L108.908 4.51786H111.116L113.124 2.2021L111.116 0.0135077H108.908L110.875 2.2021ZM107.154 4.50447L109.162 2.18871L107.154 0.00012207H104.945L106.913 2.18871L104.945 4.50447H107.154Z" fill="#FFBB00"/>
<path d="M12.6526 45.9814C12.6525 48.2016 12.0817 49.8594 10.9407 50.9541C9.79958 52.0486 8.14201 52.5957 5.96802 52.5957C4.70354 52.5957 3.56194 52.395 2.54419 51.9941C1.52665 51.5778 0.678638 50.9767 0.000244141 50.1904L2.93774 46.7207C3.36952 47.2449 3.79385 47.6463 4.21021 47.9238C4.62645 48.1859 5.05805 48.3173 5.50513 48.3174C6.67708 48.3174 7.26294 47.6461 7.26294 46.3047V40.1523H1.75806V36.0361H12.6526V45.9814ZM21.679 39.3428C23.113 39.3428 24.3851 39.6207 25.4954 40.1758C26.6056 40.7308 27.4694 41.5016 28.0862 42.4883C28.7184 43.4751 29.0344 44.6089 29.0344 45.8887C29.0344 47.1683 28.7183 48.3014 28.0862 49.2881C27.4694 50.2748 26.6056 51.0535 25.4954 51.624C24.3851 52.1791 23.113 52.457 21.679 52.457C20.2449 52.457 18.9728 52.1791 17.8625 51.624C16.7677 51.0535 15.904 50.2749 15.2717 49.2881C14.6396 48.3013 14.3235 47.1683 14.3235 45.8887C14.3235 44.6089 14.6395 43.4751 15.2717 42.4883C15.9039 41.5016 16.7678 40.7308 17.8625 40.1758C18.9728 39.6208 20.245 39.3428 21.679 39.3428ZM35.8977 40.4443C36.0487 40.3012 36.211 40.1734 36.384 40.0605C37.1088 39.5826 38.0187 39.3428 39.1135 39.3428C40.2237 39.3428 41.2411 39.6057 42.1663 40.1299C43.0915 40.6541 43.8318 41.4097 44.387 42.3965C44.942 43.3678 45.22 44.5319 45.22 45.8887C45.22 47.2455 44.9421 48.4175 44.387 49.4043C43.8318 50.3756 43.0914 51.1313 42.1663 51.6709C41.2412 52.195 40.2236 52.457 39.1135 52.457C37.957 52.457 37.024 52.2253 36.3147 51.7627C36.067 51.6012 35.8445 51.4072 35.6438 51.1836V52.2256H30.6702V35.0645H35.8977V40.4443ZM70.7444 39.3428C71.9933 39.3428 73.1422 39.5897 74.1907 40.083C75.2547 40.5764 76.1034 41.3089 76.7356 42.2803C77.3833 43.2517 77.7063 44.4547 77.7063 45.8887C77.7063 46.0736 77.6992 46.2816 77.6838 46.5127C77.6684 46.7285 77.6524 46.9293 77.637 47.1143H68.8606C68.9027 47.2276 68.9526 47.336 69.01 47.4385C69.2259 47.8237 69.534 48.117 69.9348 48.3174C70.3357 48.5023 70.8214 48.5947 71.3918 48.5947C71.9778 48.5947 72.4563 48.5175 72.8264 48.3633C73.2117 48.2091 73.6125 47.9781 74.0286 47.6699L76.7581 50.4219C76.1413 51.0848 75.3777 51.5936 74.468 51.9482C73.5737 52.2874 72.494 52.457 71.2297 52.457C69.6878 52.457 68.3383 52.172 67.1819 51.6016C66.0409 51.0311 65.1539 50.2524 64.5217 49.2656C63.8895 48.2634 63.5735 47.1376 63.5735 45.8887C63.5735 44.6089 63.8825 43.4751 64.4993 42.4883C65.1315 41.5016 65.9874 40.7308 67.0667 40.1758C68.1615 39.6207 69.3874 39.3428 70.7444 39.3428ZM85.8557 39.3428C87.1048 39.3428 88.2544 39.5896 89.303 40.083C90.3668 40.5764 91.2147 41.309 91.8469 42.2803C92.4946 43.2517 92.8186 44.4547 92.8186 45.8887C92.8186 46.0736 92.8106 46.2816 92.7952 46.5127C92.7797 46.7285 92.7647 46.9293 92.7493 47.1143H83.9729C84.015 47.2276 84.064 47.3361 84.1213 47.4385C84.3372 47.8238 84.6454 48.117 85.0461 48.3174C85.4471 48.5024 85.9336 48.5947 86.5042 48.5947C87.0899 48.5947 87.5677 48.5174 87.9377 48.3633C88.3232 48.2091 88.7246 47.9783 89.1409 47.6699L91.8704 50.4219C91.2536 51.0849 90.4901 51.5936 89.5803 51.9482C88.686 52.2874 87.6064 52.457 86.342 52.457C84.8001 52.457 83.4507 52.172 82.2942 51.6016C81.1532 51.0311 80.2663 50.2523 79.634 49.2656C79.0018 48.2634 78.6858 47.1376 78.6858 45.8887C78.6858 44.6089 78.9938 43.4751 79.6106 42.4883C80.2428 41.5016 81.0987 40.7308 82.178 40.1758C83.2727 39.6208 84.4989 39.3428 85.8557 39.3428ZM107.888 39.3428C108.813 39.3428 109.738 39.4281 110.663 39.5977C111.589 39.7673 112.383 40.0292 113.046 40.3838L111.612 43.8301C110.964 43.4756 110.325 43.2366 109.693 43.1133C109.076 42.9745 108.497 42.9053 107.957 42.9053C107.295 42.9053 106.84 42.9666 106.593 43.0898C106.362 43.2131 106.246 43.3519 106.245 43.5059C106.245 43.6909 106.377 43.8303 106.639 43.9229C106.901 44.0153 107.248 44.0846 107.68 44.1309C108.112 44.1771 108.582 44.2383 109.091 44.3154C109.615 44.3771 110.132 44.4855 110.641 44.6396C111.165 44.7784 111.643 44.9863 112.074 45.2637C112.506 45.5412 112.853 45.9195 113.115 46.3975C113.378 46.86 113.509 47.4541 113.509 48.1787C113.509 48.934 113.269 49.6428 112.791 50.3057C112.313 50.9533 111.589 51.478 110.617 51.8789C109.646 52.2643 108.428 52.457 106.963 52.457C105.884 52.457 104.819 52.3416 103.771 52.1104C102.722 51.8791 101.873 51.5781 101.226 51.208L102.66 47.7617C103.262 48.1164 103.956 48.3943 104.742 48.5947C105.544 48.7951 106.323 48.8955 107.078 48.8955C107.711 48.8955 108.135 48.8413 108.351 48.7334C108.582 48.6255 108.697 48.4789 108.698 48.2939C108.698 48.1089 108.566 47.9775 108.304 47.9004C108.042 47.808 107.694 47.7386 107.263 47.6924C106.831 47.6461 106.353 47.5919 105.829 47.5303C105.32 47.4532 104.804 47.3458 104.28 47.207C103.755 47.0683 103.277 46.8596 102.845 46.582C102.414 46.3046 102.067 45.9348 101.805 45.4727C101.543 44.9947 101.411 44.3927 101.411 43.668C101.411 42.8663 101.65 42.1416 102.128 41.4941C102.622 40.8465 103.347 40.3298 104.303 39.9443C105.274 39.5435 106.469 39.3428 107.888 39.3428ZM54.9661 36.0361C56.4772 36.0361 57.7804 36.283 58.8752 36.7764C59.9853 37.2697 60.8412 37.9784 61.4426 38.9033C62.044 39.813 62.3449 40.8927 62.345 42.1416C62.345 43.3905 62.044 44.4702 61.4426 45.3799C60.9187 46.1589 60.2014 46.7791 59.2913 47.2422L62.6926 52.2256H56.8635L54.1174 48.1553H52.6301V52.2256H47.1711V36.0361H54.9661ZM99.6956 52.2256H94.468V35.0645H99.6956V52.2256ZM21.679 43.4141C21.2934 43.4141 20.9463 43.5064 20.6379 43.6914C20.3295 43.8764 20.0828 44.1544 19.8977 44.5244C19.7128 44.879 19.6204 45.3338 19.6204 45.8887C19.6204 46.4283 19.7127 46.8909 19.8977 47.2764C20.0827 47.6463 20.3296 47.9234 20.6379 48.1084C20.9463 48.2934 21.2934 48.3867 21.679 48.3867C22.0644 48.3867 22.4116 48.2934 22.72 48.1084C23.0282 47.9234 23.2752 47.6462 23.4602 47.2764C23.6452 46.8909 23.7375 46.4283 23.7375 45.8887C23.7375 45.3338 23.6451 44.879 23.4602 44.5244C23.2752 44.1545 23.0283 43.8764 22.72 43.6914C22.4116 43.5064 22.0644 43.4141 21.679 43.4141ZM37.8645 43.4141C37.4791 43.4141 37.1319 43.5064 36.8235 43.6914C36.5151 43.8764 36.2683 44.1544 36.0833 44.5244C35.8983 44.879 35.8059 45.3337 35.8059 45.8887C35.8059 46.4283 35.8982 46.8909 36.0833 47.2764C36.2683 47.6463 36.5151 47.9234 36.8235 48.1084C37.1319 48.2934 37.479 48.3867 37.8645 48.3867C38.2498 48.3867 38.5963 48.2933 38.9045 48.1084C39.2129 47.9234 39.4597 47.6463 39.6448 47.2764C39.8298 46.8909 39.9231 46.4283 39.9231 45.8887C39.9231 45.3337 39.8298 44.879 39.6448 44.5244C39.4597 44.1544 39.213 43.8764 38.9045 43.6914C38.5963 43.5066 38.2497 43.4141 37.8645 43.4141ZM52.5989 44.6758L57.3938 41.9023L52.5989 39.1299V44.6758ZM70.7903 42.9053C70.3587 42.9053 69.9812 43.0057 69.6575 43.2061C69.3491 43.3911 69.1093 43.661 68.9397 44.0156C68.8534 44.1883 68.7897 44.3811 68.7473 44.5938H72.8284C72.7822 44.3811 72.7125 44.1883 72.6184 44.0156C72.4488 43.661 72.209 43.3911 71.9006 43.2061C71.5922 43.0056 71.2221 42.9053 70.7903 42.9053ZM85.9026 42.9053C85.4708 42.9053 85.0926 43.0056 84.7688 43.2061C84.4605 43.3911 84.2216 43.6611 84.052 44.0156C83.9657 44.1883 83.902 44.3811 83.8596 44.5938H87.9397C87.8935 44.3811 87.8239 44.1883 87.7297 44.0156C87.5602 43.6611 87.3212 43.3911 87.0129 43.2061C86.7046 43.0056 86.3343 42.9053 85.9026 42.9053Z" fill="white"/>
</svg>
