<svg width="70" height="70" viewBox="0 0 70 70" fill="none" xmlns="http://www.w3.org/2000/svg">
<circle cx="35" cy="35" r="35" fill="white"/>
<path d="M36.4107 11.0514C36.8487 11.0514 37.2255 11.2091 37.5409 11.5245C37.8388 11.8224 37.9965 12.1904 38.0052 12.6109V19.1032H39.0566V12.5846C39.0391 11.8837 38.785 11.2792 38.2856 10.7798C37.7687 10.2628 37.1379 10 36.4107 10H15.6547C14.9188 10 14.2967 10.2628 13.7798 10.7798C13.2804 11.2792 13.0175 11.8837 13 12.5934V12.6022V56.9966C13 57.7325 13.2628 58.3546 13.7798 58.8715V58.8803C14.2967 59.3972 14.9188 59.6513 15.6547 59.6513H36.4107C37.1379 59.6513 37.7687 59.3884 38.2856 58.8803V58.8715C38.785 58.3721 39.0391 57.7676 39.0566 57.0667V44.8356H38.0052V57.0579C37.9965 57.4784 37.8388 57.8377 37.5409 58.1268C37.2255 58.4422 36.8487 58.5999 36.4107 58.5999H15.6547C15.2079 58.5999 14.8311 58.4422 14.5245 58.1268C14.2091 57.8114 14.0514 57.4346 14.0514 56.9966V12.6109C14.0689 12.1904 14.2266 11.8224 14.5245 11.5333C14.8399 11.2178 15.2167 11.0601 15.6547 11.0601H36.4107V11.0514Z" fill="#141482"/>
<path d="M55.4321 21.5127H53.7061L55.2481 23.1598L53.7061 24.9034H55.4321L57.0004 23.1598L55.4321 21.5127ZM52.1553 23.1598L50.6133 24.9034H52.3393L53.9076 23.1598L52.3393 21.5127H50.6133L52.1553 23.1598ZM49.2465 24.8946L50.8148 23.1511L49.2465 21.5039H47.5205L49.0625 23.1511L47.5205 24.8946H49.2465Z" fill="#141482"/>
<path d="M45.0843 39.5875C45.7677 38.5887 46.1094 37.4322 46.1094 36.1005C46.1094 34.2781 45.4873 32.8587 44.252 31.8336C43.0078 30.8348 41.2117 30.1251 38.8637 29.7221C37.383 29.4855 36.3666 29.1964 35.8059 28.8547C35.2452 28.513 34.9736 28.0224 34.9736 27.3915C34.9736 26.752 35.2364 26.2526 35.7621 25.9021C36.2966 25.5341 37.0325 25.3414 37.97 25.3414C38.9162 25.3414 39.6697 25.5341 40.2305 25.9371C40.7824 26.3402 41.1241 26.936 41.2643 27.7245H45.7414C45.5662 25.7269 44.7864 24.1323 43.3933 22.9407C42.0178 21.7579 40.2305 21.1709 38.0488 21.1709C36.5769 21.1709 35.2627 21.4337 34.1062 21.9507C32.9584 22.4588 32.056 23.1948 31.4252 24.1673C30.7768 25.1311 30.4526 26.2526 30.4526 27.5493C30.4526 29.3629 31.0484 30.7472 32.2488 31.711C33.4491 32.666 35.2014 33.3406 37.4969 33.7436C38.96 34.0065 39.9939 34.3219 40.6072 34.7074C41.2117 35.0754 41.5096 35.6011 41.5096 36.2757C41.5096 36.9416 41.2205 37.4585 40.651 37.8265C40.0727 38.212 39.2667 38.4047 38.2328 38.4047C37.1464 38.4047 36.2966 38.1682 35.6832 37.7038C35.0699 37.2307 34.737 36.5561 34.6669 35.6887H30.146C30.2774 37.8703 31.066 39.57 32.4941 40.7966C33.9134 41.9969 35.8234 42.6015 38.2241 42.6015C39.7311 42.6015 41.0803 42.3386 42.2719 41.8217C43.4634 41.3135 44.4009 40.5688 45.0843 39.5875Z" fill="#141482"/>
<path d="M13.9902 54.0093V57.0583C14.0253 57.9958 14.5685 58.5828 15.6023 58.8281L36.0867 58.8369C37.3308 58.7142 37.9967 58.0396 38.1018 56.8217V44.8623H30.1114V49.4708H22.0596V54.0093H13.9902Z" fill="#141482"/>
<path d="M27.8658 14.3458H24.1915C23.8006 14.3458 23.4839 14.029 23.4839 13.6382C23.4839 13.2475 23.8006 12.9307 24.1915 12.9307H27.8658C28.2565 12.9307 28.5733 13.2475 28.5733 13.6382C28.5733 14.029 28.2565 14.3458 27.8658 14.3458Z" fill="#141482"/>
</svg>
