<svg width="33" height="32" viewBox="0 0 33 32" fill="none" xmlns="http://www.w3.org/2000/svg">
<path d="M8.81995 26.3425H12.1611C12.5968 26.3425 13.0297 26.3946 13.452 26.4986L16.9824 27.3597C17.7484 27.547 18.5464 27.5652 19.3204 27.4143L23.2238 26.6521C24.2549 26.4505 25.2034 25.9549 25.9468 25.2291L28.7085 22.5328C29.4971 21.7641 29.4971 20.5167 28.7085 19.7467C27.9984 19.0535 26.874 18.9754 26.0707 19.5633L22.8521 21.9202C22.3911 22.2584 21.8303 22.4405 21.2534 22.4405H18.1454L20.1237 22.4404C21.2388 22.4404 22.142 21.5585 22.142 20.4698V20.0757C22.142 19.1717 21.5119 18.3835 20.614 18.165L17.5606 17.4197C17.0636 17.2987 16.5547 17.2376 16.0432 17.2376C14.8082 17.2376 12.5728 18.2638 12.5728 18.2638L8.81995 19.839M3.69995 19.2931L3.69995 26.7445C3.69995 27.464 3.69995 27.8237 3.83946 28.0985C3.96218 28.3403 4.158 28.5368 4.39884 28.66C4.67265 28.8 5.03108 28.8 5.74795 28.8H6.77195C7.48882 28.8 7.84725 28.8 8.12106 28.66C8.36191 28.5368 8.55772 28.3403 8.68044 28.0985C8.81995 27.8237 8.81995 27.464 8.81995 26.7445V19.2931C8.81995 18.5736 8.81995 18.2139 8.68044 17.9391C8.55772 17.6973 8.36191 17.5008 8.12106 17.3776C7.84725 17.2376 7.48882 17.2376 6.77195 17.2376H5.74795C5.03108 17.2376 4.67265 17.2376 4.39884 17.3776C4.158 17.5008 3.96218 17.6973 3.83946 17.9391C3.69995 18.2139 3.69995 18.5736 3.69995 19.2931ZM23.1449 5.15136C22.381 3.54693 20.6197 2.69695 18.9069 3.51735C17.1941 4.33776 16.4644 6.28335 17.1815 7.9913C17.6247 9.04686 18.8945 11.0967 19.7999 12.5086C20.1344 13.0303 20.3017 13.2912 20.546 13.4438C20.7556 13.5746 21.0179 13.6452 21.2646 13.637C21.5522 13.6275 21.827 13.4855 22.3766 13.2016C23.8641 12.4332 25.9849 11.2952 26.8946 10.6035C28.3665 9.48426 28.7311 7.42699 27.6291 5.86307C26.5272 4.29914 24.6058 4.14525 23.1449 5.15136Z" stroke="#A4A4A5" stroke-width="2" stroke-linecap="round" stroke-linejoin="round"/>
</svg>
