<svg width="32" height="32" viewBox="0 0 32 32" fill="none" xmlns="http://www.w3.org/2000/svg">
<path d="M8.31995 26.3425H11.6611C12.0968 26.3425 12.5297 26.3946 12.952 26.4986L16.4824 27.3597C17.2484 27.547 18.0464 27.5652 18.8204 27.4143L22.7238 26.6521C23.7549 26.4505 24.7034 25.9549 25.4468 25.2291L28.2085 22.5328C28.9971 21.7641 28.9971 20.5167 28.2085 19.7467C27.4984 19.0535 26.374 18.9754 25.5707 19.5633L22.3521 21.9202C21.8911 22.2584 21.3303 22.4405 20.7534 22.4405H17.6454L19.6237 22.4404C20.7388 22.4404 21.642 21.5585 21.642 20.4698V20.0757C21.642 19.1717 21.0119 18.3835 20.114 18.165L17.0606 17.4197C16.5636 17.2987 16.0547 17.2376 15.5432 17.2376C14.3082 17.2376 12.0728 18.2638 12.0728 18.2638L8.31995 19.839M3.19995 19.2931L3.19995 26.7445C3.19995 27.464 3.19995 27.8237 3.33946 28.0985C3.46218 28.3403 3.658 28.5368 3.89884 28.66C4.17265 28.8 4.53108 28.8 5.24795 28.8H6.27195C6.98882 28.8 7.34725 28.8 7.62106 28.66C7.86191 28.5368 8.05772 28.3403 8.18044 28.0985C8.31995 27.8237 8.31995 27.464 8.31995 26.7445V19.2931C8.31995 18.5736 8.31995 18.2139 8.18044 17.9391C8.05772 17.6973 7.86191 17.5008 7.62106 17.3776C7.34725 17.2376 6.98882 17.2376 6.27195 17.2376H5.24795C4.53108 17.2376 4.17265 17.2376 3.89884 17.3776C3.658 17.5008 3.46218 17.6973 3.33946 17.9391C3.19995 18.2139 3.19995 18.5736 3.19995 19.2931ZM22.6449 5.15136C21.881 3.54693 20.1197 2.69695 18.4069 3.51735C16.6941 4.33776 15.9644 6.28335 16.6815 7.9913C17.1247 9.04686 18.3945 11.0967 19.2999 12.5086C19.6344 13.0303 19.8017 13.2912 20.046 13.4438C20.2556 13.5746 20.5179 13.6452 20.7646 13.637C21.0522 13.6275 21.327 13.4855 21.8766 13.2016C23.3641 12.4332 25.4849 11.2952 26.3946 10.6035C27.8665 9.48426 28.2311 7.42699 27.1291 5.86307C26.0272 4.29914 24.1058 4.14525 22.6449 5.15136Z" stroke="#2F2C87" stroke-width="2" stroke-linecap="round" stroke-linejoin="round"/>
</svg>
