<svg width="32" height="32" viewBox="0 0 32 32" fill="none" xmlns="http://www.w3.org/2000/svg">
<path d="M12 18.8L20 18.8" stroke="rgba(255, 255, 255, 0.9)" stroke-width="2" stroke-linecap="round"/>
<path d="M12 14L17.3333 14" stroke="rgba(255, 255, 255, 0.9)" stroke-width="2" stroke-linecap="round"/>
<path d="M12 23.6L17.3333 23.6" stroke="rgba(255, 255, 255, 0.9)" stroke-width="2" stroke-linecap="round"/>
<path d="M25.5 19.2222V23C25.5 25.8284 25.5 27.2426 24.6213 28.1213C23.7426 29 22.3284 29 19.5 29H11.5C8.67157 29 7.25736 29 6.37868 28.1213C5.5 27.2426 5.5 25.8284 5.5 23V13C5.5 10.1716 5.5 8.75736 6.37868 7.87868C7.25736 7 8.67157 7 11.5 7H14.0714" stroke="rgba(255, 255, 255, 0.9)" stroke-width="2"/>
<path fill-rule="evenodd" clip-rule="evenodd" d="M23.5 14C26.8137 14 29.5 11.3137 29.5 8C29.5 4.68629 26.8137 2 23.5 2C20.1863 2 17.5 4.68629 17.5 8C17.5 11.3137 20.1863 14 23.5 14ZM23.6016 10.6402L26.9349 6.64018L25.3984 5.35982L22.7661 8.51859L21.5404 7.29289L20.1262 8.70711L22.1262 10.7071L22.9005 11.4814L23.6016 10.6402Z" fill="rgba(255, 255, 255, 0.9)"/>
</svg>