<svg width="34" height="34" viewBox="0 0 34 34" fill="none" xmlns="http://www.w3.org/2000/svg">
<path d="M23.4 10.6V6.12C23.4 4.32783 23.4 3.43175 23.0512 2.74723C22.7444 2.14511 22.2549 1.65557 21.6528 1.34878C20.9683 1 20.0722 1 18.28 1H6.12C4.32783 1 3.43175 1 2.74723 1.34878C2.14511 1.65557 1.65557 2.14511 1.34878 2.74723C1 3.43175 1 4.32783 1 6.12V18.28C1 20.0722 1 20.9683 1.34878 21.6528C1.65557 22.2549 2.14511 22.7444 2.74723 23.0512C3.43175 23.4 4.32783 23.4 6.12 23.4H10.6M17 21.8L20.2 25L27.4 17.8M15.72 33H27.88C29.6722 33 30.5683 33 31.2528 32.6512C31.8549 32.3444 32.3444 31.8549 32.6512 31.2528C33 30.5683 33 29.6722 33 27.88V15.72C33 13.9278 33 13.0317 32.6512 12.3472C32.3444 11.7451 31.8549 11.2556 31.2528 10.9488C30.5683 10.6 29.6722 10.6 27.88 10.6H15.72C13.9278 10.6 13.0317 10.6 12.3472 10.9488C11.7451 11.2556 11.2556 11.7451 10.9488 12.3472C10.6 13.0317 10.6 13.9278 10.6 15.72V27.88C10.6 29.6722 10.6 30.5683 10.9488 31.2528C11.2556 31.8549 11.7451 32.3444 12.3472 32.6512C13.0317 33 13.9278 33 15.72 33Z" stroke="#2F2C87" stroke-width="2" stroke-linecap="round" stroke-linejoin="round"/>
</svg>
