<svg width="26" height="26" viewBox="0 0 26 26" fill="none" xmlns="http://www.w3.org/2000/svg">
<path d="M5.8 22.6961H8.93235C9.34075 22.6961 9.74666 22.7449 10.1426 22.8425L13.4523 23.6497C14.1704 23.8253 14.9185 23.8424 15.6442 23.7009L19.3036 22.9864C20.2703 22.7973 21.1595 22.3328 21.8564 21.6523L24.4455 19.1245C25.1848 18.4038 25.1848 17.2344 24.4455 16.5126C23.7798 15.8626 22.7257 15.7894 21.9726 16.3406L18.9551 18.5502C18.523 18.8672 17.9972 19.0379 17.4564 19.0379H14.5426L16.3973 19.0379C17.4426 19.0379 18.2894 18.2111 18.2894 17.1905V16.821C18.2894 15.9735 17.6987 15.2345 16.8569 15.0297L13.9943 14.331C13.5285 14.2176 13.0514 14.1602 12.5718 14.1602C11.414 14.1602 9.31827 15.1224 9.31827 15.1224L5.8 16.599M1 16.0873L1 23.0729C1 23.7475 1 24.0847 1.13079 24.3424C1.24584 24.569 1.42942 24.7533 1.65521 24.8687C1.91191 25 2.24794 25 2.92 25H3.88C4.55206 25 4.88809 25 5.14479 24.8687C5.37058 24.7533 5.55416 24.569 5.66921 24.3424C5.8 24.0847 5.8 23.7475 5.8 23.0729V16.0873C5.8 15.4128 5.8 15.0755 5.66921 14.8179C5.55416 14.5912 5.37058 14.407 5.14479 14.2915C4.8881 14.1602 4.55206 14.1602 3.88 14.1602H2.92C2.24794 14.1602 1.91191 14.1602 1.65521 14.2915C1.42942 14.407 1.24584 14.5912 1.13079 14.8179C1 15.0755 1 15.4128 1 16.0873ZM19.2296 2.8294C18.5135 1.32525 16.8623 0.528396 15.2565 1.29752C13.6507 2.06665 12.9666 3.89064 13.6389 5.49185C14.0545 6.48144 15.2449 8.40314 16.0937 9.72683C16.4073 10.2159 16.5641 10.4605 16.7932 10.6035C16.9897 10.7262 17.2356 10.7924 17.4669 10.7847C17.7365 10.7757 17.9941 10.6427 18.5094 10.3765C19.9039 9.65611 21.8922 8.58928 22.745 7.94079C24.1249 6.89149 24.4667 4.96281 23.4336 3.49663C22.4005 2.03045 20.5992 1.88618 19.2296 2.8294Z" stroke="#BBB9D6" stroke-width="2" stroke-linecap="round" stroke-linejoin="round"/>
</svg>
