<svg width="35" height="34" viewBox="0 0 35 34" fill="none" xmlns="http://www.w3.org/2000/svg">
<path d="M8.7 18.6L9.95513 21.1103C10.3799 21.9598 10.5923 22.3846 10.876 22.7527C11.1278 23.0793 11.4207 23.3722 11.7473 23.624C12.1154 23.9077 12.5402 24.1201 13.3897 24.5449L15.9 25.8L13.3897 27.0551C12.5402 27.4799 12.1154 27.6923 11.7473 27.9761C11.4207 28.2278 11.1278 28.5207 10.876 28.8473C10.5923 29.2154 10.3799 29.6402 9.95513 30.4897L8.7 33L7.44487 30.4897C7.02008 29.6402 6.80769 29.2154 6.52395 28.8473C6.27217 28.5207 5.97935 28.2278 5.65271 27.9761C5.28462 27.6923 4.85983 27.4799 4.01027 27.0551L1.5 25.8L4.01027 24.5449C4.85983 24.1201 5.28461 23.9077 5.65271 23.624C5.97935 23.3722 6.27217 23.0793 6.52395 22.7527C6.80769 22.3846 7.02008 21.9598 7.44487 21.1103L8.7 18.6Z" stroke="#A4A4A5" stroke-width="2" stroke-linecap="round" stroke-linejoin="round"/>
<path d="M22.3 1L24.1858 5.90307C24.637 7.07624 24.8626 7.66282 25.2135 8.15623C25.5244 8.59353 25.9065 8.97559 26.3438 9.28654C26.8372 9.63738 27.4238 9.86299 28.5969 10.3142L33.5 12.2L28.5969 14.0858C27.4238 14.537 26.8372 14.7626 26.3438 15.1135C25.9065 15.4244 25.5244 15.8065 25.2135 16.2438C24.8626 16.7372 24.637 17.3238 24.1858 18.4969L22.3 23.4L20.4142 18.4969C19.963 17.3238 19.7374 16.7372 19.3865 16.2438C19.0756 15.8065 18.6935 15.4244 18.2562 15.1135C17.7628 14.7626 17.1762 14.537 16.0031 14.0858L11.1 12.2L16.0031 10.3142C17.1762 9.86299 17.7628 9.63738 18.2562 9.28654C18.6935 8.97559 19.0756 8.59353 19.3865 8.15623C19.7374 7.66282 19.963 7.07624 20.4142 5.90307L22.3 1Z" stroke="#A4A4A5" stroke-width="2" stroke-linecap="round" stroke-linejoin="round"/>
</svg>
