<svg width="33" height="34" viewBox="0 0 33 34" fill="none" xmlns="http://www.w3.org/2000/svg">
    <rect y="0.168945" width="33" height="33" rx="6" fill="#F3F4F6"/>
    <g clip-path="url(#clip0_8258_22003)">
    <path d="M23.4411 15.7644L22.7499 15.4191C22.7499 11.9668 19.9515 9.16895 16.5 9.16895C13.0481 9.16895 10.2499 11.9668 10.2499 15.4191L9.55913 15.7644C9.25163 15.9182 9 16.3254 9 16.6689V17.919C9 18.2625 9.25163 18.6698 9.55913 18.8235L10.2499 19.1689H11.1874V15.4191C11.1874 12.4894 13.5707 10.1064 16.5 10.1064C19.4291 10.1064 21.8124 12.4894 21.8124 15.4191V20.4189C21.8124 21.9722 20.5534 23.2314 18.9999 23.2314H17.1249V22.2939H15.8749V24.1689H18.9999C21.0709 24.1689 22.7499 22.4899 22.7499 20.4189V19.1689L23.4411 18.8235C23.7486 18.6698 24 18.2625 24 17.919V16.6689C24 16.3254 23.7486 15.9182 23.4411 15.7644Z" fill="#606C85"/>
    <path d="M19.0714 13.8962H16.9822V12.6082C17.3614 12.4864 17.625 12.2282 17.625 11.9264C17.625 11.508 17.1217 11.1689 16.5001 11.1689C15.8785 11.1689 15.375 11.508 15.375 11.9264C15.375 12.2282 15.6386 12.4871 16.018 12.6082V13.8962H13.9286C12.864 13.8962 12 14.7106 12 15.7144V18.1386C12 19.8111 13.4404 21.1689 15.2145 21.1689H17.7859C19.5599 21.1689 21 19.8111 21 18.1386V15.7144C21 14.7106 20.1362 13.8962 19.0714 13.8962ZM14.2502 16.9266V16.3206C14.2502 15.9853 14.5384 15.7144 14.8928 15.7144C15.2477 15.7144 15.5358 15.9853 15.5358 16.3206V16.9266C15.5358 17.2622 15.2477 17.5326 14.8928 17.5326C14.5384 17.5326 14.2502 17.2622 14.2502 16.9266ZM18.1072 19.3508L16.8216 19.6539H16.1788L14.8928 19.3508V18.7448H18.1072V19.3508ZM18.7501 16.9266C18.7501 17.2622 18.462 17.5326 18.1072 17.5326C17.7525 17.5326 17.4644 17.2622 17.4644 16.9266V16.3206C17.4644 15.9853 17.7525 15.7144 18.1072 15.7144C18.462 15.7144 18.7501 15.9853 18.7501 16.3206V16.9266Z" fill="#606C85"/>
    </g>
    <defs>
    <clipPath id="clip0_8258_22003">
    <rect width="16" height="16" fill="white" transform="translate(8.5 8.66895)"/>
    </clipPath>
    </defs>
    </svg>
    