<svg width="33" height="33" viewBox="0 0 33 33" fill="none" xmlns="http://www.w3.org/2000/svg">
    <rect width="33" height="33" rx="6" fill="#F3F4F6"/>
    <g clip-path="url(#clip0_8258_22020)">
    <path d="M13.5013 18.996C13.5013 18.8095 13.3375 18.6582 13.1354 18.6582C12.9333 18.6582 12.7695 18.8095 12.7695 18.996C12.7695 19.1827 12.9333 19.3339 13.1354 19.3339C13.3375 19.3339 13.5013 19.1827 13.5013 18.996Z" fill="#606C85"/>
    <path d="M13.1354 16.2598C12.9337 16.2598 12.7695 16.4112 12.7695 16.5976C12.7695 16.7838 12.9337 16.9354 13.1354 16.9354C13.3371 16.9354 13.5014 16.7838 13.5014 16.5976C13.5014 16.4112 13.3371 16.2598 13.1354 16.2598Z" fill="#606C85"/>
    <path d="M13.5013 14.1982C13.5013 14.0116 13.3375 13.8604 13.1354 13.8604C12.9333 13.8604 12.7695 14.0116 12.7695 14.1982C12.7695 14.3847 12.9333 14.536 13.1354 14.536C13.3375 14.536 13.5013 14.3847 13.5013 14.1982Z" fill="#606C85"/>
    <path d="M21.1 8.94141C19.2217 8.94141 17.6991 10.464 17.6992 12.3423C17.6992 14.2206 19.2219 15.7432 21.1001 15.7432C22.9784 15.7432 24.5009 14.2206 24.5009 12.3423C24.4989 10.465 22.9775 8.94356 21.1 8.94141ZM21.0842 12.0991C21.6685 12.0992 22.1572 12.5431 22.213 13.1247C22.2688 13.7065 21.8735 14.2353 21.2998 14.3463V14.6644C21.2998 14.7978 21.1918 14.9058 21.0584 14.9058C20.9249 14.9058 20.8169 14.7978 20.8169 14.6644V14.335C20.3087 14.2112 19.9509 13.7562 19.9502 13.2332C19.9502 13.0998 20.0583 12.9917 20.1917 12.9917C20.325 12.9917 20.4332 13.0998 20.4332 13.2332C20.4332 13.5927 20.7247 13.8842 21.0842 13.8842C21.4438 13.8842 21.7352 13.5927 21.7352 13.2332C21.7352 12.8735 21.4438 12.5821 21.0842 12.5821C20.51 12.5821 20.0265 12.1528 19.9583 11.5828C19.8901 11.0127 20.2588 10.4816 20.8169 10.3461V10.0416C20.8169 9.9083 20.9249 9.80009 21.0584 9.80009C21.1918 9.80009 21.2998 9.9083 21.2998 10.0416V10.3348C21.8327 10.4387 22.2176 10.9052 22.2182 11.4481C22.2182 11.5815 22.1101 11.6895 21.9767 11.6895C21.8435 11.6895 21.7352 11.5815 21.7352 11.4481C21.7348 11.093 21.45 10.8035 21.0947 10.7976C21.0827 10.7995 21.0706 10.8005 21.0584 10.8005C21.0508 10.8005 21.0434 10.8001 21.036 10.7995C20.687 10.8255 20.4209 11.1228 20.434 11.4726C20.447 11.8223 20.7343 12.0991 21.0844 12.0991H21.0842Z" fill="#606C85"/>
    <path d="M17.2015 23.9721C16.7994 23.5727 16.5731 23.0293 16.5726 22.4626V21.4951H8.5V22.4666C8.50404 23.3784 9.24387 24.1158 10.1556 24.117H17.365C17.3058 24.0743 17.251 24.0258 17.2015 23.9721Z" fill="#606C85"/>
    <path d="M17.8306 14.4223H14.9058C14.7724 14.4223 14.6644 14.3142 14.6644 14.1808C14.6644 14.0475 14.7724 13.9393 14.9058 13.9393H17.566C17.3326 13.4334 17.2125 12.8826 17.2141 12.3254C17.2149 12.0563 17.2428 11.788 17.2974 11.5244H10.7983L10.7344 21.0114H16.8253C16.8868 21.009 16.9464 21.0322 16.9899 21.0756C17.0334 21.119 17.0567 21.1785 17.0544 21.24V22.4621C17.0589 23.3759 17.8001 24.1147 18.7139 24.1163H18.7192C19.6295 24.1144 20.3663 23.3761 20.3663 22.4659V16.1565C19.3161 15.9576 18.3968 15.3289 17.8306 14.4223ZM13.1343 19.8167C12.6663 19.8167 12.2855 19.4484 12.2855 18.9957C12.2855 18.5432 12.6663 18.1749 13.1343 18.1749C13.6023 18.1749 13.9833 18.5432 13.9833 18.9957C13.9833 19.4484 13.6025 19.8167 13.1343 19.8167ZM13.1343 17.4177C12.6663 17.4177 12.2855 17.0495 12.2855 16.5969C12.2855 16.1442 12.6663 15.7761 13.1343 15.7761C13.6023 15.7761 13.9833 16.1442 13.9833 16.5969C13.9833 17.0494 13.6025 17.4177 13.1343 17.4177ZM13.1343 15.0188C12.6663 15.0188 12.2855 14.6506 12.2855 14.198C12.2855 13.7454 12.6663 13.3771 13.1343 13.3771C13.6023 13.3771 13.9833 13.7452 13.9833 14.1979C13.9833 14.6506 13.6025 15.0188 13.1343 15.0188ZM18.5853 19.252H14.9058C14.7724 19.252 14.6644 19.144 14.6644 19.0105C14.6644 18.8773 14.7724 18.7691 14.9058 18.7691H18.5853C18.7187 18.7691 18.8268 18.8773 18.8268 19.0105C18.8268 19.144 18.7187 19.252 18.5853 19.252ZM18.8268 16.5957C18.8268 16.7291 18.7187 16.8372 18.5853 16.8372H14.9058C14.7724 16.8372 14.6644 16.7291 14.6644 16.5957C14.6644 16.4624 14.7724 16.3542 14.9058 16.3542H18.5853C18.7187 16.3542 18.8268 16.4624 18.8268 16.5957Z" fill="#606C85"/>
    </g>
    <defs>
    <clipPath id="clip0_8258_22020">
    <rect width="16" height="16" fill="white" transform="translate(8.5 8.5)"/>
    </clipPath>
    </defs>
    </svg>
    