<svg width="12" height="13" viewBox="0 0 12 13" fill="none" xmlns="http://www.w3.org/2000/svg">
<path d="M6 12.4734C5.8446 12.4734 5.69556 12.4117 5.58568 12.3018C5.47579 12.1919 5.41406 12.0429 5.41406 11.8875V1.05933C5.41406 0.903926 5.47579 0.75489 5.58568 0.645006C5.69556 0.535121 5.8446 0.473389 6 0.473389C6.1554 0.473389 6.30444 0.535121 6.41432 0.645006C6.52421 0.75489 6.58594 0.903926 6.58594 1.05933V11.8875C6.58594 12.0429 6.52421 12.1919 6.41432 12.3018C6.30444 12.4117 6.1554 12.4734 6 12.4734Z" fill="#363CD2"/>
<path d="M11.4141 7.05933H0.585938C0.430537 7.05933 0.281502 6.99759 0.171617 6.88771C0.0617325 6.77782 0 6.62879 0 6.47339C0 6.31799 0.0617325 6.16895 0.171617 6.05907C0.281502 5.94918 0.430537 5.88745 0.585938 5.88745H11.4141C11.5695 5.88745 11.7185 5.94918 11.8284 6.05907C11.9383 6.16895 12 6.31799 12 6.47339C12 6.62879 11.9383 6.77782 11.8284 6.88771C11.7185 6.99759 11.5695 7.05933 11.4141 7.05933Z" fill="#363CD2"/>
</svg>
