<svg width="60" height="65" viewBox="0 0 60 65" fill="none" xmlns="http://www.w3.org/2000/svg">
<g opacity="0.3" clip-path="url(#clip0_916_1439)">
<path d="M30.0124 64.4949C22.6651 64.4949 15.3155 64.4949 7.96826 64.4949C4.44289 64.4949 1.65866 62.4017 0.761871 59.0115C0.564232 58.265 0.541998 57.4565 0.539528 56.6753C0.519764 42.6655 0.519764 28.6558 0.5 14.646C0.5 13.2745 0.55188 11.9328 1.17938 10.6779C2.33557 8.36902 4.19584 7.05956 6.7602 6.91819C8.64764 6.81403 10.5474 6.85619 12.4398 6.87851C13.0179 6.88595 13.1711 6.70491 13.1662 6.13202C13.1563 4.99864 13.2131 3.86278 13.2971 2.73188C13.4033 1.3133 14.898 0.432881 16.111 0.522162C17.5142 0.623844 18.5123 1.66794 18.537 3.08157C18.5567 4.15543 18.5493 5.23176 18.5246 6.30562C18.5147 6.73467 18.6481 6.87355 19.0854 6.87355C26.3709 6.86363 33.6588 6.86611 40.9442 6.88347C41.4729 6.88347 41.6705 6.73219 41.6483 6.17666C41.6088 5.12512 41.6335 4.06862 41.6384 3.01461C41.6483 1.26618 43.3974 0.0583943 45.0477 0.653605C46.3323 1.11985 46.8709 1.84651 46.8981 3.23285C46.9203 4.24471 46.9228 5.25905 46.8907 6.2709C46.8758 6.72227 46.9994 6.89835 47.4712 6.89091C49.0968 6.86859 50.7224 6.88595 52.3504 6.87851C54.8382 6.86859 56.8714 7.79613 58.2994 9.87441C59.1344 11.0921 59.4852 12.4933 59.4876 13.9566C59.5 22.0985 59.4926 30.238 59.4926 38.38C59.4926 44.6818 59.5 50.9836 59.4975 57.2854C59.4975 60.2763 57.5854 63.0193 54.7419 63.9617C53.808 64.2717 52.7877 64.4651 51.8069 64.4726C44.5412 64.5147 37.2756 64.4949 30.0099 64.4949H30.0124ZM30.0148 22.0167C21.8845 22.0167 13.7566 22.0167 5.62625 22.0167C4.8431 22.0167 4.84804 22.0217 4.84804 22.8153C4.84804 30.9969 4.84804 39.1786 4.84804 47.3603C4.84804 50.5 4.83075 53.6422 4.85299 56.7819C4.86781 58.7412 6.06846 60.0754 7.77309 60.0754C22.591 60.0804 37.409 60.063 52.2269 60.1077C53.561 60.1126 55.1223 58.7114 55.1198 57.2581C55.0951 45.7309 55.1026 34.2012 55.1149 22.6739C55.1149 22.1729 54.9914 22.0018 54.4602 22.0043C46.3101 22.0217 38.16 22.0167 30.0099 22.0167H30.0148ZM44.2151 17.007C46.4435 16.9103 47.9579 15.3007 47.4811 12.9521C47.3699 12.4041 47.0513 12.228 46.6041 12.5529C46.2755 12.7909 46.0359 13.1729 45.8111 13.525C45.4257 14.1326 44.8748 14.4749 44.183 14.455C43.4419 14.4327 42.7823 14.0657 42.5278 13.3589C42.2808 12.6669 41.8064 12.8505 41.379 12.9075C40.922 12.9695 40.8479 13.3737 40.875 13.7631C40.9912 15.581 42.3697 16.8334 44.2176 17.007H44.2151ZM15.7527 16.7838C17.7094 16.9277 19.0681 15.2065 18.994 13.3985C18.9792 13.0389 18.9545 12.6297 18.4332 12.5801C17.9416 12.533 17.6377 12.7017 17.445 13.1952C17.1906 13.845 16.7039 14.2616 15.9652 14.3038C14.8683 14.3658 14.2952 13.9739 13.8184 12.9422C13.7245 12.7389 13.4008 12.5727 13.1612 12.5355C13.0451 12.5181 12.7931 12.8232 12.7486 13.0166C12.2545 15.0676 13.8233 16.9103 15.7552 16.7838H15.7527Z" fill="#677995"/>
<path d="M30.0223 44.5206C35.0448 44.5206 40.0673 44.5255 45.0897 44.5156C45.9841 44.5156 46.6956 44.8182 47.1378 45.6242C48.0024 47.1966 46.9154 48.9177 45.0206 48.9375C42.9627 48.9599 40.9048 48.945 38.8468 48.945C30.9018 48.945 22.9567 48.945 15.0117 48.9549C14.0358 48.9549 13.2749 48.5903 12.8401 47.7198C12.4152 46.8667 12.6375 45.7085 13.3268 45.0984C13.6035 44.8554 13.9839 44.662 14.3446 44.5999C14.9079 44.5057 15.4934 44.528 16.069 44.5255C20.7209 44.5206 25.3728 44.5255 30.0248 44.5255V44.5206H30.0223Z" fill="#677995"/>
<path d="M39.158 37.1807C37.0185 37.1807 34.8766 37.1336 32.7372 37.2006C31.6428 37.2353 30.6892 36.1317 30.6324 35.3331C30.5212 33.7831 31.3463 33.0043 32.4333 32.8307C32.6952 32.7886 32.967 32.791 33.2338 32.791C37.2681 32.791 41.2999 32.791 45.3342 32.791C46.5571 32.791 47.3155 33.4507 47.6268 34.7701C47.7997 35.4968 47.1722 36.645 46.3421 37.0245C46.0753 37.146 45.7492 37.1733 45.4503 37.1758C43.3504 37.1882 41.253 37.1832 39.153 37.1832V37.1782L39.158 37.1807Z" fill="#677995"/>
<path d="M19.6412 37.1798C18.0996 37.1798 16.5556 37.1847 15.014 37.1798C13.9838 37.1748 13.0648 36.2473 13.0425 35.2106C13.0055 33.6011 13.7763 32.7926 15.3673 32.7901C18.2256 32.7876 21.0864 32.7901 23.9448 32.7926C25.096 32.7926 25.9928 33.5019 26.2225 34.5782C26.4449 35.6273 25.8693 36.6738 24.8119 37.0954C24.6118 37.1748 24.3697 37.1773 24.1473 37.1773C22.6453 37.1847 21.1432 37.1798 19.6437 37.1798H19.6412Z" fill="#677995"/>
</g>
<defs>
<clipPath id="clip0_916_1439">
<rect width="59" height="64" fill="white" transform="translate(0.5 0.5)"/>
</clipPath>
</defs>
</svg>
