<svg width="56" height="65" viewBox="0 0 56 65" fill="none" xmlns="http://www.w3.org/2000/svg">
<g clip-path="url(#clip0_906_18522)">
<path d="M0.019617 32.4844C0.019617 23.0659 0.0411442 13.6474 4.68306e-05 4.23084C-0.00973825 2.22342 1.51478 0.498056 3.74382 0.500002C16.2511 0.515563 28.7603 0.501947 41.2676 0.507782C42.3146 0.507782 43.2266 0.865694 43.9898 1.62042C47.5849 5.17425 51.1936 8.71251 54.7926 12.2644C55.591 13.0522 55.9883 14.0112 55.9883 15.1394C55.9844 30.4401 55.9766 45.7427 56 61.0434C56.002 62.7902 54.4892 64.5019 52.54 64.4981C38.6628 64.4747 24.7837 64.4864 10.9065 64.4844C8.46023 64.4844 6.01396 64.4611 3.56769 64.4825C1.62828 64.5 4.68306e-05 62.8174 0.00591788 60.882C0.0352731 51.4168 0.019617 41.9496 0.01766 32.4825L0.019617 32.4844ZM2.8475 32.5856H2.84555C2.84555 39.312 2.84555 46.0364 2.84555 52.7628C2.84555 55.3402 2.84555 57.9156 2.84946 60.4929C2.84946 61.2924 3.20564 61.6386 4.01193 61.6484C4.19197 61.6503 4.37006 61.6484 4.55011 61.6484C12.523 61.6484 20.4959 61.6484 28.4707 61.6484C36.2968 61.6484 44.1229 61.6542 51.951 61.6562C52.7768 61.6562 53.1722 61.2632 53.1722 60.4424C53.1722 59.0477 53.1722 57.6549 53.1722 56.2603C53.1722 43.035 53.1722 29.8118 53.1722 16.5866C53.1722 15.5031 52.8297 15.1666 51.7514 15.1685C49.1427 15.1685 46.534 15.1958 43.9253 15.1491C43.3832 15.1394 42.7922 14.9643 42.3186 14.6978C41.2852 14.1162 40.9408 13.1242 40.9467 11.9785C40.9584 9.5645 40.9545 7.14859 40.9545 4.73464C40.9545 3.764 40.6433 3.45277 39.6825 3.45277C29.8661 3.45277 20.0516 3.45277 10.2352 3.45082C8.14906 3.45082 6.06092 3.44888 3.97475 3.45472C3.28 3.45472 2.89252 3.83791 2.85925 4.5265C2.85142 4.67239 2.85338 4.81828 2.85338 4.96417C2.85338 14.1687 2.85338 23.3752 2.85338 32.5798L2.8475 32.5856Z" fill="#677995"/>
<path d="M35.7743 36.0089C32.4493 36.0089 29.1224 36.0128 25.7974 36.0089C24.6545 36.0089 23.9813 35.0675 24.3629 34.0287C24.5723 33.4607 25.1712 33.0795 25.9305 33.0717C27.1693 33.0581 28.4081 33.0678 29.6469 33.0678C34.8799 33.0678 40.113 33.0678 45.348 33.0678C46.0095 33.0678 46.624 33.1845 46.9997 33.8011C47.6044 34.7971 46.9253 36.0109 45.7531 36.0128C42.4281 36.0186 39.1012 36.0148 35.7762 36.0148V36.0109L35.7743 36.0089Z" fill="#677995"/>
<path d="M35.7508 18.706C39.0738 18.706 42.3988 18.706 45.7218 18.706C46.4146 18.706 47.033 19.1398 47.1719 19.7078C47.3402 20.3925 47.0623 21.0792 46.4165 21.3865C46.1386 21.5188 45.7903 21.5479 45.4732 21.5479C39.2167 21.5557 32.9601 21.5557 26.7035 21.5538C26.2964 21.5538 25.8874 21.5635 25.4843 21.5188C24.7171 21.4332 24.2337 20.8185 24.2709 20.019C24.3062 19.276 24.8698 18.7099 25.633 18.708C29.0049 18.7002 32.3788 18.7041 35.7508 18.7041V18.706Z" fill="#677995"/>
<path d="M35.7449 50.4158C32.5334 50.4158 29.3219 50.4158 26.1105 50.4158C25.0008 50.4158 24.447 50.0637 24.2904 49.2565C24.1124 48.3364 24.7308 47.5506 25.6741 47.5486C32.3905 47.5428 39.107 47.5447 45.8235 47.5486C46.5378 47.5486 47.1503 48.0991 47.1914 48.741C47.2482 49.6436 46.7903 50.2757 45.9644 50.3613C45.4634 50.4138 44.9546 50.4002 44.4497 50.4002C41.5474 50.4041 38.6452 50.4002 35.7449 50.4002C35.7449 50.4041 35.7449 50.4061 35.7449 50.4099V50.4158Z" fill="#677995"/>
<path d="M12.703 54.3854C12.3487 54.1831 11.9397 54.0392 11.6501 53.7688C10.6305 52.8176 9.64415 51.8295 8.66172 50.8394C8.1666 50.3414 8.15682 49.7151 8.58932 49.1218C9.01986 48.5324 9.72634 48.2757 10.2958 48.6258C10.8281 48.9526 11.2959 49.3941 11.7519 49.826C12.8439 50.8608 12.8243 50.8608 13.8948 49.7968C15.5524 48.1492 17.2413 46.5328 18.8832 44.8697C19.8402 43.899 21.214 44.4748 21.4626 45.5777C21.5839 46.1224 21.3412 46.525 20.989 46.879C19.7776 48.0987 18.5544 49.3086 17.3313 50.5185C16.2706 51.5688 15.206 52.6153 14.1414 53.6618C13.7598 54.0373 13.3409 54.331 12.7617 54.2726C12.7421 54.3096 12.7225 54.3485 12.701 54.3854H12.703Z" fill="#677995"/>
<path d="M12.7989 25.5193C12.4388 25.3247 12.022 25.1925 11.7304 24.926C10.6873 23.9729 9.6716 22.9905 8.67743 21.9868C8.11577 21.4208 8.16469 20.598 8.72244 20.0242C9.23518 19.497 10.1158 19.4581 10.7088 19.9853C11.3272 20.5357 11.9202 21.1154 12.4995 21.7067C12.7578 21.9713 12.9163 21.944 13.1688 21.6931C14.9732 19.8938 16.7853 18.1023 18.6171 16.3322C18.9439 16.0171 19.3451 15.6962 19.7678 15.5833C20.4058 15.4122 21.0732 15.809 21.3217 16.3283C21.6368 16.9858 21.5311 17.5227 20.9655 18.0848C19.7581 19.285 18.5447 20.4832 17.3333 21.6814C16.3431 22.6638 15.3567 23.6519 14.3606 24.6284C13.9418 25.0388 13.5093 25.4395 12.795 25.5193H12.7989Z" fill="#677995"/>
<path d="M12.8341 36.4838C13.3683 35.9625 13.8791 35.4665 14.386 34.9685C15.8948 33.4922 17.4331 32.045 18.8969 30.5277C19.6484 29.7477 21.1142 29.88 21.4606 31.1949C21.6093 31.7649 21.3314 32.2045 20.9518 32.5818C19.6738 33.852 18.3842 35.1125 17.1004 36.3769C16.1512 37.3105 15.204 38.2462 14.2568 39.1818C13.2627 40.1641 12.4759 40.1913 11.472 39.2401C10.5776 38.3921 9.69697 37.5265 8.82219 36.657C8.13528 35.9761 8.10005 35.3148 8.68715 34.6437C9.22142 34.0349 10.0453 33.9629 10.7361 34.5367C11.335 35.0327 11.8771 35.5968 12.4446 36.1298C12.5601 36.2387 12.6795 36.3438 12.8341 36.4858V36.4838Z" fill="#677995"/>
</g>
<defs>
<clipPath id="clip0_906_18522">
<rect width="56" height="64" fill="white" transform="translate(0 0.5)"/>
</clipPath>
</defs>
</svg>
