<svg width="64" height="65" viewBox="0 0 64 65" fill="none" xmlns="http://www.w3.org/2000/svg">
<g opacity="0.3" clip-path="url(#clip0_906_18504)">
<path d="M61.1999 0.5C59.5999 0.5 57.9999 1.70002 57.9999 3.70001V14.1C52 5.7 42.3999 0.5 31.9999 0.5C15.6 0.5 1.99999 12.9 0 29.2999C0 30.8999 1.20002 32.5 2.79996 32.5H3.20001C4.79995 32.5 5.99997 31.2999 5.99997 29.7C7.59992 16.5 18.8 6.49997 31.9999 6.49997C40.8 6.49997 49.2 11.2999 53.9999 18.5H43.2C41.6001 18.5 40 19.7 40 21.7C40 23.7 41.2 24.5 43.2 24.5H61.2C62.8 24.5 64 23.3 64 21.7V3.70001C64 1.70002 62.8 0.5 61.1999 0.5Z" fill="#677995"/>
<path d="M61.1999 32.5C59.5999 32.5 57.9999 33.7 57.9999 35.3C56.7999 48.4999 45.6 58.5 32 58.5C23.1999 58.5 14.7999 53.7 9.99995 46.4999H20.8C22.3999 46.4999 24 45.2999 24 43.2999C24 41.2999 22.8 40.5 21.2 40.5H3.20001C1.20002 40.5001 0 41.7001 0 43.7001V61.7001C0 63.3 1.20002 64.5001 3.20001 64.5001C5.2 64.5001 6.40001 63.3 6.40001 61.3V50.9001C12 59.3001 21.6 64.5001 32 64.5001C48.3999 64.5001 61.9999 52.1001 63.9999 35.7001C64 34.1001 62.8 32.5 61.1999 32.5Z" fill="#677995"/>
</g>
<defs>
<clipPath id="clip0_906_18504">
<rect width="64" height="64" fill="white" transform="translate(0 0.5)"/>
</clipPath>
</defs>
</svg>
