<svg width="24" height="24" viewBox="0 0 24 24" fill="none" xmlns="http://www.w3.org/2000/svg">
<g clip-path="url(#clip0_710_15024)">
<path d="M22.3148 10.4635C22.223 7.84563 21.1628 5.39763 19.3013 3.53613C17.3502 1.58463 14.7571 0.510254 12.0001 0.510254C6.43171 0.510254 1.88184 4.94238 1.68571 10.4635C0.835961 10.8411 0.241211 11.6916 0.241211 12.6801V15.4034C0.241211 16.7406 1.32909 17.8289 2.66671 17.8289C3.53221 17.8289 4.23609 17.125 4.23609 16.2595V11.8236C4.23609 11.011 3.61284 10.3484 2.82046 10.2696C3.11296 5.4595 7.11721 1.63525 12.0001 1.63525C14.4571 1.63525 16.7675 2.593 18.5063 4.33188C20.1031 5.92863 21.0376 8.00988 21.1782 10.27C20.3866 10.3495 19.7645 11.0118 19.7645 11.8236V16.2591C19.7645 17.0785 20.3975 17.7453 21.1992 17.8146V18.9355C21.1992 20.1978 20.1721 21.2245 18.9098 21.2245H17.2145C17.1312 20.9868 17.0007 20.767 16.8177 20.5848C16.4971 20.2626 16.0696 20.0853 15.6143 20.0853H13.8668C13.616 20.0853 13.3752 20.1385 13.1547 20.2413C12.5532 20.5176 12.1647 21.1244 12.1647 21.787C12.1647 22.2423 12.3421 22.6698 12.6635 22.9896C12.9848 23.3118 13.4123 23.4891 13.8668 23.4891H15.6143C16.3388 23.4891 16.9775 23.0208 17.2156 22.3495H18.9098C20.7927 22.3495 22.3242 20.818 22.3242 18.9355V17.6144C23.1687 17.2345 23.759 16.387 23.759 15.4026V12.6794C23.759 11.6916 23.1642 10.8411 22.3148 10.4635ZM3.11071 11.8236V16.2591C3.11071 16.504 2.91159 16.7035 2.66634 16.7035C1.94934 16.7035 1.36584 16.12 1.36584 15.403V12.6798C1.36584 11.9624 1.94934 11.3793 2.66634 11.3793C2.91159 11.3793 3.11071 11.5788 3.11071 11.8236ZM16.1787 21.9078C16.1228 22.1725 15.8851 22.3649 15.614 22.3649H13.8665C13.7127 22.3649 13.5683 22.3049 13.4581 22.1946C13.3493 22.0863 13.2893 21.9415 13.2893 21.7878C13.2893 21.5631 13.421 21.358 13.6272 21.2631C13.7007 21.2286 13.7813 21.211 13.8665 21.211H15.614C15.7677 21.211 15.9121 21.2706 16.022 21.3809C16.1307 21.4893 16.1907 21.634 16.1907 21.7878C16.1911 21.829 16.1866 21.8703 16.1787 21.9078ZM22.634 15.403C22.634 16.12 22.0505 16.7035 21.3335 16.7035C21.0886 16.7035 20.8891 16.5044 20.8891 16.2591V11.8236C20.8891 11.5788 21.0882 11.3793 21.3335 11.3793C22.0505 11.3793 22.634 11.9628 22.634 12.6798V15.403Z" fill="black"/>
<path d="M15.6424 15.5968C16.9567 15.5968 18.0259 14.5273 18.0259 13.2133V8.35664C18.0259 7.72139 17.7776 7.12289 17.3269 6.67214C16.8761 6.22139 16.278 5.97314 15.6424 5.97314H8.35762C7.04325 5.97314 5.97412 7.04227 5.97412 8.35664V13.2133C5.97412 14.5276 7.04325 15.5968 8.35762 15.5968H8.40225V16.8553C8.40225 17.3353 8.68837 17.7613 9.13087 17.9409C9.27375 17.9983 9.42225 18.0268 9.56925 18.0268C9.87562 18.0268 10.1741 17.9053 10.3927 17.6791L12.4864 15.5968H15.6424ZM11.8582 14.6353L9.5925 16.8886C9.58237 16.8991 9.57487 16.907 9.5535 16.8976C9.52762 16.8871 9.52762 16.8703 9.52762 16.8553V15.0343C9.52762 14.7238 9.276 14.4718 8.96512 14.4718H8.358C7.66387 14.4718 7.0995 13.907 7.0995 13.2133V8.35664C7.0995 7.66252 7.66387 7.09814 8.358 7.09814H15.6427C15.978 7.09814 16.2934 7.22939 16.5319 7.46752C16.7704 7.70602 16.9012 8.02177 16.9012 8.35664V13.2133C16.9012 13.9074 16.3365 14.4718 15.6427 14.4718H12.255C12.1061 14.4718 11.9636 14.5306 11.8582 14.6353Z" fill="black"/>
<path d="M9.26737 10.0449C8.80987 10.0449 8.4375 10.4177 8.4375 10.8748C8.4375 11.3319 8.81025 11.7047 9.26737 11.7047C9.72525 11.7047 10.098 11.3319 10.098 10.8748C10.098 10.4177 9.72562 10.0449 9.26737 10.0449Z" fill="black"/>
<path d="M11.9998 10.0449C11.5423 10.0449 11.1699 10.4177 11.1699 10.8748C11.1699 11.3319 11.5427 11.7047 11.9998 11.7047C12.458 11.7047 12.8304 11.3319 12.8304 10.8748C12.8304 10.4177 12.458 10.0449 11.9998 10.0449Z" fill="black"/>
<path d="M14.732 10.0449C14.2745 10.0449 13.9021 10.4177 13.9021 10.8748C13.9021 11.3319 14.2749 11.7047 14.732 11.7047C15.1899 11.7047 15.5626 11.3319 15.5626 10.8748C15.5626 10.4177 15.1899 10.0449 14.732 10.0449Z" fill="black"/>
</g>
<defs>
<clipPath id="clip0_710_15024">
<rect width="24" height="24" fill="white"/>
</clipPath>
</defs>
</svg>
