<svg width="33" height="33" viewBox="0 0 33 33" fill="none" xmlns="http://www.w3.org/2000/svg">
    <rect width="33" height="33" rx="6" fill="#F3F4F6"/>
    <g clip-path="url(#clip0_8258_22008)">
    <path d="M24.3013 21.9163L24.2728 21.8778C23.6866 21.1991 22.9663 20.7019 22.2697 20.2216C21.9853 20.0253 21.48 19.7091 21.1225 19.4547C21.9522 18.2832 22.3966 16.8824 22.3941 15.4469C22.3941 11.6103 19.2838 8.5 15.4469 8.5C11.61 8.5 8.5 11.6103 8.5 15.4469C8.5 19.2834 11.6103 22.3941 15.4469 22.3941C16.8806 22.3962 18.2796 21.9527 19.4503 21.125C19.705 21.4822 20.0209 21.9866 20.2175 22.2709C20.6991 22.9688 21.1969 23.6875 21.875 24.2731L21.9134 24.3013C22.1297 24.4335 22.3787 24.5023 22.6322 24.5C23.0153 24.4988 23.3844 24.3556 23.6681 24.0981L24.0875 23.6797L24.0975 23.6694C24.5441 23.1806 24.6297 22.4434 24.3013 21.9163ZM15.4469 20.5816C14.2588 20.5817 13.1074 20.1698 12.1889 19.4162C11.2704 18.6626 10.6416 17.6138 10.4098 16.4485C10.1779 15.2832 10.3572 14.0736 10.9172 13.0258C11.4772 11.9779 12.3832 11.1567 13.4809 10.7019C14.5785 10.2472 15.7999 10.1872 16.9369 10.532C18.0738 10.8769 19.056 11.6053 19.7161 12.5931C20.3762 13.581 20.6734 14.7672 20.5569 15.9496C20.4405 17.132 19.9176 18.2374 19.0775 19.0775C18.6018 19.5558 18.036 19.935 17.4128 20.1932C16.7896 20.4514 16.1214 20.5834 15.4469 20.5816Z" fill="#606C85"/>
    <path d="M15.4453 16.0879C16.5715 16.0879 17.4844 15.175 17.4844 14.0488C17.4844 12.9227 16.5715 12.0098 15.4453 12.0098C14.3192 12.0098 13.4062 12.9227 13.4062 14.0488C13.4062 15.175 14.3192 16.0879 15.4453 16.0879Z" fill="#606C85"/>
    <path d="M18.8078 17.7687C18.7772 17.4827 18.6492 17.2159 18.4453 17.0131C18.2406 16.8079 17.9721 16.6785 17.6841 16.6462C17.2625 16.6015 16.2153 16.5771 15.5631 16.5771C14.9109 16.5771 13.6275 16.6015 13.2056 16.6462C12.9177 16.6785 12.6492 16.8078 12.4444 17.0128C12.2406 17.2157 12.1127 17.4824 12.0822 17.7684V17.7771C12.0722 17.874 12.0662 17.9581 12.0625 18.03C12.178 18.181 12.3032 18.3242 12.4375 18.4587C13.2364 19.2575 14.3198 19.7062 15.4495 19.7062C16.5792 19.7062 17.6627 19.2575 18.4616 18.4587C18.5937 18.3263 18.7172 18.1855 18.8313 18.0371C18.8266 17.9637 18.8197 17.8775 18.8094 17.7775L18.8078 17.7687Z" fill="#606C85"/>
    </g>
    <defs>
    <clipPath id="clip0_8258_22008">
    <rect width="16" height="16" fill="white" transform="translate(8.5 8.5)"/>
    </clipPath>
    </defs>
    </svg>
    