<svg width="33" height="33" viewBox="0 0 33 33" fill="none" xmlns="http://www.w3.org/2000/svg">
<rect width="33" height="33" rx="6" fill="#141482"/>
<g clip-path="url(#clip0_5760_38386)">
<path d="M18.4987 12.833C18.1307 12.833 17.832 12.5343 17.832 12.1663V11.1663H15.1654V12.1663C15.1654 12.5343 14.8667 12.833 14.4987 12.833C14.1307 12.833 13.832 12.5343 13.832 12.1663V11.1663C13.832 10.431 14.43 9.83301 15.1654 9.83301H17.832C18.5674 9.83301 19.1654 10.431 19.1654 11.1663V12.1663C19.1654 12.5343 18.8667 12.833 18.4987 12.833Z" fill="white"/>
<path d="M16.9733 18.7518C16.8533 18.7985 16.68 18.8318 16.5 18.8318C16.32 18.8318 16.1467 18.7985 15.9867 18.7385L8.5 16.2451V21.3318C8.5 22.3451 9.32 23.1651 10.3333 23.1651H22.6667C23.68 23.1651 24.5 22.3451 24.5 21.3318V16.2451L16.9733 18.7518Z" fill="white"/>
<path d="M24.5 13.6663V15.193L16.66 17.8063C16.6067 17.8263 16.5533 17.833 16.5 17.833C16.4467 17.833 16.3933 17.8263 16.34 17.8063L8.5 15.193V13.6663C8.5 12.653 9.32 11.833 10.3333 11.833H22.6667C23.68 11.833 24.5 12.653 24.5 13.6663Z" fill="white"/>
</g>
<defs>
<clipPath id="clip0_5760_38386">
<rect width="16" height="16" fill="white" transform="translate(8.5 8.5)"/>
</clipPath>
</defs>
</svg>
