<svg width="24" height="24" viewBox="0 0 24 24" fill="none" xmlns="http://www.w3.org/2000/svg">
<path d="M3.11035 17.5098C3.33818 17.5564 3.50977 17.7584 3.50977 18C3.50977 18.2416 3.33818 18.4436 3.11035 18.4902L3.00977 18.5H3C2.72386 18.5 2.5 18.2761 2.5 18C2.5 17.7239 2.72386 17.5 3 17.5H3.00977L3.11035 17.5098ZM21 17.5C21.2761 17.5 21.5 17.7239 21.5 18C21.5 18.2761 21.2761 18.5 21 18.5H8C7.72386 18.5 7.5 18.2761 7.5 18C7.5 17.7239 7.72386 17.5 8 17.5H21ZM3.11035 11.5098C3.33818 11.5564 3.50977 11.7584 3.50977 12C3.50977 12.2416 3.33818 12.4436 3.11035 12.4902L3.00977 12.5H3C2.72386 12.5 2.5 12.2761 2.5 12C2.5 11.7239 2.72386 11.5 3 11.5H3.00977L3.11035 11.5098ZM21 11.5C21.2761 11.5 21.5 11.7239 21.5 12C21.5 12.2761 21.2761 12.5 21 12.5H8C7.72386 12.5 7.5 12.2761 7.5 12C7.5 11.7239 7.72386 11.5 8 11.5H21ZM3.11035 5.50977C3.33818 5.5564 3.50977 5.75838 3.50977 6C3.50977 6.24162 3.33818 6.4436 3.11035 6.49023L3.00977 6.5H3C2.72386 6.5 2.5 6.27614 2.5 6C2.5 5.72386 2.72386 5.5 3 5.5H3.00977L3.11035 5.50977ZM21 5.5C21.2761 5.5 21.5 5.72386 21.5 6C21.5 6.27614 21.2761 6.5 21 6.5H8C7.72386 6.5 7.5 6.27614 7.5 6C7.5 5.72386 7.72386 5.5 8 5.5H21Z" fill="url(#paint0_linear_6294_3934)"/>
<defs>
<linearGradient id="paint0_linear_6294_3934" x1="2.5" y1="12" x2="21.5" y2="12" gradientUnits="userSpaceOnUse">
<stop stop-color="#01D033"/>
<stop offset="1" stop-color="#00FDE9"/>
</linearGradient>
</defs>
</svg>
