<svg width="20" height="21" viewBox="0 0 20 21" fill="none" xmlns="http://www.w3.org/2000/svg">
<g clip-path="url(#clip0_5778_40799)">
<path d="M10.0011 0.5C6.00711 0.5 2.75781 3.7493 2.75781 7.7432C2.75781 12.6998 9.2398 19.9763 9.51578 20.2836C9.775 20.5723 10.2276 20.5718 10.4863 20.2836C10.7623 19.9763 17.2443 12.6998 17.2443 7.7432C17.2442 3.7493 13.995 0.5 10.0011 0.5ZM10.0011 11.3875C7.9916 11.3875 6.35684 9.75266 6.35684 7.7432C6.35684 5.73375 7.99164 4.09898 10.0011 4.09898C12.0105 4.09898 13.6452 5.73379 13.6452 7.74324C13.6452 9.7527 12.0105 11.3875 10.0011 11.3875Z" fill="#606C85"/>
</g>
<defs>
<clipPath id="clip0_5778_40799">
<rect width="20" height="20" fill="white" transform="translate(0 0.5)"/>
</clipPath>
</defs>
</svg>
