<svg width="144" height="131" viewBox="0 0 144 131" fill="none" xmlns="http://www.w3.org/2000/svg">
<g clip-path="url(#clip0_6488_1734)">
<rect x="12" width="120" height="120" rx="60" fill="#F3EEFF"/>
<g clip-path="url(#clip1_6488_1734)">
<path d="M14 32.5C17.25 32.5 19.9998 34.6 21.0498 37.5H31.5C34.25 37.5 36.5 39.75 36.5 42.5V77.5C36.5 80.25 34.25 82.5 31.5 82.5H-3.5C-6.25 82.5 -8.5 80.25 -8.5 77.5V42.5C-8.5 39.75 -6.25 37.5 -3.5 37.5H6.9502C8.00021 34.6 10.75 32.5 14 32.5ZM1.5 68.75V73.75H19V68.75H1.5ZM1.5 60V65H26.5V60H1.5ZM3.73633 49.4561V53.543C3.7362 53.9393 3.57855 54.1377 3.26367 54.1377C2.9137 54.1377 2.73532 53.8953 2.72949 53.4111H1.03223C1.03223 54.1459 1.23942 54.7088 1.65332 55.0996C2.07332 55.4904 2.63398 55.6865 3.33398 55.6865C3.99302 55.6865 4.50953 55.5022 4.88281 55.1348C5.2617 54.7674 5.45109 54.2367 5.45117 53.543V49.4561H3.73633ZM9.43262 49.3604C8.85512 49.3604 8.32401 49.4944 7.83984 49.7627C7.35571 50.031 6.97039 50.4075 6.68457 50.8916C6.40475 51.3698 6.26468 51.9121 6.26465 52.5186C6.26465 53.1252 6.40457 53.6711 6.68457 54.1553C6.9704 54.6336 7.35571 55.01 7.83984 55.2842C8.32396 55.5524 8.85519 55.6865 9.43262 55.6865C10.0098 55.6865 10.5405 55.5523 11.0244 55.2842C11.5085 55.0101 11.8909 54.6335 12.1709 54.1553C12.4509 53.6711 12.5908 53.1252 12.5908 52.5186C12.5908 51.912 12.4508 51.3698 12.1709 50.8916C11.8909 50.4074 11.5086 50.031 11.0244 49.7627C10.5462 49.4945 10.0157 49.3604 9.43262 49.3604ZM13.3623 49.4561V55.625H16.416C17.0692 55.625 17.5769 55.4762 17.9385 55.1787C18.3 54.8813 18.4804 54.4701 18.4805 53.9453C18.4805 53.5895 18.373 53.2741 18.1572 53C17.9473 52.72 17.6614 52.5387 17.2998 52.457C17.6145 52.3695 17.8652 52.2067 18.0518 51.9678C18.2442 51.7228 18.3408 51.4192 18.3408 51.0576C18.3408 50.5501 18.1595 50.156 17.7979 49.876C17.442 49.5962 16.9491 49.4561 16.3193 49.4561H13.3623ZM16.0654 53.1221C16.2754 53.1221 16.436 53.1723 16.5469 53.2715C16.6635 53.3707 16.7217 53.5135 16.7217 53.7002C16.7216 54.0617 16.5058 54.2422 16.0742 54.2422H15.0771V53.1221H16.0654ZM9.43262 50.9346C9.86985 50.9346 10.2141 51.0777 10.4648 51.3633C10.7215 51.6432 10.8496 52.0286 10.8496 52.5186C10.8496 52.9969 10.7215 53.3792 10.4648 53.665C10.2141 53.9508 9.86997 54.0937 9.43262 54.0938C8.98928 54.0938 8.64146 53.9538 8.39062 53.6738C8.1399 53.388 8.01465 53.0026 8.01465 52.5186C8.01468 52.0286 8.13983 51.6432 8.39062 51.3633C8.64146 51.0775 8.9893 50.9346 9.43262 50.9346ZM15.9434 50.8213C16.3748 50.8213 16.5907 51.0049 16.5908 51.3721C16.5908 51.7279 16.375 51.9062 15.9434 51.9062H15.0771V50.8213H15.9434ZM14 37.5C12.625 37.5 11.5 38.625 11.5 40C11.5 41.375 12.625 42.5 14 42.5C15.375 42.5 16.5 41.375 16.5 40C16.5 38.625 15.375 37.5 14 37.5Z" fill="#6348E9"/>
<path d="M14 32.5C17.25 32.5 19.9998 34.6 21.0498 37.5H31.5C34.25 37.5 36.5 39.75 36.5 42.5V77.5C36.5 80.25 34.25 82.5 31.5 82.5H-3.5C-6.25 82.5 -8.5 80.25 -8.5 77.5V42.5C-8.5 39.75 -6.25 37.5 -3.5 37.5H6.9502C8.00021 34.6 10.75 32.5 14 32.5ZM1.5 68.75V73.75H19V68.75H1.5ZM1.5 60V65H26.5V60H1.5ZM3.73633 49.4561V53.543C3.7362 53.9393 3.57855 54.1377 3.26367 54.1377C2.9137 54.1377 2.73532 53.8953 2.72949 53.4111H1.03223C1.03223 54.1459 1.23942 54.7088 1.65332 55.0996C2.07332 55.4904 2.63398 55.6865 3.33398 55.6865C3.99302 55.6865 4.50953 55.5022 4.88281 55.1348C5.2617 54.7674 5.45109 54.2367 5.45117 53.543V49.4561H3.73633ZM9.43262 49.3604C8.85512 49.3604 8.32401 49.4944 7.83984 49.7627C7.35571 50.031 6.97039 50.4075 6.68457 50.8916C6.40475 51.3698 6.26468 51.9121 6.26465 52.5186C6.26465 53.1252 6.40457 53.6711 6.68457 54.1553C6.9704 54.6336 7.35571 55.01 7.83984 55.2842C8.32396 55.5524 8.85519 55.6865 9.43262 55.6865C10.0098 55.6865 10.5405 55.5523 11.0244 55.2842C11.5085 55.0101 11.8909 54.6335 12.1709 54.1553C12.4509 53.6711 12.5908 53.1252 12.5908 52.5186C12.5908 51.912 12.4508 51.3698 12.1709 50.8916C11.8909 50.4074 11.5086 50.031 11.0244 49.7627C10.5462 49.4945 10.0157 49.3604 9.43262 49.3604ZM13.3623 49.4561V55.625H16.416C17.0692 55.625 17.5769 55.4762 17.9385 55.1787C18.3 54.8813 18.4804 54.4701 18.4805 53.9453C18.4805 53.5895 18.373 53.2741 18.1572 53C17.9473 52.72 17.6614 52.5387 17.2998 52.457C17.6145 52.3695 17.8652 52.2067 18.0518 51.9678C18.2442 51.7228 18.3408 51.4192 18.3408 51.0576C18.3408 50.5501 18.1595 50.156 17.7979 49.876C17.442 49.5962 16.9491 49.4561 16.3193 49.4561H13.3623ZM16.0654 53.1221C16.2754 53.1221 16.436 53.1723 16.5469 53.2715C16.6635 53.3707 16.7217 53.5135 16.7217 53.7002C16.7216 54.0617 16.5058 54.2422 16.0742 54.2422H15.0771V53.1221H16.0654ZM9.43262 50.9346C9.86985 50.9346 10.2141 51.0777 10.4648 51.3633C10.7215 51.6432 10.8496 52.0286 10.8496 52.5186C10.8496 52.9969 10.7215 53.3792 10.4648 53.665C10.2141 53.9508 9.86997 54.0937 9.43262 54.0938C8.98928 54.0938 8.64146 53.9538 8.39062 53.6738C8.1399 53.388 8.01465 53.0026 8.01465 52.5186C8.01468 52.0286 8.13983 51.6432 8.39062 51.3633C8.64146 51.0775 8.9893 50.9346 9.43262 50.9346ZM15.9434 50.8213C16.3748 50.8213 16.5907 51.0049 16.5908 51.3721C16.5908 51.7279 16.375 51.9062 15.9434 51.9062H15.0771V50.8213H15.9434ZM14 37.5C12.625 37.5 11.5 38.625 11.5 40C11.5 41.375 12.625 42.5 14 42.5C15.375 42.5 16.5 41.375 16.5 40C16.5 38.625 15.375 37.5 14 37.5Z" fill="white" fill-opacity="0.4"/>
</g>
<g clip-path="url(#clip2_6488_1734)">
<path d="M72 27C75.9 27 79.2 29.52 80.46 33H93C96.3 33 99 35.7 99 39V81C99 84.3 96.3 87 93 87H51C47.7 87 45 84.3 45 81V39C45 35.7 47.7 33 51 33H63.54C64.8 29.52 68.1 27 72 27ZM57 70.5V76.5H78V70.5H57ZM57 60V66H87V60H57ZM59.6836 47.3477V52.251C59.6836 52.727 59.4942 52.9648 59.1162 52.9648C58.6964 52.9647 58.4826 52.6745 58.4756 52.0938H56.4395C56.4395 52.9756 56.6876 53.6512 57.1846 54.1201C57.6885 54.589 58.3604 54.8232 59.2002 54.8232C59.9911 54.8232 60.6106 54.6029 61.0586 54.1621C61.5136 53.7211 61.7412 53.084 61.7412 52.251V47.3477H59.6836ZM66.5186 47.2324C65.8256 47.2325 65.1884 47.3929 64.6074 47.7148C64.0266 48.0368 63.5646 48.4884 63.2217 49.0693C62.8857 49.6433 62.7178 50.2945 62.7178 51.0225C62.7178 51.7505 62.8857 52.4053 63.2217 52.9863C63.5646 53.5602 64.0266 54.0119 64.6074 54.3408C65.1884 54.6628 65.8256 54.8232 66.5186 54.8232C67.2115 54.8232 67.8487 54.6627 68.4297 54.3408C69.0107 54.0118 69.4697 53.5603 69.8057 52.9863C70.1417 52.4053 70.3096 51.7505 70.3096 51.0225C70.3096 50.2945 70.1416 49.6433 69.8057 49.0693C69.4697 48.4883 69.0107 48.0368 68.4297 47.7148C67.8557 47.3929 67.2185 47.2324 66.5186 47.2324ZM71.2344 47.3477V54.75H74.8994C75.683 54.7499 76.2917 54.5716 76.7256 54.2148C77.1595 53.8579 77.3769 53.3642 77.377 52.7344C77.377 52.3074 77.2473 51.9286 76.9883 51.5996C76.7363 51.2638 76.3928 51.0472 75.959 50.9492C76.3369 50.8443 76.6383 50.6482 76.8623 50.3613C77.0933 50.0673 77.209 49.7026 77.209 49.2686C77.2089 48.6598 76.9915 48.1875 76.5576 47.8516C76.1306 47.5157 75.5391 47.3477 74.7832 47.3477H71.2344ZM74.4785 51.7471C74.7305 51.7471 74.9236 51.8068 75.0566 51.9258C75.1965 52.0448 75.2666 52.2166 75.2666 52.4404C75.2664 52.8741 75.0071 53.0908 74.4893 53.0908H73.292V51.7471H74.4785ZM66.5186 49.1221C67.0436 49.1221 67.4568 49.2937 67.7578 49.6367C68.0657 49.9727 68.2197 50.4346 68.2197 51.0225C68.2197 51.5965 68.0658 52.0554 67.7578 52.3984C67.4568 52.7413 67.0434 52.9121 66.5186 52.9121C65.9867 52.9121 65.5705 52.7442 65.2695 52.4082C64.9686 52.0652 64.8174 51.6034 64.8174 51.0225C64.8174 50.4345 64.9685 49.9727 65.2695 49.6367C65.5705 49.2938 65.9867 49.1221 66.5186 49.1221ZM74.332 48.9854C74.85 48.9854 75.1094 49.2065 75.1094 49.6475C75.1092 50.0741 74.8498 50.2871 74.332 50.2871H73.292V48.9854H74.332ZM72 33C70.35 33 69 34.35 69 36C69 37.65 70.35 39 72 39C73.65 39 75 37.65 75 36C75 34.35 73.65 33 72 33Z" fill="url(#paint0_linear_6488_1734)"/>
</g>
<g clip-path="url(#clip3_6488_1734)">
<path d="M130 32.5C133.25 32.5 136 34.6 137.05 37.5H147.5C150.25 37.5 152.5 39.75 152.5 42.5V77.5C152.5 80.25 150.25 82.5 147.5 82.5H112.5C109.75 82.5 107.5 80.25 107.5 77.5V42.5C107.5 39.75 109.75 37.5 112.5 37.5H122.95C124 34.6 126.75 32.5 130 32.5ZM117.5 68.75V73.75H135V68.75H117.5ZM117.5 60V65H142.5V60H117.5ZM119.736 49.4561V53.543C119.736 53.9393 119.579 54.1377 119.264 54.1377C118.914 54.1377 118.735 53.8953 118.729 53.4111H117.032C117.032 54.1459 117.239 54.7088 117.653 55.0996C118.073 55.4904 118.634 55.6865 119.334 55.6865C119.993 55.6865 120.51 55.5022 120.883 55.1348C121.262 54.7674 121.451 54.2367 121.451 53.543V49.4561H119.736ZM125.433 49.3604C124.855 49.3604 124.324 49.4944 123.84 49.7627C123.356 50.031 122.97 50.4075 122.685 50.8916C122.405 51.3698 122.265 51.9121 122.265 52.5186C122.265 53.1252 122.405 53.6711 122.685 54.1553C122.97 54.6336 123.356 55.01 123.84 55.2842C124.324 55.5524 124.855 55.6865 125.433 55.6865C126.01 55.6865 126.54 55.5523 127.024 55.2842C127.508 55.0101 127.891 54.6335 128.171 54.1553C128.451 53.6711 128.591 53.1252 128.591 52.5186C128.591 51.912 128.451 51.3698 128.171 50.8916C127.891 50.4074 127.509 50.031 127.024 49.7627C126.546 49.4945 126.016 49.3604 125.433 49.3604ZM129.362 49.4561V55.625H132.416C133.069 55.625 133.577 55.4762 133.938 55.1787C134.3 54.8813 134.48 54.4701 134.48 53.9453C134.48 53.5895 134.373 53.2741 134.157 53C133.947 52.72 133.661 52.5387 133.3 52.457C133.614 52.3695 133.865 52.2067 134.052 51.9678C134.244 51.7228 134.341 51.4192 134.341 51.0576C134.341 50.5501 134.16 50.156 133.798 49.876C133.442 49.5962 132.949 49.4561 132.319 49.4561H129.362ZM132.065 53.1221C132.275 53.1221 132.436 53.1723 132.547 53.2715C132.664 53.3707 132.722 53.5135 132.722 53.7002C132.722 54.0617 132.506 54.2422 132.074 54.2422H131.077V53.1221H132.065ZM125.433 50.9346C125.87 50.9346 126.214 51.0777 126.465 51.3633C126.721 51.6432 126.85 52.0286 126.85 52.5186C126.85 52.9969 126.722 53.3792 126.465 53.665C126.214 53.9508 125.87 54.0937 125.433 54.0938C124.989 54.0938 124.641 53.9538 124.391 53.6738C124.14 53.388 124.015 53.0026 124.015 52.5186C124.015 52.0286 124.14 51.6432 124.391 51.3633C124.641 51.0775 124.989 50.9346 125.433 50.9346ZM131.943 50.8213C132.375 50.8213 132.591 51.0049 132.591 51.3721C132.591 51.7279 132.375 51.9062 131.943 51.9062H131.077V50.8213H131.943ZM130 37.5C128.625 37.5 127.5 38.625 127.5 40C127.5 41.375 128.625 42.5 130 42.5C131.375 42.5 132.5 41.375 132.5 40C132.5 38.625 131.375 37.5 130 37.5Z" fill="#6348E9"/>
<path d="M130 32.5C133.25 32.5 136 34.6 137.05 37.5H147.5C150.25 37.5 152.5 39.75 152.5 42.5V77.5C152.5 80.25 150.25 82.5 147.5 82.5H112.5C109.75 82.5 107.5 80.25 107.5 77.5V42.5C107.5 39.75 109.75 37.5 112.5 37.5H122.95C124 34.6 126.75 32.5 130 32.5ZM117.5 68.75V73.75H135V68.75H117.5ZM117.5 60V65H142.5V60H117.5ZM119.736 49.4561V53.543C119.736 53.9393 119.579 54.1377 119.264 54.1377C118.914 54.1377 118.735 53.8953 118.729 53.4111H117.032C117.032 54.1459 117.239 54.7088 117.653 55.0996C118.073 55.4904 118.634 55.6865 119.334 55.6865C119.993 55.6865 120.51 55.5022 120.883 55.1348C121.262 54.7674 121.451 54.2367 121.451 53.543V49.4561H119.736ZM125.433 49.3604C124.855 49.3604 124.324 49.4944 123.84 49.7627C123.356 50.031 122.97 50.4075 122.685 50.8916C122.405 51.3698 122.265 51.9121 122.265 52.5186C122.265 53.1252 122.405 53.6711 122.685 54.1553C122.97 54.6336 123.356 55.01 123.84 55.2842C124.324 55.5524 124.855 55.6865 125.433 55.6865C126.01 55.6865 126.54 55.5523 127.024 55.2842C127.508 55.0101 127.891 54.6335 128.171 54.1553C128.451 53.6711 128.591 53.1252 128.591 52.5186C128.591 51.912 128.451 51.3698 128.171 50.8916C127.891 50.4074 127.509 50.031 127.024 49.7627C126.546 49.4945 126.016 49.3604 125.433 49.3604ZM129.362 49.4561V55.625H132.416C133.069 55.625 133.577 55.4762 133.938 55.1787C134.3 54.8813 134.48 54.4701 134.48 53.9453C134.48 53.5895 134.373 53.2741 134.157 53C133.947 52.72 133.661 52.5387 133.3 52.457C133.614 52.3695 133.865 52.2067 134.052 51.9678C134.244 51.7228 134.341 51.4192 134.341 51.0576C134.341 50.5501 134.16 50.156 133.798 49.876C133.442 49.5962 132.949 49.4561 132.319 49.4561H129.362ZM132.065 53.1221C132.275 53.1221 132.436 53.1723 132.547 53.2715C132.664 53.3707 132.722 53.5135 132.722 53.7002C132.722 54.0617 132.506 54.2422 132.074 54.2422H131.077V53.1221H132.065ZM125.433 50.9346C125.87 50.9346 126.214 51.0777 126.465 51.3633C126.721 51.6432 126.85 52.0286 126.85 52.5186C126.85 52.9969 126.722 53.3792 126.465 53.665C126.214 53.9508 125.87 54.0937 125.433 54.0938C124.989 54.0938 124.641 53.9538 124.391 53.6738C124.14 53.388 124.015 53.0026 124.015 52.5186C124.015 52.0286 124.14 51.6432 124.391 51.3633C124.641 51.0775 124.989 50.9346 125.433 50.9346ZM131.943 50.8213C132.375 50.8213 132.591 51.0049 132.591 51.3721C132.591 51.7279 132.375 51.9062 131.943 51.9062H131.077V50.8213H131.943ZM130 37.5C128.625 37.5 127.5 38.625 127.5 40C127.5 41.375 128.625 42.5 130 42.5C131.375 42.5 132.5 41.375 132.5 40C132.5 38.625 131.375 37.5 130 37.5Z" fill="white" fill-opacity="0.4"/>
</g>
</g>
<rect x="1" y="109.5" width="142" height="21" rx="10.5" fill="url(#paint1_linear_6488_1734)"/>
<rect x="1" y="109.5" width="142" height="21" rx="10.5" stroke="white"/>
<rect x="3.5" y="112" width="28" height="16" rx="8" fill="white"/>
<path d="M13.5894 117.059H9.90441V119.248C10.0584 119.043 10.2857 118.87 10.5864 118.731C10.8944 118.592 11.2207 118.522 11.5654 118.522C12.1814 118.522 12.6801 118.654 13.0614 118.918C13.4501 119.182 13.7251 119.516 13.8864 119.919C14.0551 120.322 14.1394 120.748 14.1394 121.195C14.1394 121.738 14.0331 122.222 13.8204 122.647C13.6151 123.065 13.3034 123.395 12.8854 123.637C12.4747 123.879 11.9687 124 11.3674 124C10.5681 124 9.92641 123.802 9.44241 123.406C8.95841 123.01 8.66875 122.486 8.57341 121.833H9.79441C9.87508 122.178 10.0547 122.453 10.3334 122.658C10.6121 122.856 10.9604 122.955 11.3784 122.955C11.8991 122.955 12.2877 122.797 12.5444 122.482C12.8084 122.167 12.9404 121.749 12.9404 121.228C12.9404 120.7 12.8084 120.297 12.5444 120.018C12.2804 119.732 11.8917 119.589 11.3784 119.589C11.0191 119.589 10.7147 119.681 10.4654 119.864C10.2234 120.04 10.0474 120.282 9.93741 120.59H8.74941V115.959H13.5894V117.059ZM19.5698 113.616L16.5778 125.925H15.3458L18.3268 113.616H19.5698ZM26.0452 117.059H22.3602V119.248C22.5142 119.043 22.7415 118.87 23.0422 118.731C23.3502 118.592 23.6765 118.522 24.0212 118.522C24.6372 118.522 25.1359 118.654 25.5172 118.918C25.9059 119.182 26.1809 119.516 26.3422 119.919C26.5109 120.322 26.5952 120.748 26.5952 121.195C26.5952 121.738 26.4889 122.222 26.2762 122.647C26.0709 123.065 25.7592 123.395 25.3412 123.637C24.9305 123.879 24.4245 124 23.8232 124C23.0239 124 22.3822 123.802 21.8982 123.406C21.4142 123.01 21.1245 122.486 21.0292 121.833H22.2502C22.3309 122.178 22.5105 122.453 22.7892 122.658C23.0679 122.856 23.4162 122.955 23.8342 122.955C24.3549 122.955 24.7435 122.797 25.0002 122.482C25.2642 122.167 25.3962 121.749 25.3962 121.228C25.3962 120.7 25.2642 120.297 25.0002 120.018C24.7362 119.732 24.3475 119.589 23.8342 119.589C23.4749 119.589 23.1705 119.681 22.9212 119.864C22.6792 120.04 22.5032 120.282 22.3932 120.59H21.2052V115.959H26.0452V117.059Z" fill="url(#paint2_linear_6488_1734)"/>
<path d="M41.2247 116.355V117.378H37.9797V119.633H40.5097V120.656H37.9797V124H36.7257V116.355H41.2247ZM46.2478 124L44.4878 120.942H43.5308V124H42.2768V116.355H44.9168C45.5035 116.355 45.9985 116.458 46.4018 116.663C46.8125 116.868 47.1168 117.143 47.3148 117.488C47.5202 117.833 47.6228 118.218 47.6228 118.643C47.6228 119.142 47.4762 119.596 47.1828 120.007C46.8968 120.41 46.4532 120.685 45.8518 120.832L47.7438 124H46.2478ZM43.5308 119.941H44.9168C45.3862 119.941 45.7382 119.824 45.9728 119.589C46.2148 119.354 46.3358 119.039 46.3358 118.643C46.3358 118.247 46.2185 117.939 45.9838 117.719C45.7492 117.492 45.3935 117.378 44.9168 117.378H43.5308V119.941ZM50.371 117.367V119.611H53.011V120.634H50.371V122.977H53.341V124H49.117V116.344H53.341V117.367H50.371ZM56.0296 117.367V119.611H58.6696V120.634H56.0296V122.977H58.9996V124H54.7756V116.344H58.9996V117.367H56.0296ZM67.3505 116.355V121.866C67.3505 122.548 67.1415 123.087 66.7235 123.483C66.3129 123.879 65.7702 124.077 65.0955 124.077C64.4209 124.077 63.8745 123.879 63.4565 123.483C63.0459 123.087 62.8405 122.548 62.8405 121.866H64.1055C64.1129 122.203 64.1972 122.471 64.3585 122.669C64.5272 122.867 64.7729 122.966 65.0955 122.966C65.4182 122.966 65.6639 122.867 65.8325 122.669C66.0012 122.464 66.0855 122.196 66.0855 121.866V116.355H67.3505ZM72.7675 124.077C72.0562 124.077 71.3999 123.912 70.7985 123.582C70.2045 123.245 69.7315 122.779 69.3795 122.185C69.0349 121.584 68.8625 120.909 68.8625 120.161C68.8625 119.413 69.0349 118.742 69.3795 118.148C69.7315 117.554 70.2045 117.092 70.7985 116.762C71.3999 116.425 72.0562 116.256 72.7675 116.256C73.4862 116.256 74.1425 116.425 74.7365 116.762C75.3379 117.092 75.8109 117.554 76.1555 118.148C76.5002 118.742 76.6725 119.413 76.6725 120.161C76.6725 120.909 76.5002 121.584 76.1555 122.185C75.8109 122.779 75.3379 123.245 74.7365 123.582C74.1425 123.912 73.4862 124.077 72.7675 124.077ZM72.7675 122.988C73.2735 122.988 73.7245 122.874 74.1205 122.647C74.5165 122.412 74.8245 122.082 75.0445 121.657C75.2719 121.224 75.3855 120.726 75.3855 120.161C75.3855 119.596 75.2719 119.101 75.0445 118.676C74.8245 118.251 74.5165 117.924 74.1205 117.697C73.7245 117.47 73.2735 117.356 72.7675 117.356C72.2615 117.356 71.8105 117.47 71.4145 117.697C71.0185 117.924 70.7069 118.251 70.4795 118.676C70.2595 119.101 70.1495 119.596 70.1495 120.161C70.1495 120.726 70.2595 121.224 70.4795 121.657C70.7069 122.082 71.0185 122.412 71.4145 122.647C71.8105 122.874 72.2615 122.988 72.7675 122.988ZM81.8885 120.073C82.2992 120.146 82.6475 120.363 82.9335 120.722C83.2195 121.081 83.3625 121.488 83.3625 121.943C83.3625 122.332 83.2598 122.684 83.0545 122.999C82.8565 123.307 82.5668 123.553 82.1855 123.736C81.8042 123.912 81.3605 124 80.8545 124H77.7965V116.355H80.7115C81.2322 116.355 81.6795 116.443 82.0535 116.619C82.4275 116.795 82.7098 117.033 82.9005 117.334C83.0912 117.627 83.1865 117.957 83.1865 118.324C83.1865 118.764 83.0692 119.131 82.8345 119.424C82.5998 119.717 82.2845 119.934 81.8885 120.073ZM79.0505 119.567H80.6015C81.0122 119.567 81.3312 119.475 81.5585 119.292C81.7932 119.101 81.9105 118.83 81.9105 118.478C81.9105 118.133 81.7932 117.866 81.5585 117.675C81.3312 117.477 81.0122 117.378 80.6015 117.378H79.0505V119.567ZM80.7445 122.977C81.1698 122.977 81.5035 122.874 81.7455 122.669C81.9875 122.464 82.1085 122.178 82.1085 121.811C82.1085 121.437 81.9802 121.14 81.7235 120.92C81.4668 120.7 81.1258 120.59 80.7005 120.59H79.0505V122.977H80.7445ZM87.1342 124.077C86.6209 124.077 86.1589 123.989 85.7482 123.813C85.3375 123.63 85.0149 123.373 84.7802 123.043C84.5455 122.713 84.4282 122.328 84.4282 121.888H85.7702C85.7995 122.218 85.9279 122.489 86.1552 122.702C86.3899 122.915 86.7162 123.021 87.1342 123.021C87.5669 123.021 87.9042 122.918 88.1462 122.713C88.3882 122.5 88.5092 122.229 88.5092 121.899C88.5092 121.642 88.4322 121.433 88.2782 121.272C88.1315 121.111 87.9445 120.986 87.7172 120.898C87.4972 120.81 87.1892 120.715 86.7932 120.612C86.2945 120.48 85.8875 120.348 85.5722 120.216C85.2642 120.077 85.0002 119.864 84.7802 119.578C84.5602 119.292 84.4502 118.911 84.4502 118.434C84.4502 117.994 84.5602 117.609 84.7802 117.279C85.0002 116.949 85.3082 116.696 85.7042 116.52C86.1002 116.344 86.5585 116.256 87.0792 116.256C87.8199 116.256 88.4249 116.443 88.8942 116.817C89.3709 117.184 89.6349 117.69 89.6862 118.335H88.3002C88.2782 118.056 88.1462 117.818 87.9042 117.62C87.6622 117.422 87.3432 117.323 86.9472 117.323C86.5879 117.323 86.2945 117.415 86.0672 117.598C85.8399 117.781 85.7262 118.045 85.7262 118.39C85.7262 118.625 85.7959 118.819 85.9352 118.973C86.0819 119.12 86.2652 119.237 86.4852 119.325C86.7052 119.413 87.0059 119.508 87.3872 119.611C87.8932 119.75 88.3039 119.89 88.6192 120.029C88.9419 120.168 89.2132 120.385 89.4332 120.678C89.6605 120.964 89.7742 121.349 89.7742 121.833C89.7742 122.222 89.6679 122.588 89.4552 122.933C89.2499 123.278 88.9455 123.556 88.5422 123.769C88.1462 123.974 87.6769 124.077 87.1342 124.077ZM99.2373 118.632C99.2373 119.021 99.1456 119.387 98.9623 119.732C98.779 120.077 98.4856 120.359 98.0823 120.579C97.679 120.792 97.162 120.898 96.5313 120.898H95.1453V124H93.8913V116.355H96.5313C97.118 116.355 97.613 116.458 98.0163 116.663C98.427 116.861 98.7313 117.132 98.9293 117.477C99.1346 117.822 99.2373 118.207 99.2373 118.632ZM96.5313 119.875C97.008 119.875 97.3636 119.769 97.5983 119.556C97.833 119.336 97.9503 119.028 97.9503 118.632C97.9503 117.796 97.4773 117.378 96.5313 117.378H95.1453V119.875H96.5313ZM103.81 124.077C103.099 124.077 102.443 123.912 101.841 123.582C101.247 123.245 100.774 122.779 100.422 122.185C100.078 121.584 99.9053 120.909 99.9053 120.161C99.9053 119.413 100.078 118.742 100.422 118.148C100.774 117.554 101.247 117.092 101.841 116.762C102.443 116.425 103.099 116.256 103.81 116.256C104.529 116.256 105.185 116.425 105.779 116.762C106.381 117.092 106.854 117.554 107.198 118.148C107.543 118.742 107.715 119.413 107.715 120.161C107.715 120.909 107.543 121.584 107.198 122.185C106.854 122.779 106.381 123.245 105.779 123.582C105.185 123.912 104.529 124.077 103.81 124.077ZM103.81 122.988C104.316 122.988 104.767 122.874 105.163 122.647C105.559 122.412 105.867 122.082 106.087 121.657C106.315 121.224 106.428 120.726 106.428 120.161C106.428 119.596 106.315 119.101 106.087 118.676C105.867 118.251 105.559 117.924 105.163 117.697C104.767 117.47 104.316 117.356 103.81 117.356C103.304 117.356 102.853 117.47 102.457 117.697C102.061 117.924 101.75 118.251 101.522 118.676C101.302 119.101 101.192 119.596 101.192 120.161C101.192 120.726 101.302 121.224 101.522 121.657C101.75 122.082 102.061 122.412 102.457 122.647C102.853 122.874 103.304 122.988 103.81 122.988ZM111.358 124.077C110.845 124.077 110.383 123.989 109.972 123.813C109.562 123.63 109.239 123.373 109.004 123.043C108.77 122.713 108.652 122.328 108.652 121.888H109.994C110.024 122.218 110.152 122.489 110.379 122.702C110.614 122.915 110.94 123.021 111.358 123.021C111.791 123.021 112.128 122.918 112.37 122.713C112.612 122.5 112.733 122.229 112.733 121.899C112.733 121.642 112.656 121.433 112.502 121.272C112.356 121.111 112.169 120.986 111.941 120.898C111.721 120.81 111.413 120.715 111.017 120.612C110.519 120.48 110.112 120.348 109.796 120.216C109.488 120.077 109.224 119.864 109.004 119.578C108.784 119.292 108.674 118.911 108.674 118.434C108.674 117.994 108.784 117.609 109.004 117.279C109.224 116.949 109.532 116.696 109.928 116.52C110.324 116.344 110.783 116.256 111.303 116.256C112.044 116.256 112.649 116.443 113.118 116.817C113.595 117.184 113.859 117.69 113.91 118.335H112.524C112.502 118.056 112.37 117.818 112.128 117.62C111.886 117.422 111.567 117.323 111.171 117.323C110.812 117.323 110.519 117.415 110.291 117.598C110.064 117.781 109.95 118.045 109.95 118.39C109.95 118.625 110.02 118.819 110.159 118.973C110.306 119.12 110.489 119.237 110.709 119.325C110.929 119.413 111.23 119.508 111.611 119.611C112.117 119.75 112.528 119.89 112.843 120.029C113.166 120.168 113.437 120.385 113.657 120.678C113.885 120.964 113.998 121.349 113.998 121.833C113.998 122.222 113.892 122.588 113.679 122.933C113.474 123.278 113.17 123.556 112.766 123.769C112.37 123.974 111.901 124.077 111.358 124.077ZM120.307 116.355V117.378H118.272V124H117.018V117.378H114.972V116.355H120.307ZM122.721 117.367V119.611H125.361V120.634H122.721V122.977H125.691V124H121.467V116.344H125.691V117.367H122.721ZM129.622 116.355C130.436 116.355 131.148 116.513 131.756 116.828C132.372 117.136 132.845 117.583 133.175 118.17C133.513 118.749 133.681 119.428 133.681 120.205C133.681 120.982 133.513 121.657 133.175 122.229C132.845 122.801 132.372 123.241 131.756 123.549C131.148 123.85 130.436 124 129.622 124H127.125V116.355H129.622ZM129.622 122.977C130.517 122.977 131.203 122.735 131.679 122.251C132.156 121.767 132.394 121.085 132.394 120.205C132.394 119.318 132.156 118.625 131.679 118.126C131.203 117.627 130.517 117.378 129.622 117.378H128.379V122.977H129.622Z" fill="white"/>
<defs>
<linearGradient id="paint0_linear_6488_1734" x1="45" y1="27" x2="99.2823" y2="27.2565" gradientUnits="userSpaceOnUse">
<stop stop-color="#24008C"/>
<stop offset="1" stop-color="#4C00AD"/>
</linearGradient>
<linearGradient id="paint1_linear_6488_1734" x1="1.5" y1="110" x2="143.046" y2="115.24" gradientUnits="userSpaceOnUse">
<stop stop-color="#24008C"/>
<stop offset="1" stop-color="#4C00AD"/>
</linearGradient>
<linearGradient id="paint2_linear_6488_1734" x1="7.5" y1="112" x2="27.6042" y2="112.132" gradientUnits="userSpaceOnUse">
<stop stop-color="#24008C"/>
<stop offset="1" stop-color="#4C00AD"/>
</linearGradient>
<clipPath id="clip0_6488_1734">
<rect x="12" width="120" height="120" rx="60" fill="white"/>
</clipPath>
<clipPath id="clip1_6488_1734">
<rect width="60" height="60" fill="white" transform="translate(-16 30)"/>
</clipPath>
<clipPath id="clip2_6488_1734">
<rect width="72" height="72" fill="white" transform="translate(36 24)"/>
</clipPath>
<clipPath id="clip3_6488_1734">
<rect width="60" height="60" fill="white" transform="translate(100 30)"/>
</clipPath>
</defs>
</svg>
