<svg width="134" height="26" viewBox="0 0 134 26" fill="none" xmlns="http://www.w3.org/2000/svg">
<rect width="134" height="26" rx="13" fill="#A67B19"/>
<g clip-path="url(#clip0_6789_21182)">
<path d="M14.8125 11.0625H12V18.4856H14.8125V11.0625Z" fill="white"/>
<path d="M23.7443 14.1659C23.7443 13.8982 23.6555 13.6508 23.5058 13.4516C23.8049 13.2349 24 12.8831 24 12.4864C24 11.8295 23.4656 11.2951 22.8087 11.2951H20.1006L20.4775 9.99334V9.36959C20.4775 8.22024 19.5424 7.28516 18.393 7.28516C18.1143 7.28516 17.8876 7.51189 17.8876 7.79056V9.17337C17.6997 9.47417 16.656 10.6453 15.5156 11.8724V18.0245L16.4887 18.3894C17.0671 18.6063 17.6735 18.7163 18.2913 18.7163H22.0417C22.6986 18.7163 23.233 18.1818 23.233 17.5249C23.233 17.2573 23.1443 17.0099 22.9947 16.8108C23.2937 16.5942 23.4887 16.2421 23.4887 15.8454C23.4887 15.5776 23.3998 15.3303 23.2501 15.1311C23.5492 14.9145 23.7443 14.5627 23.7443 14.1659Z" fill="white"/>
</g>
<path d="M33.28 17L31.168 13.616H30.196V17H28.828V8.528H31.816C32.784 8.528 33.516 8.764 34.012 9.236C34.516 9.708 34.768 10.332 34.768 11.108C34.768 11.772 34.58 12.316 34.204 12.74C33.836 13.164 33.3 13.436 32.596 13.556L34.816 17H33.28ZM30.196 12.644H31.708C32.812 12.644 33.364 12.156 33.364 11.18C33.364 10.716 33.228 10.356 32.956 10.1C32.692 9.836 32.276 9.704 31.708 9.704H30.196V12.644ZM42.1439 13.376C42.1439 13.6 42.1279 13.796 42.0959 13.964H37.0079C37.0319 14.644 37.2199 15.148 37.5719 15.476C37.9239 15.804 38.3599 15.968 38.8799 15.968C39.3359 15.968 39.7199 15.852 40.0319 15.62C40.3519 15.388 40.5479 15.08 40.6199 14.696H42.0839C41.9959 15.16 41.8119 15.572 41.5319 15.932C41.2519 16.292 40.8879 16.576 40.4399 16.784C39.9919 16.984 39.4919 17.084 38.9399 17.084C38.2999 17.084 37.7319 16.948 37.2359 16.676C36.7479 16.404 36.3639 16.012 36.0839 15.5C35.8039 14.988 35.6639 14.384 35.6639 13.688C35.6639 13 35.8039 12.4 36.0839 11.888C36.3639 11.376 36.7479 10.984 37.2359 10.712C37.7319 10.44 38.2999 10.304 38.9399 10.304C39.5879 10.304 40.1519 10.44 40.6319 10.712C41.1199 10.976 41.4919 11.344 41.7479 11.816C42.0119 12.28 42.1439 12.8 42.1439 13.376ZM40.7639 13.34C40.7799 12.908 40.7039 12.548 40.5359 12.26C40.3759 11.964 40.1519 11.748 39.8639 11.612C39.5839 11.468 39.2759 11.396 38.9399 11.396C38.4039 11.396 37.9559 11.56 37.5959 11.888C37.2359 12.216 37.0399 12.7 37.0079 13.34H40.7639ZM46.4047 10.304C47.2607 10.304 47.9687 10.532 48.5287 10.988C49.0887 11.436 49.4367 12.048 49.5727 12.824H48.1207C48.0407 12.408 47.8447 12.084 47.5327 11.852C47.2287 11.612 46.8447 11.492 46.3807 11.492C45.8527 11.492 45.4127 11.68 45.0607 12.056C44.7087 12.424 44.5327 12.968 44.5327 13.688C44.5327 14.408 44.7087 14.956 45.0607 15.332C45.4127 15.708 45.8527 15.896 46.3807 15.896C46.8447 15.896 47.2287 15.776 47.5327 15.536C47.8447 15.296 48.0407 14.968 48.1207 14.552H49.5727C49.4367 15.328 49.0887 15.944 48.5287 16.4C47.9687 16.856 47.2607 17.084 46.4047 17.084C45.7647 17.084 45.1967 16.948 44.7007 16.676C44.2127 16.404 43.8287 16.012 43.5487 15.5C43.2687 14.988 43.1287 14.384 43.1287 13.688C43.1287 13 43.2687 12.4 43.5487 11.888C43.8287 11.376 44.2127 10.984 44.7007 10.712C45.1967 10.44 45.7647 10.304 46.4047 10.304ZM53.9184 10.304C54.5584 10.304 55.1344 10.44 55.6464 10.712C56.1584 10.984 56.5584 11.376 56.8464 11.888C57.1344 12.4 57.2784 13 57.2784 13.688C57.2784 14.384 57.1344 14.988 56.8464 15.5C56.5584 16.012 56.1584 16.404 55.6464 16.676C55.1344 16.948 54.5584 17.084 53.9184 17.084C53.2784 17.084 52.7024 16.948 52.1904 16.676C51.6864 16.404 51.2864 16.012 50.9904 15.5C50.7024 14.98 50.5584 14.376 50.5584 13.688C50.5584 13 50.7024 12.4 50.9904 11.888C51.2864 11.376 51.6864 10.984 52.1904 10.712C52.7024 10.44 53.2784 10.304 53.9184 10.304ZM53.9184 11.492C53.5664 11.492 53.2424 11.572 52.9464 11.732C52.6504 11.892 52.4104 12.14 52.2264 12.476C52.0504 12.804 51.9624 13.208 51.9624 13.688C51.9624 14.176 52.0504 14.584 52.2264 14.912C52.4104 15.24 52.6504 15.484 52.9464 15.644C53.2424 15.804 53.5664 15.884 53.9184 15.884C54.2704 15.884 54.5944 15.804 54.8904 15.644C55.1864 15.484 55.4224 15.24 55.5984 14.912C55.7824 14.584 55.8744 14.176 55.8744 13.688C55.8744 13.208 55.7824 12.804 55.5984 12.476C55.4224 12.14 55.1864 11.892 54.8904 11.732C54.5944 11.572 54.2704 11.492 53.9184 11.492ZM66.8616 10.28C67.6456 10.28 68.2696 10.528 68.7336 11.024C69.2056 11.52 69.4416 12.228 69.4416 13.148V17H68.0736V13.292C68.0736 12.716 67.9296 12.272 67.6416 11.96C67.3536 11.64 66.9576 11.48 66.4536 11.48C65.9176 11.48 65.4896 11.652 65.1696 11.996C64.8576 12.332 64.7016 12.828 64.7016 13.484V17H63.3336V13.292C63.3336 12.716 63.1896 12.272 62.9016 11.96C62.6136 11.64 62.2176 11.48 61.7136 11.48C61.1776 11.48 60.7496 11.652 60.4296 11.996C60.1176 12.332 59.9616 12.828 59.9616 13.484V17H58.5936V10.388H59.9616V11.768C60.1296 11.288 60.4096 10.92 60.8016 10.664C61.1936 10.408 61.6536 10.28 62.1816 10.28C62.7336 10.28 63.2096 10.416 63.6096 10.688C64.0176 10.96 64.3136 11.352 64.4976 11.864C64.6896 11.368 64.9976 10.98 65.4216 10.7C65.8456 10.42 66.3256 10.28 66.8616 10.28ZM79.3069 10.28C80.0909 10.28 80.7149 10.528 81.1789 11.024C81.6509 11.52 81.8869 12.228 81.8869 13.148V17H80.5189V13.292C80.5189 12.716 80.3749 12.272 80.0869 11.96C79.7989 11.64 79.4029 11.48 78.8989 11.48C78.3629 11.48 77.9349 11.652 77.6149 11.996C77.3029 12.332 77.1469 12.828 77.1469 13.484V17H75.7789V13.292C75.7789 12.716 75.6349 12.272 75.3469 11.96C75.0589 11.64 74.6629 11.48 74.1589 11.48C73.6229 11.48 73.1949 11.652 72.8749 11.996C72.5629 12.332 72.4069 12.828 72.4069 13.484V17H71.0389V10.388H72.4069V11.768C72.5749 11.288 72.8549 10.92 73.2469 10.664C73.6389 10.408 74.0989 10.28 74.6269 10.28C75.1789 10.28 75.6549 10.416 76.0549 10.688C76.4629 10.96 76.7589 11.352 76.9429 11.864C77.1349 11.368 77.4429 10.98 77.8669 10.7C78.2909 10.42 78.7709 10.28 79.3069 10.28ZM89.6283 13.376C89.6283 13.6 89.6123 13.796 89.5803 13.964H84.4923C84.5163 14.644 84.7043 15.148 85.0563 15.476C85.4083 15.804 85.8443 15.968 86.3643 15.968C86.8203 15.968 87.2043 15.852 87.5163 15.62C87.8363 15.388 88.0323 15.08 88.1043 14.696H89.5683C89.4803 15.16 89.2963 15.572 89.0163 15.932C88.7363 16.292 88.3723 16.576 87.9243 16.784C87.4763 16.984 86.9763 17.084 86.4243 17.084C85.7843 17.084 85.2163 16.948 84.7203 16.676C84.2323 16.404 83.8483 16.012 83.5683 15.5C83.2883 14.988 83.1483 14.384 83.1483 13.688C83.1483 13 83.2883 12.4 83.5683 11.888C83.8483 11.376 84.2323 10.984 84.7203 10.712C85.2163 10.44 85.7843 10.304 86.4243 10.304C87.0723 10.304 87.6363 10.44 88.1163 10.712C88.6043 10.976 88.9763 11.344 89.2323 11.816C89.4963 12.28 89.6283 12.8 89.6283 13.376ZM88.2483 13.34C88.2643 12.908 88.1883 12.548 88.0203 12.26C87.8603 11.964 87.6363 11.748 87.3483 11.612C87.0683 11.468 86.7603 11.396 86.4243 11.396C85.8883 11.396 85.4403 11.56 85.0803 11.888C84.7203 12.216 84.5243 12.7 84.4923 13.34H88.2483ZM94.6451 10.28C95.4131 10.28 96.0291 10.528 96.4931 11.024C96.9571 11.52 97.1891 12.228 97.1891 13.148V17H95.8211V13.292C95.8211 12.7 95.6691 12.244 95.3651 11.924C95.0611 11.596 94.6451 11.432 94.1171 11.432C93.5731 11.432 93.1371 11.608 92.8091 11.96C92.4811 12.304 92.3171 12.812 92.3171 13.484V17H90.9491V10.388H92.3171V11.84C92.4931 11.344 92.7891 10.96 93.2051 10.688C93.6211 10.416 94.1011 10.28 94.6451 10.28ZM101.441 10.304C102.041 10.304 102.553 10.452 102.977 10.748C103.401 11.044 103.697 11.436 103.865 11.924V8.12H105.245V17H103.865V15.464C103.697 15.952 103.401 16.344 102.977 16.64C102.553 16.936 102.041 17.084 101.441 17.084C100.865 17.084 100.349 16.948 99.8929 16.676C99.4449 16.404 99.0929 16.012 98.8369 15.5C98.5809 14.988 98.4529 14.384 98.4529 13.688C98.4529 13 98.5809 12.4 98.8369 11.888C99.0929 11.376 99.4449 10.984 99.8929 10.712C100.349 10.44 100.865 10.304 101.441 10.304ZM101.861 11.504C101.253 11.504 100.765 11.7 100.397 12.092C100.037 12.476 99.8569 13.008 99.8569 13.688C99.8569 14.368 100.037 14.904 100.397 15.296C100.765 15.68 101.253 15.872 101.861 15.872C102.245 15.872 102.589 15.784 102.893 15.608C103.197 15.424 103.437 15.168 103.613 14.84C103.789 14.512 103.877 14.128 103.877 13.688C103.877 13.256 103.789 12.876 103.613 12.548C103.437 12.212 103.197 11.956 102.893 11.78C102.589 11.596 102.245 11.504 101.861 11.504ZM113.031 13.376C113.031 13.6 113.015 13.796 112.983 13.964H107.895C107.919 14.644 108.107 15.148 108.459 15.476C108.811 15.804 109.247 15.968 109.767 15.968C110.223 15.968 110.607 15.852 110.919 15.62C111.239 15.388 111.435 15.08 111.507 14.696H112.971C112.883 15.16 112.699 15.572 112.419 15.932C112.139 16.292 111.775 16.576 111.327 16.784C110.879 16.984 110.379 17.084 109.827 17.084C109.187 17.084 108.619 16.948 108.123 16.676C107.635 16.404 107.251 16.012 106.971 15.5C106.691 14.988 106.551 14.384 106.551 13.688C106.551 13 106.691 12.4 106.971 11.888C107.251 11.376 107.635 10.984 108.123 10.712C108.619 10.44 109.187 10.304 109.827 10.304C110.475 10.304 111.039 10.44 111.519 10.712C112.007 10.976 112.379 11.344 112.635 11.816C112.899 12.28 113.031 12.8 113.031 13.376ZM111.651 13.34C111.667 12.908 111.591 12.548 111.423 12.26C111.263 11.964 111.039 11.748 110.751 11.612C110.471 11.468 110.163 11.396 109.827 11.396C109.291 11.396 108.843 11.56 108.483 11.888C108.123 12.216 107.927 12.7 107.895 13.34H111.651ZM117.003 10.304C117.603 10.304 118.115 10.452 118.539 10.748C118.963 11.044 119.259 11.436 119.427 11.924V8.12H120.807V17H119.427V15.464C119.259 15.952 118.963 16.344 118.539 16.64C118.115 16.936 117.603 17.084 117.003 17.084C116.427 17.084 115.911 16.948 115.455 16.676C115.007 16.404 114.655 16.012 114.399 15.5C114.143 14.988 114.015 14.384 114.015 13.688C114.015 13 114.143 12.4 114.399 11.888C114.655 11.376 115.007 10.984 115.455 10.712C115.911 10.44 116.427 10.304 117.003 10.304ZM117.423 11.504C116.815 11.504 116.327 11.7 115.959 12.092C115.599 12.476 115.419 13.008 115.419 13.688C115.419 14.368 115.599 14.904 115.959 15.296C116.327 15.68 116.815 15.872 117.423 15.872C117.807 15.872 118.151 15.784 118.455 15.608C118.759 15.424 118.999 15.168 119.175 14.84C119.351 14.512 119.439 14.128 119.439 13.688C119.439 13.256 119.351 12.876 119.175 12.548C118.999 12.212 118.759 11.956 118.455 11.78C118.151 11.596 117.807 11.504 117.423 11.504Z" fill="white"/>
<defs>
<clipPath id="clip0_6789_21182">
<rect width="12" height="12" fill="white" transform="translate(12 7)"/>
</clipPath>
</defs>
</svg>
