<svg width="92" height="86" viewBox="0 0 92 86" fill="none" xmlns="http://www.w3.org/2000/svg">
<path d="M46 63.8438C57.5117 63.8438 66.8438 54.5117 66.8438 43C66.8438 31.4883 57.5117 22.1562 46 22.1562C34.4883 22.1562 25.1562 31.4883 25.1562 43C25.1562 54.5117 34.4883 63.8438 46 63.8438Z" fill="#FF2635"/>
<path d="M48.9289 42.9982L56.2026 35.092C56.4992 34.6623 56.6297 34.1396 56.5701 33.6209C56.5105 33.1023 56.2647 32.6229 55.8784 32.2717C55.4921 31.9205 54.9915 31.7214 54.4696 31.7113C53.9476 31.7013 53.4397 31.8809 53.0401 32.217L45.9964 39.8213L38.9526 32.217C38.5531 31.8809 38.0452 31.7013 37.5232 31.7113C37.0012 31.7214 36.5006 31.9205 36.1143 32.2717C35.728 32.6229 35.4822 33.1023 35.4226 33.6209C35.363 34.1396 35.4936 34.6623 35.7901 35.092L43.0639 42.9982L35.7901 50.9045C35.4136 51.3261 35.2177 51.8786 35.2446 52.4432C35.2715 53.0078 35.519 53.5393 35.9339 53.9232C36.3555 54.2997 36.908 54.4956 37.4726 54.4687C38.0372 54.4418 38.5687 54.1943 38.9526 53.7795L45.9964 46.1751L53.0401 53.7795C53.424 54.1943 53.9555 54.4418 54.5201 54.4687C55.0847 54.4956 55.6373 54.2997 56.0589 53.9232C56.4737 53.5393 56.7212 53.0078 56.7481 52.4432C56.775 51.8786 56.5791 51.3261 56.2026 50.9045L48.9289 42.9982Z" fill="white"/>
<path d="M46 63.8438C57.5117 63.8438 66.8438 54.5117 66.8438 43C66.8438 31.4883 57.5117 22.1562 46 22.1562C34.4883 22.1562 25.1562 31.4883 25.1562 43C25.1562 54.5117 34.4883 63.8438 46 63.8438Z" stroke="#BD0835" stroke-linecap="round" stroke-linejoin="round"/>
</svg>
