<svg width="16" height="16" viewBox="0 0 16 16" fill="none" xmlns="http://www.w3.org/2000/svg">
<g clip-path="url(#clip0_1879_13752)">
<path d="M8.00033 0.666504C6.54993 0.666504 5.13211 1.0966 3.92615 1.90239C2.72019 2.70819 1.78025 3.8535 1.22521 5.19349C0.67017 6.53348 0.524945 8.00797 0.807903 9.4305C1.09086 10.853 1.78929 12.1597 2.81488 13.1853C3.84046 14.2109 5.14714 14.9093 6.56967 15.1923C7.99219 15.4752 9.46668 15.33 10.8067 14.775C12.1467 14.2199 13.292 13.28 14.0978 12.074C14.9036 10.8681 15.3337 9.45023 15.3337 7.99984C15.3314 6.05562 14.558 4.19169 13.1832 2.81692C11.8085 1.44215 9.94455 0.668798 8.00033 0.666504ZM8.00033 13.9998C6.81364 13.9998 5.6536 13.6479 4.66691 12.9887C3.68021 12.3294 2.91118 11.3923 2.45705 10.2959C2.00293 9.19958 1.88411 7.99318 2.11562 6.8293C2.34713 5.66541 2.91857 4.59631 3.75769 3.7572C4.5968 2.91808 5.6659 2.34664 6.82979 2.11513C7.99367 1.88361 9.20007 2.00243 10.2964 2.45656C11.3928 2.91069 12.3299 3.67972 12.9891 4.66642C13.6484 5.65311 14.0003 6.81315 14.0003 7.99984C13.9984 9.59054 13.3656 11.1155 12.2408 12.2403C11.116 13.3651 9.59103 13.9979 8.00033 13.9998Z" fill="#FF224A"/>
<path d="M8.66634 7.72416V4.00016C8.66634 3.82335 8.5961 3.65378 8.47108 3.52876C8.34605 3.40373 8.17649 3.3335 7.99967 3.3335C7.82286 3.3335 7.65329 3.40373 7.52827 3.52876C7.40325 3.65378 7.33301 3.82335 7.33301 4.00016V8.00016C7.33305 8.17696 7.40331 8.3465 7.52834 8.4715L9.52834 10.4715C9.65408 10.5929 9.82248 10.6601 9.99728 10.6586C10.1721 10.6571 10.3393 10.587 10.4629 10.4634C10.5865 10.3398 10.6566 10.1726 10.6581 9.99776C10.6596 9.82297 10.5924 9.65456 10.471 9.52883L8.66634 7.72416Z" fill="#FF224A"/>
</g>
<defs>
<clipPath id="clip0_1879_13752">
<rect width="16" height="16" fill="white"/>
</clipPath>
</defs>
</svg>
