<svg xmlns="http://www.w3.org/2000/svg" width="16" height="17" viewBox="0 0 16 17" fill="none">
    <g clip-path="url(#clip0_6048_42795)">
        <path
            d="M8 15.75C12.0041 15.75 15.25 12.5041 15.25 8.5C15.25 4.49594 12.0041 1.25 8 1.25C3.99594 1.25 0.75 4.49594 0.75 8.5C0.75 12.5041 3.99594 15.75 8 15.75Z"
            fill="#FF2635" />
        <path
            d="M9.0184 8.50022L11.5484 5.75022C11.6515 5.60077 11.697 5.41897 11.6762 5.23857C11.6555 5.05817 11.57 4.89141 11.4356 4.76926C11.3013 4.64711 11.1271 4.57786 10.9456 4.57436C10.764 4.57086 10.5874 4.63335 10.4484 4.75022L7.9984 7.39522L5.5484 4.75022C5.40942 4.63335 5.23276 4.57086 5.0512 4.57436C4.86965 4.57786 4.69552 4.64711 4.56116 4.76926C4.42679 4.89141 4.34131 5.05817 4.32057 5.23857C4.29983 5.41897 4.34525 5.60077 4.4484 5.75022L6.9784 8.50022L4.4484 11.2502C4.31744 11.3969 4.24931 11.5891 4.25866 11.7854C4.26801 11.9818 4.3541 12.1667 4.4984 12.3002C4.64504 12.4312 4.83724 12.4993 5.03362 12.49C5.23 12.4806 5.41486 12.3945 5.5484 12.2502L7.9984 9.60522L10.4484 12.2502C10.5819 12.3945 10.7668 12.4806 10.9632 12.49C11.1595 12.4993 11.3518 12.4312 11.4984 12.3002C11.6427 12.1667 11.7288 11.9818 11.7381 11.7854C11.7475 11.5891 11.6793 11.3969 11.5484 11.2502L9.0184 8.50022Z"
            fill="white" />
        <path
            d="M8 15.75C12.0041 15.75 15.25 12.5041 15.25 8.5C15.25 4.49594 12.0041 1.25 8 1.25C3.99594 1.25 0.75 4.49594 0.75 8.5C0.75 12.5041 3.99594 15.75 8 15.75Z"
            stroke="#BD0835" stroke-linecap="round" stroke-linejoin="round" />
    </g>
    <defs>
        <clipPath id="clip0_6048_42795">
            <rect width="16" height="16" fill="white" transform="translate(0 0.5)" />
        </clipPath>
    </defs>
</svg>