<svg width="33" height="33" viewBox="0 0 33 33" fill="none" xmlns="http://www.w3.org/2000/svg">
    <rect width="33" height="33" rx="6" fill="#F3F4F6"/>
    <g clip-path="url(#clip0_8258_22029)">
    <path d="M24.0218 18.2533L22.5512 17.1033C22.5698 16.926 22.5858 16.7187 22.5858 16.4993C22.5858 16.28 22.5705 16.0727 22.5512 15.8953L24.0232 14.7447C24.2965 14.5287 24.3712 14.1453 24.1972 13.826L22.6678 11.18C22.5045 10.8813 22.1465 10.728 21.7832 10.862L20.0478 11.5587C19.7152 11.3187 19.3665 11.116 19.0058 10.954L18.7418 9.11334C18.6985 8.764 18.3945 8.5 18.0352 8.5H14.9685C14.6092 8.5 14.3059 8.764 14.2632 9.108L13.9985 10.9553C13.6492 11.1127 13.3059 11.3127 12.9585 11.56L11.2185 10.8613C10.8925 10.7353 10.5025 10.8767 10.3405 11.174L8.80918 13.8233C8.62852 14.1287 8.70318 14.5253 8.98252 14.7467L10.4532 15.8967C10.4298 16.1213 10.4185 16.3167 10.4185 16.5C10.4185 16.6834 10.4299 16.8787 10.4532 17.104L8.98118 18.2547C8.70784 18.4713 8.63384 18.8547 8.80784 19.1733L10.3372 21.8193C10.5005 22.1173 10.8552 22.272 11.2218 22.1373L12.9572 21.4407C13.2892 21.68 13.6378 21.8827 13.9985 22.0453L14.2625 23.8853C14.3058 24.236 14.6092 24.5 14.9692 24.5H18.0358C18.3952 24.5 18.6992 24.236 18.7418 23.892L19.0065 22.0453C19.3558 21.8873 19.6985 21.688 20.0465 21.44L21.7865 22.1387C21.8705 22.1713 21.9578 22.188 22.0478 22.188C22.3065 22.188 22.5445 22.0467 22.6645 21.8267L24.2005 19.1667C24.3712 18.8547 24.2965 18.4713 24.0218 18.2533ZM16.5018 19.1667C15.0312 19.1667 13.8352 17.9707 13.8352 16.5C13.8352 15.0293 15.0312 13.8333 16.5018 13.8333C17.9725 13.8333 19.1685 15.0293 19.1685 16.5C19.1685 17.9707 17.9725 19.1667 16.5018 19.1667Z" fill="#606C85"/>
    </g>
    <defs>
    <clipPath id="clip0_8258_22029">
    <rect width="16" height="16" fill="white" transform="translate(8.5 8.5)"/>
    </clipPath>
    </defs>
    </svg>
    