<svg width="88" height="68" viewBox="0 0 88 68" fill="none" xmlns="http://www.w3.org/2000/svg">
<g opacity="0.2">
<path d="M50.8447 -1.90918L51.0898 -1.64551L51.418 -1.79492L60.5566 -5.97363L64.0654 3.44336L64.1914 3.78125L64.5518 3.76855L74.5938 3.40527L74.2314 13.4482L74.2188 13.8086L74.5566 13.9346L83.9727 17.4424L79.7949 26.582L79.6455 26.9102L79.9092 27.1553L87.2646 34L79.9092 40.8447L79.6455 41.0898L79.7949 41.418L83.9727 50.5566L74.5566 54.0654L74.2188 54.1914L74.2314 54.5518L74.5938 64.5938L64.5518 64.2314L64.1914 64.2188L64.0654 64.5566L60.5566 73.9727L51.418 69.7949L51.0898 69.6455L50.8447 69.9092L44 77.2646L37.1553 69.9092L36.9102 69.6455L36.582 69.7949L27.4424 73.9727L23.9346 64.5566L23.8086 64.2188L23.4482 64.2314L13.4053 64.5938L13.7686 54.5518L13.7812 54.1914L13.4434 54.0654L4.02637 50.5566L8.20508 41.418L8.35449 41.0898L8.09082 40.8447L0.734375 34L8.09082 27.1553L8.35449 26.9102L8.20508 26.582L4.02637 17.4424L13.4434 13.9346L13.7812 13.8086L13.7686 13.4482L13.4053 3.40527L23.4482 3.76855L23.8086 3.78125L23.9346 3.44336L27.4424 -5.97363L36.582 -1.79492L36.9102 -1.64551L37.1553 -1.90918L44 -9.26562L50.8447 -1.90918Z" fill="black" stroke="white"/>
<circle opacity="0.32" cx="44" cy="34" r="28.5" stroke="white"/>
</g>
<g opacity="0.88">
<path d="M21.0041 15.02V16.15H19.1441V22H17.7441V16.15H15.8841V15.02H21.0041ZM25.4255 22L23.8855 19.28H23.2255V22H21.8255V15.02H24.4455C24.9855 15.02 25.4455 15.1167 25.8255 15.31C26.2055 15.4967 26.4889 15.7533 26.6755 16.08C26.8689 16.4 26.9655 16.76 26.9655 17.16C26.9655 17.62 26.8322 18.0367 26.5655 18.41C26.2989 18.7767 25.9022 19.03 25.3755 19.17L27.0455 22H25.4255ZM23.2255 18.23H24.3955C24.7755 18.23 25.0589 18.14 25.2455 17.96C25.4322 17.7733 25.5255 17.5167 25.5255 17.19C25.5255 16.87 25.4322 16.6233 25.2455 16.45C25.0589 16.27 24.7755 16.18 24.3955 16.18H23.2255V18.23ZM29.4118 15.02V19.34C29.4118 19.8133 29.5351 20.1767 29.7818 20.43C30.0285 20.6767 30.3751 20.8 30.8218 20.8C31.2751 20.8 31.6251 20.6767 31.8718 20.43C32.1185 20.1767 32.2418 19.8133 32.2418 19.34V15.02H33.6518V19.33C33.6518 19.9233 33.5218 20.4267 33.2618 20.84C33.0085 21.2467 32.6651 21.5533 32.2318 21.76C31.8051 21.9667 31.3285 22.07 30.8018 22.07C30.2818 22.07 29.8085 21.9667 29.3818 21.76C28.9618 21.5533 28.6285 21.2467 28.3818 20.84C28.1351 20.4267 28.0118 19.9233 28.0118 19.33V15.02H29.4118ZM37.2145 22.07C36.7278 22.07 36.2878 21.9867 35.8945 21.82C35.5078 21.6533 35.2011 21.4133 34.9745 21.1C34.7478 20.7867 34.6311 20.4167 34.6245 19.99H36.1245C36.1445 20.2767 36.2445 20.5033 36.4245 20.67C36.6111 20.8367 36.8645 20.92 37.1845 20.92C37.5111 20.92 37.7678 20.8433 37.9545 20.69C38.1411 20.53 38.2345 20.3233 38.2345 20.07C38.2345 19.8633 38.1711 19.6933 38.0445 19.56C37.9178 19.4267 37.7578 19.3233 37.5645 19.25C37.3778 19.17 37.1178 19.0833 36.7845 18.99C36.3311 18.8567 35.9611 18.7267 35.6745 18.6C35.3945 18.4667 35.1511 18.27 34.9445 18.01C34.7445 17.7433 34.6445 17.39 34.6445 16.95C34.6445 16.5367 34.7478 16.1767 34.9545 15.87C35.1611 15.5633 35.4511 15.33 35.8245 15.17C36.1978 15.0033 36.6245 14.92 37.1045 14.92C37.8245 14.92 38.4078 15.0967 38.8545 15.45C39.3078 15.7967 39.5578 16.2833 39.6045 16.91H38.0645C38.0511 16.67 37.9478 16.4733 37.7545 16.32C37.5678 16.16 37.3178 16.08 37.0045 16.08C36.7311 16.08 36.5111 16.15 36.3445 16.29C36.1845 16.43 36.1045 16.6333 36.1045 16.9C36.1045 17.0867 36.1645 17.2433 36.2845 17.37C36.4111 17.49 36.5645 17.59 36.7445 17.67C36.9311 17.7433 37.1911 17.83 37.5245 17.93C37.9778 18.0633 38.3478 18.1967 38.6345 18.33C38.9211 18.4633 39.1678 18.6633 39.3745 18.93C39.5811 19.1967 39.6845 19.5467 39.6845 19.98C39.6845 20.3533 39.5878 20.7 39.3945 21.02C39.2011 21.34 38.9178 21.5967 38.5445 21.79C38.1711 21.9767 37.7278 22.07 37.2145 22.07ZM45.4482 15.02V16.15H43.5882V22H42.1882V16.15H40.3282V15.02H45.4482ZM47.6697 16.15V17.9H50.0197V19.01H47.6697V20.86H50.3197V22H46.2697V15.01H50.3197V16.15H47.6697ZM53.832 15.02C54.5653 15.02 55.2086 15.1633 55.762 15.45C56.322 15.7367 56.752 16.1467 57.052 16.68C57.3586 17.2067 57.512 17.82 57.512 18.52C57.512 19.22 57.3586 19.8333 57.052 20.36C56.752 20.88 56.322 21.2833 55.762 21.57C55.2086 21.8567 54.5653 22 53.832 22H51.392V15.02H53.832ZM53.782 20.81C54.5153 20.81 55.082 20.61 55.482 20.21C55.882 19.81 56.082 19.2467 56.082 18.52C56.082 17.7933 55.882 17.2267 55.482 16.82C55.082 16.4067 54.5153 16.2 53.782 16.2H52.792V20.81H53.782ZM64.5027 18.42C64.8961 18.4933 65.2194 18.69 65.4727 19.01C65.7261 19.33 65.8527 19.6967 65.8527 20.11C65.8527 20.4833 65.7594 20.8133 65.5727 21.1C65.3927 21.38 65.1294 21.6 64.7827 21.76C64.4361 21.92 64.0261 22 63.5527 22H60.5427V15.02H63.4227C63.8961 15.02 64.3027 15.0967 64.6427 15.25C64.9894 15.4033 65.2494 15.6167 65.4227 15.89C65.6027 16.1633 65.6927 16.4733 65.6927 16.82C65.6927 17.2267 65.5827 17.5667 65.3627 17.84C65.1494 18.1133 64.8627 18.3067 64.5027 18.42ZM61.9427 17.9H63.2227C63.5561 17.9 63.8127 17.8267 63.9927 17.68C64.1727 17.5267 64.2627 17.31 64.2627 17.03C64.2627 16.75 64.1727 16.5333 63.9927 16.38C63.8127 16.2267 63.5561 16.15 63.2227 16.15H61.9427V17.9ZM63.3527 20.86C63.6927 20.86 63.9561 20.78 64.1427 20.62C64.3361 20.46 64.4327 20.2333 64.4327 19.94C64.4327 19.64 64.3327 19.4067 64.1327 19.24C63.9327 19.0667 63.6627 18.98 63.3227 18.98H61.9427V20.86H63.3527ZM72.3185 15.02L69.9585 19.57V22H68.5585V19.57L66.1885 15.02H67.7685L69.2685 18.21L70.7585 15.02H72.3185Z" fill="white"/>
<path d="M16.0019 27.4V24.046H22.2679V43H18.5239V27.4H16.0019ZM24.8238 33.276C24.8238 30.2773 25.3611 27.9287 26.4358 26.23C27.5278 24.5313 29.3304 23.682 31.8438 23.682C34.3571 23.682 36.1511 24.5313 37.2258 26.23C38.3178 27.9287 38.8638 30.2773 38.8638 33.276C38.8638 36.292 38.3178 38.658 37.2258 40.374C36.1511 42.09 34.3571 42.948 31.8438 42.948C29.3304 42.948 27.5278 42.09 26.4358 40.374C25.3611 38.658 24.8238 36.292 24.8238 33.276ZM35.2758 33.276C35.2758 31.9933 35.1891 30.9187 35.0158 30.052C34.8598 29.168 34.5304 28.4487 34.0278 27.894C33.5424 27.3393 32.8144 27.062 31.8438 27.062C30.8731 27.062 30.1364 27.3393 29.6338 27.894C29.1484 28.4487 28.8191 29.168 28.6458 30.052C28.4898 30.9187 28.4118 31.9933 28.4118 33.276C28.4118 34.5933 28.4898 35.7027 28.6458 36.604C28.8018 37.488 29.1311 38.2073 29.6338 38.762C30.1364 39.2993 30.8731 39.568 31.8438 39.568C32.8144 39.568 33.5511 39.2993 34.0538 38.762C34.5564 38.2073 34.8858 37.488 35.0418 36.604C35.1978 35.7027 35.2758 34.5933 35.2758 33.276ZM51.2524 43L44.6484 34.914V43H41.0084V24.852H44.6484V32.99L51.2524 24.852H55.6464L48.1584 33.848L55.8544 43H51.2524ZM70.8066 35.33H65.8926V40.374H62.4606V35.33H57.5466V32.158H62.4606V27.114H65.8926V32.158H70.8066V35.33Z" fill="white"/>
<path d="M17.6862 48.52V49.67H19.9362V51.16H17.6862V52.43H20.2362V54H15.7262V46.95H20.2362V48.52H17.6862ZM29.2347 46.95V54H27.2747V50.11L25.9447 54H24.3047L22.9647 50.08V54H21.0047V46.95H23.3747L25.1447 51.53L26.8747 46.95H29.2347ZM35.7204 49.3C35.7204 49.7267 35.6204 50.1167 35.4204 50.47C35.2271 50.8167 34.9304 51.0967 34.5304 51.31C34.1371 51.5167 33.6538 51.62 33.0804 51.62H32.1104V54H30.1504V46.95H33.0804C33.6471 46.95 34.1271 47.05 34.5204 47.25C34.9204 47.45 35.2204 47.7267 35.4204 48.08C35.6204 48.4333 35.7204 48.84 35.7204 49.3ZM32.8904 50.06C33.4438 50.06 33.7204 49.8067 33.7204 49.3C33.7204 48.7867 33.4438 48.53 32.8904 48.53H32.1104V50.06H32.8904ZM38.2679 52.5H40.4579V54H36.3079V46.95H38.2679V52.5ZM44.4 54.07C43.74 54.07 43.1333 53.9167 42.58 53.61C42.0266 53.2967 41.5866 52.8667 41.26 52.32C40.94 51.7667 40.78 51.1433 40.78 50.45C40.78 49.7567 40.94 49.1367 41.26 48.59C41.5866 48.0367 42.0266 47.6067 42.58 47.3C43.1333 46.9933 43.74 46.84 44.4 46.84C45.0666 46.84 45.6733 46.9933 46.22 47.3C46.7733 47.6067 47.21 48.0367 47.53 48.59C47.85 49.1367 48.01 49.7567 48.01 50.45C48.01 51.1433 47.85 51.7667 47.53 52.32C47.21 52.8667 46.7733 53.2967 46.22 53.61C45.6666 53.9167 45.06 54.07 44.4 54.07ZM44.4 52.25C44.9 52.25 45.2933 52.0867 45.58 51.76C45.8733 51.4333 46.02 50.9967 46.02 50.45C46.02 49.89 45.8733 49.45 45.58 49.13C45.2933 48.8033 44.9 48.64 44.4 48.64C43.8933 48.64 43.4966 48.8033 43.21 49.13C42.9233 49.45 42.78 49.89 42.78 50.45C42.78 51.0033 42.9233 51.4433 43.21 51.77C43.4966 52.09 43.8933 52.25 44.4 52.25ZM55.1011 46.95L52.6211 51.76V54H50.6511V51.76L48.1711 46.95H50.4111L51.6511 49.67L52.8911 46.95H55.1011ZM57.4628 48.52V49.67H59.7128V51.16H57.4628V52.43H60.0128V54H55.5028V46.95H60.0128V48.52H57.4628ZM64.3513 54L62.9513 51.4H62.7413V54H60.7813V46.95H63.8713C64.438 46.95 64.918 47.05 65.3113 47.25C65.7046 47.4433 66.0013 47.7133 66.2013 48.06C66.4013 48.4 66.5013 48.7833 66.5013 49.21C66.5013 49.69 66.368 50.1133 66.1013 50.48C65.8413 50.84 65.458 51.0967 64.9513 51.25L66.5413 54H64.3513ZM62.7413 50.06H63.7113C63.978 50.06 64.178 49.9967 64.3113 49.87C64.4446 49.7433 64.5113 49.56 64.5113 49.32C64.5113 49.0933 64.4413 48.9167 64.3013 48.79C64.168 48.6567 63.9713 48.59 63.7113 48.59H62.7413V50.06ZM69.8526 54.07C69.0326 54.07 68.3593 53.8767 67.8326 53.49C67.306 53.0967 67.0226 52.5367 66.9826 51.81H69.0726C69.0926 52.0567 69.166 52.2367 69.2926 52.35C69.4193 52.4633 69.5826 52.52 69.7826 52.52C69.9626 52.52 70.1093 52.4767 70.2226 52.39C70.3426 52.2967 70.4026 52.17 70.4026 52.01C70.4026 51.8033 70.306 51.6433 70.1126 51.53C69.9193 51.4167 69.606 51.29 69.1726 51.15C68.7126 50.9967 68.3393 50.85 68.0526 50.71C67.7726 50.5633 67.526 50.3533 67.3126 50.08C67.106 49.8 67.0026 49.4367 67.0026 48.99C67.0026 48.5367 67.116 48.15 67.3426 47.83C67.5693 47.5033 67.8826 47.2567 68.2826 47.09C68.6826 46.9233 69.136 46.84 69.6426 46.84C70.4626 46.84 71.116 47.0333 71.6026 47.42C72.096 47.8 72.3593 48.3367 72.3926 49.03H70.2626C70.256 48.8167 70.1893 48.6567 70.0626 48.55C69.9426 48.4433 69.786 48.39 69.5926 48.39C69.446 48.39 69.326 48.4333 69.2326 48.52C69.1393 48.6067 69.0926 48.73 69.0926 48.89C69.0926 49.0233 69.1426 49.14 69.2426 49.24C69.3493 49.3333 69.4793 49.4167 69.6326 49.49C69.786 49.5567 70.0126 49.6433 70.3126 49.75C70.7593 49.9033 71.126 50.0567 71.4126 50.21C71.706 50.3567 71.956 50.5667 72.1626 50.84C72.376 51.1067 72.4826 51.4467 72.4826 51.86C72.4826 52.28 72.376 52.6567 72.1626 52.99C71.956 53.3233 71.6526 53.5867 71.2526 53.78C70.8593 53.9733 70.3926 54.07 69.8526 54.07Z" fill="white"/>
</g>
</svg>
