<svg width="33" height="33" viewBox="0 0 33 33" fill="none" xmlns="http://www.w3.org/2000/svg">
    <rect width="33" height="33.0001" rx="6" fill="#F3F4F6"/>
    <g clip-path="url(#clip0_8258_22015)">
    <path d="M16.385 16.2073C17.4438 16.2073 18.3607 15.8275 19.1099 15.0782C19.859 14.3291 20.2388 13.4125 20.2388 12.3535C20.2388 11.2949 19.859 10.3782 19.1097 9.62878C18.3605 8.87976 17.4437 8.5 16.385 8.5C15.326 8.5 14.4094 8.87976 13.6603 9.62891C12.9111 10.3781 12.5312 11.2948 12.5312 12.3535C12.5312 13.4125 12.9111 14.3292 13.6604 15.0784C14.4097 15.8274 15.3264 16.2073 16.385 16.2073Z" fill="#606C85"/>
    <path d="M23.129 20.8031C23.1074 20.4913 23.0637 20.1512 22.9994 19.7921C22.9344 19.4303 22.8508 19.0883 22.7507 18.7756C22.6473 18.4525 22.5067 18.1334 22.3329 17.8276C22.1525 17.5103 21.9406 17.2339 21.7028 17.0065C21.4541 16.7686 21.1497 16.5773 20.7976 16.4377C20.4468 16.299 20.058 16.2286 19.6421 16.2286C19.4788 16.2286 19.3208 16.2957 19.0157 16.4943C18.828 16.6167 18.6084 16.7583 18.3633 16.9149C18.1537 17.0485 17.8698 17.1736 17.519 17.2869C17.1769 17.3976 16.8295 17.4537 16.4866 17.4537C16.1437 17.4537 15.7964 17.3976 15.4539 17.2869C15.1035 17.1737 14.8196 17.0486 14.6102 16.915C14.3674 16.7599 14.1477 16.6183 13.9572 16.4941C13.6525 16.2955 13.4944 16.2285 13.3311 16.2285C12.915 16.2285 12.5264 16.299 12.1757 16.4379C11.8239 16.5771 11.5193 16.7684 11.2704 17.0066C11.0327 17.2341 10.8207 17.5104 10.6405 17.8276C10.4668 18.1334 10.3262 18.4524 10.2227 18.7758C10.1227 19.0884 10.0391 19.4303 9.97412 19.7921C9.90979 20.1508 9.86609 20.491 9.84448 20.8035C9.82324 21.1096 9.8125 21.4274 9.8125 21.7483C9.8125 22.5835 10.078 23.2596 10.6016 23.7583C11.1187 24.2504 11.8029 24.5 12.6349 24.5H20.339C21.171 24.5 21.855 24.2505 22.3722 23.7583C22.8959 23.26 23.1614 22.5837 23.1614 21.7482C23.1613 21.4258 23.1504 21.1078 23.129 20.8031Z" fill="#606C85"/>
    </g>
    <defs>
    <clipPath id="clip0_8258_22015">
    <rect width="16" height="16.0001" fill="white" transform="translate(8.5 8.5)"/>
    </clipPath>
    </defs>
    </svg>
    