<svg width="30" height="31" viewBox="0 0 30 31" fill="none" xmlns="http://www.w3.org/2000/svg">
    <g clip-path="url(#clip0_5760_38437)">
    <path d="M16.9694 6.2832H3.28228C1.47702 6.2832 0 7.76023 0 9.56548V20.6267C0 22.432 1.47702 23.909 3.28228 23.909H16.9694C18.7746 23.909 20.2516 22.432 20.2516 20.6267V9.56548C20.2516 7.7274 18.7746 6.2832 16.9694 6.2832Z" fill="#C3B8EF"/>
    <path d="M27.5729 8.08802C27.3759 8.12085 27.179 8.21932 27.0149 8.31778L21.8945 11.2718V18.8867L27.0477 21.8408C27.9996 22.3987 29.1812 22.0705 29.7392 21.1187C29.9033 20.8233 30.0018 20.495 30.0018 20.134V9.99174C30.0018 8.7773 28.853 7.79262 27.5729 8.08802Z" fill="#C3B8EF"/>
    </g>
    <defs>
    <clipPath id="clip0_5760_38437">
    <rect width="30" height="30" fill="white" transform="translate(0 0.0957031)"/>
    </clipPath>
    </defs>
    </svg>
    