<svg width="80" height="80" viewBox="0 0 80 80" fill="none" xmlns="http://www.w3.org/2000/svg">
<rect width="80" height="80" rx="40" fill="#D9D4F0"/>
<g clip-path="url(#clip0_6048_40018)">
<path d="M45.7812 31.7188C44.2735 31.7188 43.0469 30.4921 43.0469 28.9844V20H29.0625C26.6932 20 24.7656 21.9276 24.7656 24.2969V55.7031C24.7656 58.0724 26.6932 60 29.0625 60H50.9375C53.3068 60 55.2344 58.0724 55.2344 55.7031V31.7188H45.7812ZM31.1719 48.125H36.8531C37.5003 48.125 38.025 48.6497 38.025 49.2969C38.025 49.9441 37.5003 50.4688 36.8531 50.4688H31.1719C30.5247 50.4688 30 49.9441 30 49.2969C30 48.6497 30.5247 48.125 31.1719 48.125ZM30 43.0469C30 42.3997 30.5247 41.875 31.1719 41.875H48.3594C49.0066 41.875 49.5312 42.3997 49.5312 43.0469C49.5312 43.6941 49.0066 44.2188 48.3594 44.2188H31.1719C30.5247 44.2188 30 43.6941 30 43.0469ZM48.3594 35.625C49.0066 35.625 49.5312 36.1497 49.5312 36.7969C49.5312 37.4441 49.0066 37.9688 48.3594 37.9688H31.1719C30.5247 37.9688 30 37.4441 30 36.7969C30 36.1497 30.5247 35.625 31.1719 35.625H48.3594Z" fill="#998FC7"/>
<path d="M45.3906 28.9827C45.3906 29.1981 45.5659 29.3734 45.7812 29.3734H54.712C54.4977 28.9776 54.2219 28.6141 53.8905 28.3005L46.3575 21.1738C46.0652 20.8973 45.7395 20.6666 45.3907 20.4844V28.9827H45.3906Z" fill="#998FC7"/>
</g>
<rect x="49" y="1" width="30" height="30" rx="15" fill="#D9D4F0"/>
<rect x="49" y="1" width="30" height="30" rx="15" stroke="white" stroke-width="2"/>
<path d="M58.56 15.52C58.56 13.2133 58.9733 11.4067 59.8 10.1C60.64 8.79333 62.0267 8.14 63.96 8.14C65.8933 8.14 67.2733 8.79333 68.1 10.1C68.94 11.4067 69.36 13.2133 69.36 15.52C69.36 17.84 68.94 19.66 68.1 20.98C67.2733 22.3 65.8933 22.96 63.96 22.96C62.0267 22.96 60.64 22.3 59.8 20.98C58.9733 19.66 58.56 17.84 58.56 15.52ZM66.6 15.52C66.6 14.5333 66.5333 13.7067 66.4 13.04C66.28 12.36 66.0267 11.8067 65.64 11.38C65.2667 10.9533 64.7067 10.74 63.96 10.74C63.2133 10.74 62.6467 10.9533 62.26 11.38C61.8867 11.8067 61.6333 12.36 61.5 13.04C61.38 13.7067 61.32 14.5333 61.32 15.52C61.32 16.5333 61.38 17.3867 61.5 18.08C61.62 18.76 61.8733 19.3133 62.26 19.74C62.6467 20.1533 63.2133 20.36 63.96 20.36C64.7067 20.36 65.2733 20.1533 65.66 19.74C66.0467 19.3133 66.3 18.76 66.42 18.08C66.54 17.3867 66.6 16.5333 66.6 15.52Z" fill="#998FC7"/>
<defs>
<clipPath id="clip0_6048_40018">
<rect width="40" height="40" fill="white" transform="translate(20 20)"/>
</clipPath>
</defs>
</svg>
