<svg width="20" height="20" viewBox="0 0 14 14" fill="none" xmlns="http://www.w3.org/2000/svg">
<path fill-rule="evenodd" clip-rule="evenodd" d="M2.59711 9.24219C2.90639 9.24219 3.15711 9.4929 3.15711 9.80219V10.9222C3.15711 11.0707 3.2161 11.2131 3.32114 11.3182C3.42615 11.4232 3.56858 11.4822 3.71711 11.4822H10.4371C10.5856 11.4822 10.728 11.4232 10.8331 11.3182C10.9381 11.2131 10.9971 11.0707 10.9971 10.9222V9.80219C10.9971 9.4929 11.2478 9.24219 11.5571 9.24219C11.8664 9.24219 12.1171 9.4929 12.1171 9.80219V10.9222C12.1171 11.3677 11.9401 11.7951 11.625 12.1101C11.31 12.4252 10.8826 12.6022 10.4371 12.6022H3.71711C3.27156 12.6022 2.84423 12.4252 2.52916 12.1101C2.21411 11.7951 2.03711 11.3677 2.03711 10.9222V9.80219C2.03711 9.4929 2.28783 9.24219 2.59711 9.24219Z" fill="#3B2B8C"/>
<path fill-rule="evenodd" clip-rule="evenodd" d="M3.88082 6.04684C4.09951 5.82814 4.45408 5.82814 4.67278 6.04684L7.07679 8.45086L9.48081 6.04684C9.69949 5.82814 10.0541 5.82814 10.2728 6.04684C10.4915 6.26552 10.4915 6.62011 10.2728 6.83879L7.47276 9.63879C7.25408 9.85747 6.89949 9.85747 6.68081 9.63879L3.88082 6.83879C3.66212 6.62011 3.66212 6.26552 3.88082 6.04684Z" fill="#3B2B8C"/>
<path fill-rule="evenodd" clip-rule="evenodd" d="M7.07758 1.96094C7.38687 1.96094 7.63758 2.21166 7.63758 2.52094V9.24094C7.63758 9.55023 7.38687 9.80094 7.07758 9.80094C6.76829 9.80094 6.51758 9.55023 6.51758 9.24094V2.52094C6.51758 2.21166 6.76829 1.96094 7.07758 1.96094Z" fill="#3B2B8C"/>
</svg>
