<svg width="72" height="70" viewBox="0 0 72 70" fill="none" xmlns="http://www.w3.org/2000/svg">
<rect x="0.8125" width="70.375" height="70" rx="35" fill="#FFEEEE"/>
<path d="M45.8438 23.75H40.6875V22.8125C40.6875 21.2592 39.4283 20 37.875 20H34.125C32.5717 20 31.3125 21.2592 31.3125 22.8125V23.75H26.1562C24.8619 23.75 23.8125 24.7994 23.8125 26.0938V27.9688C23.8125 28.4865 24.2322 28.9062 24.75 28.9062H47.25C47.7678 28.9062 48.1875 28.4865 48.1875 27.9688V26.0938C48.1875 24.7994 47.1381 23.75 45.8438 23.75ZM33.1875 22.8125C33.1875 22.2957 33.6082 21.875 34.125 21.875H37.875C38.3918 21.875 38.8125 22.2957 38.8125 22.8125V23.75H33.1875V22.8125Z" fill="#F31919"/>
<path d="M25.5918 30.7812C25.4245 30.7812 25.2912 30.9211 25.2992 31.0882L26.0726 47.3211C26.1441 48.8234 27.3781 50 28.8816 50H43.1187C44.6222 50 45.8562 48.8234 45.9277 47.3211L46.7011 31.0882C46.7091 30.9211 46.5758 30.7812 46.4085 30.7812H25.5918ZM39.7501 33.125C39.7501 32.607 40.1697 32.1875 40.6876 32.1875C41.2056 32.1875 41.6251 32.607 41.6251 33.125V45.3125C41.6251 45.8305 41.2056 46.25 40.6876 46.25C40.1697 46.25 39.7501 45.8305 39.7501 45.3125V33.125ZM35.0626 33.125C35.0626 32.607 35.4822 32.1875 36.0001 32.1875C36.5181 32.1875 36.9376 32.607 36.9376 33.125V45.3125C36.9376 45.8305 36.5181 46.25 36.0001 46.25C35.4822 46.25 35.0626 45.8305 35.0626 45.3125V33.125ZM30.3751 33.125C30.3751 32.607 30.7947 32.1875 31.3126 32.1875C31.8306 32.1875 32.2501 32.607 32.2501 33.125V45.3125C32.2501 45.8305 31.8306 46.25 31.3126 46.25C30.7947 46.25 30.3751 45.8305 30.3751 45.3125V33.125Z" fill="#F31919"/>
</svg>
