<svg width="16" height="16" viewBox="0 0 16 16" fill="none" xmlns="http://www.w3.org/2000/svg">
<path d="M12.667 1.49951C13.6792 1.49973 14.5006 2.32037 14.501 3.33252V12.6665C14.501 13.6789 13.6794 14.5003 12.667 14.5005H3.33301C2.32063 14.5003 1.5 13.6789 1.5 12.6665V3.33252C1.50034 2.32037 2.32083 1.49974 3.33301 1.49951H12.667ZM3.33301 2.49951C2.87312 2.49974 2.50034 2.87266 2.5 3.33252V12.6665C2.5 13.1267 2.87291 13.5003 3.33301 13.5005H12.667C13.1271 13.5003 13.501 13.1267 13.501 12.6665V3.33252C13.5006 2.87265 13.1269 2.49973 12.667 2.49951H3.33301ZM9.63184 10.6001H8.1875L7.85254 9.61084H5.7627L5.42773 10.6001H3.99902L6.02539 5.00049H7.60547L9.63184 10.6001ZM11.6123 10.6001H10.248V5.00049H11.6123V10.6001ZM6.12109 8.55811H7.50098L6.80762 6.50732L6.12109 8.55811Z" fill="url(#paint0_linear_857_3324)"/>
<defs>
<linearGradient id="paint0_linear_857_3324" x1="1.5" y1="8" x2="14.501" y2="8" gradientUnits="userSpaceOnUse">
<stop stop-color="#01D033"/>
<stop offset="1" stop-color="#00FDE9"/>
</linearGradient>
</defs>
</svg>
