<svg width="44" height="44" viewBox="0 0 44 44" fill="none" xmlns="http://www.w3.org/2000/svg">
<rect width="44" height="44" rx="8" fill="#51CBFF"/>
<rect width="44" height="44" rx="8" fill="white" fill-opacity="0.8"/>
<g clip-path="url(#clip0_1_1335)">
<path d="M30 14H14C12.89 14 12.01 14.89 12.01 16L12 28C12 29.11 12.89 30 14 30H30C31.11 30 32 29.11 32 28V16C32 14.89 31.11 14 30 14ZM30 28H14V22H30V28ZM30 18H14V16H30V18Z" fill="#51CBFF"/>
<path d="M30 14H14C12.89 14 12.01 14.89 12.01 16L12 28C12 29.11 12.89 30 14 30H30C31.11 30 32 29.11 32 28V16C32 14.89 31.11 14 30 14ZM30 28H14V22H30V28ZM30 18H14V16H30V18Z" fill="black" fill-opacity="0.4"/>
</g>
<defs>
<clipPath id="clip0_1_1335">
<rect width="24" height="24" fill="white" transform="translate(10 10)"/>
</clipPath>
</defs>
</svg>
