<svg width="35" height="24" viewBox="0 0 35 24" fill="none" xmlns="http://www.w3.org/2000/svg">
<rect x="0.5" y="0.5" width="34" height="23" rx="3.5" fill="white" stroke="#EEEEEE"/>
<path d="M19.045 19.5C22.9425 19.5188 26.5 16.2922 26.5 12.367C26.5 8.07499 22.9425 5.1079 19.045 5.1095H15.6906C11.7467 5.1079 8.5 8.07579 8.5 12.367C8.5 16.293 11.7467 19.5188 15.6906 19.5H19.045Z" fill="#0079BE"/>
<path d="M15.7064 5.70422C12.1021 5.70543 9.18187 8.65329 9.18066 12.2917C9.18187 15.9296 12.1021 18.8775 15.7064 18.8787C19.3111 18.8775 22.2326 15.9296 22.233 12.2917C22.2326 8.65329 19.3115 5.70543 15.7064 5.70422ZM11.5702 12.2917C11.5694 11.4504 11.8225 10.6286 12.2962 9.93342C12.77 9.23829 13.4424 8.70225 14.2257 8.39535V16.1876C13.4424 15.8809 12.7698 15.3449 12.2961 14.6499C11.8223 13.9548 11.5693 13.1329 11.5702 12.2917ZM17.1868 16.1892V8.39495C17.9706 8.70141 18.6436 9.23741 19.1177 9.93277C19.5918 10.6281 19.8449 11.4505 19.8438 12.2921C19.8447 13.1336 19.5916 13.9559 19.1175 14.6512C18.6434 15.3465 17.9705 15.8826 17.1868 16.1892Z" fill="white"/>
<path d="M19.045 19.5C22.9425 19.5188 26.5 16.2922 26.5 12.367C26.5 8.07499 22.9425 5.1079 19.045 5.1095H15.6906C11.7467 5.1079 8.5 8.07579 8.5 12.367C8.5 16.293 11.7467 19.5188 15.6906 19.5H19.045Z" fill="#0079BE"/>
<path d="M15.7064 5.70422C12.1021 5.70543 9.18187 8.65329 9.18066 12.2917C9.18187 15.9296 12.1021 18.8775 15.7064 18.8787C19.3111 18.8775 22.2326 15.9296 22.233 12.2917C22.2326 8.65329 19.3115 5.70543 15.7064 5.70422ZM11.5702 12.2917C11.5694 11.4504 11.8225 10.6286 12.2962 9.93342C12.77 9.23829 13.4424 8.70225 14.2257 8.39535V16.1876C13.4424 15.8809 12.7698 15.3449 12.2961 14.6499C11.8223 13.9548 11.5693 13.1329 11.5702 12.2917ZM17.1868 16.1892V8.39495C17.9706 8.70141 18.6436 9.23741 19.1177 9.93277C19.5918 10.6281 19.8449 11.4505 19.8438 12.2921C19.8447 13.1336 19.5916 13.9559 19.1175 14.6512C18.6434 15.3465 17.9705 15.8826 17.1868 16.1892Z" fill="white"/>
</svg>
