<svg width="35" height="24" viewBox="0 0 35 24" fill="none" xmlns="http://www.w3.org/2000/svg">
<rect x="0.5" y="0.5" width="34" height="23" rx="3.5" fill="white" stroke="#EEEEEE"/>
<path d="M14.7344 23.5L34.4844 17.75V18.5C34.4844 21.2614 32.2458 23.5 29.4844 23.5H14.7344Z" fill="#FD6020"/>
<path d="M14.9258 9.6113C15.306 9.6113 15.7405 9.66501 16.0664 9.87986V10.9541C15.7948 10.6318 15.3603 10.417 14.9258 10.417C14.0567 10.4708 13.3501 11.2226 13.4043 12.082V12.1894C13.4043 13.0491 14.1112 13.6943 14.9805 13.6943C15.4148 13.6942 15.7948 13.4793 16.0664 13.1572V14.2314C15.6864 14.3925 15.3064 14.4999 14.8721 14.5C13.5139 14.5 12.4268 13.3715 12.4268 12.0283C12.4269 10.6315 13.5134 9.50394 14.9258 9.6113ZM23.4551 12.834L24.7598 9.6113H25.7373L23.7275 14.5H23.2383L21.2275 9.6113H22.2061L23.4551 12.834ZM10.5801 9.5029C11.0689 9.503 11.5573 9.71874 11.9375 10.041L11.4492 10.6855C11.2319 10.4706 10.9601 10.3096 10.6885 10.3095C10.3625 10.2558 10.0905 10.5243 10.0361 10.8467C10.0362 11.1152 10.2 11.2226 10.7432 11.4375C11.8291 11.8671 12.1009 12.1896 12.1553 12.834V12.9961C12.1007 13.8555 11.3945 14.5 10.5254 14.4463C9.87353 14.4463 9.22151 14.124 8.89551 13.5332L9.49316 12.9424C9.65619 13.3181 10.0364 13.5867 10.4707 13.5869H10.5254C10.8512 13.5869 11.1775 13.2645 11.1777 12.8886C11.1777 12.6737 11.0683 12.5117 10.9053 12.4043C10.6881 12.2969 10.471 12.1894 10.2539 12.1357C9.38471 11.8671 9.11331 11.4913 9.11328 10.8467V10.7929C9.16761 10.0408 9.81949 9.44918 10.5801 9.5029ZM4.92969 9.6113C6.23352 9.66506 7.26526 10.7398 7.21094 12.0293C7.21071 12.7274 6.88489 13.3721 6.3418 13.8554C5.85296 14.2313 5.25561 14.4462 4.6582 14.3926H3.2998V9.6113H4.92969ZM8.51562 14.3926H7.5918V9.6113H8.51562V14.3926ZM28.7793 10.417H27.0957V11.4912H28.7256V12.2968H27.0957V13.5869H28.7793V14.3926H26.1719V9.6113H28.7793V10.417ZM30.7354 9.6113C31.8216 9.61136 32.4188 10.0948 32.4189 11.0078C32.473 11.706 31.9847 12.2977 31.333 12.4052L32.7998 14.3926H31.6592L30.4092 12.459H30.3008V14.3926H29.377V9.6113H30.7354ZM4.49512 10.417H4.22363V13.5869H4.49512C4.92951 13.6405 5.41821 13.4793 5.74414 13.2109C6.06994 12.8887 6.23323 12.4588 6.2334 11.9756C6.2334 11.5458 6.06995 11.1153 5.74414 10.7929C5.41821 10.5245 4.92952 10.3633 4.49512 10.417ZM30.3008 11.8144H30.5723C31.1696 11.8144 31.4412 11.5447 31.4414 11.0615C31.4412 10.632 31.1696 10.3633 30.5723 10.3633H30.3008V11.8144Z" fill="#111111"/>
<path fill-rule="evenodd" clip-rule="evenodd" d="M18.8379 9.5C17.4798 9.5 16.3389 10.5745 16.3389 11.9714C16.3389 13.3146 17.4254 14.4429 18.8379 14.4966C20.2505 14.5503 21.337 13.4221 21.3914 12.0252C21.337 10.6283 20.2505 9.5 18.8379 9.5V9.5Z" fill="#FD6020"/>
</svg>
