<svg width="35" height="24" viewBox="0 0 35 24" fill="none" xmlns="http://www.w3.org/2000/svg">
<rect x="0.5" y="0.5" width="34" height="23" rx="3.5" fill="white"/>
<rect x="0.5" y="0.5" width="34" height="23" rx="3.5" stroke="#EEEEEE"/>
<path d="M17.9744 13.561L22.3494 5.98145L24.7341 7.35841C26.2738 8.24718 26.7995 10.2125 25.9107 11.7522L23.4447 16.0208C22.8877 16.9847 21.6609 17.3101 20.697 16.7593L18.4876 15.4825C17.8179 15.0882 17.5863 14.2307 17.9744 13.561Z" fill="url(#paint0_linear_1_1379)"/>
<path d="M17.5093 8.29757L12.0703 17.7235L14.455 19.1005C15.9947 19.9893 17.96 19.4635 18.8487 17.9238L22.3788 11.8088C22.9358 10.845 22.6041 9.6182 21.6402 9.06116L19.4246 7.78433C18.7549 7.39628 17.8974 7.62786 17.5093 8.29757Z" fill="#FDBD00"/>
<path d="M22.3493 5.98192L20.6657 5.00553C18.7442 3.89769 16.2844 4.55488 15.1703 6.47638L12.0408 11.8966C11.4838 12.8605 11.8155 14.0873 12.7794 14.6443L14.4631 15.6207C15.4269 16.1777 16.6537 15.846 17.2107 14.8821L20.9473 8.41039C21.7234 7.06472 23.4384 6.60782 24.7841 7.38392" fill="#2DA94F"/>
<path d="M15.6562 8.06571L13.7973 6.99543C12.9648 6.51975 11.9071 6.80141 11.4314 7.62759L9.19067 11.4831C8.0891 13.3796 8.74628 15.808 10.649 16.9096L12.0635 17.7233L13.7847 18.7122L14.5295 19.144C13.2089 18.2553 12.7896 16.484 13.597 15.0882L14.1728 14.0931L16.2883 10.4379C16.7702 9.59915 16.4823 8.54139 15.6562 8.06571Z" fill="url(#paint1_linear_1_1379)"/>
<defs>
<linearGradient id="paint0_linear_1_1379" x1="19.0711" y1="10.4887" x2="25.5639" y2="12.8518" gradientUnits="userSpaceOnUse">
<stop offset="0.2" stop-color="#D93025"/>
<stop offset="0.6" stop-color="#EA4335"/>
</linearGradient>
<linearGradient id="paint1_linear_1_1379" x1="9.21171" y1="11.2534" x2="16.4447" y2="13.886" gradientUnits="userSpaceOnUse">
<stop offset="0.2" stop-color="#4285F4"/>
<stop offset="0.8" stop-color="#1B74E8"/>
</linearGradient>
</defs>
</svg>
