<svg width="16" height="16" viewBox="0 0 16 16" fill="none" xmlns="http://www.w3.org/2000/svg">
<path d="M2.10645 11.5098C2.3344 11.5563 2.50586 11.7583 2.50586 12C2.50586 12.2417 2.3344 12.4437 2.10645 12.4902L2.00586 12.5H2C1.72386 12.5 1.5 12.2761 1.5 12C1.5 11.7239 1.72386 11.5 2 11.5H2.00586L2.10645 11.5098ZM14.1016 11.5098C14.3294 11.5564 14.501 11.7584 14.501 12C14.501 12.2416 14.3294 12.4436 14.1016 12.4902L14.001 12.5H5.33398C5.05784 12.5 4.83398 12.2761 4.83398 12C4.83398 11.7239 5.05784 11.5 5.33398 11.5H14.001L14.1016 11.5098ZM2.10645 7.50977C2.3344 7.5563 2.50586 7.7583 2.50586 8C2.50586 8.2417 2.3344 8.4437 2.10645 8.49023L2.00586 8.5H2C1.72386 8.5 1.5 8.27614 1.5 8C1.5 7.72386 1.72386 7.5 2 7.5H2.00586L2.10645 7.50977ZM14.1016 7.50977C14.3294 7.55641 14.501 7.7584 14.501 8C14.501 8.2416 14.3294 8.44359 14.1016 8.49023L14.001 8.5H5.33398C5.05784 8.5 4.83398 8.27614 4.83398 8C4.83398 7.72386 5.05784 7.5 5.33398 7.5H14.001L14.1016 7.50977ZM2.10645 3.50977C2.3344 3.5563 2.50586 3.7583 2.50586 4C2.50586 4.2417 2.3344 4.4437 2.10645 4.49023L2.00586 4.5H2C1.72386 4.5 1.5 4.27614 1.5 4C1.5 3.72386 1.72386 3.5 2 3.5H2.00586L2.10645 3.50977ZM14.1016 3.50977C14.3294 3.55641 14.501 3.7584 14.501 4C14.501 4.2416 14.3294 4.44359 14.1016 4.49023L14.001 4.5H5.33398C5.05784 4.5 4.83398 4.27614 4.83398 4C4.83398 3.72386 5.05784 3.5 5.33398 3.5H14.001L14.1016 3.50977Z" fill="url(#paint0_linear_857_3314)"/>
<defs>
<linearGradient id="paint0_linear_857_3314" x1="1.5" y1="8" x2="14.501" y2="8" gradientUnits="userSpaceOnUse">
<stop stop-color="#01D033"/>
<stop offset="1" stop-color="#00FDE9"/>
</linearGradient>
</defs>
</svg>
