<svg width="35" height="24" viewBox="0 0 35 24" fill="none" xmlns="http://www.w3.org/2000/svg">
<rect x="0.5" y="0.5" width="34" height="23" rx="3.5" fill="white" stroke="#EEEEEE"/>
<path d="M22.1758 5C25.9444 5 29 8.09091 29 11.9033C28.9998 15.7156 25.9443 18.8057 22.1758 18.8057C20.4863 18.8056 18.9416 18.1832 17.75 17.1543C16.5584 18.1832 15.0137 18.8056 13.3242 18.8057C9.55567 18.8057 6.50018 15.7156 6.5 11.9033C6.5 8.09091 9.55555 5 13.3242 5C15.0134 5.00011 16.5584 5.62186 17.75 6.65039C18.9416 5.62186 20.4866 5.00011 22.1758 5Z" fill="#ED0006"/>
<path d="M22.1758 5C25.9444 5 29 8.09091 29 11.9033C28.9998 15.7156 25.9443 18.8057 22.1758 18.8057C20.4863 18.8056 18.9416 18.1832 17.75 17.1543C19.2164 15.8882 20.1474 14.0064 20.1475 11.9033C20.1475 9.79982 19.2168 7.91652 17.75 6.65039C18.9416 5.62186 20.4866 5.00011 22.1758 5Z" fill="#F9A000"/>
<path d="M17.75 6.651C19.2166 7.91712 20.1475 9.79961 20.1475 11.903C20.1475 14.0061 19.2163 15.8878 17.75 17.1539C16.2837 15.8878 15.3525 14.006 15.3525 11.903C15.3525 9.79964 16.2834 7.91712 17.75 6.651Z" fill="#FF5E00"/>
</svg>
