<svg width="35" height="24" viewBox="0 0 35 24" fill="none" xmlns="http://www.w3.org/2000/svg">
<rect x="0.5" y="0.5" width="34" height="23" rx="3.5" fill="white"/>
<rect x="0.5" y="0.5" width="34" height="23" rx="3.5" stroke="#EEEEEE"/>
<g clip-path="url(#clip0_1_1366)">
<path d="M29.91 10.3641C29.6832 9.70298 29.0651 9.22825 28.3392 9.22825H28.324C27.8521 9.22825 27.4267 9.4285 27.124 9.74997C26.8207 9.4285 26.3954 9.22825 25.924 9.22825H25.9088C25.494 9.22825 25.1148 9.38311 24.8235 9.63943V9.50914C24.8136 9.37937 24.7088 9.27738 24.5795 9.27738H23.4659C23.3297 9.27738 23.2197 9.38952 23.2197 9.5289V15.694C23.2197 15.8334 23.3297 15.9455 23.4659 15.9455H24.5795C24.7036 15.9455 24.8057 15.851 24.822 15.7287L24.8215 11.3029C24.8215 11.2874 24.822 11.273 24.8235 11.2585C24.8414 11.061 24.9833 10.8986 25.2075 10.8783H25.2489H25.3657H25.4128C25.5066 10.8869 25.5857 10.9205 25.648 10.9712C25.7449 11.0497 25.7988 11.1704 25.7988 11.3029L25.803 15.7068C25.803 15.8462 25.9135 15.9589 26.0492 15.9589H27.1628C27.2942 15.9589 27.4011 15.8521 27.4074 15.7191L27.4068 11.297C27.4063 11.1517 27.4723 11.0204 27.5881 10.9424C27.6452 10.905 27.7138 10.8799 27.7929 10.8725H27.8342H27.9511H27.9982C28.2391 10.8938 28.3847 11.0802 28.3842 11.297L28.3884 15.6951C28.3884 15.8344 28.4989 15.9466 28.6346 15.9466H29.7481C29.8838 15.9466 29.9943 15.8344 29.9943 15.6951V10.9648C29.9943 10.6423 29.9587 10.5051 29.91 10.3641Z" fill="#54C1F0"/>
<path d="M22.3659 9.29193H21.729V8.23994C21.729 8.23887 21.729 8.23781 21.729 8.23674C21.729 8.11018 21.6284 8.00765 21.5043 8.00765C21.4896 8.00765 21.4755 8.00979 21.4619 8.01246C20.7558 8.21004 20.8972 9.20703 19.6082 9.29193H19.5794H19.483C19.4642 9.29193 19.4464 9.29461 19.4291 9.29834C19.3191 9.32344 19.2363 9.4233 19.2363 9.54292V10.6782C19.2363 10.8165 19.3468 10.9292 19.483 10.9292H20.155L20.154 15.7433C20.154 15.8805 20.2629 15.9916 20.3976 15.9916H21.4985C21.6326 15.9916 21.7416 15.8805 21.7416 15.7433L21.7421 10.9292H22.3659C22.5016 10.9292 22.6121 10.8165 22.6121 10.6782V9.54292C22.6121 9.40461 22.5016 9.29193 22.3659 9.29193Z" fill="#54C1F0"/>
<path d="M18.3639 9.29247H17.2504C17.1147 9.29247 17.0047 9.40514 17.0047 9.54345V11.8909C17.0021 12.0362 16.8869 12.1526 16.7439 12.1526H16.2777C16.1332 12.1526 16.0164 12.0341 16.0164 11.8867L16.0122 9.54345C16.0122 9.40514 15.9016 9.29247 15.766 9.29247H14.6524C14.5162 9.29247 14.4062 9.40514 14.4062 9.54345V12.1163C14.4062 13.0935 15.0898 13.7904 16.0488 13.7904C16.0488 13.7904 16.7685 13.7904 16.7905 13.7947C16.9204 13.8096 17.0215 13.9207 17.0215 14.0574C17.0215 14.1925 16.9225 14.303 16.7942 14.3196C16.7879 14.3207 16.7821 14.3223 16.7753 14.3233L15.1469 14.3292C15.0107 14.3292 14.9007 14.4419 14.9007 14.5802V15.715C14.9007 15.8538 15.0107 15.9659 15.1469 15.9659H16.9675C17.9271 15.9659 18.6101 15.2696 18.6101 14.2918V9.54345C18.6101 9.40514 18.5001 9.29247 18.3639 9.29247Z" fill="#20247E"/>
<path d="M7.58632 11.3728V11.9026V12.0734C7.58632 12.2203 7.46952 12.3399 7.32548 12.3399L6.6189 12.3404V10.9365H7.32548C7.46952 10.9365 7.58632 11.0551 7.58632 11.2025V11.3728ZM7.68427 9.29233H5.25025C5.11669 9.29233 5.00879 9.40287 5.00879 9.53851V10.6508C5.00879 10.653 5.00931 10.6551 5.00931 10.6572C5.00931 10.6626 5.00879 10.6679 5.00879 10.6727V14.2404V15.7073C5.00879 15.8441 5.10936 15.9557 5.23402 15.9589H5.25497H6.36853C6.50419 15.9589 6.61471 15.8467 6.61471 15.7079L6.6189 13.9825H7.68427C8.57575 13.9825 9.19695 13.3518 9.19695 12.4392V10.8377C9.19695 9.92513 8.57575 9.29233 7.68427 9.29233Z" fill="#20247E"/>
<path d="M12.2009 14.0385V14.2158C12.2009 14.2302 12.1988 14.2441 12.1967 14.2575C12.1941 14.2703 12.1904 14.2826 12.1862 14.2943C12.1516 14.3936 12.0542 14.4657 11.9385 14.4657H11.4749C11.3303 14.4657 11.2125 14.3536 11.2125 14.2158V14.0017C11.2125 13.999 11.212 13.9963 11.212 13.9937L11.2125 13.4239V13.4228V13.3598V13.2455L11.213 13.2439C11.2135 13.1067 11.3303 12.9956 11.4749 12.9956H11.9385C12.0835 12.9956 12.2009 13.1072 12.2009 13.2455V14.0385ZM12.0238 9.29921H10.4787C10.342 9.29921 10.2315 9.40494 10.2315 9.5347V9.97633C10.2315 9.979 10.232 9.9822 10.232 9.98487C10.232 9.98808 10.2315 9.99128 10.2315 9.99448V10.5995C10.2315 10.7368 10.3488 10.8489 10.4933 10.8489H11.9646C12.0809 10.8676 12.1731 10.9541 12.1862 11.0892V11.2355C12.1731 11.3642 12.082 11.4582 11.9709 11.4689H11.2423C10.2734 11.4689 9.58301 12.1252 9.58301 13.0469V14.3333V14.3669C9.58301 15.2833 10.1765 15.9353 11.1386 15.9353H13.1578C13.5203 15.9353 13.8141 15.6555 13.8141 15.311V11.0032C13.8141 9.95871 13.2861 9.29921 12.0238 9.29921Z" fill="#20247E"/>
</g>
<defs>
<clipPath id="clip0_1_1366">
<rect width="25" height="8" fill="white" transform="translate(5 8)"/>
</clipPath>
</defs>
</svg>
