<svg width="120" height="120" viewBox="0 0 120 120" fill="none" xmlns="http://www.w3.org/2000/svg">
<rect width="120" height="120" rx="60" fill="#FFC226"/>
<g clip-path="url(#clip0_33_1662)">
<path d="M60.6665 30C77.2331 30 90.6665 43.4333 90.6665 60C90.6665 60.2 90.6331 60.4 90.6331 60.6333L95.0998 56.1667L99.7998 60.8667L87.3331 73.3333L74.8665 60.8667L79.5665 56.1667L83.9665 60.5667C83.9665 60.3667 83.9998 60.2 83.9998 60C83.9998 47.1333 73.5331 36.6667 60.6665 36.6667C47.7998 36.6667 37.3331 47.1333 37.3331 60C37.3331 72.8667 47.7998 83.3333 60.6665 83.3333C66.9998 83.3333 72.7331 80.8 76.9331 76.7L81.6665 81.4C76.2665 86.7 68.8331 90 60.6665 90C44.0998 90 30.6665 76.5667 30.6665 60C30.6665 43.4333 44.0998 30 60.6665 30ZM53.9998 56.6667V53.3333C53.9998 49.6667 56.9998 46.6667 60.6665 46.6667C64.3331 46.6667 67.3331 49.6667 67.3331 53.3333V56.6667C69.1665 56.6667 70.6665 58.1667 70.6665 60V70C70.6665 71.8333 69.1665 73.3333 67.3331 73.3333H53.9998C52.1665 73.3333 50.6665 71.8333 50.6665 70V60C50.6665 58.1667 52.1665 56.6667 53.9998 56.6667ZM57.3331 56.6667H63.9998V53.3333C63.9998 51.5 62.4998 50 60.6665 50C58.8331 50 57.3331 51.5 57.3331 53.3333V56.6667Z" fill="#FFC226"/>
<path d="M60.6665 30C77.2331 30 90.6665 43.4333 90.6665 60C90.6665 60.2 90.6331 60.4 90.6331 60.6333L95.0998 56.1667L99.7998 60.8667L87.3331 73.3333L74.8665 60.8667L79.5665 56.1667L83.9665 60.5667C83.9665 60.3667 83.9998 60.2 83.9998 60C83.9998 47.1333 73.5331 36.6667 60.6665 36.6667C47.7998 36.6667 37.3331 47.1333 37.3331 60C37.3331 72.8667 47.7998 83.3333 60.6665 83.3333C66.9998 83.3333 72.7331 80.8 76.9331 76.7L81.6665 81.4C76.2665 86.7 68.8331 90 60.6665 90C44.0998 90 30.6665 76.5667 30.6665 60C30.6665 43.4333 44.0998 30 60.6665 30ZM53.9998 56.6667V53.3333C53.9998 49.6667 56.9998 46.6667 60.6665 46.6667C64.3331 46.6667 67.3331 49.6667 67.3331 53.3333V56.6667C69.1665 56.6667 70.6665 58.1667 70.6665 60V70C70.6665 71.8333 69.1665 73.3333 67.3331 73.3333H53.9998C52.1665 73.3333 50.6665 71.8333 50.6665 70V60C50.6665 58.1667 52.1665 56.6667 53.9998 56.6667ZM57.3331 56.6667H63.9998V53.3333C63.9998 51.5 62.4998 50 60.6665 50C58.8331 50 57.3331 51.5 57.3331 53.3333V56.6667Z" fill="black" fill-opacity="0.6"/>
</g>
<defs>
<clipPath id="clip0_33_1662">
<rect width="80" height="80" fill="white" transform="matrix(-1 0 0 1 100 20)"/>
</clipPath>
</defs>
</svg>
