<svg width="35" height="24" viewBox="0 0 35 24" fill="none" xmlns="http://www.w3.org/2000/svg">
<rect x="0.5" y="0.5" width="34" height="23" rx="3.5" fill="white"/>
<rect x="0.5" y="0.5" width="34" height="23" rx="3.5" stroke="#EEEEEE"/>
<path d="M17.5 20C21.9183 20 25.5 16.4183 25.5 12C25.5 7.58172 21.9183 4 17.5 4C13.0817 4 9.5 7.58172 9.5 12C9.5 16.4183 13.0817 20 17.5 20Z" fill="#5F259F"/>
<path d="M21.129 9.91134C21.129 9.59849 20.8609 9.33033 20.548 9.33033H19.4754L17.0173 6.51469C16.7938 6.24653 16.4363 6.15715 16.0787 6.24653L15.2296 6.51469C15.0955 6.55938 15.0508 6.73815 15.1402 6.82754L17.8218 9.37502H13.7547C13.6206 9.37502 13.5312 9.46441 13.5312 9.59849V10.0454C13.5312 10.3583 13.7994 10.6264 14.1123 10.6264H14.738V12.7717C14.738 14.3806 15.5871 15.3192 17.0173 15.3192C17.4642 15.3192 17.8218 15.2745 18.2687 15.0957V16.5259C18.2687 16.9281 18.5815 17.2409 18.9838 17.2409H19.6095C19.7435 17.2409 19.8776 17.1069 19.8776 16.9728V10.5817H20.9056C21.0396 10.5817 21.129 10.4923 21.129 10.3583V9.91134ZM18.2687 13.7549C18.0005 13.889 17.643 13.9337 17.3748 13.9337C16.6597 13.9337 16.3022 13.5761 16.3022 12.7717V10.6264H18.2687V13.7549Z" fill="white"/>
</svg>
