<svg width="44" height="44" viewBox="0 0 44 44" fill="none" xmlns="http://www.w3.org/2000/svg">
<rect width="44" height="44" rx="8" fill="#51CBFF"/>
<rect width="44" height="44" rx="8" fill="white" fill-opacity="0.8"/>
<path d="M29.9604 26.0145H28.3545L30.5879 17.9486H32.194L29.9604 26.0145Z" fill="#51CBFF"/>
<path d="M29.9604 26.0145H28.3545L30.5879 17.9486H32.194L29.9604 26.0145Z" fill="black" fill-opacity="0.4"/>
<path d="M29.1252 18.2048C29.0139 18.0513 28.8421 17.9738 28.6089 17.9738H19.778L19.3406 19.5536H20.9474V19.5527H27.3742L26.9067 21.2409H20.4797L20.4803 21.2374H18.8741L17.541 26.0498H19.148L20.0426 22.8198H27.267C27.4926 22.8198 27.705 22.7428 27.9047 22.5889C28.104 22.4349 28.2352 22.2449 28.298 22.0181L29.1926 18.7874C29.2579 18.553 29.2353 18.3584 29.1252 18.2048Z" fill="#51CBFF"/>
<path d="M29.1252 18.2048C29.0139 18.0513 28.8421 17.9738 28.6089 17.9738H19.778L19.3406 19.5536H20.9474V19.5527H27.3742L26.9067 21.2409H20.4797L20.4803 21.2374H18.8741L17.541 26.0498H19.148L20.0426 22.8198H27.267C27.4926 22.8198 27.705 22.7428 27.9047 22.5889C28.104 22.4349 28.2352 22.2449 28.298 22.0181L29.1926 18.7874C29.2579 18.553 29.2353 18.3584 29.1252 18.2048Z" fill="black" fill-opacity="0.4"/>
<path d="M16.6061 25.5116C16.5174 25.8309 16.2265 26.0519 15.895 26.0519H7.6092C7.38342 26.0519 7.21561 25.9749 7.10526 25.8212C6.995 25.6673 6.97134 25.4769 7.03439 25.2502L9.05614 17.9727H10.6636L8.85776 24.4726H15.2876L17.0934 17.9727H18.7005L16.6061 25.5116Z" fill="#51CBFF"/>
<path d="M16.6061 25.5116C16.5174 25.8309 16.2265 26.0519 15.895 26.0519H7.6092C7.38342 26.0519 7.21561 25.9749 7.10526 25.8212C6.995 25.6673 6.97134 25.4769 7.03439 25.2502L9.05614 17.9727H10.6636L8.85776 24.4726H15.2876L17.0934 17.9727H18.7005L16.6061 25.5116Z" fill="black" fill-opacity="0.4"/>
<path d="M34.9665 17.9647L36.9998 22.0081L32.7256 26.0504L34.9665 17.9647Z" fill="#51CBFF"/>
<path d="M34.9665 17.9647L36.9998 22.0081L32.7256 26.0504L34.9665 17.9647Z" fill="black" fill-opacity="0.4"/>
<path d="M33.5411 17.9647L35.5728 22.0081L31.2969 26.0504L33.5411 17.9647Z" fill="#51CBFF"/>
<path d="M33.5411 17.9647L35.5728 22.0081L31.2969 26.0504L33.5411 17.9647Z" fill="black" fill-opacity="0.4"/>
</svg>
