<svg width="29" height="30" viewBox="0 0 29 30" fill="none" xmlns="http://www.w3.org/2000/svg">
<g clip-path="url(#clip0_2765_26575)">
<path d="M13.3 11.9941H18.1V13.1941H13.3V11.9941Z" fill="#141482"/>
<path d="M13.3 14.394H18.1V15.594H13.3V14.394Z" fill="#141482"/>
<path d="M13.3 16.7939H18.1V17.9939H13.3V16.7939Z" fill="#141482"/>
<path d="M10.8999 11.9941H12.0999V13.1941H10.8999V11.9941Z" fill="#141482"/>
<path d="M10.8999 14.394H12.0999V15.594H10.8999V14.394Z" fill="#141482"/>
<path d="M10.8999 16.7939H12.0999V17.9939H10.8999V16.7939Z" fill="#141482"/>
<path d="M18.7 8.99414H10.3C9.28 8.99414 8.5 9.77414 8.5 10.7941V19.1941C8.5 20.2141 9.28 20.9941 10.3 20.9941H18.7C19.72 20.9941 20.5 20.2141 20.5 19.1941V10.7941C20.5 9.77414 19.72 8.99414 18.7 8.99414ZM19.3 19.1941C19.3 19.5541 19.06 19.7941 18.7 19.7941H10.3C9.94 19.7941 9.7 19.5541 9.7 19.1941V10.7941C9.7 10.4341 9.94 10.1941 10.3 10.1941H18.7C19.06 10.1941 19.3 10.4341 19.3 10.7941V19.1941Z" fill="#141482"/>
</g>
<defs>
<clipPath id="clip0_2765_26575">
<rect width="12" height="12" fill="white" transform="translate(8.5 8.99414)"/>
</clipPath>
</defs>
</svg>
