<svg width="25" height="24" viewBox="0 0 25 24" fill="none" xmlns="http://www.w3.org/2000/svg">
<g id="down 1">
<g id="16">
<path id="Vector" d="M12.4826 5.81236C12.6861 5.81118 12.8879 5.85019 13.0763 5.92716C13.2648 6.00412 13.4362 6.11753 13.5807 6.26087L22.8602 15.5404C23.1515 15.8316 23.3151 16.2266 23.3151 16.6385C23.3151 17.0503 23.1515 17.4453 22.8602 17.7366C22.569 18.0278 22.174 18.1914 21.7621 18.1914C21.3503 18.1914 20.9553 18.0278 20.6641 17.7366L12.4826 9.53964L4.30114 17.7211C4.00527 17.9745 3.62469 18.1069 3.23546 18.0918C2.84622 18.0768 2.47698 17.9154 2.20154 17.64C1.92611 17.3646 1.76475 16.9953 1.74971 16.6061C1.73468 16.2169 1.86707 15.8363 2.12045 15.5404L11.4 6.26087C11.6881 5.97514 12.0769 5.81406 12.4826 5.81236Z" fill="#FFFFFF"/>
</g>
</g>
</svg>
