<svg width="14" height="15" viewBox="0 0 14 15" fill="none" xmlns="http://www.w3.org/2000/svg">
<path d="M7.01016 11.1094C6.89143 11.11 6.77373 11.0873 6.66381 11.0424C6.55389 10.9975 6.45391 10.9313 6.36961 10.8477L0.956546 5.43466C0.786663 5.26478 0.691223 5.03437 0.691223 4.79411C0.691223 4.55386 0.786663 4.32345 0.956546 4.15357C1.12643 3.98368 1.35684 3.88824 1.59709 3.88824C1.83734 3.88824 2.06776 3.98368 2.23764 4.15357L7.01016 8.93511L11.7827 4.16259C11.9553 4.01479 12.1773 3.93756 12.4043 3.94633C12.6314 3.9551 12.8468 4.04922 13.0074 4.2099C13.1681 4.37057 13.2622 4.58595 13.271 4.81301C13.2798 5.04007 13.2026 5.26207 13.0548 5.43466L7.64168 10.8477C7.47364 11.0144 7.24684 11.1084 7.01016 11.1094Z" fill="#586276"/>
</svg>
