<svg width="20" height="20" viewBox="0 0 20 20" fill="none" xmlns="http://www.w3.org/2000/svg">
<g id="list 1" clip-path="url(#clip0_3_601)">
<g id="Group">
<path id="Vector" d="M9.80932 17.2112C9.98202 17.3839 10.2437 17.4314 10.4661 17.3303L13.1348 16.1173L10.9033 13.8857L9.69022 16.5545C9.58917 16.7768 9.63663 17.0385 9.80932 17.2112Z" fill="#32B237"/>
<path id="Vector_2" d="M19.4768 9.20096L17.8196 7.54369C17.5908 7.31486 17.2198 7.31486 16.9909 7.54369L11.6047 12.9298L14.0907 15.4158L19.4768 10.0296C19.7056 9.80076 19.7056 9.42975 19.4768 9.20096Z" fill="#32B237"/>
<path id="Vector_3" d="M4.84375 3.98438H11.0938C11.4173 3.98438 11.6797 3.72203 11.6797 3.39844V1.83594C11.6797 1.51234 11.4173 1.25 11.0938 1.25H10.1172V0.585938C10.1172 0.262344 9.85484 0 9.53125 0H6.40625C6.08266 0 5.82031 0.262344 5.82031 0.585938V1.25H4.84375C4.52016 1.25 4.25781 1.51234 4.25781 1.83594V3.39844C4.25781 3.72203 4.52016 3.98438 4.84375 3.98438Z" fill="#32B237"/>
<path id="Vector_4" d="M13.9895 17.016L10.951 18.3971C10.721 18.5017 10.4763 18.5547 10.2238 18.5547C9.75418 18.5547 9.3127 18.3719 8.98066 18.0398C8.46547 17.5246 8.32188 16.7328 8.6234 16.0695L10.0045 13.0311C10.0922 12.8383 10.2123 12.665 10.3618 12.5155L15.5859 7.29137V3.20312C15.5859 2.87953 15.3236 2.61719 15 2.61719H12.8516V3.39844C12.8516 4.3677 12.063 5.15625 11.0938 5.15625H4.84375C3.87449 5.15625 3.08594 4.3677 3.08594 3.39844V2.61719H0.9375C0.613906 2.61719 0.351562 2.87953 0.351562 3.20312V19.4141C0.351562 19.7377 0.613906 20 0.9375 20H15C15.3236 20 15.5859 19.7377 15.5859 19.4141V15.5778L14.505 16.6587C14.3555 16.8083 14.182 16.9285 13.9895 17.016ZM4.23414 7.78883C4.46293 7.56 4.83395 7.56 5.06277 7.78883L5.625 8.35105L7.16383 6.81227C7.39262 6.58344 7.76363 6.58344 7.99246 6.81227C8.22129 7.04109 8.22129 7.41207 7.99246 7.6409L6.03934 9.59402C5.92492 9.70844 5.77496 9.76562 5.625 9.76562C5.47504 9.76562 5.32508 9.70844 5.2107 9.59398L4.23414 8.61742C4.00531 8.38863 4.00531 8.01762 4.23414 7.78883ZM4.23414 11.5974C4.46293 11.3686 4.83395 11.3686 5.06277 11.5974L5.625 12.1596L7.16383 10.6209C7.39262 10.392 7.76363 10.392 7.99246 10.6209C8.22129 10.8497 8.22129 11.2207 7.99246 11.4495L6.03934 13.4026C5.92492 13.517 5.77496 13.5743 5.62504 13.5743C5.47512 13.5743 5.32512 13.5171 5.21074 13.4026L4.23418 12.4261C4.00531 12.1972 4.00531 11.8262 4.23414 11.5974ZM2.69531 17.1875C2.37172 17.1875 2.10938 16.9252 2.10938 16.6016C2.10938 16.278 2.37172 16.0156 2.69531 16.0156C3.01891 16.0156 3.28125 16.278 3.28125 16.6016C3.28125 16.9252 3.01891 17.1875 2.69531 17.1875ZM2.69531 13.3789C2.37172 13.3789 2.10938 13.1166 2.10938 12.793C2.10938 12.4694 2.37172 12.207 2.69531 12.207C3.01891 12.207 3.28125 12.4694 3.28125 12.793C3.28125 13.1166 3.01891 13.3789 2.69531 13.3789ZM2.69531 9.57031C2.37172 9.57031 2.10938 9.30797 2.10938 8.98438C2.10938 8.66078 2.37172 8.39844 2.69531 8.39844C3.01891 8.39844 3.28125 8.66078 3.28125 8.98438C3.28125 9.30797 3.01891 9.57031 2.69531 9.57031ZM5.625 17.3828C5.47504 17.3828 5.32508 17.3256 5.2107 17.2112L4.23414 16.2346C4.00531 16.0058 4.00531 15.6348 4.23414 15.406C4.46293 15.1771 4.83395 15.1771 5.06277 15.406L5.625 15.9682L7.16383 14.4295C7.39262 14.2006 7.76363 14.2006 7.99246 14.4295C8.22129 14.6583 8.22129 15.0293 7.99246 15.2581L6.03934 17.2112C5.92492 17.3256 5.77496 17.3828 5.625 17.3828Z" fill="#32B237"/>
</g>
</g>
<defs>
<clipPath id="clip0_3_601">
<rect width="20" height="20" fill="white"/>
</clipPath>
</defs>
</svg>
