<svg width="22" height="25" viewBox="0 0 22 25" fill="none" xmlns="http://www.w3.org/2000/svg">
<g filter="url(#filter0_d_3333_10075)">
<path d="M14.3313 12.3413L10.9999 13.8307L7.66981 12.3413L4.77295 18.7214L7.66856 17.6334L8.76487 20.5069L10.9999 15.5827L13.235 20.5069L14.3313 17.6334L17.2269 18.7214L14.3313 12.3413Z" fill="url(#paint0_linear_3333_10075)"/>
<path d="M19 8.9388C19 4.55432 15.4183 1 11 1C6.58172 1 3 4.55432 3 8.9388C3 13.3233 6.58172 16.8776 11 16.8776C15.4183 16.8776 19 13.3233 19 8.9388Z" fill="#593939"/>
<path fill-rule="evenodd" clip-rule="evenodd" d="M5.87275 12.6047L5.70717 12.3391C5.72814 12.3236 5.7451 12.3063 5.75805 12.2871C5.77119 12.2681 5.77984 12.2476 5.784 12.2255C5.78867 12.2036 5.78833 12.1805 5.78296 12.1565C5.77791 12.1323 5.76754 12.1075 5.75189 12.0824C5.72449 12.0385 5.69054 12.0079 5.65005 11.9906C5.60974 11.9737 5.56461 11.9697 5.51463 11.9787C5.46487 11.9879 5.41183 12.0099 5.35551 12.0445C5.29603 12.081 5.25109 12.1194 5.2207 12.1598C5.19082 12.2003 5.17514 12.2418 5.17369 12.2844C5.17255 12.3268 5.18519 12.3691 5.21161 12.4115C5.22669 12.4357 5.2432 12.4554 5.26114 12.471C5.27942 12.4863 5.2988 12.4974 5.31931 12.5042C5.33983 12.5112 5.36105 12.5141 5.38298 12.5127C5.40543 12.5116 5.42807 12.5061 5.4509 12.4965L5.61459 12.7632C5.57151 12.7853 5.52245 12.7996 5.46741 12.806C5.41267 12.8123 5.35593 12.8082 5.29715 12.794C5.2389 12.7798 5.18222 12.7528 5.12711 12.7128C5.07201 12.6728 5.02245 12.6175 4.9784 12.5468C4.9232 12.4583 4.89282 12.3672 4.88727 12.2733C4.88191 12.1798 4.90367 12.0898 4.95257 12.0034C5.00168 11.9172 5.08 11.8411 5.18758 11.7751C5.29577 11.7087 5.39982 11.6734 5.49968 11.6695C5.59986 11.6652 5.69086 11.6867 5.77266 11.7337C5.85479 11.7805 5.92286 11.8472 5.97688 11.9339C6.01486 11.9948 6.04141 12.056 6.05654 12.1174C6.07168 12.1789 6.07514 12.2389 6.06695 12.2973C6.05907 12.3555 6.03906 12.4109 6.00691 12.463C5.97477 12.5154 5.93005 12.5626 5.87275 12.6047ZM5.91968 13.7354L6.69197 12.8994L7.29911 13.4517L7.13017 13.6346L6.75174 13.2904L6.61901 13.4341L6.96617 13.7499L6.79723 13.9327L6.45006 13.6169L6.31733 13.7607L6.69412 14.1033L6.52518 14.2862L5.91968 13.7354ZM7.88617 13.8665L7.35866 14.8726L7.6339 15.0147L7.80802 14.6826L7.90328 14.7318L7.90716 15.1558L8.20616 15.3101L8.19695 14.8288C8.26268 14.8308 8.32258 14.8165 8.37666 14.7858C8.43494 14.753 8.48296 14.7006 8.52074 14.6286C8.55817 14.5572 8.57461 14.4879 8.57005 14.4206C8.56548 14.3533 8.5421 14.2916 8.49993 14.2352C8.45774 14.1788 8.39903 14.1313 8.32378 14.0924L7.88617 13.8665ZM7.91929 14.4704L8.01632 14.5205C8.04866 14.5371 8.07828 14.5474 8.10517 14.5513C8.13257 14.5551 8.15701 14.5513 8.17849 14.5399C8.20031 14.5287 8.21868 14.5089 8.23362 14.4804C8.24873 14.4515 8.25473 14.4248 8.25165 14.4004C8.24905 14.3757 8.23842 14.3533 8.2198 14.3327C8.20166 14.3122 8.17642 14.2935 8.14408 14.2768L8.04705 14.2267L7.91929 14.4704ZM9.25544 14.7509L9.30761 14.5083L10.279 14.7139L10.2269 14.9566L9.89069 14.8854L9.70438 15.752L9.4053 15.6887L9.59162 14.8221L9.25544 14.7509ZM11.2866 15.8718L11.2704 14.7377L10.9602 14.7421L10.9764 15.8761L11.2866 15.8718ZM12.2968 15.7729L12.0359 14.6688L12.8183 14.4866L12.8753 14.7282L12.395 14.84L12.4399 15.0298L12.8724 14.9292L12.9295 15.1707L12.497 15.2713L12.5989 15.7026L12.2968 15.7729ZM14.2615 15.1125L13.7672 14.09L13.4874 14.2232L13.9817 15.2457L14.2615 15.1125ZM15.1999 14.5581L14.4794 13.6777L15.1188 13.1624L15.2764 13.355L14.8779 13.6762L15.0016 13.8276L15.3672 13.5328L15.5248 13.7255L15.1592 14.02L15.2831 14.1713L15.6799 13.8516L15.8375 14.0442L15.1999 14.5581ZM16.5575 13.2995L16.8117 12.9435C16.8788 12.8495 16.9184 12.7549 16.9307 12.66C16.9426 12.5648 16.9271 12.4738 16.8845 12.3873C16.8416 12.3006 16.7716 12.2231 16.6744 12.1548C16.5773 12.0865 16.4804 12.0469 16.3837 12.036C16.2871 12.0246 16.1954 12.0406 16.1087 12.0842C16.0219 12.1272 15.9445 12.1963 15.8765 12.2915L15.625 12.644L16.5575 13.2995ZM16.5903 12.8014L16.522 12.8972L16.0191 12.5439L16.0824 12.4553C16.1168 12.4071 16.1533 12.3716 16.1918 12.3489C16.2306 12.326 16.2743 12.3187 16.323 12.3271C16.3719 12.3353 16.4288 12.3622 16.4939 12.4078C16.5588 12.4535 16.6034 12.4977 16.6275 12.5405C16.6519 12.583 16.6599 12.6258 16.6516 12.6686C16.6434 12.7114 16.623 12.7556 16.5903 12.8014Z" fill="url(#paint1_linear_3333_10075)"/>
<path fill-rule="evenodd" clip-rule="evenodd" d="M10.0985 3.25138L9.73466 3.28354L10.0339 2.01497L10.4948 1.97423L11.0153 3.17034L10.6515 3.20249L10.5585 2.97295L10.149 3.00916L10.0985 3.25138ZM10.2997 2.33354L10.4599 2.72937L10.2028 2.75211L10.29 2.3344L10.2997 2.33354ZM8.17303 3.76297L8.51907 3.64692L8.51092 3.3997L8.90039 3.26908L9.04505 3.47055L9.39108 3.3545L8.60206 2.31315L8.16375 2.46013L8.17303 3.76297ZM8.74689 3.05529L8.49745 2.70788L8.48821 2.71097L8.50227 3.13732L8.74689 3.05529ZM6.88116 3.40762C6.91633 3.412 6.94625 3.43028 6.97092 3.4624L7.24337 3.28866C7.19892 3.22078 7.14335 3.17221 7.07663 3.14294C7.01004 3.11311 6.93675 3.10384 6.85674 3.11513C6.77673 3.12642 6.69438 3.15906 6.60972 3.21306C6.52675 3.26596 6.46218 3.32678 6.41597 3.39549C6.37012 3.46399 6.34523 3.53468 6.34129 3.60757C6.33747 3.67989 6.35713 3.74898 6.40026 3.81483C6.45257 3.89637 6.52061 3.9437 6.60437 3.95682C6.68825 3.9694 6.78309 3.95606 6.88891 3.91683L7.00787 3.87258C7.05227 3.85623 7.08909 3.84567 7.11833 3.8409C7.14735 3.8358 7.17076 3.83619 7.18855 3.84207C7.20649 3.8474 7.22077 3.85792 7.23142 3.87362C7.24205 3.89078 7.24635 3.90934 7.24433 3.92931C7.24229 3.94927 7.23346 3.96951 7.2178 3.99003C7.20214 4.01054 7.17911 4.03049 7.14873 4.04988C7.11254 4.07295 7.07769 4.08728 7.04414 4.09287C7.01095 4.09823 6.98018 4.09465 6.9518 4.08211C6.92341 4.06958 6.89805 4.04792 6.87572 4.01716L6.60532 4.1896C6.66204 4.27646 6.72711 4.33598 6.80054 4.36814C6.87407 4.39976 6.95331 4.40739 7.03825 4.39105C7.12353 4.37448 7.21174 4.33714 7.3029 4.279C7.39167 4.2224 7.45963 4.16159 7.50677 4.09657C7.55427 4.03134 7.57972 3.96411 7.58315 3.89492C7.58658 3.82571 7.56629 3.75678 7.52231 3.68812C7.4963 3.64869 7.46612 3.61625 7.43177 3.59075C7.39775 3.56505 7.35894 3.5472 7.31531 3.5372C7.27147 3.52686 7.22243 3.52486 7.16817 3.53122C7.11391 3.53757 7.05381 3.55317 6.98787 3.57798L6.88998 3.61455C6.86177 3.62537 6.83652 3.63332 6.81426 3.63842C6.79199 3.64352 6.77254 3.64588 6.75588 3.64548C6.73901 3.64477 6.72466 3.64123 6.71283 3.63488C6.70113 3.62799 6.69156 3.61805 6.68412 3.60508C6.6746 3.58962 6.67043 3.57313 6.67163 3.55561C6.67283 3.53808 6.68044 3.52006 6.6945 3.50153C6.70867 3.48244 6.73043 3.46353 6.7598 3.4448C6.80589 3.41542 6.84635 3.40301 6.88116 3.40762ZM11.6172 1.96777L11.5783 2.23564L11.9494 2.28874L11.8104 3.24543L12.1406 3.29266L12.2796 2.33598L12.6508 2.38908L12.6897 2.12121L11.6172 1.96777ZM13.1178 3.50941L13.5998 2.3684L13.9119 2.49825L13.7237 2.94397L14.1369 3.11585L14.3252 2.67013L14.6374 2.79999L14.1553 3.94101L13.8432 3.81117L14.0315 3.36545L13.6183 3.19356L13.43 3.63927L13.1178 3.50941ZM15.0137 4.49254L15.7218 3.47429L15.4432 3.2835L14.7351 4.30175L15.0137 4.49254Z" fill="url(#paint2_linear_3333_10075)"/>
<path fill-rule="evenodd" clip-rule="evenodd" d="M4.35718 8.91384C4.35718 7.40682 4.86677 6.01793 5.72429 4.90758C5.77313 4.84433 5.86521 4.83549 5.92662 4.88682C5.98593 4.93638 5.99447 5.02374 5.94736 5.08486C5.12905 6.14663 4.64289 7.47389 4.64289 8.91384C4.64289 9.52988 4.73188 10.1253 4.89778 10.6881C4.91658 10.7519 4.8899 10.8205 4.83206 10.854C4.75286 10.8998 4.65117 10.8613 4.62534 10.774C4.4508 10.1841 4.35718 9.55979 4.35718 8.91384ZM17.168 10.854C17.2472 10.8998 17.349 10.8613 17.3748 10.774C17.5493 10.1841 17.6429 9.55979 17.6429 8.91384C17.6429 7.40682 17.1333 6.01793 16.2758 4.90758C16.227 4.84433 16.1349 4.83549 16.0735 4.88682C16.0141 4.93638 16.0056 5.02374 16.0527 5.08486C16.871 6.14663 17.3572 7.47389 17.3572 8.91384C17.3572 9.52988 17.2681 10.1253 17.1023 10.6881C17.0835 10.7519 17.1102 10.8205 17.168 10.854Z" fill="url(#paint3_linear_3333_10075)"/>
<path d="M16.2175 8.93871C16.2175 6.07926 13.8816 3.76123 11.0001 3.76123C8.11862 3.76123 5.78271 6.07926 5.78271 8.93871C5.78271 11.7981 8.11862 14.1162 11.0001 14.1162C13.8816 14.1162 16.2175 11.7981 16.2175 8.93871Z" fill="#513131"/>
<path d="M16.2175 8.93871C16.2175 6.07926 13.8816 3.76123 11.0001 3.76123C8.11862 3.76123 5.78271 6.07926 5.78271 8.93871C5.78271 11.7981 8.11862 14.1162 11.0001 14.1162C13.8816 14.1162 16.2175 11.7981 16.2175 8.93871Z" fill="black" fill-opacity="0.4"/>
<path d="M10.6037 4.5508L9.69019 5.35064H11.0003V4.40235C10.8589 4.40189 10.7174 4.45137 10.6037 4.5508Z" fill="#FFE7E7"/>
<path d="M11.3924 4.54987C11.2799 4.45198 11.1405 4.40281 11.001 4.40234V5.35062H12.3111L11.3924 4.54987Z" fill="#F4D4D4"/>
<path d="M7.81395 5.86215L7.62549 7.06535L8.62903 6.21863L8.02283 5.49219C7.9142 5.58318 7.83741 5.71264 7.81395 5.86215Z" fill="#FFE7E7"/>
<path d="M8.4166 5.35213C8.2679 5.34968 8.12957 5.40223 8.02246 5.49216L8.62868 6.21861L9.63222 5.3719L8.4166 5.35213Z" fill="#F4D4D4"/>
<path d="M6.51478 8.67L7.13943 9.71357L7.36689 8.41631L6.4383 8.25146C6.41315 8.39148 6.43707 8.54023 6.51478 8.67Z" fill="#FFE7E7"/>
<path d="M6.65134 7.88971C6.53602 7.98408 6.46365 8.11368 6.43896 8.25171L7.36771 8.4164L7.59517 7.11914L6.65134 7.88971Z" fill="#F4D4D4"/>
<path d="M7.3148 11.6608L8.4605 12.0564L7.80554 10.9155L6.98877 11.3897C7.059 11.5131 7.17236 11.6116 7.3148 11.6608Z" fill="#FFE7E7"/>
<path d="M6.92013 10.9752C6.89194 11.1219 6.91936 11.2681 6.98869 11.3899L7.80545 10.9158L7.15048 9.7749L6.92013 10.9752Z" fill="#F4D4D4"/>
<path d="M9.83958 13.4348L10.97 12.9975L9.73903 12.5469L9.4165 13.4381C9.5492 13.4871 9.69911 13.4892 9.83958 13.4348Z" fill="#FFE7E7"/>
<path d="M9.09815 13.1646C9.17036 13.2953 9.28478 13.3895 9.4158 13.4379L9.73833 12.5467L8.50732 12.0962L9.09815 13.1646Z" fill="#F4D4D4"/>
<path d="M12.9073 13.1619L13.4937 12.0962L12.2627 12.5467L12.5852 13.4379C12.7181 13.3897 12.8343 13.2945 12.9073 13.1619Z" fill="#FFE7E7"/>
<path d="M12.1672 13.434C12.3062 13.4875 12.454 13.4857 12.5853 13.4381L12.2627 12.5469L11.0317 12.9975L12.1672 13.434Z" fill="#F4D4D4"/>
<path d="M15.0823 10.9703L14.8502 9.7749L14.1953 10.9158L15.0121 11.3899C15.083 11.2669 15.1113 11.1189 15.0823 10.9703Z" fill="#FFE7E7"/>
<path d="M14.6897 11.6568C14.8301 11.608 14.9422 11.511 15.0125 11.3897L14.1957 10.9155L13.5408 12.0564L14.6897 11.6568Z" fill="#F4D4D4"/>
<path d="M15.3488 7.8848L14.4067 7.11914L14.6342 8.4164L15.563 8.25171C15.5391 8.11169 15.4659 7.98009 15.3488 7.8848Z" fill="#FFE7E7"/>
<path d="M15.4861 8.66478C15.5626 8.53656 15.5865 8.3898 15.5626 8.25146L14.6338 8.41615L14.8613 9.71341L15.4861 8.66478Z" fill="#F4D4D4"/>
<path d="M13.5799 5.34971L12.3689 5.37193L13.3724 6.21865L13.9787 5.49219C13.8706 5.40058 13.7306 5.34695 13.5799 5.34971Z" fill="#E7C7C7"/>
<path d="M14.1838 5.85818C14.1603 5.71049 14.0849 5.58272 13.9783 5.49219L13.3721 6.21864L14.3756 7.06535L14.1838 5.85818Z" fill="#C4A4A4"/>
<path d="M10.9995 12.3107C12.7981 12.3107 14.2561 10.8703 14.2561 9.09357C14.2561 7.31681 12.7981 5.87646 10.9995 5.87646C9.20093 5.87646 7.74292 7.31681 7.74292 9.09357C7.74292 10.8703 9.20093 12.3107 10.9995 12.3107Z" fill="url(#paint4_radial_3333_10075)"/>
<g filter="url(#filter1_i_3333_10075)">
<g style="mix-blend-mode:color-burn">
<path d="M10.9864 9.19334C10.8293 9.19334 10.6897 9.1666 10.5676 9.11311C10.4462 9.05899 10.3507 8.98456 10.2812 8.88984C10.2117 8.79512 10.1767 8.68621 10.176 8.56313H10.7215C10.7221 8.60115 10.7338 8.63531 10.7566 8.66559C10.7799 8.69524 10.8117 8.71843 10.852 8.73519C10.8923 8.75194 10.9384 8.76032 10.9903 8.76032C11.0403 8.76032 11.0845 8.75161 11.1228 8.73422C11.1611 8.71617 11.191 8.69137 11.2124 8.6598C11.2338 8.62822 11.2442 8.59213 11.2436 8.55153C11.2442 8.51159 11.2319 8.47615 11.2066 8.44521C11.1819 8.41428 11.1471 8.39011 11.1023 8.37272C11.0575 8.35532 11.0059 8.34662 10.9475 8.34662H10.7449V7.97546H10.9475C11.0014 7.97546 11.0488 7.96676 11.0897 7.94936C11.1312 7.93197 11.1634 7.9078 11.1861 7.87687C11.2095 7.84594 11.2208 7.8105 11.2202 7.77055C11.2208 7.73189 11.2114 7.69773 11.1919 7.66809C11.1725 7.63845 11.1452 7.61525 11.1101 7.59849C11.0757 7.58174 11.0358 7.57336 10.9903 7.57336C10.941 7.57336 10.8968 7.58206 10.8578 7.59947C10.8195 7.61686 10.7893 7.64102 10.7673 7.67196C10.7452 7.70289 10.7338 7.73833 10.7332 7.77828H10.215C10.2156 7.65714 10.2491 7.55017 10.3153 7.45737C10.3822 7.36458 10.4738 7.29177 10.59 7.23893C10.7062 7.18609 10.8397 7.15967 10.9903 7.15967C11.1377 7.15967 11.2679 7.18448 11.3809 7.2341C11.4945 7.28372 11.5832 7.35201 11.6468 7.43901C11.7111 7.52535 11.7429 7.62427 11.7423 7.73575C11.7436 7.84658 11.7052 7.93744 11.6273 8.00833C11.55 8.07921 11.452 8.12109 11.3332 8.13397V8.14944C11.4942 8.16684 11.6153 8.21581 11.6965 8.29636C11.7776 8.37627 11.8176 8.47679 11.8163 8.59793C11.8169 8.71393 11.7819 8.8167 11.7111 8.90627C11.641 8.99584 11.5432 9.06608 11.4179 9.11698C11.2932 9.16789 11.1494 9.19334 10.9864 9.19334Z" fill="black" fill-opacity="0.24"/>
</g>
<g style="mix-blend-mode:darken">
<path d="M10.9864 9.19334C10.8293 9.19334 10.6897 9.1666 10.5676 9.11311C10.4462 9.05899 10.3507 8.98456 10.2812 8.88984C10.2117 8.79512 10.1767 8.68621 10.176 8.56313H10.7215C10.7221 8.60115 10.7338 8.63531 10.7566 8.66559C10.7799 8.69524 10.8117 8.71843 10.852 8.73519C10.8923 8.75194 10.9384 8.76032 10.9903 8.76032C11.0403 8.76032 11.0845 8.75161 11.1228 8.73422C11.1611 8.71617 11.191 8.69137 11.2124 8.6598C11.2338 8.62822 11.2442 8.59213 11.2436 8.55153C11.2442 8.51159 11.2319 8.47615 11.2066 8.44521C11.1819 8.41428 11.1471 8.39011 11.1023 8.37272C11.0575 8.35532 11.0059 8.34662 10.9475 8.34662H10.7449V7.97546H10.9475C11.0014 7.97546 11.0488 7.96676 11.0897 7.94936C11.1312 7.93197 11.1634 7.9078 11.1861 7.87687C11.2095 7.84594 11.2208 7.8105 11.2202 7.77055C11.2208 7.73189 11.2114 7.69773 11.1919 7.66809C11.1725 7.63845 11.1452 7.61525 11.1101 7.59849C11.0757 7.58174 11.0358 7.57336 10.9903 7.57336C10.941 7.57336 10.8968 7.58206 10.8578 7.59947C10.8195 7.61686 10.7893 7.64102 10.7673 7.67196C10.7452 7.70289 10.7338 7.73833 10.7332 7.77828H10.215C10.2156 7.65714 10.2491 7.55017 10.3153 7.45737C10.3822 7.36458 10.4738 7.29177 10.59 7.23893C10.7062 7.18609 10.8397 7.15967 10.9903 7.15967C11.1377 7.15967 11.2679 7.18448 11.3809 7.2341C11.4945 7.28372 11.5832 7.35201 11.6468 7.43901C11.7111 7.52535 11.7429 7.62427 11.7423 7.73575C11.7436 7.84658 11.7052 7.93744 11.6273 8.00833C11.55 8.07921 11.452 8.12109 11.3332 8.13397V8.14944C11.4942 8.16684 11.6153 8.21581 11.6965 8.29636C11.7776 8.37627 11.8176 8.47679 11.8163 8.59793C11.8169 8.71393 11.7819 8.8167 11.7111 8.90627C11.641 8.99584 11.5432 9.06608 11.4179 9.11698C11.2932 9.16789 11.1494 9.19334 10.9864 9.19334Z" fill="#755555"/>
</g>
</g>
<g filter="url(#filter2_i_3333_10075)">
<g style="mix-blend-mode:darken">
<path d="M8.28735 10.8256V9.87626H8.70217C8.77505 9.87626 8.83624 9.886 8.88576 9.90547C8.93559 9.92494 8.97311 9.95244 8.99834 9.98798C9.02388 10.0235 9.03664 10.0654 9.03664 10.1136C9.03664 10.1485 9.02886 10.1804 9.01329 10.2091C8.99803 10.2378 8.97653 10.2619 8.94882 10.2814C8.92111 10.3006 8.88872 10.3139 8.85165 10.3213V10.3306C8.89276 10.3321 8.93013 10.3424 8.96377 10.3616C8.99741 10.3805 9.02419 10.4066 9.04412 10.44C9.06404 10.473 9.07401 10.512 9.07401 10.5568C9.07401 10.6087 9.06031 10.6549 9.0329 10.6954C9.00581 10.7359 8.96719 10.7677 8.91705 10.7909C8.86691 10.8141 8.80712 10.8256 8.73768 10.8256H8.28735ZM8.54708 10.6198H8.66854C8.71214 10.6198 8.74484 10.6118 8.76664 10.5957C8.78843 10.5793 8.79934 10.5552 8.79934 10.5234C8.79934 10.5011 8.7942 10.4823 8.78392 10.4668C8.77365 10.4514 8.75901 10.4396 8.74001 10.4316C8.72132 10.4236 8.69875 10.4196 8.67228 10.4196H8.54708V10.6198ZM8.54708 10.2601H8.65359C8.67632 10.2601 8.69641 10.2565 8.71385 10.2494C8.73129 10.2423 8.74484 10.2321 8.75449 10.2188C8.76446 10.2052 8.76944 10.1887 8.76944 10.1692C8.76944 10.1399 8.75885 10.1175 8.73768 10.102C8.7165 10.0863 8.68972 10.0784 8.65733 10.0784H8.54708V10.2601ZM9.16604 10.8256V9.87626H9.57899C9.64999 9.87626 9.71213 9.88909 9.76538 9.91474C9.81864 9.94039 9.86005 9.97732 9.88964 10.0255C9.91922 10.0737 9.93401 10.1315 9.93401 10.1989C9.93401 10.2669 9.91875 10.3242 9.88823 10.3709C9.85802 10.4176 9.81552 10.4528 9.76071 10.4766C9.70621 10.5004 9.64252 10.5123 9.56965 10.5123H9.323V10.312H9.51733C9.54785 10.312 9.57385 10.3083 9.59534 10.3009C9.61714 10.2932 9.6338 10.281 9.64532 10.2643C9.65715 10.2476 9.66307 10.2258 9.66307 10.1989C9.66307 10.1717 9.65715 10.1496 9.64532 10.1326C9.6338 10.1153 9.61714 10.1026 9.59534 10.0946C9.57385 10.0863 9.54785 10.0821 9.51733 10.0821H9.42577V10.8256H9.16604ZM9.72661 10.3899L9.96578 10.8256H9.68363L9.45006 10.3899H9.72661ZM10.9715 10.351C10.9715 10.4566 10.9508 10.5458 10.9094 10.6184C10.868 10.6907 10.8121 10.7456 10.7417 10.783C10.6713 10.8201 10.5928 10.8386 10.5063 10.8386C10.4191 10.8386 10.3403 10.8199 10.2699 10.7825C10.1998 10.7448 10.1441 10.6898 10.1027 10.6175C10.0615 10.5449 10.041 10.456 10.041 10.351C10.041 10.2453 10.0615 10.1563 10.1027 10.0839C10.1441 10.0113 10.1998 9.95645 10.2699 9.91937C10.3403 9.88198 10.4191 9.86328 10.5063 9.86328C10.5928 9.86328 10.6713 9.88198 10.7417 9.91937C10.8121 9.95645 10.868 10.0113 10.9094 10.0839C10.9508 10.1563 10.9715 10.2453 10.9715 10.351ZM10.7043 10.351C10.7043 10.2941 10.6967 10.2462 10.6814 10.2072C10.6665 10.168 10.6442 10.1383 10.6146 10.1182C10.5854 10.0979 10.5492 10.0876 10.5063 10.0876C10.4633 10.0876 10.427 10.0979 10.3974 10.1182C10.3681 10.1383 10.3459 10.168 10.3306 10.2072C10.3157 10.2462 10.3082 10.2941 10.3082 10.351C10.3082 10.4078 10.3157 10.4559 10.3306 10.4951C10.3459 10.5341 10.3681 10.5637 10.3974 10.5841C10.427 10.6042 10.4633 10.6143 10.5063 10.6143C10.5492 10.6143 10.5854 10.6042 10.6146 10.5841C10.6442 10.5637 10.6665 10.5341 10.6814 10.4951C10.6967 10.4559 10.7043 10.4078 10.7043 10.351ZM11.9195 9.87626V10.8256H11.7027L11.357 10.3268H11.3514V10.8256H11.0917V9.87626H11.3122L11.6523 10.3732H11.6597V9.87626H11.9195ZM12.0461 10.8256V10.6829L12.4983 10.0839H12.0479V9.87626H12.829V10.019L12.3768 10.618H12.8271V10.8256H12.0461ZM12.9557 10.8256V9.87626H13.6452V10.0839H13.2154V10.2471H13.6097V10.4548H13.2154V10.618H13.6433V10.8256H12.9557Z" fill="#755555"/>
</g>
</g>
<path d="M11.0009 5.55615C9.07603 5.55615 7.51562 7.12503 7.51562 9.0605C7.51562 10.996 9.07603 12.565 11.0009 12.565C12.9257 12.565 14.4861 10.996 14.4861 9.0605C14.4861 7.12503 12.9257 5.55615 11.0009 5.55615ZM11.0009 12.2773C9.23401 12.2773 7.80175 10.8371 7.80175 9.0605C7.80175 7.28389 9.23401 5.8437 11.0009 5.8437C12.7677 5.8437 14.2 7.28389 14.2 9.0605C14.2 10.8371 12.7677 12.2773 11.0009 12.2773Z" fill="url(#paint5_linear_3333_10075)"/>
<path d="M11.0006 5.10889C8.83017 5.10889 7.0708 6.878 7.0708 9.06042C7.0708 11.2429 8.83017 13.0119 11.0006 13.0119C13.171 13.0119 14.9304 11.2429 14.9304 9.06042C14.9304 6.878 13.171 5.10889 11.0006 5.10889ZM11.0006 12.5633C9.07669 12.5633 7.51704 10.995 7.51704 9.06042C7.51704 7.12586 9.07669 5.55776 11.0006 5.55776C12.9245 5.55776 14.4842 7.12602 14.4842 9.06058C14.4842 10.9951 12.9245 12.5633 11.0006 12.5633Z" fill="url(#paint6_linear_3333_10075)"/>
</g>
<defs>
<filter id="filter0_d_3333_10075" x="0.879699" y="0.57594" width="20.2406" height="23.7474" filterUnits="userSpaceOnUse" color-interpolation-filters="sRGB">
<feFlood flood-opacity="0" result="BackgroundImageFix"/>
<feColorMatrix in="SourceAlpha" type="matrix" values="0 0 0 0 0 0 0 0 0 0 0 0 0 0 0 0 0 0 127 0" result="hardAlpha"/>
<feOffset dy="1.69624"/>
<feGaussianBlur stdDeviation="1.06015"/>
<feComposite in2="hardAlpha" operator="out"/>
<feColorMatrix type="matrix" values="0 0 0 0 0 0 0 0 0 0 0 0 0 0 0 0 0 0 0.25 0"/>
<feBlend mode="normal" in2="BackgroundImageFix" result="effect1_dropShadow_3333_10075"/>
<feBlend mode="normal" in="SourceGraphic" in2="effect1_dropShadow_3333_10075" result="shape"/>
</filter>
<filter id="filter1_i_3333_10075" x="10.176" y="7.15967" width="1.64038" height="2.1079" filterUnits="userSpaceOnUse" color-interpolation-filters="sRGB">
<feFlood flood-opacity="0" result="BackgroundImageFix"/>
<feBlend mode="normal" in="SourceGraphic" in2="BackgroundImageFix" result="shape"/>
<feColorMatrix in="SourceAlpha" type="matrix" values="0 0 0 0 0 0 0 0 0 0 0 0 0 0 0 0 0 0 127 0" result="hardAlpha"/>
<feOffset dy="0.0742105"/>
<feGaussianBlur stdDeviation="0.0742105"/>
<feComposite in2="hardAlpha" operator="arithmetic" k2="-1" k3="1"/>
<feColorMatrix type="matrix" values="0 0 0 0 0 0 0 0 0 0 0 0 0 0 0 0 0 0 0.24 0"/>
<feBlend mode="darken" in2="shape" result="effect1_innerShadow_3333_10075"/>
</filter>
<filter id="filter2_i_3333_10075" x="8.28735" y="9.86328" width="5.35791" height="1.04931" filterUnits="userSpaceOnUse" color-interpolation-filters="sRGB">
<feFlood flood-opacity="0" result="BackgroundImageFix"/>
<feBlend mode="normal" in="SourceGraphic" in2="BackgroundImageFix" result="shape"/>
<feColorMatrix in="SourceAlpha" type="matrix" values="0 0 0 0 0 0 0 0 0 0 0 0 0 0 0 0 0 0 127 0" result="hardAlpha"/>
<feOffset dy="0.0742105"/>
<feGaussianBlur stdDeviation="0.0742105"/>
<feComposite in2="hardAlpha" operator="arithmetic" k2="-1" k3="1"/>
<feColorMatrix type="matrix" values="0 0 0 0 0 0 0 0 0 0 0 0 0 0 0 0 0 0 0.24 0"/>
<feBlend mode="darken" in2="shape" result="effect1_innerShadow_3333_10075"/>
</filter>
<linearGradient id="paint0_linear_3333_10075" x1="4.77295" y1="12.3413" x2="17.2916" y2="12.4416" gradientUnits="userSpaceOnUse">
<stop stop-color="#D6AF9A"/>
<stop offset="0.491554" stop-color="#FFF7EC"/>
<stop offset="1" stop-color="#E6B19B"/>
</linearGradient>
<linearGradient id="paint1_linear_3333_10075" x1="4.88647" y1="11.6689" x2="16.9951" y2="11.851" gradientUnits="userSpaceOnUse">
<stop stop-color="#D6AF9A"/>
<stop offset="0.491554" stop-color="#F6D5A5"/>
<stop offset="1" stop-color="#E6B19B"/>
</linearGradient>
<linearGradient id="paint2_linear_3333_10075" x1="6.34083" y1="1.96777" x2="15.7675" y2="2.1517" gradientUnits="userSpaceOnUse">
<stop stop-color="#D6AF9A"/>
<stop offset="0.491554" stop-color="#F6D5A5"/>
<stop offset="1" stop-color="#E6B19B"/>
</linearGradient>
<linearGradient id="paint3_linear_3333_10075" x1="4.35718" y1="4.85351" x2="17.7109" y2="5.00827" gradientUnits="userSpaceOnUse">
<stop stop-color="#D6AF9A"/>
<stop offset="0.491554" stop-color="#F6D5A5"/>
<stop offset="1" stop-color="#E6B19B"/>
</linearGradient>
<radialGradient id="paint4_radial_3333_10075" cx="0" cy="0" r="1" gradientUnits="userSpaceOnUse" gradientTransform="translate(10.9995 9.09352) scale(3.25657 3.21711)">
<stop offset="0.8428" stop-color="#CBABAB"/>
<stop offset="1" stop-color="#B79797"/>
</radialGradient>
<linearGradient id="paint5_linear_3333_10075" x1="11.0009" y1="5.54588" x2="11.0009" y2="12.5548" gradientUnits="userSpaceOnUse">
<stop stop-color="#AF8F8F"/>
<stop offset="0.8201" stop-color="#C7ACAC"/>
<stop offset="1" stop-color="#DBBDBD"/>
</linearGradient>
<linearGradient id="paint6_linear_3333_10075" x1="11.0006" y1="5.09731" x2="11.0006" y2="13.0005" gradientUnits="userSpaceOnUse">
<stop stop-color="#F2D2D2"/>
<stop offset="0.1799" stop-color="#FFE4E4"/>
<stop offset="1" stop-color="#AF8F8F"/>
</linearGradient>
</defs>
</svg>
