<svg width="16" height="16" viewBox="0 0 16 16" fill="none" xmlns="http://www.w3.org/2000/svg">
<g id="icon/action/calendar_today_24px">
<path id="icon/action/calendar_today_24px_2" fill-rule="evenodd" clip-rule="evenodd" d="M12.6666 1.99984H13.3333C14.0666 1.99984 14.6666 2.59984 14.6666 3.33317V13.9998C14.6666 14.7332 14.0666 15.3332 13.3333 15.3332H2.66659C1.93325 15.3332 1.33325 14.7332 1.33325 13.9998V3.33317C1.33325 2.59984 1.93325 1.99984 2.66659 1.99984H3.33325V1.33317C3.33325 0.966504 3.63325 0.666504 3.99992 0.666504C4.36659 0.666504 4.66659 0.966504 4.66659 1.33317V1.99984H11.3333V1.33317C11.3333 0.966504 11.6333 0.666504 11.9999 0.666504C12.3666 0.666504 12.6666 0.966504 12.6666 1.33317V1.99984ZM3.33325 13.9998H12.6666C13.0333 13.9998 13.3333 13.6998 13.3333 13.3332V5.33317H2.66659V13.3332C2.66659 13.6998 2.96659 13.9998 3.33325 13.9998Z" fill="#677995"/>
</g>
</svg>
