<svg width="14" height="14" viewBox="0 0 14 14" fill="none" xmlns="http://www.w3.org/2000/svg">
<path d="M13.6965 10.68C13.2595 10.3135 10.6965 8.6905 10.2705 8.765C10.0705 8.8005 9.9175 8.971 9.508 9.4595C9.31862 9.69994 9.11065 9.92514 8.886 10.133C8.47439 10.0336 8.07597 9.88588 7.699 9.693C6.22064 8.97325 5.02632 7.77857 4.307 6.3C4.11412 5.92303 3.96643 5.52461 3.867 5.113C4.07486 4.88835 4.30006 4.68038 4.5405 4.491C5.0285 4.0815 5.1995 3.9295 5.235 3.7285C5.3095 3.3015 3.685 0.7395 3.32 0.3025C3.167 0.1215 3.028 0 2.85 0C2.334 0 0 2.886 0 3.26C0 3.2905 0.05 6.295 3.8445 10.1555C7.705 13.95 10.7095 14 10.74 14C11.114 14 14 11.666 14 11.15C14 10.972 13.8785 10.833 13.6965 10.68Z" fill="#141482"/>
</svg>
