<svg width="16" height="21" viewBox="0 0 16 21" fill="none" xmlns="http://www.w3.org/2000/svg">
    <g clip-path="url(#clip0_1255_46478)">
        <path
            d="M16.0002 10.5001C16.0002 13.5843 16.0002 16.6674 16.0002 19.7516C16.0002 20.645 15.8176 20.8298 14.9383 20.8298C10.2769 20.8298 5.61548 20.8298 0.952998 20.8298C0.240014 20.8298 0.00343312 20.6115 0.00235284 19.9137C0.000192283 13.6394 0.000192283 7.36409 0.00235284 1.08875C0.00343312 0.393051 0.243255 0.169434 0.951918 0.169434C5.63168 0.169434 10.3114 0.169434 14.9912 0.171594C15.796 0.171594 15.9991 0.376847 15.9991 1.1957C16.0013 4.29718 15.9991 7.39973 15.9991 10.5012L16.0002 10.5001ZM5.13043 3.447C5.10775 3.12075 5.14016 2.80207 5.05265 2.52012C4.90033 2.02751 4.49739 1.8363 4.00046 1.88167C3.32745 1.94325 2.4319 1.56947 2.13266 2.48123C1.94901 3.04297 1.99006 3.73759 2.12294 4.32958C2.27418 5.00368 2.92883 4.97343 3.49705 4.96371C4.10093 4.9529 4.77178 5.07174 5.04401 4.32634C5.14448 4.05195 5.10667 3.72787 5.13043 3.447ZM3.5273 19.1478C3.86435 19.1186 4.20139 19.1478 4.49847 19.0516C4.96299 18.9015 5.15204 18.5126 5.10667 18.034C5.04293 17.3599 5.42103 16.46 4.5244 16.1554C3.95185 15.9609 3.21726 15.9739 2.63175 16.15C1.80534 16.3984 2.06676 17.2281 2.03328 17.8644C2.00519 18.3764 2.08837 18.8604 2.64471 19.0473C2.92343 19.1413 3.24211 19.1186 3.52838 19.1478H3.5273ZM9.7443 5.20137C10.8375 5.20137 11.9319 5.21973 13.0251 5.18624C13.2379 5.17976 13.6063 4.99071 13.6225 4.85244C13.6657 4.48406 13.3211 4.49487 13.0467 4.49487C10.8948 4.49487 8.74288 4.49271 6.59205 4.49703C6.31442 4.49703 5.93308 4.43869 5.97413 4.86108C5.98709 4.99288 6.35871 5.17976 6.57153 5.18624C7.62804 5.21973 8.68671 5.20137 9.7443 5.20137ZM9.77347 9.9211C10.8667 9.9211 11.96 9.9211 13.0532 9.9211C13.3265 9.9211 13.6646 9.92867 13.6257 9.55597C13.6128 9.42742 13.2693 9.23945 13.0748 9.23729C10.9067 9.21352 8.73748 9.21892 6.56936 9.22108C6.30902 9.22108 5.96873 9.16923 5.95685 9.56029C5.94496 9.95891 6.28417 9.91786 6.54776 9.91894C7.62264 9.92434 8.69859 9.9211 9.77347 9.9211ZM3.59104 6.57872C3.27344 6.60789 2.93531 6.57872 2.64039 6.67811C2.05488 6.87472 2.00735 7.39433 2.03112 7.91719C2.0592 8.53835 1.82046 9.34531 2.62851 9.57541C3.21834 9.74394 3.94537 9.7569 4.52332 9.56893C5.40482 9.28374 5.04617 8.40331 5.10451 7.7465C5.14772 7.25714 4.99 6.83799 4.49631 6.67271C4.21652 6.5798 3.89784 6.60681 3.58996 6.57872H3.59104ZM5.10127 12.8551H5.10775C5.10775 12.7298 5.10775 12.6045 5.10775 12.4792C5.10019 11.6582 4.79447 11.3427 3.9821 11.3265C3.64289 11.3201 3.30152 11.3147 2.9634 11.3341C2.42218 11.3654 2.08513 11.6679 2.04732 12.1962C2.01599 12.6402 2.01815 13.0917 2.05272 13.5357C2.09269 14.051 2.40165 14.3524 2.92127 14.3827C3.34906 14.4075 3.78009 14.4075 4.20788 14.3837C4.73937 14.3546 5.06022 14.0251 5.09803 13.4979C5.11315 13.284 5.10019 13.069 5.10019 12.8541L5.10127 12.8551ZM9.82316 13.9473C8.731 13.9473 7.63776 13.9451 6.5456 13.9484C6.28093 13.9484 5.92876 13.9052 5.97521 14.2995C5.99034 14.4302 6.32846 14.6182 6.51967 14.6203C8.70507 14.6419 10.8905 14.6419 13.0748 14.6182C13.2682 14.616 13.6139 14.428 13.6236 14.3038C13.6538 13.9343 13.3233 13.9462 13.0467 13.9462C11.9718 13.9484 10.897 13.9462 9.82208 13.9462L9.82316 13.9473ZM9.77563 19.353C10.8678 19.353 11.961 19.3552 13.0532 19.3519C13.3168 19.3519 13.67 19.3941 13.6193 18.9998C13.602 18.869 13.2584 18.6908 13.0618 18.6886C10.8764 18.667 8.69103 18.667 6.50671 18.6897C6.31766 18.6919 5.9925 18.8777 5.97197 19.0149C5.91688 19.3746 6.2496 19.3509 6.49807 19.3519C7.59023 19.3552 8.68347 19.353 9.77563 19.353ZM9.23765 8.15701C9.01404 7.94744 8.91465 7.79404 8.77529 7.74002C8.62081 7.67953 8.43176 7.70977 8.25784 7.70113C8.27621 7.87614 8.24272 8.08139 8.32482 8.21859C8.44041 8.41195 8.64998 8.54699 8.80446 8.72091C9.06481 9.01583 9.29923 9.00071 9.5693 8.72091C10.104 8.16673 10.6701 7.64388 11.1897 7.07673C11.3107 6.94494 11.2956 6.68891 11.3431 6.49014C11.1292 6.53119 10.8483 6.49986 10.7133 6.62626C10.2056 7.09942 9.74646 7.62227 9.23873 8.15917L9.23765 8.15701ZM9.22145 3.41351C9.0432 3.24931 8.94382 3.10023 8.80662 3.04621C8.63918 2.98032 8.44041 2.99544 8.2546 2.976C8.28485 3.16396 8.2708 3.37678 8.35723 3.53234C8.45769 3.71167 8.65754 3.83374 8.79906 3.99362C9.054 4.28205 9.28735 4.29069 9.56174 4.0055C10.0943 3.4524 10.6453 2.91766 11.1865 2.37428C11.368 2.19279 11.5905 1.9627 11.3053 1.76068C11.1897 1.67966 10.8365 1.78877 10.6906 1.92164C10.1915 2.37752 9.73566 2.88201 9.22037 3.41243L9.22145 3.41351ZM9.23981 12.8832C9.01403 12.6715 8.91465 12.5181 8.77637 12.463C8.62189 12.4025 8.43285 12.4317 8.25784 12.4219C8.27512 12.597 8.24164 12.8022 8.32266 12.9383C8.43825 13.1317 8.64782 13.2678 8.8023 13.4406C9.06265 13.7334 9.29815 13.7226 9.5693 13.4417C10.104 12.8875 10.6701 12.3636 11.1886 11.7965C11.3096 11.6647 11.2945 11.4086 11.342 11.2099C11.1281 11.2498 10.8462 11.2185 10.7122 11.3438C10.2056 11.8181 9.74754 12.3431 9.23981 12.8832ZM9.22901 17.5868C9.02484 17.3999 8.91249 17.2454 8.76017 17.1741C8.62189 17.1093 8.44041 17.1363 8.27729 17.1233C8.28161 17.2983 8.22543 17.509 8.30429 17.6397C8.4296 17.8482 8.65214 17.9951 8.82067 18.1809C9.06805 18.4521 9.29383 18.4391 9.54661 18.1809C10.0965 17.6181 10.6733 17.079 11.2038 16.4989C11.3183 16.3736 11.2848 16.1133 11.3193 15.9156C11.1195 15.9566 10.8581 15.9318 10.7306 16.0506C10.2207 16.5248 9.75294 17.0434 9.22793 17.5889L9.22901 17.5868Z"
            fill="#586276" />
        <path
            d="M3.57793 2.55237C4.15048 2.55237 4.43711 2.90346 4.43783 3.60564C4.43783 4.04639 4.11339 4.26641 3.4645 4.26569C2.72019 4.26569 2.71371 4.26569 2.72343 3.597C2.73639 2.61502 2.51494 2.5286 3.57793 2.55129V2.55237Z"
            fill="#586276" />
        <path
            d="M4.43681 17.5877C4.43609 18.1624 4.08608 18.4498 3.38678 18.4498C2.94387 18.4498 2.72241 18.0907 2.72241 17.3727C2.72241 16.9471 3.05154 16.7346 3.70979 16.7354C4.19519 16.7354 4.43753 17.0195 4.43681 17.5877Z"
            fill="#586276" />
        <path
            d="M3.5747 8.99645C3.00431 8.99645 2.71912 8.66625 2.71912 8.00584C2.71912 7.52043 3.02159 7.27809 3.62655 7.27881C4.16885 7.27881 4.43964 7.53844 4.43892 8.05769C4.4382 8.68353 4.15012 8.99645 3.5747 8.99645Z"
            fill="#586276" />
        <path
            d="M2.71912 12.8723C2.72128 12.2911 3.04788 12.0023 3.69893 12.0059C4.19442 12.0081 4.44144 12.3267 4.44 12.9619C4.43856 13.4726 4.09071 13.7264 3.39645 13.7235C2.94345 13.7221 2.71804 13.4383 2.7202 12.8723H2.71912Z"
            fill="#586276" />
    </g>
    <defs>
        <clipPath id="clip0_1255_46478">
            <rect width="16" height="20.6614" fill="white" transform="translate(0 0.169434)" />
        </clipPath>
    </defs>
</svg>
    