<svg width="16" height="16" viewBox="0 0 16 16" fill="none" xmlns="http://www.w3.org/2000/svg">
<g id="clock 1" clip-path="url(#clip0_3_721)">
<g id="Group">
<g id="Group_2">
<path id="Vector" d="M10.8508 9.41285L8.61999 7.73973V4.33154C8.61999 3.98885 8.34299 3.71185 8.0003 3.71185C7.65761 3.71185 7.38062 3.98885 7.38062 4.33154V8.0496C7.38062 8.24479 7.47233 8.42885 7.62849 8.54535L10.1072 10.4044C10.2187 10.488 10.3489 10.5283 10.4784 10.5283C10.6674 10.5283 10.8533 10.4434 10.9747 10.2798C11.1805 10.0065 11.1247 9.61798 10.8508 9.41285Z" fill="black"/>
</g>
</g>
<g id="Group_3">
<g id="Group_4">
<path id="Vector_2" d="M8.00024 0C3.58878 0 0.000244141 3.58853 0.000244141 8C0.000244141 12.4115 3.58878 16 8.00024 16C12.4117 16 16.0002 12.4115 16.0002 8C16.0002 3.58853 12.4117 0 8.00024 0ZM8.00024 14.7607C4.2729 14.7607 1.23959 11.7273 1.23959 8C1.23959 4.27266 4.2729 1.23934 8.00024 1.23934C11.7282 1.23934 14.7609 4.27266 14.7609 8C14.7609 11.7273 11.7276 14.7607 8.00024 14.7607Z" fill="black"/>
</g>
</g>
</g>
<defs>
<clipPath id="clip0_3_721">
<rect width="16" height="16" fill="white" transform="translate(0.000244141)"/>
</clipPath>
</defs>
</svg>
