<svg width="14" height="15" viewBox="0 0 14 15" fill="none" xmlns="http://www.w3.org/2000/svg">
    <g id="copy 1" clip-path="url(#clip0_625_5902)">
        <path id="Vector"
            d="M8.50391 14.5H3.28125C2.07503 14.5 1.09375 13.5187 1.09375 12.3125V4.90234C1.09375 3.69612 2.07503 2.71484 3.28125 2.71484H8.50391C9.71013 2.71484 10.6914 3.69612 10.6914 4.90234V12.3125C10.6914 13.5187 9.71013 14.5 8.50391 14.5ZM3.28125 3.80859C2.67819 3.80859 2.1875 4.29929 2.1875 4.90234V12.3125C2.1875 12.9156 2.67819 13.4062 3.28125 13.4062H8.50391C9.10696 13.4062 9.59766 12.9156 9.59766 12.3125V4.90234C9.59766 4.29929 9.10696 3.80859 8.50391 3.80859H3.28125ZM12.8789 10.9453V2.6875C12.8789 1.48128 11.8976 0.5 10.6914 0.5H4.62109C4.31903 0.5 4.07422 0.744812 4.07422 1.04688C4.07422 1.34894 4.31903 1.59375 4.62109 1.59375H10.6914C11.2945 1.59375 11.7852 2.08444 11.7852 2.6875V10.9453C11.7852 11.2474 12.03 11.4922 12.332 11.4922C12.6341 11.4922 12.8789 11.2474 12.8789 10.9453Z"
            fill="#141482" />
    </g>
    <defs>
        <clipPath id="clip0_625_5902">
            <rect width="14" height="14" fill="white" transform="translate(0 0.5)" />
        </clipPath>
    </defs>
</svg>