<svg width="34" height="33" viewBox="0 0 34 33" fill="none" xmlns="http://www.w3.org/2000/svg">
<rect width="33.9167" height="32.8315" rx="6" fill="#141482"/>
<path fill-rule="evenodd" clip-rule="evenodd" d="M20.5 22.6581V23.7065C20.5 24.0515 20.22 24.3315 19.875 24.3315C19.53 24.3315 19.25 24.0515 19.25 23.7065V22.6648H20.2917C20.3617 22.6648 20.4308 22.6623 20.5 22.6581Z" fill="white"/>
<path fill-rule="evenodd" clip-rule="evenodd" d="M19.25 22.6648H13.625C11.8992 22.6648 10.5 21.2656 10.5 19.5398V16.9715L15.2617 19.6023C16.2933 20.1723 17.6233 20.1723 18.655 19.6023L19.25 19.274V22.6648ZM20.5 18.5831L23.4167 16.9715V19.5398C23.4167 21.1956 22.1292 22.5506 20.5 22.6581V18.5831Z" fill="white"/>
<path fill-rule="evenodd" clip-rule="evenodd" d="M19.25 18.3215L18.2517 18.8731C17.465 19.3081 16.4517 19.3081 15.665 18.8731L8.73667 15.0448C8.265 14.784 8 14.3273 8 13.8498C8 13.3715 8.265 12.9148 8.73667 12.6548L15.665 8.82563C16.4517 8.39146 17.465 8.39146 18.2517 8.82563L25.18 12.6548C25.6517 12.9148 25.9167 13.3715 25.9167 13.8498C25.9167 14.3273 25.6517 14.784 25.18 15.0448L20.5 17.6306V17.0398C20.5 16.874 20.4342 16.7148 20.3167 16.5981L17.4 13.6815C17.1567 13.4373 16.76 13.4373 16.5167 13.6815C16.2725 13.9248 16.2725 14.3215 16.5167 14.5648L19.25 17.299V18.3215Z" fill="white"/>
</svg>
