<svg width="28" height="28" viewBox="0 0 28 28" fill="none" xmlns="http://www.w3.org/2000/svg">
<rect x="1" y="1" width="26" height="26" rx="13" fill="white"/>
<rect x="1" y="1" width="26" height="26" rx="13" stroke="#666666" stroke-width="2"/>
<g filter="url(#filter0_d_709_25190)">
<path d="M14.518 19.4508C13.8072 19.4508 13.139 19.3106 12.5134 19.0303C11.8877 18.745 11.3371 18.3521 10.8616 17.8516C10.3911 17.3511 10.0207 16.773 9.75046 16.1173C9.48518 15.4566 9.35254 14.7508 9.35254 14C9.35254 13.2442 9.48518 12.5385 9.75046 11.8828C10.0207 11.2221 10.3911 10.644 10.8616 10.1485C11.3371 9.64797 11.8877 9.25756 12.5134 8.97727C13.139 8.69197 13.8072 8.54932 14.518 8.54932C15.3689 8.54932 16.1522 8.74702 16.8679 9.14244C17.5837 9.53285 18.1768 10.0559 18.6473 10.7116L16.6352 11.7927C16.3749 11.4924 16.0621 11.2522 15.6967 11.072C15.3313 10.8918 14.9384 10.8017 14.518 10.8017C14.1175 10.8017 13.7396 10.8843 13.3843 11.0494C13.0339 11.2146 12.7236 11.4449 12.4533 11.7402C12.188 12.0305 11.9803 12.3683 11.8301 12.7537C11.68 13.1391 11.6049 13.5546 11.6049 14C11.6049 14.4405 11.68 14.8534 11.8301 15.2388C11.9803 15.6243 12.188 15.9646 12.4533 16.2599C12.7236 16.5502 13.0339 16.7805 13.3843 16.9506C13.7396 17.1158 14.1175 17.1984 14.518 17.1984C14.9384 17.1984 15.3313 17.1083 15.6967 16.9281C16.0621 16.7429 16.3749 16.4977 16.6352 16.1923L18.6473 17.2885C18.1768 17.9392 17.5837 18.4622 16.8679 18.8576C16.1522 19.2531 15.3689 19.4508 14.518 19.4508Z" fill="#666666"/>
</g>
<defs>
<filter id="filter0_d_709_25190" x="9.35254" y="8.54932" width="10.2949" height="10.9015" filterUnits="userSpaceOnUse" color-interpolation-filters="sRGB">
<feFlood flood-opacity="0" result="BackgroundImageFix"/>
<feColorMatrix in="SourceAlpha" type="matrix" values="0 0 0 0 0 0 0 0 0 0 0 0 0 0 0 0 0 0 127 0" result="hardAlpha"/>
<feOffset dx="1"/>
<feComposite in2="hardAlpha" operator="out"/>
<feColorMatrix type="matrix" values="0 0 0 0 1 0 0 0 0 0.917877 0 0 0 0 0.774161 0 0 0 1 0"/>
<feBlend mode="normal" in2="BackgroundImageFix" result="effect1_dropShadow_709_25190"/>
<feBlend mode="normal" in="SourceGraphic" in2="effect1_dropShadow_709_25190" result="shape"/>
</filter>
</defs>
</svg>
