<svg width="22" height="22" viewBox="0 0 22 22" fill="none" xmlns="http://www.w3.org/2000/svg">
<path d="M4.67285 18.4013C4.39785 18.4013 4.12285 18.2965 3.91316 18.0868C3.49379 17.6674 3.49379 16.9872 3.91316 16.5674L16.5679 3.91313C16.9873 3.49376 17.6675 3.49376 18.0873 3.91313C18.5066 4.33251 18.5066 5.0127 18.0873 5.43251L5.43211 18.0868C5.22242 18.2965 4.94785 18.4013 4.67285 18.4013Z" fill="#677995"/>
<path d="M17.3271 18.4014C17.0521 18.4014 16.7771 18.2965 16.5675 18.0868L3.91316 5.43211C3.49379 5.01274 3.49379 4.33254 3.91316 3.91274C4.33254 3.49336 5.01273 3.49336 5.43254 3.91274L18.0873 16.5675C18.5066 16.9868 18.5066 17.667 18.0873 18.0868C17.8771 18.2965 17.6021 18.4014 17.3271 18.4014Z" fill="#677995"/>
</svg>
