<svg width="16" height="17" viewBox="0 0 16 17" fill="none" xmlns="http://www.w3.org/2000/svg">
<g id="csv 1" clip-path="url(#clip0_174_1195)">
<g id="_x31_4-csv_2_">
<g id="Group">
<path id="Vector" d="M10.8125 4.24976H13.8191L10.3438 0.774414V3.78101C10.3438 4.03963 10.5543 4.24976 10.8125 4.24976Z" fill="#586276"/>
<path id="Vector_2" d="M10.8125 5.1875C10.0371 5.1875 9.40625 4.55669 9.40625 3.78125V0.5H3.3125C2.53706 0.5 1.90625 1.13081 1.90625 1.90625V7.125H14.0938V5.1875H10.8125Z" fill="#586276"/>
</g>
<path id="Vector_3" d="M14.5938 8.0625H1.40625C0.630813 8.0625 0 8.69331 0 9.46875V15.0938C0 15.8692 0.630813 16.5 1.40625 16.5H14.5938C15.3692 16.5 16 15.8692 16 15.0938V9.46875C16 8.69331 15.3692 8.0625 14.5938 8.0625ZM4.25 13.6875C4.50819 13.6875 4.71875 13.4774 4.71875 13.2188C4.71875 12.9597 4.92841 12.75 5.1875 12.75C5.44659 12.75 5.65625 12.9597 5.65625 13.2188C5.65625 13.9942 5.02544 14.625 4.25 14.625C3.47456 14.625 2.84375 13.9942 2.84375 13.2188V11.3438C2.84375 10.5683 3.47456 9.9375 4.25 9.9375C5.02544 9.9375 5.65625 10.5683 5.65625 11.3438C5.65625 11.6028 5.44659 11.8125 5.1875 11.8125C4.92841 11.8125 4.71875 11.6028 4.71875 11.3438C4.71875 11.0851 4.50819 10.875 4.25 10.875C3.99181 10.875 3.78125 11.0851 3.78125 11.3438V13.2188C3.78125 13.4774 3.99181 13.6875 4.25 13.6875ZM8 14.625C7.62372 14.625 7.27031 14.4785 7.00481 14.2126C6.82263 14.0295 6.82263 13.7324 7.00572 13.5497C7.18881 13.3675 7.48638 13.3666 7.66947 13.5506C7.93866 13.8207 8.46875 13.6033 8.46875 13.2188C8.46875 12.9601 8.25819 12.75 8 12.75C7.22456 12.75 6.59375 12.1192 6.59375 11.3438C6.59375 10.5683 7.22456 9.9375 8 9.9375C8.37628 9.9375 8.72969 10.084 8.99519 10.3499C9.17737 10.533 9.17737 10.8301 8.99428 11.0128C8.81119 11.195 8.51363 11.1959 8.33053 11.0119C8.06225 10.7418 7.53125 10.9592 7.53125 11.3438C7.53125 11.6024 7.74181 11.8125 8 11.8125C8.77544 11.8125 9.40625 12.4433 9.40625 13.2188C9.40625 13.9942 8.77544 14.625 8 14.625ZM13.1425 10.5198L12.205 14.2698C12.1528 14.4785 11.9652 14.625 11.75 14.625C11.5348 14.625 11.3472 14.4785 11.295 14.2698L10.3575 10.5198C10.2952 10.2689 10.4472 10.0144 10.699 9.95169C10.9453 9.88531 11.2043 10.0409 11.2675 10.2927L11.75 12.2236L12.2325 10.2927C12.2947 10.0414 12.5465 9.88622 12.801 9.95169C13.0528 10.0144 13.2048 10.2689 13.1425 10.5198Z" fill="#586276"/>
</g>
</g>
<defs>
<clipPath id="clip0_174_1195">
<rect width="16" height="16" fill="white" transform="translate(0 0.5)"/>
</clipPath>
</defs>
</svg>
