<svg width="14" height="14" viewBox="0 0 14 14" fill="none" xmlns="http://www.w3.org/2000/svg">
<g clip-path="url(#clip0_59_6428)">
<path d="M1.70093 4.10156L2.42742 12.8717C2.47949 13.5041 3.01821 14 3.65308 14H10.347C10.9818 14 11.5206 13.5041 11.5726 12.8717L12.2991 4.10156H1.70093ZM4.94885 12.3594C4.73414 12.3594 4.55351 12.1924 4.53989 11.9748L4.12974 5.35765C4.11571 5.13136 4.28754 4.9367 4.51345 4.92267C4.74776 4.90623 4.93403 5.08009 4.94844 5.30638L5.35859 11.9236C5.37311 12.1579 5.18769 12.3594 4.94885 12.3594ZM7.41017 11.9492C7.41017 12.1759 7.22672 12.3594 7.00001 12.3594C6.7733 12.3594 6.58985 12.1759 6.58985 11.9492V5.33203C6.58985 5.10532 6.7733 4.92188 7.00001 4.92188C7.22672 4.92188 7.41017 5.10532 7.41017 5.33203V11.9492ZM9.87028 5.35768L9.46013 11.9749C9.44665 12.1902 9.26719 12.3696 9.02514 12.3586C8.79923 12.3446 8.6274 12.1499 8.64143 11.9236L9.05158 5.30641C9.06561 5.08011 9.26388 4.91548 9.48657 4.9227C9.71248 4.93672 9.88431 5.13138 9.87028 5.35768Z" fill="#DD4141"/>
<path d="M12.332 1.64062H9.87109V1.23047C9.87109 0.551961 9.31913 0 8.64062 0H5.35938C4.68087 0 4.12891 0.551961 4.12891 1.23047V1.64062H1.66797C1.21491 1.64062 0.847656 2.00788 0.847656 2.46094C0.847656 2.91394 1.21491 3.28125 1.66797 3.28125C5.44048 3.28125 8.55966 3.28125 12.332 3.28125C12.7851 3.28125 13.1523 2.91394 13.1523 2.46094C13.1523 2.00788 12.7851 1.64062 12.332 1.64062ZM9.05078 1.64062H4.94922V1.23047C4.94922 1.00417 5.13308 0.820312 5.35938 0.820312H8.64062C8.86692 0.820312 9.05078 1.00417 9.05078 1.23047V1.64062Z" fill="#DD4141"/>
</g>
<defs>
<clipPath id="clip0_59_6428">
<rect width="14" height="14" fill="white"/>
</clipPath>
</defs>
</svg>
