<svg width="55" height="56" viewBox="0 0 55 56" fill="none" xmlns="http://www.w3.org/2000/svg">
<g clip-path="url(#clip0_115_3571)">
<path d="M0 43.1419C0.185269 42.5888 0.373303 42.0386 0.553042 41.4828C1.9633 37.1635 5.92584 34.1079 10.4857 33.8287C14.946 33.5549 19.2237 36.1044 21.1594 40.1859C23.1006 44.2811 22.3678 49.1313 19.2984 52.4523C19.0329 52.7372 18.7205 52.9805 18.2642 53.3925C17.9766 50.6439 18.8725 47.8206 16.3534 45.8407C14.3017 44.2258 11.9485 44.5604 9.64228 44.5604C7.47159 44.5604 5.48617 45.3734 4.70085 47.3975C4.02061 49.1534 4.05656 51.1886 3.76621 53.1768C1.60935 51.5979 0.785319 49.1728 0 46.7201C0 45.5282 0 44.3337 0 43.1419ZM11.1576 35.6205C8.82102 35.6012 6.92685 37.4566 6.91855 39.7711C6.91302 42.0551 8.8459 43.9742 11.141 43.9631C13.3864 43.9521 15.2557 42.1077 15.3082 39.8568C15.3607 37.5506 13.4887 35.6399 11.1604 35.6177L11.1576 35.6205Z" fill="#141482"/>
<path d="M7.4301 55.5251C7.25313 55.3841 6.92407 55.243 6.92131 55.0992C6.89365 53.3212 6.90195 51.5404 6.9379 49.7596C6.94343 49.5108 7.13699 49.2647 7.24484 49.0186C7.39692 49.1126 7.55177 49.2066 7.70386 49.3006V55.5223H7.42734L7.4301 55.5251Z" fill="#141482"/>
<path d="M40.1702 55.5243C39.9877 55.2423 39.6586 54.963 39.6475 54.6754C39.595 53.1766 39.5978 51.6724 39.6503 50.1709C39.6614 49.8501 39.96 49.5376 40.4439 49.3164V55.5243H40.1674H40.1702Z" fill="#141482"/>
<path d="M47.3238 55.5249V49.3695C47.4095 49.3225 47.4925 49.2755 47.5782 49.2285C47.7718 49.4967 48.1202 49.7594 48.1285 50.036C48.1838 51.6315 48.1838 53.2325 48.1395 54.8281C48.134 55.0659 47.7883 55.2926 47.6003 55.5249H47.3238Z" fill="#141482"/>
<path d="M14.5837 55.5238V49.3214C14.686 49.2882 14.7911 49.2578 14.8934 49.2246C15.0621 49.5426 15.3607 49.8523 15.3718 50.1758C15.4243 51.6746 15.4271 53.1761 15.3773 54.6721C15.3663 54.9624 15.04 55.2389 14.8575 55.5238H14.5809H14.5837Z" fill="#141482"/>
<path d="M51.0457 53.3065C50.7803 50.6188 51.6375 47.8536 49.1792 45.8737C47.0943 44.1952 44.6913 44.5574 42.3409 44.5657C40.2255 44.5713 38.276 45.3953 37.5101 47.3613C36.8243 49.1228 36.8547 51.1635 36.5754 53.03C34.3439 52.0816 32.3502 47.2867 32.8562 43.7113C33.6166 38.3357 37.4409 34.5446 42.7861 33.8727C47.498 33.2809 52.362 36.2093 54.1981 40.747C55.9927 45.1796 54.6958 50.5773 51.043 53.3093L51.0457 53.3065ZM48.1063 39.7653C48.0925 37.4481 46.1956 35.5981 43.859 35.623C41.5279 35.6479 39.6586 37.5642 39.7167 39.8676C39.7748 42.1157 41.6468 43.9574 43.8922 43.9657C46.1817 43.974 48.1202 42.0438 48.1091 39.7653H48.1063Z" fill="#141482"/>
<path d="M20.1362 19.8674C16.7765 17.257 15.4437 12.2824 16.9507 7.96038C18.5407 3.39779 22.8434 0.414125 27.7046 0.499846C32.4359 0.585568 36.6169 3.74897 38.0465 8.33368C39.3627 12.5534 37.9221 17.5501 34.5761 19.9531C34.3411 17.2349 35.1845 14.2872 32.4525 12.3432C30.2569 10.7809 27.7931 11.2206 25.4095 11.2814C23.3549 11.3339 21.5382 12.346 20.8801 14.3065C20.3021 16.0265 20.363 17.9594 20.1335 19.8674H20.1362ZM27.4834 10.6482C29.7592 10.6205 31.6533 8.68763 31.6312 6.41186C31.6091 4.12227 29.6873 2.24469 27.4004 2.27235C25.0832 2.3 23.2526 4.17757 23.2747 6.49758C23.2969 8.8093 25.191 10.6758 27.4834 10.6482Z" fill="#141482"/>
<path d="M27.4834 32.0147C25.8575 33.7291 24.5108 35.1642 23.1503 36.58C22.6388 37.1137 22.0526 37.7718 21.3225 36.981C20.6865 36.2952 21.2451 35.7394 21.7567 35.2389C23.095 33.9254 24.4638 32.6396 25.7358 31.2625C26.1202 30.8477 26.3801 30.1813 26.4188 29.6117C26.5128 28.1544 26.369 26.6778 26.499 25.2288C26.5405 24.7615 27.1488 24.344 27.5 23.9043C27.7959 24.3412 28.3075 24.7615 28.3462 25.2178C28.4595 26.581 28.2853 27.9692 28.4291 29.3269C28.5066 30.0624 28.8467 30.8892 29.3334 31.4367C30.5777 32.8332 31.9741 34.0969 33.307 35.4159C33.8102 35.9136 34.1891 36.5468 33.4618 37.0114C33.1383 37.2188 32.2894 37.0584 31.9797 36.757C30.5086 35.3246 29.1426 33.7844 27.489 32.0119L27.4834 32.0147Z" fill="#141482"/>
<path d="M30.9482 15.9736C31.9963 16.7175 32.0433 21.3879 30.9482 22.0792V15.9736Z" fill="#141482"/>
<path d="M23.8831 22.4022C23.4932 21.8796 23.2112 21.6667 23.1614 21.4067C22.8047 19.5596 23.1614 16.6008 23.8831 15.8984V22.4022Z" fill="#141482"/>
</g>
<defs>
<clipPath id="clip0_115_3571">
<rect width="55" height="55.0249" fill="white" transform="translate(0 0.5)"/>
</clipPath>
</defs>
</svg>
