<svg width="16" height="16" viewBox="0 0 16 16" fill="none" xmlns="http://www.w3.org/2000/svg">
<path fill-rule="evenodd" clip-rule="evenodd" d="M1.70942 11.2002C2.15125 11.2002 2.50942 11.5584 2.50942 12.0002V13.6002C2.50942 13.8124 2.5937 14.0158 2.74375 14.1659C2.89377 14.3159 3.09724 14.4002 3.30942 14.4002H12.9094C13.1216 14.4002 13.325 14.316 13.4751 14.1659C13.6252 14.0158 13.7094 13.8124 13.7094 13.6002V12.0002C13.7094 11.5584 14.0676 11.2002 14.5094 11.2002C14.9512 11.2002 15.3094 11.5584 15.3094 12.0002V13.6002C15.3094 14.2367 15.0566 14.8472 14.6064 15.2972C14.1564 15.7473 13.5459 16.0002 12.9094 16.0002H3.30942C2.67292 16.0002 2.06245 15.7474 1.61235 15.2972C1.16229 14.8472 0.909424 14.2367 0.909424 13.6002V12.0002C0.909424 11.5584 1.26759 11.2002 1.70942 11.2002Z" fill="#586276"/>
<path fill-rule="evenodd" clip-rule="evenodd" d="M3.54364 6.63373C3.85606 6.32131 4.36259 6.32131 4.67501 6.63373L8.10931 10.0681L11.5436 6.63373C11.856 6.32131 12.3626 6.32131 12.675 6.63373C12.9875 6.94613 12.9875 7.45269 12.675 7.76509L8.67499 11.7651C8.36259 12.0775 7.85603 12.0775 7.54363 11.7651L3.54364 7.76509C3.23122 7.45269 3.23122 6.94613 3.54364 6.63373Z" fill="#586276"/>
<path fill-rule="evenodd" clip-rule="evenodd" d="M8.10933 0.799805C8.55117 0.799805 8.90933 1.15798 8.90933 1.5998V11.1998C8.90933 11.6416 8.55117 11.9998 8.10933 11.9998C7.66749 11.9998 7.30933 11.6416 7.30933 11.1998V1.5998C7.30933 1.15798 7.66749 0.799805 8.10933 0.799805Z" fill="#586276"/>
</svg>
