<svg width="56" height="56" viewBox="0 0 56 56" fill="none" xmlns="http://www.w3.org/2000/svg">
<path d="M40.375 26.8753H17.9318L26.5257 18.6898C26.9757 18.2611 26.9931 17.549 26.5645 17.099C26.1364 16.6496 25.4243 16.6316 24.9738 17.0602L15.1592 26.409C14.7346 26.8342 14.5 27.399 14.5 28.0003C14.5 28.601 14.7346 29.1663 15.1789 29.6101L24.9743 38.9398C25.192 39.1473 25.471 39.2503 25.75 39.2503C26.047 39.2503 26.344 39.1333 26.5651 38.901C26.9937 38.451 26.9762 37.7394 26.5262 37.3108L17.8964 29.1253H40.375C40.996 29.1253 41.5 28.6213 41.5 28.0003C41.5 27.3793 40.996 26.8753 40.375 26.8753Z" fill="white"/>
</svg>
