<svg width="33" height="34" viewBox="0 0 33 34" fill="none" xmlns="http://www.w3.org/2000/svg">
    <rect y="0.663086" width="33" height="33" rx="6" fill="#141482" />
    <path
        d="M11.5 17.6631C10.3972 17.6631 9.5 16.7661 9.5 15.6631C9.5 14.5601 10.3972 13.6631 11.5 13.6631C12.6028 13.6631 13.5 14.5601 13.5 15.6631C13.5 16.7661 12.6028 17.6631 11.5 17.6631ZM12.385 17.998C11.8149 18.2183 11.1851 18.2183 10.615 17.998C10.47 17.9429 10.3049 17.9629 10.175 18.043C9.43994 18.5083 9 19.2979 9 20.1631V22.1631C9 22.438 9.2251 22.6631 9.5 22.6631H12V20.1631C12 19.3882 12.2051 18.6333 12.575 17.9731C12.51 17.9629 12.4451 17.9731 12.385 17.998ZM21.5 17.6631C22.6028 17.6631 23.5 16.7661 23.5 15.6631C23.5 14.5601 22.6028 13.6631 21.5 13.6631C20.3972 13.6631 19.5 14.5601 19.5 15.6631C19.5 16.7661 20.3972 17.6631 21.5 17.6631ZM22.825 18.043C22.6951 17.9629 22.53 17.9429 22.385 17.998C21.8149 18.2183 21.1851 18.2183 20.615 17.998C20.5549 17.9731 20.49 17.9629 20.425 17.9731C20.7949 18.6333 21 19.3882 21 20.1631V22.6631H23.5C23.7749 22.6631 24 22.438 24 22.1631V20.1631C24 19.2979 23.5601 18.5083 22.825 18.043ZM16.5 16.6631C15.1216 16.6631 14 15.5415 14 14.1631C14 12.7847 15.1216 11.6631 16.5 11.6631C17.8784 11.6631 19 12.7847 19 14.1631C19 15.5415 17.8784 16.6631 16.5 16.6631ZM20 20.1631C20 19.0479 19.4651 17.998 18.5649 17.3433C18.415 17.2329 18.2151 17.2183 18.05 17.2979C17.7151 17.4683 17.3601 17.5732 17 17.623V20.1631C17 20.438 16.7749 20.6631 16.5 20.6631C16.2251 20.6631 16 20.438 16 20.1631V17.623C15.6399 17.5732 15.2849 17.4683 14.95 17.2979C14.7849 17.2183 14.585 17.2329 14.4351 17.3433C13.5349 17.998 13 19.0479 13 20.1631V22.6631H20V20.1631Z"
        fill="white" />
</svg>