<svg width="16" height="16" viewBox="0 0 16 16" fill="none" xmlns="http://www.w3.org/2000/svg">
<g id="eye 1" clip-path="url(#clip0_3_691)">
<g id="Group">
<path id="Vector" d="M8 3.23145C4.94303 3.23145 2.17081 4.90394 0.125192 7.62052C-0.0417306 7.84308 -0.0417306 8.15402 0.125192 8.37658C2.17081 11.0964 4.94303 12.7689 8 12.7689C11.057 12.7689 13.8292 11.0964 15.8748 8.37985C16.0417 8.15729 16.0417 7.84636 15.8748 7.62379C13.8292 4.90394 11.057 3.23145 8 3.23145ZM8.21929 11.3583C6.19004 11.4859 4.51427 9.81342 4.64191 7.7809C4.74665 6.10513 6.10494 4.74684 7.78071 4.6421C9.80996 4.51446 11.4857 6.18695 11.3581 8.21948C11.2501 9.89197 9.89179 11.2503 8.21929 11.3583ZM8.11783 9.80688C7.02465 9.87561 6.1213 8.97554 6.19331 7.88236C6.24895 6.97902 6.9821 6.24914 7.88545 6.19023C8.97862 6.12149 9.88197 7.02156 9.80996 8.11474C9.75105 9.02136 9.0179 9.75124 8.11783 9.80688Z" fill="#586276"/>
</g>
</g>
<defs>
<clipPath id="clip0_3_691">
<rect width="16" height="16" fill="white"/>
</clipPath>
</defs>
</svg>
