<svg width="56" height="56" viewBox="0 0 56 56" fill="none" xmlns="http://www.w3.org/2000/svg">
<g clip-path="url(#clip0_115_3608)">
<path d="M34.7576 39.4202H45.6697V40.0044C45.6697 40.3465 45.4381 40.6444 45.1079 40.7313L41.006 41.7971C40.8066 42.3846 40.5664 42.9625 40.2898 43.5232L42.4384 47.1759C42.6121 47.4708 42.5638 47.8449 42.3226 48.0872L38.3107 52.0991C38.0683 52.3403 37.6942 52.3886 37.3994 52.2149L33.7466 50.0663C33.1859 50.3429 32.6081 50.5831 32.0205 50.7825L30.9537 54.8844C30.868 55.2146 30.5699 55.4462 30.2278 55.4462H24.5563C24.2142 55.4462 23.9163 55.2146 23.8304 54.8833L22.7668 50.7825C22.1772 50.5831 21.5993 50.344 21.0397 50.0663L17.3848 52.2149C17.0899 52.3886 16.7158 52.3403 16.4735 52.0991L12.4616 48.0872C12.2204 47.8449 12.1721 47.4707 12.3458 47.1759L14.4955 43.5232C14.221 42.9689 13.9819 42.3911 13.7793 41.7971L9.67737 40.7313C9.34609 40.6444 9.11556 40.3465 9.11556 40.0044V39.4202H20.0309C20.9958 42.5701 23.9302 44.8666 27.3921 44.8666C30.8551 44.8666 33.7917 42.5701 34.7576 39.4202ZM49.0308 37.1687C49.0308 37.5837 48.6942 37.9192 48.2804 37.9192H7.71972C7.30582 37.9192 6.96927 37.5836 6.96927 37.1687C6.96927 36.7537 7.30593 36.4183 7.71972 36.4183H11.7895V16.4123C11.7895 16.0724 12.0179 15.7745 12.3459 15.6865L27.2496 11.6875V5.45315C27.2496 5.11326 27.4779 4.81635 27.806 4.7273L43.2618 0.5792C43.488 0.519151 43.7281 0.56631 43.9136 0.708966C44.0991 0.85044 44.2074 1.07141 44.2074 1.30398V36.4183H48.2804C48.6942 36.4183 49.0308 36.7538 49.0308 37.1687ZM23.8551 31.7985H16.6858V33.4764H23.8551V31.7985ZM23.8551 26.3198H16.6858V27.9966H23.8551V26.3198ZM23.8551 20.837H16.6858V22.5139H23.8551V20.837ZM34.9778 31.0597H32.1427V36.4183H34.9778V31.0597ZM39.3141 31.0597H36.479V36.4183H39.3141V31.0597ZM42.7064 2.2828L28.7505 6.02882V36.4183H30.6406V28.0268C30.6406 27.613 30.9773 27.2763 31.3911 27.2763H40.0656C40.4794 27.2763 40.8161 27.613 40.8161 28.0268V36.4183H42.7063V2.2828H42.7064ZM36.8805 13.0567H40.0657C40.4795 13.0567 40.8162 12.7211 40.8162 12.3062V9.1273C40.8162 8.71243 40.4795 8.37685 40.0657 8.37685H36.8805C36.4655 8.37685 36.13 8.71243 36.13 9.1273V12.3061C36.1299 12.7211 36.4655 13.0567 36.8805 13.0567ZM31.3911 13.0567H34.5796C34.9945 13.0567 35.33 12.7211 35.33 12.3062V9.1273C35.33 8.71243 34.9945 8.37685 34.5796 8.37685H31.3911C30.9773 8.37685 30.6406 8.71243 30.6406 9.1273V12.3061C30.6406 12.7211 30.9773 13.0567 31.3911 13.0567ZM36.8805 18.5363H40.0657C40.4795 18.5363 40.8162 18.1996 40.8162 17.7858V14.607C40.8162 14.192 40.4795 13.8565 40.0657 13.8565H36.8805C36.4655 13.8565 36.13 14.1921 36.13 14.607V17.7858C36.1299 18.1996 36.4655 18.5363 36.8805 18.5363ZM31.3911 18.5363H34.5796C34.9945 18.5363 35.33 18.1996 35.33 17.7858V14.607C35.33 14.192 34.9945 13.8565 34.5796 13.8565H31.3911C30.9773 13.8565 30.6406 14.1921 30.6406 14.607V17.7858C30.6406 18.1996 30.9773 18.5363 31.3911 18.5363ZM36.8805 24.0159H40.0657C40.4795 24.0159 40.8162 23.6792 40.8162 23.2654V20.0866C40.8162 19.6717 40.4795 19.3351 40.0657 19.3351H36.8805C36.4655 19.3351 36.13 19.6717 36.13 20.0866V23.2654C36.1299 23.6792 36.4655 24.0159 36.8805 24.0159ZM31.3911 24.0159H34.5796C34.9945 24.0159 35.33 23.6792 35.33 23.2654V20.0866C35.33 19.6717 34.9945 19.3351 34.5796 19.3351H31.3911C30.9773 19.3351 30.6406 19.6717 30.6406 20.0866V23.2654C30.6406 23.6792 30.9773 24.0159 31.3911 24.0159Z" fill="#141482"/>
</g>
<defs>
<clipPath id="clip0_115_3608">
<rect width="55" height="55" fill="white" transform="translate(0.5 0.5)"/>
</clipPath>
</defs>
</svg>
