<svg width="26" height="26" viewBox="0 0 26 26" fill="none" xmlns="http://www.w3.org/2000/svg">
<path fill-rule="evenodd" clip-rule="evenodd" d="M13 0C5.82969 0 0 5.82969 0 13C0 20.1703 5.82969 26 13 26C20.1703 26 26 20.1703 26 13C26 5.82969 20.1703 0 13 0Z" fill="#4BAE4F"/>
<path fill-rule="evenodd" clip-rule="evenodd" d="M19.2861 8.61885C19.601 8.93369 19.601 9.45166 19.2861 9.7665L11.6689 17.3837C11.5115 17.5411 11.3033 17.6224 11.0951 17.6224C10.8869 17.6224 10.6787 17.5411 10.5213 17.3837L6.7127 13.5751C6.39785 13.2603 6.39785 12.7423 6.7127 12.4274C7.02754 12.1126 7.54551 12.1126 7.86035 12.4274L11.0951 15.6622L18.1385 8.61885C18.4533 8.29893 18.9713 8.29893 19.2861 8.61885Z" fill="white"/>
</svg>
