<svg width="20" height="20" viewBox="0 0 20 20" fill="none" xmlns="http://www.w3.org/2000/svg">
<g id="Group 2">
<path id="Vector" d="M19.9484 7.65955C19.8174 7.25457 19.4582 6.96693 19.0333 6.92863L13.2607 6.40448L10.9781 1.06178C10.8098 0.670234 10.4265 0.416779 10.0006 0.416779C9.57471 0.416779 9.1914 0.670234 9.02309 1.0627L6.74047 6.40448L0.967002 6.92863C0.542797 6.96785 0.184511 7.25457 0.0528248 7.65955C-0.078862 8.06453 0.0427537 8.50872 0.363654 8.78873L4.72702 12.6154L3.44036 18.2831C3.34621 18.6999 3.50796 19.1306 3.85373 19.3806C4.03959 19.5149 4.25703 19.5832 4.47631 19.5832C4.66537 19.5832 4.85291 19.5323 5.02121 19.4315L10.0006 16.4556L14.9781 19.4315C15.3424 19.6507 15.8015 19.6307 16.1465 19.3806C16.4925 19.1299 16.6541 18.699 16.5599 18.2831L15.2732 12.6154L19.6366 8.78949C19.9575 8.50872 20.08 8.06529 19.9484 7.65955Z" fill="#DFDFDF"/>
<path id="Subtract" fill-rule="evenodd" clip-rule="evenodd" d="M10.0001 0.416779C9.57433 0.416867 9.19112 0.670302 9.02284 1.0627L6.74022 6.40448L0.966758 6.92863C0.542553 6.96785 0.184267 7.25457 0.0525806 7.65955C-0.0791061 8.06453 0.0425096 8.50872 0.36341 8.78873L4.72677 12.6154L3.44012 18.2831C3.34597 18.6999 3.50772 19.1306 3.85349 19.3806C4.03935 19.5149 4.25679 19.5832 4.47606 19.5832C4.66513 19.5832 4.85266 19.5323 5.02097 19.4315L10.0001 16.4557V0.416779Z" fill="#FFC107"/>
</g>
</svg>
