<svg width="24" height="25" viewBox="0 0 24 25" fill="none" xmlns="http://www.w3.org/2000/svg">
<path d="M10.7429 5.50345C11.1494 5.44336 11.5686 5.41113 12.0004 5.41113C17.1054 5.41113 20.4553 9.91597 21.5807 11.698C21.7169 11.9136 21.785 12.0215 21.8231 12.1878C21.8518 12.3127 21.8517 12.5098 21.8231 12.6347C21.7849 12.801 21.7164 12.9096 21.5792 13.1267C21.2793 13.6013 20.8222 14.2682 20.2165 14.9916M6.72432 7.12617C4.56225 8.59283 3.09445 10.6305 2.42111 11.6964C2.28428 11.913 2.21587 12.0213 2.17774 12.1876C2.1491 12.3125 2.14909 12.5096 2.17771 12.6345C2.21583 12.8008 2.28393 12.9086 2.42013 13.1243C3.54554 14.9063 6.89541 19.4111 12.0004 19.4111C14.0588 19.4111 15.8319 18.6787 17.2888 17.6877M3.00042 3.41113L21.0004 21.4111M9.8791 10.2898C9.3362 10.8327 9.00042 11.5827 9.00042 12.4111C9.00042 14.068 10.3436 15.4111 12.0004 15.4111C12.8288 15.4111 13.5788 15.0753 14.1217 14.5325" stroke="#9A9A9A" stroke-width="2" stroke-linecap="round" stroke-linejoin="round"/>
</svg>
