<svg width="36" height="37" viewBox="0 0 36 37" fill="none" xmlns="http://www.w3.org/2000/svg">
<rect width="36" height="37" rx="6" fill="#F3F4F6"/>
<g clip-path="url(#clip0_85_30)">
<path d="M27.6643 17.6044L24.6332 14.5733V11.0718C24.6332 10.4387 24.1201 9.92564 23.4861 9.92564C22.8535 9.92564 22.3405 10.4387 22.3405 11.0718V12.2806L20.0836 10.0236C18.9678 8.9084 17.0277 8.91038 15.9144 10.0256L8.33555 17.6044C7.88815 18.0526 7.88815 18.778 8.33555 19.2256C8.78315 19.6738 9.50992 19.6738 9.95736 19.2256L17.5355 11.6467C17.7824 11.4011 18.2175 11.4011 18.4631 11.646L26.0425 19.2256C26.2673 19.4497 26.5603 19.5612 26.8532 19.5612C27.1468 19.5612 27.4403 19.4496 27.6643 19.2256C28.1119 18.778 28.1119 18.0527 27.6643 17.6044Z" fill="#606C85"/>
<path d="M18.3981 13.8224C18.1779 13.6024 17.8214 13.6024 17.6019 13.8224L10.9355 20.4868C10.8302 20.5921 10.7706 20.7357 10.7706 20.8856V25.7464C10.7706 26.887 11.6954 27.8118 12.836 27.8118H16.1365V22.7003H19.8628V27.8118H23.1634C24.3039 27.8118 25.2287 26.887 25.2287 25.7464V20.8856C25.2287 20.7357 25.1696 20.5921 25.0638 20.4868L18.3981 13.8224Z" fill="#606C85"/>
</g>
<defs>
<clipPath id="clip0_85_30">
<rect width="20" height="20" fill="white" transform="translate(8 8.5)"/>
</clipPath>
</defs>
</svg>
