<svg width="20" height="20" viewBox="0 0 20 20" fill="none" xmlns="http://www.w3.org/2000/svg">
<path d="M17.739 0.625977H2.26204C1.01449 0.625977 0 1.64014 0 2.88916V17.1134C0 18.361 1.01449 19.3741 2.26204 19.3741H17.739C18.9865 19.3741 19.9999 18.361 19.9999 17.1134V2.88916C20 1.64014 18.9866 0.625977 17.739 0.625977ZM12.933 3.99176C14.1395 3.99176 15.1179 4.97023 15.1179 6.17661C15.1179 7.38298 14.1394 8.36146 12.933 8.36146C11.7262 8.36146 10.7482 7.38298 10.7482 6.17661C10.7482 4.97023 11.7262 3.99176 12.933 3.99176ZM17.0296 17.2831H9.9998H3.28317C2.67974 17.2831 2.41101 16.8465 2.68302 16.3079L6.43263 8.88112C6.70432 8.34258 7.22211 8.29451 7.58879 8.77367L11.3592 13.7009C11.7258 14.1802 12.3668 14.2209 12.7909 13.7916L13.7133 12.8576C14.1372 12.4282 14.7617 12.4814 15.1076 12.9755L17.4961 16.3872C17.8413 16.8821 17.633 17.2831 17.0296 17.2831Z" fill="#32B237"/>
</svg>
