<svg
  width="29"
  height="30"
  viewBox="0 0 29 30"
  fill="none"
  xmlns="http://www.w3.org/2000/svg"
>
  <g clip-path="url(#clip0_4255_6566)">
    <path
      d="M16.75 17.2441C16.75 17.3436 16.7895 17.439 16.8598 17.5093C16.9302 17.5796 17.0255 17.6191 17.125 17.6191H19V16.8691H17.125C17.0255 16.8691 16.9302 16.9086 16.8598 16.979C16.7895 17.0493 16.75 17.1447 16.75 17.2441Z"
      fill="#9B9B9B"
    />
    <path
      d="M18.25 14.3154V13.8691C18.25 13.5708 18.1315 13.2846 17.9205 13.0736C17.7095 12.8627 17.4234 12.7441 17.125 12.7441H16.09L15.34 13.4941H17.125C17.2245 13.4941 17.3198 13.5336 17.3902 13.604C17.4605 13.6743 17.5 13.7697 17.5 13.8691V14.2441H11.125C11.0255 14.2441 10.9302 14.2046 10.8598 14.1343C10.7895 14.064 10.75 13.9686 10.75 13.8691C10.75 13.7697 10.7895 13.6743 10.8598 13.604C10.9302 13.5336 11.0255 13.4941 11.125 13.4941H12.91L12.16 12.7441H11.125C10.8266 12.7441 10.5405 12.8627 10.3295 13.0736C10.1185 13.2846 10 13.5708 10 13.8691V19.1191C10 19.4175 10.1185 19.7037 10.3295 19.9146C10.5405 20.1256 10.8266 20.2441 11.125 20.2441H17.875C18.1734 20.2441 18.4595 20.1256 18.6705 19.9146C18.8815 19.7037 19 19.4175 19 19.1191V18.3691H17.125C16.8266 18.3691 16.5405 18.2506 16.3295 18.0396C16.1185 17.8287 16 17.5425 16 17.2441C16 16.9458 16.1185 16.6596 16.3295 16.4486C16.5405 16.2377 16.8266 16.1191 17.125 16.1191H19V15.3691C18.9986 15.1377 18.9258 14.9123 18.7916 14.7237C18.6574 14.5351 18.4682 14.3925 18.25 14.3154Z"
      fill="#9B9B9B"
    />
    <path
      d="M13.8586 13.3854C13.8934 13.4205 13.9349 13.4484 13.9806 13.4675C14.0263 13.4865 14.0753 13.4963 14.1248 13.4963C14.1743 13.4963 14.2233 13.4865 14.269 13.4675C14.3147 13.4484 14.3562 13.4205 14.3911 13.3854L15.5161 12.2604C15.5681 12.2077 15.6033 12.1407 15.6174 12.0679C15.6314 11.9952 15.6235 11.9199 15.5948 11.8516C15.5667 11.7832 15.5189 11.7245 15.4575 11.6832C15.3961 11.6418 15.3238 11.6195 15.2498 11.6191H14.4998V10.1191C14.4998 10.0197 14.4603 9.9243 14.39 9.85398C14.3196 9.78365 14.2243 9.74414 14.1248 9.74414C14.0254 9.74414 13.93 9.78365 13.8596 9.85398C13.7893 9.9243 13.7498 10.0197 13.7498 10.1191V11.6191H12.9998C12.9258 11.6195 12.8535 11.6418 12.7921 11.6832C12.7307 11.7245 12.6829 11.7832 12.6548 11.8516C12.6261 11.9199 12.6182 11.9952 12.6323 12.0679C12.6463 12.1407 12.6815 12.2077 12.7336 12.2604L13.8586 13.3854Z"
      fill="#9B9B9B"
    />
  </g>
  <defs>
    <clipPath id="clip0_4255_6566">
      <rect
        width="12"
        height="12"
        fill="white"
        transform="translate(8.5 8.99414)"
      />
    </clipPath>
  </defs>
</svg>
