<svg width="18" height="19" viewBox="0 0 18 19" fill="none" xmlns="http://www.w3.org/2000/svg">
<g clip-path="url(#clip0_7969_23543)">
<path d="M8.25 6.08594H9.75V7.58594H8.25V6.08594ZM8.25 9.08594H9.75V13.5859H8.25V9.08594ZM9 2.33594C4.86 2.33594 1.5 5.69594 1.5 9.83594C1.5 13.9759 4.86 17.3359 9 17.3359C13.14 17.3359 16.5 13.9759 16.5 9.83594C16.5 5.69594 13.14 2.33594 9 2.33594ZM9 15.8359C5.6925 15.8359 3 13.1434 3 9.83594C3 6.52844 5.6925 3.83594 9 3.83594C12.3075 3.83594 15 6.52844 15 9.83594C15 13.1434 12.3075 15.8359 9 15.8359Z" fill="#777777"/>
</g>
<defs>
<clipPath id="clip0_7969_23543">
<rect width="18" height="18" fill="white" transform="translate(0 0.835938)"/>
</clipPath>
</defs>
</svg>
