<svg width="12" height="12" viewBox="0 0 12 12" fill="none" xmlns="http://www.w3.org/2000/svg">
  <path d="M6.5999 4.89981C6.48952 4.89981 6.39994 4.81023 6.39994 4.69985V4.39992H5.60011V4.69985C5.60011 4.81023 5.51053 4.89981 5.40015 4.89981C5.28978 4.89981 5.2002 4.81023 5.2002 4.69985V4.39992C5.2002 4.17936 5.37956 4 5.60011 4H6.39994C6.6205 4 6.79986 4.17936 6.79986 4.39992V4.69985C6.79986 4.81023 6.71028 4.89981 6.5999 4.89981Z" fill="#9B9B9B"/>
  <path d="M6.14205 6.67372C6.10606 6.68771 6.05407 6.69771 6.00008 6.69771C5.94609 6.69771 5.8941 6.68771 5.84611 6.66972L3.60059 5.92188V7.44755C3.60059 7.75149 3.84653 7.99744 4.15047 7.99744H7.84969C8.15363 7.99744 8.39957 7.75149 8.39957 7.44755V5.92188L6.14205 6.67372Z" fill="#9B9B9B"/>
  <path d="M8.39957 5.14754V5.60544L6.04807 6.38928C6.03207 6.39528 6.01608 6.39728 6.00008 6.39728C5.98408 6.39728 5.96809 6.39528 5.95209 6.38928L3.60059 5.60544V5.14754C3.60059 4.8436 3.84653 4.59766 4.15047 4.59766H7.84969C8.15363 4.59766 8.39957 4.8436 8.39957 5.14754Z" fill="#9B9B9B"/>
</svg>