<svg width="36" height="36" viewBox="0 0 36 36" fill="none" xmlns="http://www.w3.org/2000/svg">
<path d="M30.375 16.8753H7.93181L16.5257 8.68977C16.9757 8.26115 16.9931 7.54902 16.5645 7.09902C16.1364 6.64959 15.4243 6.63159 14.9738 7.06021L5.15925 16.409C4.73456 16.8342 4.5 17.399 4.5 18.0003C4.5 18.601 4.73456 19.1663 5.17894 19.6101L14.9743 28.9398C15.192 29.1473 15.471 29.2503 15.75 29.2503C16.047 29.2503 16.344 29.1333 16.5651 28.901C16.9937 28.451 16.9762 27.7394 16.5262 27.3108L7.89638 19.1253H30.375C30.996 19.1253 31.5 18.6213 31.5 18.0003C31.5 17.3793 30.996 16.8753 30.375 16.8753Z" fill="white"/>
</svg>
