<svg width="14" height="21" viewBox="0 0 14 21" fill="none" xmlns="http://www.w3.org/2000/svg">
<path d="M11.8125 7.83887V5.57699C11.8107 4.35407 11.3241 3.18176 10.4593 2.31703C9.5946 1.45229 8.42229 0.965686 7.19938 0.963867H6.80062C5.57771 0.965686 4.4054 1.45229 3.54066 2.31703C2.67593 3.18176 2.18932 4.35407 2.1875 5.57699V7.83887C1.64049 7.83887 1.11589 8.05617 0.729092 8.44296C0.342299 8.82975 0.125 9.35436 0.125 9.90137V16.2951C0.126818 17.3339 0.540268 18.3296 1.27478 19.0641C2.0093 19.7986 3.00499 20.212 4.04375 20.2139H9.95625C10.995 20.212 11.9907 19.7986 12.7252 19.0641C13.4597 18.3296 13.8732 17.3339 13.875 16.2951V9.90137C13.875 9.35436 13.6577 8.82975 13.2709 8.44296C12.8841 8.05617 12.3595 7.83887 11.8125 7.83887ZM3.5625 5.57699C3.5625 4.71819 3.90366 3.89456 4.51092 3.28729C5.11819 2.68003 5.94182 2.33887 6.80062 2.33887H7.19938C8.05818 2.33887 8.88181 2.68003 9.48908 3.28729C10.0963 3.89456 10.4375 4.71819 10.4375 5.57699V7.83887H3.5625V5.57699ZM12.5 16.2951C12.5 16.9698 12.232 17.6168 11.755 18.0938C11.2779 18.5709 10.6309 18.8389 9.95625 18.8389H4.04375C3.36911 18.8389 2.72209 18.5709 2.24505 18.0938C1.768 17.6168 1.5 16.9698 1.5 16.2951V9.90137C1.5 9.71903 1.57243 9.54416 1.70136 9.41523C1.8303 9.2863 2.00516 9.21387 2.1875 9.21387H11.8125C11.9948 9.21387 12.1697 9.2863 12.2986 9.41523C12.4276 9.54416 12.5 9.71903 12.5 9.90137V16.2951Z" fill="#9A9A9A"/>
<path d="M7.6875 13.8343V16.0893C7.6875 16.2717 7.61507 16.4465 7.48614 16.5755C7.35721 16.7044 7.18234 16.7768 7 16.7768C6.81766 16.7768 6.6428 16.7044 6.51386 16.5755C6.38493 16.4465 6.3125 16.2717 6.3125 16.0893V13.8343C6.05037 13.683 5.8455 13.4494 5.72967 13.1697C5.61383 12.8901 5.59351 12.58 5.67185 12.2877C5.75019 11.9953 5.92282 11.737 6.16295 11.5527C6.40309 11.3684 6.69732 11.2686 7 11.2686C7.30269 11.2686 7.59691 11.3684 7.83705 11.5527C8.07718 11.737 8.24981 11.9953 8.32815 12.2877C8.40649 12.58 8.38617 12.8901 8.27033 13.1697C8.1545 13.4494 7.94963 13.683 7.6875 13.8343Z" fill="#9A9A9A"/>
</svg>
