<svg width="94" height="23" viewBox="0 0 94 23" fill="none" xmlns="http://www.w3.org/2000/svg">
    <path fill-rule="evenodd" clip-rule="evenodd"
        d="M77.2217 0H80.0541L82.6342 3.23765L80.0541 6.66441H77.2217L79.7512 3.23765L77.2217 0ZM85.7505 0H82.6349L85.4174 3.23765L82.6349 6.66441H85.7505L88.5886 3.23765L85.7505 0ZM91.1619 0H88.0463L90.8288 3.23765L88.0463 6.66441H91.1619L94 3.23765L91.1619 0Z"
        fill="#FFC226" />
    <path
        d="M81.0349 8.0019H77.1925V22.6816H81.0349V8.0019ZM69.8083 7.71263C68.9577 7.7042 68.1144 7.87617 67.3313 8.21777C66.5893 8.54749 65.9237 9.03473 65.3784 9.6474V3.2811H61.5352V22.6816H65.3775V14.6982C65.3775 13.6609 65.682 12.8476 66.2907 12.2583C66.8994 11.6636 67.7145 11.3663 68.7359 11.3663C69.6381 11.3663 70.3327 11.6446 70.8201 12.2012C71.2989 12.7606 71.5385 13.563 71.5387 14.6084V22.6814H75.405V14.1645C75.405 12.1359 74.9416 10.5528 74.015 9.41519C73.0648 8.28015 71.6632 7.71263 69.8083 7.71263ZM55.8745 8.0019V4.43781L52.0193 4.85299V8.00151H49.4869V11.3659H52.0193V17.7446C52.0193 19.4878 52.4678 20.7875 53.3649 21.6433C54.2648 22.4987 55.5457 22.9263 57.2076 22.9263C57.9863 22.9223 58.7627 22.8403 59.526 22.6816V19.3009C59.07 19.3708 58.6095 19.4048 58.1484 19.4026C57.3731 19.4026 56.8015 19.2438 56.4336 18.926C56.0604 18.6111 55.8738 18.0734 55.8738 17.3131V11.3663H59.3313V8.0019H55.8745ZM47.9746 8.0019H44.6274L44.4845 9.46006C43.2109 8.28688 41.5514 7.65232 39.8401 7.6841C38.5439 7.66495 37.2664 8.00251 36.1405 8.66167C35.0477 9.2966 34.1508 10.2338 33.552 11.3663C33.1924 12.043 32.9367 12.7725 32.7938 13.5291C32.6774 14.1231 32.6203 14.7277 32.623 15.3336C32.6213 15.9394 32.6784 16.5439 32.7938 17.1381C32.942 17.8716 33.189 18.5804 33.5282 19.2438C34.1134 20.3862 34.9991 21.3372 36.0849 21.9889C37.2224 22.6731 38.5216 23.0224 39.8401 22.9989C40.6958 23.0041 41.5449 22.8468 42.3448 22.5347C43.1334 22.2345 43.8593 21.7838 44.4845 21.2068L44.6274 22.6813H47.9737L47.9746 8.0019ZM37.621 12.5069C38.3223 11.7655 39.2312 11.3948 40.3481 11.3948C40.8508 11.3787 41.3514 11.4691 41.8187 11.6604C42.2858 11.8518 42.7094 12.1399 43.0632 12.5069C43.7526 13.2783 44.1351 14.2869 44.1351 15.3336C44.1351 16.3802 43.7526 17.3889 43.0632 18.1603C42.7094 18.5273 42.2858 18.8154 41.8187 19.0068C41.3514 19.1981 40.8508 19.2885 40.3481 19.2723C39.2312 19.2723 38.3223 18.9017 37.621 18.1603C36.9316 17.3889 36.5493 16.3802 36.5493 15.3336C36.5493 14.2869 36.9316 13.2783 37.621 12.5069ZM15.482 13.5293C15.3656 14.1233 15.3083 14.7279 15.3112 15.3338C15.3094 15.9396 15.3666 16.5441 15.482 17.1383C15.63 17.8718 15.8773 18.5806 16.2163 19.244C16.8017 20.3863 17.6875 21.3373 18.7731 21.9889C19.9108 22.6731 21.21 23.0224 22.5285 22.9989C23.384 23.0041 24.2333 22.8468 25.0332 22.5347C25.8216 22.2345 26.5477 21.784 27.1729 21.2068L27.3158 22.6813H30.6621V8.0019H27.3154L27.1725 9.46006C25.8988 8.28688 24.2393 7.65232 22.528 7.6841C21.2318 7.66495 19.9544 8.00251 18.8285 8.66167C17.7357 9.29662 16.839 10.2338 16.2402 11.3663C15.8807 12.043 15.6249 12.7726 15.482 13.5293ZM19.2372 15.3336C19.2195 14.8124 19.3055 14.2931 19.4899 13.8071C19.6741 13.3212 19.9527 12.8788 20.3091 12.5069C21.0102 11.7655 21.9193 11.3948 23.036 11.3948C23.5388 11.3787 24.0394 11.4691 24.5066 11.6604C24.9739 11.8518 25.3975 12.1399 25.7513 12.5069C26.4407 13.2783 26.823 14.2869 26.823 15.3336C26.823 16.3802 26.4407 17.3889 25.7513 18.1603C25.3975 18.5273 24.9739 18.8154 24.5066 19.0068C24.0394 19.1981 23.5388 19.2885 23.036 19.2723C21.9193 19.2723 21.0102 18.9017 20.3091 18.1603C19.9527 17.7884 19.6741 17.346 19.4899 16.86C19.3055 16.3741 19.2195 15.8547 19.2372 15.3336ZM13.5325 20.1278C14.1604 19.1727 14.4849 18.0416 14.4615 16.8897C14.4615 15.1979 13.8992 13.8755 12.7748 12.9224C11.6473 11.991 10.0198 11.3366 7.89217 10.9591C6.55045 10.7391 5.62673 10.4703 5.12137 10.1525C4.88569 10.0188 4.69027 9.82116 4.55654 9.58126C4.42281 9.34137 4.35586 9.06839 4.363 8.79213C4.35416 8.51696 4.41584 8.24422 4.54193 8.00118C4.66801 7.75814 4.85408 7.55333 5.08144 7.40719C5.56845 7.06233 6.23404 6.88989 7.07823 6.88989C7.93822 6.88989 8.62098 7.07317 9.12651 7.43972C9.38106 7.63919 9.59448 7.88838 9.75455 8.17293C9.91462 8.45746 10.0183 8.77173 10.0594 9.09756H14.1243C13.9655 7.24021 13.2576 5.75892 12.0006 4.65368C10.7515 3.55668 9.13841 3.00818 7.16167 3.00818C5.93447 2.98628 4.71678 3.23203 3.58899 3.72918C2.59799 4.15764 1.75176 4.87581 1.15566 5.79422C0.554805 6.7251 0.245881 7.82243 0.27052 8.93877C0.27052 10.6223 0.813092 11.9121 1.89806 12.8083C2.98541 13.6935 4.57065 14.3235 6.65359 14.6982C7.9768 14.9398 8.91495 15.2386 9.46806 15.5943C9.7136 15.7416 9.91785 15.9514 10.0611 16.2034C10.2043 16.4554 10.2818 16.7412 10.2857 17.0329C10.2898 17.3247 10.2201 17.6125 10.0839 17.8686C9.94759 18.1247 9.74912 18.3403 9.50782 18.4945C8.98377 18.8503 8.25326 19.0282 7.31664 19.0282C6.33209 19.0282 5.56199 18.8123 5.00616 18.3806C4.72919 18.1546 4.50302 17.8698 4.34329 17.5456C4.18373 17.2215 4.09435 16.8658 4.08126 16.5029H0C0.121836 18.5315 0.829743 20.1146 2.12389 21.2522C3.40734 22.368 5.13803 22.9258 7.31596 22.9258C8.57408 22.9479 9.82286 22.7023 10.984 22.2049C12.0095 21.7767 12.8939 21.0559 13.5325 20.1278Z"
        fill="#141482" />
</svg>
    