<svg width="149" height="56" viewBox="0 0 149 56" fill="none" xmlns="http://www.w3.org/2000/svg">
<path d="M0.5 16C0.5 12.2146 0.501062 9.4259 0.788435 7.28845C1.07387 5.16538 1.63351 3.75989 2.6967 2.6967C3.75989 1.63351 5.16538 1.07387 7.28845 0.788435C9.4259 0.501062 12.2146 0.5 16 0.5H133C136.785 0.5 139.574 0.501062 141.712 0.788435C143.835 1.07387 145.24 1.63351 146.303 2.6967C147.366 3.75989 147.926 5.16538 148.212 7.28845C148.499 9.4259 148.5 12.2146 148.5 16V40C148.5 43.7854 148.499 46.5741 148.212 48.7116C147.926 50.8346 147.366 52.2401 146.303 53.3033C145.24 54.3665 143.835 54.9261 141.712 55.2116C139.574 55.4989 136.785 55.5 133 55.5H16C12.2146 55.5 9.4259 55.4989 7.28845 55.2116C5.16538 54.9261 3.75989 54.3665 2.6967 53.3033C1.63351 52.2401 1.07387 50.8346 0.788435 48.7116C0.501062 46.5741 0.5 43.7854 0.5 40V16Z" fill="#3B2B8C"/>
<path d="M0.5 16C0.5 12.2146 0.501062 9.4259 0.788435 7.28845C1.07387 5.16538 1.63351 3.75989 2.6967 2.6967C3.75989 1.63351 5.16538 1.07387 7.28845 0.788435C9.4259 0.501062 12.2146 0.5 16 0.5H133C136.785 0.5 139.574 0.501062 141.712 0.788435C143.835 1.07387 145.24 1.63351 146.303 2.6967C147.366 3.75989 147.926 5.16538 148.212 7.28845C148.499 9.4259 148.5 12.2146 148.5 16V40C148.5 43.7854 148.499 46.5741 148.212 48.7116C147.926 50.8346 147.366 52.2401 146.303 53.3033C145.24 54.3665 143.835 54.9261 141.712 55.2116C139.574 55.4989 136.785 55.5 133 55.5H16C12.2146 55.5 9.4259 55.4989 7.28845 55.2116C5.16538 54.9261 3.75989 54.3665 2.6967 53.3033C1.63351 52.2401 1.07387 50.8346 0.788435 48.7116C0.501062 46.5741 0.5 43.7854 0.5 40V16Z" stroke="white"/>
<path d="M44.1731 35H41.2331L34.5761 24.941V35H31.6361V20.321H34.5761L41.2331 30.401V20.321H44.1731V35ZM57.4735 28.931C57.4735 29.351 57.4455 29.729 57.3895 30.065H48.8845C48.9545 30.905 49.2485 31.563 49.7665 32.039C50.2845 32.515 50.9215 32.753 51.6775 32.753C52.7695 32.753 53.5465 32.284 54.0085 31.346H57.1795C56.8435 32.466 56.1995 33.39 55.2475 34.118C54.2955 34.832 53.1265 35.189 51.7405 35.189C50.6205 35.189 49.6125 34.944 48.7165 34.454C47.8345 33.95 47.1415 33.243 46.6375 32.333C46.1475 31.423 45.9025 30.373 45.9025 29.183C45.9025 27.979 46.1475 26.922 46.6375 26.012C47.1275 25.102 47.8135 24.402 48.6955 23.912C49.5775 23.422 50.5925 23.177 51.7405 23.177C52.8465 23.177 53.8335 23.415 54.7015 23.891C55.5835 24.367 56.2625 25.046 56.7385 25.928C57.2285 26.796 57.4735 27.797 57.4735 28.931ZM54.4285 28.091C54.4145 27.335 54.1415 26.733 53.6095 26.285C53.0775 25.823 52.4265 25.592 51.6565 25.592C50.9285 25.592 50.3125 25.816 49.8085 26.264C49.3185 26.698 49.0175 27.307 48.9055 28.091H54.4285ZM65.6254 35L63.2314 31.388L61.1104 35H57.9604L61.7614 29.162L57.9184 23.366H61.2364L63.6094 26.957L65.7514 23.366H68.9014L65.0794 29.162L68.9434 35H65.6254ZM73.5433 25.781V31.409C73.5433 31.801 73.6343 32.088 73.8163 32.27C74.0123 32.438 74.3343 32.522 74.7823 32.522H76.1473V35H74.2993C71.8213 35 70.5823 33.796 70.5823 31.388V25.781H69.1963V23.366H70.5823V20.489H73.5433V23.366H76.1473V25.781H73.5433Z" fill="white"/>
<g clip-path="url(#clip0_1883_2672)">
<path d="M100.438 28.6873L114.153 28.6873L108.901 33.6896C108.626 33.9515 108.615 34.3867 108.877 34.6617C109.139 34.9364 109.574 34.9474 109.849 34.6854L115.847 28.9723C116.107 28.7124 116.25 28.3673 116.25 27.9998C116.25 27.6327 116.107 27.2872 115.835 27.016L109.849 21.3146C109.716 21.1877 109.546 21.1248 109.375 21.1248C109.194 21.1248 109.012 21.1963 108.877 21.3383C108.615 21.6133 108.626 22.0481 108.901 22.3101L114.174 27.3123L100.438 27.3123C100.058 27.3123 99.75 27.6203 99.75 27.9998C99.75 28.3793 100.058 28.6873 100.438 28.6873Z" fill="white"/>
</g>
<defs>
<clipPath id="clip0_1883_2672">
<rect x="97" y="17" width="22" height="22" rx="8" fill="white"/>
</clipPath>
</defs>
</svg>
