<svg width="20" height="20" viewBox="0 0 20 20" fill="none" xmlns="http://www.w3.org/2000/svg">
<g id="open-book 1">
<g id="Group">
<g id="Group_2">
<g id="Group_3">
<path id="Vector" d="M1.00805 14.4756V4.75781C0.665323 4.84854 0.322549 4.95944 0 5.06023V17.3284C2.70585 16.5805 5.58115 16.729 8.19557 17.7518C6.4189 15.9554 3.99837 14.9429 1.47179 14.9393C1.2179 14.9339 1.01344 14.7294 1.00805 14.4756Z" fill="#32B237"/>
<path id="Vector_2" d="M1.95578 2.10645L1.92554 14.0621C4.89293 14.2158 7.66045 15.605 9.55658 17.8927V6.49153C7.82546 3.94591 5.026 2.33085 1.95578 2.10645Z" fill="#32B237"/>
<path id="Vector_3" d="M18.9921 4.77734V14.485C18.9867 14.7389 18.7822 14.9434 18.5284 14.9487C16.0074 14.9509 13.5926 15.9641 11.8247 17.7612V17.7713C14.4305 16.7449 17.2985 16.5893 20.0001 17.3277V5.07972C19.6776 4.96886 19.3449 4.858 18.9921 4.77734Z" fill="#32B237"/>
<path id="Vector_4" d="M18.0846 2.10645C15.0021 2.30855 12.1874 3.9281 10.4636 6.49153V17.8927C12.3574 15.6075 15.1207 14.2185 18.0846 14.0621V2.10645Z" fill="#32B237"/>
</g>
</g>
</g>
</g>
</svg>
