<svg width="33" height="33" viewBox="0 0 33 33" fill="none" xmlns="http://www.w3.org/2000/svg">
<rect width="33" height="33" rx="6" fill="#141482"/>
<g clip-path="url(#clip0_615_402)">
<path fill-rule="evenodd" clip-rule="evenodd" d="M15.0908 10.215L17.0638 10.9821L11.1732 13.2726L9.1095 12.4702L14.9096 10.215C14.9701 10.1914 15.0302 10.1914 15.0908 10.215ZM21.2346 16.8029C22.8914 16.8029 24.2344 18.146 24.2344 19.8028C24.2344 21.4595 22.8913 22.8026 21.2346 22.8026C19.5779 22.8026 18.2347 21.4595 18.2347 19.8028C18.2347 18.146 19.5779 16.8029 21.2346 16.8029ZM22.3705 18.4348L20.5934 20.2118L19.9871 19.4486C19.8379 19.261 19.5648 19.2298 19.3772 19.379C19.1895 19.5281 19.1583 19.8012 19.3075 19.9888L20.2 21.1118C20.3543 21.3329 20.672 21.3631 20.8643 21.1708L22.9854 19.0497C23.1553 18.8799 23.1553 18.6046 22.9854 18.4348C22.8156 18.265 22.5403 18.265 22.3705 18.4348ZM19.1707 11.8014C17.2072 12.5649 15.2437 13.3285 13.28 14.0918L15.0001 14.7606L20.8907 12.4702L19.1707 11.8014ZM21.2346 12.8712L15.2501 15.1981V22.1297L17.972 21.0714C17.8189 20.6781 17.7348 20.2503 17.7348 19.8028C17.7348 17.8699 19.3017 16.303 21.2346 16.303V12.8712ZM14.7501 22.1297V15.1981L12.9363 14.4929V15.9566C12.9363 16.0273 12.8536 16.0655 12.7998 16.0196L11.8372 15.1998L10.9369 15.4797C10.8833 15.4964 10.8294 15.4568 10.8294 15.4007V13.6737L8.76562 12.8712V19.6317C8.76562 19.7369 8.82703 19.8266 8.92513 19.8648L14.7501 22.1297Z" fill="white"/>
</g>
<defs>
<clipPath id="clip0_615_402">
<rect width="16" height="16" fill="white" transform="translate(8.5 8.5)"/>
</clipPath>
</defs>
</svg>
