<svg width="33" height="34" viewBox="0 0 33 34" fill="none" xmlns="http://www.w3.org/2000/svg">
<rect y="0.168457" width="33" height="33" rx="6" fill="#F3F4F6"/>
<g clip-path="url(#clip0_615_581)">
<path fill-rule="evenodd" clip-rule="evenodd" d="M15.0908 10.3834L17.0638 11.1506L11.1732 13.4411L9.1095 12.6386L14.9096 10.3834C14.9701 10.3598 15.0302 10.3598 15.0908 10.3834ZM21.2346 16.9714C22.8914 16.9714 24.2344 18.3145 24.2344 19.9712C24.2344 21.628 22.8913 22.971 21.2346 22.971C19.5779 22.971 18.2347 21.628 18.2347 19.9712C18.2347 18.3145 19.5779 16.9714 21.2346 16.9714ZM22.3705 18.6032L20.5934 20.3802L19.9871 19.6171C19.8379 19.4295 19.5648 19.3983 19.3772 19.5474C19.1895 19.6966 19.1583 19.9696 19.3075 20.1573L20.2 21.2803C20.3543 21.5014 20.672 21.5316 20.8643 21.3393L22.9854 19.2182C23.1553 19.0484 23.1553 18.773 22.9854 18.6032C22.8156 18.4334 22.5403 18.4334 22.3705 18.6032ZM19.1707 11.9698C17.2072 12.7334 15.2437 13.4969 13.28 14.2603L15.0001 14.9291L20.8907 12.6386L19.1707 11.9698ZM21.2346 13.0396L15.2501 15.3666V22.2982L17.972 21.2399C17.8189 20.8465 17.7348 20.4188 17.7348 19.9712C17.7348 18.0384 19.3017 16.4715 21.2346 16.4715V13.0396ZM14.7501 22.2982V15.3666L12.9363 14.6614V16.125C12.9363 16.1958 12.8536 16.234 12.7998 16.1881L11.8372 15.3682L10.9369 15.6482C10.8833 15.6649 10.8294 15.6253 10.8294 15.5692V13.8421L8.76562 13.0397V19.8002C8.76562 19.9054 8.82703 19.9951 8.92513 20.0332L14.7501 22.2982Z" fill="#606C85"/>
</g>
<defs>
<clipPath id="clip0_615_581">
<rect width="16" height="16" fill="white" transform="translate(8.5 8.66846)"/>
</clipPath>
</defs>
</svg>
