<svg width="33" height="33" viewBox="0 0 33 33" fill="none" xmlns="http://www.w3.org/2000/svg">
<rect width="33" height="33" rx="6" fill="#141482"/>
<g clip-path="url(#clip0_549_836)">
<path d="M18.0441 16.4163C20.2266 16.4163 22.0019 14.6406 22.0019 12.4581C22.0019 10.2756 20.2266 8.5 18.0441 8.5C15.8616 8.5 14.0859 10.2756 14.0859 12.4581C14.0859 14.6406 15.8616 16.4163 18.0441 16.4163ZM17.5753 10.1316V10.0241C17.5753 9.765 17.785 9.55531 18.0441 9.55531C18.3028 9.55531 18.5128 9.765 18.5128 10.0241V10.1322C19.0706 10.2519 19.4903 10.7488 19.4903 11.3419C19.4903 11.6006 19.2803 11.8106 19.0216 11.8106C18.7625 11.8106 18.5528 11.6006 18.5528 11.3419C18.5528 11.1766 18.4181 11.0419 18.2528 11.0419H17.8325C17.6672 11.0419 17.5325 11.1766 17.5325 11.3419C17.5325 11.4366 17.5778 11.5266 17.6541 11.5828L18.0441 11.8716L18.9916 12.5728C19.3028 12.8031 19.4903 13.1716 19.4928 13.5591V13.5634C19.495 13.8941 19.3684 14.2059 19.1359 14.4413C18.9634 14.6159 18.7478 14.7331 18.5128 14.7825V14.8922C18.5128 15.1513 18.3028 15.3609 18.0441 15.3609C17.785 15.3609 17.5753 15.1513 17.5753 14.8922V14.7841C17.3466 14.7353 17.1363 14.6228 16.9663 14.4547C16.7309 14.2225 16.6003 13.9125 16.5984 13.5819C16.5969 13.3231 16.8053 13.1119 17.0641 13.1103H17.0672C17.3247 13.1103 17.5344 13.3184 17.5359 13.5763C17.5366 13.738 17.6667 13.8744 17.8375 13.8744C18.0965 13.8728 18 13.8734 18.2572 13.8719C18.4236 13.8706 18.5566 13.7355 18.5553 13.5697V13.5653C18.5547 13.4716 18.5094 13.3822 18.4338 13.3263L18.0441 13.0378L17.0963 12.3366C16.7825 12.1041 16.595 11.7322 16.595 11.3419C16.595 10.7475 17.0159 10.2503 17.5753 10.1316Z" fill="white"/>
<path d="M11.6308 18.6684C11.5107 18.4601 11.2438 18.3876 11.0342 18.5085L8.82924 19.7814C8.62046 19.9022 8.54883 20.1692 8.66937 20.3783L10.9229 24.2815C11.0436 24.4902 11.3104 24.5619 11.5196 24.4414L13.7245 23.1682C13.9336 23.0477 14.005 22.7806 13.8844 22.5716L11.6308 18.6684Z" fill="white"/>
<path d="M24.2649 17.8895C24.0527 17.5948 23.642 17.5282 23.3477 17.7404C22.4545 18.3838 20.7396 19.6195 20.6033 19.7179C20.5405 19.7713 20.4746 19.8198 20.4058 19.8626C20.1361 20.0323 19.8233 20.1229 19.4967 20.1229H17.2514C16.9927 20.1229 16.7827 19.9132 16.7827 19.6542C16.7827 19.3948 16.993 19.1854 17.2514 19.1854H19.6527C20.0055 19.1854 20.288 18.8917 20.2733 18.5382C20.2595 18.2029 19.9733 17.9429 19.6377 17.9429H17.8099C17.6861 17.812 17.5505 17.692 17.4052 17.5848C16.9055 17.2163 16.288 16.9985 15.6196 16.9985C14.4311 16.9985 13.2486 17.7473 12.7583 18.7467L14.6758 22.0676H18.2727C18.9789 22.0676 19.6746 21.887 20.2867 21.5348C20.4989 21.4129 20.7261 21.2663 20.9724 21.0895C22.0042 20.3482 24.1139 18.8082 24.1155 18.8073C24.4105 18.5954 24.4774 18.1842 24.2649 17.8895Z" fill="white"/>
</g>
<defs>
<clipPath id="clip0_549_836">
<rect width="16" height="16" fill="white" transform="translate(8.5 8.5)"/>
</clipPath>
</defs>
</svg>
