<svg width="33" height="34" viewBox="0 0 33 34" fill="none" xmlns="http://www.w3.org/2000/svg">
<rect y="0.168457" width="33" height="33" rx="6" fill="#F3F4F6"/>
<g clip-path="url(#clip0_549_557)">
<path d="M18.0441 16.5847C20.2266 16.5847 22.0019 14.8091 22.0019 12.6266C22.0019 10.4441 20.2266 8.66846 18.0441 8.66846C15.8616 8.66846 14.0859 10.4441 14.0859 12.6266C14.0859 14.8091 15.8616 16.5847 18.0441 16.5847ZM17.5753 10.3V10.1925C17.5753 9.93346 17.785 9.72377 18.0441 9.72377C18.3028 9.72377 18.5128 9.93346 18.5128 10.1925V10.3006C19.0706 10.4203 19.4903 10.9172 19.4903 11.5103C19.4903 11.7691 19.2803 11.9791 19.0216 11.9791C18.7625 11.9791 18.5528 11.7691 18.5528 11.5103C18.5528 11.345 18.4181 11.2103 18.2528 11.2103H17.8325C17.6672 11.2103 17.5325 11.345 17.5325 11.5103C17.5325 11.605 17.5778 11.695 17.6541 11.7513L18.0441 12.04L18.9916 12.7413C19.3028 12.9716 19.4903 13.34 19.4928 13.7275V13.7319C19.495 14.0625 19.3684 14.3744 19.1359 14.6097C18.9634 14.7844 18.7478 14.9016 18.5128 14.951V15.0606C18.5128 15.3197 18.3028 15.5294 18.0441 15.5294C17.785 15.5294 17.5753 15.3197 17.5753 15.0606V14.9525C17.3466 14.9038 17.1363 14.7913 16.9663 14.6231C16.7309 14.391 16.6003 14.081 16.5984 13.7503C16.5969 13.4916 16.8053 13.2803 17.0641 13.2788H17.0672C17.3247 13.2788 17.5344 13.4869 17.5359 13.7447C17.5366 13.9065 17.6667 14.0428 17.8375 14.0428C18.0965 14.0413 18 14.0418 18.2572 14.0403C18.4236 14.039 18.5566 13.904 18.5553 13.7381V13.7338C18.5547 13.64 18.5094 13.5506 18.4338 13.4947L18.0441 13.2063L17.0963 12.505C16.7825 12.2725 16.595 11.9006 16.595 11.5103C16.595 10.916 17.0159 10.4188 17.5753 10.3Z" fill="#606C85"/>
<path d="M11.6308 18.8369C11.5107 18.6286 11.2438 18.5561 11.0342 18.677L8.82924 19.9498C8.62046 20.0707 8.54883 20.3377 8.66937 20.5467L10.9229 24.4499C11.0436 24.6587 11.3104 24.7303 11.5196 24.6098L13.7245 23.3367C13.9336 23.2161 14.005 22.9491 13.8844 22.74L11.6308 18.8369Z" fill="#606C85"/>
<path d="M24.2649 18.0579C24.0527 17.7632 23.642 17.6967 23.3477 17.9089C22.4545 18.5523 20.7396 19.7879 20.6033 19.8864C20.5405 19.9398 20.4746 19.9882 20.4058 20.0311C20.1361 20.2007 19.8233 20.2914 19.4967 20.2914H17.2514C16.9927 20.2914 16.7827 20.0817 16.7827 19.8226C16.7827 19.5632 16.993 19.3539 17.2514 19.3539H19.6527C20.0055 19.3539 20.288 19.0601 20.2733 18.7067C20.2595 18.3714 19.9733 18.1114 19.6377 18.1114H17.8099C17.6861 17.9804 17.5505 17.8604 17.4052 17.7532C16.9055 17.3848 16.288 17.167 15.6196 17.167C14.4311 17.167 13.2486 17.9157 12.7583 18.9151L14.6758 22.2361H18.2727C18.9789 22.2361 19.6746 22.0554 20.2867 21.7032C20.4989 21.5814 20.7261 21.4348 20.9724 21.2579C22.0042 20.5167 24.1139 18.9767 24.1155 18.9757C24.4105 18.7639 24.4774 18.3526 24.2649 18.0579Z" fill="#606C85"/>
</g>
<defs>
<clipPath id="clip0_549_557">
<rect width="16" height="16" fill="white" transform="translate(8.5 8.66846)"/>
</clipPath>
</defs>
</svg>
