<svg width="33" height="34" viewBox="0 0 33 34" fill="none" xmlns="http://www.w3.org/2000/svg">
<rect y="0.492188" width="33" height="33" rx="6" fill="#141482"/>
<g clip-path="url(#clip0_1260_10479)">
<path fill-rule="evenodd" clip-rule="evenodd" d="M11.401 16.6385C13.1111 16.6385 14.3026 15.9451 14.3026 15.3224C14.3026 14.7003 13.1111 14.0068 11.401 14.0068C9.69144 14.0068 8.5 14.7003 8.5 15.3224C8.5 15.9451 9.69201 16.6385 11.401 16.6385ZM24.5 19.033C23.8535 19.528 22.8047 19.8439 21.599 19.8439C21.07 19.8439 20.5559 19.7823 20.0863 19.6643V20.2152C20.5434 20.3492 21.0609 20.4205 21.599 20.4205C23.3086 20.4205 24.5 19.7265 24.5 19.1043V19.033ZM24.5 17.7722V17.8435C24.5 18.4662 23.3086 19.1596 21.599 19.1596C21.0609 19.1596 20.5434 19.0889 20.0863 18.9549V18.404C20.5559 18.5221 21.07 18.5837 21.599 18.5837C22.8047 18.5837 23.8529 18.2672 24.5 17.7722ZM20.0361 17.6793C20.5051 17.8235 21.0409 17.8994 21.599 17.8994C23.3086 17.8994 24.5 17.2054 24.5 16.5832V16.5119C23.8535 17.0069 22.8047 17.3228 21.599 17.3228C20.8481 17.3228 20.1576 17.2002 19.5876 16.9881C19.8073 17.1963 19.9613 17.4295 20.0361 17.6793ZM13.5984 19.2805C13.5984 19.9027 14.7899 20.5961 16.5 20.5961C18.2096 20.5961 19.401 19.9027 19.401 19.2805V19.2087C18.7545 19.7037 17.7057 20.0201 16.5 20.0201C15.2937 20.0201 14.2455 19.7037 13.5984 19.2087V19.2805ZM13.5984 20.5408V20.4695C14.2455 20.9645 15.2937 21.2804 16.5 21.2804C17.7057 21.2804 18.7545 20.9645 19.401 20.4695V20.5408C19.401 21.1629 18.2096 21.8569 16.5 21.8569C14.7904 21.8569 13.5984 21.1629 13.5984 20.5408ZM16.5006 22.5412C15.2943 22.5412 14.2461 22.2247 13.599 21.7298V21.8016C13.599 22.4238 14.7904 23.1172 16.5006 23.1172C18.2101 23.1172 19.4016 22.4238 19.4016 21.8016V21.7298C18.7551 22.2247 17.7063 22.5412 16.5006 22.5412ZM12.9143 19.6643C12.4447 19.7823 11.9305 19.8439 11.4016 19.8439C10.1959 19.8439 9.14765 19.528 8.50057 19.033V19.1043C8.50057 19.7265 9.69201 20.4205 11.4016 20.4205C11.9397 20.4205 12.4572 20.3492 12.9143 20.2152V19.6643ZM12.9143 18.404V18.9549C12.4572 19.0889 11.9397 19.1596 11.4016 19.1596C9.69201 19.1596 8.50057 18.4662 8.50057 17.8435V17.7722C9.14765 18.2672 10.1959 18.5837 11.4016 18.5837C11.93 18.5837 12.4441 18.5215 12.9143 18.404ZM11.401 17.8994C9.69144 17.8994 8.5 17.2054 8.5 16.5832V16.5119C9.14708 17.0069 10.1953 17.3228 11.401 17.3228C12.1519 17.3228 12.8424 17.2002 13.4124 16.9881C13.1922 17.1963 13.0381 17.4295 12.9645 17.6793C12.4949 17.8235 11.9596 17.8994 11.401 17.8994ZM16.9046 15.0698V12.0041L17.7496 12.8481C17.8164 12.9148 17.9037 12.9484 17.9916 12.9484C18.0789 12.9484 18.1668 12.9148 18.2335 12.8481C18.367 12.7146 18.367 12.4979 18.2335 12.3645L16.8047 10.936C16.6706 10.8026 16.4538 10.8026 16.3203 10.936L14.8914 12.3645C14.7573 12.4979 14.7573 12.7146 14.8914 12.8481C15.025 12.9815 15.2418 12.9815 15.3753 12.8481L16.2198 12.0041V15.0698C16.2198 15.2585 16.3733 15.4119 16.5622 15.4119C16.7516 15.4119 16.9046 15.2585 16.9046 15.0698ZM18.6974 15.3224C18.6974 14.7003 19.8889 14.0068 21.599 14.0068C23.3086 14.0068 24.5 14.7003 24.5 15.3224C24.5 15.9451 23.3086 16.6385 21.599 16.6385C19.8889 16.6385 18.6974 15.9451 18.6974 15.3224ZM16.5006 16.7036C18.2101 16.7036 19.4016 17.397 19.4016 18.0197C19.4016 18.6418 18.2101 19.3358 16.5006 19.3358C14.7904 19.3358 13.599 18.6418 13.599 18.0197C13.5984 17.397 14.7904 16.7036 16.5006 16.7036Z" fill="white"/>
</g>
<defs>
<clipPath id="clip0_1260_10479">
<rect width="16" height="16" fill="white" transform="translate(8.5 8.99219)"/>
</clipPath>
</defs>
</svg>
