<svg width="29" height="30" viewBox="0 0 29 30" fill="none" xmlns="http://www.w3.org/2000/svg">
<g clip-path="url(#clip0_2765_26587)">
<path fill-rule="evenodd" clip-rule="evenodd" d="M10.6757 14.7289C11.9583 14.7289 12.8519 14.2088 12.8519 13.7418C12.8519 13.2752 11.9583 12.7551 10.6757 12.7551C9.39358 12.7551 8.5 13.2752 8.5 13.7418C8.5 14.2088 9.39401 14.7289 10.6757 14.7289ZM20.5 16.5248C20.0151 16.896 19.2285 17.133 18.3243 17.133C17.9275 17.133 17.5419 17.0868 17.1897 16.9982V17.4114C17.5325 17.5119 17.9207 17.5653 18.3243 17.5653C19.6064 17.5653 20.5 17.0448 20.5 16.5782V16.5248ZM20.5 15.5792V15.6326C20.5 16.0997 19.6064 16.6197 18.3243 16.6197C17.9207 16.6197 17.5325 16.5667 17.1897 16.4662V16.053C17.5419 16.1416 17.9275 16.1878 18.3243 16.1878C19.2285 16.1878 20.0147 15.9504 20.5 15.5792ZM17.1521 15.5094C17.5039 15.6176 17.9057 15.6745 18.3243 15.6745C19.6064 15.6745 20.5 15.154 20.5 14.6874V14.634C20.0151 15.0052 19.2285 15.2421 18.3243 15.2421C17.7611 15.2421 17.2432 15.1502 16.8157 14.9911C16.9805 15.1472 17.096 15.3221 17.1521 15.5094ZM12.3238 16.7104C12.3238 17.177 13.2174 17.6971 14.5 17.6971C15.7822 17.6971 16.6757 17.177 16.6757 16.7104V16.6565C16.1909 17.0277 15.4043 17.2651 14.5 17.2651C13.5953 17.2651 12.8091 17.0277 12.3238 16.6565V16.7104ZM12.3238 17.6556V17.6021C12.8091 17.9734 13.5953 18.2103 14.5 18.2103C15.4043 18.2103 16.1909 17.9734 16.6757 17.6021V17.6556C16.6757 18.1222 15.7822 18.6427 14.5 18.6427C13.2178 18.6427 12.3238 18.1222 12.3238 17.6556ZM14.5004 19.1559C13.5957 19.1559 12.8096 18.9186 12.3243 18.5473V18.6012C12.3243 19.0678 13.2178 19.5879 14.5004 19.5879C15.7826 19.5879 16.6762 19.0678 16.6762 18.6012V18.5473C16.1913 18.9186 15.4047 19.1559 14.5004 19.1559ZM11.8107 16.9982C11.4585 17.0868 11.0729 17.133 10.6762 17.133C9.7719 17.133 8.98574 16.896 8.50043 16.5248V16.5782C8.50043 17.0448 9.39401 17.5653 10.6762 17.5653C11.0797 17.5653 11.4679 17.5119 11.8107 17.4114V16.9982ZM11.8107 16.053V16.4662C11.4679 16.5667 11.0797 16.6197 10.6762 16.6197C9.39401 16.6197 8.50043 16.0997 8.50043 15.6326V15.5792C8.98574 15.9504 9.7719 16.1878 10.6762 16.1878C11.0725 16.1878 11.4581 16.1411 11.8107 16.053ZM10.6757 15.6745C9.39358 15.6745 8.5 15.154 8.5 14.6874V14.634C8.98531 15.0052 9.77147 15.2421 10.6757 15.2421C11.2389 15.2421 11.7568 15.1502 12.1843 14.9911C12.0191 15.1472 11.9036 15.3221 11.8484 15.5094C11.4961 15.6176 11.0947 15.6745 10.6757 15.6745ZM14.8034 13.5523V11.2531L15.4372 11.8861C15.4873 11.9361 15.5528 11.9613 15.6187 11.9613C15.6842 11.9613 15.7501 11.9361 15.8001 11.8861C15.9003 11.786 15.9003 11.6235 15.8001 11.5234L14.7285 10.452C14.628 10.3519 14.4653 10.3519 14.3652 10.452L13.2936 11.5234C13.193 11.6235 13.193 11.786 13.2936 11.8861C13.3937 11.9861 13.5563 11.9861 13.6565 11.8861L14.2899 11.2531V13.5523C14.2899 13.6939 14.405 13.8089 14.5466 13.8089C14.6887 13.8089 14.8034 13.6939 14.8034 13.5523ZM16.1481 13.7418C16.1481 13.2752 17.0417 12.7551 18.3243 12.7551C19.6064 12.7551 20.5 13.2752 20.5 13.7418C20.5 14.2088 19.6064 14.7289 18.3243 14.7289C17.0417 14.7289 16.1481 14.2088 16.1481 13.7418ZM14.5004 14.7777C15.7826 14.7777 16.6762 15.2977 16.6762 15.7648C16.6762 16.2314 15.7826 16.7519 14.5004 16.7519C13.2178 16.7519 12.3243 16.2314 12.3243 15.7648C12.3238 15.2977 13.2178 14.7777 14.5004 14.7777Z" fill="#141482"/>
</g>
<defs>
<clipPath id="clip0_2765_26587">
<rect width="12" height="12" fill="white" transform="translate(8.5 8.99414)"/>
</clipPath>
</defs>
</svg>
