<svg width="12" height="12" viewBox="0 0 12 12" fill="none" xmlns="http://www.w3.org/2000/svg">
<g id="pencil 1" clip-path="url(#clip0_3_753)">
<path id="Vector" d="M7.41065 2.01553L0.808079 8.61858C0.774861 8.65189 0.750876 8.69396 0.739455 8.73917L0.00762279 11.6766C-0.0142684 11.765 0.0117155 11.859 0.0762469 11.9236C0.125074 11.9724 0.191604 11.9994 0.259657 11.9994C0.280501 11.9994 0.301821 11.9969 0.32257 11.9916L3.25999 11.2597C3.30577 11.2483 3.34736 11.2244 3.38058 11.1912L9.98372 4.5886L7.41065 2.01553Z" fill="#586276"/>
<path id="Vector_2" d="M11.6195 1.11523L10.8845 0.38026C10.3933 -0.110959 9.53719 -0.110483 9.04654 0.38026L8.14624 1.28056L10.7192 3.85353L11.6195 2.95323C11.8649 2.70796 12 2.38149 12 2.03428C12 1.68707 11.8649 1.3606 11.6195 1.11523Z" fill="#586276"/>
</g>
<defs>
<clipPath id="clip0_3_753">
<rect width="12" height="12" fill="white"/>
</clipPath>
</defs>
</svg>
