<svg width="33" height="33" viewBox="0 0 33 33" fill="none" xmlns="http://www.w3.org/2000/svg">
<rect width="33" height="33" rx="6" fill="#F3F4F6"/>
<g clip-path="url(#clip0_95_7085)">
<path fill-rule="evenodd" clip-rule="evenodd" d="M13.675 20.9165H10.0257C9.44562 20.9165 8.9707 20.4415 8.9707 19.8614V12.6056C8.9707 12.0255 9.44562 11.5506 10.0257 11.5506H11.9087V12.4334H9.99966C9.91866 12.4334 9.85252 12.4985 9.85252 12.5796V19.1397H18.525C18.5024 19.2918 18.4907 19.4474 18.4907 19.6057C18.4907 20.0735 18.5928 20.5174 18.7759 20.9165H17.9874V22.5926H19.5927C20.0872 22.5926 20.4923 22.9157 20.4923 23.3105V24.0294H11.1702V23.3105C11.1702 22.9157 11.5752 22.5926 12.0697 22.5926H13.675V20.9165ZM15.8302 8.97058L19.1557 10.3955C19.2134 10.4202 19.2508 10.4769 19.2508 10.5397V13.4078C19.2508 15.4179 17.7989 17.1615 15.8302 17.536C13.8626 17.1615 12.4107 15.4179 12.4107 13.4078V10.5397C12.4107 10.4769 12.4481 10.4202 12.5057 10.3955L15.8302 8.97058ZM15.7173 16.1133C15.7467 16.1449 15.7878 16.1628 15.8309 16.1628C15.874 16.1628 15.9152 16.1449 15.9446 16.1133L16.4546 15.565V12.7491C16.8674 12.5264 17.1482 12.0904 17.1482 11.5884C17.1482 10.8611 16.5582 10.2711 15.831 10.2711C15.1033 10.2711 14.5133 10.8611 14.5133 11.5884C14.5133 12.0904 14.794 12.5264 15.2069 12.7491V13.9692L15.5834 14.3103L15.2069 14.651L15.5834 14.9921L15.2069 15.3332V15.565L15.7173 16.1133ZM16.2224 11.27C16.2224 11.486 16.047 11.6614 15.831 11.6614C15.6145 11.6614 15.4391 11.486 15.4391 11.27C15.4391 11.0535 15.6145 10.8782 15.831 10.8782C16.047 10.8782 16.2224 11.0535 16.2224 11.27ZM21.6366 16.9618C23.0969 16.9618 24.2805 18.1454 24.2805 19.6057C24.2805 21.066 23.0969 22.2496 21.6366 22.2496C20.1763 22.2496 18.9927 21.066 18.9927 19.6057C18.9927 18.1454 20.1763 16.9618 21.6366 16.9618ZM23.1526 21.1189C23.5394 20.7314 23.7785 20.1965 23.7785 19.6057C23.7785 18.4226 22.8197 17.4638 21.6366 17.4638C20.4535 17.4638 19.4947 18.4226 19.4947 19.6057C19.4947 20.1965 19.7338 20.7314 20.1206 21.1189C20.3859 20.5471 20.9651 20.1504 21.6366 20.1504C22.3081 20.1504 22.8873 20.5471 23.1526 21.1189ZM21.6366 19.8367C21.1717 19.8367 20.7915 19.4566 20.7915 18.9916C20.7915 18.5267 21.1717 18.1466 21.6366 18.1466C22.1015 18.1466 22.4817 18.5267 22.4817 18.9916C22.4817 19.4566 22.1015 19.8367 21.6366 19.8367ZM21.8089 16.4644V12.5796C21.8089 12.4985 21.7428 12.4334 21.6628 12.4334H19.7528V11.5506H21.6357C22.2159 11.5506 22.6908 12.0255 22.6908 12.6056V16.6408C22.4128 16.5419 22.1167 16.4811 21.8089 16.4644Z" fill="#606C85"/>
</g>
<defs>
<clipPath id="clip0_95_7085">
<rect width="16" height="16" fill="white" transform="translate(8.5 8.5)"/>
</clipPath>
</defs>
</svg>
