<svg width="50" height="55" viewBox="0 0 50 55" fill="none" xmlns="http://www.w3.org/2000/svg">
<path d="M34.543 30.6884C34.5215 30.697 34.5004 30.7062 34.48 30.7164C34.0641 30.9039 33.6179 31.0071 33.153 31.0071C32.7547 31.0071 32.3701 30.931 32.0065 30.7917C32.0012 30.7898 31.9962 30.7879 31.991 30.7861C30.5415 30.2225 29.4343 28.6334 29.179 26.6759C29.1347 24.9261 29.3516 23.6347 29.8401 22.7617C30.7529 23.5346 31.8504 24.003 33.1146 24.1581C33.1831 24.1663 33.2521 24.166 33.3204 24.1562C34.9968 23.9203 36.1748 24.0823 36.7259 24.6246C37.0518 24.9452 37.2004 25.4593 37.1743 26.1511C37.1711 26.2138 37.168 26.2766 37.1631 26.3386C37.1624 26.3474 37.1614 26.3564 37.1607 26.3653C36.9962 28.3582 35.954 30.0183 34.543 30.6884ZM24.094 23.921C24.6891 23.4165 25.3345 22.9581 26.0158 22.5538C26.0586 21.2978 26.4618 20.1662 27.2134 19.2291C28.42 17.7245 30.4906 16.7936 32.8937 16.6757C36.7344 16.485 39.3373 18.7537 40.2155 21.0816C40.3887 21.5406 40.4992 22.0004 40.551 22.4551V5.7261L22.3687 0.5V25.6453C22.8888 25.0288 23.4649 24.4518 24.094 23.921ZM33.153 32.5835C32.9001 32.5835 32.6517 32.5613 32.4075 32.5218L32.0941 34.9669L33.2937 36.6315L34.4932 34.9672L34.1719 32.4695C33.8412 32.5431 33.5011 32.5835 33.153 32.5835ZM38.7405 21.6381C38.064 19.8449 36.0205 18.103 32.9707 18.2504C31.0182 18.3463 29.3678 19.0626 28.4432 20.2155C27.6956 21.1477 27.4347 22.3255 27.6677 23.7166C27.699 23.8462 27.7315 23.9712 27.7656 24.0915C27.9549 23.0056 28.3044 22.1302 28.8184 21.4505C28.8369 21.4233 28.8577 21.3978 28.8796 21.373C28.9792 21.2473 29.0841 21.1277 29.1955 21.0158C29.3498 20.8609 29.5634 20.7752 29.7795 20.7844C29.9978 20.7914 30.2035 20.8889 30.3473 21.0534C30.3968 21.1099 30.4471 21.1648 30.498 21.2183C30.5015 21.2219 30.5052 21.2253 30.5086 21.2289C31.2343 21.9845 32.1204 22.4282 33.2082 22.5804C33.7432 22.5091 34.2381 22.4733 34.6938 22.4733C36.0992 22.4733 37.1329 22.8135 37.8316 23.501C38.1736 23.8375 38.4212 24.2464 38.5736 24.7244C38.8548 24.2084 39.0005 23.6512 39.006 23.0728C39.0034 23.0392 39.0034 23.0054 39.005 22.9714C38.9968 22.5354 38.9102 22.0883 38.7405 21.6381ZM27.2395 27.6497C25.3241 29.2655 24.1525 31.532 23.9407 34.0308C23.7786 35.9438 24.1961 37.8163 25.1251 39.4493V35.9108C25.1251 33.3554 27.1005 31.2541 29.6041 31.0504C28.6528 30.1087 27.9629 28.7971 27.6838 27.2997C27.5334 27.4118 27.3846 27.5275 27.2395 27.6497ZM40.4681 28.7701C39.93 28.1336 39.3219 27.5819 38.6547 27.1172C38.4005 28.6828 37.699 30.0572 36.717 31.0359C39.3455 31.1067 41.4624 33.2654 41.4624 35.9107V39.4478C43.3366 36.1288 43.0666 31.8503 40.4681 28.7701ZM49.4948 52.436L43.2536 45.0369C43.0094 45.2742 42.7562 45.5042 42.4935 45.726C41.9453 46.1885 41.3718 46.6017 40.7789 46.9676L47.0996 54.4611C47.285 54.6812 47.5465 54.8157 47.8368 54.8403C48.1251 54.8653 48.4073 54.7765 48.6263 54.5913L49.3656 53.9673C49.8223 53.581 49.8805 52.8939 49.4948 52.436ZM22.765 44.4503H0.25V46.1483H24.615C23.9592 45.6457 23.3398 45.0794 22.765 44.4503ZM20.7922 4.18116H0.403462V6.56679H20.7923L20.7922 4.18116ZM15.6277 42.8738V30.3707H7.52789V42.8738H15.6277ZM19.0778 33.6192C18.7964 36.9326 19.6561 40.1683 21.5125 42.8738H17.2043V29.5824C17.2043 29.147 16.8514 28.7943 16.416 28.7943H6.73963C6.30424 28.7943 5.95137 29.1471 5.95137 29.5824V42.8738H2.36358V8.1433H20.7922V27.9362C19.8382 29.6658 19.2499 31.5922 19.0778 33.6192ZM17.1276 18.8077H14.7581V21.1772H17.1276V18.8077ZM14.758 14.0239H17.1275V11.6575H14.758V14.0239ZM8.39463 18.8077H6.02826V21.1772H8.39463V18.8077ZM6.02826 14.0239H8.39463V11.6575H6.02826V14.0239ZM39.3472 41.9979C39.5355 41.8391 39.7134 41.6727 39.8859 41.5027V35.9108C39.8859 34.0902 38.4047 32.609 36.5841 32.609H35.7794L36.0965 35.0747C36.122 35.2732 36.0711 35.4738 35.9542 35.6361L33.9333 38.4405C33.7851 38.6461 33.5471 38.768 33.2938 38.768C33.0405 38.768 32.8025 38.6461 32.6543 38.4405L30.6334 35.6361C30.5165 35.4739 30.4656 35.2734 30.4911 35.0751L30.8072 32.609H30.0034C28.1829 32.609 26.7017 34.0902 26.7017 35.9108V41.5041C30.1129 44.8753 35.6112 45.1497 39.3472 41.9979ZM45.9371 35.8946C46.2231 32.5174 45.1769 29.2309 42.9911 26.6404C42.2326 25.7429 41.3711 24.9661 40.4213 24.3206C40.2746 24.8802 40.0303 25.4167 39.692 25.9169C40.4184 26.4394 41.0813 27.0533 41.6725 27.7528C45.3035 32.0568 45.0428 38.3629 41.2582 42.3577C41.2472 42.3698 41.2363 42.3819 41.2246 42.3933C40.9551 42.6753 40.6685 42.9459 40.3638 43.203C38.31 44.9356 35.7992 45.7821 33.3019 45.7822C30.1804 45.7825 27.0797 44.4603 24.9144 41.8936C23.0262 39.6556 22.1227 36.8158 22.3699 33.8976C22.6171 30.9791 23.9857 28.3321 26.2237 26.4441C26.4155 26.2828 26.6117 26.1292 26.8113 25.9826C26.5666 25.5117 26.3606 24.9555 26.1914 24.308C25.8156 24.562 25.4543 24.8345 25.1121 25.1247C23.9654 26.0923 23.0163 27.2316 22.2891 28.4934C22.2732 28.5264 22.2555 28.5586 22.2353 28.5888C21.3507 30.1553 20.8055 31.9069 20.6488 33.7527C20.3621 37.13 21.4077 40.4164 23.5933 43.0066C26.0994 45.977 29.6891 47.5071 33.3017 47.5072C36.1932 47.5074 39.099 46.5273 41.477 44.5208C44.0672 42.3355 45.6511 39.2719 45.9371 35.8946Z" fill="#141482"/>
</svg>
