<svg width="24" height="24" viewBox="0 0 24 24" fill="none" xmlns="http://www.w3.org/2000/svg">
<path d="M12.0008 23.7008C18.4625 23.7008 23.7008 18.4625 23.7008 12.0008C23.7008 5.53905 18.4625 0.300781 12.0008 0.300781C5.53905 0.300781 0.300781 5.53905 0.300781 12.0008C0.300781 18.4625 5.53905 23.7008 12.0008 23.7008Z" fill="#EE685C"/>
<path d="M16.1138 14.643L13.471 12.0002L16.1138 9.35742C16.2104 9.26085 16.287 9.1462 16.3393 9.02002C16.3915 8.89385 16.4184 8.75861 16.4184 8.62203C16.4184 8.48546 16.3915 8.35022 16.3393 8.22404C16.287 8.09786 16.2104 7.98321 16.1138 7.88664C16.0173 7.79007 15.9026 7.71346 15.7764 7.6612C15.6503 7.60893 15.515 7.58203 15.3784 7.58203C15.2419 7.58203 15.1066 7.60893 14.9804 7.6612C14.8543 7.71346 14.7396 7.79007 14.643 7.88664L12.0002 10.5295L9.35742 7.88664C9.26085 7.79007 9.1462 7.71346 9.02002 7.6612C8.89385 7.60893 8.75861 7.58203 8.62203 7.58203C8.48546 7.58203 8.35022 7.60893 8.22404 7.6612C8.09786 7.71346 7.98321 7.79007 7.88664 7.88664C7.79007 7.98321 7.71346 8.09786 7.6612 8.22404C7.60893 8.35022 7.58203 8.48546 7.58203 8.62203C7.58203 8.75861 7.60893 8.89385 7.6612 9.02002C7.71346 9.1462 7.79007 9.26085 7.88664 9.35742L10.5295 12.0002L7.88664 14.643C7.79007 14.7396 7.71346 14.8543 7.6612 14.9804C7.60893 15.1066 7.58203 15.2419 7.58203 15.3784C7.58203 15.515 7.60893 15.6503 7.6612 15.7764C7.71346 15.9026 7.79007 16.0173 7.88664 16.1138C7.98321 16.2104 8.09786 16.287 8.22404 16.3393C8.35022 16.3915 8.48546 16.4184 8.62203 16.4184C8.75861 16.4184 8.89385 16.3915 9.02002 16.3393C9.1462 16.287 9.26085 16.2104 9.35742 16.1138L12.0002 13.471L14.643 16.1138C14.7396 16.2104 14.8543 16.287 14.9804 16.3393C15.1066 16.3915 15.2419 16.4184 15.3784 16.4184C15.515 16.4184 15.6503 16.3915 15.7764 16.3393C15.9026 16.287 16.0173 16.2104 16.1138 16.1138C16.2104 16.0173 16.287 15.9026 16.3393 15.7764C16.3915 15.6503 16.4184 15.515 16.4184 15.3784C16.4184 15.2419 16.3915 15.1066 16.3393 14.9804C16.287 14.8543 16.2104 14.7396 16.1138 14.643Z" fill="white"/>
</svg>
