<svg width="20" height="21" viewBox="0 0 20 21" fill="none" xmlns="http://www.w3.org/2000/svg">
  <path d="M8.33399 7.99984H4.16732C3.66732 7.99984 3.33398 7.6665 3.33398 7.1665V2.99984C3.33398 2.49984 3.66732 2.1665 4.16732 2.1665C4.66732 2.1665 5.00065 2.49984 5.00065 2.99984V6.33317H8.33399C8.83399 6.33317 9.16732 6.6665 9.16732 7.1665C9.16732 7.6665 8.83399 7.99984 8.33399 7.99984Z" fill="white"/>
  <path d="M9.99935 18.0002C9.08268 18.0002 8.16602 17.8335 7.33268 17.5002C5.83268 16.9168 4.58268 15.9168 3.66602 14.5835C3.41602 14.1668 3.49935 13.6668 3.91602 13.4168C4.33268 13.1668 4.83268 13.2502 5.08268 13.6668C5.74935 14.6668 6.74935 15.5002 7.91602 15.9168C9.08268 16.3335 10.3327 16.4168 11.5827 16.0835C12.7493 15.7502 13.8327 15.0002 14.5827 14.0002C15.3327 13.0002 15.7493 11.8335 15.8327 10.5835C15.8327 9.3335 15.4994 8.0835 14.7494 7.0835C13.9994 6.0835 12.9993 5.3335 11.8327 4.91683C10.666 4.50016 9.41602 4.50016 8.16602 4.91683C6.99935 5.3335 5.99935 6.0835 5.24935 7.0835C4.99935 7.50016 4.49935 7.5835 4.08268 7.3335C3.66602 7.0835 3.58268 6.50016 3.91602 6.16683C4.83268 4.8335 6.16602 3.8335 7.66602 3.3335C9.16602 2.8335 10.8327 2.8335 12.3327 3.3335C13.8327 3.8335 15.166 4.8335 16.0827 6.16683C16.9993 7.50016 17.4993 9.00016 17.416 10.6668C17.416 12.2502 16.8327 13.8335 15.8327 15.0835C14.8327 16.3335 13.4993 17.2502 11.916 17.7502C11.416 17.9168 10.666 18.0002 9.99935 18.0002Z" fill="white"/>
</svg>