<svg width="29" height="30" viewBox="0 0 29 30" fill="none" xmlns="http://www.w3.org/2000/svg">
<g clip-path="url(#clip0_4255_6574)">
<path d="M15 12.25C14.4561 12.25 13.9244 12.4113 13.4722 12.7135C13.0199 13.0156 12.6675 13.4451 12.4593 13.9476C12.2512 14.4501 12.1967 15.003 12.3028 15.5365C12.409 16.0699 12.6709 16.5599 13.0555 16.9445C13.44 17.3291 13.9301 17.591 14.4635 17.6971C14.9969 17.8033 15.5499 17.7488 16.0524 17.5407C16.5549 17.3325 16.9844 16.98 17.2865 16.5278C17.5887 16.0756 17.75 15.5439 17.75 15C17.75 14.2706 17.4603 13.5712 16.9445 13.0555C16.4288 12.5397 15.7293 12.25 15 12.25Z" fill="#3B2B8C"/>
<path d="M19.7124 14.4052C19.5693 13.271 19.0221 12.2265 18.171 11.4633C17.3199 10.7001 16.2221 10.2695 15.0791 10.2504L15.4049 9.92725C15.4285 9.90419 15.4473 9.8767 15.4602 9.84635C15.4731 9.81601 15.4799 9.78341 15.4801 9.75043C15.4804 9.71746 15.4741 9.68476 15.4617 9.65422C15.4492 9.62368 15.4309 9.5959 15.4076 9.57249C15.3844 9.54907 15.3568 9.53049 15.3264 9.51779C15.2959 9.5051 15.2633 9.49856 15.2303 9.49854C15.1973 9.49851 15.1647 9.50502 15.1342 9.51767C15.1038 9.53033 15.0761 9.54888 15.0529 9.57226L14.261 10.3577C14.2377 10.3808 14.2191 10.4083 14.2064 10.4386C14.1938 10.4689 14.1871 10.5013 14.187 10.5342C14.1869 10.567 14.1932 10.5995 14.2057 10.6299C14.2181 10.6603 14.2364 10.6879 14.2595 10.7112L15.0514 11.5096C15.0744 11.5332 15.1019 11.552 15.1323 11.5649C15.1626 11.5778 15.1952 11.5846 15.2282 11.5848C15.2612 11.5851 15.2939 11.5788 15.3244 11.5664C15.355 11.5539 15.3827 11.5356 15.4061 11.5123C15.4296 11.4891 15.4481 11.4615 15.4608 11.4311C15.4735 11.4006 15.4801 11.368 15.4801 11.335C15.4801 11.302 15.4736 11.2694 15.461 11.2389C15.4483 11.2085 15.4298 11.1808 15.4064 11.1576L15.0026 10.7505C15.8829 10.7511 16.7414 11.0251 17.4593 11.5345C18.1773 12.044 18.7193 12.7638 19.0106 13.5946C19.3018 14.4254 19.3279 15.3261 19.0852 16.1724C18.8425 17.0186 18.343 17.7686 17.6557 18.3187C17.6301 18.3393 17.6088 18.3647 17.593 18.3934C17.5772 18.4222 17.5672 18.4538 17.5636 18.4864C17.5564 18.5523 17.5756 18.6184 17.6171 18.6701C17.6585 18.7218 17.7189 18.755 17.7848 18.7622C17.8507 18.7695 17.9167 18.7502 17.9685 18.7088C19.2688 17.6659 19.9208 16.0571 19.7124 14.4052Z" fill="#3B2B8C"/>
<path d="M14.9488 18.49C14.9257 18.4664 14.8982 18.4477 14.8679 18.4348C14.8375 18.4218 14.8049 18.4151 14.772 18.4148C14.739 18.4146 14.7063 18.4208 14.6758 18.4333C14.6452 18.4457 14.6174 18.4641 14.594 18.4873C14.5706 18.5105 14.552 18.5381 14.5393 18.5686C14.5266 18.599 14.5201 18.6317 14.5201 18.6646C14.52 18.6976 14.5266 18.7303 14.5392 18.7607C14.5519 18.7912 14.5704 18.8188 14.5938 18.8421L14.9976 19.2491C14.1174 19.2485 13.259 18.9746 12.5412 18.4653C11.8233 17.9559 11.2813 17.2362 10.99 16.4056C10.6987 15.575 10.6725 14.6744 10.9149 13.8283C11.1574 12.9821 11.6567 12.2321 12.3437 11.6819C12.3954 11.6404 12.4285 11.58 12.4357 11.5141C12.443 11.4482 12.4237 11.3821 12.3822 11.3304C12.3407 11.2786 12.2803 11.2455 12.2144 11.2383C12.1485 11.2311 12.0824 11.2503 12.0307 11.2918C10.731 12.3347 10.0794 13.9431 10.2878 15.5945C10.4308 16.7286 10.9781 17.7732 11.8292 18.5364C12.6803 19.2996 13.7781 19.7302 14.9211 19.7492L14.5953 20.0724C14.5718 20.0955 14.553 20.123 14.5401 20.1533C14.5272 20.1837 14.5204 20.2163 14.5201 20.2492C14.5199 20.2822 14.5262 20.3149 14.5386 20.3455C14.551 20.376 14.5694 20.4038 14.5926 20.4272C14.6158 20.4506 14.6435 20.4692 14.6739 20.4819C14.7043 20.4946 14.737 20.5011 14.77 20.5011C14.8029 20.5012 14.8356 20.4947 14.8661 20.482C14.8965 20.4693 14.9241 20.4508 14.9474 20.4274L15.7393 19.6419C15.7626 19.6188 15.7811 19.5914 15.7938 19.5611C15.8065 19.5308 15.8131 19.4983 15.8132 19.4655C15.8134 19.4327 15.807 19.4001 15.7946 19.3698C15.7822 19.3394 15.7639 19.3117 15.7407 19.2884L14.9488 18.49Z" fill="#3B2B8C"/>
<path d="M15.8848 14.5518L15.7949 14.8604H13.9824L14.0723 14.5518H15.8848ZM15.0723 16.7002L14.0391 15.4932L14.0371 15.251H14.5137C14.6517 15.251 14.7656 15.2282 14.8555 15.1826C14.9466 15.1357 15.015 15.0726 15.0605 14.9932C15.1061 14.9137 15.1289 14.8245 15.1289 14.7256C15.1289 14.6149 15.1074 14.5179 15.0645 14.4346C15.0215 14.3499 14.9538 14.2842 14.8613 14.2373C14.7702 14.1891 14.6504 14.165 14.502 14.165H13.9863L14.0781 13.8564H14.502C14.7285 13.8564 14.9154 13.891 15.0625 13.96C15.2109 14.0277 15.3216 14.1266 15.3945 14.2568C15.4674 14.387 15.5039 14.5446 15.5039 14.7295C15.5039 14.8883 15.4733 15.0309 15.4121 15.1572C15.3522 15.2822 15.2526 15.3805 15.1133 15.4521C14.9753 15.5238 14.7891 15.5596 14.5547 15.5596L15.5156 16.6768V16.7002H15.0723ZM15.8848 13.8564L15.7949 14.165H14.334L14.4238 13.8564H15.8848Z" fill="white"/>
</g>
<defs>
<clipPath id="clip0_4255_6574">
<rect width="12" height="12" fill="white" transform="translate(8.5 8.99414)"/>
</clipPath>
</defs>
</svg>
