<svg width="33" height="33" viewBox="0 0 33 33" fill="none" xmlns="http://www.w3.org/2000/svg">
<rect width="33" height="33" rx="6" fill="#141482"/>
<g clip-path="url(#clip0_95_7065)">
<path d="M8.96875 24H12.75C13.0091 24 13.2188 23.7903 13.2188 23.5312V19.7812C13.2188 19.5222 13.0091 19.3125 12.75 19.3125H8.96875C8.70966 19.3125 8.5 19.5222 8.5 19.7812V23.5312C8.5 23.7903 8.70966 24 8.96875 24Z" fill="white"/>
<path d="M18.375 19.3125H14.625C14.3659 19.3125 14.1562 19.5222 14.1562 19.7812V23.5312C14.1562 23.7903 14.3659 24 14.625 24H18.375C18.6341 24 18.8438 23.7903 18.8438 23.5312V19.7812C18.8438 19.5222 18.6341 19.3125 18.375 19.3125Z" fill="white"/>
<path d="M24.0312 19.3125H20.25C19.9909 19.3125 19.7812 19.5222 19.7812 19.7812V23.5312C19.7812 23.7903 19.9909 24 20.25 24H24.0312C24.2903 24 24.5 23.7903 24.5 23.5312V19.7812C24.5 19.5222 24.2903 19.3125 24.0312 19.3125Z" fill="white"/>
<path d="M22.125 18.375C22.3841 18.375 22.5938 18.1653 22.5938 17.9062V16.9688C22.5938 16.7097 22.3841 16.5 22.125 16.5H16.9688V16.0312C16.9688 15.7722 16.7591 15.5625 16.5 15.5625C16.2409 15.5625 16.0312 15.7722 16.0312 16.0312V16.5H10.875C10.6159 16.5 10.4062 16.7097 10.4062 16.9688V17.9062C10.4062 18.1653 10.6159 18.375 10.875 18.375C11.1341 18.375 11.3438 18.1653 11.3438 17.9062V17.4375H16.0312V17.9062C16.0312 18.1653 16.2409 18.375 16.5 18.375C16.7591 18.375 16.9688 18.1653 16.9688 17.9062V17.4375H21.6562V17.9062C21.6562 18.1653 21.8659 18.375 22.125 18.375Z" fill="white"/>
<path d="M16.5 11.8125C17.2767 11.8125 17.9062 11.1829 17.9062 10.4062C17.9062 9.6296 17.2767 9 16.5 9C15.7233 9 15.0938 9.6296 15.0938 10.4062C15.0938 11.1829 15.7233 11.8125 16.5 11.8125Z" fill="white"/>
<path d="M14.1562 14.1562C14.1562 14.4153 14.3659 14.625 14.625 14.625H18.375C18.6341 14.625 18.8438 14.4153 18.8438 14.1562C18.8438 12.864 17.7923 11.8125 16.5 11.8125C15.2077 11.8125 14.1562 12.864 14.1562 14.1562Z" fill="white"/>
</g>
<defs>
<clipPath id="clip0_95_7065">
<rect width="16" height="16" fill="white" transform="translate(8.5 8.5)"/>
</clipPath>
</defs>
</svg>
