<svg width="33" height="34" viewBox="0 0 33 34" fill="none" xmlns="http://www.w3.org/2000/svg">
<rect y="0.168549" width="33" height="33" rx="6" fill="#F3F4F6"/>
<g clip-path="url(#clip0_2641_84)">
<path d="M8.96875 24.1685H12.75C13.0091 24.1685 13.2188 23.9589 13.2188 23.6998V19.9498C13.2188 19.6907 13.0091 19.481 12.75 19.481H8.96875C8.70966 19.481 8.5 19.6907 8.5 19.9498V23.6998C8.5 23.9589 8.70966 24.1685 8.96875 24.1685Z" fill="#606C85"/>
<path d="M18.375 19.481H14.625C14.3659 19.481 14.1562 19.6907 14.1562 19.9498V23.6998C14.1562 23.9589 14.3659 24.1685 14.625 24.1685H18.375C18.6341 24.1685 18.8438 23.9589 18.8438 23.6998V19.9498C18.8438 19.6907 18.6341 19.481 18.375 19.481Z" fill="#606C85"/>
<path d="M24.0312 19.481H20.25C19.9909 19.481 19.7812 19.6907 19.7812 19.9498V23.6998C19.7812 23.9589 19.9909 24.1685 20.25 24.1685H24.0312C24.2903 24.1685 24.5 23.9589 24.5 23.6998V19.9498C24.5 19.6907 24.2903 19.481 24.0312 19.481Z" fill="#606C85"/>
<path d="M22.125 18.5435C22.3841 18.5435 22.5938 18.3339 22.5938 18.0748V17.1373C22.5938 16.8782 22.3841 16.6685 22.125 16.6685H16.9688V16.1998C16.9688 15.9407 16.7591 15.731 16.5 15.731C16.2409 15.731 16.0312 15.9407 16.0312 16.1998V16.6685H10.875C10.6159 16.6685 10.4062 16.8782 10.4062 17.1373V18.0748C10.4062 18.3339 10.6159 18.5435 10.875 18.5435C11.1341 18.5435 11.3438 18.3339 11.3438 18.0748V17.606H16.0312V18.0748C16.0312 18.3339 16.2409 18.5435 16.5 18.5435C16.7591 18.5435 16.9688 18.3339 16.9688 18.0748V17.606H21.6562V18.0748C21.6562 18.3339 21.8659 18.5435 22.125 18.5435Z" fill="#606C85"/>
<path d="M16.5 11.981C17.2767 11.981 17.9062 11.3514 17.9062 10.5748C17.9062 9.79815 17.2767 9.16855 16.5 9.16855C15.7233 9.16855 15.0938 9.79815 15.0938 10.5748C15.0938 11.3514 15.7233 11.981 16.5 11.981Z" fill="#606C85"/>
<path d="M14.1562 14.3248C14.1562 14.5839 14.3659 14.7935 14.625 14.7935H18.375C18.6341 14.7935 18.8438 14.5839 18.8438 14.3248C18.8438 13.0325 17.7923 11.981 16.5 11.981C15.2077 11.981 14.1562 13.0325 14.1562 14.3248Z" fill="#606C85"/>
</g>
<defs>
<clipPath id="clip0_2641_84">
<rect width="16" height="16" fill="white" transform="translate(8.5 8.66855)"/>
</clipPath>
</defs>
</svg>
