<svg width="29" height="40" viewBox="0 0 29 40" fill="none" xmlns="http://www.w3.org/2000/svg">
<path id="Vector" d="M19.5304 35.5796L19.5225 35.571L19.5143 35.5627L19.5142 35.5627L19.5142 35.5626L19.5141 35.5626L19.5141 35.5626L19.514 35.5625L19.514 35.5625L19.5139 35.5624L19.5139 35.5624L19.5139 35.5623L19.5138 35.5623L19.5138 35.5622L19.5137 35.5622L19.5137 35.5622L19.5136 35.5621L19.5136 35.5621L19.5135 35.562L19.5135 35.562L19.5134 35.5619L19.5134 35.5619L19.5133 35.5618L19.5133 35.5618L19.5133 35.5617L19.5132 35.5617L19.5132 35.5616L19.5131 35.5616L19.5131 35.5615L19.513 35.5615L19.513 35.5615L19.5129 35.5614L19.5129 35.5614L19.5128 35.5613L19.5128 35.5613L19.5127 35.5612L19.5127 35.5612L19.5126 35.5611L19.5126 35.5611L19.5125 35.561L19.5125 35.561L19.5124 35.5609L19.5124 35.5609L19.5123 35.5608L19.5123 35.5608L19.5122 35.5607L19.5122 35.5607L19.5121 35.5606L19.5121 35.5606L19.512 35.5605L19.512 35.5605L19.5119 35.5604L19.5119 35.5604L19.5118 35.5603L19.5118 35.5603L19.5117 35.5602L19.5117 35.5602L19.5116 35.5601L19.5116 35.5601L19.5115 35.56L19.5115 35.5599L19.5114 35.5599L19.5114 35.5598L19.5113 35.5598L19.5112 35.5597L19.5112 35.5597L19.5111 35.5596L19.5111 35.5596L19.511 35.5595L19.511 35.5595L19.5109 35.5594L19.5109 35.5594L19.5108 35.5593L19.5108 35.5593L19.5107 35.5592L19.5107 35.5591L19.5106 35.5591L19.5105 35.559L19.5105 35.559L19.5104 35.5589L19.5104 35.5589L19.5103 35.5588L19.5103 35.5588L19.5102 35.5587L19.5102 35.5587L19.5101 35.5586L19.5101 35.5585L19.51 35.5585L19.5099 35.5584L19.5099 35.5584L19.5098 35.5583L19.5098 35.5583L19.5097 35.5582L19.5097 35.5582L19.5096 35.5581L19.5096 35.558L19.5095 35.558L19.5094 35.5579L19.5094 35.5579L19.5093 35.5578L19.5093 35.5578L19.5092 35.5577L19.5091 35.5576L19.5091 35.5576L19.509 35.5575L19.509 35.5575L19.5089 35.5574L19.5089 35.5574L19.5088 35.5573L19.5087 35.5572L19.5087 35.5572L19.5086 35.5571L19.5086 35.5571L19.5085 35.557L19.5085 35.557L19.5084 35.5569L19.5083 35.5568L19.5083 35.5568L19.5082 35.5567L19.5082 35.5567L19.5081 35.5566L19.508 35.5565L19.508 35.5565L19.5079 35.5564L19.5079 35.5564L19.5078 35.5563L19.5077 35.5562L19.5077 35.5562L19.5076 35.5561L19.5076 35.5561L19.5075 35.556L19.5074 35.5559L19.5074 35.5559L19.5073 35.5558L19.5073 35.5558L19.5072 35.5557L19.5071 35.5556L19.5071 35.5556L19.507 35.5555L19.507 35.5555L19.5069 35.5554L19.5068 35.5553L19.5068 35.5553L19.5067 35.5552L19.5067 35.5552L19.5066 35.5551L19.5065 35.555L19.5065 35.555L19.5064 35.5549L19.5064 35.5549L19.5063 35.5548L19.5062 35.5547L19.5062 35.5547L19.5061 35.5546L19.506 35.5546L19.506 35.5545L19.5059 35.5544L19.5059 35.5544L19.5058 35.5543L19.5057 35.5542L19.5057 35.5542L19.5056 35.5541L19.5055 35.5541L19.5055 35.554L19.5054 35.5539L19.5054 35.5539L19.5053 35.5538L19.5052 35.5537L19.5052 35.5537L19.5051 35.5536L19.505 35.5536L19.505 35.5535L19.5049 35.5534L19.5049 35.5534L19.5048 35.5533L19.5047 35.5532L19.5047 35.5532L19.5046 35.5531L19.5045 35.5531L19.5045 35.553L19.5044 35.5529L19.5044 35.5529L19.5043 35.5528L19.5042 35.5527L19.5042 35.5527L19.5041 35.5526L19.504 35.5525L19.504 35.5525L19.5039 35.5524L19.5038 35.5524L19.5038 35.5523L19.5037 35.5522L19.5036 35.5522L19.5036 35.5521L19.5035 35.552L19.5035 35.552L19.5034 35.5519L19.5033 35.5518L19.5033 35.5518L19.5032 35.5517L19.5031 35.5517L19.5031 35.5516L19.503 35.5515L19.5029 35.5515L19.5029 35.5514L19.5028 35.5513L19.5028 35.5513L19.5027 35.5512L19.5026 35.5511L19.5026 35.5511L19.5025 35.551L19.5024 35.5509L19.5024 35.5509L19.5023 35.5508L19.5022 35.5508L19.5022 35.5507L19.5021 35.5506L19.502 35.5506L19.502 35.5505L19.5019 35.5504L19.5018 35.5504L19.5018 35.5503L19.5017 35.5502L19.5016 35.5502L19.5016 35.5501L19.5015 35.55L19.5015 35.55L19.5014 35.5499L19.5013 35.5498L19.5013 35.5498L19.5012 35.5497L19.5011 35.5497L19.5011 35.5496L19.501 35.5495L19.5009 35.5495L19.5009 35.5494L19.5008 35.5493L19.5007 35.5493L19.5007 35.5492L19.5006 35.5491L19.5005 35.5491L19.5005 35.549L19.5004 35.5489L19.5003 35.5489L19.5003 35.5488L19.5002 35.5487L19.5001 35.5487L19.5001 35.5486L19.5 35.5485L19.5 35.5485L19.4999 35.5484L19.4998 35.5483L19.4998 35.5483L19.4997 35.5482L19.4996 35.5482L19.4996 35.5481L19.4995 35.548L19.4994 35.548L19.4994 35.5479L19.4993 35.5478L19.4992 35.5478L19.4992 35.5477L19.4991 35.5476L19.499 35.5476L19.499 35.5475L19.4989 35.5474L19.4988 35.5474L19.4988 35.5473L19.4987 35.5472L19.4986 35.5472L19.4986 35.5471L19.4985 35.547L19.4984 35.547L19.4984 35.5469L19.4983 35.5468L19.4983 35.5468L19.4982 35.5467L19.4981 35.5467L19.4981 35.5466L19.498 35.5465L19.4979 35.5465L19.4979 35.5464L19.4978 35.5463L19.4977 35.5463L19.4977 35.5462L19.4976 35.5461L19.4975 35.5461L19.4975 35.546L19.4974 35.5459L19.4973 35.5459L19.4973 35.5458L19.4972 35.5457L19.4971 35.5457L19.4971 35.5456L19.497 35.5456L19.4969 35.5455L19.4969 35.5454L19.4968 35.5454L19.4968 35.5453L19.4967 35.5452L19.4966 35.5452L19.4966 35.5451L19.4965 35.545L19.4964 35.545L19.4964 35.5449L19.4963 35.5448L19.4962 35.5448L19.4962 35.5447L19.4961 35.5446L19.496 35.5446L19.496 35.5445L19.4959 35.5445L19.4958 35.5444L19.4958 35.5443L19.4957 35.5443L19.4957 35.5442L19.4956 35.5441L19.4955 35.5441L19.4955 35.544L19.4954 35.5439L19.4953 35.5439L19.4953 35.5438L19.4952 35.5437L19.4951 35.5437L19.4951 35.5436L19.495 35.5436L19.4949 35.5435L19.4949 35.5434L19.4948 35.5434L19.4948 35.5433L19.4947 35.5432L19.4946 35.5432L19.4946 35.5431L19.4945 35.543L19.4944 35.543L19.4944 35.5429L19.4943 35.5429L19.4942 35.5428L19.4942 35.5427L19.4941 35.5427L19.4941 35.5426L19.494 35.5425L19.4939 35.5425L19.4939 35.5424L19.4938 35.5424L19.4937 35.5423L19.4937 35.5422L19.4936 35.5422L19.4936 35.5421L19.4935 35.542L19.4934 35.542L19.4934 35.5419L19.4933 35.5419L19.4932 35.5418L19.4932 35.5417L19.4931 35.5417L19.4931 35.5416L19.493 35.5415L19.4929 35.5415L19.4929 35.5414L19.4928 35.5414L19.4927 35.5413L19.4927 35.5412L19.4926 35.5412L19.4926 35.5411L19.4925 35.541L19.4924 35.541L19.4924 35.5409L19.4923 35.5409L19.4922 35.5408L19.4922 35.5407L19.4921 35.5407L19.4921 35.5406L19.492 35.5406L19.4919 35.5405L19.4919 35.5404L19.4918 35.5404L19.4918 35.5403L19.4917 35.5403L19.4916 35.5402L19.4916 35.5401L19.4915 35.5401L19.4915 35.54L19.4914 35.54L19.4913 35.5399L19.4913 35.5398L19.4912 35.5398L19.4912 35.5397L19.4911 35.5397L19.491 35.5396L19.491 35.5395L19.4909 35.5395L19.4909 35.5394L19.4908 35.5394L19.4907 35.5393L19.4907 35.5392L19.4906 35.5392L19.4906 35.5391L19.4905 35.5391L19.4904 35.539L19.4904 35.5389L19.4903 35.5389L19.4903 35.5388L19.4902 35.5388L19.4902 35.5387L19.4901 35.5387L19.49 35.5386L19.49 35.5385L19.4899 35.5385L19.4899 35.5384L8.25541 23.4845H10.2333C15.7847 23.4845 20.4341 19.5533 21.5262 14.3286H26.1459C27.4392 14.3286 28.5 13.2841 28.5 11.9811L28.5 11.9774C28.4905 10.6867 27.4412 9.64102 26.1459 9.64102H21.5254C21.1865 8.03229 20.5077 6.51402 19.5304 5.19499H26.131C27.4243 5.19499 28.4851 4.15054 28.4851 2.8475C28.4851 1.54576 27.433 0.5 26.131 0.5H2.85411C1.55821 0.5 0.507447 1.54707 0.507447 2.8475C0.507447 4.14051 1.55821 5.19499 2.86156 5.19499H10.2403C13.1212 5.20167 15.6647 6.99647 16.647 9.64102H5.32626C4.03298 9.64102 2.97215 10.6855 2.97215 11.9885C2.97215 13.2815 4.02291 14.336 5.32626 14.336H16.6491C15.6729 16.9901 13.1279 18.7969 10.2408 18.7969H2.85411C1.56215 18.7969 0.5 19.84 0.5 21.137C0.5 21.7332 0.728292 22.3 1.13383 22.7325C1.13396 22.7327 1.1341 22.7328 1.13424 22.733L16.0504 38.7306C16.0513 38.7316 16.0522 38.7326 16.0531 38.7336C16.925 39.6935 18.4152 39.7576 19.3695 38.8926C20.3364 38.0231 20.4016 36.5326 19.5304 35.5796Z" fill="url(#paint0_linear_363_82106)" stroke="#85C7FF"/>
<defs>
<linearGradient id="paint0_linear_363_82106" x1="1" y1="1" x2="28.1414" y2="1.10126" gradientUnits="userSpaceOnUse">
<stop stop-color="#D499FF"/>
<stop offset="1" stop-color="#4DE7FF"/>
</linearGradient>
</defs>
</svg>
