<svg width="16" height="16" viewBox="0 0 16 16" fill="none" xmlns="http://www.w3.org/2000/svg">
<g clip-path="url(#clip0_14_4602)">
<path d="M12.8875 3.85H10.775C10.6281 2.99687 10.2469 2.2 9.66873 1.55625H12.8812C13.3094 1.55625 13.6594 1.20938 13.6594 0.778125C13.6594 0.346875 13.3125 0 12.8812 0H3.11248C2.68435 0 2.33748 0.346875 2.33748 0.778125C2.33748 1.20625 2.68435 1.55625 3.1156 1.55625H6.21248C7.60935 1.55937 8.83123 2.5 9.18748 3.85H4.14998C3.72185 3.85 3.37185 4.19688 3.37185 4.62813C3.37185 5.05625 3.71873 5.40625 4.14998 5.40625H9.18748C8.83435 6.75938 7.61248 7.70625 6.21248 7.70625H3.11248C2.68435 7.70625 2.33435 8.05312 2.33435 8.48125C2.33435 8.67812 2.40935 8.86562 2.54373 9.00937L8.80622 15.75C9.09372 16.0688 9.58747 16.0906 9.9031 15.8031C10.2218 15.5156 10.2437 15.0219 9.95623 14.7063C9.9531 14.7031 9.94685 14.6969 9.94373 14.6938L4.89685 9.25937H6.20935C8.49685 9.25937 10.4031 7.59062 10.775 5.40312H12.8875C13.3156 5.40312 13.6656 5.05625 13.6656 4.625C13.6625 4.19688 13.3156 3.85 12.8875 3.85Z" fill="white"/>
</g>
<defs>
<clipPath id="clip0_14_4602">
<rect width="16" height="16" fill="white"/>
</clipPath>
</defs>
</svg>
