<svg width="202" height="85" viewBox="0 0 202 85" fill="none" xmlns="http://www.w3.org/2000/svg">
<path fill-rule="evenodd" clip-rule="evenodd" d="M39.9896 1.88579C40.7429 1.88579 41.3865 2.1552 41.9203 2.69396C42.4341 3.20779 42.701 3.82642 42.7209 4.54977V15.6472H44.5169V4.50488C44.4919 3.30758 44.0505 2.2799 43.1924 1.42184C42.3044 0.533838 41.2368 0.0898438 39.9896 0.0898438H4.53469C3.28256 0.0898438 2.21495 0.533838 1.33195 1.42184C0.473936 2.27492 0.0298754 3.30759 0 4.51984C0 4.52982 0 4.53731 0 4.54229V80.3759C0 81.6281 0.443944 82.6957 1.33195 83.5787V83.5862C2.21497 84.4691 3.28256 84.9107 4.53469 84.9107H39.9896C41.2368 84.9107 42.3044 84.4692 43.1924 83.5862L43.1998 83.5787C44.053 82.7256 44.4919 81.698 44.5169 80.4956V59.5879H42.7209V80.4732C42.701 81.1866 42.4341 81.7977 41.9203 82.3065C41.3865 82.8453 40.7429 83.1147 39.9896 83.1147H4.53469C3.77644 83.1147 3.13289 82.8453 2.60408 82.3065H2.59664C2.06279 81.7728 1.79594 81.1292 1.79594 80.3759V4.54229C1.82083 3.81893 2.08779 3.20282 2.59664 2.69396C3.13039 2.1552 3.77644 1.88579 4.53467 1.88579H39.9896Z" fill="#141482"/>
<path fill-rule="evenodd" clip-rule="evenodd" d="M199.321 19.7551H196.38L199.007 22.5613L196.38 25.5321H199.321L202 22.5613L199.321 19.7551ZM193.73 22.5613L191.103 25.5321H194.044L196.723 22.5613L194.044 19.7551H191.103L193.73 22.5613ZM188.762 25.5319L191.441 22.5611L188.762 19.7549H185.821L188.448 22.5611L185.821 25.5319H188.762Z" fill="#141482"/>
<path fill-rule="evenodd" clip-rule="evenodd" d="M193.085 28.3367H185.841V55.3058H193.085V28.3367ZM168.241 27.8056C166.559 27.8056 165.003 28.1149 163.571 28.7335C162.154 29.3521 160.927 30.2277 159.889 31.3601V19.664H152.646V55.306H159.889V40.6391C159.889 38.7334 160.463 37.2393 161.611 36.1567C162.758 35.0642 164.295 34.5179 166.22 34.5179C167.921 34.5179 169.231 35.0293 170.149 36.052C171.052 37.0797 171.503 38.5538 171.503 40.4745V55.306H178.792V39.6589C178.792 35.9323 177.919 33.0238 176.173 30.9336C174.382 28.8483 171.738 27.8056 168.241 27.8056M140.134 28.3378V21.7901L132.867 22.5533V28.3378H128.093V34.5188H132.867V46.2373C132.867 49.4401 133.713 51.8272 135.404 53.3986C137.1 54.9701 139.515 55.7558 142.648 55.7558C144.045 55.7558 145.501 55.6062 147.018 55.3068V49.0959C146.21 49.2206 145.344 49.2829 144.421 49.2829C142.96 49.2829 141.882 48.9911 141.189 48.4074C140.485 47.8287 140.134 46.8409 140.134 45.4441V34.5188H146.651V28.3378H140.134M123.403 28.3367H117.094L116.825 31.0156C114.37 28.8405 111.452 27.753 108.07 27.753C105.49 27.753 103.166 28.3516 101.095 29.5489C99.0301 30.7212 97.4039 32.3775 96.2164 34.5177C95.548 35.735 95.0715 37.0594 94.7873 38.4912C94.5727 39.5339 94.4655 40.6389 94.4655 41.8062C94.4655 42.9536 94.5727 44.0586 94.7873 45.1212C95.0715 46.4832 95.533 47.7727 96.1716 48.99C97.3141 51.1302 98.9203 52.8113 100.991 54.0336C103.061 55.2708 105.421 55.8894 108.07 55.8894C109.736 55.8894 111.31 55.6051 112.792 55.0363C114.298 54.4726 115.643 53.6594 116.825 52.5968L117.094 55.3057H123.403V28.3367M103.886 36.6136C105.208 35.2517 106.922 34.5707 109.027 34.5707C111.092 34.5707 112.799 35.2517 114.145 36.6136C115.493 37.9705 116.166 39.7016 116.166 41.8068C116.166 43.9121 115.493 45.6432 114.145 47.0001C112.799 48.362 111.092 49.043 109.027 49.043C106.922 49.043 105.208 48.362 103.886 47.0001C102.539 45.6431 101.866 43.9121 101.866 41.8068C101.866 39.7016 102.539 37.9705 103.886 36.6136ZM60.3127 38.4912C60.0982 39.5339 59.9909 40.6389 59.9909 41.8062C59.9909 42.9536 60.0982 44.0586 60.3127 45.1212C60.597 46.4832 61.0585 47.7727 61.6971 48.99C62.8395 51.1302 64.4458 52.8113 66.5162 54.0336C68.5865 55.2708 70.9462 55.8893 73.5951 55.8893C75.2614 55.8893 76.8353 55.605 78.317 55.0363C79.8236 54.4726 81.168 53.6594 82.3504 52.5968L82.6197 55.3057H88.928V28.3367H82.6197L82.3504 31.0156C79.896 28.8405 76.9774 27.753 73.5951 27.753C71.0159 27.753 68.6912 28.3516 66.6209 29.5489C64.5556 30.7212 62.9293 32.3775 61.7419 34.5177C61.0734 35.735 60.597 37.0594 60.3127 38.4912M67.3912 41.8068C67.3912 39.7016 68.0648 37.9705 69.4117 36.6136C70.7336 35.2517 72.4473 34.5707 74.5525 34.5707C76.6179 34.5707 78.324 35.2517 79.6709 36.6136C81.0179 37.9705 81.6914 39.7016 81.6914 41.8068C81.6914 43.9121 81.0179 45.6432 79.6709 47.0001C78.324 48.362 76.6179 49.043 74.5525 49.043C72.4473 49.043 70.7336 48.362 69.4117 47.0001C68.0648 45.6431 67.3912 43.9121 67.3912 41.8068ZM54.7979 50.6145C55.9653 48.9134 56.5489 46.9304 56.5489 44.6655C56.5489 41.5575 55.4889 39.128 53.3688 37.3769C51.2435 35.6658 48.1754 34.4636 44.1645 33.7701C41.6352 33.366 39.8941 32.8721 38.9413 32.2885C37.9884 31.7048 37.512 30.8716 37.512 29.7891C37.512 28.6966 37.9635 27.8485 38.8664 27.2449C39.7844 26.6113 41.0391 26.2945 42.6304 26.2945C44.2518 26.2945 45.5389 26.6312 46.4917 27.3047C47.4296 27.9932 48.0158 29.0084 48.2502 30.3503H55.9129C55.6136 26.9381 54.2791 24.2167 51.9095 22.1863C49.5548 20.1709 46.5141 19.1631 42.7876 19.1631C40.2733 19.1631 38.0283 19.6046 36.0528 20.4877C34.0873 21.3557 32.5582 22.6203 31.4657 24.2816C30.3533 25.9229 29.797 27.8485 29.797 30.0585C29.797 33.1515 30.8196 35.5211 32.865 37.1675C34.9154 38.7938 37.9036 39.9512 41.8298 40.6396C44.3242 41.0836 46.0926 41.6324 47.1353 42.2859C48.1629 42.9194 48.6768 43.8124 48.6768 44.9648C48.6768 46.0973 48.1879 46.9803 47.2101 47.6138C46.2223 48.2673 44.8454 48.5941 43.0794 48.5941C41.2236 48.5941 39.7719 48.1975 38.7243 47.4043C37.6816 46.5911 37.1005 45.4412 36.9807 43.9546H29.2881C29.5176 47.6812 30.852 50.5896 33.2916 52.6799C35.7111 54.7303 38.9737 55.7555 43.0794 55.7555C45.6585 55.7555 47.9634 55.3139 49.9938 54.4309C52.0292 53.5629 53.6306 52.2907 54.7979 50.6145H54.7979Z" fill="#141482"/>
<path fill-rule="evenodd" clip-rule="evenodd" d="M1.69092 75.2556V80.4564C1.75577 82.0577 2.6737 83.0655 4.44472 83.4796L39.4356 83.4944C41.5558 83.28 42.7008 82.135 42.8704 80.0597V59.6309H29.2138V67.503H15.4523V75.2556H1.69092Z" fill="#141482"/>
</svg>
