<svg width="105" height="44" viewBox="0 0 105 44" fill="none" xmlns="http://www.w3.org/2000/svg">
<path fill-rule="evenodd" clip-rule="evenodd" d="M20.7442 0.931628C21.135 0.931628 21.4689 1.07138 21.7457 1.35086C22.0123 1.61741 22.1507 1.93831 22.1611 2.31354V8.07023H23.0927V2.29026C23.0798 1.66917 22.8508 1.13607 22.4056 0.690961C21.945 0.230318 21.3912 0 20.7442 0H2.35232C1.70279 0 1.14898 0.230318 0.690935 0.690961C0.24585 1.13349 0.0154976 1.66918 0 2.29802C0 2.30319 0 2.30708 0 2.30967V41.6476C0 42.2972 0.230292 42.851 0.690935 43.309V43.3129C1.14899 43.771 1.70279 44 2.35232 44H20.7442C21.3912 44 21.945 43.771 22.4056 43.3129L22.4095 43.309C22.8521 42.8665 23.0798 42.3334 23.0927 41.7097V30.864H22.1611V41.6981C22.1507 42.0682 22.0123 42.3852 21.7457 42.6491C21.4689 42.9286 21.135 43.0684 20.7442 43.0684H2.35232C1.95899 43.0684 1.62516 42.9286 1.35084 42.6491H1.34698C1.07005 42.3722 0.931628 42.0384 0.931628 41.6476V2.30967C0.944538 1.93443 1.08302 1.61483 1.34698 1.35086C1.62386 1.07138 1.95899 0.931628 2.35232 0.931628H20.7442Z" fill="#141482"/>
<path fill-rule="evenodd" clip-rule="evenodd" d="M103.396 10.2011H101.87L103.232 11.6568L101.87 13.1979H103.396L104.785 11.6568L103.396 10.2011ZM100.495 11.6568L99.1329 13.1979H100.658L102.048 11.6568L100.658 10.2011H99.1329L100.495 11.6568ZM97.9182 13.1979L99.3078 11.6568L97.9182 10.2011H96.3926L97.7552 11.6568L96.3926 13.1979H97.9182Z" fill="#141482"/>
<path fill-rule="evenodd" clip-rule="evenodd" d="M100.161 14.6539H96.4035V28.6438H100.161V14.6539ZM87.2733 14.3782C86.4012 14.3782 85.5938 14.5387 84.8511 14.8596C84.1161 15.1805 83.4795 15.6347 82.9412 16.2221V10.1548H79.1836V28.6438H82.9412V21.0355C82.9412 20.0469 83.2388 19.2719 83.8341 18.7103C84.4292 18.1435 85.2263 17.8602 86.2252 17.8602C87.1077 17.8602 87.787 18.1255 88.2632 18.656C88.7315 19.1891 88.9658 19.9538 88.9658 20.9501V28.6438H92.7467V20.527C92.7467 18.5939 92.2938 17.0851 91.388 16.0009C90.459 14.9191 89.0874 14.3783 87.2733 14.3783M72.6932 14.6539V11.2574L68.924 11.6533V14.6539H66.4475V17.8603H68.924V23.9392C68.924 25.6006 69.3626 26.8389 70.2399 27.654C71.1198 28.4692 72.3723 28.8768 73.9975 28.8768C74.7221 28.8768 75.4778 28.7992 76.2644 28.6439V25.422C75.8453 25.4867 75.3962 25.519 74.9174 25.519C74.1592 25.519 73.6002 25.3677 73.2405 25.0649C72.8756 24.7647 72.6932 24.2523 72.6932 23.5277V17.8603H76.0743V14.6539H72.6932M64.0137 14.6539H60.7413L60.6016 16.0436C59.3284 14.9153 57.8144 14.3511 56.0599 14.3511C54.7219 14.3511 53.516 14.6617 52.4421 15.2828C51.3707 15.8909 50.5271 16.7501 49.9111 17.8602C49.5644 18.4917 49.3172 19.1787 49.1698 19.9215C49.0584 20.4623 49.0028 21.0356 49.0028 21.6411C49.0028 22.2363 49.0584 22.8095 49.1698 23.3607C49.3172 24.0672 49.5566 24.7362 49.8879 25.3676C50.4805 26.4778 51.3138 27.3499 52.3878 27.9839C53.4617 28.6257 54.6857 28.9466 56.0599 28.9466C56.9243 28.9466 57.7407 28.7991 58.5093 28.5041C59.2908 28.2117 59.9882 27.7898 60.6016 27.2386L60.7413 28.6438H64.0137V14.6539M53.8899 18.9471C54.5756 18.2407 55.4646 17.8874 56.5566 17.8874C57.628 17.8874 58.5131 18.2407 59.2117 18.9471C59.9105 19.651 60.2599 20.549 60.2599 21.6411C60.2599 22.7332 59.9105 23.6311 59.2117 24.335C58.5131 25.0415 57.628 25.3948 56.5566 25.3948C55.4646 25.3948 54.5756 25.0415 53.8899 24.335C53.1912 23.6311 52.8418 22.7332 52.8418 21.6411C52.8418 20.549 53.1912 19.651 53.8899 18.9471ZM31.2865 19.9215C31.1753 20.4623 31.1196 21.0355 31.1196 21.6411C31.1196 22.2363 31.1753 22.8095 31.2865 23.3607C31.434 24.0672 31.6734 24.7362 32.0047 25.3676C32.5973 26.4778 33.4306 27.3499 34.5046 27.9839C35.5785 28.6257 36.8026 28.9466 38.1767 28.9466C39.0411 28.9466 39.8575 28.7991 40.6261 28.5041C41.4076 28.2117 42.105 27.7898 42.7184 27.2386L42.8581 28.6438H46.1305V14.6539H42.8581L42.7184 16.0436C41.4452 14.9153 39.9312 14.3511 38.1767 14.3511C36.8388 14.3511 35.6328 14.6617 34.5589 15.2828C33.4875 15.8909 32.6439 16.7501 32.028 17.8602C31.6812 18.4917 31.434 19.1787 31.2865 19.9215M34.9586 21.6411C34.9586 20.549 35.308 19.651 36.0067 18.9471C36.6924 18.2407 37.5814 17.8874 38.6734 17.8874C39.7448 17.8874 40.6298 18.2407 41.3285 18.9471C42.0273 19.651 42.3767 20.549 42.3767 21.6411C42.3767 22.7332 42.0273 23.6311 41.3285 24.335C40.6298 25.0415 39.7448 25.3948 38.6734 25.3948C37.5814 25.3948 36.6924 25.0415 36.0067 24.335C35.308 23.6311 34.9586 22.7332 34.9586 21.6411ZM28.4259 26.2099C29.0314 25.3275 29.3342 24.2988 29.3342 23.1239C29.3342 21.5117 28.7843 20.2514 27.6845 19.343C26.582 18.4554 24.9905 17.8317 22.9099 17.472C21.5978 17.2624 20.6946 17.0062 20.2004 16.7034C19.7061 16.4007 19.459 15.9685 19.459 15.4069C19.459 14.8402 19.6932 14.4002 20.1616 14.0871C20.6377 13.7585 21.2886 13.5941 22.1141 13.5941C22.9551 13.5941 23.6228 13.7688 24.1171 14.1182C24.6036 14.4753 24.9077 15.0019 25.0293 15.698H29.0043C28.849 13.928 28.1567 12.5163 26.9275 11.463C25.706 10.4176 24.1287 9.89478 22.1956 9.89478C20.8913 9.89478 19.7268 10.1238 18.702 10.5819C17.6824 11.0322 16.8892 11.6882 16.3225 12.5499C15.7454 13.4014 15.4568 14.4002 15.4568 15.5467C15.4568 17.1511 15.9873 18.3804 17.0484 19.2344C18.112 20.078 19.6621 20.6784 21.6988 21.0355C22.9927 21.2658 23.9101 21.5505 24.4509 21.8895C24.984 22.2182 25.2506 22.6814 25.2506 23.2792C25.2506 23.8666 24.9969 24.3247 24.4897 24.6533C23.9774 24.9923 23.2631 25.1618 22.347 25.1618C21.3843 25.1618 20.6312 24.9561 20.0878 24.5446C19.5469 24.1228 19.2455 23.5263 19.1833 22.7551H15.1929C15.3119 24.6883 16.0041 26.197 17.2696 27.2813C18.5248 28.3449 20.2172 28.8767 22.347 28.8767C23.6849 28.8767 24.8805 28.6477 25.9338 28.1896C26.9896 27.7393 27.8203 27.0794 28.4259 26.2099H28.4259Z" fill="#141482"/>
<path fill-rule="evenodd" clip-rule="evenodd" d="M0.876953 38.9922V41.69C0.910596 42.5208 1.38676 43.0435 2.30546 43.2583L20.4567 43.266C21.5565 43.1548 22.1504 42.5608 22.2384 41.4843V30.887H15.1542V34.9706H8.01554V38.9922H0.876953Z" fill="#141482"/>
</svg>
