<svg width="20" height="21" viewBox="0 0 20 21" fill="none" xmlns="http://www.w3.org/2000/svg">
<g id="search-interface-symbol 1" clip-path="url(#clip0_81_7176)">
<g id="Group">
<g id="_x34__4_">
<g id="Group_2">
<path id="Vector" d="M19.8102 19.4119L14.6466 14.3308C15.9988 12.8616 16.8296 10.9187 16.8296 8.78068C16.8289 4.2071 13.0618 0.5 8.41447 0.5C3.76713 0.5 0 4.2071 0 8.78068C0 13.3543 3.76713 17.0614 8.41447 17.0614C10.4224 17.0614 12.2641 16.3668 13.7107 15.2122L18.8944 20.3134C19.147 20.5622 19.5571 20.5622 19.8096 20.3134C20.0628 20.0646 20.0628 19.6607 19.8102 19.4119ZM8.41447 15.7873C4.48231 15.7873 1.29468 12.6504 1.29468 8.78068C1.29468 4.91101 4.48231 1.77403 8.41447 1.77403C12.3467 1.77403 15.5343 4.91101 15.5343 8.78068C15.5343 12.6504 12.3467 15.7873 8.41447 15.7873Z" fill="#606876"/>
</g>
</g>
</g>
</g>
<defs>
<clipPath id="clip0_81_7176">
<rect width="20" height="20" fill="white" transform="translate(0 0.5)"/>
</clipPath>
</defs>
</svg>
