<svg width="24" height="24" viewBox="0 0 24 24" fill="none" xmlns="http://www.w3.org/2000/svg">
<path d="M1.04755 10.8247C0.631345 11.5707 0.631301 12.4291 1.04752 13.1746C3.26011 17.1487 7.45618 19.6177 12.0013 19.6177C16.5438 19.6177 20.7398 17.1487 22.9524 13.1748C23.3688 12.4293 23.3687 11.5707 22.9525 10.8247C20.7398 6.85069 16.5438 4.38223 12.0013 4.38223C7.45621 4.38223 3.26016 6.8507 1.04755 10.8247ZM1.04755 10.8247C1.04757 10.8247 1.04758 10.8247 1.04759 10.8247L1.17858 10.8978L1.04752 10.8248C1.04753 10.8248 1.04754 10.8248 1.04755 10.8247ZM21.4536 12.3391L21.4533 12.3396C19.5431 15.77 15.9204 17.9008 12.0013 17.9008C8.07968 17.9008 4.45716 15.7701 2.54688 12.3399C2.42281 12.1151 2.42284 11.8846 2.54686 11.6601C4.45714 8.22992 8.07967 6.09935 12.0013 6.09935C15.9204 6.09935 19.543 8.22998 21.4533 11.6603L21.4536 11.6608C21.5797 11.885 21.5797 12.1147 21.4536 12.3391ZM14.7576 11.9998C14.7576 13.5201 13.5208 14.7569 12.0013 14.7569C10.4792 14.7569 9.24244 13.52 9.24244 11.9998C9.24244 10.4797 10.4792 9.24279 12.0013 9.24279C13.5208 9.24279 14.7576 10.4796 14.7576 11.9998ZM12.0013 7.52566C9.53171 7.52566 7.52531 9.53281 7.52531 11.9999C7.52531 14.4675 9.53178 16.4738 12.0013 16.4738C14.4684 16.4738 16.4747 14.4674 16.4747 11.9999C16.4747 9.53287 14.4684 7.52566 12.0013 7.52566Z" fill="#586276" stroke="#586276" stroke-width="0.3"/>
</svg>
