<svg width="15" height="15" viewBox="0 0 15 15" fill="none" xmlns="http://www.w3.org/2000/svg">
<g clip-path="url(#clip0_2765_26571)">
<path d="M7.70084 3.87312C7.81957 3.87244 7.93727 3.89519 8.04719 3.94009C8.15711 3.98499 8.25709 4.05114 8.34139 4.13476L13.7545 9.54782C13.9243 9.71771 14.0198 9.94812 14.0198 10.1884C14.0198 10.4286 13.9243 10.659 13.7545 10.8289C13.5846 10.9988 13.3542 11.0942 13.1139 11.0942C12.8737 11.0942 12.6432 10.9988 12.4734 10.8289L7.70084 6.04737L2.92832 10.8199C2.75573 10.9677 2.53373 11.0449 2.30667 11.0362C2.07961 11.0274 1.86423 10.9333 1.70356 10.7726C1.54288 10.6119 1.44876 10.3965 1.43999 10.1695C1.43122 9.94241 1.50845 9.72041 1.65625 9.54782L7.06932 4.13476C7.23736 3.96808 7.46416 3.87412 7.70084 3.87312Z" fill="#586276"/>
</g>
<defs>
<clipPath id="clip0_2765_26571">
<rect width="14" height="14" fill="white" transform="translate(14.7109 14.4824) rotate(-180)"/>
</clipPath>
</defs>
</svg>
