<svg width="15" height="15" viewBox="0 0 15 15" fill="none" xmlns="http://www.w3.org/2000/svg">
<path d="M7.72104 11.5976C7.6023 11.5983 7.4846 11.5755 7.37468 11.5306C7.26476 11.4857 7.16479 11.4196 7.08049 11.3359L1.66742 5.92288C1.49754 5.753 1.4021 5.52259 1.4021 5.28233C1.4021 5.04208 1.49754 4.81167 1.66742 4.64179C1.83731 4.4719 2.06772 4.37646 2.30797 4.37646C2.54822 4.37646 2.77863 4.4719 2.94852 4.64179L7.72104 9.42333L12.4936 4.65081C12.6661 4.50301 12.8881 4.42578 13.1152 4.43455C13.3423 4.44332 13.5576 4.53744 13.7183 4.69812C13.879 4.85879 13.9731 5.07418 13.9819 5.30123C13.9907 5.52829 13.9134 5.75029 13.7656 5.92288L8.35256 11.3359C8.18452 11.5026 7.95771 11.5966 7.72104 11.5976Z" fill="#586276"/>
</svg>
