<svg width="22" height="25" viewBox="0 0 22 25" fill="none" xmlns="http://www.w3.org/2000/svg">
<g filter="url(#filter0_d_3333_10038)">
<path d="M14.3313 12.2607L10.9999 13.7396L7.66981 12.2607L4.77295 18.5956L7.66856 17.5153L8.76487 20.3685L10.9999 15.4792L13.235 20.3685L14.3313 17.5153L17.2269 18.5956L14.3313 12.2607Z" fill="url(#paint0_linear_3333_10038)"/>
<path d="M19 8.8825C19 4.52911 15.4183 1 11 1C6.58172 1 3 4.52911 3 8.8825C3 13.2359 6.58172 16.765 11 16.765C15.4183 16.765 19 13.2359 19 8.8825Z" fill="#6348E9"/>
<path d="M19 8.8825C19 4.52911 15.4183 1 11 1C6.58172 1 3 4.52911 3 8.8825C3 13.2359 6.58172 16.765 11 16.765C15.4183 16.765 19 13.2359 19 8.8825Z" fill="#01030F" fill-opacity="0.8"/>
<path fill-rule="evenodd" clip-rule="evenodd" d="M5.87275 12.5224L5.70717 12.2587C5.72814 12.2433 5.7451 12.2261 5.75805 12.207C5.77118 12.1882 5.77984 12.1678 5.784 12.1459C5.78867 12.1241 5.78832 12.1012 5.78296 12.0774C5.77791 12.0533 5.76754 12.0287 5.75189 12.0038C5.72449 11.9602 5.69054 11.9298 5.65003 11.9127C5.60974 11.8959 5.56461 11.8919 5.51463 11.9008C5.46487 11.91 5.41183 11.9318 5.35551 11.9662C5.29603 12.0024 5.25109 12.0406 5.2207 12.0806C5.19082 12.1209 5.17514 12.162 5.17369 12.2043C5.17255 12.2464 5.18519 12.2885 5.21161 12.3306C5.22669 12.3546 5.2432 12.3742 5.26114 12.3896C5.27941 12.4048 5.2988 12.4158 5.31931 12.4226C5.33983 12.4296 5.36105 12.4324 5.38298 12.431C5.40543 12.4299 5.42807 12.4245 5.4509 12.4149L5.61459 12.6798C5.57151 12.7017 5.52243 12.7159 5.46741 12.7222C5.41267 12.7285 5.35592 12.7245 5.29715 12.7103C5.23889 12.6962 5.18222 12.6694 5.12711 12.6297C5.07201 12.59 5.02243 12.5351 4.9784 12.4649C4.9232 12.377 4.89282 12.2866 4.88727 12.1933C4.88191 12.1005 4.90367 12.0111 4.95257 11.9253C5.00168 11.8398 5.08 11.7642 5.18758 11.6986C5.29577 11.6327 5.39981 11.5977 5.49968 11.5938C5.59986 11.5896 5.69086 11.6109 5.77266 11.6575C5.85479 11.704 5.92286 11.7703 5.97688 11.8563C6.01486 11.9168 6.04141 11.9776 6.05654 12.0386C6.07168 12.0996 6.07514 12.1591 6.06695 12.2171C6.05906 12.275 6.03906 12.3299 6.00691 12.3817C5.97477 12.4337 5.93005 12.4806 5.87275 12.5224ZM5.91968 13.645L6.69197 12.815L7.29911 13.3634L7.13017 13.5449L6.75174 13.2032L6.61901 13.3459L6.96617 13.6595L6.79724 13.841L6.45006 13.5274L6.31733 13.6702L6.69411 14.0103L6.52518 14.192L5.91968 13.645ZM7.88617 13.7752L7.35866 14.7742L7.6339 14.9153L7.80802 14.5855L7.90328 14.6344L7.90715 15.0553L8.20615 15.2086L8.19695 14.7307C8.26267 14.7327 8.32258 14.7185 8.37666 14.688C8.43494 14.6555 8.48296 14.6034 8.52074 14.5319C8.55817 14.461 8.57461 14.3922 8.57003 14.3254C8.56547 14.2585 8.5421 14.1973 8.49992 14.1413C8.45774 14.0853 8.39903 14.0382 8.32378 13.9995L7.88617 13.7752ZM7.91929 14.3749L8.01632 14.4246C8.04866 14.4411 8.07827 14.4513 8.10517 14.4551C8.13257 14.459 8.15701 14.4551 8.17849 14.4439C8.20031 14.4327 8.21867 14.413 8.23362 14.3848C8.24872 14.356 8.25473 14.3296 8.25163 14.3054C8.24905 14.2808 8.23842 14.2585 8.21979 14.2381C8.20166 14.2178 8.17642 14.1992 8.14408 14.1826L8.04705 14.1329L7.91929 14.3749ZM9.25544 14.6533L9.30761 14.4125L10.279 14.6166L10.2269 14.8576L9.89069 14.7869L9.70438 15.6473L9.4053 15.5845L9.59162 14.724L9.25544 14.6533ZM11.2866 15.7663L11.2704 14.6403L10.9602 14.6447L10.9764 15.7706L11.2866 15.7663ZM12.2968 15.6681L12.0359 14.5718L12.8182 14.391L12.8753 14.6308L12.395 14.7418L12.4399 14.9302L12.8724 14.8303L12.9295 15.0702L12.497 15.1701L12.5989 15.5983L12.2968 15.6681ZM14.2615 15.0124L13.7672 13.9972L13.4874 14.1294L13.9817 15.1446L14.2615 15.0124ZM15.1999 14.4619L14.4794 13.5877L15.1187 13.0762L15.2764 13.2674L14.8778 13.5863L15.0017 13.7366L15.3673 13.4439L15.5249 13.6353L15.1593 13.9277L15.2831 14.0779L15.6799 13.7605L15.8376 13.9517L15.1999 14.4619ZM16.5576 13.2123L16.8116 12.8588C16.8788 12.7655 16.9185 12.6716 16.9307 12.5773C16.9425 12.4827 16.9272 12.3924 16.8845 12.3065C16.8416 12.2204 16.7715 12.1434 16.6744 12.0757C16.5772 12.0078 16.4804 11.9686 16.3837 11.9577C16.2871 11.9464 16.1954 11.9623 16.1087 12.0056C16.0219 12.0483 15.9444 12.1169 15.8765 12.2114L15.625 12.5614L16.5576 13.2123ZM16.5903 12.7177L16.5219 12.8128L16.0192 12.462L16.0825 12.3741C16.1168 12.3262 16.1533 12.2909 16.1919 12.2684C16.2306 12.2456 16.2743 12.2384 16.3229 12.2468C16.3719 12.2549 16.4288 12.2816 16.4938 12.3269C16.5587 12.3722 16.6033 12.4162 16.6274 12.4586C16.6519 12.5008 16.6599 12.5433 16.6515 12.5859C16.6434 12.6283 16.6231 12.6722 16.5903 12.7177Z" fill="url(#paint1_linear_3333_10038)"/>
<path fill-rule="evenodd" clip-rule="evenodd" d="M10.0987 3.23544L9.73489 3.26738L10.0342 2.0078L10.495 1.96735L11.0156 3.15497L10.6517 3.1869L10.5588 2.95899L10.1493 2.99493L10.0987 3.23544ZM10.2999 2.32411L10.4601 2.71713L10.203 2.73971L10.2902 2.32497L10.2999 2.32411ZM8.17327 3.7434L8.5193 3.62818L8.51115 3.38271L8.90064 3.25302L9.04528 3.45305L9.39132 3.33783L8.60231 2.30386L8.16399 2.4498L8.17327 3.7434ZM8.74713 3.04074L8.49768 2.69579L8.48846 2.69887L8.50251 3.12219L8.74713 3.04074ZM6.88139 3.39057C6.91656 3.39493 6.94648 3.41307 6.97115 3.44497L7.24361 3.27245C7.19916 3.20506 7.14359 3.15683 7.07688 3.12777C7.01028 3.09815 6.93698 3.08895 6.85698 3.10015C6.77697 3.11137 6.69463 3.14378 6.60995 3.19739C6.52699 3.24992 6.46241 3.3103 6.41622 3.37853C6.37036 3.44655 6.34546 3.51673 6.34153 3.58911C6.33771 3.66092 6.35736 3.72952 6.40049 3.7949C6.45281 3.87586 6.52084 3.92285 6.6046 3.93588C6.68848 3.94837 6.78334 3.93512 6.88915 3.89617L7.0081 3.85223C7.05251 3.836 7.08934 3.82551 7.11857 3.82078C7.14759 3.81572 7.17099 3.8161 7.1888 3.82194C7.20672 3.82724 7.221 3.83767 7.23167 3.85327C7.2423 3.87031 7.24659 3.88873 7.24456 3.90856C7.24254 3.92838 7.2337 3.94848 7.21803 3.96885C7.20238 3.98922 7.17936 4.00903 7.14897 4.02827C7.11278 4.05119 7.07792 4.06541 7.04439 4.07096C7.0112 4.07629 6.98041 4.07273 6.95203 4.06028C6.92364 4.04783 6.8983 4.02634 6.87596 3.99579L6.60555 4.16701C6.66228 4.25325 6.72736 4.31235 6.80078 4.34428C6.87431 4.37568 6.95355 4.38326 7.03848 4.36703C7.12376 4.35058 7.21199 4.3135 7.30314 4.25577C7.39191 4.19957 7.45987 4.13919 7.50702 4.07463C7.5545 4.00987 7.57996 3.94312 7.58338 3.87442C7.58681 3.80569 7.56654 3.73725 7.52256 3.66908C7.49654 3.62994 7.46636 3.59772 7.43201 3.57241C7.39799 3.54689 7.35918 3.52916 7.31555 3.51923C7.27171 3.50896 7.22266 3.50698 7.16841 3.5133C7.11415 3.5196 7.05404 3.53509 6.9881 3.55973L6.89022 3.59603C6.86201 3.60677 6.83676 3.61467 6.8145 3.61973C6.79224 3.6248 6.77278 3.62714 6.75612 3.62675C6.73924 3.62604 6.7249 3.62253 6.71307 3.61622C6.70137 3.60938 6.69179 3.59951 6.68436 3.58663C6.67483 3.57128 6.67066 3.55491 6.67186 3.53751C6.67306 3.52011 6.68068 3.50222 6.69473 3.48382C6.7089 3.46487 6.73067 3.44608 6.76003 3.42749C6.80612 3.39832 6.84658 3.386 6.88139 3.39057ZM11.6174 1.96094L11.5785 2.22691L11.9496 2.27963L11.8106 3.22953L12.1409 3.27643L12.2799 2.32653L12.651 2.37925L12.6899 2.11329L11.6174 1.96094ZM13.118 3.49164L13.6 2.35873L13.9121 2.48765L13.7239 2.93021L14.1371 3.10088L14.3254 2.65832L14.6376 2.78725L14.1556 3.92018L13.8434 3.79126L14.0317 3.3487L13.6185 3.17803L13.4302 3.62058L13.118 3.49164ZM15.0139 4.4678L15.722 3.45677L15.4435 3.26733L14.7353 4.27836L15.0139 4.4678Z" fill="url(#paint2_linear_3333_10038)"/>
<path fill-rule="evenodd" clip-rule="evenodd" d="M4.35718 8.8577C4.35718 7.36137 4.86677 5.98233 5.72429 4.87985C5.77313 4.81705 5.86521 4.80827 5.92662 4.85924C5.98593 4.90845 5.99447 4.99519 5.94736 5.05588C5.12905 6.11011 4.64289 7.42797 4.64289 8.8577C4.64289 9.46937 4.73188 10.0606 4.89778 10.6194C4.91658 10.6827 4.8899 10.7508 4.83206 10.7841C4.75286 10.8296 4.65117 10.7914 4.62534 10.7047C4.4508 10.1189 4.35718 9.49907 4.35718 8.8577ZM17.168 10.7841C17.2472 10.8296 17.349 10.7914 17.3748 10.7047C17.5493 10.1189 17.6429 9.49907 17.6429 8.8577C17.6429 7.36137 17.1333 5.98233 16.2758 4.87985C16.227 4.81705 16.1349 4.80827 16.0735 4.85924C16.0141 4.90845 16.0056 4.99519 16.0527 5.05588C16.871 6.11011 17.3572 7.42797 17.3572 8.8577C17.3572 9.46937 17.2681 10.0606 17.1023 10.6194C17.0835 10.6827 17.1102 10.7508 17.168 10.7841Z" fill="url(#paint3_linear_3333_10038)"/>
<path d="M16.2175 8.88245C16.2175 6.04329 13.8816 3.7417 11.0001 3.7417C8.11862 3.7417 5.78271 6.04329 5.78271 8.88245C5.78271 11.7216 8.11862 14.0232 11.0001 14.0232C13.8816 14.0232 16.2175 11.7216 16.2175 8.88245Z" fill="#1F0E74"/>
<path d="M16.2175 8.88245C16.2175 6.04329 13.8816 3.7417 11.0001 3.7417C8.11862 3.7417 5.78271 6.04329 5.78271 8.88245C5.78271 11.7216 8.11862 14.0232 11.0001 14.0232C13.8816 14.0232 16.2175 11.7216 16.2175 8.88245Z" fill="#B1C6D0" fill-opacity="0.4"/>
<path d="M10.6035 4.52534L9.68994 5.3195H11V4.37793C10.8586 4.37748 10.7171 4.42661 10.6035 4.52534Z" fill="#EEEBFF"/>
<path d="M11.3921 4.52441C11.2797 4.42722 11.1403 4.37839 11.0007 4.37793V5.31948H12.3108L11.3921 4.52441Z" fill="#CEC7F4"/>
<path d="M7.8137 5.82778L7.62524 7.02246L8.62879 6.18174L8.02258 5.46045C7.91395 5.55079 7.83716 5.67933 7.8137 5.82778Z" fill="#EEEBFF"/>
<path d="M8.41635 5.32137C8.26766 5.31894 8.12933 5.37111 8.02222 5.46041L8.62843 6.1817L9.63198 5.341L8.41635 5.32137Z" fill="#CEC7F4"/>
<path d="M6.51453 8.61576L7.13917 9.65193L7.36664 8.36387L6.43805 8.2002C6.41291 8.33922 6.43683 8.48692 6.51453 8.61576Z" fill="#EEEBFF"/>
<path d="M6.6511 7.84079C6.53576 7.93449 6.46339 8.06317 6.43872 8.20022L7.36746 8.36374L7.59493 7.07568L6.6511 7.84079Z" fill="#CEC7F4"/>
<path d="M7.31456 11.5852L8.46025 11.978L7.80529 10.8452L6.98853 11.316C7.05875 11.4386 7.17211 11.5364 7.31456 11.5852Z" fill="#EEEBFF"/>
<path d="M6.91988 10.9042C6.8917 11.0499 6.91913 11.195 6.98844 11.3159L7.80521 10.8452L7.15025 9.7124L6.91988 10.9042Z" fill="#CEC7F4"/>
<path d="M9.83933 13.3464L10.9698 12.9122L9.73879 12.4648L9.41626 13.3497C9.54896 13.3984 9.69887 13.4005 9.83933 13.3464Z" fill="#EEEBFF"/>
<path d="M9.0979 13.0784C9.17012 13.2081 9.28454 13.3017 9.41556 13.3498L9.7381 12.4649L8.50708 12.0176L9.0979 13.0784Z" fill="#CEC7F4"/>
<path d="M12.9071 13.0758L13.4935 12.0176L12.2625 12.4649L12.585 13.3497C12.7178 13.3019 12.8341 13.2074 12.9071 13.0758Z" fill="#EEEBFF"/>
<path d="M12.167 13.3457C12.3059 13.3988 12.4537 13.397 12.585 13.3497L12.2625 12.4648L11.0315 12.9122L12.167 13.3457Z" fill="#CEC7F4"/>
<path d="M15.082 10.8993L14.85 9.7124L14.1951 10.8452L15.0119 11.3159C15.0828 11.1938 15.1111 11.0469 15.082 10.8993Z" fill="#EEEBFF"/>
<path d="M14.6896 11.5813C14.8301 11.5327 14.9423 11.4365 15.0125 11.316L14.1957 10.8452L13.5408 11.978L14.6896 11.5813Z" fill="#CEC7F4"/>
<path d="M15.3485 7.83592L14.4065 7.07568L14.634 8.36374L15.5627 8.20022C15.5388 8.0612 15.4656 7.93053 15.3485 7.83592Z" fill="#EEEBFF"/>
<path d="M15.486 8.61058C15.5625 8.48327 15.5865 8.33755 15.5625 8.2002L14.6338 8.36371L14.8612 9.65177L15.486 8.61058Z" fill="#CEC7F4"/>
<path d="M13.5797 5.31895L12.3687 5.34101L13.3722 6.18172L13.9784 5.46042C13.8704 5.36945 13.7304 5.31621 13.5797 5.31895Z" fill="#EEEBFF"/>
<path d="M14.1836 5.82384C14.1601 5.67721 14.0847 5.55034 13.978 5.46045L13.3718 6.18175L14.3754 7.02246L14.1836 5.82384Z" fill="#CEC7F4"/>
<path d="M10.9995 12.2309C12.7981 12.2309 14.2561 10.8007 14.2561 9.03658C14.2561 7.27242 12.7981 5.84229 10.9995 5.84229C9.20093 5.84229 7.74292 7.27242 7.74292 9.03658C7.74292 10.8007 9.20093 12.2309 10.9995 12.2309Z" fill="url(#paint4_radial_3333_10038)"/>
<g filter="url(#filter1_i_3333_10038)">
<g style="mix-blend-mode:color-burn">
<path d="M10.2457 9.10761V8.72372L10.9899 8.11718C11.0393 8.07688 11.0815 8.03913 11.1165 8.00394C11.1522 7.96811 11.1795 7.93132 11.1983 7.89357C11.2178 7.85582 11.2276 7.81392 11.2276 7.76785C11.2276 7.7173 11.2165 7.67411 11.1944 7.63828C11.173 7.60245 11.1432 7.57494 11.1048 7.55575C11.0665 7.53591 11.0224 7.52599 10.9724 7.52599C10.9224 7.52599 10.8782 7.53591 10.8399 7.55575C10.8022 7.57558 10.773 7.60469 10.7522 7.64308C10.7315 7.68147 10.7211 7.72818 10.7211 7.7832H10.2068C10.2068 7.64501 10.2383 7.52599 10.3013 7.42619C10.3643 7.32637 10.4532 7.2496 10.5681 7.19585C10.6831 7.14211 10.8178 7.11523 10.9724 7.11523C11.1321 7.11523 11.2704 7.1405 11.3873 7.19105C11.5048 7.24096 11.5954 7.31134 11.6591 7.40219C11.7233 7.49304 11.7555 7.59958 11.7555 7.72178C11.7555 7.79727 11.7396 7.87245 11.7078 7.94731C11.6759 8.02153 11.6188 8.10374 11.5363 8.19397C11.4539 8.28417 11.3367 8.39166 11.1847 8.51643L10.9977 8.66998V8.6815H11.7769V9.10761H10.2457Z" fill="black" fill-opacity="0.24"/>
</g>
<g style="mix-blend-mode:darken">
<path d="M10.2457 9.10761V8.72372L10.9899 8.11718C11.0393 8.07688 11.0815 8.03913 11.1165 8.00394C11.1522 7.96811 11.1795 7.93132 11.1983 7.89357C11.2178 7.85582 11.2276 7.81392 11.2276 7.76785C11.2276 7.7173 11.2165 7.67411 11.1944 7.63828C11.173 7.60245 11.1432 7.57494 11.1048 7.55575C11.0665 7.53591 11.0224 7.52599 10.9724 7.52599C10.9224 7.52599 10.8782 7.53591 10.8399 7.55575C10.8022 7.57558 10.773 7.60469 10.7522 7.64308C10.7315 7.68147 10.7211 7.72818 10.7211 7.7832H10.2068C10.2068 7.64501 10.2383 7.52599 10.3013 7.42619C10.3643 7.32637 10.4532 7.2496 10.5681 7.19585C10.6831 7.14211 10.8178 7.11523 10.9724 7.11523C11.1321 7.11523 11.2704 7.1405 11.3873 7.19105C11.5048 7.24096 11.5954 7.31134 11.6591 7.40219C11.7233 7.49304 11.7555 7.59958 11.7555 7.72178C11.7555 7.79727 11.7396 7.87245 11.7078 7.94731C11.6759 8.02153 11.6188 8.10374 11.5363 8.19397C11.4539 8.28417 11.3367 8.39166 11.1847 8.51643L10.9977 8.66998V8.6815H11.7769V9.10761H10.2457Z" fill="#5F5493"/>
</g>
</g>
<g filter="url(#filter2_i_3333_10038)">
<g style="mix-blend-mode:color-burn">
<path d="M9.18189 10.1213C9.17929 10.0893 9.16711 10.0644 9.14537 10.0465C9.12394 10.0286 9.09131 10.0196 9.04747 10.0196C9.01955 10.0196 8.99666 10.023 8.97881 10.0297C8.96127 10.0361 8.94828 10.0449 8.93985 10.0561C8.9314 10.0673 8.92702 10.0801 8.92669 10.0945C8.92604 10.1063 8.92815 10.117 8.93302 10.1266C8.93822 10.1359 8.94634 10.1444 8.95738 10.152C8.96842 10.1594 8.98253 10.1661 8.99974 10.1722C9.01695 10.1783 9.03741 10.1837 9.0611 10.1885L9.14293 10.2058C9.19812 10.2173 9.24536 10.2325 9.28464 10.2514C9.32394 10.2702 9.35607 10.2925 9.38108 10.3181C9.40607 10.3433 9.42442 10.3718 9.43611 10.4035C9.44812 10.4352 9.45429 10.4697 9.45461 10.5071C9.45429 10.5718 9.43789 10.6265 9.40542 10.6712C9.37295 10.716 9.32653 10.7501 9.26614 10.7735C9.20607 10.7968 9.13383 10.8085 9.04942 10.8085C8.96274 10.8085 8.88708 10.7959 8.82247 10.7706C8.75819 10.7453 8.70819 10.7064 8.67247 10.654C8.63708 10.6012 8.61923 10.5337 8.6189 10.4515H8.87604C8.87766 10.4815 8.8853 10.5068 8.89893 10.5273C8.91256 10.5478 8.93172 10.5633 8.95641 10.5738C8.9814 10.5844 9.0111 10.5897 9.04553 10.5897C9.07442 10.5897 9.09861 10.5861 9.11809 10.5791C9.13757 10.5721 9.15234 10.5623 9.1624 10.5498C9.17247 10.5374 9.17766 10.5231 9.17799 10.5071C9.17766 10.4921 9.17263 10.479 9.1629 10.4678C9.15348 10.4563 9.13789 10.446 9.11614 10.4371C9.09438 10.4278 9.065 10.4192 9.02799 10.4112L8.92865 10.3901C8.84033 10.3712 8.77069 10.3397 8.71971 10.2955C8.66906 10.2511 8.6439 10.1904 8.64422 10.1136C8.6439 10.0513 8.66078 9.99673 8.69487 9.95002C8.72928 9.90299 8.77685 9.86636 8.83757 9.84013C8.89861 9.8139 8.96858 9.80078 9.04747 9.80078C9.12799 9.80078 9.19763 9.81406 9.25641 9.84061C9.31517 9.86716 9.36046 9.90459 9.39228 9.9529C9.42442 10.0009 9.44066 10.057 9.44098 10.1213H9.18189ZM9.82839 9.81422V10.797H9.55762V9.81422H9.82839ZM9.95673 10.797V9.81422H10.2275V10.582H10.6307V10.797H9.95673ZM10.8964 9.81422L11.101 10.5071H11.1087L11.3133 9.81422H11.6191L11.2899 10.797H10.9198L10.5906 9.81422H10.8964ZM11.7152 10.797V9.81422H12.434V10.0292H11.986V10.1981H12.397V10.4131H11.986V10.582H12.4321V10.797H11.7152ZM12.5683 10.797V9.81422H12.9989C13.0729 9.81422 13.1377 9.82749 13.1932 9.85405C13.2487 9.8806 13.2919 9.91883 13.3227 9.96873C13.3536 10.0186 13.369 10.0785 13.369 10.1482C13.369 10.2186 13.3531 10.2779 13.3213 10.3262C13.2898 10.3745 13.2454 10.411 13.1883 10.4356C13.1315 10.4603 13.0651 10.4726 12.9891 10.4726H12.732V10.2653H12.9346C12.9664 10.2653 12.9935 10.2614 13.0159 10.2538C13.0386 10.2458 13.056 10.2331 13.068 10.2159C13.0803 10.1986 13.0865 10.176 13.0865 10.1482C13.0865 10.12 13.0803 10.0972 13.068 10.0796C13.056 10.0617 13.0386 10.0486 13.0159 10.0402C12.9935 10.0316 12.9664 10.0273 12.9346 10.0273H12.8391V10.797H12.5683ZM13.1527 10.3459L13.4021 10.797H13.1079L12.8644 10.3459H13.1527Z" fill="black" fill-opacity="0.24"/>
</g>
<g style="mix-blend-mode:darken">
<path d="M9.18189 10.1213C9.17929 10.0893 9.16711 10.0644 9.14537 10.0465C9.12394 10.0286 9.09131 10.0196 9.04747 10.0196C9.01955 10.0196 8.99666 10.023 8.97881 10.0297C8.96127 10.0361 8.94828 10.0449 8.93985 10.0561C8.9314 10.0673 8.92702 10.0801 8.92669 10.0945C8.92604 10.1063 8.92815 10.117 8.93302 10.1266C8.93822 10.1359 8.94634 10.1444 8.95738 10.152C8.96842 10.1594 8.98253 10.1661 8.99974 10.1722C9.01695 10.1783 9.03741 10.1837 9.0611 10.1885L9.14293 10.2058C9.19812 10.2173 9.24536 10.2325 9.28464 10.2514C9.32394 10.2702 9.35607 10.2925 9.38108 10.3181C9.40607 10.3433 9.42442 10.3718 9.43611 10.4035C9.44812 10.4352 9.45429 10.4697 9.45461 10.5071C9.45429 10.5718 9.43789 10.6265 9.40542 10.6712C9.37295 10.716 9.32653 10.7501 9.26614 10.7735C9.20607 10.7968 9.13383 10.8085 9.04942 10.8085C8.96274 10.8085 8.88708 10.7959 8.82247 10.7706C8.75819 10.7453 8.70819 10.7064 8.67247 10.654C8.63708 10.6012 8.61923 10.5337 8.6189 10.4515H8.87604C8.87766 10.4815 8.8853 10.5068 8.89893 10.5273C8.91256 10.5478 8.93172 10.5633 8.95641 10.5738C8.9814 10.5844 9.0111 10.5897 9.04553 10.5897C9.07442 10.5897 9.09861 10.5861 9.11809 10.5791C9.13757 10.5721 9.15234 10.5623 9.1624 10.5498C9.17247 10.5374 9.17766 10.5231 9.17799 10.5071C9.17766 10.4921 9.17263 10.479 9.1629 10.4678C9.15348 10.4563 9.13789 10.446 9.11614 10.4371C9.09438 10.4278 9.065 10.4192 9.02799 10.4112L8.92865 10.3901C8.84033 10.3712 8.77069 10.3397 8.71971 10.2955C8.66906 10.2511 8.6439 10.1904 8.64422 10.1136C8.6439 10.0513 8.66078 9.99673 8.69487 9.95002C8.72928 9.90299 8.77685 9.86636 8.83757 9.84013C8.89861 9.8139 8.96858 9.80078 9.04747 9.80078C9.12799 9.80078 9.19763 9.81406 9.25641 9.84061C9.31517 9.86716 9.36046 9.90459 9.39228 9.9529C9.42442 10.0009 9.44066 10.057 9.44098 10.1213H9.18189ZM9.82839 9.81422V10.797H9.55762V9.81422H9.82839ZM9.95673 10.797V9.81422H10.2275V10.582H10.6307V10.797H9.95673ZM10.8964 9.81422L11.101 10.5071H11.1087L11.3133 9.81422H11.6191L11.2899 10.797H10.9198L10.5906 9.81422H10.8964ZM11.7152 10.797V9.81422H12.434V10.0292H11.986V10.1981H12.397V10.4131H11.986V10.582H12.4321V10.797H11.7152ZM12.5683 10.797V9.81422H12.9989C13.0729 9.81422 13.1377 9.82749 13.1932 9.85405C13.2487 9.8806 13.2919 9.91883 13.3227 9.96873C13.3536 10.0186 13.369 10.0785 13.369 10.1482C13.369 10.2186 13.3531 10.2779 13.3213 10.3262C13.2898 10.3745 13.2454 10.411 13.1883 10.4356C13.1315 10.4603 13.0651 10.4726 12.9891 10.4726H12.732V10.2653H12.9346C12.9664 10.2653 12.9935 10.2614 13.0159 10.2538C13.0386 10.2458 13.056 10.2331 13.068 10.2159C13.0803 10.1986 13.0865 10.176 13.0865 10.1482C13.0865 10.12 13.0803 10.0972 13.068 10.0796C13.056 10.0617 13.0386 10.0486 13.0159 10.0402C12.9935 10.0316 12.9664 10.0273 12.9346 10.0273H12.8391V10.797H12.5683ZM13.1527 10.3459L13.4021 10.797H13.1079L12.8644 10.3459H13.1527Z" fill="#5F5493"/>
</g>
</g>
<path d="M11.0009 5.52393C9.07603 5.52393 7.51562 7.08168 7.51562 9.00342C7.51562 10.9252 9.07603 12.4831 11.0009 12.4831C12.9257 12.4831 14.4861 10.9252 14.4861 9.00342C14.4861 7.08168 12.9257 5.52393 11.0009 5.52393ZM11.0009 12.1974C9.23401 12.1974 7.80175 10.7674 7.80175 9.00342C7.80175 7.23941 9.23401 5.80943 11.0009 5.80943C12.7677 5.80943 14.2 7.23941 14.2 9.00342C14.2 10.7674 12.7677 12.1974 11.0009 12.1974Z" fill="url(#paint5_linear_3333_10038)"/>
<path d="M11.0004 5.07959C8.82993 5.07959 7.07056 6.83616 7.07056 9.0031C7.07056 11.1701 8.82993 12.9266 11.0004 12.9266C13.1708 12.9266 14.9302 11.1701 14.9302 9.0031C14.9302 6.83616 13.1708 5.07959 11.0004 5.07959ZM11.0004 12.4811C9.07643 12.4811 7.5168 10.9239 7.5168 9.0031C7.5168 7.08226 9.07643 5.52528 11.0004 5.52528C12.9243 5.52528 14.4839 7.08242 14.4839 9.00326C14.4839 10.9241 12.9243 12.4811 11.0004 12.4811Z" fill="url(#paint6_linear_3333_10038)"/>
</g>
<defs>
<filter id="filter0_d_3333_10038" x="0.894737" y="0.578947" width="20.2105" height="23.5792" filterUnits="userSpaceOnUse" color-interpolation-filters="sRGB">
<feFlood flood-opacity="0" result="BackgroundImageFix"/>
<feColorMatrix in="SourceAlpha" type="matrix" values="0 0 0 0 0 0 0 0 0 0 0 0 0 0 0 0 0 0 127 0" result="hardAlpha"/>
<feOffset dy="1.68421"/>
<feGaussianBlur stdDeviation="1.05263"/>
<feComposite in2="hardAlpha" operator="out"/>
<feColorMatrix type="matrix" values="0 0 0 0 0 0 0 0 0 0 0 0 0 0 0 0 0 0 0.25 0"/>
<feBlend mode="normal" in2="BackgroundImageFix" result="effect1_dropShadow_3333_10038"/>
<feBlend mode="normal" in="SourceGraphic" in2="effect1_dropShadow_3333_10038" result="shape"/>
</filter>
<filter id="filter1_i_3333_10038" x="10.2068" y="7.11523" width="1.57007" height="2.06587" filterUnits="userSpaceOnUse" color-interpolation-filters="sRGB">
<feFlood flood-opacity="0" result="BackgroundImageFix"/>
<feBlend mode="normal" in="SourceGraphic" in2="BackgroundImageFix" result="shape"/>
<feColorMatrix in="SourceAlpha" type="matrix" values="0 0 0 0 0 0 0 0 0 0 0 0 0 0 0 0 0 0 127 0" result="hardAlpha"/>
<feOffset dy="0.0736842"/>
<feGaussianBlur stdDeviation="0.0736842"/>
<feComposite in2="hardAlpha" operator="arithmetic" k2="-1" k3="1"/>
<feColorMatrix type="matrix" values="0 0 0 0 0 0 0 0 0 0 0 0 0 0 0 0 0 0 0.24 0"/>
<feBlend mode="darken" in2="shape" result="effect1_innerShadow_3333_10038"/>
</filter>
<filter id="filter2_i_3333_10038" x="8.6189" y="9.80078" width="4.7832" height="1.0815" filterUnits="userSpaceOnUse" color-interpolation-filters="sRGB">
<feFlood flood-opacity="0" result="BackgroundImageFix"/>
<feBlend mode="normal" in="SourceGraphic" in2="BackgroundImageFix" result="shape"/>
<feColorMatrix in="SourceAlpha" type="matrix" values="0 0 0 0 0 0 0 0 0 0 0 0 0 0 0 0 0 0 127 0" result="hardAlpha"/>
<feOffset dy="0.0736842"/>
<feGaussianBlur stdDeviation="0.0736842"/>
<feComposite in2="hardAlpha" operator="arithmetic" k2="-1" k3="1"/>
<feColorMatrix type="matrix" values="0 0 0 0 0 0 0 0 0 0 0 0 0 0 0 0 0 0 0.24 0"/>
<feBlend mode="darken" in2="shape" result="effect1_innerShadow_3333_10038"/>
</filter>
<linearGradient id="paint0_linear_3333_10038" x1="4.77295" y1="12.2607" x2="17.2915" y2="12.3618" gradientUnits="userSpaceOnUse">
<stop stop-color="#ACB6B8"/>
<stop offset="0.491554" stop-color="#E0E6E8"/>
<stop offset="1" stop-color="#7D999E"/>
</linearGradient>
<linearGradient id="paint1_linear_3333_10038" x1="4.88647" y1="11.5933" x2="16.995" y2="11.7766" gradientUnits="userSpaceOnUse">
<stop stop-color="#ACB6B8"/>
<stop offset="0.491554" stop-color="#E0E6E8"/>
<stop offset="1" stop-color="#7D999E"/>
</linearGradient>
<linearGradient id="paint2_linear_3333_10038" x1="6.34106" y1="1.96094" x2="15.7677" y2="2.14618" gradientUnits="userSpaceOnUse">
<stop stop-color="#ACB6B8"/>
<stop offset="0.491554" stop-color="#E0E6E8"/>
<stop offset="1" stop-color="#7D999E"/>
</linearGradient>
<linearGradient id="paint3_linear_3333_10038" x1="4.35718" y1="4.82617" x2="17.7108" y2="4.98203" gradientUnits="userSpaceOnUse">
<stop stop-color="#ACB6B8"/>
<stop offset="0.491554" stop-color="#E0E6E8"/>
<stop offset="1" stop-color="#7D999E"/>
</linearGradient>
<radialGradient id="paint4_radial_3333_10038" cx="0" cy="0" r="1" gradientUnits="userSpaceOnUse" gradientTransform="translate(10.9995 9.03652) scale(3.25657 3.19429)">
<stop offset="0.8428" stop-color="#B5AAEA"/>
<stop offset="1" stop-color="#A398D8"/>
</radialGradient>
<linearGradient id="paint5_linear_3333_10038" x1="11.0008" y1="5.51373" x2="11.0008" y2="12.473" gradientUnits="userSpaceOnUse">
<stop stop-color="#988DCD"/>
<stop offset="0.8201" stop-color="#D1CCEA"/>
<stop offset="1" stop-color="#A99DE2"/>
</linearGradient>
<linearGradient id="paint6_linear_3333_10038" x1="11.0004" y1="5.06809" x2="11.0004" y2="12.9152" gradientUnits="userSpaceOnUse">
<stop stop-color="#DFD8FF"/>
<stop offset="0.1799" stop-color="#E6E1FF"/>
<stop offset="1" stop-color="#988DCD"/>
</linearGradient>
</defs>
</svg>
