<svg width="16" height="17" viewBox="0 0 16 17" fill="none" xmlns="http://www.w3.org/2000/svg">
<path d="M9.29813 1.08609C9.11253 0.997559 8.89386 1.02103 8.73386 1.15009L3.5456 5.30049H1.06667C0.478933 5.30049 0 5.77943 0 6.36716V10.6338C0 11.2226 0.478933 11.7005 1.06667 11.7005H3.5456L8.7328 15.8509C8.82987 15.9277 8.94827 15.9672 9.06666 15.9672C9.1456 15.9672 9.22453 15.949 9.29813 15.9138C9.48267 15.8253 9.6 15.6386 9.6 15.4338V1.56716C9.6 1.36236 9.48267 1.17569 9.29813 1.08609Z" fill="#606C85"/>
<path d="M12.2997 4.72867C12.0896 4.52174 11.7525 4.52494 11.5456 4.73294C11.3387 4.94307 11.3408 5.28014 11.5499 5.48814C12.3563 6.28387 12.8 7.35374 12.8 8.50041C12.8 9.64707 12.3563 10.7169 11.5499 11.5127C11.3408 11.7185 11.3387 12.0567 11.5456 12.2668C11.6501 12.3724 11.7877 12.4247 11.9243 12.4247C12.0597 12.4247 12.1952 12.3735 12.2997 12.27C13.3109 11.2748 13.8667 9.93507 13.8667 8.50041C13.8667 7.06574 13.3109 5.72601 12.2997 4.72867Z" fill="#606C85"/>
<path d="M13.8048 3.2261C13.5946 3.0181 13.2576 3.02023 13.0496 3.2293C12.8426 3.43836 12.8448 3.7765 13.0528 3.98343C14.2656 5.18556 14.9333 6.78983 14.9333 8.50076C14.9333 10.2117 14.2656 11.8149 13.0528 13.017C12.8448 13.225 12.8426 13.5632 13.0496 13.7722C13.1552 13.8768 13.2917 13.929 13.4282 13.929C13.5637 13.929 13.7002 13.8778 13.8048 13.7744C15.2213 12.3717 16 10.4986 16 8.50076C16 6.5029 15.2213 4.62983 13.8048 3.2261Z" fill="#606C85"/>
</svg>
