<svg width="56" height="56" viewBox="0 0 56 56" fill="none" xmlns="http://www.w3.org/2000/svg">
<path d="M44.6364 34.1098C44.4721 33.9605 44.2379 33.8692 43.979 33.866V33.8692H38.334C39.5371 38.9578 35.7118 43.187 31.0196 44.7091C28.507 45.5223 25.9493 45.5621 23.4249 44.7424C18.8509 43.26 14.5604 38.8718 15.6723 33.8681H10.1937C9.73719 33.8681 9.28925 34.1753 9.28925 34.6168V37.0381C9.28925 37.4796 9.73719 37.7869 10.1937 37.7869H11.2508C12.1155 37.7869 12.9104 38.2982 13.1597 39.1264C13.4851 40.2103 13.9696 41.2426 14.5851 42.1922C15.0696 42.9356 14.9235 43.8519 14.265 44.4363L13.4518 45.17C13.1897 45.4589 13.2263 45.8607 13.5163 46.1196L15.4381 47.834C15.7969 48.1541 16.4092 48.1509 16.7658 47.834L17.5145 47.1669C18.1537 46.5976 19.0947 46.4945 19.8596 46.8866C20.9553 47.4495 22.1219 47.8791 23.3336 48.1681C24.1833 48.369 24.8192 49.0662 24.8192 49.9341V50.8751C24.8192 51.3166 25.2672 51.6239 25.7237 51.6239H28.4426C28.8991 51.6239 29.3503 51.3166 29.3503 50.8751V49.9341C29.3503 49.0662 29.9862 48.369 30.8327 48.1681C32.0444 47.8791 33.2142 47.4495 34.3067 46.8866C35.0705 46.4934 36.0115 46.5976 36.6517 47.1669L37.4005 47.834C37.7571 48.1509 38.3683 48.1509 38.7282 47.834L40.7166 46.0562C40.9755 45.764 40.9422 45.3623 40.65 45.1034L39.9045 44.4363C39.2438 43.8487 39.101 42.9356 39.5822 42.1922C40.1977 41.2426 40.6811 40.2103 41.0077 39.1264C41.2569 38.2982 42.0518 37.7869 42.9166 37.7869V37.7901H43.9736V37.7869C44.4302 37.7869 44.8781 37.4796 44.8781 37.0381V34.6168C44.877 34.4235 44.7857 34.2441 44.6364 34.1098ZM32.0176 10.1633C30.4825 10.1332 28.9356 10.0355 27.9495 8.94516C26.9204 9.9227 25.294 10.1569 23.8567 10.318C24.6151 13.3452 27.6724 16.4625 30.5158 13.1711C31.2441 12.3257 31.7802 11.2236 32.0176 10.1633ZM29.5426 4.60639C29.6586 5.83315 29.3352 7.06635 28.6316 8.08686C29.3718 9.02465 30.8209 9.07299 32.2399 9.0977C32.6084 6.71723 31.4063 5.18862 29.5426 4.60639ZM28.0225 7.02446C28.4393 6.2145 28.5854 5.2853 28.434 4.38403C27.1213 4.26264 25.7119 4.58813 24.7225 5.39164C23.7321 6.19301 23.1875 7.49067 23.6172 9.2685C25.1028 9.10092 26.8452 8.87534 27.5273 7.78286L28.0118 7.00297L28.0225 7.02446ZM46.2048 14.2443C44.6697 14.2142 43.1228 14.1164 42.1335 13.0229C41.1076 14.0037 39.478 14.2378 38.0439 14.399C38.7991 17.4283 41.8596 20.5403 44.7009 17.2489C45.4313 16.4056 45.9641 15.3099 46.2048 14.2443ZM43.7298 8.68735C43.8426 9.91411 43.5224 11.1473 42.8188 12.1646C43.5558 13.1056 45.0081 13.1539 46.4239 13.1787C46.7956 10.7971 45.5892 9.2685 43.7298 8.68735ZM42.2065 11.1043C42.6265 10.2944 42.7726 9.36518 42.6212 8.46391C41.3053 8.34252 39.8959 8.66801 38.9098 9.4683C37.9204 10.2718 37.3715 11.5695 37.8044 13.3473C39.2868 13.1797 41.0292 12.9541 41.7113 11.8617L42.199 11.0818L42.2065 11.1043ZM16.9205 14.2443C15.3854 14.2142 13.8386 14.1164 12.8524 13.0229C11.8233 14.0037 10.197 14.2378 8.75966 14.399C9.51805 17.4261 12.5753 20.5403 15.4187 17.2489C16.1471 16.4056 16.6831 15.3067 16.9205 14.2443ZM14.4455 8.68735C14.5615 9.91411 14.2382 11.1473 13.5346 12.1646C14.2747 13.1056 15.7238 13.1539 17.1429 13.1787C17.5113 10.7971 16.3093 9.2685 14.4455 8.68735ZM12.9255 11.1043C13.3423 10.2944 13.4884 9.36518 13.3369 8.46391C12.0242 8.34252 10.6148 8.66801 9.62548 9.4683C8.63612 10.2718 8.09042 11.5695 8.52011 13.3473C10.0057 13.1797 11.7449 12.9541 12.427 11.8617L12.9147 11.0818L12.9255 11.1043ZM20.9069 21.0043C21.3055 20.5263 21.82 20.146 22.4022 19.9054C22.7986 19.7411 23.2272 19.6401 23.672 19.6164C23.745 19.5799 23.8245 19.5584 23.9094 19.5584C23.9921 19.5584 24.0673 19.5767 24.1382 19.61H30.2795C30.678 19.61 31.0626 19.6712 31.4278 19.784C31.7297 19.364 32.4021 19.5767 32.4021 20.0977V20.2406C33.0746 20.6789 33.5806 21.2997 33.8878 22.0496V21.8089C33.8878 20.2373 34.6397 18.8162 35.8278 17.9117V17.555C35.8278 15.4539 34.1048 13.734 32.0036 13.734H31.4429C29.3385 16.3014 26.495 16.2917 24.3971 13.734H23.7697C21.6685 13.734 19.9487 15.4549 19.9487 17.555V18.8162C20.4343 19.4424 20.7726 20.1879 20.9069 21.0043ZM34.9631 24.8651L36.0684 24.8683C36.872 24.9145 37.4413 25.6203 37.5605 26.4087V24.3473C37.5605 23.6405 38.6326 23.6405 38.6326 24.3473V30.7572H45.5108V24.3473C45.5108 23.6405 46.5861 23.6405 46.5861 24.3473V30.7572H48.0352C48.6658 30.7572 49.1836 30.2394 49.1836 29.6088V21.8079C49.1836 19.7497 47.5304 18.0502 45.4808 17.9869C43.4376 20.3222 40.7703 20.3136 38.7304 17.9836C36.6507 18.0137 34.9641 19.7249 34.9641 21.8079V24.8651H34.9631ZM24.4486 24.8651H30.7489V23.4976C30.7489 23.2387 30.5384 23.0282 30.2795 23.0282H24.4486V24.8651ZM21.0745 24.8651H22.3474V23.4976C22.3474 22.6447 23.0328 21.9539 23.9094 21.9539H30.2795C31.1292 21.9539 31.8231 22.6479 31.8231 23.4976V24.8651H33.0929V23.4976C33.0929 21.9357 31.8231 20.6842 30.2795 20.6842H23.8879C22.3346 20.6842 21.0745 21.9454 21.0745 23.4976V24.8651ZM18.1784 24.8651H19.8993V21.8079C19.8993 19.755 18.2547 18.0502 16.1997 17.9869C14.1533 20.3222 11.4892 20.3136 9.44608 17.9836C7.36962 18.0137 5.67987 19.7249 5.67987 21.8079V29.6088C5.67987 30.2394 6.19764 30.7572 6.82821 30.7572H8.27733V24.3473C8.27733 23.6405 9.35262 23.6405 9.35262 24.3473V30.7572H16.2308V24.3473C16.2308 23.6405 17.3029 23.6405 17.3029 24.3473V25.1691C17.5575 24.9747 17.8529 24.8683 18.1784 24.8651ZM30.4685 32.9249C30.4685 33.4245 30.5298 33.8176 30.1549 34.1915C29.9604 34.3859 29.6951 34.5051 29.4029 34.5051H24.7655C24.1779 34.5051 23.6999 34.0271 23.6999 33.4395V32.9249H21.2034C20.3172 32.9249 19.5373 32.4254 19.1635 31.6187L17.6628 28.3821V36.7954C17.6628 37.2616 17.9335 37.803 18.3514 37.803H35.8203C36.2403 37.803 36.511 37.2605 36.511 36.7954V28.3821L35.0071 31.6187C34.6322 32.4254 33.8566 32.9249 32.9672 32.9249H30.4685ZM24.7644 30.2706H29.4018C29.9862 30.2706 30.4675 30.7518 30.4675 31.333V31.8507H32.964C33.442 31.8507 33.8319 31.6037 34.0296 31.1718L36.3499 26.1746C36.2586 26.0403 36.134 25.9404 35.9879 25.9404H20.4375H18.1655C18.0312 25.9436 17.9002 26.0467 17.8153 26.1746L20.1356 31.1718C20.3365 31.6047 20.7232 31.8507 21.2013 31.8507H23.6977C23.6977 31.3512 23.6365 30.958 24.0146 30.581C24.208 30.3887 24.4723 30.2706 24.7644 30.2706ZM29.3932 31.3448H24.7741V33.4309H29.3932V31.3448Z" fill="#141482"/>
</svg>
