<svg width="20" height="20" viewBox="0 0 20 20" fill="none" xmlns="http://www.w3.org/2000/svg">
<path id="Vector" d="M19.9481 7.65955C19.8172 7.25457 19.458 6.96693 19.033 6.92863L13.2605 6.40448L10.9778 1.06178C10.8095 0.670234 10.4262 0.416779 10.0003 0.416779C9.57446 0.416779 9.19115 0.670234 9.02284 1.0627L6.74022 6.40448L0.966758 6.92863C0.542553 6.96785 0.184267 7.25457 0.0525806 7.65955C-0.0791061 8.06453 0.0425095 8.50872 0.36341 8.78873L4.72677 12.6154L3.44012 18.2831C3.34597 18.6999 3.50772 19.1306 3.85349 19.3806C4.03935 19.5149 4.25679 19.5832 4.47606 19.5832C4.66513 19.5832 4.85266 19.5323 5.02097 19.4315L10.0003 16.4556L14.9779 19.4315C15.3421 19.6507 15.8013 19.6307 16.1463 19.3806C16.4922 19.1299 16.6538 18.699 16.5597 18.2831L15.273 12.6154L19.6364 8.78949C19.9573 8.50872 20.0798 8.06529 19.9481 7.65955Z" fill="#FFC107"/>
</svg>
