<svg width="17" height="16" viewBox="0 0 17 16" fill="none" xmlns="http://www.w3.org/2000/svg">
<g clip-path="url(#clip0_9_6616)">
<path d="M6.20703 8C6.20703 9.10457 7.10246 10 8.20703 10C9.3116 10 10.207 9.10457 10.207 8C10.207 6.89543 9.3116 6 8.20703 6C7.10246 6 6.20703 6.89543 6.20703 8Z" fill="#586276"/>
<path d="M6.20703 2C6.20703 3.10457 7.10246 4 8.20703 4C9.3116 4 10.207 3.10457 10.207 2C10.207 0.895431 9.3116 -3.91405e-08 8.20703 -8.74228e-08C7.10246 -1.35705e-07 6.20703 0.89543 6.20703 2Z" fill="#586276"/>
<path d="M6.20703 14C6.20703 15.1046 7.10246 16 8.20703 16C9.3116 16 10.207 15.1046 10.207 14C10.207 12.8954 9.3116 12 8.20703 12C7.10246 12 6.20703 12.8954 6.20703 14Z" fill="#586276"/>
</g>
<defs>
<clipPath id="clip0_9_6616">
<rect width="16" height="16" fill="white" transform="translate(16.207) rotate(90)"/>
</clipPath>
</defs>
</svg>
