<svg width="14" height="15" viewBox="0 0 14 15" fill="none" xmlns="http://www.w3.org/2000/svg">
<g clip-path="url(#clip0_1286_33906)">
<path d="M12.0625 1.12598H1.53819C0.689856 1.12598 0 1.81561 0 2.66494V12.3375C0 13.1858 0.689856 13.8747 1.53819 13.8747H12.0625C12.9108 13.8747 13.6 13.1858 13.6 12.3375V2.66494C13.6 1.81561 12.9109 1.12598 12.0625 1.12598ZM8.79445 3.41471C9.61483 3.41471 10.2801 4.08007 10.2801 4.90041C10.2801 5.72074 9.61479 6.3861 8.79445 6.3861C7.97384 6.3861 7.30875 5.72074 7.30875 4.90041C7.30875 4.08007 7.97384 3.41471 8.79445 3.41471ZM11.5801 12.4528H6.79986H2.23255C1.82223 12.4528 1.63948 12.1559 1.82446 11.7897L4.37419 6.73948C4.55893 6.37326 4.91103 6.34058 5.16038 6.66641L7.72422 10.0169C7.97357 10.3428 8.40939 10.3705 8.69785 10.0786L9.32506 9.44345C9.61328 9.15149 10.038 9.18764 10.2732 9.52367L11.8973 11.8436C12.1321 12.1802 11.9905 12.4528 11.5801 12.4528Z" fill="#141482"/>
</g>
<defs>
<clipPath id="clip0_1286_33906">
<rect width="13.6" height="13.6" fill="white" transform="translate(0 0.700195)"/>
</clipPath>
</defs>
</svg>

