<svg width="55" height="55" viewBox="0 0 55 55" fill="none" xmlns="http://www.w3.org/2000/svg">
<rect x="1" y="1" width="53.6388" height="53.64" rx="26.8194" fill="white"/>
<rect x="1" y="1" width="53.6388" height="53.64" rx="26.8194" stroke="#141482" stroke-width="0.5" stroke-linecap="round" stroke-dasharray="3 3"/>
<g clip-path="url(#clip0_2487_13001)">
<path d="M32.4637 22.1895H23.1775C22.429 22.1895 21.8203 22.7979 21.8203 23.5474V32.0819C21.8203 32.8305 22.429 33.4383 23.1775 33.4383H32.4637C33.2122 33.4383 33.8203 32.8305 33.8203 32.0819V23.5474C33.8203 22.7979 33.2123 22.1895 32.4637 22.1895ZM29.5801 24.2089C30.304 24.2089 30.891 24.796 30.891 25.5198C30.891 26.2437 30.3039 26.8307 29.5801 26.8307C28.8561 26.8307 28.2692 26.2437 28.2692 25.5198C28.2692 24.796 28.8561 24.2089 29.5801 24.2089ZM32.0381 32.1837H27.8202H23.7902C23.4282 32.1837 23.2669 31.9218 23.4301 31.5986L25.6799 27.1425C25.8429 26.8194 26.1536 26.7906 26.3736 27.0781L28.6358 30.0344C28.8558 30.322 29.2404 30.3464 29.4949 30.0888L30.0483 29.5284C30.3026 29.2708 30.6773 29.3027 30.8849 29.5992L32.318 31.6462C32.5251 31.9431 32.4001 32.1837 32.0381 32.1837Z" fill="#141482"/>
</g>
<defs>
<clipPath id="clip0_2487_13001">
<rect width="12" height="12" fill="white" transform="translate(21.8193 21.8203)"/>
</clipPath>
</defs>
</svg>
