<svg width="20" height="21" viewBox="0 0 20 21" fill="none" xmlns="http://www.w3.org/2000/svg">
  <path fill-rule="evenodd" clip-rule="evenodd" d="M16.5092 8.09961C16.0673 8.09961 15.7092 7.74145 15.7092 7.29961L15.7092 5.69961C15.7092 5.48745 15.6249 5.28401 15.4748 5.13393C15.3248 4.98393 15.1214 4.89961 14.9092 4.89961L5.30919 4.89961C5.09703 4.89961 4.89359 4.98385 4.74351 5.13393C4.59343 5.28401 4.50919 5.48745 4.50919 5.69961L4.50919 7.29961C4.50919 7.74145 4.15103 8.09961 3.70919 8.09961C3.26735 8.09961 2.90919 7.74145 2.90919 7.29961L2.90919 5.69961C2.90919 5.06313 3.16199 4.45265 3.61215 4.00257C4.06223 3.55249 4.67271 3.29961 5.30919 3.29961L14.9092 3.29961C15.5457 3.29961 16.1562 3.55241 16.6062 4.00257C17.0563 4.45265 17.3092 5.06313 17.3092 5.69961L17.3092 7.29961C17.3092 7.74145 16.951 8.09961 16.5092 8.09961Z" fill="#586275"/>
  <path fill-rule="evenodd" clip-rule="evenodd" d="M14.6749 12.6661C14.3624 12.9785 13.8559 12.9785 13.5435 12.6661L10.1092 9.23175L6.67488 12.6661C6.36248 12.9785 5.85592 12.9785 5.54352 12.6661C5.23104 12.3537 5.23104 11.8471 5.54352 11.5347L9.54352 7.53471C9.85592 7.22231 10.3625 7.22231 10.6749 7.53471L14.6749 11.5347C14.9873 11.8471 14.9873 12.3537 14.6749 12.6661Z" fill="#586275"/>
  <path fill-rule="evenodd" clip-rule="evenodd" d="M10.1092 18.5C9.66734 18.5 9.30918 18.1418 9.30918 17.7L9.30918 8.1C9.30918 7.65816 9.66734 7.3 10.1092 7.3C10.551 7.3 10.9092 7.65816 10.9092 8.1L10.9092 17.7C10.9092 18.1418 10.551 18.5 10.1092 18.5Z" fill="#586275"/>
</svg>