<svg width="55" height="55" viewBox="0 0 55 55" fill="none" xmlns="http://www.w3.org/2000/svg">
<g opacity="0.5">
<rect x="0.361328" y="1" width="53.6388" height="53.64" rx="26.8194" fill="white"/>
<rect x="0.361328" y="1" width="53.6388" height="53.64" rx="26.8194" stroke="#141482" stroke-width="0.5" stroke-linecap="round" stroke-dasharray="3 3"/>
<g clip-path="url(#clip0_2425_41837)">
<path d="M31.2702 23.3242H23.0944C22.4353 23.3242 21.8994 23.86 21.8994 24.5198V32.0339C21.8994 32.6929 22.4353 33.2281 23.0944 33.2281H31.2702C31.9292 33.2281 32.4646 32.6929 32.4646 32.0339V24.5198C32.4646 23.86 31.9293 23.3242 31.2702 23.3242ZM28.7314 25.1022C29.3687 25.1022 29.8856 25.6191 29.8856 26.2564C29.8856 26.8937 29.3687 27.4106 28.7314 27.4106C28.0939 27.4106 27.5772 26.8937 27.5772 26.2564C27.5772 25.6191 28.0939 25.1022 28.7314 25.1022ZM30.8955 32.1235H27.1819H23.6338C23.315 32.1235 23.1731 31.8929 23.3168 31.6084L25.2975 27.6851C25.441 27.4006 25.7146 27.3752 25.9083 27.6283L27.9 30.2312C28.0937 30.4844 28.4323 30.5059 28.6564 30.2791L29.1436 29.7857C29.3675 29.5589 29.6974 29.587 29.8802 29.848L31.1419 31.6503C31.3243 31.9117 31.2143 32.1235 30.8955 32.1235Z" fill="#141482"/>
</g>
</g>
<defs>
<clipPath id="clip0_2425_41837">
<rect width="10.5652" height="10.5652" fill="white" transform="translate(21.8984 23)"/>
</clipPath>
</defs>
</svg>
