<svg width="34" height="35" viewBox="0 0 34 35" fill="none" xmlns="http://www.w3.org/2000/svg">
<g clip-path="url(#clip0_9_5597)">
<path d="M11.9404 27.156L6.86803 29.9228C6.57037 30.0851 6.30286 30.2846 6.05396 30.5021C9.01131 32.9957 12.8289 34.5 17 34.5C21.1403 34.5 24.9336 33.0181 27.8826 30.5586C27.6106 30.3289 27.3155 30.1223 26.9883 29.9594L21.5567 27.2439C20.8549 26.893 20.4116 26.1758 20.4116 25.3912V23.2601C20.5643 23.0863 20.7388 22.863 20.9254 22.5994C21.6657 21.5537 22.2258 20.4035 22.6139 19.1968C23.3106 18.9819 23.8238 18.3385 23.8238 17.5738V15.299C23.8238 14.7986 23.6012 14.3515 23.2554 14.0384V10.75C23.2554 10.75 23.9309 5.63272 17.0007 5.63272C10.0704 5.63272 10.746 10.75 10.746 10.75V14.0384C10.3995 14.3515 10.1776 14.7986 10.1776 15.299V17.5738C10.1776 18.1729 10.4926 18.7003 10.9641 19.005C11.5324 21.4793 13.0207 23.2601 13.0207 23.2601V25.3386C13.0201 26.0956 12.6057 26.7929 11.9404 27.156Z" fill="#E7ECED"/>
<path d="M17.2906 0.502532C7.90336 0.342154 0.162911 7.82215 0.00253318 17.2094C-0.0885612 22.532 2.28374 27.3157 6.06095 30.4969C6.30793 30.2814 6.57287 30.0838 6.86733 29.9234L11.9397 27.1566C12.605 26.7935 13.0194 26.0962 13.0194 25.3379V23.2594C13.0194 23.2594 11.5305 21.4786 10.9627 19.0043C10.4919 18.6996 10.1762 18.1729 10.1762 17.5731V15.2983C10.1762 14.7979 10.3988 14.3508 10.7446 14.0377V10.7494C10.7446 10.7494 10.0691 5.63204 16.9993 5.63204C23.9296 5.63204 23.254 10.7494 23.254 10.7494V14.0377C23.6005 14.3508 23.8224 14.7979 23.8224 15.2983V17.5731C23.8224 18.3378 23.3092 18.9812 22.6125 19.1961C22.2244 20.4028 21.6644 21.553 20.9241 22.5987C20.7374 22.8623 20.5629 23.0856 20.4102 23.2594V25.3905C20.4102 26.1751 20.8535 26.8929 21.5553 27.2432L26.987 29.9587C27.3129 30.1217 27.6073 30.3276 27.8787 30.5566C31.5417 27.5017 33.9082 22.9342 33.9961 17.7906C34.1578 8.40336 26.6784 0.662909 17.2906 0.502532Z" fill="#556080"/>
</g>
<defs>
<clipPath id="clip0_9_5597">
<rect width="34" height="34" fill="white" transform="translate(0 0.5)"/>
</clipPath>
</defs>
</svg>
