<svg width="33" height="33" viewBox="0 0 33 33" fill="none" xmlns="http://www.w3.org/2000/svg">
<rect width="33" height="33.0001" rx="6" fill="#F3F4F6"/>
<g clip-path="url(#clip0_95_7046)">
<path d="M16.386 16.2073C17.4448 16.2073 18.3617 15.8275 19.1108 15.0782C19.86 14.3291 20.2397 13.4125 20.2397 12.3535C20.2397 11.2949 19.86 10.3782 19.1107 9.62878C18.3615 8.87976 17.4447 8.5 16.386 8.5C15.327 8.5 14.4104 8.87976 13.6613 9.62891C12.9121 10.3781 12.5322 11.2948 12.5322 12.3535C12.5322 13.4125 12.9121 14.3292 13.6614 15.0784C14.4106 15.8274 15.3274 16.2073 16.386 16.2073Z" fill="#606C85"/>
<path d="M23.129 20.8032C23.1074 20.4915 23.0637 20.1514 22.9994 19.7922C22.9344 19.4304 22.8508 19.0884 22.7507 18.7758C22.6473 18.4526 22.5067 18.1335 22.3329 17.8278C22.1525 17.5104 21.9406 17.234 21.7028 17.0066C21.4541 16.7687 21.1497 16.5774 20.7976 16.4379C20.4468 16.2991 20.058 16.2288 19.6421 16.2288C19.4788 16.2288 19.3208 16.2958 19.0157 16.4944C18.828 16.6168 18.6084 16.7584 18.3633 16.915C18.1537 17.0486 17.8698 17.1737 17.519 17.287C17.1769 17.3977 16.8295 17.4539 16.4866 17.4539C16.1437 17.4539 15.7964 17.3977 15.4539 17.287C15.1035 17.1738 14.8196 17.0487 14.6102 16.9152C14.3674 16.76 14.1477 16.6184 13.9572 16.4943C13.6525 16.2957 13.4944 16.2286 13.3311 16.2286C12.915 16.2286 12.5264 16.2991 12.1757 16.438C11.8239 16.5773 11.5193 16.7686 11.2704 17.0067C11.0327 17.2343 10.8207 17.5105 10.6405 17.8278C10.4668 18.1335 10.3262 18.4525 10.2227 18.7759C10.1227 19.0885 10.0391 19.4304 9.97412 19.7922C9.90979 20.1509 9.86609 20.4911 9.84448 20.8036C9.82324 21.1097 9.8125 21.4275 9.8125 21.7484C9.8125 22.5836 10.078 23.2598 10.6016 23.7584C11.1187 24.2505 11.8029 24.5001 12.6349 24.5001H20.339C21.171 24.5001 21.855 24.2506 22.3722 23.7584C22.8959 23.2601 23.1614 22.5839 23.1614 21.7483C23.1613 21.4259 23.1504 21.1079 23.129 20.8032Z" fill="#606C85"/>
</g>
<defs>
<clipPath id="clip0_95_7046">
<rect width="16" height="16.0001" fill="white" transform="translate(8.5 8.5)"/>
</clipPath>
</defs>
</svg>
