<svg width="20" height="20" viewBox="0 0 20 20" fill="none" xmlns="http://www.w3.org/2000/svg">
  <path d="M16.5834 8.80011L16.2667 9.58344C16.1667 9.85011 16.1667 10.1334 16.2667 10.4001L16.5834 11.1834C16.7667 11.6501 16.6167 12.1834 16.2001 12.4834L15.5001 12.9668C15.2667 13.1334 15.1167 13.3834 15.0501 13.6501L14.9001 14.4834C14.8001 14.9834 14.3834 15.3501 13.8834 15.3668L13.0334 15.4001C12.7501 15.4168 12.4834 15.5334 12.2834 15.7334L11.7001 16.3501C11.3501 16.7168 10.8001 16.8001 10.3667 16.5501L9.6334 16.1168C9.3834 15.9668 9.10007 15.9334 8.81673 16.0001L7.9834 16.2001C7.50007 16.3168 6.9834 16.0834 6.75006 15.6334L6.36673 14.8668C6.2334 14.6168 6.01673 14.4168 5.75007 14.3334L4.95007 14.0668C4.46673 13.9001 4.16673 13.4334 4.21673 12.9334L4.30006 12.0834C4.3334 11.8001 4.25006 11.5168 4.06673 11.3001L3.5334 10.6334C3.21673 10.2334 3.21673 9.68344 3.5334 9.28344L4.06673 8.61678C4.25006 8.40011 4.3334 8.11678 4.30006 7.83344L4.21673 6.98344C4.16673 6.48344 4.46673 6.01678 4.95007 5.85011L5.75007 5.58344C6.01673 5.50011 6.2334 5.30011 6.36673 5.05011L6.75006 4.28344C6.9834 3.83344 7.4834 3.60011 7.9834 3.71678L8.81673 3.91678C9.0834 3.98344 9.3834 3.95011 9.6334 3.80011L10.3667 3.36678C10.8001 3.11678 11.3501 3.18344 11.7001 3.56678L12.2834 4.18344C12.4834 4.38344 12.7501 4.51678 13.0334 4.51678L13.8834 4.55011C14.3834 4.56678 14.8167 4.93344 14.9001 5.43344L15.0501 6.26678C15.1001 6.55011 15.2667 6.80011 15.5001 6.95011L16.2001 7.43344C16.6167 7.80011 16.7834 8.33344 16.5834 8.80011Z" fill="#00D566"/>
  <g opacity="0.15">
    <path d="M7.2334 15.5841L6.85006 14.8174C6.71673 14.5674 6.50007 14.3674 6.2334 14.2841L5.4334 14.0174C4.95006 13.8507 4.65007 13.3841 4.70007 12.8841L4.7834 12.0341C4.81673 11.7507 4.7334 11.4674 4.55006 11.2507L4.01673 10.5841C3.70007 10.1841 3.70007 9.63406 4.01673 9.23406L4.55006 8.5674C4.7334 8.35073 4.81673 8.0674 4.7834 7.78406L4.70007 6.93406C4.65007 6.43406 4.95006 5.9674 5.4334 5.80073L6.2334 5.53406C6.50007 5.45073 6.71673 5.25073 6.85006 5.00073L7.2334 4.23406C7.36673 3.9674 7.60006 3.78406 7.85006 3.70073C7.40006 3.63406 6.95006 3.8674 6.75006 4.28406L6.36673 5.05073C6.2334 5.30073 6.01673 5.50073 5.75007 5.58406L4.95007 5.85073C4.46673 6.0174 4.16673 6.48406 4.21673 6.98406L4.30006 7.83406C4.3334 8.1174 4.25006 8.40073 4.06673 8.6174L3.5334 9.28406C3.21673 9.68406 3.21673 10.2341 3.5334 10.6341L4.06673 11.3007C4.25006 11.5174 4.3334 11.8007 4.30006 12.0841L4.21673 12.9341C4.16673 13.4341 4.46673 13.9007 4.95007 14.0674L5.75007 14.3341C6.01673 14.4174 6.2334 14.6174 6.36673 14.8674L6.75006 15.6341C6.9834 16.0841 7.4834 16.3174 7.9834 16.2007L8.0834 16.1841C7.71673 16.1174 7.40007 15.9174 7.2334 15.5841Z" fill="black"/>
    <path d="M10.0998 3.75044L10.8332 3.3171C10.8998 3.28377 10.9665 3.25044 11.0332 3.23377C10.7998 3.20044 10.5498 3.25044 10.3498 3.3671L9.6165 3.80044C9.54984 3.83377 9.48317 3.8671 9.4165 3.88377C9.64984 3.9171 9.88317 3.88377 10.0998 3.75044Z" fill="black"/>
    <path d="M13.4999 15.3341C13.4166 15.3341 13.3333 15.3508 13.2666 15.3674L13.8666 15.3341C13.9499 15.3341 14.0166 15.3174 14.0999 15.3008L13.4999 15.3341Z" fill="black"/>
    <path d="M10.8336 16.4841L10.1003 16.0508C9.85026 15.9008 9.56693 15.8674 9.28359 15.9341L9.18359 15.9508C9.33359 15.9674 9.46693 16.0174 9.60026 16.0841L10.3336 16.5174C10.6169 16.6841 10.9336 16.7008 11.2336 16.6008C11.1003 16.6008 10.9669 16.5674 10.8336 16.4841Z" fill="black"/>
  </g>
  <path d="M7.3335 8.93379L9.41683 11.3171L13.6835 7.88379" fill="#00D566"/>
  <path d="M8.91694 12.5498C8.68361 12.5498 8.45027 12.4498 8.28361 12.2665L6.20027 9.88316C5.90027 9.53316 5.93361 9.0165 6.26694 8.69983C6.61694 8.39983 7.13361 8.43316 7.45027 8.7665L9.01694 10.5498L12.6669 7.6165C13.0169 7.33316 13.5503 7.38316 13.8336 7.74983C14.1169 8.1165 14.0669 8.63316 13.7003 8.9165L9.43361 12.3665C9.28361 12.4832 9.10027 12.5498 8.91694 12.5498Z" fill="white"/>
</svg>