<svg width="20" height="21" viewBox="0 0 20 21" fill="none" xmlns="http://www.w3.org/2000/svg">
<g id="video-camera 1">
<g id="Group">
<g id="Group_2">
<path id="Vector" d="M11.3129 4.62473H2.18818C0.984683 4.62473 0 5.60941 0 6.81291V14.1871C0 15.3906 0.984683 16.3753 2.18818 16.3753H11.3129C12.5164 16.3753 13.5011 15.3906 13.5011 14.1871V6.81291C13.5011 5.58753 12.5164 4.62473 11.3129 4.62473Z" fill="black"/>
</g>
</g>
<g id="Group_3">
<g id="Group_4">
<path id="Vector_2" d="M18.3808 5.82823C18.2495 5.85011 18.1182 5.91576 18.0088 5.9814L14.5952 7.95077V13.0274L18.0307 14.9967C18.6652 15.3687 19.453 15.1499 19.825 14.5153C19.9344 14.3184 20 14.0996 20 13.8589V7.09738C20 6.28775 19.2342 5.63129 18.3808 5.82823Z" fill="black"/>
</g>
</g>
</g>
</svg>
