<svg width="16" height="17" viewBox="0 0 16 17" fill="none" xmlns="http://www.w3.org/2000/svg">
<path d="M3.57672 2.36333L6.05101 4.83761H1.7653C1.85275 4.31228 2.06218 3.81478 2.37678 3.38506C2.69137 2.95535 3.10236 2.6054 3.57672 2.36333ZM6.90244 1.98047H5.14244C5.03387 1.98047 4.9253 1.98618 4.81673 1.9919L7.66244 4.83761H9.75958L6.90244 1.98047ZM10.8567 1.98047H8.5253L11.3824 4.83761H14.2339C14.1 4.0388 13.6872 3.31333 13.0689 2.7902C12.4505 2.26706 11.6667 1.98015 10.8567 1.98047ZM7.1321 11.481L9.98924 9.90961C10.079 9.86039 10.1538 9.78795 10.2059 9.69989C10.2581 9.61183 10.2856 9.51138 10.2856 9.40904C10.2856 9.30671 10.2581 9.20625 10.2059 9.11819C10.1538 9.03013 10.079 8.9577 9.98924 8.90847L7.1321 7.33704C7.0451 7.28919 6.94713 7.26484 6.84785 7.26638C6.74858 7.26792 6.65141 7.29531 6.56594 7.34583C6.48047 7.39636 6.40964 7.46828 6.36042 7.55452C6.31121 7.64075 6.28532 7.73832 6.2853 7.83761V10.9805C6.28532 11.0798 6.31121 11.1773 6.36042 11.2636C6.40964 11.3498 6.48047 11.4217 6.56594 11.4723C6.65141 11.5228 6.74858 11.5502 6.84785 11.5517C6.94713 11.5532 7.0451 11.5289 7.1321 11.481ZM14.2853 5.98047V11.1233C14.2846 12.0324 13.9231 12.9041 13.2803 13.5469C12.6375 14.1897 11.7658 14.5512 10.8567 14.5519H5.14244C4.23335 14.5512 3.3617 14.1897 2.71887 13.5469C2.07605 12.9041 1.71459 12.0324 1.71387 11.1233V5.98047H14.2853Z" fill="#586276"/>
</svg>
