<svg width="16" height="17" viewBox="0 0 16 17" fill="none" xmlns="http://www.w3.org/2000/svg">
<path d="M9.05033 3.7998H1.75055C0.787746 3.7998 0 4.58755 0 5.55035V11.4497C0 12.4125 0.787746 13.2002 1.75055 13.2002H9.05033C10.0131 13.2002 10.8009 12.4125 10.8009 11.4497V5.55035C10.8009 4.57005 10.0131 3.7998 9.05033 3.7998Z" fill="#258B29"/>
<path d="M14.7046 4.76257C14.5996 4.78008 14.4945 4.83259 14.407 4.88511L11.6761 6.4606V10.5219L14.4245 12.0974C14.9322 12.395 15.5624 12.2199 15.86 11.7122C15.9475 11.5547 16 11.3796 16 11.1871V5.77789C16 5.13019 15.3873 4.60502 14.7046 4.76257Z" fill="#258B29"/>
</svg>
