<svg width="20" height="16" viewBox="0 0 20 16" fill="none" xmlns="http://www.w3.org/2000/svg">
<g clip-path="url(#clip0_480_1481)">
<path d="M13.5012 2.29662V6.08199C13.1516 6.00805 12.7891 5.96916 12.4173 5.96916C9.52945 5.96916 7.18865 8.30995 7.18865 11.1978C7.18865 11.4218 7.20275 11.6423 7.2301 11.859H2.18822C0.9847 11.859 0 10.8743 0 9.67075V2.29662C0 1.0931 0.9847 0.108398 2.18822 0.108398H11.3129C12.5165 0.108398 13.5012 1.0713 13.5012 2.29662Z" fill="#677995"/>
<path d="M19.9999 2.58055V9.34224C19.9999 9.58286 19.9346 9.80168 19.8251 9.99871C19.4529 10.6334 18.6652 10.8522 18.0306 10.4804L17.5515 10.2056C17.2296 8.5285 16.106 7.13607 14.5952 6.44285V3.43404L18.0088 1.46465C18.1182 1.39926 18.2494 1.33344 18.381 1.31164C19.2341 1.11462 19.9999 1.77108 19.9999 2.58055Z" fill="#677995"/>
<path fill-rule="evenodd" clip-rule="evenodd" d="M11.6708 11.4367L11.1439 10.9097C10.8915 10.6573 10.4823 10.6573 10.2298 10.9097C9.97742 11.1622 9.97742 11.5714 10.2298 11.8238L11.1994 12.7933C11.4518 13.0457 11.861 13.0457 12.1134 12.7933L14.3756 10.5311C14.6281 10.2787 14.6281 9.86947 14.3756 9.61705C14.1232 9.36463 13.714 9.36463 13.4616 9.61705L11.6708 11.4367Z" fill="#32B237"/>
<path fill-rule="evenodd" clip-rule="evenodd" d="M17.1503 11.2055C17.1503 8.6175 15.0523 6.51953 12.4643 6.51953C9.87629 6.51953 7.77832 8.6175 7.77832 11.2055C7.77832 13.7935 9.87629 15.8915 12.4643 15.8915C15.0523 15.8915 17.1503 13.7935 17.1503 11.2055ZM9.071 11.2055C9.071 9.33146 10.5903 7.81221 12.4643 7.81221C14.3383 7.81221 15.8576 9.33146 15.8576 11.2055C15.8576 13.0796 14.3383 14.5988 12.4643 14.5988C10.5903 14.5988 9.071 13.0796 9.071 11.2055Z" fill="#32B237"/>
</g>
<defs>
<clipPath id="clip0_480_1481">
<rect width="20" height="15.7834" fill="white" transform="translate(0 0.108398)"/>
</clipPath>
</defs>
</svg>
