<svg width="20" height="20" viewBox="0 0 20 20" fill="none" xmlns="http://www.w3.org/2000/svg">
<path d="M1.42856 7.143V14.2859C1.42856 16.643 3.35713 18.5716 5.71427 18.5716H14.2857C16.6428 18.5716 18.5714 16.643 18.5714 14.2859V7.143H1.42856ZM14.2857 5.71442H18.5714C18.5714 3.35728 16.6428 1.42871 14.2857 1.42871H12.1428L14.2857 5.71442ZM9.2857 5.71442H12.8571L10.7143 1.42871H7.14284L9.2857 5.71442ZM1.42856 5.71442H7.85713L5.71427 1.42871C3.35713 1.42871 1.42856 3.35728 1.42856 5.71442ZM8.57141 15.0001C8.21427 15.0001 7.85713 14.643 7.85713 14.2859V10.0001C7.85713 9.71442 7.99999 9.50014 8.21427 9.35728C8.42856 9.21442 8.71427 9.21442 8.92856 9.35728L12.5 11.5001C12.7143 11.643 12.8571 11.8573 12.8571 12.143C12.8571 12.4287 12.7143 12.643 12.5 12.7859L8.92856 14.9287C8.85713 15.0001 8.71427 15.0001 8.57141 15.0001Z" fill="#AAB1BC"/>
</svg>
