<svg width="16" height="16" viewBox="0 0 16 16" fill="none" xmlns="http://www.w3.org/2000/svg">
<g id="video-camera 1">
<g id="Group">
<g id="Group_2">
<path id="Vector" d="M9.05033 3.29977H1.75055C0.787746 3.29977 0 4.08752 0 5.05032V10.9497C0 11.9125 0.787746 12.7002 1.75055 12.7002H9.05033C10.0131 12.7002 10.8009 11.9125 10.8009 10.9497V5.05032C10.8009 4.07002 10.0131 3.29977 9.05033 3.29977Z" fill="#586275"/>
</g>
</g>
<g id="Group_3">
<g id="Group_4">
<path id="Vector_2" d="M14.7046 4.26257C14.5996 4.28008 14.4945 4.33259 14.407 4.38511L11.6761 5.9606V10.0219L14.4245 11.5974C14.9322 11.895 15.5624 11.7199 15.86 11.2122C15.9475 11.0547 16 10.8796 16 10.6871V5.27789C16 4.63019 15.3873 4.10502 14.7046 4.26257Z" fill="#586275"/>
</g>
</g>
</g>
</svg>
