<svg width="18" height="18" viewBox="0 0 18 18" fill="none" xmlns="http://www.w3.org/2000/svg">
<path d="M9 0C4.02571 0 0 4.02525 0 9C0 13.9742 4.02525 18 9 18C13.9743 18 18 13.9747 18 9C18 4.02578 13.9747 0 9 0ZM9.92422 12.5726C9.92422 12.857 9.50959 13.1412 9.00018 13.1412C8.46707 13.1412 8.08801 12.857 8.08801 12.5726V8.05901C8.08801 7.72731 8.4671 7.50217 9.00018 7.50217C9.50959 7.50217 9.92422 7.72731 9.92422 8.05901V12.5726ZM9.00021 6.41236C8.45525 6.41236 8.02881 6.00957 8.02881 5.55936C8.02881 5.10919 8.45529 4.71825 9.00021 4.71825C9.53332 4.71825 9.95984 5.10919 9.95984 5.55936C9.95984 6.00957 9.53329 6.41236 9.00021 6.41236Z" fill="#FFC107"/>
</svg>
