<svg width="40" height="40" viewBox="0 0 40 40" fill="none" xmlns="http://www.w3.org/2000/svg">
<rect width="40" height="40" rx="20" fill="#FFCD40"/>
<path d="M16.64 16.92C16.64 15.4267 16.416 13 20 13C23.584 13 23.36 15.4267 23.36 16.92" stroke="black" stroke-width="1.4"/>
<rect x="12.86" y="16.5" width="14.28" height="9.8" rx="2.3" stroke="black" stroke-width="1.4"/>
<path d="M17.76 19.453C17.76 18.8265 17.76 18.5133 17.9629 18.3984C18.1659 18.2835 18.4344 18.4447 18.9716 18.767L22.2167 20.714C22.7273 21.0204 22.9825 21.1736 22.9825 21.4C22.9825 21.6265 22.7273 21.7797 22.2167 22.086L18.9716 24.0331C18.4344 24.3554 18.1659 24.5165 17.9629 24.4016C17.76 24.2868 17.76 23.9735 17.76 23.3471V19.453Z" stroke="black" stroke-width="1.4"/>
</svg>
